%TF.GenerationSoftware,KiCad,Pcbnew,(5.1.9)-1*%
%TF.CreationDate,2021-09-28T22:23:38+01:00*%
%TF.ProjectId,Mega2560-pro-mini-radio,4d656761-3235-4363-902d-70726f2d6d69,rev?*%
%TF.SameCoordinates,Original*%
%TF.FileFunction,Copper,L1,Top*%
%TF.FilePolarity,Positive*%
%FSLAX46Y46*%
G04 Gerber Fmt 4.6, Leading zero omitted, Abs format (unit mm)*
G04 Created by KiCad (PCBNEW (5.1.9)-1) date 2021-09-28 22:23:38*
%MOMM*%
%LPD*%
G01*
G04 APERTURE LIST*
%TA.AperFunction,ComponentPad*%
%ADD10O,1.700000X1.700000*%
%TD*%
%TA.AperFunction,ComponentPad*%
%ADD11R,1.700000X1.700000*%
%TD*%
%TA.AperFunction,ComponentPad*%
%ADD12O,1.200000X2.000000*%
%TD*%
%TA.AperFunction,ComponentPad*%
%ADD13O,2.000000X1.200000*%
%TD*%
%TA.AperFunction,ComponentPad*%
%ADD14O,1.000000X0.800000*%
%TD*%
%TA.AperFunction,ViaPad*%
%ADD15C,0.800000*%
%TD*%
%TA.AperFunction,Conductor*%
%ADD16C,0.350000*%
%TD*%
%TA.AperFunction,Conductor*%
%ADD17C,0.254000*%
%TD*%
%TA.AperFunction,Conductor*%
%ADD18C,0.100000*%
%TD*%
G04 APERTURE END LIST*
D10*
%TO.P,J1,30*%
%TO.N,GND*%
X170815000Y-88138000D03*
%TO.P,J1,29*%
%TO.N,N/C*%
X168275000Y-88138000D03*
%TO.P,J1,28*%
X170815000Y-90678000D03*
%TO.P,J1,27*%
X168275000Y-90678000D03*
%TO.P,J1,26*%
X170815000Y-93218000D03*
%TO.P,J1,25*%
X168275000Y-93218000D03*
%TO.P,J1,24*%
X170815000Y-95758000D03*
%TO.P,J1,23*%
X168275000Y-95758000D03*
%TO.P,J1,22*%
X170815000Y-98298000D03*
%TO.P,J1,21*%
X168275000Y-98298000D03*
%TO.P,J1,20*%
X170815000Y-100838000D03*
%TO.P,J1,19*%
X168275000Y-100838000D03*
%TO.P,J1,18*%
X170815000Y-103378000D03*
%TO.P,J1,17*%
X168275000Y-103378000D03*
%TO.P,J1,16*%
X170815000Y-105918000D03*
%TO.P,J1,15*%
X168275000Y-105918000D03*
%TO.P,J1,14*%
X170815000Y-108458000D03*
%TO.P,J1,13*%
%TO.N,DOUT*%
X168275000Y-108458000D03*
%TO.P,J1,12*%
%TO.N,SW_COM_ENC_MHZ*%
X170815000Y-110998000D03*
%TO.P,J1,11*%
%TO.N,B_COM_ENC_MHZ*%
X168275000Y-110998000D03*
%TO.P,J1,10*%
%TO.N,A_COM_ENC_MHZ*%
X170815000Y-113538000D03*
%TO.P,J1,9*%
%TO.N,SW_COM_ENC_KHZ*%
X168275000Y-113538000D03*
%TO.P,J1,8*%
%TO.N,B_COM_ENC_KHZ*%
X170815000Y-116078000D03*
%TO.P,J1,7*%
%TO.N,A_COM_ENC_KHZ*%
X168275000Y-116078000D03*
%TO.P,J1,6*%
%TO.N,COM_SWAP*%
X170815000Y-118618000D03*
%TO.P,J1,5*%
%TO.N,N/C*%
X168275000Y-118618000D03*
%TO.P,J1,4*%
%TO.N,CS_MAX*%
X170815000Y-121158000D03*
%TO.P,J1,3*%
%TO.N,CLK*%
X168275000Y-121158000D03*
%TO.P,J1,2*%
%TO.N,DIN*%
X170815000Y-123698000D03*
D11*
%TO.P,J1,1*%
%TO.N,+5V*%
X168275000Y-123698000D03*
%TD*%
D10*
%TO.P,J4,30*%
%TO.N,GND*%
X124460000Y-80010000D03*
%TO.P,J4,29*%
%TO.N,N/C*%
X124460000Y-82550000D03*
%TO.P,J4,28*%
X127000000Y-80010000D03*
%TO.P,J4,27*%
X127000000Y-82550000D03*
%TO.P,J4,26*%
X129540000Y-80010000D03*
%TO.P,J4,25*%
X129540000Y-82550000D03*
%TO.P,J4,24*%
X132080000Y-80010000D03*
%TO.P,J4,23*%
X132080000Y-82550000D03*
%TO.P,J4,22*%
X134620000Y-80010000D03*
%TO.P,J4,21*%
X134620000Y-82550000D03*
%TO.P,J4,20*%
X137160000Y-80010000D03*
%TO.P,J4,19*%
X137160000Y-82550000D03*
%TO.P,J4,18*%
X139700000Y-80010000D03*
%TO.P,J4,17*%
X139700000Y-82550000D03*
%TO.P,J4,16*%
X142240000Y-80010000D03*
%TO.P,J4,15*%
X142240000Y-82550000D03*
%TO.P,J4,14*%
X144780000Y-80010000D03*
%TO.P,J4,13*%
%TO.N,I_led*%
X144780000Y-82550000D03*
%TO.P,J4,12*%
%TO.N,M_led*%
X147320000Y-80010000D03*
%TO.P,J4,11*%
%TO.N,O_led*%
X147320000Y-82550000D03*
%TO.P,J4,10*%
%TO.N,AUX*%
X149860000Y-80010000D03*
%TO.P,J4,9*%
%TO.N,ADF*%
X149860000Y-82550000D03*
%TO.P,J4,8*%
%TO.N,DME*%
X152400000Y-80010000D03*
%TO.P,J4,7*%
%TO.N,MKR*%
X152400000Y-82550000D03*
%TO.P,J4,6*%
%TO.N,NAV2*%
X154940000Y-80010000D03*
%TO.P,J4,5*%
%TO.N,NAV1*%
X154940000Y-82550000D03*
%TO.P,J4,4*%
%TO.N,BOTH*%
X157480000Y-80010000D03*
%TO.P,J4,3*%
%TO.N,COM2*%
X157480000Y-82550000D03*
%TO.P,J4,2*%
%TO.N,COM1*%
X160020000Y-80010000D03*
D11*
%TO.P,J4,1*%
%TO.N,+5V*%
X160020000Y-82550000D03*
%TD*%
D10*
%TO.P,J2,30*%
%TO.N,GND*%
X166116000Y-133350000D03*
%TO.P,J2,29*%
%TO.N,N/C*%
X166116000Y-130810000D03*
%TO.P,J2,28*%
X163576000Y-133350000D03*
%TO.P,J2,27*%
X163576000Y-130810000D03*
%TO.P,J2,26*%
X161036000Y-133350000D03*
%TO.P,J2,25*%
X161036000Y-130810000D03*
%TO.P,J2,24*%
X158496000Y-133350000D03*
%TO.P,J2,23*%
X158496000Y-130810000D03*
%TO.P,J2,22*%
X155956000Y-133350000D03*
%TO.P,J2,21*%
X155956000Y-130810000D03*
%TO.P,J2,20*%
X153416000Y-133350000D03*
%TO.P,J2,19*%
X153416000Y-130810000D03*
%TO.P,J2,18*%
X150876000Y-133350000D03*
%TO.P,J2,17*%
X150876000Y-130810000D03*
%TO.P,J2,16*%
X148336000Y-133350000D03*
%TO.P,J2,15*%
X148336000Y-130810000D03*
%TO.P,J2,14*%
X145796000Y-133350000D03*
%TO.P,J2,13*%
X145796000Y-130810000D03*
%TO.P,J2,12*%
%TO.N,SW_NAV_ENC_MHZ*%
X143256000Y-133350000D03*
%TO.P,J2,11*%
%TO.N,B_NAV_ENC_MHZ*%
X143256000Y-130810000D03*
%TO.P,J2,10*%
%TO.N,A_NAV_ENC_MHZ*%
X140716000Y-133350000D03*
%TO.P,J2,9*%
%TO.N,SW_NAV_ENC_KHZ*%
X140716000Y-130810000D03*
%TO.P,J2,8*%
%TO.N,B_NAV_ENC_KHZ*%
X138176000Y-133350000D03*
%TO.P,J2,7*%
%TO.N,A_NAV_ENC_KHZ*%
X138176000Y-130810000D03*
%TO.P,J2,6*%
%TO.N,NAV_SWAP*%
X135636000Y-133350000D03*
%TO.P,J2,5*%
%TO.N,N/C*%
X135636000Y-130810000D03*
%TO.P,J2,4*%
%TO.N,CS_MAX*%
X133096000Y-133350000D03*
%TO.P,J2,3*%
%TO.N,CLK*%
X133096000Y-130810000D03*
%TO.P,J2,2*%
%TO.N,DOUT*%
X130556000Y-133350000D03*
D11*
%TO.P,J2,1*%
%TO.N,+5V*%
X130556000Y-130810000D03*
%TD*%
D12*
%TO.P,MCU1,40*%
%TO.N,COM1*%
X158089000Y-123738000D03*
%TO.P,MCU1,2*%
%TO.N,VCC*%
X109829000Y-123738000D03*
%TO.P,MCU1,4*%
%TO.N,GND*%
X112369000Y-123738000D03*
%TO.P,MCU1,6*%
%TO.N,+5V*%
X114909000Y-123738000D03*
%TO.P,MCU1,8*%
%TO.N,N/C*%
X117449000Y-123738000D03*
%TO.P,MCU1,10*%
X119989000Y-123738000D03*
%TO.P,MCU1,12*%
X122529000Y-123738000D03*
%TO.P,MCU1,14*%
X125069000Y-123738000D03*
%TO.P,MCU1,16*%
X127609000Y-123738000D03*
%TO.P,MCU1,18*%
X130149000Y-123738000D03*
%TO.P,MCU1,20*%
X132689000Y-123738000D03*
%TO.P,MCU1,22*%
%TO.N,A_COM_ENC_KHZ*%
X135229000Y-123738000D03*
%TO.P,MCU1,24*%
%TO.N,A_COM_ENC_MHZ*%
X137769000Y-123738000D03*
%TO.P,MCU1,26*%
%TO.N,A_NAV_ENC_KHZ*%
X140309000Y-123738000D03*
%TO.P,MCU1,28*%
%TO.N,A_NAV_ENC_MHZ*%
X142849000Y-123738000D03*
%TO.P,MCU1,30*%
%TO.N,COM_SWAP*%
X145389000Y-123738000D03*
%TO.P,MCU1,36*%
%TO.N,SW_NAV_ENC_MHZ*%
X153009000Y-123738000D03*
%TO.P,MCU1,34*%
%TO.N,NAV_SWAP*%
X150469000Y-123738000D03*
%TO.P,MCU1,32*%
%TO.N,SW_COM_ENC_MHZ*%
X147929000Y-123738000D03*
%TO.P,MCU1,42*%
%TO.N,BOTH*%
X160629000Y-123738000D03*
%TO.P,MCU1,38*%
%TO.N,CS_MAX*%
X155549000Y-123738000D03*
%TO.P,MCU1,1*%
%TO.N,VCC*%
X109859000Y-121088000D03*
%TO.P,MCU1,3*%
%TO.N,GND*%
X112399000Y-121088000D03*
%TO.P,MCU1,5*%
%TO.N,+5V*%
X114939000Y-121088000D03*
%TO.P,MCU1,7*%
%TO.N,N/C*%
X117479000Y-121088000D03*
%TO.P,MCU1,9*%
X120019000Y-121088000D03*
%TO.P,MCU1,11*%
X122559000Y-121088000D03*
%TO.P,MCU1,13*%
X125099000Y-121088000D03*
%TO.P,MCU1,15*%
X127639000Y-121088000D03*
%TO.P,MCU1,17*%
X130179000Y-121088000D03*
%TO.P,MCU1,19*%
X132719000Y-121088000D03*
%TO.P,MCU1,21*%
X135259000Y-121088000D03*
%TO.P,MCU1,23*%
%TO.N,B_COM_ENC_KHZ*%
X137799000Y-121088000D03*
%TO.P,MCU1,25*%
%TO.N,B_COM_ENC_MHZ*%
X140339000Y-121088000D03*
%TO.P,MCU1,27*%
%TO.N,B_NAV_ENC_KHZ*%
X142879000Y-121088000D03*
%TO.P,MCU1,29*%
%TO.N,B_NAV_ENC_MHZ*%
X145419000Y-121088000D03*
%TO.P,MCU1,31*%
%TO.N,SW_COM_ENC_KHZ*%
X147959000Y-121088000D03*
%TO.P,MCU1,33*%
%TO.N,N/C*%
X150499000Y-121088000D03*
%TO.P,MCU1,35*%
%TO.N,SW_NAV_ENC_KHZ*%
X153039000Y-121088000D03*
%TO.P,MCU1,37*%
%TO.N,DIN*%
X155579000Y-121088000D03*
%TO.P,MCU1,39*%
%TO.N,CLK*%
X158119000Y-121088000D03*
%TO.P,MCU1,41*%
%TO.N,COM2*%
X160659000Y-121088000D03*
D13*
%TO.P,MCU1,67*%
%TO.N,N/C*%
X160715667Y-95815845D03*
D14*
%TO.P,MCU1,43*%
X157145667Y-111055845D03*
%TO.P,MCU1,45*%
X157145667Y-108515845D03*
D13*
%TO.P,MCU1,47*%
X157145667Y-105975845D03*
D14*
%TO.P,MCU1,44*%
X160715667Y-111055845D03*
D13*
%TO.P,MCU1,46*%
X160715667Y-108515845D03*
%TO.P,MCU1,48*%
X160715667Y-105975845D03*
%TO.P,MCU1,65*%
X160715667Y-93275845D03*
%TO.P,MCU1,69*%
X160715667Y-98355845D03*
%TO.P,MCU1,70*%
X157145667Y-98355845D03*
%TO.P,MCU1,68*%
X157145667Y-95815845D03*
%TO.P,MCU1,66*%
X157145667Y-93275845D03*
D12*
%TO.P,MCU1,62*%
X158309000Y-90458000D03*
%TO.P,MCU1,72*%
X122749000Y-90458000D03*
%TO.P,MCU1,74*%
X125289000Y-90458000D03*
%TO.P,MCU1,76*%
X127829000Y-90458000D03*
%TO.P,MCU1,78*%
X130369000Y-90458000D03*
%TO.P,MCU1,80*%
X132909000Y-90458000D03*
%TO.P,MCU1,82*%
X135449000Y-90458000D03*
%TO.P,MCU1,84*%
X137989000Y-90458000D03*
%TO.P,MCU1,86*%
X140529000Y-90458000D03*
%TO.P,MCU1,50*%
%TO.N,NAV2*%
X143069000Y-90458000D03*
%TO.P,MCU1,52*%
%TO.N,DME*%
X145609000Y-90458000D03*
%TO.P,MCU1,58*%
%TO.N,N/C*%
X153229000Y-90458000D03*
%TO.P,MCU1,56*%
%TO.N,M_led*%
X150689000Y-90458000D03*
%TO.P,MCU1,54*%
%TO.N,AUX*%
X148149000Y-90458000D03*
%TO.P,MCU1,64*%
%TO.N,N/C*%
X160849000Y-90458000D03*
%TO.P,MCU1,60*%
X155769000Y-90458000D03*
%TO.P,MCU1,71*%
X122779000Y-87808000D03*
%TO.P,MCU1,73*%
X125319000Y-87808000D03*
%TO.P,MCU1,75*%
X127859000Y-87808000D03*
%TO.P,MCU1,77*%
X130399000Y-87808000D03*
%TO.P,MCU1,79*%
X132939000Y-87808000D03*
%TO.P,MCU1,81*%
X135479000Y-87808000D03*
%TO.P,MCU1,83*%
X138019000Y-87808000D03*
%TO.P,MCU1,85*%
X140559000Y-87808000D03*
%TO.P,MCU1,49*%
%TO.N,NAV1*%
X143099000Y-87808000D03*
%TO.P,MCU1,51*%
%TO.N,MKR*%
X145639000Y-87808000D03*
%TO.P,MCU1,53*%
%TO.N,ADF*%
X148179000Y-87808000D03*
%TO.P,MCU1,55*%
%TO.N,O_led*%
X150719000Y-87808000D03*
%TO.P,MCU1,57*%
%TO.N,I_led*%
X153259000Y-87808000D03*
%TO.P,MCU1,59*%
%TO.N,N/C*%
X155799000Y-87808000D03*
%TO.P,MCU1,61*%
X158339000Y-87808000D03*
%TO.P,MCU1,63*%
X160879000Y-87808000D03*
%TD*%
D10*
%TO.P,J3,4*%
%TO.N,GND*%
X113919000Y-132207000D03*
%TO.P,J3,3*%
%TO.N,VCC*%
X116459000Y-132207000D03*
%TO.P,J3,2*%
%TO.N,GND*%
X118999000Y-132207000D03*
D11*
%TO.P,J3,1*%
%TO.N,+5V*%
X121539000Y-132207000D03*
%TD*%
D15*
%TO.N,B_COM_ENC_KHZ*%
X153646300Y-117388500D03*
X141270900Y-117675500D03*
%TD*%
D16*
%TO.N,GND*%
X112399000Y-121088000D02*
X112399000Y-122463300D01*
X112399000Y-122463300D02*
X112369000Y-122493300D01*
X112369000Y-122493300D02*
X112369000Y-123738000D01*
X112369000Y-123738000D02*
X112369000Y-125113300D01*
X113933600Y-132207000D02*
X113933600Y-126677900D01*
X113933600Y-126677900D02*
X112369000Y-125113300D01*
X113919000Y-132207000D02*
X113933600Y-132207000D01*
X124460000Y-78867000D02*
X124460000Y-80010000D01*
X126111000Y-77216000D02*
X124460000Y-78867000D01*
X159175500Y-77216000D02*
X126111000Y-77216000D01*
X169589700Y-87630200D02*
X159175500Y-77216000D01*
X169589700Y-88138000D02*
X169589700Y-87630200D01*
X170815000Y-88138000D02*
X169589700Y-88138000D01*
%TO.N,DOUT*%
X131826000Y-132080000D02*
X130556000Y-133350000D01*
X131826000Y-128982300D02*
X131826000Y-132080000D01*
X133989000Y-126819300D02*
X131826000Y-128982300D01*
X133989000Y-118233000D02*
X133989000Y-126819300D01*
X142688500Y-109533500D02*
X133989000Y-118233000D01*
X142688500Y-104834500D02*
X142688500Y-109533500D01*
X160020000Y-100203000D02*
X147320000Y-100203000D01*
X147320000Y-100203000D02*
X142688500Y-104834500D01*
X168275000Y-108458000D02*
X160020000Y-100203000D01*
%TO.N,SW_COM_ENC_MHZ*%
X146685000Y-122494000D02*
X147929000Y-123738000D01*
X146685000Y-118110000D02*
X146685000Y-122494000D01*
X150495000Y-114300000D02*
X146685000Y-118110000D01*
X163182400Y-114300000D02*
X150495000Y-114300000D01*
X165214400Y-112268000D02*
X163182400Y-114300000D01*
X169545000Y-112268000D02*
X165214400Y-112268000D01*
X170815000Y-110998000D02*
X169545000Y-112268000D01*
%TO.N,B_COM_ENC_MHZ*%
X140339000Y-121088000D02*
X140339000Y-119712700D01*
X140339000Y-119712700D02*
X148058800Y-111992900D01*
X148058800Y-111992900D02*
X164322200Y-111992900D01*
X164322200Y-111992900D02*
X165317100Y-110998000D01*
X165317100Y-110998000D02*
X168275000Y-110998000D01*
%TO.N,A_COM_ENC_MHZ*%
X136398000Y-122367000D02*
X137769000Y-123738000D01*
X145821100Y-110083900D02*
X136398000Y-119507000D01*
X136398000Y-119507000D02*
X136398000Y-122367000D01*
X164434300Y-110083900D02*
X145821100Y-110083900D01*
X164790200Y-109728000D02*
X164434300Y-110083900D01*
X172319990Y-110089990D02*
X171958000Y-109728000D01*
X172319990Y-112033010D02*
X172319990Y-110089990D01*
X171958000Y-109728000D02*
X164790200Y-109728000D01*
X170815000Y-113538000D02*
X172319990Y-112033010D01*
%TO.N,SW_COM_ENC_KHZ*%
X166751000Y-115062000D02*
X168275000Y-113538000D01*
X151130000Y-115062000D02*
X166751000Y-115062000D01*
X147959000Y-118233000D02*
X151130000Y-115062000D01*
X147959000Y-121088000D02*
X147959000Y-118233000D01*
%TO.N,B_COM_ENC_KHZ*%
X137799000Y-121088000D02*
X141211500Y-117675500D01*
X141211500Y-117675500D02*
X141270900Y-117675500D01*
X169504500Y-117388500D02*
X168569500Y-117388500D01*
X170815000Y-116078000D02*
X169504500Y-117388500D01*
X168569500Y-117388500D02*
X153646300Y-117388500D01*
%TO.N,A_COM_ENC_KHZ*%
X152527000Y-116078000D02*
X168275000Y-116078000D01*
X137160000Y-127381000D02*
X146558000Y-127381000D01*
X149229000Y-119376000D02*
X152527000Y-116078000D01*
X149229000Y-124710000D02*
X149229000Y-119376000D01*
X135229000Y-125450000D02*
X137160000Y-127381000D01*
X146558000Y-127381000D02*
X149229000Y-124710000D01*
X135229000Y-123738000D02*
X135229000Y-125450000D01*
%TO.N,CLK*%
X167049700Y-121158000D02*
X168275000Y-121158000D01*
X164763700Y-118872000D02*
X167049700Y-121158000D01*
X158119000Y-120011000D02*
X159258000Y-118872000D01*
X158119000Y-121088000D02*
X158119000Y-120011000D01*
X159258000Y-118872000D02*
X164763700Y-118872000D01*
%TO.N,DIN*%
X171748999Y-119932999D02*
X172319990Y-120503990D01*
X168192999Y-119932999D02*
X171748999Y-119932999D01*
X172319990Y-120503990D02*
X172319990Y-122193010D01*
X168192600Y-119932600D02*
X168192999Y-119932999D01*
X166922600Y-119932600D02*
X168192600Y-119932600D01*
X165100000Y-118110000D02*
X166922600Y-119932600D01*
X157181700Y-118110000D02*
X165100000Y-118110000D01*
X172319990Y-122193010D02*
X170815000Y-123698000D01*
X155579000Y-119712700D02*
X157181700Y-118110000D01*
X155579000Y-121088000D02*
X155579000Y-119712700D01*
%TO.N,+5V*%
X127933700Y-132207000D02*
X129330700Y-130810000D01*
X121539000Y-132207000D02*
X127933700Y-132207000D01*
X130556000Y-130810000D02*
X129330700Y-130810000D01*
X167405010Y-135489990D02*
X168783000Y-134112000D01*
X128758990Y-135489990D02*
X167405010Y-135489990D01*
X168783000Y-124206000D02*
X168275000Y-123698000D01*
X168783000Y-134112000D02*
X168783000Y-124206000D01*
X127933700Y-134664700D02*
X128758990Y-135489990D01*
X127933700Y-132207000D02*
X127933700Y-134664700D01*
%TO.N,SW_NAV_ENC_KHZ*%
X151739000Y-122388000D02*
X153039000Y-121088000D01*
X151739000Y-124261700D02*
X151739000Y-122388000D01*
X147413400Y-128587300D02*
X151739000Y-124261700D01*
X142938700Y-128587300D02*
X147413400Y-128587300D01*
X140716000Y-130810000D02*
X142938700Y-128587300D01*
%TO.N,NAV_SWAP*%
X150469000Y-124359000D02*
X150469000Y-123738000D01*
X146881000Y-127947000D02*
X150469000Y-124359000D01*
X137991000Y-127947000D02*
X146881000Y-127947000D01*
X136906000Y-129032000D02*
X137991000Y-127947000D01*
X136906000Y-130212002D02*
X136906000Y-129032000D01*
X136861001Y-130257001D02*
X136906000Y-130212002D01*
X136861001Y-132124999D02*
X136861001Y-130257001D01*
X135636000Y-133350000D02*
X136861001Y-132124999D01*
%TO.N,I_led*%
X145542000Y-81280000D02*
X144780000Y-82042000D01*
X148147600Y-81280000D02*
X145542000Y-81280000D01*
X148590000Y-80837600D02*
X148147600Y-81280000D01*
X150495000Y-78486000D02*
X149225000Y-78486000D01*
X144780000Y-82042000D02*
X144780000Y-82550000D01*
X151130000Y-79121000D02*
X150495000Y-78486000D01*
X149225000Y-78486000D02*
X148590000Y-79121000D01*
X151130000Y-84303700D02*
X151130000Y-79121000D01*
X148590000Y-79121000D02*
X148590000Y-80837600D01*
X153259000Y-86432700D02*
X151130000Y-84303700D01*
X153259000Y-87808000D02*
X153259000Y-86432700D01*
%TO.N,AUX*%
X147193000Y-89502000D02*
X148149000Y-90458000D01*
X147193000Y-85800400D02*
X147193000Y-89502000D01*
X148590000Y-84403400D02*
X147193000Y-85800400D01*
X148590000Y-81997500D02*
X148590000Y-84403400D01*
X149860000Y-80727500D02*
X148590000Y-81997500D01*
X149860000Y-80010000D02*
X149860000Y-80727500D01*
%TO.N,ADF*%
X148179000Y-87808000D02*
X148179000Y-86432700D01*
X148179000Y-86432700D02*
X149860000Y-84751700D01*
X149860000Y-84751700D02*
X149860000Y-82550000D01*
%TO.N,MKR*%
X152400000Y-83775300D02*
X152400000Y-82550000D01*
X154559000Y-85934300D02*
X152400000Y-83775300D01*
X153289000Y-92837000D02*
X154559000Y-91567000D01*
X147447000Y-92837000D02*
X153289000Y-92837000D01*
X146584400Y-91974400D02*
X147447000Y-92837000D01*
X146584400Y-88753400D02*
X146584400Y-91974400D01*
X154559000Y-91567000D02*
X154559000Y-85934300D01*
X145639000Y-87808000D02*
X146584400Y-88753400D01*
%TO.N,NAV2*%
X143069000Y-90458000D02*
X144399000Y-89128000D01*
X144399000Y-89128000D02*
X144399000Y-85725300D01*
X153924000Y-77851000D02*
X154940000Y-78867000D01*
X143510000Y-84836300D02*
X143510000Y-78486000D01*
X143510000Y-78486000D02*
X144145000Y-77851000D01*
X154940000Y-78867000D02*
X154940000Y-80010000D01*
X144399000Y-85725300D02*
X143510000Y-84836300D01*
X144145000Y-77851000D02*
X153924000Y-77851000D01*
%TD*%
D17*
%TO.N,GND*%
X172060001Y-87335364D02*
X171912588Y-87137731D01*
X171696355Y-86942822D01*
X171446252Y-86793843D01*
X171171891Y-86696519D01*
X170942000Y-86817186D01*
X170942000Y-88011000D01*
X170962000Y-88011000D01*
X170962000Y-88265000D01*
X170942000Y-88265000D01*
X170942000Y-88285000D01*
X170688000Y-88285000D01*
X170688000Y-88265000D01*
X170668000Y-88265000D01*
X170668000Y-88011000D01*
X170688000Y-88011000D01*
X170688000Y-86817186D01*
X170458109Y-86696519D01*
X170183748Y-86793843D01*
X169933645Y-86942822D01*
X169717412Y-87137731D01*
X169546100Y-87367406D01*
X169428475Y-87191368D01*
X169221632Y-86984525D01*
X168978411Y-86822010D01*
X168708158Y-86710068D01*
X168421260Y-86653000D01*
X168128740Y-86653000D01*
X167841842Y-86710068D01*
X167571589Y-86822010D01*
X167328368Y-86984525D01*
X167121525Y-87191368D01*
X166959010Y-87434589D01*
X166847068Y-87704842D01*
X166790000Y-87991740D01*
X166790000Y-88284260D01*
X166847068Y-88571158D01*
X166959010Y-88841411D01*
X167121525Y-89084632D01*
X167328368Y-89291475D01*
X167502760Y-89408000D01*
X167328368Y-89524525D01*
X167121525Y-89731368D01*
X166959010Y-89974589D01*
X166847068Y-90244842D01*
X166790000Y-90531740D01*
X166790000Y-90824260D01*
X166847068Y-91111158D01*
X166959010Y-91381411D01*
X167121525Y-91624632D01*
X167328368Y-91831475D01*
X167502760Y-91948000D01*
X167328368Y-92064525D01*
X167121525Y-92271368D01*
X166959010Y-92514589D01*
X166847068Y-92784842D01*
X166790000Y-93071740D01*
X166790000Y-93364260D01*
X166847068Y-93651158D01*
X166959010Y-93921411D01*
X167121525Y-94164632D01*
X167328368Y-94371475D01*
X167502760Y-94488000D01*
X167328368Y-94604525D01*
X167121525Y-94811368D01*
X166959010Y-95054589D01*
X166847068Y-95324842D01*
X166790000Y-95611740D01*
X166790000Y-95904260D01*
X166847068Y-96191158D01*
X166959010Y-96461411D01*
X167121525Y-96704632D01*
X167328368Y-96911475D01*
X167502760Y-97028000D01*
X167328368Y-97144525D01*
X167121525Y-97351368D01*
X166959010Y-97594589D01*
X166847068Y-97864842D01*
X166790000Y-98151740D01*
X166790000Y-98444260D01*
X166847068Y-98731158D01*
X166959010Y-99001411D01*
X167121525Y-99244632D01*
X167328368Y-99451475D01*
X167502760Y-99568000D01*
X167328368Y-99684525D01*
X167121525Y-99891368D01*
X166959010Y-100134589D01*
X166847068Y-100404842D01*
X166790000Y-100691740D01*
X166790000Y-100984260D01*
X166847068Y-101271158D01*
X166959010Y-101541411D01*
X167121525Y-101784632D01*
X167328368Y-101991475D01*
X167502760Y-102108000D01*
X167328368Y-102224525D01*
X167121525Y-102431368D01*
X166959010Y-102674589D01*
X166847068Y-102944842D01*
X166790000Y-103231740D01*
X166790000Y-103524260D01*
X166847068Y-103811158D01*
X166959010Y-104081411D01*
X167121525Y-104324632D01*
X167328368Y-104531475D01*
X167502760Y-104648000D01*
X167328368Y-104764525D01*
X167121525Y-104971368D01*
X166959010Y-105214589D01*
X166847068Y-105484842D01*
X166790000Y-105771740D01*
X166790000Y-105827487D01*
X160620900Y-99658388D01*
X160595528Y-99627472D01*
X160550898Y-99590845D01*
X161176332Y-99590845D01*
X161357769Y-99572975D01*
X161590568Y-99502356D01*
X161805116Y-99387678D01*
X161993169Y-99233347D01*
X162147500Y-99045294D01*
X162262178Y-98830746D01*
X162332797Y-98597947D01*
X162356642Y-98355845D01*
X162332797Y-98113743D01*
X162262178Y-97880944D01*
X162147500Y-97666396D01*
X161993169Y-97478343D01*
X161805116Y-97324012D01*
X161590568Y-97209334D01*
X161357769Y-97138715D01*
X161176332Y-97120845D01*
X160255002Y-97120845D01*
X160073565Y-97138715D01*
X159840766Y-97209334D01*
X159626218Y-97324012D01*
X159438165Y-97478343D01*
X159283834Y-97666396D01*
X159169156Y-97880944D01*
X159098537Y-98113743D01*
X159074692Y-98355845D01*
X159098537Y-98597947D01*
X159169156Y-98830746D01*
X159283834Y-99045294D01*
X159438165Y-99233347D01*
X159626218Y-99387678D01*
X159636175Y-99393000D01*
X158225159Y-99393000D01*
X158235116Y-99387678D01*
X158423169Y-99233347D01*
X158577500Y-99045294D01*
X158692178Y-98830746D01*
X158762797Y-98597947D01*
X158786642Y-98355845D01*
X158762797Y-98113743D01*
X158692178Y-97880944D01*
X158577500Y-97666396D01*
X158423169Y-97478343D01*
X158235116Y-97324012D01*
X158020568Y-97209334D01*
X157787769Y-97138715D01*
X157606332Y-97120845D01*
X156685002Y-97120845D01*
X156503565Y-97138715D01*
X156270766Y-97209334D01*
X156056218Y-97324012D01*
X155868165Y-97478343D01*
X155713834Y-97666396D01*
X155599156Y-97880944D01*
X155528537Y-98113743D01*
X155504692Y-98355845D01*
X155528537Y-98597947D01*
X155599156Y-98830746D01*
X155713834Y-99045294D01*
X155868165Y-99233347D01*
X156056218Y-99387678D01*
X156066175Y-99393000D01*
X147359787Y-99393000D01*
X147319999Y-99389081D01*
X147280211Y-99393000D01*
X147280209Y-99393000D01*
X147161212Y-99404720D01*
X147008527Y-99451037D01*
X147007708Y-99451475D01*
X146867810Y-99526251D01*
X146812210Y-99571881D01*
X146744472Y-99627472D01*
X146719105Y-99658382D01*
X142143888Y-104233600D01*
X142112972Y-104258972D01*
X142059087Y-104324632D01*
X142011751Y-104382311D01*
X141984658Y-104433000D01*
X141936537Y-104523028D01*
X141890220Y-104675713D01*
X141881473Y-104764525D01*
X141874581Y-104834500D01*
X141878500Y-104874288D01*
X141878501Y-109197986D01*
X133444388Y-117632100D01*
X133413472Y-117657472D01*
X133343703Y-117742487D01*
X133312251Y-117780811D01*
X133280246Y-117840689D01*
X133237037Y-117921528D01*
X133190720Y-118074213D01*
X133179076Y-118192437D01*
X133175081Y-118233000D01*
X133179000Y-118272788D01*
X133179000Y-119536969D01*
X132961102Y-119470870D01*
X132719000Y-119447025D01*
X132476899Y-119470870D01*
X132244100Y-119541489D01*
X132029552Y-119656167D01*
X131841499Y-119810498D01*
X131687168Y-119998551D01*
X131572489Y-120213099D01*
X131501870Y-120445898D01*
X131484000Y-120627335D01*
X131484000Y-121548664D01*
X131501870Y-121730101D01*
X131572489Y-121962900D01*
X131687167Y-122177448D01*
X131841498Y-122365502D01*
X131884375Y-122400690D01*
X131811499Y-122460498D01*
X131657168Y-122648551D01*
X131542489Y-122863099D01*
X131471870Y-123095898D01*
X131454000Y-123277335D01*
X131454000Y-124198664D01*
X131471870Y-124380101D01*
X131542489Y-124612900D01*
X131657167Y-124827448D01*
X131811498Y-125015502D01*
X131999551Y-125169833D01*
X132214099Y-125284511D01*
X132446898Y-125355130D01*
X132689000Y-125378975D01*
X132931101Y-125355130D01*
X133163900Y-125284511D01*
X133179001Y-125276439D01*
X133179001Y-126483786D01*
X131281387Y-128381401D01*
X131250472Y-128406772D01*
X131184320Y-128487380D01*
X131149251Y-128530111D01*
X131139747Y-128547892D01*
X131074037Y-128670828D01*
X131027720Y-128823513D01*
X131020308Y-128898773D01*
X131012081Y-128982300D01*
X131016000Y-129022088D01*
X131016000Y-129321928D01*
X129706000Y-129321928D01*
X129581518Y-129334188D01*
X129461820Y-129370498D01*
X129351506Y-129429463D01*
X129254815Y-129508815D01*
X129175463Y-129605506D01*
X129116498Y-129715820D01*
X129080188Y-129835518D01*
X129067928Y-129960000D01*
X129067928Y-130043264D01*
X129019227Y-130058037D01*
X128953724Y-130093049D01*
X128878510Y-130133251D01*
X128822910Y-130178881D01*
X128755172Y-130234472D01*
X128729807Y-130265380D01*
X127598188Y-131397000D01*
X123027072Y-131397000D01*
X123027072Y-131357000D01*
X123014812Y-131232518D01*
X122978502Y-131112820D01*
X122919537Y-131002506D01*
X122840185Y-130905815D01*
X122743494Y-130826463D01*
X122633180Y-130767498D01*
X122513482Y-130731188D01*
X122389000Y-130718928D01*
X120689000Y-130718928D01*
X120564518Y-130731188D01*
X120444820Y-130767498D01*
X120334506Y-130826463D01*
X120237815Y-130905815D01*
X120158463Y-131002506D01*
X120099498Y-131112820D01*
X120075034Y-131193466D01*
X119999269Y-131109412D01*
X119765920Y-130935359D01*
X119503099Y-130810175D01*
X119355890Y-130765524D01*
X119126000Y-130886845D01*
X119126000Y-132080000D01*
X119146000Y-132080000D01*
X119146000Y-132334000D01*
X119126000Y-132334000D01*
X119126000Y-133527155D01*
X119355890Y-133648476D01*
X119503099Y-133603825D01*
X119765920Y-133478641D01*
X119999269Y-133304588D01*
X120075034Y-133220534D01*
X120099498Y-133301180D01*
X120158463Y-133411494D01*
X120237815Y-133508185D01*
X120334506Y-133587537D01*
X120444820Y-133646502D01*
X120564518Y-133682812D01*
X120689000Y-133695072D01*
X122389000Y-133695072D01*
X122513482Y-133682812D01*
X122633180Y-133646502D01*
X122743494Y-133587537D01*
X122840185Y-133508185D01*
X122919537Y-133411494D01*
X122978502Y-133301180D01*
X123014812Y-133181482D01*
X123027072Y-133057000D01*
X123027072Y-133017000D01*
X127123700Y-133017000D01*
X127123701Y-134624902D01*
X127119781Y-134664700D01*
X127132268Y-134791476D01*
X127135421Y-134823488D01*
X127172394Y-134945369D01*
X127181738Y-134976173D01*
X127256951Y-135116889D01*
X127307528Y-135178516D01*
X127349779Y-135230000D01*
X108610000Y-135230000D01*
X108610000Y-132563891D01*
X112477519Y-132563891D01*
X112574843Y-132838252D01*
X112723822Y-133088355D01*
X112918731Y-133304588D01*
X113152080Y-133478641D01*
X113414901Y-133603825D01*
X113562110Y-133648476D01*
X113792000Y-133527155D01*
X113792000Y-132334000D01*
X112598186Y-132334000D01*
X112477519Y-132563891D01*
X108610000Y-132563891D01*
X108610000Y-131850109D01*
X112477519Y-131850109D01*
X112598186Y-132080000D01*
X113792000Y-132080000D01*
X113792000Y-130886845D01*
X114046000Y-130886845D01*
X114046000Y-132080000D01*
X114066000Y-132080000D01*
X114066000Y-132334000D01*
X114046000Y-132334000D01*
X114046000Y-133527155D01*
X114275890Y-133648476D01*
X114423099Y-133603825D01*
X114685920Y-133478641D01*
X114919269Y-133304588D01*
X115114178Y-133088355D01*
X115183805Y-132971466D01*
X115305525Y-133153632D01*
X115512368Y-133360475D01*
X115755589Y-133522990D01*
X116025842Y-133634932D01*
X116312740Y-133692000D01*
X116605260Y-133692000D01*
X116892158Y-133634932D01*
X117162411Y-133522990D01*
X117405632Y-133360475D01*
X117612475Y-133153632D01*
X117734195Y-132971466D01*
X117803822Y-133088355D01*
X117998731Y-133304588D01*
X118232080Y-133478641D01*
X118494901Y-133603825D01*
X118642110Y-133648476D01*
X118872000Y-133527155D01*
X118872000Y-132334000D01*
X118852000Y-132334000D01*
X118852000Y-132080000D01*
X118872000Y-132080000D01*
X118872000Y-130886845D01*
X118642110Y-130765524D01*
X118494901Y-130810175D01*
X118232080Y-130935359D01*
X117998731Y-131109412D01*
X117803822Y-131325645D01*
X117734195Y-131442534D01*
X117612475Y-131260368D01*
X117405632Y-131053525D01*
X117162411Y-130891010D01*
X116892158Y-130779068D01*
X116605260Y-130722000D01*
X116312740Y-130722000D01*
X116025842Y-130779068D01*
X115755589Y-130891010D01*
X115512368Y-131053525D01*
X115305525Y-131260368D01*
X115183805Y-131442534D01*
X115114178Y-131325645D01*
X114919269Y-131109412D01*
X114685920Y-130935359D01*
X114423099Y-130810175D01*
X114275890Y-130765524D01*
X114046000Y-130886845D01*
X113792000Y-130886845D01*
X113562110Y-130765524D01*
X113414901Y-130810175D01*
X113152080Y-130935359D01*
X112918731Y-131109412D01*
X112723822Y-131325645D01*
X112574843Y-131575748D01*
X112477519Y-131850109D01*
X108610000Y-131850109D01*
X108610000Y-124361115D01*
X108611870Y-124380101D01*
X108682489Y-124612900D01*
X108797167Y-124827448D01*
X108951498Y-125015502D01*
X109139551Y-125169833D01*
X109354099Y-125284511D01*
X109586898Y-125355130D01*
X109829000Y-125378975D01*
X110071101Y-125355130D01*
X110303900Y-125284511D01*
X110518448Y-125169833D01*
X110706502Y-125015502D01*
X110860833Y-124827449D01*
X110975511Y-124612901D01*
X111046130Y-124380102D01*
X111064000Y-124198665D01*
X111064000Y-123865000D01*
X111134000Y-123865000D01*
X111134000Y-124265000D01*
X111182507Y-124503496D01*
X111276610Y-124727946D01*
X111412693Y-124929725D01*
X111585526Y-125101078D01*
X111788467Y-125235421D01*
X112013718Y-125327591D01*
X112051391Y-125331462D01*
X112242000Y-125206731D01*
X112242000Y-123865000D01*
X112496000Y-123865000D01*
X112496000Y-125206731D01*
X112686609Y-125331462D01*
X112724282Y-125327591D01*
X112949533Y-125235421D01*
X113152474Y-125101078D01*
X113325307Y-124929725D01*
X113461390Y-124727946D01*
X113555493Y-124503496D01*
X113604000Y-124265000D01*
X113604000Y-123865000D01*
X112496000Y-123865000D01*
X112242000Y-123865000D01*
X111134000Y-123865000D01*
X111064000Y-123865000D01*
X111064000Y-123277336D01*
X111057467Y-123211000D01*
X111134000Y-123211000D01*
X111134000Y-123611000D01*
X112242000Y-123611000D01*
X112242000Y-122576362D01*
X112272000Y-122556731D01*
X112272000Y-122269269D01*
X112496000Y-122269269D01*
X112496000Y-123611000D01*
X113604000Y-123611000D01*
X113604000Y-123277335D01*
X113674000Y-123277335D01*
X113674000Y-124198664D01*
X113691870Y-124380101D01*
X113762489Y-124612900D01*
X113877167Y-124827448D01*
X114031498Y-125015502D01*
X114219551Y-125169833D01*
X114434099Y-125284511D01*
X114666898Y-125355130D01*
X114909000Y-125378975D01*
X115151101Y-125355130D01*
X115383900Y-125284511D01*
X115598448Y-125169833D01*
X115786502Y-125015502D01*
X115940833Y-124827449D01*
X116055511Y-124612901D01*
X116126130Y-124380102D01*
X116144000Y-124198665D01*
X116144000Y-123277336D01*
X116144000Y-123277335D01*
X116214000Y-123277335D01*
X116214000Y-124198664D01*
X116231870Y-124380101D01*
X116302489Y-124612900D01*
X116417167Y-124827448D01*
X116571498Y-125015502D01*
X116759551Y-125169833D01*
X116974099Y-125284511D01*
X117206898Y-125355130D01*
X117449000Y-125378975D01*
X117691101Y-125355130D01*
X117923900Y-125284511D01*
X118138448Y-125169833D01*
X118326502Y-125015502D01*
X118480833Y-124827449D01*
X118595511Y-124612901D01*
X118666130Y-124380102D01*
X118684000Y-124198665D01*
X118684000Y-123277336D01*
X118684000Y-123277335D01*
X118754000Y-123277335D01*
X118754000Y-124198664D01*
X118771870Y-124380101D01*
X118842489Y-124612900D01*
X118957167Y-124827448D01*
X119111498Y-125015502D01*
X119299551Y-125169833D01*
X119514099Y-125284511D01*
X119746898Y-125355130D01*
X119989000Y-125378975D01*
X120231101Y-125355130D01*
X120463900Y-125284511D01*
X120678448Y-125169833D01*
X120866502Y-125015502D01*
X121020833Y-124827449D01*
X121135511Y-124612901D01*
X121206130Y-124380102D01*
X121224000Y-124198665D01*
X121224000Y-123277336D01*
X121224000Y-123277335D01*
X121294000Y-123277335D01*
X121294000Y-124198664D01*
X121311870Y-124380101D01*
X121382489Y-124612900D01*
X121497167Y-124827448D01*
X121651498Y-125015502D01*
X121839551Y-125169833D01*
X122054099Y-125284511D01*
X122286898Y-125355130D01*
X122529000Y-125378975D01*
X122771101Y-125355130D01*
X123003900Y-125284511D01*
X123218448Y-125169833D01*
X123406502Y-125015502D01*
X123560833Y-124827449D01*
X123675511Y-124612901D01*
X123746130Y-124380102D01*
X123764000Y-124198665D01*
X123764000Y-123277336D01*
X123764000Y-123277335D01*
X123834000Y-123277335D01*
X123834000Y-124198664D01*
X123851870Y-124380101D01*
X123922489Y-124612900D01*
X124037167Y-124827448D01*
X124191498Y-125015502D01*
X124379551Y-125169833D01*
X124594099Y-125284511D01*
X124826898Y-125355130D01*
X125069000Y-125378975D01*
X125311101Y-125355130D01*
X125543900Y-125284511D01*
X125758448Y-125169833D01*
X125946502Y-125015502D01*
X126100833Y-124827449D01*
X126215511Y-124612901D01*
X126286130Y-124380102D01*
X126304000Y-124198665D01*
X126304000Y-123277336D01*
X126304000Y-123277335D01*
X126374000Y-123277335D01*
X126374000Y-124198664D01*
X126391870Y-124380101D01*
X126462489Y-124612900D01*
X126577167Y-124827448D01*
X126731498Y-125015502D01*
X126919551Y-125169833D01*
X127134099Y-125284511D01*
X127366898Y-125355130D01*
X127609000Y-125378975D01*
X127851101Y-125355130D01*
X128083900Y-125284511D01*
X128298448Y-125169833D01*
X128486502Y-125015502D01*
X128640833Y-124827449D01*
X128755511Y-124612901D01*
X128826130Y-124380102D01*
X128844000Y-124198665D01*
X128844000Y-123277336D01*
X128844000Y-123277335D01*
X128914000Y-123277335D01*
X128914000Y-124198664D01*
X128931870Y-124380101D01*
X129002489Y-124612900D01*
X129117167Y-124827448D01*
X129271498Y-125015502D01*
X129459551Y-125169833D01*
X129674099Y-125284511D01*
X129906898Y-125355130D01*
X130149000Y-125378975D01*
X130391101Y-125355130D01*
X130623900Y-125284511D01*
X130838448Y-125169833D01*
X131026502Y-125015502D01*
X131180833Y-124827449D01*
X131295511Y-124612901D01*
X131366130Y-124380102D01*
X131384000Y-124198665D01*
X131384000Y-123277336D01*
X131366130Y-123095899D01*
X131295511Y-122863099D01*
X131180833Y-122648551D01*
X131026502Y-122460498D01*
X130983625Y-122425310D01*
X131056502Y-122365502D01*
X131210833Y-122177449D01*
X131325511Y-121962901D01*
X131396130Y-121730102D01*
X131414000Y-121548665D01*
X131414000Y-120627336D01*
X131396130Y-120445899D01*
X131325511Y-120213099D01*
X131210833Y-119998551D01*
X131056502Y-119810498D01*
X130868449Y-119656167D01*
X130653901Y-119541489D01*
X130421102Y-119470870D01*
X130179000Y-119447025D01*
X129936899Y-119470870D01*
X129704100Y-119541489D01*
X129489552Y-119656167D01*
X129301499Y-119810498D01*
X129147168Y-119998551D01*
X129032489Y-120213099D01*
X128961870Y-120445898D01*
X128944000Y-120627335D01*
X128944000Y-121548664D01*
X128961870Y-121730101D01*
X129032489Y-121962900D01*
X129147167Y-122177448D01*
X129301498Y-122365502D01*
X129344375Y-122400690D01*
X129271499Y-122460498D01*
X129117168Y-122648551D01*
X129002489Y-122863099D01*
X128931870Y-123095898D01*
X128914000Y-123277335D01*
X128844000Y-123277335D01*
X128826130Y-123095899D01*
X128755511Y-122863099D01*
X128640833Y-122648551D01*
X128486502Y-122460498D01*
X128443625Y-122425310D01*
X128516502Y-122365502D01*
X128670833Y-122177449D01*
X128785511Y-121962901D01*
X128856130Y-121730102D01*
X128874000Y-121548665D01*
X128874000Y-120627336D01*
X128856130Y-120445899D01*
X128785511Y-120213099D01*
X128670833Y-119998551D01*
X128516502Y-119810498D01*
X128328449Y-119656167D01*
X128113901Y-119541489D01*
X127881102Y-119470870D01*
X127639000Y-119447025D01*
X127396899Y-119470870D01*
X127164100Y-119541489D01*
X126949552Y-119656167D01*
X126761499Y-119810498D01*
X126607168Y-119998551D01*
X126492489Y-120213099D01*
X126421870Y-120445898D01*
X126404000Y-120627335D01*
X126404000Y-121548664D01*
X126421870Y-121730101D01*
X126492489Y-121962900D01*
X126607167Y-122177448D01*
X126761498Y-122365502D01*
X126804375Y-122400690D01*
X126731499Y-122460498D01*
X126577168Y-122648551D01*
X126462489Y-122863099D01*
X126391870Y-123095898D01*
X126374000Y-123277335D01*
X126304000Y-123277335D01*
X126286130Y-123095899D01*
X126215511Y-122863099D01*
X126100833Y-122648551D01*
X125946502Y-122460498D01*
X125903625Y-122425310D01*
X125976502Y-122365502D01*
X126130833Y-122177449D01*
X126245511Y-121962901D01*
X126316130Y-121730102D01*
X126334000Y-121548665D01*
X126334000Y-120627336D01*
X126316130Y-120445899D01*
X126245511Y-120213099D01*
X126130833Y-119998551D01*
X125976502Y-119810498D01*
X125788449Y-119656167D01*
X125573901Y-119541489D01*
X125341102Y-119470870D01*
X125099000Y-119447025D01*
X124856899Y-119470870D01*
X124624100Y-119541489D01*
X124409552Y-119656167D01*
X124221499Y-119810498D01*
X124067168Y-119998551D01*
X123952489Y-120213099D01*
X123881870Y-120445898D01*
X123864000Y-120627335D01*
X123864000Y-121548664D01*
X123881870Y-121730101D01*
X123952489Y-121962900D01*
X124067167Y-122177448D01*
X124221498Y-122365502D01*
X124264375Y-122400690D01*
X124191499Y-122460498D01*
X124037168Y-122648551D01*
X123922489Y-122863099D01*
X123851870Y-123095898D01*
X123834000Y-123277335D01*
X123764000Y-123277335D01*
X123746130Y-123095899D01*
X123675511Y-122863099D01*
X123560833Y-122648551D01*
X123406502Y-122460498D01*
X123363625Y-122425310D01*
X123436502Y-122365502D01*
X123590833Y-122177449D01*
X123705511Y-121962901D01*
X123776130Y-121730102D01*
X123794000Y-121548665D01*
X123794000Y-120627336D01*
X123776130Y-120445899D01*
X123705511Y-120213099D01*
X123590833Y-119998551D01*
X123436502Y-119810498D01*
X123248449Y-119656167D01*
X123033901Y-119541489D01*
X122801102Y-119470870D01*
X122559000Y-119447025D01*
X122316899Y-119470870D01*
X122084100Y-119541489D01*
X121869552Y-119656167D01*
X121681499Y-119810498D01*
X121527168Y-119998551D01*
X121412489Y-120213099D01*
X121341870Y-120445898D01*
X121324000Y-120627335D01*
X121324000Y-121548664D01*
X121341870Y-121730101D01*
X121412489Y-121962900D01*
X121527167Y-122177448D01*
X121681498Y-122365502D01*
X121724375Y-122400690D01*
X121651499Y-122460498D01*
X121497168Y-122648551D01*
X121382489Y-122863099D01*
X121311870Y-123095898D01*
X121294000Y-123277335D01*
X121224000Y-123277335D01*
X121206130Y-123095899D01*
X121135511Y-122863099D01*
X121020833Y-122648551D01*
X120866502Y-122460498D01*
X120823625Y-122425310D01*
X120896502Y-122365502D01*
X121050833Y-122177449D01*
X121165511Y-121962901D01*
X121236130Y-121730102D01*
X121254000Y-121548665D01*
X121254000Y-120627336D01*
X121236130Y-120445899D01*
X121165511Y-120213099D01*
X121050833Y-119998551D01*
X120896502Y-119810498D01*
X120708449Y-119656167D01*
X120493901Y-119541489D01*
X120261102Y-119470870D01*
X120019000Y-119447025D01*
X119776899Y-119470870D01*
X119544100Y-119541489D01*
X119329552Y-119656167D01*
X119141499Y-119810498D01*
X118987168Y-119998551D01*
X118872489Y-120213099D01*
X118801870Y-120445898D01*
X118784000Y-120627335D01*
X118784000Y-121548664D01*
X118801870Y-121730101D01*
X118872489Y-121962900D01*
X118987167Y-122177448D01*
X119141498Y-122365502D01*
X119184375Y-122400690D01*
X119111499Y-122460498D01*
X118957168Y-122648551D01*
X118842489Y-122863099D01*
X118771870Y-123095898D01*
X118754000Y-123277335D01*
X118684000Y-123277335D01*
X118666130Y-123095899D01*
X118595511Y-122863099D01*
X118480833Y-122648551D01*
X118326502Y-122460498D01*
X118283625Y-122425310D01*
X118356502Y-122365502D01*
X118510833Y-122177449D01*
X118625511Y-121962901D01*
X118696130Y-121730102D01*
X118714000Y-121548665D01*
X118714000Y-120627336D01*
X118696130Y-120445899D01*
X118625511Y-120213099D01*
X118510833Y-119998551D01*
X118356502Y-119810498D01*
X118168449Y-119656167D01*
X117953901Y-119541489D01*
X117721102Y-119470870D01*
X117479000Y-119447025D01*
X117236899Y-119470870D01*
X117004100Y-119541489D01*
X116789552Y-119656167D01*
X116601499Y-119810498D01*
X116447168Y-119998551D01*
X116332489Y-120213099D01*
X116261870Y-120445898D01*
X116244000Y-120627335D01*
X116244000Y-121548664D01*
X116261870Y-121730101D01*
X116332489Y-121962900D01*
X116447167Y-122177448D01*
X116601498Y-122365502D01*
X116644375Y-122400690D01*
X116571499Y-122460498D01*
X116417168Y-122648551D01*
X116302489Y-122863099D01*
X116231870Y-123095898D01*
X116214000Y-123277335D01*
X116144000Y-123277335D01*
X116126130Y-123095899D01*
X116055511Y-122863099D01*
X115940833Y-122648551D01*
X115786502Y-122460498D01*
X115743625Y-122425310D01*
X115816502Y-122365502D01*
X115970833Y-122177449D01*
X116085511Y-121962901D01*
X116156130Y-121730102D01*
X116174000Y-121548665D01*
X116174000Y-120627336D01*
X116156130Y-120445899D01*
X116085511Y-120213099D01*
X115970833Y-119998551D01*
X115816502Y-119810498D01*
X115628449Y-119656167D01*
X115413901Y-119541489D01*
X115181102Y-119470870D01*
X114939000Y-119447025D01*
X114696899Y-119470870D01*
X114464100Y-119541489D01*
X114249552Y-119656167D01*
X114061499Y-119810498D01*
X113907168Y-119998551D01*
X113792489Y-120213099D01*
X113721870Y-120445898D01*
X113704000Y-120627335D01*
X113704000Y-121548664D01*
X113721870Y-121730101D01*
X113792489Y-121962900D01*
X113907167Y-122177448D01*
X114061498Y-122365502D01*
X114104375Y-122400690D01*
X114031499Y-122460498D01*
X113877168Y-122648551D01*
X113762489Y-122863099D01*
X113691870Y-123095898D01*
X113674000Y-123277335D01*
X113604000Y-123277335D01*
X113604000Y-123211000D01*
X113555493Y-122972504D01*
X113461390Y-122748054D01*
X113325307Y-122546275D01*
X113205881Y-122427872D01*
X113355307Y-122279725D01*
X113491390Y-122077946D01*
X113585493Y-121853496D01*
X113634000Y-121615000D01*
X113634000Y-121215000D01*
X112526000Y-121215000D01*
X112526000Y-122249638D01*
X112496000Y-122269269D01*
X112272000Y-122269269D01*
X112272000Y-121215000D01*
X111164000Y-121215000D01*
X111164000Y-121615000D01*
X111212507Y-121853496D01*
X111306610Y-122077946D01*
X111442693Y-122279725D01*
X111562119Y-122398128D01*
X111412693Y-122546275D01*
X111276610Y-122748054D01*
X111182507Y-122972504D01*
X111134000Y-123211000D01*
X111057467Y-123211000D01*
X111046130Y-123095899D01*
X110975511Y-122863099D01*
X110860833Y-122648551D01*
X110706502Y-122460498D01*
X110663625Y-122425310D01*
X110736502Y-122365502D01*
X110890833Y-122177449D01*
X111005511Y-121962901D01*
X111076130Y-121730102D01*
X111094000Y-121548665D01*
X111094000Y-120627336D01*
X111087467Y-120561000D01*
X111164000Y-120561000D01*
X111164000Y-120961000D01*
X112272000Y-120961000D01*
X112272000Y-119619269D01*
X112526000Y-119619269D01*
X112526000Y-120961000D01*
X113634000Y-120961000D01*
X113634000Y-120561000D01*
X113585493Y-120322504D01*
X113491390Y-120098054D01*
X113355307Y-119896275D01*
X113182474Y-119724922D01*
X112979533Y-119590579D01*
X112754282Y-119498409D01*
X112716609Y-119494538D01*
X112526000Y-119619269D01*
X112272000Y-119619269D01*
X112081391Y-119494538D01*
X112043718Y-119498409D01*
X111818467Y-119590579D01*
X111615526Y-119724922D01*
X111442693Y-119896275D01*
X111306610Y-120098054D01*
X111212507Y-120322504D01*
X111164000Y-120561000D01*
X111087467Y-120561000D01*
X111076130Y-120445899D01*
X111005511Y-120213099D01*
X110890833Y-119998551D01*
X110736502Y-119810498D01*
X110548449Y-119656167D01*
X110333901Y-119541489D01*
X110101102Y-119470870D01*
X109859000Y-119447025D01*
X109616899Y-119470870D01*
X109384100Y-119541489D01*
X109169552Y-119656167D01*
X108981499Y-119810498D01*
X108827168Y-119998551D01*
X108712489Y-120213099D01*
X108641870Y-120445898D01*
X108624000Y-120627335D01*
X108624000Y-121548664D01*
X108641870Y-121730101D01*
X108712489Y-121962900D01*
X108827167Y-122177448D01*
X108981498Y-122365502D01*
X109024375Y-122400690D01*
X108951499Y-122460498D01*
X108797168Y-122648551D01*
X108682489Y-122863099D01*
X108611870Y-123095898D01*
X108610000Y-123114884D01*
X108610000Y-114079872D01*
X110795000Y-114079872D01*
X110795000Y-114520128D01*
X110880890Y-114951925D01*
X111049369Y-115358669D01*
X111293962Y-115724729D01*
X111605271Y-116036038D01*
X111971331Y-116280631D01*
X112378075Y-116449110D01*
X112809872Y-116535000D01*
X113250128Y-116535000D01*
X113681925Y-116449110D01*
X114088669Y-116280631D01*
X114454729Y-116036038D01*
X114766038Y-115724729D01*
X115010631Y-115358669D01*
X115179110Y-114951925D01*
X115265000Y-114520128D01*
X115265000Y-114079872D01*
X115179110Y-113648075D01*
X115010631Y-113241331D01*
X114766038Y-112875271D01*
X114454729Y-112563962D01*
X114088669Y-112319369D01*
X113681925Y-112150890D01*
X113250128Y-112065000D01*
X112809872Y-112065000D01*
X112378075Y-112150890D01*
X111971331Y-112319369D01*
X111605271Y-112563962D01*
X111293962Y-112875271D01*
X111049369Y-113241331D01*
X110880890Y-113648075D01*
X110795000Y-114079872D01*
X108610000Y-114079872D01*
X108610000Y-96299872D01*
X110795000Y-96299872D01*
X110795000Y-96740128D01*
X110880890Y-97171925D01*
X111049369Y-97578669D01*
X111293962Y-97944729D01*
X111605271Y-98256038D01*
X111971331Y-98500631D01*
X112378075Y-98669110D01*
X112809872Y-98755000D01*
X113250128Y-98755000D01*
X113681925Y-98669110D01*
X114088669Y-98500631D01*
X114454729Y-98256038D01*
X114766038Y-97944729D01*
X115010631Y-97578669D01*
X115179110Y-97171925D01*
X115265000Y-96740128D01*
X115265000Y-96299872D01*
X115179110Y-95868075D01*
X115157476Y-95815845D01*
X155504692Y-95815845D01*
X155528537Y-96057947D01*
X155599156Y-96290746D01*
X155713834Y-96505294D01*
X155868165Y-96693347D01*
X156056218Y-96847678D01*
X156270766Y-96962356D01*
X156503565Y-97032975D01*
X156685002Y-97050845D01*
X157606332Y-97050845D01*
X157787769Y-97032975D01*
X158020568Y-96962356D01*
X158235116Y-96847678D01*
X158423169Y-96693347D01*
X158577500Y-96505294D01*
X158692178Y-96290746D01*
X158762797Y-96057947D01*
X158786642Y-95815845D01*
X159074692Y-95815845D01*
X159098537Y-96057947D01*
X159169156Y-96290746D01*
X159283834Y-96505294D01*
X159438165Y-96693347D01*
X159626218Y-96847678D01*
X159840766Y-96962356D01*
X160073565Y-97032975D01*
X160255002Y-97050845D01*
X161176332Y-97050845D01*
X161357769Y-97032975D01*
X161590568Y-96962356D01*
X161805116Y-96847678D01*
X161993169Y-96693347D01*
X162147500Y-96505294D01*
X162262178Y-96290746D01*
X162332797Y-96057947D01*
X162356642Y-95815845D01*
X162332797Y-95573743D01*
X162262178Y-95340944D01*
X162147500Y-95126396D01*
X161993169Y-94938343D01*
X161805116Y-94784012D01*
X161590568Y-94669334D01*
X161357769Y-94598715D01*
X161176332Y-94580845D01*
X160255002Y-94580845D01*
X160073565Y-94598715D01*
X159840766Y-94669334D01*
X159626218Y-94784012D01*
X159438165Y-94938343D01*
X159283834Y-95126396D01*
X159169156Y-95340944D01*
X159098537Y-95573743D01*
X159074692Y-95815845D01*
X158786642Y-95815845D01*
X158762797Y-95573743D01*
X158692178Y-95340944D01*
X158577500Y-95126396D01*
X158423169Y-94938343D01*
X158235116Y-94784012D01*
X158020568Y-94669334D01*
X157787769Y-94598715D01*
X157606332Y-94580845D01*
X156685002Y-94580845D01*
X156503565Y-94598715D01*
X156270766Y-94669334D01*
X156056218Y-94784012D01*
X155868165Y-94938343D01*
X155713834Y-95126396D01*
X155599156Y-95340944D01*
X155528537Y-95573743D01*
X155504692Y-95815845D01*
X115157476Y-95815845D01*
X115010631Y-95461331D01*
X114766038Y-95095271D01*
X114454729Y-94783962D01*
X114088669Y-94539369D01*
X113681925Y-94370890D01*
X113250128Y-94285000D01*
X112809872Y-94285000D01*
X112378075Y-94370890D01*
X111971331Y-94539369D01*
X111605271Y-94783962D01*
X111293962Y-95095271D01*
X111049369Y-95461331D01*
X110880890Y-95868075D01*
X110795000Y-96299872D01*
X108610000Y-96299872D01*
X108610000Y-89997335D01*
X121514000Y-89997335D01*
X121514000Y-90918664D01*
X121531870Y-91100101D01*
X121602489Y-91332900D01*
X121717167Y-91547448D01*
X121871498Y-91735502D01*
X122059551Y-91889833D01*
X122274099Y-92004511D01*
X122506898Y-92075130D01*
X122749000Y-92098975D01*
X122991101Y-92075130D01*
X123223900Y-92004511D01*
X123438448Y-91889833D01*
X123626502Y-91735502D01*
X123780833Y-91547449D01*
X123895511Y-91332901D01*
X123966130Y-91100102D01*
X123984000Y-90918665D01*
X123984000Y-89997336D01*
X123984000Y-89997335D01*
X124054000Y-89997335D01*
X124054000Y-90918664D01*
X124071870Y-91100101D01*
X124142489Y-91332900D01*
X124257167Y-91547448D01*
X124411498Y-91735502D01*
X124599551Y-91889833D01*
X124814099Y-92004511D01*
X125046898Y-92075130D01*
X125289000Y-92098975D01*
X125531101Y-92075130D01*
X125763900Y-92004511D01*
X125978448Y-91889833D01*
X126166502Y-91735502D01*
X126320833Y-91547449D01*
X126435511Y-91332901D01*
X126506130Y-91100102D01*
X126524000Y-90918665D01*
X126524000Y-89997336D01*
X126524000Y-89997335D01*
X126594000Y-89997335D01*
X126594000Y-90918664D01*
X126611870Y-91100101D01*
X126682489Y-91332900D01*
X126797167Y-91547448D01*
X126951498Y-91735502D01*
X127139551Y-91889833D01*
X127354099Y-92004511D01*
X127586898Y-92075130D01*
X127829000Y-92098975D01*
X128071101Y-92075130D01*
X128303900Y-92004511D01*
X128518448Y-91889833D01*
X128706502Y-91735502D01*
X128860833Y-91547449D01*
X128975511Y-91332901D01*
X129046130Y-91100102D01*
X129064000Y-90918665D01*
X129064000Y-89997336D01*
X129064000Y-89997335D01*
X129134000Y-89997335D01*
X129134000Y-90918664D01*
X129151870Y-91100101D01*
X129222489Y-91332900D01*
X129337167Y-91547448D01*
X129491498Y-91735502D01*
X129679551Y-91889833D01*
X129894099Y-92004511D01*
X130126898Y-92075130D01*
X130369000Y-92098975D01*
X130611101Y-92075130D01*
X130843900Y-92004511D01*
X131058448Y-91889833D01*
X131246502Y-91735502D01*
X131400833Y-91547449D01*
X131515511Y-91332901D01*
X131586130Y-91100102D01*
X131604000Y-90918665D01*
X131604000Y-89997336D01*
X131604000Y-89997335D01*
X131674000Y-89997335D01*
X131674000Y-90918664D01*
X131691870Y-91100101D01*
X131762489Y-91332900D01*
X131877167Y-91547448D01*
X132031498Y-91735502D01*
X132219551Y-91889833D01*
X132434099Y-92004511D01*
X132666898Y-92075130D01*
X132909000Y-92098975D01*
X133151101Y-92075130D01*
X133383900Y-92004511D01*
X133598448Y-91889833D01*
X133786502Y-91735502D01*
X133940833Y-91547449D01*
X134055511Y-91332901D01*
X134126130Y-91100102D01*
X134144000Y-90918665D01*
X134144000Y-89997336D01*
X134144000Y-89997335D01*
X134214000Y-89997335D01*
X134214000Y-90918664D01*
X134231870Y-91100101D01*
X134302489Y-91332900D01*
X134417167Y-91547448D01*
X134571498Y-91735502D01*
X134759551Y-91889833D01*
X134974099Y-92004511D01*
X135206898Y-92075130D01*
X135449000Y-92098975D01*
X135691101Y-92075130D01*
X135923900Y-92004511D01*
X136138448Y-91889833D01*
X136326502Y-91735502D01*
X136480833Y-91547449D01*
X136595511Y-91332901D01*
X136666130Y-91100102D01*
X136684000Y-90918665D01*
X136684000Y-89997336D01*
X136684000Y-89997335D01*
X136754000Y-89997335D01*
X136754000Y-90918664D01*
X136771870Y-91100101D01*
X136842489Y-91332900D01*
X136957167Y-91547448D01*
X137111498Y-91735502D01*
X137299551Y-91889833D01*
X137514099Y-92004511D01*
X137746898Y-92075130D01*
X137989000Y-92098975D01*
X138231101Y-92075130D01*
X138463900Y-92004511D01*
X138678448Y-91889833D01*
X138866502Y-91735502D01*
X139020833Y-91547449D01*
X139135511Y-91332901D01*
X139206130Y-91100102D01*
X139224000Y-90918665D01*
X139224000Y-89997336D01*
X139224000Y-89997335D01*
X139294000Y-89997335D01*
X139294000Y-90918664D01*
X139311870Y-91100101D01*
X139382489Y-91332900D01*
X139497167Y-91547448D01*
X139651498Y-91735502D01*
X139839551Y-91889833D01*
X140054099Y-92004511D01*
X140286898Y-92075130D01*
X140529000Y-92098975D01*
X140771101Y-92075130D01*
X141003900Y-92004511D01*
X141218448Y-91889833D01*
X141406502Y-91735502D01*
X141560833Y-91547449D01*
X141675511Y-91332901D01*
X141746130Y-91100102D01*
X141764000Y-90918665D01*
X141764000Y-89997336D01*
X141746130Y-89815899D01*
X141675511Y-89583099D01*
X141560833Y-89368551D01*
X141406502Y-89180498D01*
X141363625Y-89145310D01*
X141436502Y-89085502D01*
X141590833Y-88897449D01*
X141705511Y-88682901D01*
X141776130Y-88450102D01*
X141794000Y-88268665D01*
X141794000Y-87347336D01*
X141776130Y-87165899D01*
X141705511Y-86933099D01*
X141590833Y-86718551D01*
X141436502Y-86530498D01*
X141248449Y-86376167D01*
X141033901Y-86261489D01*
X140801102Y-86190870D01*
X140559000Y-86167025D01*
X140316899Y-86190870D01*
X140084100Y-86261489D01*
X139869552Y-86376167D01*
X139681499Y-86530498D01*
X139527168Y-86718551D01*
X139412489Y-86933099D01*
X139341870Y-87165898D01*
X139324000Y-87347335D01*
X139324000Y-88268664D01*
X139341870Y-88450101D01*
X139412489Y-88682900D01*
X139527167Y-88897448D01*
X139681498Y-89085502D01*
X139724375Y-89120690D01*
X139651499Y-89180498D01*
X139497168Y-89368551D01*
X139382489Y-89583099D01*
X139311870Y-89815898D01*
X139294000Y-89997335D01*
X139224000Y-89997335D01*
X139206130Y-89815899D01*
X139135511Y-89583099D01*
X139020833Y-89368551D01*
X138866502Y-89180498D01*
X138823625Y-89145310D01*
X138896502Y-89085502D01*
X139050833Y-88897449D01*
X139165511Y-88682901D01*
X139236130Y-88450102D01*
X139254000Y-88268665D01*
X139254000Y-87347336D01*
X139236130Y-87165899D01*
X139165511Y-86933099D01*
X139050833Y-86718551D01*
X138896502Y-86530498D01*
X138708449Y-86376167D01*
X138493901Y-86261489D01*
X138261102Y-86190870D01*
X138019000Y-86167025D01*
X137776899Y-86190870D01*
X137544100Y-86261489D01*
X137329552Y-86376167D01*
X137141499Y-86530498D01*
X136987168Y-86718551D01*
X136872489Y-86933099D01*
X136801870Y-87165898D01*
X136784000Y-87347335D01*
X136784000Y-88268664D01*
X136801870Y-88450101D01*
X136872489Y-88682900D01*
X136987167Y-88897448D01*
X137141498Y-89085502D01*
X137184375Y-89120690D01*
X137111499Y-89180498D01*
X136957168Y-89368551D01*
X136842489Y-89583099D01*
X136771870Y-89815898D01*
X136754000Y-89997335D01*
X136684000Y-89997335D01*
X136666130Y-89815899D01*
X136595511Y-89583099D01*
X136480833Y-89368551D01*
X136326502Y-89180498D01*
X136283625Y-89145310D01*
X136356502Y-89085502D01*
X136510833Y-88897449D01*
X136625511Y-88682901D01*
X136696130Y-88450102D01*
X136714000Y-88268665D01*
X136714000Y-87347336D01*
X136696130Y-87165899D01*
X136625511Y-86933099D01*
X136510833Y-86718551D01*
X136356502Y-86530498D01*
X136168449Y-86376167D01*
X135953901Y-86261489D01*
X135721102Y-86190870D01*
X135479000Y-86167025D01*
X135236899Y-86190870D01*
X135004100Y-86261489D01*
X134789552Y-86376167D01*
X134601499Y-86530498D01*
X134447168Y-86718551D01*
X134332489Y-86933099D01*
X134261870Y-87165898D01*
X134244000Y-87347335D01*
X134244000Y-88268664D01*
X134261870Y-88450101D01*
X134332489Y-88682900D01*
X134447167Y-88897448D01*
X134601498Y-89085502D01*
X134644375Y-89120690D01*
X134571499Y-89180498D01*
X134417168Y-89368551D01*
X134302489Y-89583099D01*
X134231870Y-89815898D01*
X134214000Y-89997335D01*
X134144000Y-89997335D01*
X134126130Y-89815899D01*
X134055511Y-89583099D01*
X133940833Y-89368551D01*
X133786502Y-89180498D01*
X133743625Y-89145310D01*
X133816502Y-89085502D01*
X133970833Y-88897449D01*
X134085511Y-88682901D01*
X134156130Y-88450102D01*
X134174000Y-88268665D01*
X134174000Y-87347336D01*
X134156130Y-87165899D01*
X134085511Y-86933099D01*
X133970833Y-86718551D01*
X133816502Y-86530498D01*
X133628449Y-86376167D01*
X133413901Y-86261489D01*
X133181102Y-86190870D01*
X132939000Y-86167025D01*
X132696899Y-86190870D01*
X132464100Y-86261489D01*
X132249552Y-86376167D01*
X132061499Y-86530498D01*
X131907168Y-86718551D01*
X131792489Y-86933099D01*
X131721870Y-87165898D01*
X131704000Y-87347335D01*
X131704000Y-88268664D01*
X131721870Y-88450101D01*
X131792489Y-88682900D01*
X131907167Y-88897448D01*
X132061498Y-89085502D01*
X132104375Y-89120690D01*
X132031499Y-89180498D01*
X131877168Y-89368551D01*
X131762489Y-89583099D01*
X131691870Y-89815898D01*
X131674000Y-89997335D01*
X131604000Y-89997335D01*
X131586130Y-89815899D01*
X131515511Y-89583099D01*
X131400833Y-89368551D01*
X131246502Y-89180498D01*
X131203625Y-89145310D01*
X131276502Y-89085502D01*
X131430833Y-88897449D01*
X131545511Y-88682901D01*
X131616130Y-88450102D01*
X131634000Y-88268665D01*
X131634000Y-87347336D01*
X131616130Y-87165899D01*
X131545511Y-86933099D01*
X131430833Y-86718551D01*
X131276502Y-86530498D01*
X131088449Y-86376167D01*
X130873901Y-86261489D01*
X130641102Y-86190870D01*
X130399000Y-86167025D01*
X130156899Y-86190870D01*
X129924100Y-86261489D01*
X129709552Y-86376167D01*
X129521499Y-86530498D01*
X129367168Y-86718551D01*
X129252489Y-86933099D01*
X129181870Y-87165898D01*
X129164000Y-87347335D01*
X129164000Y-88268664D01*
X129181870Y-88450101D01*
X129252489Y-88682900D01*
X129367167Y-88897448D01*
X129521498Y-89085502D01*
X129564375Y-89120690D01*
X129491499Y-89180498D01*
X129337168Y-89368551D01*
X129222489Y-89583099D01*
X129151870Y-89815898D01*
X129134000Y-89997335D01*
X129064000Y-89997335D01*
X129046130Y-89815899D01*
X128975511Y-89583099D01*
X128860833Y-89368551D01*
X128706502Y-89180498D01*
X128663625Y-89145310D01*
X128736502Y-89085502D01*
X128890833Y-88897449D01*
X129005511Y-88682901D01*
X129076130Y-88450102D01*
X129094000Y-88268665D01*
X129094000Y-87347336D01*
X129076130Y-87165899D01*
X129005511Y-86933099D01*
X128890833Y-86718551D01*
X128736502Y-86530498D01*
X128548449Y-86376167D01*
X128333901Y-86261489D01*
X128101102Y-86190870D01*
X127859000Y-86167025D01*
X127616899Y-86190870D01*
X127384100Y-86261489D01*
X127169552Y-86376167D01*
X126981499Y-86530498D01*
X126827168Y-86718551D01*
X126712489Y-86933099D01*
X126641870Y-87165898D01*
X126624000Y-87347335D01*
X126624000Y-88268664D01*
X126641870Y-88450101D01*
X126712489Y-88682900D01*
X126827167Y-88897448D01*
X126981498Y-89085502D01*
X127024375Y-89120690D01*
X126951499Y-89180498D01*
X126797168Y-89368551D01*
X126682489Y-89583099D01*
X126611870Y-89815898D01*
X126594000Y-89997335D01*
X126524000Y-89997335D01*
X126506130Y-89815899D01*
X126435511Y-89583099D01*
X126320833Y-89368551D01*
X126166502Y-89180498D01*
X126123625Y-89145310D01*
X126196502Y-89085502D01*
X126350833Y-88897449D01*
X126465511Y-88682901D01*
X126536130Y-88450102D01*
X126554000Y-88268665D01*
X126554000Y-87347336D01*
X126536130Y-87165899D01*
X126465511Y-86933099D01*
X126350833Y-86718551D01*
X126196502Y-86530498D01*
X126008449Y-86376167D01*
X125793901Y-86261489D01*
X125561102Y-86190870D01*
X125319000Y-86167025D01*
X125076899Y-86190870D01*
X124844100Y-86261489D01*
X124629552Y-86376167D01*
X124441499Y-86530498D01*
X124287168Y-86718551D01*
X124172489Y-86933099D01*
X124101870Y-87165898D01*
X124084000Y-87347335D01*
X124084000Y-88268664D01*
X124101870Y-88450101D01*
X124172489Y-88682900D01*
X124287167Y-88897448D01*
X124441498Y-89085502D01*
X124484375Y-89120690D01*
X124411499Y-89180498D01*
X124257168Y-89368551D01*
X124142489Y-89583099D01*
X124071870Y-89815898D01*
X124054000Y-89997335D01*
X123984000Y-89997335D01*
X123966130Y-89815899D01*
X123895511Y-89583099D01*
X123780833Y-89368551D01*
X123626502Y-89180498D01*
X123583625Y-89145310D01*
X123656502Y-89085502D01*
X123810833Y-88897449D01*
X123925511Y-88682901D01*
X123996130Y-88450102D01*
X124014000Y-88268665D01*
X124014000Y-87347336D01*
X123996130Y-87165899D01*
X123925511Y-86933099D01*
X123810833Y-86718551D01*
X123656502Y-86530498D01*
X123468449Y-86376167D01*
X123253901Y-86261489D01*
X123021102Y-86190870D01*
X122779000Y-86167025D01*
X122536899Y-86190870D01*
X122304100Y-86261489D01*
X122089552Y-86376167D01*
X121901499Y-86530498D01*
X121747168Y-86718551D01*
X121632489Y-86933099D01*
X121561870Y-87165898D01*
X121544000Y-87347335D01*
X121544000Y-88268664D01*
X121561870Y-88450101D01*
X121632489Y-88682900D01*
X121747167Y-88897448D01*
X121901498Y-89085502D01*
X121944375Y-89120690D01*
X121871499Y-89180498D01*
X121717168Y-89368551D01*
X121602489Y-89583099D01*
X121531870Y-89815898D01*
X121514000Y-89997335D01*
X108610000Y-89997335D01*
X108610000Y-82403740D01*
X122975000Y-82403740D01*
X122975000Y-82696260D01*
X123032068Y-82983158D01*
X123144010Y-83253411D01*
X123306525Y-83496632D01*
X123513368Y-83703475D01*
X123756589Y-83865990D01*
X124026842Y-83977932D01*
X124313740Y-84035000D01*
X124606260Y-84035000D01*
X124893158Y-83977932D01*
X125163411Y-83865990D01*
X125406632Y-83703475D01*
X125613475Y-83496632D01*
X125730000Y-83322240D01*
X125846525Y-83496632D01*
X126053368Y-83703475D01*
X126296589Y-83865990D01*
X126566842Y-83977932D01*
X126853740Y-84035000D01*
X127146260Y-84035000D01*
X127433158Y-83977932D01*
X127703411Y-83865990D01*
X127946632Y-83703475D01*
X128153475Y-83496632D01*
X128270000Y-83322240D01*
X128386525Y-83496632D01*
X128593368Y-83703475D01*
X128836589Y-83865990D01*
X129106842Y-83977932D01*
X129393740Y-84035000D01*
X129686260Y-84035000D01*
X129973158Y-83977932D01*
X130243411Y-83865990D01*
X130486632Y-83703475D01*
X130693475Y-83496632D01*
X130810000Y-83322240D01*
X130926525Y-83496632D01*
X131133368Y-83703475D01*
X131376589Y-83865990D01*
X131646842Y-83977932D01*
X131933740Y-84035000D01*
X132226260Y-84035000D01*
X132513158Y-83977932D01*
X132783411Y-83865990D01*
X133026632Y-83703475D01*
X133233475Y-83496632D01*
X133350000Y-83322240D01*
X133466525Y-83496632D01*
X133673368Y-83703475D01*
X133916589Y-83865990D01*
X134186842Y-83977932D01*
X134473740Y-84035000D01*
X134766260Y-84035000D01*
X135053158Y-83977932D01*
X135323411Y-83865990D01*
X135566632Y-83703475D01*
X135773475Y-83496632D01*
X135890000Y-83322240D01*
X136006525Y-83496632D01*
X136213368Y-83703475D01*
X136456589Y-83865990D01*
X136726842Y-83977932D01*
X137013740Y-84035000D01*
X137306260Y-84035000D01*
X137593158Y-83977932D01*
X137863411Y-83865990D01*
X138106632Y-83703475D01*
X138313475Y-83496632D01*
X138430000Y-83322240D01*
X138546525Y-83496632D01*
X138753368Y-83703475D01*
X138996589Y-83865990D01*
X139266842Y-83977932D01*
X139553740Y-84035000D01*
X139846260Y-84035000D01*
X140133158Y-83977932D01*
X140403411Y-83865990D01*
X140646632Y-83703475D01*
X140853475Y-83496632D01*
X140970000Y-83322240D01*
X141086525Y-83496632D01*
X141293368Y-83703475D01*
X141536589Y-83865990D01*
X141806842Y-83977932D01*
X142093740Y-84035000D01*
X142386260Y-84035000D01*
X142673158Y-83977932D01*
X142700000Y-83966814D01*
X142700000Y-84796512D01*
X142696081Y-84836300D01*
X142700000Y-84876088D01*
X142700000Y-84876090D01*
X142711720Y-84995087D01*
X142758037Y-85147772D01*
X142786851Y-85201680D01*
X142833251Y-85288489D01*
X142839679Y-85296321D01*
X142934472Y-85411828D01*
X142965387Y-85437199D01*
X143589001Y-86060814D01*
X143589001Y-86269560D01*
X143573901Y-86261489D01*
X143341102Y-86190870D01*
X143099000Y-86167025D01*
X142856899Y-86190870D01*
X142624100Y-86261489D01*
X142409552Y-86376167D01*
X142221499Y-86530498D01*
X142067168Y-86718551D01*
X141952489Y-86933099D01*
X141881870Y-87165898D01*
X141864000Y-87347335D01*
X141864000Y-88268664D01*
X141881870Y-88450101D01*
X141952489Y-88682900D01*
X142067167Y-88897448D01*
X142221498Y-89085502D01*
X142264375Y-89120690D01*
X142191499Y-89180498D01*
X142037168Y-89368551D01*
X141922489Y-89583099D01*
X141851870Y-89815898D01*
X141834000Y-89997335D01*
X141834000Y-90918664D01*
X141851870Y-91100101D01*
X141922489Y-91332900D01*
X142037167Y-91547448D01*
X142191498Y-91735502D01*
X142379551Y-91889833D01*
X142594099Y-92004511D01*
X142826898Y-92075130D01*
X143069000Y-92098975D01*
X143311101Y-92075130D01*
X143543900Y-92004511D01*
X143758448Y-91889833D01*
X143946502Y-91735502D01*
X144100833Y-91547449D01*
X144215511Y-91332901D01*
X144286130Y-91100102D01*
X144304000Y-90918665D01*
X144304000Y-90368512D01*
X144374000Y-90298513D01*
X144374000Y-90918664D01*
X144391870Y-91100101D01*
X144462489Y-91332900D01*
X144577167Y-91547448D01*
X144731498Y-91735502D01*
X144919551Y-91889833D01*
X145134099Y-92004511D01*
X145366898Y-92075130D01*
X145609000Y-92098975D01*
X145781082Y-92082026D01*
X145783997Y-92111621D01*
X145786121Y-92133188D01*
X145825036Y-92261472D01*
X145832438Y-92285873D01*
X145907651Y-92426589D01*
X145963252Y-92494339D01*
X146008873Y-92549928D01*
X146039783Y-92575295D01*
X146846105Y-93381618D01*
X146871472Y-93412528D01*
X146902380Y-93437893D01*
X146994811Y-93513749D01*
X147135526Y-93588963D01*
X147171063Y-93599743D01*
X147288212Y-93635280D01*
X147407209Y-93647000D01*
X147407212Y-93647000D01*
X147447000Y-93650919D01*
X147486788Y-93647000D01*
X153249212Y-93647000D01*
X153289000Y-93650919D01*
X153328788Y-93647000D01*
X153328791Y-93647000D01*
X153447788Y-93635280D01*
X153600473Y-93588963D01*
X153741189Y-93513749D01*
X153864528Y-93412528D01*
X153889899Y-93381613D01*
X153995667Y-93275845D01*
X155504692Y-93275845D01*
X155528537Y-93517947D01*
X155599156Y-93750746D01*
X155713834Y-93965294D01*
X155868165Y-94153347D01*
X156056218Y-94307678D01*
X156270766Y-94422356D01*
X156503565Y-94492975D01*
X156685002Y-94510845D01*
X157606332Y-94510845D01*
X157787769Y-94492975D01*
X158020568Y-94422356D01*
X158235116Y-94307678D01*
X158423169Y-94153347D01*
X158577500Y-93965294D01*
X158692178Y-93750746D01*
X158762797Y-93517947D01*
X158786642Y-93275845D01*
X159074692Y-93275845D01*
X159098537Y-93517947D01*
X159169156Y-93750746D01*
X159283834Y-93965294D01*
X159438165Y-94153347D01*
X159626218Y-94307678D01*
X159840766Y-94422356D01*
X160073565Y-94492975D01*
X160255002Y-94510845D01*
X161176332Y-94510845D01*
X161357769Y-94492975D01*
X161590568Y-94422356D01*
X161805116Y-94307678D01*
X161993169Y-94153347D01*
X162147500Y-93965294D01*
X162262178Y-93750746D01*
X162332797Y-93517947D01*
X162356642Y-93275845D01*
X162332797Y-93033743D01*
X162262178Y-92800944D01*
X162147500Y-92586396D01*
X161993169Y-92398343D01*
X161805116Y-92244012D01*
X161590568Y-92129334D01*
X161357769Y-92058715D01*
X161197312Y-92042911D01*
X161323900Y-92004511D01*
X161538448Y-91889833D01*
X161726502Y-91735502D01*
X161880833Y-91547449D01*
X161995511Y-91332901D01*
X162066130Y-91100102D01*
X162084000Y-90918665D01*
X162084000Y-89997336D01*
X162066130Y-89815899D01*
X161995511Y-89583099D01*
X161880833Y-89368551D01*
X161726502Y-89180498D01*
X161683625Y-89145310D01*
X161756502Y-89085502D01*
X161910833Y-88897449D01*
X162025511Y-88682901D01*
X162096130Y-88450102D01*
X162114000Y-88268665D01*
X162114000Y-87347336D01*
X162096130Y-87165899D01*
X162025511Y-86933099D01*
X161910833Y-86718551D01*
X161756502Y-86530498D01*
X161568449Y-86376167D01*
X161353901Y-86261489D01*
X161121102Y-86190870D01*
X160879000Y-86167025D01*
X160636899Y-86190870D01*
X160404100Y-86261489D01*
X160189552Y-86376167D01*
X160001499Y-86530498D01*
X159847168Y-86718551D01*
X159732489Y-86933099D01*
X159661870Y-87165898D01*
X159644000Y-87347335D01*
X159644000Y-88268664D01*
X159661870Y-88450101D01*
X159732489Y-88682900D01*
X159847167Y-88897448D01*
X160001498Y-89085502D01*
X160044375Y-89120690D01*
X159971499Y-89180498D01*
X159817168Y-89368551D01*
X159702489Y-89583099D01*
X159631870Y-89815898D01*
X159614000Y-89997335D01*
X159614000Y-90918664D01*
X159631870Y-91100101D01*
X159702489Y-91332900D01*
X159817167Y-91547448D01*
X159971498Y-91735502D01*
X160159551Y-91889833D01*
X160374099Y-92004511D01*
X160493876Y-92040845D01*
X160255002Y-92040845D01*
X160073565Y-92058715D01*
X159840766Y-92129334D01*
X159626218Y-92244012D01*
X159438165Y-92398343D01*
X159283834Y-92586396D01*
X159169156Y-92800944D01*
X159098537Y-93033743D01*
X159074692Y-93275845D01*
X158786642Y-93275845D01*
X158762797Y-93033743D01*
X158692178Y-92800944D01*
X158577500Y-92586396D01*
X158423169Y-92398343D01*
X158235116Y-92244012D01*
X158020568Y-92129334D01*
X157787769Y-92058715D01*
X157606332Y-92040845D01*
X156685002Y-92040845D01*
X156503565Y-92058715D01*
X156270766Y-92129334D01*
X156056218Y-92244012D01*
X155868165Y-92398343D01*
X155713834Y-92586396D01*
X155599156Y-92800944D01*
X155528537Y-93033743D01*
X155504692Y-93275845D01*
X153995667Y-93275845D01*
X155103619Y-92167894D01*
X155134528Y-92142528D01*
X155217977Y-92040845D01*
X155235749Y-92019190D01*
X155254818Y-91983515D01*
X155294099Y-92004511D01*
X155526898Y-92075130D01*
X155769000Y-92098975D01*
X156011101Y-92075130D01*
X156243900Y-92004511D01*
X156458448Y-91889833D01*
X156646502Y-91735502D01*
X156800833Y-91547449D01*
X156915511Y-91332901D01*
X156986130Y-91100102D01*
X157004000Y-90918665D01*
X157004000Y-89997336D01*
X157004000Y-89997335D01*
X157074000Y-89997335D01*
X157074000Y-90918664D01*
X157091870Y-91100101D01*
X157162489Y-91332900D01*
X157277167Y-91547448D01*
X157431498Y-91735502D01*
X157619551Y-91889833D01*
X157834099Y-92004511D01*
X158066898Y-92075130D01*
X158309000Y-92098975D01*
X158551101Y-92075130D01*
X158783900Y-92004511D01*
X158998448Y-91889833D01*
X159186502Y-91735502D01*
X159340833Y-91547449D01*
X159455511Y-91332901D01*
X159526130Y-91100102D01*
X159544000Y-90918665D01*
X159544000Y-89997336D01*
X159526130Y-89815899D01*
X159455511Y-89583099D01*
X159340833Y-89368551D01*
X159186502Y-89180498D01*
X159143625Y-89145310D01*
X159216502Y-89085502D01*
X159370833Y-88897449D01*
X159485511Y-88682901D01*
X159556130Y-88450102D01*
X159574000Y-88268665D01*
X159574000Y-87347336D01*
X159556130Y-87165899D01*
X159485511Y-86933099D01*
X159370833Y-86718551D01*
X159216502Y-86530498D01*
X159028449Y-86376167D01*
X158813901Y-86261489D01*
X158581102Y-86190870D01*
X158339000Y-86167025D01*
X158096899Y-86190870D01*
X157864100Y-86261489D01*
X157649552Y-86376167D01*
X157461499Y-86530498D01*
X157307168Y-86718551D01*
X157192489Y-86933099D01*
X157121870Y-87165898D01*
X157104000Y-87347335D01*
X157104000Y-88268664D01*
X157121870Y-88450101D01*
X157192489Y-88682900D01*
X157307167Y-88897448D01*
X157461498Y-89085502D01*
X157504375Y-89120690D01*
X157431499Y-89180498D01*
X157277168Y-89368551D01*
X157162489Y-89583099D01*
X157091870Y-89815898D01*
X157074000Y-89997335D01*
X157004000Y-89997335D01*
X156986130Y-89815899D01*
X156915511Y-89583099D01*
X156800833Y-89368551D01*
X156646502Y-89180498D01*
X156603625Y-89145310D01*
X156676502Y-89085502D01*
X156830833Y-88897449D01*
X156945511Y-88682901D01*
X157016130Y-88450102D01*
X157034000Y-88268665D01*
X157034000Y-87347336D01*
X157016130Y-87165899D01*
X156945511Y-86933099D01*
X156830833Y-86718551D01*
X156676502Y-86530498D01*
X156488449Y-86376167D01*
X156273901Y-86261489D01*
X156041102Y-86190870D01*
X155799000Y-86167025D01*
X155556899Y-86190870D01*
X155369000Y-86247869D01*
X155369000Y-85974087D01*
X155372919Y-85934299D01*
X155368367Y-85888080D01*
X155357280Y-85775512D01*
X155310963Y-85622827D01*
X155239393Y-85488928D01*
X155235749Y-85482110D01*
X155179709Y-85413826D01*
X155134528Y-85358772D01*
X155103618Y-85333405D01*
X153410160Y-83639947D01*
X153553475Y-83496632D01*
X153670000Y-83322240D01*
X153786525Y-83496632D01*
X153993368Y-83703475D01*
X154236589Y-83865990D01*
X154506842Y-83977932D01*
X154793740Y-84035000D01*
X155086260Y-84035000D01*
X155373158Y-83977932D01*
X155643411Y-83865990D01*
X155886632Y-83703475D01*
X156093475Y-83496632D01*
X156210000Y-83322240D01*
X156326525Y-83496632D01*
X156533368Y-83703475D01*
X156776589Y-83865990D01*
X157046842Y-83977932D01*
X157333740Y-84035000D01*
X157626260Y-84035000D01*
X157913158Y-83977932D01*
X158183411Y-83865990D01*
X158426632Y-83703475D01*
X158558487Y-83571620D01*
X158580498Y-83644180D01*
X158639463Y-83754494D01*
X158718815Y-83851185D01*
X158815506Y-83930537D01*
X158925820Y-83989502D01*
X159045518Y-84025812D01*
X159170000Y-84038072D01*
X160870000Y-84038072D01*
X160994482Y-84025812D01*
X161114180Y-83989502D01*
X161224494Y-83930537D01*
X161321185Y-83851185D01*
X161400537Y-83754494D01*
X161459502Y-83644180D01*
X161495812Y-83524482D01*
X161508072Y-83400000D01*
X161508072Y-81700000D01*
X161495812Y-81575518D01*
X161459502Y-81455820D01*
X161400537Y-81345506D01*
X161321185Y-81248815D01*
X161224494Y-81169463D01*
X161114180Y-81110498D01*
X161041620Y-81088487D01*
X161173475Y-80956632D01*
X161335990Y-80713411D01*
X161447932Y-80443158D01*
X161505000Y-80156260D01*
X161505000Y-79863740D01*
X161447932Y-79576842D01*
X161335990Y-79306589D01*
X161173475Y-79063368D01*
X160966632Y-78856525D01*
X160723411Y-78694010D01*
X160453158Y-78582068D01*
X160166260Y-78525000D01*
X159873740Y-78525000D01*
X159586842Y-78582068D01*
X159316589Y-78694010D01*
X159073368Y-78856525D01*
X158866525Y-79063368D01*
X158750000Y-79237760D01*
X158633475Y-79063368D01*
X158426632Y-78856525D01*
X158183411Y-78694010D01*
X157913158Y-78582068D01*
X157626260Y-78525000D01*
X157333740Y-78525000D01*
X157046842Y-78582068D01*
X156776589Y-78694010D01*
X156533368Y-78856525D01*
X156326525Y-79063368D01*
X156210000Y-79237760D01*
X156093475Y-79063368D01*
X155886632Y-78856525D01*
X155743466Y-78760864D01*
X155738280Y-78708212D01*
X155691963Y-78555527D01*
X155616750Y-78414812D01*
X155616749Y-78414810D01*
X155588257Y-78380093D01*
X155515528Y-78291472D01*
X155484614Y-78266102D01*
X154524900Y-77306388D01*
X154499528Y-77275472D01*
X154376189Y-77174251D01*
X154235473Y-77099037D01*
X154082788Y-77052720D01*
X153963791Y-77041000D01*
X153963788Y-77041000D01*
X153924000Y-77037081D01*
X153884212Y-77041000D01*
X144184788Y-77041000D01*
X144145000Y-77037081D01*
X144105212Y-77041000D01*
X144105209Y-77041000D01*
X143986212Y-77052720D01*
X143869063Y-77088257D01*
X143833526Y-77099037D01*
X143692811Y-77174251D01*
X143569472Y-77275472D01*
X143544105Y-77306382D01*
X142965383Y-77885105D01*
X142934473Y-77910472D01*
X142909108Y-77941380D01*
X142833251Y-78033811D01*
X142789836Y-78115037D01*
X142758038Y-78174527D01*
X142719009Y-78303189D01*
X142711721Y-78327213D01*
X142696081Y-78486000D01*
X142700001Y-78525798D01*
X142700001Y-78593187D01*
X142673158Y-78582068D01*
X142386260Y-78525000D01*
X142093740Y-78525000D01*
X141806842Y-78582068D01*
X141536589Y-78694010D01*
X141293368Y-78856525D01*
X141086525Y-79063368D01*
X140970000Y-79237760D01*
X140853475Y-79063368D01*
X140646632Y-78856525D01*
X140403411Y-78694010D01*
X140133158Y-78582068D01*
X139846260Y-78525000D01*
X139553740Y-78525000D01*
X139266842Y-78582068D01*
X138996589Y-78694010D01*
X138753368Y-78856525D01*
X138546525Y-79063368D01*
X138430000Y-79237760D01*
X138313475Y-79063368D01*
X138106632Y-78856525D01*
X137863411Y-78694010D01*
X137593158Y-78582068D01*
X137306260Y-78525000D01*
X137013740Y-78525000D01*
X136726842Y-78582068D01*
X136456589Y-78694010D01*
X136213368Y-78856525D01*
X136006525Y-79063368D01*
X135890000Y-79237760D01*
X135773475Y-79063368D01*
X135566632Y-78856525D01*
X135323411Y-78694010D01*
X135053158Y-78582068D01*
X134766260Y-78525000D01*
X134473740Y-78525000D01*
X134186842Y-78582068D01*
X133916589Y-78694010D01*
X133673368Y-78856525D01*
X133466525Y-79063368D01*
X133350000Y-79237760D01*
X133233475Y-79063368D01*
X133026632Y-78856525D01*
X132783411Y-78694010D01*
X132513158Y-78582068D01*
X132226260Y-78525000D01*
X131933740Y-78525000D01*
X131646842Y-78582068D01*
X131376589Y-78694010D01*
X131133368Y-78856525D01*
X130926525Y-79063368D01*
X130810000Y-79237760D01*
X130693475Y-79063368D01*
X130486632Y-78856525D01*
X130243411Y-78694010D01*
X129973158Y-78582068D01*
X129686260Y-78525000D01*
X129393740Y-78525000D01*
X129106842Y-78582068D01*
X128836589Y-78694010D01*
X128593368Y-78856525D01*
X128386525Y-79063368D01*
X128270000Y-79237760D01*
X128153475Y-79063368D01*
X127946632Y-78856525D01*
X127703411Y-78694010D01*
X127433158Y-78582068D01*
X127146260Y-78525000D01*
X126853740Y-78525000D01*
X126566842Y-78582068D01*
X126296589Y-78694010D01*
X126053368Y-78856525D01*
X125846525Y-79063368D01*
X125724805Y-79245534D01*
X125655178Y-79128645D01*
X125460269Y-78912412D01*
X125226920Y-78738359D01*
X124964099Y-78613175D01*
X124816890Y-78568524D01*
X124587000Y-78689845D01*
X124587000Y-79883000D01*
X124607000Y-79883000D01*
X124607000Y-80137000D01*
X124587000Y-80137000D01*
X124587000Y-80157000D01*
X124333000Y-80157000D01*
X124333000Y-80137000D01*
X123139186Y-80137000D01*
X123018519Y-80366891D01*
X123115843Y-80641252D01*
X123264822Y-80891355D01*
X123459731Y-81107588D01*
X123689406Y-81278900D01*
X123513368Y-81396525D01*
X123306525Y-81603368D01*
X123144010Y-81846589D01*
X123032068Y-82116842D01*
X122975000Y-82403740D01*
X108610000Y-82403740D01*
X108610000Y-79653109D01*
X123018519Y-79653109D01*
X123139186Y-79883000D01*
X124333000Y-79883000D01*
X124333000Y-78689845D01*
X124103110Y-78568524D01*
X123955901Y-78613175D01*
X123693080Y-78738359D01*
X123459731Y-78912412D01*
X123264822Y-79128645D01*
X123115843Y-79378748D01*
X123018519Y-79653109D01*
X108610000Y-79653109D01*
X108610000Y-76860000D01*
X172060001Y-76860000D01*
X172060001Y-87335364D01*
%TA.AperFunction,Conductor*%
D18*
G36*
X172060001Y-87335364D02*
G01*
X171912588Y-87137731D01*
X171696355Y-86942822D01*
X171446252Y-86793843D01*
X171171891Y-86696519D01*
X170942000Y-86817186D01*
X170942000Y-88011000D01*
X170962000Y-88011000D01*
X170962000Y-88265000D01*
X170942000Y-88265000D01*
X170942000Y-88285000D01*
X170688000Y-88285000D01*
X170688000Y-88265000D01*
X170668000Y-88265000D01*
X170668000Y-88011000D01*
X170688000Y-88011000D01*
X170688000Y-86817186D01*
X170458109Y-86696519D01*
X170183748Y-86793843D01*
X169933645Y-86942822D01*
X169717412Y-87137731D01*
X169546100Y-87367406D01*
X169428475Y-87191368D01*
X169221632Y-86984525D01*
X168978411Y-86822010D01*
X168708158Y-86710068D01*
X168421260Y-86653000D01*
X168128740Y-86653000D01*
X167841842Y-86710068D01*
X167571589Y-86822010D01*
X167328368Y-86984525D01*
X167121525Y-87191368D01*
X166959010Y-87434589D01*
X166847068Y-87704842D01*
X166790000Y-87991740D01*
X166790000Y-88284260D01*
X166847068Y-88571158D01*
X166959010Y-88841411D01*
X167121525Y-89084632D01*
X167328368Y-89291475D01*
X167502760Y-89408000D01*
X167328368Y-89524525D01*
X167121525Y-89731368D01*
X166959010Y-89974589D01*
X166847068Y-90244842D01*
X166790000Y-90531740D01*
X166790000Y-90824260D01*
X166847068Y-91111158D01*
X166959010Y-91381411D01*
X167121525Y-91624632D01*
X167328368Y-91831475D01*
X167502760Y-91948000D01*
X167328368Y-92064525D01*
X167121525Y-92271368D01*
X166959010Y-92514589D01*
X166847068Y-92784842D01*
X166790000Y-93071740D01*
X166790000Y-93364260D01*
X166847068Y-93651158D01*
X166959010Y-93921411D01*
X167121525Y-94164632D01*
X167328368Y-94371475D01*
X167502760Y-94488000D01*
X167328368Y-94604525D01*
X167121525Y-94811368D01*
X166959010Y-95054589D01*
X166847068Y-95324842D01*
X166790000Y-95611740D01*
X166790000Y-95904260D01*
X166847068Y-96191158D01*
X166959010Y-96461411D01*
X167121525Y-96704632D01*
X167328368Y-96911475D01*
X167502760Y-97028000D01*
X167328368Y-97144525D01*
X167121525Y-97351368D01*
X166959010Y-97594589D01*
X166847068Y-97864842D01*
X166790000Y-98151740D01*
X166790000Y-98444260D01*
X166847068Y-98731158D01*
X166959010Y-99001411D01*
X167121525Y-99244632D01*
X167328368Y-99451475D01*
X167502760Y-99568000D01*
X167328368Y-99684525D01*
X167121525Y-99891368D01*
X166959010Y-100134589D01*
X166847068Y-100404842D01*
X166790000Y-100691740D01*
X166790000Y-100984260D01*
X166847068Y-101271158D01*
X166959010Y-101541411D01*
X167121525Y-101784632D01*
X167328368Y-101991475D01*
X167502760Y-102108000D01*
X167328368Y-102224525D01*
X167121525Y-102431368D01*
X166959010Y-102674589D01*
X166847068Y-102944842D01*
X166790000Y-103231740D01*
X166790000Y-103524260D01*
X166847068Y-103811158D01*
X166959010Y-104081411D01*
X167121525Y-104324632D01*
X167328368Y-104531475D01*
X167502760Y-104648000D01*
X167328368Y-104764525D01*
X167121525Y-104971368D01*
X166959010Y-105214589D01*
X166847068Y-105484842D01*
X166790000Y-105771740D01*
X166790000Y-105827487D01*
X160620900Y-99658388D01*
X160595528Y-99627472D01*
X160550898Y-99590845D01*
X161176332Y-99590845D01*
X161357769Y-99572975D01*
X161590568Y-99502356D01*
X161805116Y-99387678D01*
X161993169Y-99233347D01*
X162147500Y-99045294D01*
X162262178Y-98830746D01*
X162332797Y-98597947D01*
X162356642Y-98355845D01*
X162332797Y-98113743D01*
X162262178Y-97880944D01*
X162147500Y-97666396D01*
X161993169Y-97478343D01*
X161805116Y-97324012D01*
X161590568Y-97209334D01*
X161357769Y-97138715D01*
X161176332Y-97120845D01*
X160255002Y-97120845D01*
X160073565Y-97138715D01*
X159840766Y-97209334D01*
X159626218Y-97324012D01*
X159438165Y-97478343D01*
X159283834Y-97666396D01*
X159169156Y-97880944D01*
X159098537Y-98113743D01*
X159074692Y-98355845D01*
X159098537Y-98597947D01*
X159169156Y-98830746D01*
X159283834Y-99045294D01*
X159438165Y-99233347D01*
X159626218Y-99387678D01*
X159636175Y-99393000D01*
X158225159Y-99393000D01*
X158235116Y-99387678D01*
X158423169Y-99233347D01*
X158577500Y-99045294D01*
X158692178Y-98830746D01*
X158762797Y-98597947D01*
X158786642Y-98355845D01*
X158762797Y-98113743D01*
X158692178Y-97880944D01*
X158577500Y-97666396D01*
X158423169Y-97478343D01*
X158235116Y-97324012D01*
X158020568Y-97209334D01*
X157787769Y-97138715D01*
X157606332Y-97120845D01*
X156685002Y-97120845D01*
X156503565Y-97138715D01*
X156270766Y-97209334D01*
X156056218Y-97324012D01*
X155868165Y-97478343D01*
X155713834Y-97666396D01*
X155599156Y-97880944D01*
X155528537Y-98113743D01*
X155504692Y-98355845D01*
X155528537Y-98597947D01*
X155599156Y-98830746D01*
X155713834Y-99045294D01*
X155868165Y-99233347D01*
X156056218Y-99387678D01*
X156066175Y-99393000D01*
X147359787Y-99393000D01*
X147319999Y-99389081D01*
X147280211Y-99393000D01*
X147280209Y-99393000D01*
X147161212Y-99404720D01*
X147008527Y-99451037D01*
X147007708Y-99451475D01*
X146867810Y-99526251D01*
X146812210Y-99571881D01*
X146744472Y-99627472D01*
X146719105Y-99658382D01*
X142143888Y-104233600D01*
X142112972Y-104258972D01*
X142059087Y-104324632D01*
X142011751Y-104382311D01*
X141984658Y-104433000D01*
X141936537Y-104523028D01*
X141890220Y-104675713D01*
X141881473Y-104764525D01*
X141874581Y-104834500D01*
X141878500Y-104874288D01*
X141878501Y-109197986D01*
X133444388Y-117632100D01*
X133413472Y-117657472D01*
X133343703Y-117742487D01*
X133312251Y-117780811D01*
X133280246Y-117840689D01*
X133237037Y-117921528D01*
X133190720Y-118074213D01*
X133179076Y-118192437D01*
X133175081Y-118233000D01*
X133179000Y-118272788D01*
X133179000Y-119536969D01*
X132961102Y-119470870D01*
X132719000Y-119447025D01*
X132476899Y-119470870D01*
X132244100Y-119541489D01*
X132029552Y-119656167D01*
X131841499Y-119810498D01*
X131687168Y-119998551D01*
X131572489Y-120213099D01*
X131501870Y-120445898D01*
X131484000Y-120627335D01*
X131484000Y-121548664D01*
X131501870Y-121730101D01*
X131572489Y-121962900D01*
X131687167Y-122177448D01*
X131841498Y-122365502D01*
X131884375Y-122400690D01*
X131811499Y-122460498D01*
X131657168Y-122648551D01*
X131542489Y-122863099D01*
X131471870Y-123095898D01*
X131454000Y-123277335D01*
X131454000Y-124198664D01*
X131471870Y-124380101D01*
X131542489Y-124612900D01*
X131657167Y-124827448D01*
X131811498Y-125015502D01*
X131999551Y-125169833D01*
X132214099Y-125284511D01*
X132446898Y-125355130D01*
X132689000Y-125378975D01*
X132931101Y-125355130D01*
X133163900Y-125284511D01*
X133179001Y-125276439D01*
X133179001Y-126483786D01*
X131281387Y-128381401D01*
X131250472Y-128406772D01*
X131184320Y-128487380D01*
X131149251Y-128530111D01*
X131139747Y-128547892D01*
X131074037Y-128670828D01*
X131027720Y-128823513D01*
X131020308Y-128898773D01*
X131012081Y-128982300D01*
X131016000Y-129022088D01*
X131016000Y-129321928D01*
X129706000Y-129321928D01*
X129581518Y-129334188D01*
X129461820Y-129370498D01*
X129351506Y-129429463D01*
X129254815Y-129508815D01*
X129175463Y-129605506D01*
X129116498Y-129715820D01*
X129080188Y-129835518D01*
X129067928Y-129960000D01*
X129067928Y-130043264D01*
X129019227Y-130058037D01*
X128953724Y-130093049D01*
X128878510Y-130133251D01*
X128822910Y-130178881D01*
X128755172Y-130234472D01*
X128729807Y-130265380D01*
X127598188Y-131397000D01*
X123027072Y-131397000D01*
X123027072Y-131357000D01*
X123014812Y-131232518D01*
X122978502Y-131112820D01*
X122919537Y-131002506D01*
X122840185Y-130905815D01*
X122743494Y-130826463D01*
X122633180Y-130767498D01*
X122513482Y-130731188D01*
X122389000Y-130718928D01*
X120689000Y-130718928D01*
X120564518Y-130731188D01*
X120444820Y-130767498D01*
X120334506Y-130826463D01*
X120237815Y-130905815D01*
X120158463Y-131002506D01*
X120099498Y-131112820D01*
X120075034Y-131193466D01*
X119999269Y-131109412D01*
X119765920Y-130935359D01*
X119503099Y-130810175D01*
X119355890Y-130765524D01*
X119126000Y-130886845D01*
X119126000Y-132080000D01*
X119146000Y-132080000D01*
X119146000Y-132334000D01*
X119126000Y-132334000D01*
X119126000Y-133527155D01*
X119355890Y-133648476D01*
X119503099Y-133603825D01*
X119765920Y-133478641D01*
X119999269Y-133304588D01*
X120075034Y-133220534D01*
X120099498Y-133301180D01*
X120158463Y-133411494D01*
X120237815Y-133508185D01*
X120334506Y-133587537D01*
X120444820Y-133646502D01*
X120564518Y-133682812D01*
X120689000Y-133695072D01*
X122389000Y-133695072D01*
X122513482Y-133682812D01*
X122633180Y-133646502D01*
X122743494Y-133587537D01*
X122840185Y-133508185D01*
X122919537Y-133411494D01*
X122978502Y-133301180D01*
X123014812Y-133181482D01*
X123027072Y-133057000D01*
X123027072Y-133017000D01*
X127123700Y-133017000D01*
X127123701Y-134624902D01*
X127119781Y-134664700D01*
X127132268Y-134791476D01*
X127135421Y-134823488D01*
X127172394Y-134945369D01*
X127181738Y-134976173D01*
X127256951Y-135116889D01*
X127307528Y-135178516D01*
X127349779Y-135230000D01*
X108610000Y-135230000D01*
X108610000Y-132563891D01*
X112477519Y-132563891D01*
X112574843Y-132838252D01*
X112723822Y-133088355D01*
X112918731Y-133304588D01*
X113152080Y-133478641D01*
X113414901Y-133603825D01*
X113562110Y-133648476D01*
X113792000Y-133527155D01*
X113792000Y-132334000D01*
X112598186Y-132334000D01*
X112477519Y-132563891D01*
X108610000Y-132563891D01*
X108610000Y-131850109D01*
X112477519Y-131850109D01*
X112598186Y-132080000D01*
X113792000Y-132080000D01*
X113792000Y-130886845D01*
X114046000Y-130886845D01*
X114046000Y-132080000D01*
X114066000Y-132080000D01*
X114066000Y-132334000D01*
X114046000Y-132334000D01*
X114046000Y-133527155D01*
X114275890Y-133648476D01*
X114423099Y-133603825D01*
X114685920Y-133478641D01*
X114919269Y-133304588D01*
X115114178Y-133088355D01*
X115183805Y-132971466D01*
X115305525Y-133153632D01*
X115512368Y-133360475D01*
X115755589Y-133522990D01*
X116025842Y-133634932D01*
X116312740Y-133692000D01*
X116605260Y-133692000D01*
X116892158Y-133634932D01*
X117162411Y-133522990D01*
X117405632Y-133360475D01*
X117612475Y-133153632D01*
X117734195Y-132971466D01*
X117803822Y-133088355D01*
X117998731Y-133304588D01*
X118232080Y-133478641D01*
X118494901Y-133603825D01*
X118642110Y-133648476D01*
X118872000Y-133527155D01*
X118872000Y-132334000D01*
X118852000Y-132334000D01*
X118852000Y-132080000D01*
X118872000Y-132080000D01*
X118872000Y-130886845D01*
X118642110Y-130765524D01*
X118494901Y-130810175D01*
X118232080Y-130935359D01*
X117998731Y-131109412D01*
X117803822Y-131325645D01*
X117734195Y-131442534D01*
X117612475Y-131260368D01*
X117405632Y-131053525D01*
X117162411Y-130891010D01*
X116892158Y-130779068D01*
X116605260Y-130722000D01*
X116312740Y-130722000D01*
X116025842Y-130779068D01*
X115755589Y-130891010D01*
X115512368Y-131053525D01*
X115305525Y-131260368D01*
X115183805Y-131442534D01*
X115114178Y-131325645D01*
X114919269Y-131109412D01*
X114685920Y-130935359D01*
X114423099Y-130810175D01*
X114275890Y-130765524D01*
X114046000Y-130886845D01*
X113792000Y-130886845D01*
X113562110Y-130765524D01*
X113414901Y-130810175D01*
X113152080Y-130935359D01*
X112918731Y-131109412D01*
X112723822Y-131325645D01*
X112574843Y-131575748D01*
X112477519Y-131850109D01*
X108610000Y-131850109D01*
X108610000Y-124361115D01*
X108611870Y-124380101D01*
X108682489Y-124612900D01*
X108797167Y-124827448D01*
X108951498Y-125015502D01*
X109139551Y-125169833D01*
X109354099Y-125284511D01*
X109586898Y-125355130D01*
X109829000Y-125378975D01*
X110071101Y-125355130D01*
X110303900Y-125284511D01*
X110518448Y-125169833D01*
X110706502Y-125015502D01*
X110860833Y-124827449D01*
X110975511Y-124612901D01*
X111046130Y-124380102D01*
X111064000Y-124198665D01*
X111064000Y-123865000D01*
X111134000Y-123865000D01*
X111134000Y-124265000D01*
X111182507Y-124503496D01*
X111276610Y-124727946D01*
X111412693Y-124929725D01*
X111585526Y-125101078D01*
X111788467Y-125235421D01*
X112013718Y-125327591D01*
X112051391Y-125331462D01*
X112242000Y-125206731D01*
X112242000Y-123865000D01*
X112496000Y-123865000D01*
X112496000Y-125206731D01*
X112686609Y-125331462D01*
X112724282Y-125327591D01*
X112949533Y-125235421D01*
X113152474Y-125101078D01*
X113325307Y-124929725D01*
X113461390Y-124727946D01*
X113555493Y-124503496D01*
X113604000Y-124265000D01*
X113604000Y-123865000D01*
X112496000Y-123865000D01*
X112242000Y-123865000D01*
X111134000Y-123865000D01*
X111064000Y-123865000D01*
X111064000Y-123277336D01*
X111057467Y-123211000D01*
X111134000Y-123211000D01*
X111134000Y-123611000D01*
X112242000Y-123611000D01*
X112242000Y-122576362D01*
X112272000Y-122556731D01*
X112272000Y-122269269D01*
X112496000Y-122269269D01*
X112496000Y-123611000D01*
X113604000Y-123611000D01*
X113604000Y-123277335D01*
X113674000Y-123277335D01*
X113674000Y-124198664D01*
X113691870Y-124380101D01*
X113762489Y-124612900D01*
X113877167Y-124827448D01*
X114031498Y-125015502D01*
X114219551Y-125169833D01*
X114434099Y-125284511D01*
X114666898Y-125355130D01*
X114909000Y-125378975D01*
X115151101Y-125355130D01*
X115383900Y-125284511D01*
X115598448Y-125169833D01*
X115786502Y-125015502D01*
X115940833Y-124827449D01*
X116055511Y-124612901D01*
X116126130Y-124380102D01*
X116144000Y-124198665D01*
X116144000Y-123277336D01*
X116144000Y-123277335D01*
X116214000Y-123277335D01*
X116214000Y-124198664D01*
X116231870Y-124380101D01*
X116302489Y-124612900D01*
X116417167Y-124827448D01*
X116571498Y-125015502D01*
X116759551Y-125169833D01*
X116974099Y-125284511D01*
X117206898Y-125355130D01*
X117449000Y-125378975D01*
X117691101Y-125355130D01*
X117923900Y-125284511D01*
X118138448Y-125169833D01*
X118326502Y-125015502D01*
X118480833Y-124827449D01*
X118595511Y-124612901D01*
X118666130Y-124380102D01*
X118684000Y-124198665D01*
X118684000Y-123277336D01*
X118684000Y-123277335D01*
X118754000Y-123277335D01*
X118754000Y-124198664D01*
X118771870Y-124380101D01*
X118842489Y-124612900D01*
X118957167Y-124827448D01*
X119111498Y-125015502D01*
X119299551Y-125169833D01*
X119514099Y-125284511D01*
X119746898Y-125355130D01*
X119989000Y-125378975D01*
X120231101Y-125355130D01*
X120463900Y-125284511D01*
X120678448Y-125169833D01*
X120866502Y-125015502D01*
X121020833Y-124827449D01*
X121135511Y-124612901D01*
X121206130Y-124380102D01*
X121224000Y-124198665D01*
X121224000Y-123277336D01*
X121224000Y-123277335D01*
X121294000Y-123277335D01*
X121294000Y-124198664D01*
X121311870Y-124380101D01*
X121382489Y-124612900D01*
X121497167Y-124827448D01*
X121651498Y-125015502D01*
X121839551Y-125169833D01*
X122054099Y-125284511D01*
X122286898Y-125355130D01*
X122529000Y-125378975D01*
X122771101Y-125355130D01*
X123003900Y-125284511D01*
X123218448Y-125169833D01*
X123406502Y-125015502D01*
X123560833Y-124827449D01*
X123675511Y-124612901D01*
X123746130Y-124380102D01*
X123764000Y-124198665D01*
X123764000Y-123277336D01*
X123764000Y-123277335D01*
X123834000Y-123277335D01*
X123834000Y-124198664D01*
X123851870Y-124380101D01*
X123922489Y-124612900D01*
X124037167Y-124827448D01*
X124191498Y-125015502D01*
X124379551Y-125169833D01*
X124594099Y-125284511D01*
X124826898Y-125355130D01*
X125069000Y-125378975D01*
X125311101Y-125355130D01*
X125543900Y-125284511D01*
X125758448Y-125169833D01*
X125946502Y-125015502D01*
X126100833Y-124827449D01*
X126215511Y-124612901D01*
X126286130Y-124380102D01*
X126304000Y-124198665D01*
X126304000Y-123277336D01*
X126304000Y-123277335D01*
X126374000Y-123277335D01*
X126374000Y-124198664D01*
X126391870Y-124380101D01*
X126462489Y-124612900D01*
X126577167Y-124827448D01*
X126731498Y-125015502D01*
X126919551Y-125169833D01*
X127134099Y-125284511D01*
X127366898Y-125355130D01*
X127609000Y-125378975D01*
X127851101Y-125355130D01*
X128083900Y-125284511D01*
X128298448Y-125169833D01*
X128486502Y-125015502D01*
X128640833Y-124827449D01*
X128755511Y-124612901D01*
X128826130Y-124380102D01*
X128844000Y-124198665D01*
X128844000Y-123277336D01*
X128844000Y-123277335D01*
X128914000Y-123277335D01*
X128914000Y-124198664D01*
X128931870Y-124380101D01*
X129002489Y-124612900D01*
X129117167Y-124827448D01*
X129271498Y-125015502D01*
X129459551Y-125169833D01*
X129674099Y-125284511D01*
X129906898Y-125355130D01*
X130149000Y-125378975D01*
X130391101Y-125355130D01*
X130623900Y-125284511D01*
X130838448Y-125169833D01*
X131026502Y-125015502D01*
X131180833Y-124827449D01*
X131295511Y-124612901D01*
X131366130Y-124380102D01*
X131384000Y-124198665D01*
X131384000Y-123277336D01*
X131366130Y-123095899D01*
X131295511Y-122863099D01*
X131180833Y-122648551D01*
X131026502Y-122460498D01*
X130983625Y-122425310D01*
X131056502Y-122365502D01*
X131210833Y-122177449D01*
X131325511Y-121962901D01*
X131396130Y-121730102D01*
X131414000Y-121548665D01*
X131414000Y-120627336D01*
X131396130Y-120445899D01*
X131325511Y-120213099D01*
X131210833Y-119998551D01*
X131056502Y-119810498D01*
X130868449Y-119656167D01*
X130653901Y-119541489D01*
X130421102Y-119470870D01*
X130179000Y-119447025D01*
X129936899Y-119470870D01*
X129704100Y-119541489D01*
X129489552Y-119656167D01*
X129301499Y-119810498D01*
X129147168Y-119998551D01*
X129032489Y-120213099D01*
X128961870Y-120445898D01*
X128944000Y-120627335D01*
X128944000Y-121548664D01*
X128961870Y-121730101D01*
X129032489Y-121962900D01*
X129147167Y-122177448D01*
X129301498Y-122365502D01*
X129344375Y-122400690D01*
X129271499Y-122460498D01*
X129117168Y-122648551D01*
X129002489Y-122863099D01*
X128931870Y-123095898D01*
X128914000Y-123277335D01*
X128844000Y-123277335D01*
X128826130Y-123095899D01*
X128755511Y-122863099D01*
X128640833Y-122648551D01*
X128486502Y-122460498D01*
X128443625Y-122425310D01*
X128516502Y-122365502D01*
X128670833Y-122177449D01*
X128785511Y-121962901D01*
X128856130Y-121730102D01*
X128874000Y-121548665D01*
X128874000Y-120627336D01*
X128856130Y-120445899D01*
X128785511Y-120213099D01*
X128670833Y-119998551D01*
X128516502Y-119810498D01*
X128328449Y-119656167D01*
X128113901Y-119541489D01*
X127881102Y-119470870D01*
X127639000Y-119447025D01*
X127396899Y-119470870D01*
X127164100Y-119541489D01*
X126949552Y-119656167D01*
X126761499Y-119810498D01*
X126607168Y-119998551D01*
X126492489Y-120213099D01*
X126421870Y-120445898D01*
X126404000Y-120627335D01*
X126404000Y-121548664D01*
X126421870Y-121730101D01*
X126492489Y-121962900D01*
X126607167Y-122177448D01*
X126761498Y-122365502D01*
X126804375Y-122400690D01*
X126731499Y-122460498D01*
X126577168Y-122648551D01*
X126462489Y-122863099D01*
X126391870Y-123095898D01*
X126374000Y-123277335D01*
X126304000Y-123277335D01*
X126286130Y-123095899D01*
X126215511Y-122863099D01*
X126100833Y-122648551D01*
X125946502Y-122460498D01*
X125903625Y-122425310D01*
X125976502Y-122365502D01*
X126130833Y-122177449D01*
X126245511Y-121962901D01*
X126316130Y-121730102D01*
X126334000Y-121548665D01*
X126334000Y-120627336D01*
X126316130Y-120445899D01*
X126245511Y-120213099D01*
X126130833Y-119998551D01*
X125976502Y-119810498D01*
X125788449Y-119656167D01*
X125573901Y-119541489D01*
X125341102Y-119470870D01*
X125099000Y-119447025D01*
X124856899Y-119470870D01*
X124624100Y-119541489D01*
X124409552Y-119656167D01*
X124221499Y-119810498D01*
X124067168Y-119998551D01*
X123952489Y-120213099D01*
X123881870Y-120445898D01*
X123864000Y-120627335D01*
X123864000Y-121548664D01*
X123881870Y-121730101D01*
X123952489Y-121962900D01*
X124067167Y-122177448D01*
X124221498Y-122365502D01*
X124264375Y-122400690D01*
X124191499Y-122460498D01*
X124037168Y-122648551D01*
X123922489Y-122863099D01*
X123851870Y-123095898D01*
X123834000Y-123277335D01*
X123764000Y-123277335D01*
X123746130Y-123095899D01*
X123675511Y-122863099D01*
X123560833Y-122648551D01*
X123406502Y-122460498D01*
X123363625Y-122425310D01*
X123436502Y-122365502D01*
X123590833Y-122177449D01*
X123705511Y-121962901D01*
X123776130Y-121730102D01*
X123794000Y-121548665D01*
X123794000Y-120627336D01*
X123776130Y-120445899D01*
X123705511Y-120213099D01*
X123590833Y-119998551D01*
X123436502Y-119810498D01*
X123248449Y-119656167D01*
X123033901Y-119541489D01*
X122801102Y-119470870D01*
X122559000Y-119447025D01*
X122316899Y-119470870D01*
X122084100Y-119541489D01*
X121869552Y-119656167D01*
X121681499Y-119810498D01*
X121527168Y-119998551D01*
X121412489Y-120213099D01*
X121341870Y-120445898D01*
X121324000Y-120627335D01*
X121324000Y-121548664D01*
X121341870Y-121730101D01*
X121412489Y-121962900D01*
X121527167Y-122177448D01*
X121681498Y-122365502D01*
X121724375Y-122400690D01*
X121651499Y-122460498D01*
X121497168Y-122648551D01*
X121382489Y-122863099D01*
X121311870Y-123095898D01*
X121294000Y-123277335D01*
X121224000Y-123277335D01*
X121206130Y-123095899D01*
X121135511Y-122863099D01*
X121020833Y-122648551D01*
X120866502Y-122460498D01*
X120823625Y-122425310D01*
X120896502Y-122365502D01*
X121050833Y-122177449D01*
X121165511Y-121962901D01*
X121236130Y-121730102D01*
X121254000Y-121548665D01*
X121254000Y-120627336D01*
X121236130Y-120445899D01*
X121165511Y-120213099D01*
X121050833Y-119998551D01*
X120896502Y-119810498D01*
X120708449Y-119656167D01*
X120493901Y-119541489D01*
X120261102Y-119470870D01*
X120019000Y-119447025D01*
X119776899Y-119470870D01*
X119544100Y-119541489D01*
X119329552Y-119656167D01*
X119141499Y-119810498D01*
X118987168Y-119998551D01*
X118872489Y-120213099D01*
X118801870Y-120445898D01*
X118784000Y-120627335D01*
X118784000Y-121548664D01*
X118801870Y-121730101D01*
X118872489Y-121962900D01*
X118987167Y-122177448D01*
X119141498Y-122365502D01*
X119184375Y-122400690D01*
X119111499Y-122460498D01*
X118957168Y-122648551D01*
X118842489Y-122863099D01*
X118771870Y-123095898D01*
X118754000Y-123277335D01*
X118684000Y-123277335D01*
X118666130Y-123095899D01*
X118595511Y-122863099D01*
X118480833Y-122648551D01*
X118326502Y-122460498D01*
X118283625Y-122425310D01*
X118356502Y-122365502D01*
X118510833Y-122177449D01*
X118625511Y-121962901D01*
X118696130Y-121730102D01*
X118714000Y-121548665D01*
X118714000Y-120627336D01*
X118696130Y-120445899D01*
X118625511Y-120213099D01*
X118510833Y-119998551D01*
X118356502Y-119810498D01*
X118168449Y-119656167D01*
X117953901Y-119541489D01*
X117721102Y-119470870D01*
X117479000Y-119447025D01*
X117236899Y-119470870D01*
X117004100Y-119541489D01*
X116789552Y-119656167D01*
X116601499Y-119810498D01*
X116447168Y-119998551D01*
X116332489Y-120213099D01*
X116261870Y-120445898D01*
X116244000Y-120627335D01*
X116244000Y-121548664D01*
X116261870Y-121730101D01*
X116332489Y-121962900D01*
X116447167Y-122177448D01*
X116601498Y-122365502D01*
X116644375Y-122400690D01*
X116571499Y-122460498D01*
X116417168Y-122648551D01*
X116302489Y-122863099D01*
X116231870Y-123095898D01*
X116214000Y-123277335D01*
X116144000Y-123277335D01*
X116126130Y-123095899D01*
X116055511Y-122863099D01*
X115940833Y-122648551D01*
X115786502Y-122460498D01*
X115743625Y-122425310D01*
X115816502Y-122365502D01*
X115970833Y-122177449D01*
X116085511Y-121962901D01*
X116156130Y-121730102D01*
X116174000Y-121548665D01*
X116174000Y-120627336D01*
X116156130Y-120445899D01*
X116085511Y-120213099D01*
X115970833Y-119998551D01*
X115816502Y-119810498D01*
X115628449Y-119656167D01*
X115413901Y-119541489D01*
X115181102Y-119470870D01*
X114939000Y-119447025D01*
X114696899Y-119470870D01*
X114464100Y-119541489D01*
X114249552Y-119656167D01*
X114061499Y-119810498D01*
X113907168Y-119998551D01*
X113792489Y-120213099D01*
X113721870Y-120445898D01*
X113704000Y-120627335D01*
X113704000Y-121548664D01*
X113721870Y-121730101D01*
X113792489Y-121962900D01*
X113907167Y-122177448D01*
X114061498Y-122365502D01*
X114104375Y-122400690D01*
X114031499Y-122460498D01*
X113877168Y-122648551D01*
X113762489Y-122863099D01*
X113691870Y-123095898D01*
X113674000Y-123277335D01*
X113604000Y-123277335D01*
X113604000Y-123211000D01*
X113555493Y-122972504D01*
X113461390Y-122748054D01*
X113325307Y-122546275D01*
X113205881Y-122427872D01*
X113355307Y-122279725D01*
X113491390Y-122077946D01*
X113585493Y-121853496D01*
X113634000Y-121615000D01*
X113634000Y-121215000D01*
X112526000Y-121215000D01*
X112526000Y-122249638D01*
X112496000Y-122269269D01*
X112272000Y-122269269D01*
X112272000Y-121215000D01*
X111164000Y-121215000D01*
X111164000Y-121615000D01*
X111212507Y-121853496D01*
X111306610Y-122077946D01*
X111442693Y-122279725D01*
X111562119Y-122398128D01*
X111412693Y-122546275D01*
X111276610Y-122748054D01*
X111182507Y-122972504D01*
X111134000Y-123211000D01*
X111057467Y-123211000D01*
X111046130Y-123095899D01*
X110975511Y-122863099D01*
X110860833Y-122648551D01*
X110706502Y-122460498D01*
X110663625Y-122425310D01*
X110736502Y-122365502D01*
X110890833Y-122177449D01*
X111005511Y-121962901D01*
X111076130Y-121730102D01*
X111094000Y-121548665D01*
X111094000Y-120627336D01*
X111087467Y-120561000D01*
X111164000Y-120561000D01*
X111164000Y-120961000D01*
X112272000Y-120961000D01*
X112272000Y-119619269D01*
X112526000Y-119619269D01*
X112526000Y-120961000D01*
X113634000Y-120961000D01*
X113634000Y-120561000D01*
X113585493Y-120322504D01*
X113491390Y-120098054D01*
X113355307Y-119896275D01*
X113182474Y-119724922D01*
X112979533Y-119590579D01*
X112754282Y-119498409D01*
X112716609Y-119494538D01*
X112526000Y-119619269D01*
X112272000Y-119619269D01*
X112081391Y-119494538D01*
X112043718Y-119498409D01*
X111818467Y-119590579D01*
X111615526Y-119724922D01*
X111442693Y-119896275D01*
X111306610Y-120098054D01*
X111212507Y-120322504D01*
X111164000Y-120561000D01*
X111087467Y-120561000D01*
X111076130Y-120445899D01*
X111005511Y-120213099D01*
X110890833Y-119998551D01*
X110736502Y-119810498D01*
X110548449Y-119656167D01*
X110333901Y-119541489D01*
X110101102Y-119470870D01*
X109859000Y-119447025D01*
X109616899Y-119470870D01*
X109384100Y-119541489D01*
X109169552Y-119656167D01*
X108981499Y-119810498D01*
X108827168Y-119998551D01*
X108712489Y-120213099D01*
X108641870Y-120445898D01*
X108624000Y-120627335D01*
X108624000Y-121548664D01*
X108641870Y-121730101D01*
X108712489Y-121962900D01*
X108827167Y-122177448D01*
X108981498Y-122365502D01*
X109024375Y-122400690D01*
X108951499Y-122460498D01*
X108797168Y-122648551D01*
X108682489Y-122863099D01*
X108611870Y-123095898D01*
X108610000Y-123114884D01*
X108610000Y-114079872D01*
X110795000Y-114079872D01*
X110795000Y-114520128D01*
X110880890Y-114951925D01*
X111049369Y-115358669D01*
X111293962Y-115724729D01*
X111605271Y-116036038D01*
X111971331Y-116280631D01*
X112378075Y-116449110D01*
X112809872Y-116535000D01*
X113250128Y-116535000D01*
X113681925Y-116449110D01*
X114088669Y-116280631D01*
X114454729Y-116036038D01*
X114766038Y-115724729D01*
X115010631Y-115358669D01*
X115179110Y-114951925D01*
X115265000Y-114520128D01*
X115265000Y-114079872D01*
X115179110Y-113648075D01*
X115010631Y-113241331D01*
X114766038Y-112875271D01*
X114454729Y-112563962D01*
X114088669Y-112319369D01*
X113681925Y-112150890D01*
X113250128Y-112065000D01*
X112809872Y-112065000D01*
X112378075Y-112150890D01*
X111971331Y-112319369D01*
X111605271Y-112563962D01*
X111293962Y-112875271D01*
X111049369Y-113241331D01*
X110880890Y-113648075D01*
X110795000Y-114079872D01*
X108610000Y-114079872D01*
X108610000Y-96299872D01*
X110795000Y-96299872D01*
X110795000Y-96740128D01*
X110880890Y-97171925D01*
X111049369Y-97578669D01*
X111293962Y-97944729D01*
X111605271Y-98256038D01*
X111971331Y-98500631D01*
X112378075Y-98669110D01*
X112809872Y-98755000D01*
X113250128Y-98755000D01*
X113681925Y-98669110D01*
X114088669Y-98500631D01*
X114454729Y-98256038D01*
X114766038Y-97944729D01*
X115010631Y-97578669D01*
X115179110Y-97171925D01*
X115265000Y-96740128D01*
X115265000Y-96299872D01*
X115179110Y-95868075D01*
X115157476Y-95815845D01*
X155504692Y-95815845D01*
X155528537Y-96057947D01*
X155599156Y-96290746D01*
X155713834Y-96505294D01*
X155868165Y-96693347D01*
X156056218Y-96847678D01*
X156270766Y-96962356D01*
X156503565Y-97032975D01*
X156685002Y-97050845D01*
X157606332Y-97050845D01*
X157787769Y-97032975D01*
X158020568Y-96962356D01*
X158235116Y-96847678D01*
X158423169Y-96693347D01*
X158577500Y-96505294D01*
X158692178Y-96290746D01*
X158762797Y-96057947D01*
X158786642Y-95815845D01*
X159074692Y-95815845D01*
X159098537Y-96057947D01*
X159169156Y-96290746D01*
X159283834Y-96505294D01*
X159438165Y-96693347D01*
X159626218Y-96847678D01*
X159840766Y-96962356D01*
X160073565Y-97032975D01*
X160255002Y-97050845D01*
X161176332Y-97050845D01*
X161357769Y-97032975D01*
X161590568Y-96962356D01*
X161805116Y-96847678D01*
X161993169Y-96693347D01*
X162147500Y-96505294D01*
X162262178Y-96290746D01*
X162332797Y-96057947D01*
X162356642Y-95815845D01*
X162332797Y-95573743D01*
X162262178Y-95340944D01*
X162147500Y-95126396D01*
X161993169Y-94938343D01*
X161805116Y-94784012D01*
X161590568Y-94669334D01*
X161357769Y-94598715D01*
X161176332Y-94580845D01*
X160255002Y-94580845D01*
X160073565Y-94598715D01*
X159840766Y-94669334D01*
X159626218Y-94784012D01*
X159438165Y-94938343D01*
X159283834Y-95126396D01*
X159169156Y-95340944D01*
X159098537Y-95573743D01*
X159074692Y-95815845D01*
X158786642Y-95815845D01*
X158762797Y-95573743D01*
X158692178Y-95340944D01*
X158577500Y-95126396D01*
X158423169Y-94938343D01*
X158235116Y-94784012D01*
X158020568Y-94669334D01*
X157787769Y-94598715D01*
X157606332Y-94580845D01*
X156685002Y-94580845D01*
X156503565Y-94598715D01*
X156270766Y-94669334D01*
X156056218Y-94784012D01*
X155868165Y-94938343D01*
X155713834Y-95126396D01*
X155599156Y-95340944D01*
X155528537Y-95573743D01*
X155504692Y-95815845D01*
X115157476Y-95815845D01*
X115010631Y-95461331D01*
X114766038Y-95095271D01*
X114454729Y-94783962D01*
X114088669Y-94539369D01*
X113681925Y-94370890D01*
X113250128Y-94285000D01*
X112809872Y-94285000D01*
X112378075Y-94370890D01*
X111971331Y-94539369D01*
X111605271Y-94783962D01*
X111293962Y-95095271D01*
X111049369Y-95461331D01*
X110880890Y-95868075D01*
X110795000Y-96299872D01*
X108610000Y-96299872D01*
X108610000Y-89997335D01*
X121514000Y-89997335D01*
X121514000Y-90918664D01*
X121531870Y-91100101D01*
X121602489Y-91332900D01*
X121717167Y-91547448D01*
X121871498Y-91735502D01*
X122059551Y-91889833D01*
X122274099Y-92004511D01*
X122506898Y-92075130D01*
X122749000Y-92098975D01*
X122991101Y-92075130D01*
X123223900Y-92004511D01*
X123438448Y-91889833D01*
X123626502Y-91735502D01*
X123780833Y-91547449D01*
X123895511Y-91332901D01*
X123966130Y-91100102D01*
X123984000Y-90918665D01*
X123984000Y-89997336D01*
X123984000Y-89997335D01*
X124054000Y-89997335D01*
X124054000Y-90918664D01*
X124071870Y-91100101D01*
X124142489Y-91332900D01*
X124257167Y-91547448D01*
X124411498Y-91735502D01*
X124599551Y-91889833D01*
X124814099Y-92004511D01*
X125046898Y-92075130D01*
X125289000Y-92098975D01*
X125531101Y-92075130D01*
X125763900Y-92004511D01*
X125978448Y-91889833D01*
X126166502Y-91735502D01*
X126320833Y-91547449D01*
X126435511Y-91332901D01*
X126506130Y-91100102D01*
X126524000Y-90918665D01*
X126524000Y-89997336D01*
X126524000Y-89997335D01*
X126594000Y-89997335D01*
X126594000Y-90918664D01*
X126611870Y-91100101D01*
X126682489Y-91332900D01*
X126797167Y-91547448D01*
X126951498Y-91735502D01*
X127139551Y-91889833D01*
X127354099Y-92004511D01*
X127586898Y-92075130D01*
X127829000Y-92098975D01*
X128071101Y-92075130D01*
X128303900Y-92004511D01*
X128518448Y-91889833D01*
X128706502Y-91735502D01*
X128860833Y-91547449D01*
X128975511Y-91332901D01*
X129046130Y-91100102D01*
X129064000Y-90918665D01*
X129064000Y-89997336D01*
X129064000Y-89997335D01*
X129134000Y-89997335D01*
X129134000Y-90918664D01*
X129151870Y-91100101D01*
X129222489Y-91332900D01*
X129337167Y-91547448D01*
X129491498Y-91735502D01*
X129679551Y-91889833D01*
X129894099Y-92004511D01*
X130126898Y-92075130D01*
X130369000Y-92098975D01*
X130611101Y-92075130D01*
X130843900Y-92004511D01*
X131058448Y-91889833D01*
X131246502Y-91735502D01*
X131400833Y-91547449D01*
X131515511Y-91332901D01*
X131586130Y-91100102D01*
X131604000Y-90918665D01*
X131604000Y-89997336D01*
X131604000Y-89997335D01*
X131674000Y-89997335D01*
X131674000Y-90918664D01*
X131691870Y-91100101D01*
X131762489Y-91332900D01*
X131877167Y-91547448D01*
X132031498Y-91735502D01*
X132219551Y-91889833D01*
X132434099Y-92004511D01*
X132666898Y-92075130D01*
X132909000Y-92098975D01*
X133151101Y-92075130D01*
X133383900Y-92004511D01*
X133598448Y-91889833D01*
X133786502Y-91735502D01*
X133940833Y-91547449D01*
X134055511Y-91332901D01*
X134126130Y-91100102D01*
X134144000Y-90918665D01*
X134144000Y-89997336D01*
X134144000Y-89997335D01*
X134214000Y-89997335D01*
X134214000Y-90918664D01*
X134231870Y-91100101D01*
X134302489Y-91332900D01*
X134417167Y-91547448D01*
X134571498Y-91735502D01*
X134759551Y-91889833D01*
X134974099Y-92004511D01*
X135206898Y-92075130D01*
X135449000Y-92098975D01*
X135691101Y-92075130D01*
X135923900Y-92004511D01*
X136138448Y-91889833D01*
X136326502Y-91735502D01*
X136480833Y-91547449D01*
X136595511Y-91332901D01*
X136666130Y-91100102D01*
X136684000Y-90918665D01*
X136684000Y-89997336D01*
X136684000Y-89997335D01*
X136754000Y-89997335D01*
X136754000Y-90918664D01*
X136771870Y-91100101D01*
X136842489Y-91332900D01*
X136957167Y-91547448D01*
X137111498Y-91735502D01*
X137299551Y-91889833D01*
X137514099Y-92004511D01*
X137746898Y-92075130D01*
X137989000Y-92098975D01*
X138231101Y-92075130D01*
X138463900Y-92004511D01*
X138678448Y-91889833D01*
X138866502Y-91735502D01*
X139020833Y-91547449D01*
X139135511Y-91332901D01*
X139206130Y-91100102D01*
X139224000Y-90918665D01*
X139224000Y-89997336D01*
X139224000Y-89997335D01*
X139294000Y-89997335D01*
X139294000Y-90918664D01*
X139311870Y-91100101D01*
X139382489Y-91332900D01*
X139497167Y-91547448D01*
X139651498Y-91735502D01*
X139839551Y-91889833D01*
X140054099Y-92004511D01*
X140286898Y-92075130D01*
X140529000Y-92098975D01*
X140771101Y-92075130D01*
X141003900Y-92004511D01*
X141218448Y-91889833D01*
X141406502Y-91735502D01*
X141560833Y-91547449D01*
X141675511Y-91332901D01*
X141746130Y-91100102D01*
X141764000Y-90918665D01*
X141764000Y-89997336D01*
X141746130Y-89815899D01*
X141675511Y-89583099D01*
X141560833Y-89368551D01*
X141406502Y-89180498D01*
X141363625Y-89145310D01*
X141436502Y-89085502D01*
X141590833Y-88897449D01*
X141705511Y-88682901D01*
X141776130Y-88450102D01*
X141794000Y-88268665D01*
X141794000Y-87347336D01*
X141776130Y-87165899D01*
X141705511Y-86933099D01*
X141590833Y-86718551D01*
X141436502Y-86530498D01*
X141248449Y-86376167D01*
X141033901Y-86261489D01*
X140801102Y-86190870D01*
X140559000Y-86167025D01*
X140316899Y-86190870D01*
X140084100Y-86261489D01*
X139869552Y-86376167D01*
X139681499Y-86530498D01*
X139527168Y-86718551D01*
X139412489Y-86933099D01*
X139341870Y-87165898D01*
X139324000Y-87347335D01*
X139324000Y-88268664D01*
X139341870Y-88450101D01*
X139412489Y-88682900D01*
X139527167Y-88897448D01*
X139681498Y-89085502D01*
X139724375Y-89120690D01*
X139651499Y-89180498D01*
X139497168Y-89368551D01*
X139382489Y-89583099D01*
X139311870Y-89815898D01*
X139294000Y-89997335D01*
X139224000Y-89997335D01*
X139206130Y-89815899D01*
X139135511Y-89583099D01*
X139020833Y-89368551D01*
X138866502Y-89180498D01*
X138823625Y-89145310D01*
X138896502Y-89085502D01*
X139050833Y-88897449D01*
X139165511Y-88682901D01*
X139236130Y-88450102D01*
X139254000Y-88268665D01*
X139254000Y-87347336D01*
X139236130Y-87165899D01*
X139165511Y-86933099D01*
X139050833Y-86718551D01*
X138896502Y-86530498D01*
X138708449Y-86376167D01*
X138493901Y-86261489D01*
X138261102Y-86190870D01*
X138019000Y-86167025D01*
X137776899Y-86190870D01*
X137544100Y-86261489D01*
X137329552Y-86376167D01*
X137141499Y-86530498D01*
X136987168Y-86718551D01*
X136872489Y-86933099D01*
X136801870Y-87165898D01*
X136784000Y-87347335D01*
X136784000Y-88268664D01*
X136801870Y-88450101D01*
X136872489Y-88682900D01*
X136987167Y-88897448D01*
X137141498Y-89085502D01*
X137184375Y-89120690D01*
X137111499Y-89180498D01*
X136957168Y-89368551D01*
X136842489Y-89583099D01*
X136771870Y-89815898D01*
X136754000Y-89997335D01*
X136684000Y-89997335D01*
X136666130Y-89815899D01*
X136595511Y-89583099D01*
X136480833Y-89368551D01*
X136326502Y-89180498D01*
X136283625Y-89145310D01*
X136356502Y-89085502D01*
X136510833Y-88897449D01*
X136625511Y-88682901D01*
X136696130Y-88450102D01*
X136714000Y-88268665D01*
X136714000Y-87347336D01*
X136696130Y-87165899D01*
X136625511Y-86933099D01*
X136510833Y-86718551D01*
X136356502Y-86530498D01*
X136168449Y-86376167D01*
X135953901Y-86261489D01*
X135721102Y-86190870D01*
X135479000Y-86167025D01*
X135236899Y-86190870D01*
X135004100Y-86261489D01*
X134789552Y-86376167D01*
X134601499Y-86530498D01*
X134447168Y-86718551D01*
X134332489Y-86933099D01*
X134261870Y-87165898D01*
X134244000Y-87347335D01*
X134244000Y-88268664D01*
X134261870Y-88450101D01*
X134332489Y-88682900D01*
X134447167Y-88897448D01*
X134601498Y-89085502D01*
X134644375Y-89120690D01*
X134571499Y-89180498D01*
X134417168Y-89368551D01*
X134302489Y-89583099D01*
X134231870Y-89815898D01*
X134214000Y-89997335D01*
X134144000Y-89997335D01*
X134126130Y-89815899D01*
X134055511Y-89583099D01*
X133940833Y-89368551D01*
X133786502Y-89180498D01*
X133743625Y-89145310D01*
X133816502Y-89085502D01*
X133970833Y-88897449D01*
X134085511Y-88682901D01*
X134156130Y-88450102D01*
X134174000Y-88268665D01*
X134174000Y-87347336D01*
X134156130Y-87165899D01*
X134085511Y-86933099D01*
X133970833Y-86718551D01*
X133816502Y-86530498D01*
X133628449Y-86376167D01*
X133413901Y-86261489D01*
X133181102Y-86190870D01*
X132939000Y-86167025D01*
X132696899Y-86190870D01*
X132464100Y-86261489D01*
X132249552Y-86376167D01*
X132061499Y-86530498D01*
X131907168Y-86718551D01*
X131792489Y-86933099D01*
X131721870Y-87165898D01*
X131704000Y-87347335D01*
X131704000Y-88268664D01*
X131721870Y-88450101D01*
X131792489Y-88682900D01*
X131907167Y-88897448D01*
X132061498Y-89085502D01*
X132104375Y-89120690D01*
X132031499Y-89180498D01*
X131877168Y-89368551D01*
X131762489Y-89583099D01*
X131691870Y-89815898D01*
X131674000Y-89997335D01*
X131604000Y-89997335D01*
X131586130Y-89815899D01*
X131515511Y-89583099D01*
X131400833Y-89368551D01*
X131246502Y-89180498D01*
X131203625Y-89145310D01*
X131276502Y-89085502D01*
X131430833Y-88897449D01*
X131545511Y-88682901D01*
X131616130Y-88450102D01*
X131634000Y-88268665D01*
X131634000Y-87347336D01*
X131616130Y-87165899D01*
X131545511Y-86933099D01*
X131430833Y-86718551D01*
X131276502Y-86530498D01*
X131088449Y-86376167D01*
X130873901Y-86261489D01*
X130641102Y-86190870D01*
X130399000Y-86167025D01*
X130156899Y-86190870D01*
X129924100Y-86261489D01*
X129709552Y-86376167D01*
X129521499Y-86530498D01*
X129367168Y-86718551D01*
X129252489Y-86933099D01*
X129181870Y-87165898D01*
X129164000Y-87347335D01*
X129164000Y-88268664D01*
X129181870Y-88450101D01*
X129252489Y-88682900D01*
X129367167Y-88897448D01*
X129521498Y-89085502D01*
X129564375Y-89120690D01*
X129491499Y-89180498D01*
X129337168Y-89368551D01*
X129222489Y-89583099D01*
X129151870Y-89815898D01*
X129134000Y-89997335D01*
X129064000Y-89997335D01*
X129046130Y-89815899D01*
X128975511Y-89583099D01*
X128860833Y-89368551D01*
X128706502Y-89180498D01*
X128663625Y-89145310D01*
X128736502Y-89085502D01*
X128890833Y-88897449D01*
X129005511Y-88682901D01*
X129076130Y-88450102D01*
X129094000Y-88268665D01*
X129094000Y-87347336D01*
X129076130Y-87165899D01*
X129005511Y-86933099D01*
X128890833Y-86718551D01*
X128736502Y-86530498D01*
X128548449Y-86376167D01*
X128333901Y-86261489D01*
X128101102Y-86190870D01*
X127859000Y-86167025D01*
X127616899Y-86190870D01*
X127384100Y-86261489D01*
X127169552Y-86376167D01*
X126981499Y-86530498D01*
X126827168Y-86718551D01*
X126712489Y-86933099D01*
X126641870Y-87165898D01*
X126624000Y-87347335D01*
X126624000Y-88268664D01*
X126641870Y-88450101D01*
X126712489Y-88682900D01*
X126827167Y-88897448D01*
X126981498Y-89085502D01*
X127024375Y-89120690D01*
X126951499Y-89180498D01*
X126797168Y-89368551D01*
X126682489Y-89583099D01*
X126611870Y-89815898D01*
X126594000Y-89997335D01*
X126524000Y-89997335D01*
X126506130Y-89815899D01*
X126435511Y-89583099D01*
X126320833Y-89368551D01*
X126166502Y-89180498D01*
X126123625Y-89145310D01*
X126196502Y-89085502D01*
X126350833Y-88897449D01*
X126465511Y-88682901D01*
X126536130Y-88450102D01*
X126554000Y-88268665D01*
X126554000Y-87347336D01*
X126536130Y-87165899D01*
X126465511Y-86933099D01*
X126350833Y-86718551D01*
X126196502Y-86530498D01*
X126008449Y-86376167D01*
X125793901Y-86261489D01*
X125561102Y-86190870D01*
X125319000Y-86167025D01*
X125076899Y-86190870D01*
X124844100Y-86261489D01*
X124629552Y-86376167D01*
X124441499Y-86530498D01*
X124287168Y-86718551D01*
X124172489Y-86933099D01*
X124101870Y-87165898D01*
X124084000Y-87347335D01*
X124084000Y-88268664D01*
X124101870Y-88450101D01*
X124172489Y-88682900D01*
X124287167Y-88897448D01*
X124441498Y-89085502D01*
X124484375Y-89120690D01*
X124411499Y-89180498D01*
X124257168Y-89368551D01*
X124142489Y-89583099D01*
X124071870Y-89815898D01*
X124054000Y-89997335D01*
X123984000Y-89997335D01*
X123966130Y-89815899D01*
X123895511Y-89583099D01*
X123780833Y-89368551D01*
X123626502Y-89180498D01*
X123583625Y-89145310D01*
X123656502Y-89085502D01*
X123810833Y-88897449D01*
X123925511Y-88682901D01*
X123996130Y-88450102D01*
X124014000Y-88268665D01*
X124014000Y-87347336D01*
X123996130Y-87165899D01*
X123925511Y-86933099D01*
X123810833Y-86718551D01*
X123656502Y-86530498D01*
X123468449Y-86376167D01*
X123253901Y-86261489D01*
X123021102Y-86190870D01*
X122779000Y-86167025D01*
X122536899Y-86190870D01*
X122304100Y-86261489D01*
X122089552Y-86376167D01*
X121901499Y-86530498D01*
X121747168Y-86718551D01*
X121632489Y-86933099D01*
X121561870Y-87165898D01*
X121544000Y-87347335D01*
X121544000Y-88268664D01*
X121561870Y-88450101D01*
X121632489Y-88682900D01*
X121747167Y-88897448D01*
X121901498Y-89085502D01*
X121944375Y-89120690D01*
X121871499Y-89180498D01*
X121717168Y-89368551D01*
X121602489Y-89583099D01*
X121531870Y-89815898D01*
X121514000Y-89997335D01*
X108610000Y-89997335D01*
X108610000Y-82403740D01*
X122975000Y-82403740D01*
X122975000Y-82696260D01*
X123032068Y-82983158D01*
X123144010Y-83253411D01*
X123306525Y-83496632D01*
X123513368Y-83703475D01*
X123756589Y-83865990D01*
X124026842Y-83977932D01*
X124313740Y-84035000D01*
X124606260Y-84035000D01*
X124893158Y-83977932D01*
X125163411Y-83865990D01*
X125406632Y-83703475D01*
X125613475Y-83496632D01*
X125730000Y-83322240D01*
X125846525Y-83496632D01*
X126053368Y-83703475D01*
X126296589Y-83865990D01*
X126566842Y-83977932D01*
X126853740Y-84035000D01*
X127146260Y-84035000D01*
X127433158Y-83977932D01*
X127703411Y-83865990D01*
X127946632Y-83703475D01*
X128153475Y-83496632D01*
X128270000Y-83322240D01*
X128386525Y-83496632D01*
X128593368Y-83703475D01*
X128836589Y-83865990D01*
X129106842Y-83977932D01*
X129393740Y-84035000D01*
X129686260Y-84035000D01*
X129973158Y-83977932D01*
X130243411Y-83865990D01*
X130486632Y-83703475D01*
X130693475Y-83496632D01*
X130810000Y-83322240D01*
X130926525Y-83496632D01*
X131133368Y-83703475D01*
X131376589Y-83865990D01*
X131646842Y-83977932D01*
X131933740Y-84035000D01*
X132226260Y-84035000D01*
X132513158Y-83977932D01*
X132783411Y-83865990D01*
X133026632Y-83703475D01*
X133233475Y-83496632D01*
X133350000Y-83322240D01*
X133466525Y-83496632D01*
X133673368Y-83703475D01*
X133916589Y-83865990D01*
X134186842Y-83977932D01*
X134473740Y-84035000D01*
X134766260Y-84035000D01*
X135053158Y-83977932D01*
X135323411Y-83865990D01*
X135566632Y-83703475D01*
X135773475Y-83496632D01*
X135890000Y-83322240D01*
X136006525Y-83496632D01*
X136213368Y-83703475D01*
X136456589Y-83865990D01*
X136726842Y-83977932D01*
X137013740Y-84035000D01*
X137306260Y-84035000D01*
X137593158Y-83977932D01*
X137863411Y-83865990D01*
X138106632Y-83703475D01*
X138313475Y-83496632D01*
X138430000Y-83322240D01*
X138546525Y-83496632D01*
X138753368Y-83703475D01*
X138996589Y-83865990D01*
X139266842Y-83977932D01*
X139553740Y-84035000D01*
X139846260Y-84035000D01*
X140133158Y-83977932D01*
X140403411Y-83865990D01*
X140646632Y-83703475D01*
X140853475Y-83496632D01*
X140970000Y-83322240D01*
X141086525Y-83496632D01*
X141293368Y-83703475D01*
X141536589Y-83865990D01*
X141806842Y-83977932D01*
X142093740Y-84035000D01*
X142386260Y-84035000D01*
X142673158Y-83977932D01*
X142700000Y-83966814D01*
X142700000Y-84796512D01*
X142696081Y-84836300D01*
X142700000Y-84876088D01*
X142700000Y-84876090D01*
X142711720Y-84995087D01*
X142758037Y-85147772D01*
X142786851Y-85201680D01*
X142833251Y-85288489D01*
X142839679Y-85296321D01*
X142934472Y-85411828D01*
X142965387Y-85437199D01*
X143589001Y-86060814D01*
X143589001Y-86269560D01*
X143573901Y-86261489D01*
X143341102Y-86190870D01*
X143099000Y-86167025D01*
X142856899Y-86190870D01*
X142624100Y-86261489D01*
X142409552Y-86376167D01*
X142221499Y-86530498D01*
X142067168Y-86718551D01*
X141952489Y-86933099D01*
X141881870Y-87165898D01*
X141864000Y-87347335D01*
X141864000Y-88268664D01*
X141881870Y-88450101D01*
X141952489Y-88682900D01*
X142067167Y-88897448D01*
X142221498Y-89085502D01*
X142264375Y-89120690D01*
X142191499Y-89180498D01*
X142037168Y-89368551D01*
X141922489Y-89583099D01*
X141851870Y-89815898D01*
X141834000Y-89997335D01*
X141834000Y-90918664D01*
X141851870Y-91100101D01*
X141922489Y-91332900D01*
X142037167Y-91547448D01*
X142191498Y-91735502D01*
X142379551Y-91889833D01*
X142594099Y-92004511D01*
X142826898Y-92075130D01*
X143069000Y-92098975D01*
X143311101Y-92075130D01*
X143543900Y-92004511D01*
X143758448Y-91889833D01*
X143946502Y-91735502D01*
X144100833Y-91547449D01*
X144215511Y-91332901D01*
X144286130Y-91100102D01*
X144304000Y-90918665D01*
X144304000Y-90368512D01*
X144374000Y-90298513D01*
X144374000Y-90918664D01*
X144391870Y-91100101D01*
X144462489Y-91332900D01*
X144577167Y-91547448D01*
X144731498Y-91735502D01*
X144919551Y-91889833D01*
X145134099Y-92004511D01*
X145366898Y-92075130D01*
X145609000Y-92098975D01*
X145781082Y-92082026D01*
X145783997Y-92111621D01*
X145786121Y-92133188D01*
X145825036Y-92261472D01*
X145832438Y-92285873D01*
X145907651Y-92426589D01*
X145963252Y-92494339D01*
X146008873Y-92549928D01*
X146039783Y-92575295D01*
X146846105Y-93381618D01*
X146871472Y-93412528D01*
X146902380Y-93437893D01*
X146994811Y-93513749D01*
X147135526Y-93588963D01*
X147171063Y-93599743D01*
X147288212Y-93635280D01*
X147407209Y-93647000D01*
X147407212Y-93647000D01*
X147447000Y-93650919D01*
X147486788Y-93647000D01*
X153249212Y-93647000D01*
X153289000Y-93650919D01*
X153328788Y-93647000D01*
X153328791Y-93647000D01*
X153447788Y-93635280D01*
X153600473Y-93588963D01*
X153741189Y-93513749D01*
X153864528Y-93412528D01*
X153889899Y-93381613D01*
X153995667Y-93275845D01*
X155504692Y-93275845D01*
X155528537Y-93517947D01*
X155599156Y-93750746D01*
X155713834Y-93965294D01*
X155868165Y-94153347D01*
X156056218Y-94307678D01*
X156270766Y-94422356D01*
X156503565Y-94492975D01*
X156685002Y-94510845D01*
X157606332Y-94510845D01*
X157787769Y-94492975D01*
X158020568Y-94422356D01*
X158235116Y-94307678D01*
X158423169Y-94153347D01*
X158577500Y-93965294D01*
X158692178Y-93750746D01*
X158762797Y-93517947D01*
X158786642Y-93275845D01*
X159074692Y-93275845D01*
X159098537Y-93517947D01*
X159169156Y-93750746D01*
X159283834Y-93965294D01*
X159438165Y-94153347D01*
X159626218Y-94307678D01*
X159840766Y-94422356D01*
X160073565Y-94492975D01*
X160255002Y-94510845D01*
X161176332Y-94510845D01*
X161357769Y-94492975D01*
X161590568Y-94422356D01*
X161805116Y-94307678D01*
X161993169Y-94153347D01*
X162147500Y-93965294D01*
X162262178Y-93750746D01*
X162332797Y-93517947D01*
X162356642Y-93275845D01*
X162332797Y-93033743D01*
X162262178Y-92800944D01*
X162147500Y-92586396D01*
X161993169Y-92398343D01*
X161805116Y-92244012D01*
X161590568Y-92129334D01*
X161357769Y-92058715D01*
X161197312Y-92042911D01*
X161323900Y-92004511D01*
X161538448Y-91889833D01*
X161726502Y-91735502D01*
X161880833Y-91547449D01*
X161995511Y-91332901D01*
X162066130Y-91100102D01*
X162084000Y-90918665D01*
X162084000Y-89997336D01*
X162066130Y-89815899D01*
X161995511Y-89583099D01*
X161880833Y-89368551D01*
X161726502Y-89180498D01*
X161683625Y-89145310D01*
X161756502Y-89085502D01*
X161910833Y-88897449D01*
X162025511Y-88682901D01*
X162096130Y-88450102D01*
X162114000Y-88268665D01*
X162114000Y-87347336D01*
X162096130Y-87165899D01*
X162025511Y-86933099D01*
X161910833Y-86718551D01*
X161756502Y-86530498D01*
X161568449Y-86376167D01*
X161353901Y-86261489D01*
X161121102Y-86190870D01*
X160879000Y-86167025D01*
X160636899Y-86190870D01*
X160404100Y-86261489D01*
X160189552Y-86376167D01*
X160001499Y-86530498D01*
X159847168Y-86718551D01*
X159732489Y-86933099D01*
X159661870Y-87165898D01*
X159644000Y-87347335D01*
X159644000Y-88268664D01*
X159661870Y-88450101D01*
X159732489Y-88682900D01*
X159847167Y-88897448D01*
X160001498Y-89085502D01*
X160044375Y-89120690D01*
X159971499Y-89180498D01*
X159817168Y-89368551D01*
X159702489Y-89583099D01*
X159631870Y-89815898D01*
X159614000Y-89997335D01*
X159614000Y-90918664D01*
X159631870Y-91100101D01*
X159702489Y-91332900D01*
X159817167Y-91547448D01*
X159971498Y-91735502D01*
X160159551Y-91889833D01*
X160374099Y-92004511D01*
X160493876Y-92040845D01*
X160255002Y-92040845D01*
X160073565Y-92058715D01*
X159840766Y-92129334D01*
X159626218Y-92244012D01*
X159438165Y-92398343D01*
X159283834Y-92586396D01*
X159169156Y-92800944D01*
X159098537Y-93033743D01*
X159074692Y-93275845D01*
X158786642Y-93275845D01*
X158762797Y-93033743D01*
X158692178Y-92800944D01*
X158577500Y-92586396D01*
X158423169Y-92398343D01*
X158235116Y-92244012D01*
X158020568Y-92129334D01*
X157787769Y-92058715D01*
X157606332Y-92040845D01*
X156685002Y-92040845D01*
X156503565Y-92058715D01*
X156270766Y-92129334D01*
X156056218Y-92244012D01*
X155868165Y-92398343D01*
X155713834Y-92586396D01*
X155599156Y-92800944D01*
X155528537Y-93033743D01*
X155504692Y-93275845D01*
X153995667Y-93275845D01*
X155103619Y-92167894D01*
X155134528Y-92142528D01*
X155217977Y-92040845D01*
X155235749Y-92019190D01*
X155254818Y-91983515D01*
X155294099Y-92004511D01*
X155526898Y-92075130D01*
X155769000Y-92098975D01*
X156011101Y-92075130D01*
X156243900Y-92004511D01*
X156458448Y-91889833D01*
X156646502Y-91735502D01*
X156800833Y-91547449D01*
X156915511Y-91332901D01*
X156986130Y-91100102D01*
X157004000Y-90918665D01*
X157004000Y-89997336D01*
X157004000Y-89997335D01*
X157074000Y-89997335D01*
X157074000Y-90918664D01*
X157091870Y-91100101D01*
X157162489Y-91332900D01*
X157277167Y-91547448D01*
X157431498Y-91735502D01*
X157619551Y-91889833D01*
X157834099Y-92004511D01*
X158066898Y-92075130D01*
X158309000Y-92098975D01*
X158551101Y-92075130D01*
X158783900Y-92004511D01*
X158998448Y-91889833D01*
X159186502Y-91735502D01*
X159340833Y-91547449D01*
X159455511Y-91332901D01*
X159526130Y-91100102D01*
X159544000Y-90918665D01*
X159544000Y-89997336D01*
X159526130Y-89815899D01*
X159455511Y-89583099D01*
X159340833Y-89368551D01*
X159186502Y-89180498D01*
X159143625Y-89145310D01*
X159216502Y-89085502D01*
X159370833Y-88897449D01*
X159485511Y-88682901D01*
X159556130Y-88450102D01*
X159574000Y-88268665D01*
X159574000Y-87347336D01*
X159556130Y-87165899D01*
X159485511Y-86933099D01*
X159370833Y-86718551D01*
X159216502Y-86530498D01*
X159028449Y-86376167D01*
X158813901Y-86261489D01*
X158581102Y-86190870D01*
X158339000Y-86167025D01*
X158096899Y-86190870D01*
X157864100Y-86261489D01*
X157649552Y-86376167D01*
X157461499Y-86530498D01*
X157307168Y-86718551D01*
X157192489Y-86933099D01*
X157121870Y-87165898D01*
X157104000Y-87347335D01*
X157104000Y-88268664D01*
X157121870Y-88450101D01*
X157192489Y-88682900D01*
X157307167Y-88897448D01*
X157461498Y-89085502D01*
X157504375Y-89120690D01*
X157431499Y-89180498D01*
X157277168Y-89368551D01*
X157162489Y-89583099D01*
X157091870Y-89815898D01*
X157074000Y-89997335D01*
X157004000Y-89997335D01*
X156986130Y-89815899D01*
X156915511Y-89583099D01*
X156800833Y-89368551D01*
X156646502Y-89180498D01*
X156603625Y-89145310D01*
X156676502Y-89085502D01*
X156830833Y-88897449D01*
X156945511Y-88682901D01*
X157016130Y-88450102D01*
X157034000Y-88268665D01*
X157034000Y-87347336D01*
X157016130Y-87165899D01*
X156945511Y-86933099D01*
X156830833Y-86718551D01*
X156676502Y-86530498D01*
X156488449Y-86376167D01*
X156273901Y-86261489D01*
X156041102Y-86190870D01*
X155799000Y-86167025D01*
X155556899Y-86190870D01*
X155369000Y-86247869D01*
X155369000Y-85974087D01*
X155372919Y-85934299D01*
X155368367Y-85888080D01*
X155357280Y-85775512D01*
X155310963Y-85622827D01*
X155239393Y-85488928D01*
X155235749Y-85482110D01*
X155179709Y-85413826D01*
X155134528Y-85358772D01*
X155103618Y-85333405D01*
X153410160Y-83639947D01*
X153553475Y-83496632D01*
X153670000Y-83322240D01*
X153786525Y-83496632D01*
X153993368Y-83703475D01*
X154236589Y-83865990D01*
X154506842Y-83977932D01*
X154793740Y-84035000D01*
X155086260Y-84035000D01*
X155373158Y-83977932D01*
X155643411Y-83865990D01*
X155886632Y-83703475D01*
X156093475Y-83496632D01*
X156210000Y-83322240D01*
X156326525Y-83496632D01*
X156533368Y-83703475D01*
X156776589Y-83865990D01*
X157046842Y-83977932D01*
X157333740Y-84035000D01*
X157626260Y-84035000D01*
X157913158Y-83977932D01*
X158183411Y-83865990D01*
X158426632Y-83703475D01*
X158558487Y-83571620D01*
X158580498Y-83644180D01*
X158639463Y-83754494D01*
X158718815Y-83851185D01*
X158815506Y-83930537D01*
X158925820Y-83989502D01*
X159045518Y-84025812D01*
X159170000Y-84038072D01*
X160870000Y-84038072D01*
X160994482Y-84025812D01*
X161114180Y-83989502D01*
X161224494Y-83930537D01*
X161321185Y-83851185D01*
X161400537Y-83754494D01*
X161459502Y-83644180D01*
X161495812Y-83524482D01*
X161508072Y-83400000D01*
X161508072Y-81700000D01*
X161495812Y-81575518D01*
X161459502Y-81455820D01*
X161400537Y-81345506D01*
X161321185Y-81248815D01*
X161224494Y-81169463D01*
X161114180Y-81110498D01*
X161041620Y-81088487D01*
X161173475Y-80956632D01*
X161335990Y-80713411D01*
X161447932Y-80443158D01*
X161505000Y-80156260D01*
X161505000Y-79863740D01*
X161447932Y-79576842D01*
X161335990Y-79306589D01*
X161173475Y-79063368D01*
X160966632Y-78856525D01*
X160723411Y-78694010D01*
X160453158Y-78582068D01*
X160166260Y-78525000D01*
X159873740Y-78525000D01*
X159586842Y-78582068D01*
X159316589Y-78694010D01*
X159073368Y-78856525D01*
X158866525Y-79063368D01*
X158750000Y-79237760D01*
X158633475Y-79063368D01*
X158426632Y-78856525D01*
X158183411Y-78694010D01*
X157913158Y-78582068D01*
X157626260Y-78525000D01*
X157333740Y-78525000D01*
X157046842Y-78582068D01*
X156776589Y-78694010D01*
X156533368Y-78856525D01*
X156326525Y-79063368D01*
X156210000Y-79237760D01*
X156093475Y-79063368D01*
X155886632Y-78856525D01*
X155743466Y-78760864D01*
X155738280Y-78708212D01*
X155691963Y-78555527D01*
X155616750Y-78414812D01*
X155616749Y-78414810D01*
X155588257Y-78380093D01*
X155515528Y-78291472D01*
X155484614Y-78266102D01*
X154524900Y-77306388D01*
X154499528Y-77275472D01*
X154376189Y-77174251D01*
X154235473Y-77099037D01*
X154082788Y-77052720D01*
X153963791Y-77041000D01*
X153963788Y-77041000D01*
X153924000Y-77037081D01*
X153884212Y-77041000D01*
X144184788Y-77041000D01*
X144145000Y-77037081D01*
X144105212Y-77041000D01*
X144105209Y-77041000D01*
X143986212Y-77052720D01*
X143869063Y-77088257D01*
X143833526Y-77099037D01*
X143692811Y-77174251D01*
X143569472Y-77275472D01*
X143544105Y-77306382D01*
X142965383Y-77885105D01*
X142934473Y-77910472D01*
X142909108Y-77941380D01*
X142833251Y-78033811D01*
X142789836Y-78115037D01*
X142758038Y-78174527D01*
X142719009Y-78303189D01*
X142711721Y-78327213D01*
X142696081Y-78486000D01*
X142700001Y-78525798D01*
X142700001Y-78593187D01*
X142673158Y-78582068D01*
X142386260Y-78525000D01*
X142093740Y-78525000D01*
X141806842Y-78582068D01*
X141536589Y-78694010D01*
X141293368Y-78856525D01*
X141086525Y-79063368D01*
X140970000Y-79237760D01*
X140853475Y-79063368D01*
X140646632Y-78856525D01*
X140403411Y-78694010D01*
X140133158Y-78582068D01*
X139846260Y-78525000D01*
X139553740Y-78525000D01*
X139266842Y-78582068D01*
X138996589Y-78694010D01*
X138753368Y-78856525D01*
X138546525Y-79063368D01*
X138430000Y-79237760D01*
X138313475Y-79063368D01*
X138106632Y-78856525D01*
X137863411Y-78694010D01*
X137593158Y-78582068D01*
X137306260Y-78525000D01*
X137013740Y-78525000D01*
X136726842Y-78582068D01*
X136456589Y-78694010D01*
X136213368Y-78856525D01*
X136006525Y-79063368D01*
X135890000Y-79237760D01*
X135773475Y-79063368D01*
X135566632Y-78856525D01*
X135323411Y-78694010D01*
X135053158Y-78582068D01*
X134766260Y-78525000D01*
X134473740Y-78525000D01*
X134186842Y-78582068D01*
X133916589Y-78694010D01*
X133673368Y-78856525D01*
X133466525Y-79063368D01*
X133350000Y-79237760D01*
X133233475Y-79063368D01*
X133026632Y-78856525D01*
X132783411Y-78694010D01*
X132513158Y-78582068D01*
X132226260Y-78525000D01*
X131933740Y-78525000D01*
X131646842Y-78582068D01*
X131376589Y-78694010D01*
X131133368Y-78856525D01*
X130926525Y-79063368D01*
X130810000Y-79237760D01*
X130693475Y-79063368D01*
X130486632Y-78856525D01*
X130243411Y-78694010D01*
X129973158Y-78582068D01*
X129686260Y-78525000D01*
X129393740Y-78525000D01*
X129106842Y-78582068D01*
X128836589Y-78694010D01*
X128593368Y-78856525D01*
X128386525Y-79063368D01*
X128270000Y-79237760D01*
X128153475Y-79063368D01*
X127946632Y-78856525D01*
X127703411Y-78694010D01*
X127433158Y-78582068D01*
X127146260Y-78525000D01*
X126853740Y-78525000D01*
X126566842Y-78582068D01*
X126296589Y-78694010D01*
X126053368Y-78856525D01*
X125846525Y-79063368D01*
X125724805Y-79245534D01*
X125655178Y-79128645D01*
X125460269Y-78912412D01*
X125226920Y-78738359D01*
X124964099Y-78613175D01*
X124816890Y-78568524D01*
X124587000Y-78689845D01*
X124587000Y-79883000D01*
X124607000Y-79883000D01*
X124607000Y-80137000D01*
X124587000Y-80137000D01*
X124587000Y-80157000D01*
X124333000Y-80157000D01*
X124333000Y-80137000D01*
X123139186Y-80137000D01*
X123018519Y-80366891D01*
X123115843Y-80641252D01*
X123264822Y-80891355D01*
X123459731Y-81107588D01*
X123689406Y-81278900D01*
X123513368Y-81396525D01*
X123306525Y-81603368D01*
X123144010Y-81846589D01*
X123032068Y-82116842D01*
X122975000Y-82403740D01*
X108610000Y-82403740D01*
X108610000Y-79653109D01*
X123018519Y-79653109D01*
X123139186Y-79883000D01*
X124333000Y-79883000D01*
X124333000Y-78689845D01*
X124103110Y-78568524D01*
X123955901Y-78613175D01*
X123693080Y-78738359D01*
X123459731Y-78912412D01*
X123264822Y-79128645D01*
X123115843Y-79378748D01*
X123018519Y-79653109D01*
X108610000Y-79653109D01*
X108610000Y-76860000D01*
X172060001Y-76860000D01*
X172060001Y-87335364D01*
G37*
%TD.AperFunction*%
D17*
X152611300Y-117286561D02*
X152611300Y-117490439D01*
X152651074Y-117690398D01*
X152729095Y-117878756D01*
X152842363Y-118048274D01*
X152986526Y-118192437D01*
X153156044Y-118305705D01*
X153344402Y-118383726D01*
X153544361Y-118423500D01*
X153748239Y-118423500D01*
X153948198Y-118383726D01*
X154136556Y-118305705D01*
X154297000Y-118198500D01*
X155947687Y-118198500D01*
X155034383Y-119111805D01*
X155003473Y-119137172D01*
X154967802Y-119180638D01*
X154902251Y-119260511D01*
X154850426Y-119357471D01*
X154827038Y-119401227D01*
X154780721Y-119553912D01*
X154779665Y-119564632D01*
X154765081Y-119712700D01*
X154769001Y-119752498D01*
X154769001Y-119755101D01*
X154701499Y-119810498D01*
X154547168Y-119998551D01*
X154432489Y-120213099D01*
X154361870Y-120445898D01*
X154344000Y-120627335D01*
X154344000Y-121548664D01*
X154361870Y-121730101D01*
X154432489Y-121962900D01*
X154547167Y-122177448D01*
X154701498Y-122365502D01*
X154744375Y-122400690D01*
X154671499Y-122460498D01*
X154517168Y-122648551D01*
X154402489Y-122863099D01*
X154331870Y-123095898D01*
X154314000Y-123277335D01*
X154314000Y-124198664D01*
X154331870Y-124380101D01*
X154402489Y-124612900D01*
X154517167Y-124827448D01*
X154671498Y-125015502D01*
X154859551Y-125169833D01*
X155074099Y-125284511D01*
X155306898Y-125355130D01*
X155549000Y-125378975D01*
X155791101Y-125355130D01*
X156023900Y-125284511D01*
X156238448Y-125169833D01*
X156426502Y-125015502D01*
X156580833Y-124827449D01*
X156695511Y-124612901D01*
X156766130Y-124380102D01*
X156784000Y-124198665D01*
X156784000Y-123277336D01*
X156766130Y-123095899D01*
X156695511Y-122863099D01*
X156580833Y-122648551D01*
X156426502Y-122460498D01*
X156383625Y-122425310D01*
X156456502Y-122365502D01*
X156610833Y-122177449D01*
X156725511Y-121962901D01*
X156796130Y-121730102D01*
X156814000Y-121548665D01*
X156814000Y-120627336D01*
X156796130Y-120445899D01*
X156725511Y-120213099D01*
X156610833Y-119998551D01*
X156533226Y-119903986D01*
X157517213Y-118920000D01*
X158064488Y-118920000D01*
X157574383Y-119410105D01*
X157543473Y-119435472D01*
X157514423Y-119470870D01*
X157442251Y-119558811D01*
X157381217Y-119673000D01*
X157367038Y-119699527D01*
X157363829Y-119710104D01*
X157241499Y-119810498D01*
X157087168Y-119998551D01*
X156972489Y-120213099D01*
X156901870Y-120445898D01*
X156884000Y-120627335D01*
X156884000Y-121548664D01*
X156901870Y-121730101D01*
X156972489Y-121962900D01*
X157087167Y-122177448D01*
X157241498Y-122365502D01*
X157284375Y-122400690D01*
X157211499Y-122460498D01*
X157057168Y-122648551D01*
X156942489Y-122863099D01*
X156871870Y-123095898D01*
X156854000Y-123277335D01*
X156854000Y-124198664D01*
X156871870Y-124380101D01*
X156942489Y-124612900D01*
X157057167Y-124827448D01*
X157211498Y-125015502D01*
X157399551Y-125169833D01*
X157614099Y-125284511D01*
X157846898Y-125355130D01*
X158089000Y-125378975D01*
X158331101Y-125355130D01*
X158563900Y-125284511D01*
X158778448Y-125169833D01*
X158966502Y-125015502D01*
X159120833Y-124827449D01*
X159235511Y-124612901D01*
X159306130Y-124380102D01*
X159324000Y-124198665D01*
X159324000Y-123277336D01*
X159306130Y-123095899D01*
X159235511Y-122863099D01*
X159120833Y-122648551D01*
X158966502Y-122460498D01*
X158923625Y-122425310D01*
X158996502Y-122365502D01*
X159150833Y-122177449D01*
X159265511Y-121962901D01*
X159336130Y-121730102D01*
X159354000Y-121548665D01*
X159354000Y-120627336D01*
X159336130Y-120445899D01*
X159265511Y-120213099D01*
X159194767Y-120080746D01*
X159593513Y-119682000D01*
X159938074Y-119682000D01*
X159781499Y-119810498D01*
X159627168Y-119998551D01*
X159512489Y-120213099D01*
X159441870Y-120445898D01*
X159424000Y-120627335D01*
X159424000Y-121548664D01*
X159441870Y-121730101D01*
X159512489Y-121962900D01*
X159627167Y-122177448D01*
X159781498Y-122365502D01*
X159824375Y-122400690D01*
X159751499Y-122460498D01*
X159597168Y-122648551D01*
X159482489Y-122863099D01*
X159411870Y-123095898D01*
X159394000Y-123277335D01*
X159394000Y-124198664D01*
X159411870Y-124380101D01*
X159482489Y-124612900D01*
X159597167Y-124827448D01*
X159751498Y-125015502D01*
X159939551Y-125169833D01*
X160154099Y-125284511D01*
X160386898Y-125355130D01*
X160629000Y-125378975D01*
X160871101Y-125355130D01*
X161103900Y-125284511D01*
X161318448Y-125169833D01*
X161506502Y-125015502D01*
X161660833Y-124827449D01*
X161775511Y-124612901D01*
X161846130Y-124380102D01*
X161864000Y-124198665D01*
X161864000Y-123277336D01*
X161846130Y-123095899D01*
X161775511Y-122863099D01*
X161660833Y-122648551D01*
X161506502Y-122460498D01*
X161463625Y-122425310D01*
X161536502Y-122365502D01*
X161690833Y-122177449D01*
X161805511Y-121962901D01*
X161876130Y-121730102D01*
X161894000Y-121548665D01*
X161894000Y-120627336D01*
X161876130Y-120445899D01*
X161805511Y-120213099D01*
X161690833Y-119998551D01*
X161536502Y-119810498D01*
X161379927Y-119682000D01*
X164428188Y-119682000D01*
X166448805Y-121702618D01*
X166474172Y-121733528D01*
X166541910Y-121789119D01*
X166597510Y-121834749D01*
X166632584Y-121853496D01*
X166738227Y-121909963D01*
X166890912Y-121956280D01*
X167009909Y-121968000D01*
X167009911Y-121968000D01*
X167031662Y-121970142D01*
X167121525Y-122104632D01*
X167253380Y-122236487D01*
X167180820Y-122258498D01*
X167070506Y-122317463D01*
X166973815Y-122396815D01*
X166894463Y-122493506D01*
X166835498Y-122603820D01*
X166799188Y-122723518D01*
X166786928Y-122848000D01*
X166786928Y-124548000D01*
X166799188Y-124672482D01*
X166835498Y-124792180D01*
X166894463Y-124902494D01*
X166973815Y-124999185D01*
X167070506Y-125078537D01*
X167180820Y-125137502D01*
X167300518Y-125173812D01*
X167425000Y-125186072D01*
X167973001Y-125186072D01*
X167973000Y-133776487D01*
X167069498Y-134679990D01*
X166760418Y-134679990D01*
X166882920Y-134621641D01*
X167116269Y-134447588D01*
X167311178Y-134231355D01*
X167460157Y-133981252D01*
X167557481Y-133706891D01*
X167436814Y-133477000D01*
X166243000Y-133477000D01*
X166243000Y-133497000D01*
X165989000Y-133497000D01*
X165989000Y-133477000D01*
X165969000Y-133477000D01*
X165969000Y-133223000D01*
X165989000Y-133223000D01*
X165989000Y-133203000D01*
X166243000Y-133203000D01*
X166243000Y-133223000D01*
X167436814Y-133223000D01*
X167557481Y-132993109D01*
X167460157Y-132718748D01*
X167311178Y-132468645D01*
X167116269Y-132252412D01*
X166886594Y-132081100D01*
X167062632Y-131963475D01*
X167269475Y-131756632D01*
X167431990Y-131513411D01*
X167543932Y-131243158D01*
X167601000Y-130956260D01*
X167601000Y-130663740D01*
X167543932Y-130376842D01*
X167431990Y-130106589D01*
X167269475Y-129863368D01*
X167062632Y-129656525D01*
X166819411Y-129494010D01*
X166549158Y-129382068D01*
X166262260Y-129325000D01*
X165969740Y-129325000D01*
X165682842Y-129382068D01*
X165412589Y-129494010D01*
X165169368Y-129656525D01*
X164962525Y-129863368D01*
X164846000Y-130037760D01*
X164729475Y-129863368D01*
X164522632Y-129656525D01*
X164279411Y-129494010D01*
X164009158Y-129382068D01*
X163722260Y-129325000D01*
X163429740Y-129325000D01*
X163142842Y-129382068D01*
X162872589Y-129494010D01*
X162629368Y-129656525D01*
X162422525Y-129863368D01*
X162306000Y-130037760D01*
X162189475Y-129863368D01*
X161982632Y-129656525D01*
X161739411Y-129494010D01*
X161469158Y-129382068D01*
X161182260Y-129325000D01*
X160889740Y-129325000D01*
X160602842Y-129382068D01*
X160332589Y-129494010D01*
X160089368Y-129656525D01*
X159882525Y-129863368D01*
X159766000Y-130037760D01*
X159649475Y-129863368D01*
X159442632Y-129656525D01*
X159199411Y-129494010D01*
X158929158Y-129382068D01*
X158642260Y-129325000D01*
X158349740Y-129325000D01*
X158062842Y-129382068D01*
X157792589Y-129494010D01*
X157549368Y-129656525D01*
X157342525Y-129863368D01*
X157226000Y-130037760D01*
X157109475Y-129863368D01*
X156902632Y-129656525D01*
X156659411Y-129494010D01*
X156389158Y-129382068D01*
X156102260Y-129325000D01*
X155809740Y-129325000D01*
X155522842Y-129382068D01*
X155252589Y-129494010D01*
X155009368Y-129656525D01*
X154802525Y-129863368D01*
X154686000Y-130037760D01*
X154569475Y-129863368D01*
X154362632Y-129656525D01*
X154119411Y-129494010D01*
X153849158Y-129382068D01*
X153562260Y-129325000D01*
X153269740Y-129325000D01*
X152982842Y-129382068D01*
X152712589Y-129494010D01*
X152469368Y-129656525D01*
X152262525Y-129863368D01*
X152146000Y-130037760D01*
X152029475Y-129863368D01*
X151822632Y-129656525D01*
X151579411Y-129494010D01*
X151309158Y-129382068D01*
X151022260Y-129325000D01*
X150729740Y-129325000D01*
X150442842Y-129382068D01*
X150172589Y-129494010D01*
X149929368Y-129656525D01*
X149722525Y-129863368D01*
X149606000Y-130037760D01*
X149489475Y-129863368D01*
X149282632Y-129656525D01*
X149039411Y-129494010D01*
X148769158Y-129382068D01*
X148482260Y-129325000D01*
X148189740Y-129325000D01*
X147902842Y-129382068D01*
X147632589Y-129494010D01*
X147389368Y-129656525D01*
X147182525Y-129863368D01*
X147066000Y-130037760D01*
X146949475Y-129863368D01*
X146742632Y-129656525D01*
X146499411Y-129494010D01*
X146265931Y-129397300D01*
X147373612Y-129397300D01*
X147413400Y-129401219D01*
X147453188Y-129397300D01*
X147453191Y-129397300D01*
X147572188Y-129385580D01*
X147724873Y-129339263D01*
X147865589Y-129264049D01*
X147988928Y-129162828D01*
X148014300Y-129131912D01*
X152131143Y-125015070D01*
X152131498Y-125015502D01*
X152319551Y-125169833D01*
X152534099Y-125284511D01*
X152766898Y-125355130D01*
X153009000Y-125378975D01*
X153251101Y-125355130D01*
X153483900Y-125284511D01*
X153698448Y-125169833D01*
X153886502Y-125015502D01*
X154040833Y-124827449D01*
X154155511Y-124612901D01*
X154226130Y-124380102D01*
X154244000Y-124198665D01*
X154244000Y-123277336D01*
X154226130Y-123095899D01*
X154155511Y-122863099D01*
X154040833Y-122648551D01*
X153886502Y-122460498D01*
X153843625Y-122425310D01*
X153916502Y-122365502D01*
X154070833Y-122177449D01*
X154185511Y-121962901D01*
X154256130Y-121730102D01*
X154274000Y-121548665D01*
X154274000Y-120627336D01*
X154256130Y-120445899D01*
X154185511Y-120213099D01*
X154070833Y-119998551D01*
X153916502Y-119810498D01*
X153728449Y-119656167D01*
X153513901Y-119541489D01*
X153281102Y-119470870D01*
X153039000Y-119447025D01*
X152796899Y-119470870D01*
X152564100Y-119541489D01*
X152349552Y-119656167D01*
X152161499Y-119810498D01*
X152007168Y-119998551D01*
X151892489Y-120213099D01*
X151821870Y-120445898D01*
X151804000Y-120627335D01*
X151804000Y-121177488D01*
X151734000Y-121247488D01*
X151734000Y-120627336D01*
X151716130Y-120445899D01*
X151645511Y-120213099D01*
X151530833Y-119998551D01*
X151376502Y-119810498D01*
X151188449Y-119656167D01*
X150973901Y-119541489D01*
X150741102Y-119470870D01*
X150499000Y-119447025D01*
X150282127Y-119468385D01*
X152647887Y-117102626D01*
X152611300Y-117286561D01*
%TA.AperFunction,Conductor*%
D18*
G36*
X152611300Y-117286561D02*
G01*
X152611300Y-117490439D01*
X152651074Y-117690398D01*
X152729095Y-117878756D01*
X152842363Y-118048274D01*
X152986526Y-118192437D01*
X153156044Y-118305705D01*
X153344402Y-118383726D01*
X153544361Y-118423500D01*
X153748239Y-118423500D01*
X153948198Y-118383726D01*
X154136556Y-118305705D01*
X154297000Y-118198500D01*
X155947687Y-118198500D01*
X155034383Y-119111805D01*
X155003473Y-119137172D01*
X154967802Y-119180638D01*
X154902251Y-119260511D01*
X154850426Y-119357471D01*
X154827038Y-119401227D01*
X154780721Y-119553912D01*
X154779665Y-119564632D01*
X154765081Y-119712700D01*
X154769001Y-119752498D01*
X154769001Y-119755101D01*
X154701499Y-119810498D01*
X154547168Y-119998551D01*
X154432489Y-120213099D01*
X154361870Y-120445898D01*
X154344000Y-120627335D01*
X154344000Y-121548664D01*
X154361870Y-121730101D01*
X154432489Y-121962900D01*
X154547167Y-122177448D01*
X154701498Y-122365502D01*
X154744375Y-122400690D01*
X154671499Y-122460498D01*
X154517168Y-122648551D01*
X154402489Y-122863099D01*
X154331870Y-123095898D01*
X154314000Y-123277335D01*
X154314000Y-124198664D01*
X154331870Y-124380101D01*
X154402489Y-124612900D01*
X154517167Y-124827448D01*
X154671498Y-125015502D01*
X154859551Y-125169833D01*
X155074099Y-125284511D01*
X155306898Y-125355130D01*
X155549000Y-125378975D01*
X155791101Y-125355130D01*
X156023900Y-125284511D01*
X156238448Y-125169833D01*
X156426502Y-125015502D01*
X156580833Y-124827449D01*
X156695511Y-124612901D01*
X156766130Y-124380102D01*
X156784000Y-124198665D01*
X156784000Y-123277336D01*
X156766130Y-123095899D01*
X156695511Y-122863099D01*
X156580833Y-122648551D01*
X156426502Y-122460498D01*
X156383625Y-122425310D01*
X156456502Y-122365502D01*
X156610833Y-122177449D01*
X156725511Y-121962901D01*
X156796130Y-121730102D01*
X156814000Y-121548665D01*
X156814000Y-120627336D01*
X156796130Y-120445899D01*
X156725511Y-120213099D01*
X156610833Y-119998551D01*
X156533226Y-119903986D01*
X157517213Y-118920000D01*
X158064488Y-118920000D01*
X157574383Y-119410105D01*
X157543473Y-119435472D01*
X157514423Y-119470870D01*
X157442251Y-119558811D01*
X157381217Y-119673000D01*
X157367038Y-119699527D01*
X157363829Y-119710104D01*
X157241499Y-119810498D01*
X157087168Y-119998551D01*
X156972489Y-120213099D01*
X156901870Y-120445898D01*
X156884000Y-120627335D01*
X156884000Y-121548664D01*
X156901870Y-121730101D01*
X156972489Y-121962900D01*
X157087167Y-122177448D01*
X157241498Y-122365502D01*
X157284375Y-122400690D01*
X157211499Y-122460498D01*
X157057168Y-122648551D01*
X156942489Y-122863099D01*
X156871870Y-123095898D01*
X156854000Y-123277335D01*
X156854000Y-124198664D01*
X156871870Y-124380101D01*
X156942489Y-124612900D01*
X157057167Y-124827448D01*
X157211498Y-125015502D01*
X157399551Y-125169833D01*
X157614099Y-125284511D01*
X157846898Y-125355130D01*
X158089000Y-125378975D01*
X158331101Y-125355130D01*
X158563900Y-125284511D01*
X158778448Y-125169833D01*
X158966502Y-125015502D01*
X159120833Y-124827449D01*
X159235511Y-124612901D01*
X159306130Y-124380102D01*
X159324000Y-124198665D01*
X159324000Y-123277336D01*
X159306130Y-123095899D01*
X159235511Y-122863099D01*
X159120833Y-122648551D01*
X158966502Y-122460498D01*
X158923625Y-122425310D01*
X158996502Y-122365502D01*
X159150833Y-122177449D01*
X159265511Y-121962901D01*
X159336130Y-121730102D01*
X159354000Y-121548665D01*
X159354000Y-120627336D01*
X159336130Y-120445899D01*
X159265511Y-120213099D01*
X159194767Y-120080746D01*
X159593513Y-119682000D01*
X159938074Y-119682000D01*
X159781499Y-119810498D01*
X159627168Y-119998551D01*
X159512489Y-120213099D01*
X159441870Y-120445898D01*
X159424000Y-120627335D01*
X159424000Y-121548664D01*
X159441870Y-121730101D01*
X159512489Y-121962900D01*
X159627167Y-122177448D01*
X159781498Y-122365502D01*
X159824375Y-122400690D01*
X159751499Y-122460498D01*
X159597168Y-122648551D01*
X159482489Y-122863099D01*
X159411870Y-123095898D01*
X159394000Y-123277335D01*
X159394000Y-124198664D01*
X159411870Y-124380101D01*
X159482489Y-124612900D01*
X159597167Y-124827448D01*
X159751498Y-125015502D01*
X159939551Y-125169833D01*
X160154099Y-125284511D01*
X160386898Y-125355130D01*
X160629000Y-125378975D01*
X160871101Y-125355130D01*
X161103900Y-125284511D01*
X161318448Y-125169833D01*
X161506502Y-125015502D01*
X161660833Y-124827449D01*
X161775511Y-124612901D01*
X161846130Y-124380102D01*
X161864000Y-124198665D01*
X161864000Y-123277336D01*
X161846130Y-123095899D01*
X161775511Y-122863099D01*
X161660833Y-122648551D01*
X161506502Y-122460498D01*
X161463625Y-122425310D01*
X161536502Y-122365502D01*
X161690833Y-122177449D01*
X161805511Y-121962901D01*
X161876130Y-121730102D01*
X161894000Y-121548665D01*
X161894000Y-120627336D01*
X161876130Y-120445899D01*
X161805511Y-120213099D01*
X161690833Y-119998551D01*
X161536502Y-119810498D01*
X161379927Y-119682000D01*
X164428188Y-119682000D01*
X166448805Y-121702618D01*
X166474172Y-121733528D01*
X166541910Y-121789119D01*
X166597510Y-121834749D01*
X166632584Y-121853496D01*
X166738227Y-121909963D01*
X166890912Y-121956280D01*
X167009909Y-121968000D01*
X167009911Y-121968000D01*
X167031662Y-121970142D01*
X167121525Y-122104632D01*
X167253380Y-122236487D01*
X167180820Y-122258498D01*
X167070506Y-122317463D01*
X166973815Y-122396815D01*
X166894463Y-122493506D01*
X166835498Y-122603820D01*
X166799188Y-122723518D01*
X166786928Y-122848000D01*
X166786928Y-124548000D01*
X166799188Y-124672482D01*
X166835498Y-124792180D01*
X166894463Y-124902494D01*
X166973815Y-124999185D01*
X167070506Y-125078537D01*
X167180820Y-125137502D01*
X167300518Y-125173812D01*
X167425000Y-125186072D01*
X167973001Y-125186072D01*
X167973000Y-133776487D01*
X167069498Y-134679990D01*
X166760418Y-134679990D01*
X166882920Y-134621641D01*
X167116269Y-134447588D01*
X167311178Y-134231355D01*
X167460157Y-133981252D01*
X167557481Y-133706891D01*
X167436814Y-133477000D01*
X166243000Y-133477000D01*
X166243000Y-133497000D01*
X165989000Y-133497000D01*
X165989000Y-133477000D01*
X165969000Y-133477000D01*
X165969000Y-133223000D01*
X165989000Y-133223000D01*
X165989000Y-133203000D01*
X166243000Y-133203000D01*
X166243000Y-133223000D01*
X167436814Y-133223000D01*
X167557481Y-132993109D01*
X167460157Y-132718748D01*
X167311178Y-132468645D01*
X167116269Y-132252412D01*
X166886594Y-132081100D01*
X167062632Y-131963475D01*
X167269475Y-131756632D01*
X167431990Y-131513411D01*
X167543932Y-131243158D01*
X167601000Y-130956260D01*
X167601000Y-130663740D01*
X167543932Y-130376842D01*
X167431990Y-130106589D01*
X167269475Y-129863368D01*
X167062632Y-129656525D01*
X166819411Y-129494010D01*
X166549158Y-129382068D01*
X166262260Y-129325000D01*
X165969740Y-129325000D01*
X165682842Y-129382068D01*
X165412589Y-129494010D01*
X165169368Y-129656525D01*
X164962525Y-129863368D01*
X164846000Y-130037760D01*
X164729475Y-129863368D01*
X164522632Y-129656525D01*
X164279411Y-129494010D01*
X164009158Y-129382068D01*
X163722260Y-129325000D01*
X163429740Y-129325000D01*
X163142842Y-129382068D01*
X162872589Y-129494010D01*
X162629368Y-129656525D01*
X162422525Y-129863368D01*
X162306000Y-130037760D01*
X162189475Y-129863368D01*
X161982632Y-129656525D01*
X161739411Y-129494010D01*
X161469158Y-129382068D01*
X161182260Y-129325000D01*
X160889740Y-129325000D01*
X160602842Y-129382068D01*
X160332589Y-129494010D01*
X160089368Y-129656525D01*
X159882525Y-129863368D01*
X159766000Y-130037760D01*
X159649475Y-129863368D01*
X159442632Y-129656525D01*
X159199411Y-129494010D01*
X158929158Y-129382068D01*
X158642260Y-129325000D01*
X158349740Y-129325000D01*
X158062842Y-129382068D01*
X157792589Y-129494010D01*
X157549368Y-129656525D01*
X157342525Y-129863368D01*
X157226000Y-130037760D01*
X157109475Y-129863368D01*
X156902632Y-129656525D01*
X156659411Y-129494010D01*
X156389158Y-129382068D01*
X156102260Y-129325000D01*
X155809740Y-129325000D01*
X155522842Y-129382068D01*
X155252589Y-129494010D01*
X155009368Y-129656525D01*
X154802525Y-129863368D01*
X154686000Y-130037760D01*
X154569475Y-129863368D01*
X154362632Y-129656525D01*
X154119411Y-129494010D01*
X153849158Y-129382068D01*
X153562260Y-129325000D01*
X153269740Y-129325000D01*
X152982842Y-129382068D01*
X152712589Y-129494010D01*
X152469368Y-129656525D01*
X152262525Y-129863368D01*
X152146000Y-130037760D01*
X152029475Y-129863368D01*
X151822632Y-129656525D01*
X151579411Y-129494010D01*
X151309158Y-129382068D01*
X151022260Y-129325000D01*
X150729740Y-129325000D01*
X150442842Y-129382068D01*
X150172589Y-129494010D01*
X149929368Y-129656525D01*
X149722525Y-129863368D01*
X149606000Y-130037760D01*
X149489475Y-129863368D01*
X149282632Y-129656525D01*
X149039411Y-129494010D01*
X148769158Y-129382068D01*
X148482260Y-129325000D01*
X148189740Y-129325000D01*
X147902842Y-129382068D01*
X147632589Y-129494010D01*
X147389368Y-129656525D01*
X147182525Y-129863368D01*
X147066000Y-130037760D01*
X146949475Y-129863368D01*
X146742632Y-129656525D01*
X146499411Y-129494010D01*
X146265931Y-129397300D01*
X147373612Y-129397300D01*
X147413400Y-129401219D01*
X147453188Y-129397300D01*
X147453191Y-129397300D01*
X147572188Y-129385580D01*
X147724873Y-129339263D01*
X147865589Y-129264049D01*
X147988928Y-129162828D01*
X148014300Y-129131912D01*
X152131143Y-125015070D01*
X152131498Y-125015502D01*
X152319551Y-125169833D01*
X152534099Y-125284511D01*
X152766898Y-125355130D01*
X153009000Y-125378975D01*
X153251101Y-125355130D01*
X153483900Y-125284511D01*
X153698448Y-125169833D01*
X153886502Y-125015502D01*
X154040833Y-124827449D01*
X154155511Y-124612901D01*
X154226130Y-124380102D01*
X154244000Y-124198665D01*
X154244000Y-123277336D01*
X154226130Y-123095899D01*
X154155511Y-122863099D01*
X154040833Y-122648551D01*
X153886502Y-122460498D01*
X153843625Y-122425310D01*
X153916502Y-122365502D01*
X154070833Y-122177449D01*
X154185511Y-121962901D01*
X154256130Y-121730102D01*
X154274000Y-121548665D01*
X154274000Y-120627336D01*
X154256130Y-120445899D01*
X154185511Y-120213099D01*
X154070833Y-119998551D01*
X153916502Y-119810498D01*
X153728449Y-119656167D01*
X153513901Y-119541489D01*
X153281102Y-119470870D01*
X153039000Y-119447025D01*
X152796899Y-119470870D01*
X152564100Y-119541489D01*
X152349552Y-119656167D01*
X152161499Y-119810498D01*
X152007168Y-119998551D01*
X151892489Y-120213099D01*
X151821870Y-120445898D01*
X151804000Y-120627335D01*
X151804000Y-121177488D01*
X151734000Y-121247488D01*
X151734000Y-120627336D01*
X151716130Y-120445899D01*
X151645511Y-120213099D01*
X151530833Y-119998551D01*
X151376502Y-119810498D01*
X151188449Y-119656167D01*
X150973901Y-119541489D01*
X150741102Y-119470870D01*
X150499000Y-119447025D01*
X150282127Y-119468385D01*
X152647887Y-117102626D01*
X152611300Y-117286561D01*
G37*
%TD.AperFunction*%
%TD*%
M02*
