%TF.GenerationSoftware,KiCad,Pcbnew,(5.1.9)-1*%
%TF.CreationDate,2021-09-28T21:39:50+01:00*%
%TF.ProjectId,Mega2560-pro-mini-radio,4d656761-3235-4363-902d-70726f2d6d69,rev?*%
%TF.SameCoordinates,Original*%
%TF.FileFunction,Legend,Top*%
%TF.FilePolarity,Positive*%
%FSLAX46Y46*%
G04 Gerber Fmt 4.6, Leading zero omitted, Abs format (unit mm)*
G04 Created by KiCad (PCBNEW (5.1.9)-1) date 2021-09-28 21:39:50*
%MOMM*%
%LPD*%
G01*
G04 APERTURE LIST*
%ADD10C,0.150000*%
%ADD11C,0.120000*%
G04 APERTURE END LIST*
D10*
X109081428Y-127072380D02*
X109081428Y-126072380D01*
X109481428Y-126786666D01*
X109881428Y-126072380D01*
X109881428Y-127072380D01*
X110910000Y-127024761D02*
X110795714Y-127072380D01*
X110567142Y-127072380D01*
X110452857Y-127024761D01*
X110395714Y-126929523D01*
X110395714Y-126548571D01*
X110452857Y-126453333D01*
X110567142Y-126405714D01*
X110795714Y-126405714D01*
X110910000Y-126453333D01*
X110967142Y-126548571D01*
X110967142Y-126643809D01*
X110395714Y-126739047D01*
X111995714Y-126405714D02*
X111995714Y-127215238D01*
X111938571Y-127310476D01*
X111881428Y-127358095D01*
X111767142Y-127405714D01*
X111595714Y-127405714D01*
X111481428Y-127358095D01*
X111995714Y-127024761D02*
X111881428Y-127072380D01*
X111652857Y-127072380D01*
X111538571Y-127024761D01*
X111481428Y-126977142D01*
X111424285Y-126881904D01*
X111424285Y-126596190D01*
X111481428Y-126500952D01*
X111538571Y-126453333D01*
X111652857Y-126405714D01*
X111881428Y-126405714D01*
X111995714Y-126453333D01*
X113081428Y-127072380D02*
X113081428Y-126548571D01*
X113024285Y-126453333D01*
X112910000Y-126405714D01*
X112681428Y-126405714D01*
X112567142Y-126453333D01*
X113081428Y-127024761D02*
X112967142Y-127072380D01*
X112681428Y-127072380D01*
X112567142Y-127024761D01*
X112510000Y-126929523D01*
X112510000Y-126834285D01*
X112567142Y-126739047D01*
X112681428Y-126691428D01*
X112967142Y-126691428D01*
X113081428Y-126643809D01*
X114510000Y-126167619D02*
X114567142Y-126120000D01*
X114681428Y-126072380D01*
X114967142Y-126072380D01*
X115081428Y-126120000D01*
X115138571Y-126167619D01*
X115195714Y-126262857D01*
X115195714Y-126358095D01*
X115138571Y-126500952D01*
X114452857Y-127072380D01*
X115195714Y-127072380D01*
X116281428Y-126072380D02*
X115710000Y-126072380D01*
X115652857Y-126548571D01*
X115710000Y-126500952D01*
X115824285Y-126453333D01*
X116110000Y-126453333D01*
X116224285Y-126500952D01*
X116281428Y-126548571D01*
X116338571Y-126643809D01*
X116338571Y-126881904D01*
X116281428Y-126977142D01*
X116224285Y-127024761D01*
X116110000Y-127072380D01*
X115824285Y-127072380D01*
X115710000Y-127024761D01*
X115652857Y-126977142D01*
X117367142Y-126072380D02*
X117138571Y-126072380D01*
X117024285Y-126120000D01*
X116967142Y-126167619D01*
X116852857Y-126310476D01*
X116795714Y-126500952D01*
X116795714Y-126881904D01*
X116852857Y-126977142D01*
X116910000Y-127024761D01*
X117024285Y-127072380D01*
X117252857Y-127072380D01*
X117367142Y-127024761D01*
X117424285Y-126977142D01*
X117481428Y-126881904D01*
X117481428Y-126643809D01*
X117424285Y-126548571D01*
X117367142Y-126500952D01*
X117252857Y-126453333D01*
X117024285Y-126453333D01*
X116910000Y-126500952D01*
X116852857Y-126548571D01*
X116795714Y-126643809D01*
X118224285Y-126072380D02*
X118338571Y-126072380D01*
X118452857Y-126120000D01*
X118510000Y-126167619D01*
X118567142Y-126262857D01*
X118624285Y-126453333D01*
X118624285Y-126691428D01*
X118567142Y-126881904D01*
X118510000Y-126977142D01*
X118452857Y-127024761D01*
X118338571Y-127072380D01*
X118224285Y-127072380D01*
X118110000Y-127024761D01*
X118052857Y-126977142D01*
X117995714Y-126881904D01*
X117938571Y-126691428D01*
X117938571Y-126453333D01*
X117995714Y-126262857D01*
X118052857Y-126167619D01*
X118110000Y-126120000D01*
X118224285Y-126072380D01*
X120052857Y-126405714D02*
X120052857Y-127405714D01*
X120052857Y-126453333D02*
X120167142Y-126405714D01*
X120395714Y-126405714D01*
X120510000Y-126453333D01*
X120567142Y-126500952D01*
X120624285Y-126596190D01*
X120624285Y-126881904D01*
X120567142Y-126977142D01*
X120510000Y-127024761D01*
X120395714Y-127072380D01*
X120167142Y-127072380D01*
X120052857Y-127024761D01*
X121138571Y-127072380D02*
X121138571Y-126405714D01*
X121138571Y-126596190D02*
X121195714Y-126500952D01*
X121252857Y-126453333D01*
X121367142Y-126405714D01*
X121481428Y-126405714D01*
X122052857Y-127072380D02*
X121938571Y-127024761D01*
X121881428Y-126977142D01*
X121824285Y-126881904D01*
X121824285Y-126596190D01*
X121881428Y-126500952D01*
X121938571Y-126453333D01*
X122052857Y-126405714D01*
X122224285Y-126405714D01*
X122338571Y-126453333D01*
X122395714Y-126500952D01*
X122452857Y-126596190D01*
X122452857Y-126881904D01*
X122395714Y-126977142D01*
X122338571Y-127024761D01*
X122224285Y-127072380D01*
X122052857Y-127072380D01*
X123881428Y-127072380D02*
X123881428Y-126405714D01*
X123881428Y-126500952D02*
X123938571Y-126453333D01*
X124052857Y-126405714D01*
X124224285Y-126405714D01*
X124338571Y-126453333D01*
X124395714Y-126548571D01*
X124395714Y-127072380D01*
X124395714Y-126548571D02*
X124452857Y-126453333D01*
X124567142Y-126405714D01*
X124738571Y-126405714D01*
X124852857Y-126453333D01*
X124910000Y-126548571D01*
X124910000Y-127072380D01*
X125481428Y-127072380D02*
X125481428Y-126405714D01*
X125481428Y-126072380D02*
X125424285Y-126120000D01*
X125481428Y-126167619D01*
X125538571Y-126120000D01*
X125481428Y-126072380D01*
X125481428Y-126167619D01*
X126052857Y-126405714D02*
X126052857Y-127072380D01*
X126052857Y-126500952D02*
X126110000Y-126453333D01*
X126224285Y-126405714D01*
X126395714Y-126405714D01*
X126510000Y-126453333D01*
X126567142Y-126548571D01*
X126567142Y-127072380D01*
X127138571Y-127072380D02*
X127138571Y-126405714D01*
X127138571Y-126072380D02*
X127081428Y-126120000D01*
X127138571Y-126167619D01*
X127195714Y-126120000D01*
X127138571Y-126072380D01*
X127138571Y-126167619D01*
X112252857Y-128722380D02*
X112252857Y-127722380D01*
X112652857Y-128436666D01*
X113052857Y-127722380D01*
X113052857Y-128722380D01*
X113795714Y-128722380D02*
X113681428Y-128674761D01*
X113624285Y-128627142D01*
X113567142Y-128531904D01*
X113567142Y-128246190D01*
X113624285Y-128150952D01*
X113681428Y-128103333D01*
X113795714Y-128055714D01*
X113967142Y-128055714D01*
X114081428Y-128103333D01*
X114138571Y-128150952D01*
X114195714Y-128246190D01*
X114195714Y-128531904D01*
X114138571Y-128627142D01*
X114081428Y-128674761D01*
X113967142Y-128722380D01*
X113795714Y-128722380D01*
X114024285Y-127674761D02*
X113852857Y-127817619D01*
X115224285Y-128722380D02*
X115224285Y-127722380D01*
X115224285Y-128674761D02*
X115110000Y-128722380D01*
X114881428Y-128722380D01*
X114767142Y-128674761D01*
X114710000Y-128627142D01*
X114652857Y-128531904D01*
X114652857Y-128246190D01*
X114710000Y-128150952D01*
X114767142Y-128103333D01*
X114881428Y-128055714D01*
X115110000Y-128055714D01*
X115224285Y-128103333D01*
X116310000Y-128055714D02*
X116310000Y-128722380D01*
X115795714Y-128055714D02*
X115795714Y-128579523D01*
X115852857Y-128674761D01*
X115967142Y-128722380D01*
X116138571Y-128722380D01*
X116252857Y-128674761D01*
X116310000Y-128627142D01*
X117052857Y-128722380D02*
X116938571Y-128674761D01*
X116881428Y-128579523D01*
X116881428Y-127722380D01*
X117681428Y-128722380D02*
X117567142Y-128674761D01*
X117510000Y-128627142D01*
X117452857Y-128531904D01*
X117452857Y-128246190D01*
X117510000Y-128150952D01*
X117567142Y-128103333D01*
X117681428Y-128055714D01*
X117852857Y-128055714D01*
X117967142Y-128103333D01*
X118024285Y-128150952D01*
X118081428Y-128246190D01*
X118081428Y-128531904D01*
X118024285Y-128627142D01*
X117967142Y-128674761D01*
X117852857Y-128722380D01*
X117681428Y-128722380D01*
X120195714Y-128722380D02*
X119795714Y-128246190D01*
X119510000Y-128722380D02*
X119510000Y-127722380D01*
X119967142Y-127722380D01*
X120081428Y-127770000D01*
X120138571Y-127817619D01*
X120195714Y-127912857D01*
X120195714Y-128055714D01*
X120138571Y-128150952D01*
X120081428Y-128198571D01*
X119967142Y-128246190D01*
X119510000Y-128246190D01*
X121224285Y-128722380D02*
X121224285Y-128198571D01*
X121167142Y-128103333D01*
X121052857Y-128055714D01*
X120824285Y-128055714D01*
X120710000Y-128103333D01*
X121224285Y-128674761D02*
X121110000Y-128722380D01*
X120824285Y-128722380D01*
X120710000Y-128674761D01*
X120652857Y-128579523D01*
X120652857Y-128484285D01*
X120710000Y-128389047D01*
X120824285Y-128341428D01*
X121110000Y-128341428D01*
X121224285Y-128293809D01*
X122310000Y-128722380D02*
X122310000Y-127722380D01*
X122310000Y-128674761D02*
X122195714Y-128722380D01*
X121967142Y-128722380D01*
X121852857Y-128674761D01*
X121795714Y-128627142D01*
X121738571Y-128531904D01*
X121738571Y-128246190D01*
X121795714Y-128150952D01*
X121852857Y-128103333D01*
X121967142Y-128055714D01*
X122195714Y-128055714D01*
X122310000Y-128103333D01*
X122881428Y-128722380D02*
X122881428Y-128055714D01*
X122881428Y-127722380D02*
X122824285Y-127770000D01*
X122881428Y-127817619D01*
X122938571Y-127770000D01*
X122881428Y-127722380D01*
X122881428Y-127817619D01*
X123624285Y-128722380D02*
X123510000Y-128674761D01*
X123452857Y-128627142D01*
X123395714Y-128531904D01*
X123395714Y-128246190D01*
X123452857Y-128150952D01*
X123510000Y-128103333D01*
X123624285Y-128055714D01*
X123795714Y-128055714D01*
X123910000Y-128103333D01*
X123967142Y-128150952D01*
X124024285Y-128246190D01*
X124024285Y-128531904D01*
X123967142Y-128627142D01*
X123910000Y-128674761D01*
X123795714Y-128722380D01*
X123624285Y-128722380D01*
X110195714Y-129420000D02*
X110081428Y-129372380D01*
X109910000Y-129372380D01*
X109738571Y-129420000D01*
X109624285Y-129515238D01*
X109567142Y-129610476D01*
X109510000Y-129800952D01*
X109510000Y-129943809D01*
X109567142Y-130134285D01*
X109624285Y-130229523D01*
X109738571Y-130324761D01*
X109910000Y-130372380D01*
X110024285Y-130372380D01*
X110195714Y-130324761D01*
X110252857Y-130277142D01*
X110252857Y-129943809D01*
X110024285Y-129943809D01*
X110767142Y-130372380D02*
X110767142Y-129705714D01*
X110767142Y-129372380D02*
X110710000Y-129420000D01*
X110767142Y-129467619D01*
X110824285Y-129420000D01*
X110767142Y-129372380D01*
X110767142Y-129467619D01*
X111167142Y-129705714D02*
X111624285Y-129705714D01*
X111338571Y-129372380D02*
X111338571Y-130229523D01*
X111395714Y-130324761D01*
X111510000Y-130372380D01*
X111624285Y-130372380D01*
X112024285Y-130372380D02*
X112024285Y-129372380D01*
X112538571Y-130372380D02*
X112538571Y-129848571D01*
X112481428Y-129753333D01*
X112367142Y-129705714D01*
X112195714Y-129705714D01*
X112081428Y-129753333D01*
X112024285Y-129800952D01*
X113624285Y-129705714D02*
X113624285Y-130372380D01*
X113110000Y-129705714D02*
X113110000Y-130229523D01*
X113167142Y-130324761D01*
X113281428Y-130372380D01*
X113452857Y-130372380D01*
X113567142Y-130324761D01*
X113624285Y-130277142D01*
X114195714Y-130372380D02*
X114195714Y-129372380D01*
X114195714Y-129753333D02*
X114310000Y-129705714D01*
X114538571Y-129705714D01*
X114652857Y-129753333D01*
X114710000Y-129800952D01*
X114767142Y-129896190D01*
X114767142Y-130181904D01*
X114710000Y-130277142D01*
X114652857Y-130324761D01*
X114538571Y-130372380D01*
X114310000Y-130372380D01*
X114195714Y-130324761D01*
X115281428Y-130277142D02*
X115338571Y-130324761D01*
X115281428Y-130372380D01*
X115224285Y-130324761D01*
X115281428Y-130277142D01*
X115281428Y-130372380D01*
X115281428Y-129753333D02*
X115338571Y-129800952D01*
X115281428Y-129848571D01*
X115224285Y-129800952D01*
X115281428Y-129753333D01*
X115281428Y-129848571D01*
X116710000Y-130086666D02*
X117281428Y-130086666D01*
X116595714Y-130372380D02*
X116995714Y-129372380D01*
X117395714Y-130372380D01*
X118310000Y-129705714D02*
X118310000Y-130372380D01*
X117795714Y-129705714D02*
X117795714Y-130229523D01*
X117852857Y-130324761D01*
X117967142Y-130372380D01*
X118138571Y-130372380D01*
X118252857Y-130324761D01*
X118310000Y-130277142D01*
X119395714Y-129705714D02*
X119395714Y-130515238D01*
X119338571Y-130610476D01*
X119281428Y-130658095D01*
X119167142Y-130705714D01*
X118995714Y-130705714D01*
X118881428Y-130658095D01*
X119395714Y-130324761D02*
X119281428Y-130372380D01*
X119052857Y-130372380D01*
X118938571Y-130324761D01*
X118881428Y-130277142D01*
X118824285Y-130181904D01*
X118824285Y-129896190D01*
X118881428Y-129800952D01*
X118938571Y-129753333D01*
X119052857Y-129705714D01*
X119281428Y-129705714D01*
X119395714Y-129753333D01*
X120481428Y-129705714D02*
X120481428Y-130372380D01*
X119967142Y-129705714D02*
X119967142Y-130229523D01*
X120024285Y-130324761D01*
X120138571Y-130372380D01*
X120310000Y-130372380D01*
X120424285Y-130324761D01*
X120481428Y-130277142D01*
X120995714Y-130324761D02*
X121110000Y-130372380D01*
X121338571Y-130372380D01*
X121452857Y-130324761D01*
X121510000Y-130229523D01*
X121510000Y-130181904D01*
X121452857Y-130086666D01*
X121338571Y-130039047D01*
X121167142Y-130039047D01*
X121052857Y-129991428D01*
X120995714Y-129896190D01*
X120995714Y-129848571D01*
X121052857Y-129753333D01*
X121167142Y-129705714D01*
X121338571Y-129705714D01*
X121452857Y-129753333D01*
X121852857Y-129705714D02*
X122310000Y-129705714D01*
X122024285Y-129372380D02*
X122024285Y-130229523D01*
X122081428Y-130324761D01*
X122195714Y-130372380D01*
X122310000Y-130372380D01*
X122881428Y-130372380D02*
X122767142Y-130324761D01*
X122710000Y-130277142D01*
X122652857Y-130181904D01*
X122652857Y-129896190D01*
X122710000Y-129800952D01*
X122767142Y-129753333D01*
X122881428Y-129705714D01*
X123052857Y-129705714D01*
X123167142Y-129753333D01*
X123224285Y-129800952D01*
X123281428Y-129896190D01*
X123281428Y-130181904D01*
X123224285Y-130277142D01*
X123167142Y-130324761D01*
X123052857Y-130372380D01*
X122881428Y-130372380D01*
X123738571Y-130324761D02*
X123910000Y-130372380D01*
X124195714Y-130372380D01*
X124310000Y-130324761D01*
X124367142Y-130277142D01*
X124424285Y-130181904D01*
X124424285Y-130086666D01*
X124367142Y-129991428D01*
X124310000Y-129943809D01*
X124195714Y-129896190D01*
X123967142Y-129848571D01*
X123852857Y-129800952D01*
X123795714Y-129753333D01*
X123738571Y-129658095D01*
X123738571Y-129562857D01*
X123795714Y-129467619D01*
X123852857Y-129420000D01*
X123967142Y-129372380D01*
X124252857Y-129372380D01*
X124424285Y-129420000D01*
X124995714Y-130372380D02*
X125224285Y-130372380D01*
X125338571Y-130324761D01*
X125395714Y-130277142D01*
X125510000Y-130134285D01*
X125567142Y-129943809D01*
X125567142Y-129562857D01*
X125510000Y-129467619D01*
X125452857Y-129420000D01*
X125338571Y-129372380D01*
X125110000Y-129372380D01*
X124995714Y-129420000D01*
X124938571Y-129467619D01*
X124881428Y-129562857D01*
X124881428Y-129800952D01*
X124938571Y-129896190D01*
X124995714Y-129943809D01*
X125110000Y-129991428D01*
X125338571Y-129991428D01*
X125452857Y-129943809D01*
X125510000Y-129896190D01*
X125567142Y-129800952D01*
X125967142Y-129372380D02*
X126767142Y-129372380D01*
X126252857Y-130372380D01*
D11*
%TO.C,J1*%
X172275000Y-124058000D02*
X171865000Y-124058000D01*
X169765000Y-124058000D02*
X169385000Y-124058000D01*
X172275000Y-123338000D02*
X171865000Y-123338000D01*
X169765000Y-123338000D02*
X169385000Y-123338000D01*
X172275000Y-121518000D02*
X171865000Y-121518000D01*
X169765000Y-121518000D02*
X169325000Y-121518000D01*
X172275000Y-120798000D02*
X171865000Y-120798000D01*
X169765000Y-120798000D02*
X169325000Y-120798000D01*
X172275000Y-118978000D02*
X171865000Y-118978000D01*
X169765000Y-118978000D02*
X169325000Y-118978000D01*
X172275000Y-118258000D02*
X171865000Y-118258000D01*
X169765000Y-118258000D02*
X169325000Y-118258000D01*
X172275000Y-116438000D02*
X171865000Y-116438000D01*
X169765000Y-116438000D02*
X169325000Y-116438000D01*
X172275000Y-115718000D02*
X171865000Y-115718000D01*
X169765000Y-115718000D02*
X169325000Y-115718000D01*
X172275000Y-113898000D02*
X171865000Y-113898000D01*
X169765000Y-113898000D02*
X169325000Y-113898000D01*
X172275000Y-113178000D02*
X171865000Y-113178000D01*
X169765000Y-113178000D02*
X169325000Y-113178000D01*
X172275000Y-111358000D02*
X171865000Y-111358000D01*
X169765000Y-111358000D02*
X169325000Y-111358000D01*
X172275000Y-110638000D02*
X171865000Y-110638000D01*
X169765000Y-110638000D02*
X169325000Y-110638000D01*
X172275000Y-108818000D02*
X171865000Y-108818000D01*
X169765000Y-108818000D02*
X169325000Y-108818000D01*
X172275000Y-108098000D02*
X171865000Y-108098000D01*
X169765000Y-108098000D02*
X169325000Y-108098000D01*
X172275000Y-106278000D02*
X171865000Y-106278000D01*
X169765000Y-106278000D02*
X169325000Y-106278000D01*
X172275000Y-105558000D02*
X171865000Y-105558000D01*
X169765000Y-105558000D02*
X169325000Y-105558000D01*
X172275000Y-103738000D02*
X171865000Y-103738000D01*
X169765000Y-103738000D02*
X169325000Y-103738000D01*
X172275000Y-103018000D02*
X171865000Y-103018000D01*
X169765000Y-103018000D02*
X169325000Y-103018000D01*
X172275000Y-101198000D02*
X171865000Y-101198000D01*
X169765000Y-101198000D02*
X169325000Y-101198000D01*
X172275000Y-100478000D02*
X171865000Y-100478000D01*
X169765000Y-100478000D02*
X169325000Y-100478000D01*
X172275000Y-98658000D02*
X171865000Y-98658000D01*
X169765000Y-98658000D02*
X169325000Y-98658000D01*
X172275000Y-97938000D02*
X171865000Y-97938000D01*
X169765000Y-97938000D02*
X169325000Y-97938000D01*
X172275000Y-96118000D02*
X171865000Y-96118000D01*
X169765000Y-96118000D02*
X169325000Y-96118000D01*
X172275000Y-95398000D02*
X171865000Y-95398000D01*
X169765000Y-95398000D02*
X169325000Y-95398000D01*
X172275000Y-93578000D02*
X171865000Y-93578000D01*
X169765000Y-93578000D02*
X169325000Y-93578000D01*
X172275000Y-92858000D02*
X171865000Y-92858000D01*
X169765000Y-92858000D02*
X169325000Y-92858000D01*
X172275000Y-91038000D02*
X171865000Y-91038000D01*
X169765000Y-91038000D02*
X169325000Y-91038000D01*
X172275000Y-90318000D02*
X171865000Y-90318000D01*
X169765000Y-90318000D02*
X169325000Y-90318000D01*
X172275000Y-88498000D02*
X171865000Y-88498000D01*
X169765000Y-88498000D02*
X169325000Y-88498000D01*
X172275000Y-87778000D02*
X171865000Y-87778000D01*
X169765000Y-87778000D02*
X169325000Y-87778000D01*
X167165000Y-125028000D02*
X167165000Y-123698000D01*
X168275000Y-125028000D02*
X167165000Y-125028000D01*
%TO.C,J4*%
X161350000Y-82550000D02*
X161350000Y-83660000D01*
X161350000Y-83660000D02*
X160020000Y-83660000D01*
X124100000Y-81060000D02*
X124100000Y-81500000D01*
X124820000Y-81060000D02*
X124820000Y-81500000D01*
X126640000Y-81060000D02*
X126640000Y-81500000D01*
X127360000Y-81060000D02*
X127360000Y-81500000D01*
X129180000Y-81060000D02*
X129180000Y-81500000D01*
X129900000Y-81060000D02*
X129900000Y-81500000D01*
X131720000Y-81060000D02*
X131720000Y-81500000D01*
X132440000Y-81060000D02*
X132440000Y-81500000D01*
X134260000Y-81060000D02*
X134260000Y-81500000D01*
X134980000Y-81060000D02*
X134980000Y-81500000D01*
X136800000Y-81060000D02*
X136800000Y-81500000D01*
X137520000Y-81060000D02*
X137520000Y-81500000D01*
X139340000Y-81060000D02*
X139340000Y-81500000D01*
X140060000Y-81060000D02*
X140060000Y-81500000D01*
X141880000Y-81060000D02*
X141880000Y-81500000D01*
X142600000Y-81060000D02*
X142600000Y-81500000D01*
X144420000Y-81060000D02*
X144420000Y-81500000D01*
X145140000Y-81060000D02*
X145140000Y-81500000D01*
X146960000Y-81060000D02*
X146960000Y-81500000D01*
X147680000Y-81060000D02*
X147680000Y-81500000D01*
X149500000Y-81060000D02*
X149500000Y-81500000D01*
X150220000Y-81060000D02*
X150220000Y-81500000D01*
X152040000Y-81060000D02*
X152040000Y-81500000D01*
X152760000Y-81060000D02*
X152760000Y-81500000D01*
X154580000Y-81060000D02*
X154580000Y-81500000D01*
X155300000Y-81060000D02*
X155300000Y-81500000D01*
X157120000Y-81060000D02*
X157120000Y-81500000D01*
X157840000Y-81060000D02*
X157840000Y-81500000D01*
X159660000Y-81060000D02*
X159660000Y-81440000D01*
X160380000Y-81060000D02*
X160380000Y-81440000D01*
%TO.C,J2*%
X130196000Y-134810000D02*
X130196000Y-134400000D01*
X130196000Y-132300000D02*
X130196000Y-131920000D01*
X130916000Y-134810000D02*
X130916000Y-134400000D01*
X130916000Y-132300000D02*
X130916000Y-131920000D01*
X132736000Y-134810000D02*
X132736000Y-134400000D01*
X132736000Y-132300000D02*
X132736000Y-131860000D01*
X133456000Y-134810000D02*
X133456000Y-134400000D01*
X133456000Y-132300000D02*
X133456000Y-131860000D01*
X135276000Y-134810000D02*
X135276000Y-134400000D01*
X135276000Y-132300000D02*
X135276000Y-131860000D01*
X135996000Y-134810000D02*
X135996000Y-134400000D01*
X135996000Y-132300000D02*
X135996000Y-131860000D01*
X137816000Y-134810000D02*
X137816000Y-134400000D01*
X137816000Y-132300000D02*
X137816000Y-131860000D01*
X138536000Y-134810000D02*
X138536000Y-134400000D01*
X138536000Y-132300000D02*
X138536000Y-131860000D01*
X140356000Y-134810000D02*
X140356000Y-134400000D01*
X140356000Y-132300000D02*
X140356000Y-131860000D01*
X141076000Y-134810000D02*
X141076000Y-134400000D01*
X141076000Y-132300000D02*
X141076000Y-131860000D01*
X142896000Y-134810000D02*
X142896000Y-134400000D01*
X142896000Y-132300000D02*
X142896000Y-131860000D01*
X143616000Y-134810000D02*
X143616000Y-134400000D01*
X143616000Y-132300000D02*
X143616000Y-131860000D01*
X145436000Y-134810000D02*
X145436000Y-134400000D01*
X145436000Y-132300000D02*
X145436000Y-131860000D01*
X146156000Y-134810000D02*
X146156000Y-134400000D01*
X146156000Y-132300000D02*
X146156000Y-131860000D01*
X147976000Y-134810000D02*
X147976000Y-134400000D01*
X147976000Y-132300000D02*
X147976000Y-131860000D01*
X148696000Y-134810000D02*
X148696000Y-134400000D01*
X148696000Y-132300000D02*
X148696000Y-131860000D01*
X150516000Y-134810000D02*
X150516000Y-134400000D01*
X150516000Y-132300000D02*
X150516000Y-131860000D01*
X151236000Y-134810000D02*
X151236000Y-134400000D01*
X151236000Y-132300000D02*
X151236000Y-131860000D01*
X153056000Y-134810000D02*
X153056000Y-134400000D01*
X153056000Y-132300000D02*
X153056000Y-131860000D01*
X153776000Y-134810000D02*
X153776000Y-134400000D01*
X153776000Y-132300000D02*
X153776000Y-131860000D01*
X155596000Y-134810000D02*
X155596000Y-134400000D01*
X155596000Y-132300000D02*
X155596000Y-131860000D01*
X156316000Y-134810000D02*
X156316000Y-134400000D01*
X156316000Y-132300000D02*
X156316000Y-131860000D01*
X158136000Y-134810000D02*
X158136000Y-134400000D01*
X158136000Y-132300000D02*
X158136000Y-131860000D01*
X158856000Y-134810000D02*
X158856000Y-134400000D01*
X158856000Y-132300000D02*
X158856000Y-131860000D01*
X160676000Y-134810000D02*
X160676000Y-134400000D01*
X160676000Y-132300000D02*
X160676000Y-131860000D01*
X161396000Y-134810000D02*
X161396000Y-134400000D01*
X161396000Y-132300000D02*
X161396000Y-131860000D01*
X163216000Y-134810000D02*
X163216000Y-134400000D01*
X163216000Y-132300000D02*
X163216000Y-131860000D01*
X163936000Y-134810000D02*
X163936000Y-134400000D01*
X163936000Y-132300000D02*
X163936000Y-131860000D01*
X165756000Y-134810000D02*
X165756000Y-134400000D01*
X165756000Y-132300000D02*
X165756000Y-131860000D01*
X166476000Y-134810000D02*
X166476000Y-134400000D01*
X166476000Y-132300000D02*
X166476000Y-131860000D01*
X129226000Y-129700000D02*
X130556000Y-129700000D01*
D10*
%TO.C,MCU1*%
X158695667Y-125705845D02*
X161695667Y-125705845D01*
X155125667Y-125705845D02*
X158125667Y-125705845D01*
X161729000Y-125238000D02*
X108729000Y-125238000D01*
X108729000Y-125238000D02*
X108729000Y-122238000D01*
X161729000Y-122238000D02*
X161729000Y-125238000D01*
X108759000Y-119588000D02*
X161759000Y-119588000D01*
X162215667Y-94545845D02*
X159215667Y-94545845D01*
X158645667Y-94545845D02*
X155645667Y-94545845D01*
X155629000Y-119238000D02*
X155645667Y-92175845D01*
X159215667Y-92175845D02*
X162215667Y-92175845D01*
X155645667Y-92175845D02*
X158645667Y-92175845D01*
X161949000Y-91958000D02*
X108949000Y-91958000D01*
X108949000Y-91958000D02*
X108949000Y-88958000D01*
X161949000Y-88958000D02*
X161949000Y-91958000D01*
X108979000Y-86308000D02*
X161979000Y-86308000D01*
D11*
%TO.C,J3*%
X112589000Y-130877000D02*
X112589000Y-133537000D01*
X120269000Y-130877000D02*
X112589000Y-130877000D01*
X120269000Y-133537000D02*
X112589000Y-133537000D01*
X120269000Y-130877000D02*
X120269000Y-133537000D01*
X121539000Y-130877000D02*
X122869000Y-130877000D01*
X122869000Y-130877000D02*
X122869000Y-132207000D01*
%TO.C,J1*%
D10*
X168576666Y-125920380D02*
X168576666Y-126634666D01*
X168529047Y-126777523D01*
X168433809Y-126872761D01*
X168290952Y-126920380D01*
X168195714Y-126920380D01*
X169576666Y-126920380D02*
X169005238Y-126920380D01*
X169290952Y-126920380D02*
X169290952Y-125920380D01*
X169195714Y-126063238D01*
X169100476Y-126158476D01*
X169005238Y-126206095D01*
%TO.C,J4*%
X162393380Y-83645333D02*
X163107666Y-83645333D01*
X163250523Y-83692952D01*
X163345761Y-83788190D01*
X163393380Y-83931047D01*
X163393380Y-84026285D01*
X162726714Y-82740571D02*
X163393380Y-82740571D01*
X162345761Y-82978666D02*
X163060047Y-83216761D01*
X163060047Y-82597714D01*
%TO.C,J2*%
X127238380Y-132413333D02*
X127952666Y-132413333D01*
X128095523Y-132460952D01*
X128190761Y-132556190D01*
X128238380Y-132699047D01*
X128238380Y-132794285D01*
X127333619Y-131984761D02*
X127286000Y-131937142D01*
X127238380Y-131841904D01*
X127238380Y-131603809D01*
X127286000Y-131508571D01*
X127333619Y-131460952D01*
X127428857Y-131413333D01*
X127524095Y-131413333D01*
X127666952Y-131460952D01*
X128238380Y-132032380D01*
X128238380Y-131413333D01*
%TO.C,H2*%
X150114095Y-101925380D02*
X150114095Y-100925380D01*
X150114095Y-101401571D02*
X150685523Y-101401571D01*
X150685523Y-101925380D02*
X150685523Y-100925380D01*
X151114095Y-101020619D02*
X151161714Y-100973000D01*
X151256952Y-100925380D01*
X151495047Y-100925380D01*
X151590285Y-100973000D01*
X151637904Y-101020619D01*
X151685523Y-101115857D01*
X151685523Y-101211095D01*
X151637904Y-101353952D01*
X151066476Y-101925380D01*
X151685523Y-101925380D01*
%TO.C,H1*%
X112268095Y-112212380D02*
X112268095Y-111212380D01*
X112268095Y-111688571D02*
X112839523Y-111688571D01*
X112839523Y-112212380D02*
X112839523Y-111212380D01*
X113839523Y-112212380D02*
X113268095Y-112212380D01*
X113553809Y-112212380D02*
X113553809Y-111212380D01*
X113458571Y-111355238D01*
X113363333Y-111450476D01*
X113268095Y-111498095D01*
%TO.C,H0*%
X112268095Y-99512380D02*
X112268095Y-98512380D01*
X112268095Y-98988571D02*
X112839523Y-98988571D01*
X112839523Y-99512380D02*
X112839523Y-98512380D01*
X113506190Y-98512380D02*
X113601428Y-98512380D01*
X113696666Y-98560000D01*
X113744285Y-98607619D01*
X113791904Y-98702857D01*
X113839523Y-98893333D01*
X113839523Y-99131428D01*
X113791904Y-99321904D01*
X113744285Y-99417142D01*
X113696666Y-99464761D01*
X113601428Y-99512380D01*
X113506190Y-99512380D01*
X113410952Y-99464761D01*
X113363333Y-99417142D01*
X113315714Y-99321904D01*
X113268095Y-99131428D01*
X113268095Y-98893333D01*
X113315714Y-98702857D01*
X113363333Y-98607619D01*
X113410952Y-98560000D01*
X113506190Y-98512380D01*
%TO.C,MCU1*%
X163012380Y-90733333D02*
X162012380Y-90733333D01*
X162726666Y-90400000D01*
X162012380Y-90066666D01*
X163012380Y-90066666D01*
X162917142Y-89019047D02*
X162964761Y-89066666D01*
X163012380Y-89209523D01*
X163012380Y-89304761D01*
X162964761Y-89447619D01*
X162869523Y-89542857D01*
X162774285Y-89590476D01*
X162583809Y-89638095D01*
X162440952Y-89638095D01*
X162250476Y-89590476D01*
X162155238Y-89542857D01*
X162060000Y-89447619D01*
X162012380Y-89304761D01*
X162012380Y-89209523D01*
X162060000Y-89066666D01*
X162107619Y-89019047D01*
X162012380Y-88590476D02*
X162821904Y-88590476D01*
X162917142Y-88542857D01*
X162964761Y-88495238D01*
X163012380Y-88400000D01*
X163012380Y-88209523D01*
X162964761Y-88114285D01*
X162917142Y-88066666D01*
X162821904Y-88019047D01*
X162012380Y-88019047D01*
X163012380Y-87019047D02*
X163012380Y-87590476D01*
X163012380Y-87304761D02*
X162012380Y-87304761D01*
X162155238Y-87400000D01*
X162250476Y-87495238D01*
X162298095Y-87590476D01*
%TO.C,J3*%
X123321380Y-132540333D02*
X124035666Y-132540333D01*
X124178523Y-132587952D01*
X124273761Y-132683190D01*
X124321380Y-132826047D01*
X124321380Y-132921285D01*
X123321380Y-132159380D02*
X123321380Y-131540333D01*
X123702333Y-131873666D01*
X123702333Y-131730809D01*
X123749952Y-131635571D01*
X123797571Y-131587952D01*
X123892809Y-131540333D01*
X124130904Y-131540333D01*
X124226142Y-131587952D01*
X124273761Y-131635571D01*
X124321380Y-131730809D01*
X124321380Y-132016523D01*
X124273761Y-132111761D01*
X124226142Y-132159380D01*
%TD*%
M02*
