%TF.GenerationSoftware,KiCad,Pcbnew,(5.1.9)-1*%
%TF.CreationDate,2021-09-28T21:39:50+01:00*%
%TF.ProjectId,Mega2560-pro-mini-radio,4d656761-3235-4363-902d-70726f2d6d69,rev?*%
%TF.SameCoordinates,Original*%
%TF.FileFunction,Copper,L1,Top*%
%TF.FilePolarity,Positive*%
%FSLAX46Y46*%
G04 Gerber Fmt 4.6, Leading zero omitted, Abs format (unit mm)*
G04 Created by KiCad (PCBNEW (5.1.9)-1) date 2021-09-28 21:39:50*
%MOMM*%
%LPD*%
G01*
G04 APERTURE LIST*
%TA.AperFunction,ComponentPad*%
%ADD10O,1.700000X1.700000*%
%TD*%
%TA.AperFunction,ComponentPad*%
%ADD11R,1.700000X1.700000*%
%TD*%
%TA.AperFunction,ComponentPad*%
%ADD12O,1.200000X2.000000*%
%TD*%
%TA.AperFunction,ComponentPad*%
%ADD13O,2.000000X1.200000*%
%TD*%
%TA.AperFunction,ComponentPad*%
%ADD14O,1.000000X0.800000*%
%TD*%
%TA.AperFunction,ViaPad*%
%ADD15C,0.800000*%
%TD*%
%TA.AperFunction,Conductor*%
%ADD16C,0.350000*%
%TD*%
G04 APERTURE END LIST*
D10*
%TO.P,J1,30*%
%TO.N,GND*%
X170815000Y-88138000D03*
%TO.P,J1,29*%
%TO.N,N/C*%
X168275000Y-88138000D03*
%TO.P,J1,28*%
X170815000Y-90678000D03*
%TO.P,J1,27*%
X168275000Y-90678000D03*
%TO.P,J1,26*%
X170815000Y-93218000D03*
%TO.P,J1,25*%
X168275000Y-93218000D03*
%TO.P,J1,24*%
X170815000Y-95758000D03*
%TO.P,J1,23*%
X168275000Y-95758000D03*
%TO.P,J1,22*%
X170815000Y-98298000D03*
%TO.P,J1,21*%
X168275000Y-98298000D03*
%TO.P,J1,20*%
X170815000Y-100838000D03*
%TO.P,J1,19*%
X168275000Y-100838000D03*
%TO.P,J1,18*%
X170815000Y-103378000D03*
%TO.P,J1,17*%
X168275000Y-103378000D03*
%TO.P,J1,16*%
X170815000Y-105918000D03*
%TO.P,J1,15*%
X168275000Y-105918000D03*
%TO.P,J1,14*%
X170815000Y-108458000D03*
%TO.P,J1,13*%
%TO.N,DOUT*%
X168275000Y-108458000D03*
%TO.P,J1,12*%
%TO.N,SW_COM_ENC_MHZ*%
X170815000Y-110998000D03*
%TO.P,J1,11*%
%TO.N,B_COM_ENC_MHZ*%
X168275000Y-110998000D03*
%TO.P,J1,10*%
%TO.N,A_COM_ENC_MHZ*%
X170815000Y-113538000D03*
%TO.P,J1,9*%
%TO.N,SW_COM_ENC_KHZ*%
X168275000Y-113538000D03*
%TO.P,J1,8*%
%TO.N,B_COM_ENC_KHZ*%
X170815000Y-116078000D03*
%TO.P,J1,7*%
%TO.N,A_COM_ENC_KHZ*%
X168275000Y-116078000D03*
%TO.P,J1,6*%
%TO.N,COM_SWAP*%
X170815000Y-118618000D03*
%TO.P,J1,5*%
%TO.N,N/C*%
X168275000Y-118618000D03*
%TO.P,J1,4*%
%TO.N,CS_MAX*%
X170815000Y-121158000D03*
%TO.P,J1,3*%
%TO.N,CLK*%
X168275000Y-121158000D03*
%TO.P,J1,2*%
%TO.N,DIN*%
X170815000Y-123698000D03*
D11*
%TO.P,J1,1*%
%TO.N,+5V*%
X168275000Y-123698000D03*
%TD*%
D10*
%TO.P,J4,30*%
%TO.N,GND*%
X124460000Y-80010000D03*
%TO.P,J4,29*%
%TO.N,N/C*%
X124460000Y-82550000D03*
%TO.P,J4,28*%
X127000000Y-80010000D03*
%TO.P,J4,27*%
X127000000Y-82550000D03*
%TO.P,J4,26*%
X129540000Y-80010000D03*
%TO.P,J4,25*%
X129540000Y-82550000D03*
%TO.P,J4,24*%
X132080000Y-80010000D03*
%TO.P,J4,23*%
X132080000Y-82550000D03*
%TO.P,J4,22*%
X134620000Y-80010000D03*
%TO.P,J4,21*%
X134620000Y-82550000D03*
%TO.P,J4,20*%
X137160000Y-80010000D03*
%TO.P,J4,19*%
X137160000Y-82550000D03*
%TO.P,J4,18*%
X139700000Y-80010000D03*
%TO.P,J4,17*%
X139700000Y-82550000D03*
%TO.P,J4,16*%
X142240000Y-80010000D03*
%TO.P,J4,15*%
X142240000Y-82550000D03*
%TO.P,J4,14*%
X144780000Y-80010000D03*
%TO.P,J4,13*%
%TO.N,I_led*%
X144780000Y-82550000D03*
%TO.P,J4,12*%
%TO.N,M_led*%
X147320000Y-80010000D03*
%TO.P,J4,11*%
%TO.N,O_led*%
X147320000Y-82550000D03*
%TO.P,J4,10*%
%TO.N,AUX*%
X149860000Y-80010000D03*
%TO.P,J4,9*%
%TO.N,ADF*%
X149860000Y-82550000D03*
%TO.P,J4,8*%
%TO.N,DME*%
X152400000Y-80010000D03*
%TO.P,J4,7*%
%TO.N,MKR*%
X152400000Y-82550000D03*
%TO.P,J4,6*%
%TO.N,NAV2*%
X154940000Y-80010000D03*
%TO.P,J4,5*%
%TO.N,NAV1*%
X154940000Y-82550000D03*
%TO.P,J4,4*%
%TO.N,BOTH*%
X157480000Y-80010000D03*
%TO.P,J4,3*%
%TO.N,COM2*%
X157480000Y-82550000D03*
%TO.P,J4,2*%
%TO.N,COM1*%
X160020000Y-80010000D03*
D11*
%TO.P,J4,1*%
%TO.N,+5V*%
X160020000Y-82550000D03*
%TD*%
D10*
%TO.P,J2,30*%
%TO.N,GND*%
X166116000Y-133350000D03*
%TO.P,J2,29*%
%TO.N,N/C*%
X166116000Y-130810000D03*
%TO.P,J2,28*%
X163576000Y-133350000D03*
%TO.P,J2,27*%
X163576000Y-130810000D03*
%TO.P,J2,26*%
X161036000Y-133350000D03*
%TO.P,J2,25*%
X161036000Y-130810000D03*
%TO.P,J2,24*%
X158496000Y-133350000D03*
%TO.P,J2,23*%
X158496000Y-130810000D03*
%TO.P,J2,22*%
X155956000Y-133350000D03*
%TO.P,J2,21*%
X155956000Y-130810000D03*
%TO.P,J2,20*%
X153416000Y-133350000D03*
%TO.P,J2,19*%
X153416000Y-130810000D03*
%TO.P,J2,18*%
X150876000Y-133350000D03*
%TO.P,J2,17*%
X150876000Y-130810000D03*
%TO.P,J2,16*%
X148336000Y-133350000D03*
%TO.P,J2,15*%
X148336000Y-130810000D03*
%TO.P,J2,14*%
X145796000Y-133350000D03*
%TO.P,J2,13*%
X145796000Y-130810000D03*
%TO.P,J2,12*%
%TO.N,SW_NAV_ENC_MHZ*%
X143256000Y-133350000D03*
%TO.P,J2,11*%
%TO.N,B_NAV_ENC_MHZ*%
X143256000Y-130810000D03*
%TO.P,J2,10*%
%TO.N,A_NAV_ENC_MHZ*%
X140716000Y-133350000D03*
%TO.P,J2,9*%
%TO.N,SW_NAV_ENC_KHZ*%
X140716000Y-130810000D03*
%TO.P,J2,8*%
%TO.N,B_NAV_ENC_KHZ*%
X138176000Y-133350000D03*
%TO.P,J2,7*%
%TO.N,A_NAV_ENC_KHZ*%
X138176000Y-130810000D03*
%TO.P,J2,6*%
%TO.N,NAV_SWAP*%
X135636000Y-133350000D03*
%TO.P,J2,5*%
%TO.N,N/C*%
X135636000Y-130810000D03*
%TO.P,J2,4*%
%TO.N,CS_MAX*%
X133096000Y-133350000D03*
%TO.P,J2,3*%
%TO.N,CLK*%
X133096000Y-130810000D03*
%TO.P,J2,2*%
%TO.N,DOUT*%
X130556000Y-133350000D03*
D11*
%TO.P,J2,1*%
%TO.N,+5V*%
X130556000Y-130810000D03*
%TD*%
D12*
%TO.P,MCU1,40*%
%TO.N,COM1*%
X158089000Y-123738000D03*
%TO.P,MCU1,2*%
%TO.N,VCC*%
X109829000Y-123738000D03*
%TO.P,MCU1,4*%
%TO.N,GND*%
X112369000Y-123738000D03*
%TO.P,MCU1,6*%
%TO.N,+5V*%
X114909000Y-123738000D03*
%TO.P,MCU1,8*%
%TO.N,N/C*%
X117449000Y-123738000D03*
%TO.P,MCU1,10*%
X119989000Y-123738000D03*
%TO.P,MCU1,12*%
X122529000Y-123738000D03*
%TO.P,MCU1,14*%
X125069000Y-123738000D03*
%TO.P,MCU1,16*%
X127609000Y-123738000D03*
%TO.P,MCU1,18*%
X130149000Y-123738000D03*
%TO.P,MCU1,20*%
X132689000Y-123738000D03*
%TO.P,MCU1,22*%
%TO.N,A_COM_ENC_KHZ*%
X135229000Y-123738000D03*
%TO.P,MCU1,24*%
%TO.N,A_COM_ENC_MHZ*%
X137769000Y-123738000D03*
%TO.P,MCU1,26*%
%TO.N,A_NAV_ENC_KHZ*%
X140309000Y-123738000D03*
%TO.P,MCU1,28*%
%TO.N,A_NAV_ENC_MHZ*%
X142849000Y-123738000D03*
%TO.P,MCU1,30*%
%TO.N,COM_SWAP*%
X145389000Y-123738000D03*
%TO.P,MCU1,36*%
%TO.N,SW_NAV_ENC_MHZ*%
X153009000Y-123738000D03*
%TO.P,MCU1,34*%
%TO.N,NAV_SWAP*%
X150469000Y-123738000D03*
%TO.P,MCU1,32*%
%TO.N,SW_COM_ENC_MHZ*%
X147929000Y-123738000D03*
%TO.P,MCU1,42*%
%TO.N,BOTH*%
X160629000Y-123738000D03*
%TO.P,MCU1,38*%
%TO.N,CS_MAX*%
X155549000Y-123738000D03*
%TO.P,MCU1,1*%
%TO.N,VCC*%
X109859000Y-121088000D03*
%TO.P,MCU1,3*%
%TO.N,GND*%
X112399000Y-121088000D03*
%TO.P,MCU1,5*%
%TO.N,+5V*%
X114939000Y-121088000D03*
%TO.P,MCU1,7*%
%TO.N,N/C*%
X117479000Y-121088000D03*
%TO.P,MCU1,9*%
X120019000Y-121088000D03*
%TO.P,MCU1,11*%
X122559000Y-121088000D03*
%TO.P,MCU1,13*%
X125099000Y-121088000D03*
%TO.P,MCU1,15*%
X127639000Y-121088000D03*
%TO.P,MCU1,17*%
X130179000Y-121088000D03*
%TO.P,MCU1,19*%
X132719000Y-121088000D03*
%TO.P,MCU1,21*%
X135259000Y-121088000D03*
%TO.P,MCU1,23*%
%TO.N,B_COM_ENC_KHZ*%
X137799000Y-121088000D03*
%TO.P,MCU1,25*%
%TO.N,B_COM_ENC_MHZ*%
X140339000Y-121088000D03*
%TO.P,MCU1,27*%
%TO.N,B_NAV_ENC_KHZ*%
X142879000Y-121088000D03*
%TO.P,MCU1,29*%
%TO.N,B_NAV_ENC_MHZ*%
X145419000Y-121088000D03*
%TO.P,MCU1,31*%
%TO.N,SW_COM_ENC_KHZ*%
X147959000Y-121088000D03*
%TO.P,MCU1,33*%
%TO.N,N/C*%
X150499000Y-121088000D03*
%TO.P,MCU1,35*%
%TO.N,SW_NAV_ENC_KHZ*%
X153039000Y-121088000D03*
%TO.P,MCU1,37*%
%TO.N,DIN*%
X155579000Y-121088000D03*
%TO.P,MCU1,39*%
%TO.N,CLK*%
X158119000Y-121088000D03*
%TO.P,MCU1,41*%
%TO.N,COM2*%
X160659000Y-121088000D03*
D13*
%TO.P,MCU1,67*%
%TO.N,N/C*%
X160715667Y-95815845D03*
D14*
%TO.P,MCU1,43*%
X157145667Y-111055845D03*
%TO.P,MCU1,45*%
X157145667Y-108515845D03*
D13*
%TO.P,MCU1,47*%
X157145667Y-105975845D03*
D14*
%TO.P,MCU1,44*%
X160715667Y-111055845D03*
D13*
%TO.P,MCU1,46*%
X160715667Y-108515845D03*
%TO.P,MCU1,48*%
X160715667Y-105975845D03*
%TO.P,MCU1,65*%
X160715667Y-93275845D03*
%TO.P,MCU1,69*%
X160715667Y-98355845D03*
%TO.P,MCU1,70*%
X157145667Y-98355845D03*
%TO.P,MCU1,68*%
X157145667Y-95815845D03*
%TO.P,MCU1,66*%
X157145667Y-93275845D03*
D12*
%TO.P,MCU1,62*%
X158309000Y-90458000D03*
%TO.P,MCU1,72*%
X122749000Y-90458000D03*
%TO.P,MCU1,74*%
X125289000Y-90458000D03*
%TO.P,MCU1,76*%
X127829000Y-90458000D03*
%TO.P,MCU1,78*%
X130369000Y-90458000D03*
%TO.P,MCU1,80*%
X132909000Y-90458000D03*
%TO.P,MCU1,82*%
X135449000Y-90458000D03*
%TO.P,MCU1,84*%
X137989000Y-90458000D03*
%TO.P,MCU1,86*%
X140529000Y-90458000D03*
%TO.P,MCU1,50*%
%TO.N,NAV2*%
X143069000Y-90458000D03*
%TO.P,MCU1,52*%
%TO.N,DME*%
X145609000Y-90458000D03*
%TO.P,MCU1,58*%
%TO.N,N/C*%
X153229000Y-90458000D03*
%TO.P,MCU1,56*%
%TO.N,M_led*%
X150689000Y-90458000D03*
%TO.P,MCU1,54*%
%TO.N,AUX*%
X148149000Y-90458000D03*
%TO.P,MCU1,64*%
%TO.N,N/C*%
X160849000Y-90458000D03*
%TO.P,MCU1,60*%
X155769000Y-90458000D03*
%TO.P,MCU1,71*%
X122779000Y-87808000D03*
%TO.P,MCU1,73*%
X125319000Y-87808000D03*
%TO.P,MCU1,75*%
X127859000Y-87808000D03*
%TO.P,MCU1,77*%
X130399000Y-87808000D03*
%TO.P,MCU1,79*%
X132939000Y-87808000D03*
%TO.P,MCU1,81*%
X135479000Y-87808000D03*
%TO.P,MCU1,83*%
X138019000Y-87808000D03*
%TO.P,MCU1,85*%
X140559000Y-87808000D03*
%TO.P,MCU1,49*%
%TO.N,NAV1*%
X143099000Y-87808000D03*
%TO.P,MCU1,51*%
%TO.N,MKR*%
X145639000Y-87808000D03*
%TO.P,MCU1,53*%
%TO.N,ADF*%
X148179000Y-87808000D03*
%TO.P,MCU1,55*%
%TO.N,O_led*%
X150719000Y-87808000D03*
%TO.P,MCU1,57*%
%TO.N,I_led*%
X153259000Y-87808000D03*
%TO.P,MCU1,59*%
%TO.N,N/C*%
X155799000Y-87808000D03*
%TO.P,MCU1,61*%
X158339000Y-87808000D03*
%TO.P,MCU1,63*%
X160879000Y-87808000D03*
%TD*%
D10*
%TO.P,J3,4*%
%TO.N,GND*%
X113919000Y-132207000D03*
%TO.P,J3,3*%
%TO.N,VCC*%
X116459000Y-132207000D03*
%TO.P,J3,2*%
%TO.N,GND*%
X118999000Y-132207000D03*
D11*
%TO.P,J3,1*%
%TO.N,+5V*%
X121539000Y-132207000D03*
%TD*%
D15*
%TO.N,B_COM_ENC_KHZ*%
X153646300Y-117388500D03*
X141270900Y-117675500D03*
%TD*%
D16*
%TO.N,GND*%
X112399000Y-121088000D02*
X112399000Y-122463300D01*
X112399000Y-122463300D02*
X112369000Y-122493300D01*
X112369000Y-122493300D02*
X112369000Y-123738000D01*
X112369000Y-123738000D02*
X112369000Y-125113300D01*
X113933600Y-132207000D02*
X113933600Y-126677900D01*
X113933600Y-126677900D02*
X112369000Y-125113300D01*
X113919000Y-132207000D02*
X113933600Y-132207000D01*
X124460000Y-78867000D02*
X124460000Y-80010000D01*
X126111000Y-77216000D02*
X124460000Y-78867000D01*
X159175500Y-77216000D02*
X126111000Y-77216000D01*
X169589700Y-87630200D02*
X159175500Y-77216000D01*
X169589700Y-88138000D02*
X169589700Y-87630200D01*
X170815000Y-88138000D02*
X169589700Y-88138000D01*
%TO.N,DOUT*%
X131826000Y-132080000D02*
X130556000Y-133350000D01*
X131826000Y-128982300D02*
X131826000Y-132080000D01*
X133989000Y-126819300D02*
X131826000Y-128982300D01*
X133989000Y-118233000D02*
X133989000Y-126819300D01*
X142688500Y-109533500D02*
X133989000Y-118233000D01*
X142688500Y-104834500D02*
X142688500Y-109533500D01*
X160020000Y-100203000D02*
X147320000Y-100203000D01*
X147320000Y-100203000D02*
X142688500Y-104834500D01*
X168275000Y-108458000D02*
X160020000Y-100203000D01*
%TO.N,SW_COM_ENC_MHZ*%
X146685000Y-122494000D02*
X147929000Y-123738000D01*
X146685000Y-118110000D02*
X146685000Y-122494000D01*
X150495000Y-114300000D02*
X146685000Y-118110000D01*
X163182400Y-114300000D02*
X150495000Y-114300000D01*
X165214400Y-112268000D02*
X163182400Y-114300000D01*
X169545000Y-112268000D02*
X165214400Y-112268000D01*
X170815000Y-110998000D02*
X169545000Y-112268000D01*
%TO.N,B_COM_ENC_MHZ*%
X140339000Y-121088000D02*
X140339000Y-119712700D01*
X140339000Y-119712700D02*
X148058800Y-111992900D01*
X148058800Y-111992900D02*
X164322200Y-111992900D01*
X164322200Y-111992900D02*
X165317100Y-110998000D01*
X165317100Y-110998000D02*
X168275000Y-110998000D01*
%TO.N,A_COM_ENC_MHZ*%
X136398000Y-122367000D02*
X137769000Y-123738000D01*
X145821100Y-110083900D02*
X136398000Y-119507000D01*
X136398000Y-119507000D02*
X136398000Y-122367000D01*
X164434300Y-110083900D02*
X145821100Y-110083900D01*
X164790200Y-109728000D02*
X164434300Y-110083900D01*
X172319990Y-110089990D02*
X171958000Y-109728000D01*
X172319990Y-112033010D02*
X172319990Y-110089990D01*
X171958000Y-109728000D02*
X164790200Y-109728000D01*
X170815000Y-113538000D02*
X172319990Y-112033010D01*
%TO.N,SW_COM_ENC_KHZ*%
X166751000Y-115062000D02*
X168275000Y-113538000D01*
X151130000Y-115062000D02*
X166751000Y-115062000D01*
X147959000Y-118233000D02*
X151130000Y-115062000D01*
X147959000Y-121088000D02*
X147959000Y-118233000D01*
%TO.N,B_COM_ENC_KHZ*%
X137799000Y-121088000D02*
X141211500Y-117675500D01*
X141211500Y-117675500D02*
X141270900Y-117675500D01*
X169504500Y-117388500D02*
X168569500Y-117388500D01*
X170815000Y-116078000D02*
X169504500Y-117388500D01*
X168569500Y-117388500D02*
X153646300Y-117388500D01*
%TO.N,A_COM_ENC_KHZ*%
X152527000Y-116078000D02*
X168275000Y-116078000D01*
X137160000Y-127381000D02*
X146558000Y-127381000D01*
X149229000Y-119376000D02*
X152527000Y-116078000D01*
X149229000Y-124710000D02*
X149229000Y-119376000D01*
X135229000Y-125450000D02*
X137160000Y-127381000D01*
X146558000Y-127381000D02*
X149229000Y-124710000D01*
X135229000Y-123738000D02*
X135229000Y-125450000D01*
%TO.N,CLK*%
X167049700Y-121158000D02*
X168275000Y-121158000D01*
X164763700Y-118872000D02*
X167049700Y-121158000D01*
X158119000Y-120011000D02*
X159258000Y-118872000D01*
X158119000Y-121088000D02*
X158119000Y-120011000D01*
X159258000Y-118872000D02*
X164763700Y-118872000D01*
%TO.N,DIN*%
X171748999Y-119932999D02*
X172319990Y-120503990D01*
X168192999Y-119932999D02*
X171748999Y-119932999D01*
X172319990Y-120503990D02*
X172319990Y-122193010D01*
X168192600Y-119932600D02*
X168192999Y-119932999D01*
X166922600Y-119932600D02*
X168192600Y-119932600D01*
X165100000Y-118110000D02*
X166922600Y-119932600D01*
X157181700Y-118110000D02*
X165100000Y-118110000D01*
X172319990Y-122193010D02*
X170815000Y-123698000D01*
X155579000Y-119712700D02*
X157181700Y-118110000D01*
X155579000Y-121088000D02*
X155579000Y-119712700D01*
%TO.N,+5V*%
X127933700Y-132207000D02*
X129330700Y-130810000D01*
X121539000Y-132207000D02*
X127933700Y-132207000D01*
X130556000Y-130810000D02*
X129330700Y-130810000D01*
X167405010Y-135489990D02*
X168783000Y-134112000D01*
X128758990Y-135489990D02*
X167405010Y-135489990D01*
X168783000Y-124206000D02*
X168275000Y-123698000D01*
X168783000Y-134112000D02*
X168783000Y-124206000D01*
X127933700Y-134664700D02*
X128758990Y-135489990D01*
X127933700Y-132207000D02*
X127933700Y-134664700D01*
%TO.N,SW_NAV_ENC_KHZ*%
X151739000Y-122388000D02*
X153039000Y-121088000D01*
X151739000Y-124261700D02*
X151739000Y-122388000D01*
X147413400Y-128587300D02*
X151739000Y-124261700D01*
X142938700Y-128587300D02*
X147413400Y-128587300D01*
X140716000Y-130810000D02*
X142938700Y-128587300D01*
%TO.N,NAV_SWAP*%
X150469000Y-124359000D02*
X150469000Y-123738000D01*
X146881000Y-127947000D02*
X150469000Y-124359000D01*
X137991000Y-127947000D02*
X146881000Y-127947000D01*
X136906000Y-129032000D02*
X137991000Y-127947000D01*
X136906000Y-130212002D02*
X136906000Y-129032000D01*
X136861001Y-130257001D02*
X136906000Y-130212002D01*
X136861001Y-132124999D02*
X136861001Y-130257001D01*
X135636000Y-133350000D02*
X136861001Y-132124999D01*
%TO.N,I_led*%
X145542000Y-81280000D02*
X144780000Y-82042000D01*
X148147600Y-81280000D02*
X145542000Y-81280000D01*
X148590000Y-80837600D02*
X148147600Y-81280000D01*
X150495000Y-78486000D02*
X149225000Y-78486000D01*
X144780000Y-82042000D02*
X144780000Y-82550000D01*
X151130000Y-79121000D02*
X150495000Y-78486000D01*
X149225000Y-78486000D02*
X148590000Y-79121000D01*
X151130000Y-84303700D02*
X151130000Y-79121000D01*
X148590000Y-79121000D02*
X148590000Y-80837600D01*
X153259000Y-86432700D02*
X151130000Y-84303700D01*
X153259000Y-87808000D02*
X153259000Y-86432700D01*
%TO.N,AUX*%
X147193000Y-89502000D02*
X148149000Y-90458000D01*
X147193000Y-85800400D02*
X147193000Y-89502000D01*
X148590000Y-84403400D02*
X147193000Y-85800400D01*
X148590000Y-81997500D02*
X148590000Y-84403400D01*
X149860000Y-80727500D02*
X148590000Y-81997500D01*
X149860000Y-80010000D02*
X149860000Y-80727500D01*
%TO.N,ADF*%
X148179000Y-87808000D02*
X148179000Y-86432700D01*
X148179000Y-86432700D02*
X149860000Y-84751700D01*
X149860000Y-84751700D02*
X149860000Y-82550000D01*
%TO.N,MKR*%
X152400000Y-83775300D02*
X152400000Y-82550000D01*
X154559000Y-85934300D02*
X152400000Y-83775300D01*
X153289000Y-92837000D02*
X154559000Y-91567000D01*
X147447000Y-92837000D02*
X153289000Y-92837000D01*
X146584400Y-91974400D02*
X147447000Y-92837000D01*
X146584400Y-88753400D02*
X146584400Y-91974400D01*
X154559000Y-91567000D02*
X154559000Y-85934300D01*
X145639000Y-87808000D02*
X146584400Y-88753400D01*
%TO.N,NAV2*%
X143069000Y-90458000D02*
X144399000Y-89128000D01*
X144399000Y-89128000D02*
X144399000Y-85725300D01*
X153924000Y-77851000D02*
X154940000Y-78867000D01*
X143510000Y-84836300D02*
X143510000Y-78486000D01*
X143510000Y-78486000D02*
X144145000Y-77851000D01*
X154940000Y-78867000D02*
X154940000Y-80010000D01*
X144399000Y-85725300D02*
X143510000Y-84836300D01*
X144145000Y-77851000D02*
X153924000Y-77851000D01*
%TD*%
M02*
