%TF.GenerationSoftware,KiCad,Pcbnew,(5.1.9)-1*%
%TF.CreationDate,2021-09-19T21:25:35+01:00*%
%TF.ProjectId,Mega2560-pro-mini-radio,4d656761-3235-4363-902d-70726f2d6d69,rev?*%
%TF.SameCoordinates,Original*%
%TF.FileFunction,Copper,L2,Bot*%
%TF.FilePolarity,Positive*%
%FSLAX46Y46*%
G04 Gerber Fmt 4.6, Leading zero omitted, Abs format (unit mm)*
G04 Created by KiCad (PCBNEW (5.1.9)-1) date 2021-09-19 21:25:35*
%MOMM*%
%LPD*%
G01*
G04 APERTURE LIST*
%TA.AperFunction,ComponentPad*%
%ADD10O,1.700000X1.700000*%
%TD*%
%TA.AperFunction,ComponentPad*%
%ADD11R,1.700000X1.700000*%
%TD*%
%TA.AperFunction,ComponentPad*%
%ADD12O,1.200000X2.000000*%
%TD*%
%TA.AperFunction,ComponentPad*%
%ADD13O,2.000000X1.200000*%
%TD*%
%TA.AperFunction,ComponentPad*%
%ADD14O,1.000000X0.800000*%
%TD*%
%TA.AperFunction,ViaPad*%
%ADD15C,0.800000*%
%TD*%
%TA.AperFunction,Conductor*%
%ADD16C,0.350000*%
%TD*%
%TA.AperFunction,Conductor*%
%ADD17C,0.250000*%
%TD*%
%TA.AperFunction,Conductor*%
%ADD18C,0.254000*%
%TD*%
%TA.AperFunction,Conductor*%
%ADD19C,0.100000*%
%TD*%
G04 APERTURE END LIST*
D10*
%TO.P,J1,30*%
%TO.N,GND*%
X170815000Y-88138000D03*
%TO.P,J1,29*%
%TO.N,Net-(J1-Pad29)*%
X168275000Y-88138000D03*
%TO.P,J1,28*%
%TO.N,Net-(J1-Pad28)*%
X170815000Y-90678000D03*
%TO.P,J1,27*%
%TO.N,Net-(J1-Pad27)*%
X168275000Y-90678000D03*
%TO.P,J1,26*%
%TO.N,Net-(J1-Pad26)*%
X170815000Y-93218000D03*
%TO.P,J1,25*%
%TO.N,Net-(J1-Pad25)*%
X168275000Y-93218000D03*
%TO.P,J1,24*%
%TO.N,Net-(J1-Pad24)*%
X170815000Y-95758000D03*
%TO.P,J1,23*%
%TO.N,Net-(J1-Pad23)*%
X168275000Y-95758000D03*
%TO.P,J1,22*%
%TO.N,Net-(J1-Pad22)*%
X170815000Y-98298000D03*
%TO.P,J1,21*%
%TO.N,Net-(J1-Pad21)*%
X168275000Y-98298000D03*
%TO.P,J1,20*%
%TO.N,Net-(J1-Pad20)*%
X170815000Y-100838000D03*
%TO.P,J1,19*%
%TO.N,Net-(J1-Pad19)*%
X168275000Y-100838000D03*
%TO.P,J1,18*%
%TO.N,Net-(J1-Pad18)*%
X170815000Y-103378000D03*
%TO.P,J1,17*%
%TO.N,Net-(J1-Pad17)*%
X168275000Y-103378000D03*
%TO.P,J1,16*%
%TO.N,Net-(J1-Pad16)*%
X170815000Y-105918000D03*
%TO.P,J1,15*%
%TO.N,Net-(J1-Pad15)*%
X168275000Y-105918000D03*
%TO.P,J1,14*%
%TO.N,Net-(J1-Pad14)*%
X170815000Y-108458000D03*
%TO.P,J1,13*%
%TO.N,DOUT*%
X168275000Y-108458000D03*
%TO.P,J1,12*%
%TO.N,SW_COM_ENC_MHZ*%
X170815000Y-110998000D03*
%TO.P,J1,11*%
%TO.N,B_COM_ENC_MHZ*%
X168275000Y-110998000D03*
%TO.P,J1,10*%
%TO.N,A_COM_ENC_MHZ*%
X170815000Y-113538000D03*
%TO.P,J1,9*%
%TO.N,SW_COM_ENC_KHZ*%
X168275000Y-113538000D03*
%TO.P,J1,8*%
%TO.N,B_COM_ENC_KHZ*%
X170815000Y-116078000D03*
%TO.P,J1,7*%
%TO.N,A_COM_ENC_KHZ*%
X168275000Y-116078000D03*
%TO.P,J1,6*%
%TO.N,COM_SWAP*%
X170815000Y-118618000D03*
%TO.P,J1,5*%
%TO.N,Net-(J1-Pad5)*%
X168275000Y-118618000D03*
%TO.P,J1,4*%
%TO.N,CS_MAX*%
X170815000Y-121158000D03*
%TO.P,J1,3*%
%TO.N,CLK*%
X168275000Y-121158000D03*
%TO.P,J1,2*%
%TO.N,DIN*%
X170815000Y-123698000D03*
D11*
%TO.P,J1,1*%
%TO.N,+5V*%
X168275000Y-123698000D03*
%TD*%
D10*
%TO.P,J2,30*%
%TO.N,GND*%
X166116000Y-133350000D03*
%TO.P,J2,29*%
%TO.N,Net-(J2-Pad29)*%
X166116000Y-130810000D03*
%TO.P,J2,28*%
%TO.N,Net-(J2-Pad28)*%
X163576000Y-133350000D03*
%TO.P,J2,27*%
%TO.N,Net-(J2-Pad27)*%
X163576000Y-130810000D03*
%TO.P,J2,26*%
%TO.N,Net-(J2-Pad26)*%
X161036000Y-133350000D03*
%TO.P,J2,25*%
%TO.N,Net-(J2-Pad25)*%
X161036000Y-130810000D03*
%TO.P,J2,24*%
%TO.N,Net-(J2-Pad24)*%
X158496000Y-133350000D03*
%TO.P,J2,23*%
%TO.N,Net-(J2-Pad23)*%
X158496000Y-130810000D03*
%TO.P,J2,22*%
%TO.N,Net-(J2-Pad22)*%
X155956000Y-133350000D03*
%TO.P,J2,21*%
%TO.N,Net-(J2-Pad21)*%
X155956000Y-130810000D03*
%TO.P,J2,20*%
%TO.N,Net-(J2-Pad20)*%
X153416000Y-133350000D03*
%TO.P,J2,19*%
%TO.N,Net-(J2-Pad19)*%
X153416000Y-130810000D03*
%TO.P,J2,18*%
%TO.N,Net-(J2-Pad18)*%
X150876000Y-133350000D03*
%TO.P,J2,17*%
%TO.N,Net-(J2-Pad17)*%
X150876000Y-130810000D03*
%TO.P,J2,16*%
%TO.N,Net-(J2-Pad16)*%
X148336000Y-133350000D03*
%TO.P,J2,15*%
%TO.N,Net-(J2-Pad15)*%
X148336000Y-130810000D03*
%TO.P,J2,14*%
%TO.N,Net-(J2-Pad14)*%
X145796000Y-133350000D03*
%TO.P,J2,13*%
%TO.N,Net-(J2-Pad13)*%
X145796000Y-130810000D03*
%TO.P,J2,12*%
%TO.N,SW_NAV_ENC_MHZ*%
X143256000Y-133350000D03*
%TO.P,J2,11*%
%TO.N,B_NAV_ENC_MHZ*%
X143256000Y-130810000D03*
%TO.P,J2,10*%
%TO.N,A_NAV_ENC_MHZ*%
X140716000Y-133350000D03*
%TO.P,J2,9*%
%TO.N,SW_NAV_ENC_KHZ*%
X140716000Y-130810000D03*
%TO.P,J2,8*%
%TO.N,B_NAV_ENC_KHZ*%
X138176000Y-133350000D03*
%TO.P,J2,7*%
%TO.N,A_NAV_ENC_KHZ*%
X138176000Y-130810000D03*
%TO.P,J2,6*%
%TO.N,NAV_SWAP*%
X135636000Y-133350000D03*
%TO.P,J2,5*%
%TO.N,Net-(J2-Pad5)*%
X135636000Y-130810000D03*
%TO.P,J2,4*%
%TO.N,CS_MAX*%
X133096000Y-133350000D03*
%TO.P,J2,3*%
%TO.N,CLK*%
X133096000Y-130810000D03*
%TO.P,J2,2*%
%TO.N,DOUT*%
X130556000Y-133350000D03*
D11*
%TO.P,J2,1*%
%TO.N,+5V*%
X130556000Y-130810000D03*
%TD*%
D12*
%TO.P,MCU1,40*%
%TO.N,Net-(MCU1-Pad40)*%
X158089000Y-123738000D03*
%TO.P,MCU1,2*%
%TO.N,VCC*%
X109829000Y-123738000D03*
%TO.P,MCU1,4*%
%TO.N,GND*%
X112369000Y-123738000D03*
%TO.P,MCU1,6*%
%TO.N,+5V*%
X114909000Y-123738000D03*
%TO.P,MCU1,8*%
%TO.N,Net-(MCU1-Pad8)*%
X117449000Y-123738000D03*
%TO.P,MCU1,10*%
%TO.N,Net-(MCU1-Pad10)*%
X119989000Y-123738000D03*
%TO.P,MCU1,12*%
%TO.N,Net-(MCU1-Pad12)*%
X122529000Y-123738000D03*
%TO.P,MCU1,14*%
%TO.N,Net-(MCU1-Pad14)*%
X125069000Y-123738000D03*
%TO.P,MCU1,16*%
%TO.N,Net-(MCU1-Pad16)*%
X127609000Y-123738000D03*
%TO.P,MCU1,18*%
%TO.N,Net-(MCU1-Pad18)*%
X130149000Y-123738000D03*
%TO.P,MCU1,20*%
%TO.N,Net-(MCU1-Pad20)*%
X132689000Y-123738000D03*
%TO.P,MCU1,22*%
%TO.N,A_COM_ENC_KHZ*%
X135229000Y-123738000D03*
%TO.P,MCU1,24*%
%TO.N,A_COM_ENC_MHZ*%
X137769000Y-123738000D03*
%TO.P,MCU1,26*%
%TO.N,A_NAV_ENC_KHZ*%
X140309000Y-123738000D03*
%TO.P,MCU1,28*%
%TO.N,A_NAV_ENC_MHZ*%
X142849000Y-123738000D03*
%TO.P,MCU1,30*%
%TO.N,COM_SWAP*%
X145389000Y-123738000D03*
%TO.P,MCU1,36*%
%TO.N,SW_NAV_ENC_MHZ*%
X153009000Y-123738000D03*
%TO.P,MCU1,34*%
%TO.N,NAV_SWAP*%
X150469000Y-123738000D03*
%TO.P,MCU1,32*%
%TO.N,SW_COM_ENC_MHZ*%
X147929000Y-123738000D03*
%TO.P,MCU1,42*%
%TO.N,Net-(MCU1-Pad42)*%
X160629000Y-123738000D03*
%TO.P,MCU1,38*%
%TO.N,CS_MAX*%
X155549000Y-123738000D03*
%TO.P,MCU1,1*%
%TO.N,VCC*%
X109859000Y-121088000D03*
%TO.P,MCU1,3*%
%TO.N,GND*%
X112399000Y-121088000D03*
%TO.P,MCU1,5*%
%TO.N,+5V*%
X114939000Y-121088000D03*
%TO.P,MCU1,7*%
%TO.N,Net-(MCU1-Pad7)*%
X117479000Y-121088000D03*
%TO.P,MCU1,9*%
%TO.N,Net-(MCU1-Pad9)*%
X120019000Y-121088000D03*
%TO.P,MCU1,11*%
%TO.N,Net-(MCU1-Pad11)*%
X122559000Y-121088000D03*
%TO.P,MCU1,13*%
%TO.N,Net-(MCU1-Pad13)*%
X125099000Y-121088000D03*
%TO.P,MCU1,15*%
%TO.N,Net-(MCU1-Pad15)*%
X127639000Y-121088000D03*
%TO.P,MCU1,17*%
%TO.N,Net-(MCU1-Pad17)*%
X130179000Y-121088000D03*
%TO.P,MCU1,19*%
%TO.N,Net-(MCU1-Pad19)*%
X132719000Y-121088000D03*
%TO.P,MCU1,21*%
%TO.N,Net-(MCU1-Pad21)*%
X135259000Y-121088000D03*
%TO.P,MCU1,23*%
%TO.N,B_COM_ENC_KHZ*%
X137799000Y-121088000D03*
%TO.P,MCU1,25*%
%TO.N,B_COM_ENC_MHZ*%
X140339000Y-121088000D03*
%TO.P,MCU1,27*%
%TO.N,B_NAV_ENC_KHZ*%
X142879000Y-121088000D03*
%TO.P,MCU1,29*%
%TO.N,B_NAV_ENC_MHZ*%
X145419000Y-121088000D03*
%TO.P,MCU1,31*%
%TO.N,SW_COM_ENC_KHZ*%
X147959000Y-121088000D03*
%TO.P,MCU1,33*%
%TO.N,Net-(MCU1-Pad33)*%
X150499000Y-121088000D03*
%TO.P,MCU1,35*%
%TO.N,SW_NAV_ENC_KHZ*%
X153039000Y-121088000D03*
%TO.P,MCU1,37*%
%TO.N,DIN*%
X155579000Y-121088000D03*
%TO.P,MCU1,39*%
%TO.N,CLK*%
X158119000Y-121088000D03*
%TO.P,MCU1,41*%
%TO.N,Net-(MCU1-Pad41)*%
X160659000Y-121088000D03*
D13*
%TO.P,MCU1,67*%
%TO.N,Net-(MCU1-Pad67)*%
X160715667Y-95815845D03*
D14*
%TO.P,MCU1,43*%
%TO.N,Net-(MCU1-Pad43)*%
X157145667Y-111055845D03*
%TO.P,MCU1,45*%
%TO.N,Net-(MCU1-Pad45)*%
X157145667Y-108515845D03*
D13*
%TO.P,MCU1,47*%
%TO.N,Net-(MCU1-Pad47)*%
X157145667Y-105975845D03*
D14*
%TO.P,MCU1,44*%
%TO.N,Net-(MCU1-Pad44)*%
X160715667Y-111055845D03*
D13*
%TO.P,MCU1,46*%
%TO.N,Net-(MCU1-Pad46)*%
X160715667Y-108515845D03*
%TO.P,MCU1,48*%
%TO.N,Net-(MCU1-Pad48)*%
X160715667Y-105975845D03*
%TO.P,MCU1,65*%
%TO.N,Net-(MCU1-Pad65)*%
X160715667Y-93275845D03*
%TO.P,MCU1,69*%
%TO.N,Net-(MCU1-Pad69)*%
X160715667Y-98355845D03*
%TO.P,MCU1,70*%
%TO.N,Net-(MCU1-Pad70)*%
X157145667Y-98355845D03*
%TO.P,MCU1,68*%
%TO.N,Net-(MCU1-Pad68)*%
X157145667Y-95815845D03*
%TO.P,MCU1,66*%
%TO.N,Net-(MCU1-Pad66)*%
X157145667Y-93275845D03*
D12*
%TO.P,MCU1,62*%
%TO.N,Net-(MCU1-Pad62)*%
X158309000Y-90458000D03*
%TO.P,MCU1,72*%
%TO.N,Net-(MCU1-Pad72)*%
X122749000Y-90458000D03*
%TO.P,MCU1,74*%
%TO.N,Net-(MCU1-Pad74)*%
X125289000Y-90458000D03*
%TO.P,MCU1,76*%
%TO.N,Net-(MCU1-Pad76)*%
X127829000Y-90458000D03*
%TO.P,MCU1,78*%
%TO.N,Net-(MCU1-Pad78)*%
X130369000Y-90458000D03*
%TO.P,MCU1,80*%
%TO.N,Net-(MCU1-Pad80)*%
X132909000Y-90458000D03*
%TO.P,MCU1,82*%
%TO.N,Net-(MCU1-Pad82)*%
X135449000Y-90458000D03*
%TO.P,MCU1,84*%
%TO.N,Net-(MCU1-Pad84)*%
X137989000Y-90458000D03*
%TO.P,MCU1,86*%
%TO.N,Net-(MCU1-Pad86)*%
X140529000Y-90458000D03*
%TO.P,MCU1,50*%
%TO.N,Net-(MCU1-Pad50)*%
X143069000Y-90458000D03*
%TO.P,MCU1,52*%
%TO.N,Net-(MCU1-Pad52)*%
X145609000Y-90458000D03*
%TO.P,MCU1,58*%
%TO.N,Net-(MCU1-Pad58)*%
X153229000Y-90458000D03*
%TO.P,MCU1,56*%
%TO.N,Net-(MCU1-Pad56)*%
X150689000Y-90458000D03*
%TO.P,MCU1,54*%
%TO.N,Net-(MCU1-Pad54)*%
X148149000Y-90458000D03*
%TO.P,MCU1,64*%
%TO.N,Net-(MCU1-Pad64)*%
X160849000Y-90458000D03*
%TO.P,MCU1,60*%
%TO.N,Net-(MCU1-Pad60)*%
X155769000Y-90458000D03*
%TO.P,MCU1,71*%
%TO.N,Net-(MCU1-Pad71)*%
X122779000Y-87808000D03*
%TO.P,MCU1,73*%
%TO.N,Net-(MCU1-Pad73)*%
X125319000Y-87808000D03*
%TO.P,MCU1,75*%
%TO.N,Net-(MCU1-Pad75)*%
X127859000Y-87808000D03*
%TO.P,MCU1,77*%
%TO.N,Net-(MCU1-Pad77)*%
X130399000Y-87808000D03*
%TO.P,MCU1,79*%
%TO.N,Net-(MCU1-Pad79)*%
X132939000Y-87808000D03*
%TO.P,MCU1,81*%
%TO.N,Net-(MCU1-Pad81)*%
X135479000Y-87808000D03*
%TO.P,MCU1,83*%
%TO.N,Net-(MCU1-Pad83)*%
X138019000Y-87808000D03*
%TO.P,MCU1,85*%
%TO.N,Net-(MCU1-Pad85)*%
X140559000Y-87808000D03*
%TO.P,MCU1,49*%
%TO.N,Net-(MCU1-Pad49)*%
X143099000Y-87808000D03*
%TO.P,MCU1,51*%
%TO.N,Net-(MCU1-Pad51)*%
X145639000Y-87808000D03*
%TO.P,MCU1,53*%
%TO.N,Net-(MCU1-Pad53)*%
X148179000Y-87808000D03*
%TO.P,MCU1,55*%
%TO.N,Net-(MCU1-Pad55)*%
X150719000Y-87808000D03*
%TO.P,MCU1,57*%
%TO.N,Net-(MCU1-Pad57)*%
X153259000Y-87808000D03*
%TO.P,MCU1,59*%
%TO.N,Net-(MCU1-Pad59)*%
X155799000Y-87808000D03*
%TO.P,MCU1,61*%
%TO.N,Net-(MCU1-Pad61)*%
X158339000Y-87808000D03*
%TO.P,MCU1,63*%
%TO.N,Net-(MCU1-Pad63)*%
X160879000Y-87808000D03*
%TD*%
D10*
%TO.P,J3,4*%
%TO.N,GND*%
X113919000Y-132207000D03*
%TO.P,J3,3*%
%TO.N,VCC*%
X116459000Y-132207000D03*
%TO.P,J3,2*%
%TO.N,GND*%
X118999000Y-132207000D03*
D11*
%TO.P,J3,1*%
%TO.N,+5V*%
X121539000Y-132207000D03*
%TD*%
D15*
%TO.N,NAV_SWAP*%
X138176000Y-125730000D03*
%TD*%
D16*
%TO.N,GND*%
X118648800Y-131731900D02*
X118648800Y-131393100D01*
X118648800Y-131393100D02*
X112369000Y-125113300D01*
X118999000Y-131731900D02*
X118648800Y-131731900D01*
X112369000Y-123738000D02*
X112369000Y-125113300D01*
X118999000Y-132207000D02*
X118999000Y-131731900D01*
X166878000Y-133350000D02*
X166116000Y-133350000D01*
X172212000Y-128016000D02*
X166878000Y-133350000D01*
X172212000Y-89535000D02*
X172212000Y-128016000D01*
X170815000Y-88138000D02*
X172212000Y-89535000D01*
X118648800Y-133446200D02*
X118648800Y-131731900D01*
X117475000Y-134620000D02*
X118648800Y-133446200D01*
X115189000Y-134620000D02*
X117475000Y-134620000D01*
X113919000Y-133350000D02*
X115189000Y-134620000D01*
X113919000Y-132207000D02*
X113919000Y-133350000D01*
X112369000Y-121118000D02*
X112369000Y-123738000D01*
X112399000Y-121088000D02*
X112369000Y-121118000D01*
%TO.N,A_COM_ENC_MHZ*%
X139069000Y-117725000D02*
X144488400Y-112305600D01*
D17*
X169582600Y-112305600D02*
X170815000Y-113538000D01*
D16*
X139069000Y-122438000D02*
X139069000Y-117725000D01*
X137769000Y-123738000D02*
X139069000Y-122438000D01*
D17*
X165062400Y-112305600D02*
X169582600Y-112305600D01*
D16*
X144488400Y-112305600D02*
X165062400Y-112305600D01*
%TO.N,SW_COM_ENC_KHZ*%
X147959000Y-119712700D02*
X147959000Y-121088000D01*
X150704700Y-116967000D02*
X147959000Y-119712700D01*
X161290000Y-116967000D02*
X150704700Y-116967000D01*
X164719000Y-113538000D02*
X161290000Y-116967000D01*
X168275000Y-113538000D02*
X164719000Y-113538000D01*
%TO.N,COM_SWAP*%
X148717000Y-125984000D02*
X146177000Y-125984000D01*
X149199000Y-125502000D02*
X148717000Y-125984000D01*
D17*
X149199000Y-119660000D02*
X149199000Y-125502000D01*
D16*
X145389000Y-125196000D02*
X145389000Y-123738000D01*
X146177000Y-125984000D02*
X145389000Y-125196000D01*
X150876000Y-117983000D02*
X149199000Y-119660000D01*
X165320000Y-117983000D02*
X150876000Y-117983000D01*
X167225000Y-119888000D02*
X165320000Y-117983000D01*
D17*
X169799000Y-119888000D02*
X167225000Y-119888000D01*
X170815000Y-118872000D02*
X169799000Y-119888000D01*
D16*
X170815000Y-118618000D02*
X170815000Y-118872000D01*
%TO.N,CS_MAX*%
X135235990Y-135489990D02*
X133945999Y-134199999D01*
X149606000Y-134366000D02*
X148482010Y-135489990D01*
D17*
X149606000Y-128778000D02*
X149606000Y-134366000D01*
D16*
X150622000Y-127762000D02*
X149606000Y-128778000D01*
X153797000Y-127762000D02*
X150622000Y-127762000D01*
X155549000Y-126010000D02*
X153797000Y-127762000D01*
X133945999Y-134199999D02*
X133096000Y-133350000D01*
X148482010Y-135489990D02*
X135235990Y-135489990D01*
X155549000Y-123738000D02*
X155549000Y-126010000D01*
D17*
%TO.N,DIN*%
X156819000Y-122328000D02*
X155579000Y-121088000D01*
X156819000Y-125577000D02*
X156819000Y-122328000D01*
D16*
X157861000Y-126619000D02*
X156819000Y-125577000D01*
X167894000Y-126619000D02*
X157861000Y-126619000D01*
X170815000Y-123698000D02*
X167894000Y-126619000D01*
%TO.N,+5V*%
X114909000Y-124561000D02*
X114909000Y-123738000D01*
X121539000Y-131191000D02*
X114909000Y-124561000D01*
X121539000Y-132207000D02*
X121539000Y-131191000D01*
X114909000Y-121118000D02*
X114909000Y-123738000D01*
X114939000Y-121088000D02*
X114909000Y-121118000D01*
D17*
%TO.N,SW_NAV_ENC_MHZ*%
X144526000Y-130282700D02*
X144526000Y-132080000D01*
X144526000Y-132080000D02*
X143256000Y-133350000D01*
D16*
X148062700Y-126746000D02*
X144526000Y-130282700D01*
X151351000Y-126746000D02*
X148062700Y-126746000D01*
X153009000Y-125088000D02*
X151351000Y-126746000D01*
X153009000Y-123738000D02*
X153009000Y-125088000D01*
%TO.N,B_NAV_ENC_MHZ*%
X143256000Y-130810000D02*
X143256000Y-129584700D01*
X143256000Y-129584700D02*
X144104600Y-128736100D01*
X144104600Y-128736100D02*
X144104600Y-122402400D01*
X144104600Y-122402400D02*
X145419000Y-121088000D01*
D17*
%TO.N,A_NAV_ENC_MHZ*%
X142849000Y-125113300D02*
X142849000Y-123738000D01*
X140716000Y-133350000D02*
X140843000Y-133350000D01*
X140843000Y-133350000D02*
X141986000Y-132207000D01*
X141986000Y-132207000D02*
X141986000Y-125976300D01*
X141986000Y-125976300D02*
X142849000Y-125113300D01*
%TO.N,SW_NAV_ENC_KHZ*%
X154305000Y-122354000D02*
X153039000Y-121088000D01*
X154305000Y-125857000D02*
X154305000Y-122354000D01*
X152900011Y-127261989D02*
X154305000Y-125857000D01*
X147066000Y-129794000D02*
X149598011Y-127261989D01*
X147066000Y-134493000D02*
X147066000Y-129794000D01*
X146619021Y-134939979D02*
X147066000Y-134493000D01*
X149598011Y-127261989D02*
X152900011Y-127261989D01*
X140019979Y-134939979D02*
X146619021Y-134939979D01*
X139446000Y-134366000D02*
X140019979Y-134939979D01*
X140716000Y-130911582D02*
X139446000Y-132181582D01*
X139446000Y-132181582D02*
X139446000Y-134366000D01*
X140716000Y-130810000D02*
X140716000Y-130911582D01*
%TO.N,B_NAV_ENC_KHZ*%
X139439700Y-131410050D02*
X138176000Y-132673750D01*
X139439700Y-128522600D02*
X139439700Y-131410050D01*
D16*
X141323300Y-126639000D02*
X139439700Y-128522600D01*
X142879000Y-121088000D02*
X141323300Y-122643700D01*
X141323300Y-122643700D02*
X141323300Y-126639000D01*
X138176000Y-132673750D02*
X138176000Y-133350000D01*
%TO.N,A_NAV_ENC_KHZ*%
X138176000Y-130810000D02*
X138176000Y-127246300D01*
X138176000Y-127246300D02*
X140309000Y-125113300D01*
X140309000Y-123738000D02*
X140309000Y-125113300D01*
D17*
%TO.N,NAV_SWAP*%
X135636000Y-133350000D02*
X136906000Y-132080000D01*
X136906000Y-132080000D02*
X136906000Y-127000000D01*
D16*
X136906000Y-127000000D02*
X138176000Y-125730000D01*
%TO.N,VCC*%
X109829000Y-125113300D02*
X109829000Y-123738000D01*
X109829000Y-125704000D02*
X109829000Y-125113300D01*
X116332000Y-132207000D02*
X109829000Y-125704000D01*
X116459000Y-132207000D02*
X116332000Y-132207000D01*
%TD*%
D18*
%TO.N,GND*%
X172060001Y-87335364D02*
X171912588Y-87137731D01*
X171696355Y-86942822D01*
X171446252Y-86793843D01*
X171171891Y-86696519D01*
X170942000Y-86817186D01*
X170942000Y-88011000D01*
X170962000Y-88011000D01*
X170962000Y-88265000D01*
X170942000Y-88265000D01*
X170942000Y-88285000D01*
X170688000Y-88285000D01*
X170688000Y-88265000D01*
X170668000Y-88265000D01*
X170668000Y-88011000D01*
X170688000Y-88011000D01*
X170688000Y-86817186D01*
X170458109Y-86696519D01*
X170183748Y-86793843D01*
X169933645Y-86942822D01*
X169717412Y-87137731D01*
X169546100Y-87367406D01*
X169428475Y-87191368D01*
X169221632Y-86984525D01*
X168978411Y-86822010D01*
X168708158Y-86710068D01*
X168421260Y-86653000D01*
X168128740Y-86653000D01*
X167841842Y-86710068D01*
X167571589Y-86822010D01*
X167328368Y-86984525D01*
X167121525Y-87191368D01*
X166959010Y-87434589D01*
X166847068Y-87704842D01*
X166790000Y-87991740D01*
X166790000Y-88284260D01*
X166847068Y-88571158D01*
X166959010Y-88841411D01*
X167121525Y-89084632D01*
X167328368Y-89291475D01*
X167502760Y-89408000D01*
X167328368Y-89524525D01*
X167121525Y-89731368D01*
X166959010Y-89974589D01*
X166847068Y-90244842D01*
X166790000Y-90531740D01*
X166790000Y-90824260D01*
X166847068Y-91111158D01*
X166959010Y-91381411D01*
X167121525Y-91624632D01*
X167328368Y-91831475D01*
X167502760Y-91948000D01*
X167328368Y-92064525D01*
X167121525Y-92271368D01*
X166959010Y-92514589D01*
X166847068Y-92784842D01*
X166790000Y-93071740D01*
X166790000Y-93364260D01*
X166847068Y-93651158D01*
X166959010Y-93921411D01*
X167121525Y-94164632D01*
X167328368Y-94371475D01*
X167502760Y-94488000D01*
X167328368Y-94604525D01*
X167121525Y-94811368D01*
X166959010Y-95054589D01*
X166847068Y-95324842D01*
X166790000Y-95611740D01*
X166790000Y-95904260D01*
X166847068Y-96191158D01*
X166959010Y-96461411D01*
X167121525Y-96704632D01*
X167328368Y-96911475D01*
X167502760Y-97028000D01*
X167328368Y-97144525D01*
X167121525Y-97351368D01*
X166959010Y-97594589D01*
X166847068Y-97864842D01*
X166790000Y-98151740D01*
X166790000Y-98444260D01*
X166847068Y-98731158D01*
X166959010Y-99001411D01*
X167121525Y-99244632D01*
X167328368Y-99451475D01*
X167502760Y-99568000D01*
X167328368Y-99684525D01*
X167121525Y-99891368D01*
X166959010Y-100134589D01*
X166847068Y-100404842D01*
X166790000Y-100691740D01*
X166790000Y-100984260D01*
X166847068Y-101271158D01*
X166959010Y-101541411D01*
X167121525Y-101784632D01*
X167328368Y-101991475D01*
X167502760Y-102108000D01*
X167328368Y-102224525D01*
X167121525Y-102431368D01*
X166959010Y-102674589D01*
X166847068Y-102944842D01*
X166790000Y-103231740D01*
X166790000Y-103524260D01*
X166847068Y-103811158D01*
X166959010Y-104081411D01*
X167121525Y-104324632D01*
X167328368Y-104531475D01*
X167502760Y-104648000D01*
X167328368Y-104764525D01*
X167121525Y-104971368D01*
X166959010Y-105214589D01*
X166847068Y-105484842D01*
X166790000Y-105771740D01*
X166790000Y-106064260D01*
X166847068Y-106351158D01*
X166959010Y-106621411D01*
X167121525Y-106864632D01*
X167328368Y-107071475D01*
X167502760Y-107188000D01*
X167328368Y-107304525D01*
X167121525Y-107511368D01*
X166959010Y-107754589D01*
X166847068Y-108024842D01*
X166790000Y-108311740D01*
X166790000Y-108604260D01*
X166847068Y-108891158D01*
X166959010Y-109161411D01*
X167121525Y-109404632D01*
X167328368Y-109611475D01*
X167502760Y-109728000D01*
X167328368Y-109844525D01*
X167121525Y-110051368D01*
X166959010Y-110294589D01*
X166847068Y-110564842D01*
X166790000Y-110851740D01*
X166790000Y-111144260D01*
X166847068Y-111431158D01*
X166894471Y-111545600D01*
X165347379Y-111545600D01*
X165221188Y-111507320D01*
X165102191Y-111495600D01*
X161754186Y-111495600D01*
X161776508Y-111453838D01*
X161835691Y-111258740D01*
X161855674Y-111055845D01*
X161835691Y-110852950D01*
X161776508Y-110657852D01*
X161680401Y-110478048D01*
X161551063Y-110320449D01*
X161393464Y-110191111D01*
X161213660Y-110095004D01*
X161018562Y-110035821D01*
X160866505Y-110020845D01*
X160564829Y-110020845D01*
X160412772Y-110035821D01*
X160217674Y-110095004D01*
X160037870Y-110191111D01*
X159880271Y-110320449D01*
X159750933Y-110478048D01*
X159654826Y-110657852D01*
X159595643Y-110852950D01*
X159575660Y-111055845D01*
X159595643Y-111258740D01*
X159654826Y-111453838D01*
X159677148Y-111495600D01*
X158184186Y-111495600D01*
X158206508Y-111453838D01*
X158265691Y-111258740D01*
X158285674Y-111055845D01*
X158265691Y-110852950D01*
X158206508Y-110657852D01*
X158110401Y-110478048D01*
X157981063Y-110320449D01*
X157823464Y-110191111D01*
X157643660Y-110095004D01*
X157448562Y-110035821D01*
X157296505Y-110020845D01*
X156994829Y-110020845D01*
X156842772Y-110035821D01*
X156647674Y-110095004D01*
X156467870Y-110191111D01*
X156310271Y-110320449D01*
X156180933Y-110478048D01*
X156084826Y-110657852D01*
X156025643Y-110852950D01*
X156005660Y-111055845D01*
X156025643Y-111258740D01*
X156084826Y-111453838D01*
X156107148Y-111495600D01*
X144528188Y-111495600D01*
X144488400Y-111491681D01*
X144448612Y-111495600D01*
X144448609Y-111495600D01*
X144329612Y-111507320D01*
X144176927Y-111553637D01*
X144111424Y-111588649D01*
X144036210Y-111628851D01*
X144001493Y-111657343D01*
X143912872Y-111730072D01*
X143887500Y-111760988D01*
X138524383Y-117124105D01*
X138493473Y-117149472D01*
X138468108Y-117180380D01*
X138392251Y-117272811D01*
X138333832Y-117382108D01*
X138317038Y-117413527D01*
X138271696Y-117563000D01*
X138270721Y-117566213D01*
X138255081Y-117725000D01*
X138259001Y-117764798D01*
X138259001Y-119536969D01*
X138041102Y-119470870D01*
X137799000Y-119447025D01*
X137556899Y-119470870D01*
X137324100Y-119541489D01*
X137109552Y-119656167D01*
X136921499Y-119810498D01*
X136767168Y-119998551D01*
X136652489Y-120213099D01*
X136581870Y-120445898D01*
X136564000Y-120627335D01*
X136564000Y-121548664D01*
X136581870Y-121730101D01*
X136652489Y-121962900D01*
X136767167Y-122177448D01*
X136921498Y-122365502D01*
X136964375Y-122400690D01*
X136891499Y-122460498D01*
X136737168Y-122648551D01*
X136622489Y-122863099D01*
X136551870Y-123095898D01*
X136534000Y-123277335D01*
X136534000Y-124198664D01*
X136551870Y-124380101D01*
X136622489Y-124612900D01*
X136737167Y-124827448D01*
X136891498Y-125015502D01*
X137079551Y-125169833D01*
X137250013Y-125260946D01*
X137180774Y-125428102D01*
X137143129Y-125617359D01*
X136305108Y-126455380D01*
X136229251Y-126547811D01*
X136154038Y-126688527D01*
X136107721Y-126841213D01*
X136092081Y-127000000D01*
X136107721Y-127158787D01*
X136146001Y-127284978D01*
X136146001Y-129413897D01*
X136069158Y-129382068D01*
X135782260Y-129325000D01*
X135489740Y-129325000D01*
X135202842Y-129382068D01*
X134932589Y-129494010D01*
X134689368Y-129656525D01*
X134482525Y-129863368D01*
X134366000Y-130037760D01*
X134249475Y-129863368D01*
X134042632Y-129656525D01*
X133799411Y-129494010D01*
X133529158Y-129382068D01*
X133242260Y-129325000D01*
X132949740Y-129325000D01*
X132662842Y-129382068D01*
X132392589Y-129494010D01*
X132149368Y-129656525D01*
X132017513Y-129788380D01*
X131995502Y-129715820D01*
X131936537Y-129605506D01*
X131857185Y-129508815D01*
X131760494Y-129429463D01*
X131650180Y-129370498D01*
X131530482Y-129334188D01*
X131406000Y-129321928D01*
X129706000Y-129321928D01*
X129581518Y-129334188D01*
X129461820Y-129370498D01*
X129351506Y-129429463D01*
X129254815Y-129508815D01*
X129175463Y-129605506D01*
X129116498Y-129715820D01*
X129080188Y-129835518D01*
X129067928Y-129960000D01*
X129067928Y-131660000D01*
X129080188Y-131784482D01*
X129116498Y-131904180D01*
X129175463Y-132014494D01*
X129254815Y-132111185D01*
X129351506Y-132190537D01*
X129461820Y-132249502D01*
X129534380Y-132271513D01*
X129402525Y-132403368D01*
X129240010Y-132646589D01*
X129128068Y-132916842D01*
X129071000Y-133203740D01*
X129071000Y-133496260D01*
X129128068Y-133783158D01*
X129240010Y-134053411D01*
X129402525Y-134296632D01*
X129609368Y-134503475D01*
X129852589Y-134665990D01*
X130122842Y-134777932D01*
X130409740Y-134835000D01*
X130702260Y-134835000D01*
X130989158Y-134777932D01*
X131259411Y-134665990D01*
X131502632Y-134503475D01*
X131709475Y-134296632D01*
X131826000Y-134122240D01*
X131942525Y-134296632D01*
X132149368Y-134503475D01*
X132392589Y-134665990D01*
X132662842Y-134777932D01*
X132949740Y-134835000D01*
X133242260Y-134835000D01*
X133403429Y-134802941D01*
X133830488Y-135230000D01*
X108610000Y-135230000D01*
X108610000Y-132563891D01*
X112477519Y-132563891D01*
X112574843Y-132838252D01*
X112723822Y-133088355D01*
X112918731Y-133304588D01*
X113152080Y-133478641D01*
X113414901Y-133603825D01*
X113562110Y-133648476D01*
X113792000Y-133527155D01*
X113792000Y-132334000D01*
X112598186Y-132334000D01*
X112477519Y-132563891D01*
X108610000Y-132563891D01*
X108610000Y-124361115D01*
X108611870Y-124380101D01*
X108682489Y-124612900D01*
X108797167Y-124827448D01*
X108951498Y-125015502D01*
X109019000Y-125070899D01*
X109019000Y-125664212D01*
X109015081Y-125704000D01*
X109019000Y-125743788D01*
X109019000Y-125743790D01*
X109030720Y-125862787D01*
X109077037Y-126015472D01*
X109095381Y-126049791D01*
X109152251Y-126156189D01*
X109162591Y-126168788D01*
X109253472Y-126279528D01*
X109284388Y-126304900D01*
X113791998Y-130812511D01*
X113791998Y-130886844D01*
X113562110Y-130765524D01*
X113414901Y-130810175D01*
X113152080Y-130935359D01*
X112918731Y-131109412D01*
X112723822Y-131325645D01*
X112574843Y-131575748D01*
X112477519Y-131850109D01*
X112598186Y-132080000D01*
X113792000Y-132080000D01*
X113792000Y-132060000D01*
X114046000Y-132060000D01*
X114046000Y-132080000D01*
X114066000Y-132080000D01*
X114066000Y-132334000D01*
X114046000Y-132334000D01*
X114046000Y-133527155D01*
X114275890Y-133648476D01*
X114423099Y-133603825D01*
X114685920Y-133478641D01*
X114919269Y-133304588D01*
X115114178Y-133088355D01*
X115183805Y-132971466D01*
X115305525Y-133153632D01*
X115512368Y-133360475D01*
X115755589Y-133522990D01*
X116025842Y-133634932D01*
X116312740Y-133692000D01*
X116605260Y-133692000D01*
X116892158Y-133634932D01*
X117162411Y-133522990D01*
X117405632Y-133360475D01*
X117612475Y-133153632D01*
X117734195Y-132971466D01*
X117803822Y-133088355D01*
X117998731Y-133304588D01*
X118232080Y-133478641D01*
X118494901Y-133603825D01*
X118642110Y-133648476D01*
X118872000Y-133527155D01*
X118872000Y-132334000D01*
X118852000Y-132334000D01*
X118852000Y-132080000D01*
X118872000Y-132080000D01*
X118872000Y-130886845D01*
X118642110Y-130765524D01*
X118494901Y-130810175D01*
X118232080Y-130935359D01*
X117998731Y-131109412D01*
X117803822Y-131325645D01*
X117734195Y-131442534D01*
X117612475Y-131260368D01*
X117405632Y-131053525D01*
X117162411Y-130891010D01*
X116892158Y-130779068D01*
X116605260Y-130722000D01*
X116312740Y-130722000D01*
X116045642Y-130775129D01*
X110639000Y-125368488D01*
X110639000Y-125070899D01*
X110706502Y-125015502D01*
X110860833Y-124827449D01*
X110975511Y-124612901D01*
X111046130Y-124380102D01*
X111064000Y-124198665D01*
X111064000Y-123865000D01*
X111134000Y-123865000D01*
X111134000Y-124265000D01*
X111182507Y-124503496D01*
X111276610Y-124727946D01*
X111412693Y-124929725D01*
X111585526Y-125101078D01*
X111788467Y-125235421D01*
X112013718Y-125327591D01*
X112051391Y-125331462D01*
X112242000Y-125206731D01*
X112242000Y-123865000D01*
X112496000Y-123865000D01*
X112496000Y-125206731D01*
X112686609Y-125331462D01*
X112724282Y-125327591D01*
X112949533Y-125235421D01*
X113152474Y-125101078D01*
X113325307Y-124929725D01*
X113461390Y-124727946D01*
X113555493Y-124503496D01*
X113604000Y-124265000D01*
X113604000Y-123865000D01*
X112496000Y-123865000D01*
X112242000Y-123865000D01*
X111134000Y-123865000D01*
X111064000Y-123865000D01*
X111064000Y-123277336D01*
X111057467Y-123211000D01*
X111134000Y-123211000D01*
X111134000Y-123611000D01*
X112242000Y-123611000D01*
X112242000Y-122576362D01*
X112272000Y-122556731D01*
X112272000Y-122269269D01*
X112496000Y-122269269D01*
X112496000Y-123611000D01*
X113604000Y-123611000D01*
X113604000Y-123277335D01*
X113674000Y-123277335D01*
X113674000Y-124198664D01*
X113691870Y-124380101D01*
X113762489Y-124612900D01*
X113877167Y-124827448D01*
X114031498Y-125015502D01*
X114219551Y-125169833D01*
X114434099Y-125284511D01*
X114510034Y-125307546D01*
X120179437Y-130976949D01*
X120158463Y-131002506D01*
X120099498Y-131112820D01*
X120075034Y-131193466D01*
X119999269Y-131109412D01*
X119765920Y-130935359D01*
X119503099Y-130810175D01*
X119355890Y-130765524D01*
X119126000Y-130886845D01*
X119126000Y-132080000D01*
X119146000Y-132080000D01*
X119146000Y-132334000D01*
X119126000Y-132334000D01*
X119126000Y-133527155D01*
X119355890Y-133648476D01*
X119503099Y-133603825D01*
X119765920Y-133478641D01*
X119999269Y-133304588D01*
X120075034Y-133220534D01*
X120099498Y-133301180D01*
X120158463Y-133411494D01*
X120237815Y-133508185D01*
X120334506Y-133587537D01*
X120444820Y-133646502D01*
X120564518Y-133682812D01*
X120689000Y-133695072D01*
X122389000Y-133695072D01*
X122513482Y-133682812D01*
X122633180Y-133646502D01*
X122743494Y-133587537D01*
X122840185Y-133508185D01*
X122919537Y-133411494D01*
X122978502Y-133301180D01*
X123014812Y-133181482D01*
X123027072Y-133057000D01*
X123027072Y-131357000D01*
X123014812Y-131232518D01*
X122978502Y-131112820D01*
X122919537Y-131002506D01*
X122840185Y-130905815D01*
X122743494Y-130826463D01*
X122633180Y-130767498D01*
X122513482Y-130731188D01*
X122389000Y-130718928D01*
X122199432Y-130718928D01*
X122139893Y-130646380D01*
X122114528Y-130615472D01*
X122083618Y-130590105D01*
X116067358Y-124573846D01*
X116126130Y-124380102D01*
X116144000Y-124198665D01*
X116144000Y-123277336D01*
X116144000Y-123277335D01*
X116214000Y-123277335D01*
X116214000Y-124198664D01*
X116231870Y-124380101D01*
X116302489Y-124612900D01*
X116417167Y-124827448D01*
X116571498Y-125015502D01*
X116759551Y-125169833D01*
X116974099Y-125284511D01*
X117206898Y-125355130D01*
X117449000Y-125378975D01*
X117691101Y-125355130D01*
X117923900Y-125284511D01*
X118138448Y-125169833D01*
X118326502Y-125015502D01*
X118480833Y-124827449D01*
X118595511Y-124612901D01*
X118666130Y-124380102D01*
X118684000Y-124198665D01*
X118684000Y-123277336D01*
X118684000Y-123277335D01*
X118754000Y-123277335D01*
X118754000Y-124198664D01*
X118771870Y-124380101D01*
X118842489Y-124612900D01*
X118957167Y-124827448D01*
X119111498Y-125015502D01*
X119299551Y-125169833D01*
X119514099Y-125284511D01*
X119746898Y-125355130D01*
X119989000Y-125378975D01*
X120231101Y-125355130D01*
X120463900Y-125284511D01*
X120678448Y-125169833D01*
X120866502Y-125015502D01*
X121020833Y-124827449D01*
X121135511Y-124612901D01*
X121206130Y-124380102D01*
X121224000Y-124198665D01*
X121224000Y-123277336D01*
X121224000Y-123277335D01*
X121294000Y-123277335D01*
X121294000Y-124198664D01*
X121311870Y-124380101D01*
X121382489Y-124612900D01*
X121497167Y-124827448D01*
X121651498Y-125015502D01*
X121839551Y-125169833D01*
X122054099Y-125284511D01*
X122286898Y-125355130D01*
X122529000Y-125378975D01*
X122771101Y-125355130D01*
X123003900Y-125284511D01*
X123218448Y-125169833D01*
X123406502Y-125015502D01*
X123560833Y-124827449D01*
X123675511Y-124612901D01*
X123746130Y-124380102D01*
X123764000Y-124198665D01*
X123764000Y-123277336D01*
X123764000Y-123277335D01*
X123834000Y-123277335D01*
X123834000Y-124198664D01*
X123851870Y-124380101D01*
X123922489Y-124612900D01*
X124037167Y-124827448D01*
X124191498Y-125015502D01*
X124379551Y-125169833D01*
X124594099Y-125284511D01*
X124826898Y-125355130D01*
X125069000Y-125378975D01*
X125311101Y-125355130D01*
X125543900Y-125284511D01*
X125758448Y-125169833D01*
X125946502Y-125015502D01*
X126100833Y-124827449D01*
X126215511Y-124612901D01*
X126286130Y-124380102D01*
X126304000Y-124198665D01*
X126304000Y-123277336D01*
X126304000Y-123277335D01*
X126374000Y-123277335D01*
X126374000Y-124198664D01*
X126391870Y-124380101D01*
X126462489Y-124612900D01*
X126577167Y-124827448D01*
X126731498Y-125015502D01*
X126919551Y-125169833D01*
X127134099Y-125284511D01*
X127366898Y-125355130D01*
X127609000Y-125378975D01*
X127851101Y-125355130D01*
X128083900Y-125284511D01*
X128298448Y-125169833D01*
X128486502Y-125015502D01*
X128640833Y-124827449D01*
X128755511Y-124612901D01*
X128826130Y-124380102D01*
X128844000Y-124198665D01*
X128844000Y-123277336D01*
X128844000Y-123277335D01*
X128914000Y-123277335D01*
X128914000Y-124198664D01*
X128931870Y-124380101D01*
X129002489Y-124612900D01*
X129117167Y-124827448D01*
X129271498Y-125015502D01*
X129459551Y-125169833D01*
X129674099Y-125284511D01*
X129906898Y-125355130D01*
X130149000Y-125378975D01*
X130391101Y-125355130D01*
X130623900Y-125284511D01*
X130838448Y-125169833D01*
X131026502Y-125015502D01*
X131180833Y-124827449D01*
X131295511Y-124612901D01*
X131366130Y-124380102D01*
X131384000Y-124198665D01*
X131384000Y-123277336D01*
X131384000Y-123277335D01*
X131454000Y-123277335D01*
X131454000Y-124198664D01*
X131471870Y-124380101D01*
X131542489Y-124612900D01*
X131657167Y-124827448D01*
X131811498Y-125015502D01*
X131999551Y-125169833D01*
X132214099Y-125284511D01*
X132446898Y-125355130D01*
X132689000Y-125378975D01*
X132931101Y-125355130D01*
X133163900Y-125284511D01*
X133378448Y-125169833D01*
X133566502Y-125015502D01*
X133720833Y-124827449D01*
X133835511Y-124612901D01*
X133906130Y-124380102D01*
X133924000Y-124198665D01*
X133924000Y-123277336D01*
X133924000Y-123277335D01*
X133994000Y-123277335D01*
X133994000Y-124198664D01*
X134011870Y-124380101D01*
X134082489Y-124612900D01*
X134197167Y-124827448D01*
X134351498Y-125015502D01*
X134539551Y-125169833D01*
X134754099Y-125284511D01*
X134986898Y-125355130D01*
X135229000Y-125378975D01*
X135471101Y-125355130D01*
X135703900Y-125284511D01*
X135918448Y-125169833D01*
X136106502Y-125015502D01*
X136260833Y-124827449D01*
X136375511Y-124612901D01*
X136446130Y-124380102D01*
X136464000Y-124198665D01*
X136464000Y-123277336D01*
X136446130Y-123095899D01*
X136375511Y-122863099D01*
X136260833Y-122648551D01*
X136106502Y-122460498D01*
X136063625Y-122425310D01*
X136136502Y-122365502D01*
X136290833Y-122177449D01*
X136405511Y-121962901D01*
X136476130Y-121730102D01*
X136494000Y-121548665D01*
X136494000Y-120627336D01*
X136476130Y-120445899D01*
X136405511Y-120213099D01*
X136290833Y-119998551D01*
X136136502Y-119810498D01*
X135948449Y-119656167D01*
X135733901Y-119541489D01*
X135501102Y-119470870D01*
X135259000Y-119447025D01*
X135016899Y-119470870D01*
X134784100Y-119541489D01*
X134569552Y-119656167D01*
X134381499Y-119810498D01*
X134227168Y-119998551D01*
X134112489Y-120213099D01*
X134041870Y-120445898D01*
X134024000Y-120627335D01*
X134024000Y-121548664D01*
X134041870Y-121730101D01*
X134112489Y-121962900D01*
X134227167Y-122177448D01*
X134381498Y-122365502D01*
X134424375Y-122400690D01*
X134351499Y-122460498D01*
X134197168Y-122648551D01*
X134082489Y-122863099D01*
X134011870Y-123095898D01*
X133994000Y-123277335D01*
X133924000Y-123277335D01*
X133906130Y-123095899D01*
X133835511Y-122863099D01*
X133720833Y-122648551D01*
X133566502Y-122460498D01*
X133523625Y-122425310D01*
X133596502Y-122365502D01*
X133750833Y-122177449D01*
X133865511Y-121962901D01*
X133936130Y-121730102D01*
X133954000Y-121548665D01*
X133954000Y-120627336D01*
X133936130Y-120445899D01*
X133865511Y-120213099D01*
X133750833Y-119998551D01*
X133596502Y-119810498D01*
X133408449Y-119656167D01*
X133193901Y-119541489D01*
X132961102Y-119470870D01*
X132719000Y-119447025D01*
X132476899Y-119470870D01*
X132244100Y-119541489D01*
X132029552Y-119656167D01*
X131841499Y-119810498D01*
X131687168Y-119998551D01*
X131572489Y-120213099D01*
X131501870Y-120445898D01*
X131484000Y-120627335D01*
X131484000Y-121548664D01*
X131501870Y-121730101D01*
X131572489Y-121962900D01*
X131687167Y-122177448D01*
X131841498Y-122365502D01*
X131884375Y-122400690D01*
X131811499Y-122460498D01*
X131657168Y-122648551D01*
X131542489Y-122863099D01*
X131471870Y-123095898D01*
X131454000Y-123277335D01*
X131384000Y-123277335D01*
X131366130Y-123095899D01*
X131295511Y-122863099D01*
X131180833Y-122648551D01*
X131026502Y-122460498D01*
X130983625Y-122425310D01*
X131056502Y-122365502D01*
X131210833Y-122177449D01*
X131325511Y-121962901D01*
X131396130Y-121730102D01*
X131414000Y-121548665D01*
X131414000Y-120627336D01*
X131396130Y-120445899D01*
X131325511Y-120213099D01*
X131210833Y-119998551D01*
X131056502Y-119810498D01*
X130868449Y-119656167D01*
X130653901Y-119541489D01*
X130421102Y-119470870D01*
X130179000Y-119447025D01*
X129936899Y-119470870D01*
X129704100Y-119541489D01*
X129489552Y-119656167D01*
X129301499Y-119810498D01*
X129147168Y-119998551D01*
X129032489Y-120213099D01*
X128961870Y-120445898D01*
X128944000Y-120627335D01*
X128944000Y-121548664D01*
X128961870Y-121730101D01*
X129032489Y-121962900D01*
X129147167Y-122177448D01*
X129301498Y-122365502D01*
X129344375Y-122400690D01*
X129271499Y-122460498D01*
X129117168Y-122648551D01*
X129002489Y-122863099D01*
X128931870Y-123095898D01*
X128914000Y-123277335D01*
X128844000Y-123277335D01*
X128826130Y-123095899D01*
X128755511Y-122863099D01*
X128640833Y-122648551D01*
X128486502Y-122460498D01*
X128443625Y-122425310D01*
X128516502Y-122365502D01*
X128670833Y-122177449D01*
X128785511Y-121962901D01*
X128856130Y-121730102D01*
X128874000Y-121548665D01*
X128874000Y-120627336D01*
X128856130Y-120445899D01*
X128785511Y-120213099D01*
X128670833Y-119998551D01*
X128516502Y-119810498D01*
X128328449Y-119656167D01*
X128113901Y-119541489D01*
X127881102Y-119470870D01*
X127639000Y-119447025D01*
X127396899Y-119470870D01*
X127164100Y-119541489D01*
X126949552Y-119656167D01*
X126761499Y-119810498D01*
X126607168Y-119998551D01*
X126492489Y-120213099D01*
X126421870Y-120445898D01*
X126404000Y-120627335D01*
X126404000Y-121548664D01*
X126421870Y-121730101D01*
X126492489Y-121962900D01*
X126607167Y-122177448D01*
X126761498Y-122365502D01*
X126804375Y-122400690D01*
X126731499Y-122460498D01*
X126577168Y-122648551D01*
X126462489Y-122863099D01*
X126391870Y-123095898D01*
X126374000Y-123277335D01*
X126304000Y-123277335D01*
X126286130Y-123095899D01*
X126215511Y-122863099D01*
X126100833Y-122648551D01*
X125946502Y-122460498D01*
X125903625Y-122425310D01*
X125976502Y-122365502D01*
X126130833Y-122177449D01*
X126245511Y-121962901D01*
X126316130Y-121730102D01*
X126334000Y-121548665D01*
X126334000Y-120627336D01*
X126316130Y-120445899D01*
X126245511Y-120213099D01*
X126130833Y-119998551D01*
X125976502Y-119810498D01*
X125788449Y-119656167D01*
X125573901Y-119541489D01*
X125341102Y-119470870D01*
X125099000Y-119447025D01*
X124856899Y-119470870D01*
X124624100Y-119541489D01*
X124409552Y-119656167D01*
X124221499Y-119810498D01*
X124067168Y-119998551D01*
X123952489Y-120213099D01*
X123881870Y-120445898D01*
X123864000Y-120627335D01*
X123864000Y-121548664D01*
X123881870Y-121730101D01*
X123952489Y-121962900D01*
X124067167Y-122177448D01*
X124221498Y-122365502D01*
X124264375Y-122400690D01*
X124191499Y-122460498D01*
X124037168Y-122648551D01*
X123922489Y-122863099D01*
X123851870Y-123095898D01*
X123834000Y-123277335D01*
X123764000Y-123277335D01*
X123746130Y-123095899D01*
X123675511Y-122863099D01*
X123560833Y-122648551D01*
X123406502Y-122460498D01*
X123363625Y-122425310D01*
X123436502Y-122365502D01*
X123590833Y-122177449D01*
X123705511Y-121962901D01*
X123776130Y-121730102D01*
X123794000Y-121548665D01*
X123794000Y-120627336D01*
X123776130Y-120445899D01*
X123705511Y-120213099D01*
X123590833Y-119998551D01*
X123436502Y-119810498D01*
X123248449Y-119656167D01*
X123033901Y-119541489D01*
X122801102Y-119470870D01*
X122559000Y-119447025D01*
X122316899Y-119470870D01*
X122084100Y-119541489D01*
X121869552Y-119656167D01*
X121681499Y-119810498D01*
X121527168Y-119998551D01*
X121412489Y-120213099D01*
X121341870Y-120445898D01*
X121324000Y-120627335D01*
X121324000Y-121548664D01*
X121341870Y-121730101D01*
X121412489Y-121962900D01*
X121527167Y-122177448D01*
X121681498Y-122365502D01*
X121724375Y-122400690D01*
X121651499Y-122460498D01*
X121497168Y-122648551D01*
X121382489Y-122863099D01*
X121311870Y-123095898D01*
X121294000Y-123277335D01*
X121224000Y-123277335D01*
X121206130Y-123095899D01*
X121135511Y-122863099D01*
X121020833Y-122648551D01*
X120866502Y-122460498D01*
X120823625Y-122425310D01*
X120896502Y-122365502D01*
X121050833Y-122177449D01*
X121165511Y-121962901D01*
X121236130Y-121730102D01*
X121254000Y-121548665D01*
X121254000Y-120627336D01*
X121236130Y-120445899D01*
X121165511Y-120213099D01*
X121050833Y-119998551D01*
X120896502Y-119810498D01*
X120708449Y-119656167D01*
X120493901Y-119541489D01*
X120261102Y-119470870D01*
X120019000Y-119447025D01*
X119776899Y-119470870D01*
X119544100Y-119541489D01*
X119329552Y-119656167D01*
X119141499Y-119810498D01*
X118987168Y-119998551D01*
X118872489Y-120213099D01*
X118801870Y-120445898D01*
X118784000Y-120627335D01*
X118784000Y-121548664D01*
X118801870Y-121730101D01*
X118872489Y-121962900D01*
X118987167Y-122177448D01*
X119141498Y-122365502D01*
X119184375Y-122400690D01*
X119111499Y-122460498D01*
X118957168Y-122648551D01*
X118842489Y-122863099D01*
X118771870Y-123095898D01*
X118754000Y-123277335D01*
X118684000Y-123277335D01*
X118666130Y-123095899D01*
X118595511Y-122863099D01*
X118480833Y-122648551D01*
X118326502Y-122460498D01*
X118283625Y-122425310D01*
X118356502Y-122365502D01*
X118510833Y-122177449D01*
X118625511Y-121962901D01*
X118696130Y-121730102D01*
X118714000Y-121548665D01*
X118714000Y-120627336D01*
X118696130Y-120445899D01*
X118625511Y-120213099D01*
X118510833Y-119998551D01*
X118356502Y-119810498D01*
X118168449Y-119656167D01*
X117953901Y-119541489D01*
X117721102Y-119470870D01*
X117479000Y-119447025D01*
X117236899Y-119470870D01*
X117004100Y-119541489D01*
X116789552Y-119656167D01*
X116601499Y-119810498D01*
X116447168Y-119998551D01*
X116332489Y-120213099D01*
X116261870Y-120445898D01*
X116244000Y-120627335D01*
X116244000Y-121548664D01*
X116261870Y-121730101D01*
X116332489Y-121962900D01*
X116447167Y-122177448D01*
X116601498Y-122365502D01*
X116644375Y-122400690D01*
X116571499Y-122460498D01*
X116417168Y-122648551D01*
X116302489Y-122863099D01*
X116231870Y-123095898D01*
X116214000Y-123277335D01*
X116144000Y-123277335D01*
X116126130Y-123095899D01*
X116055511Y-122863099D01*
X115940833Y-122648551D01*
X115786502Y-122460498D01*
X115743625Y-122425310D01*
X115816502Y-122365502D01*
X115970833Y-122177449D01*
X116085511Y-121962901D01*
X116156130Y-121730102D01*
X116174000Y-121548665D01*
X116174000Y-120627336D01*
X116156130Y-120445899D01*
X116085511Y-120213099D01*
X115970833Y-119998551D01*
X115816502Y-119810498D01*
X115628449Y-119656167D01*
X115413901Y-119541489D01*
X115181102Y-119470870D01*
X114939000Y-119447025D01*
X114696899Y-119470870D01*
X114464100Y-119541489D01*
X114249552Y-119656167D01*
X114061499Y-119810498D01*
X113907168Y-119998551D01*
X113792489Y-120213099D01*
X113721870Y-120445898D01*
X113704000Y-120627335D01*
X113704000Y-121548664D01*
X113721870Y-121730101D01*
X113792489Y-121962900D01*
X113907167Y-122177448D01*
X114061498Y-122365502D01*
X114099000Y-122396279D01*
X114099000Y-122405101D01*
X114031499Y-122460498D01*
X113877168Y-122648551D01*
X113762489Y-122863099D01*
X113691870Y-123095898D01*
X113674000Y-123277335D01*
X113604000Y-123277335D01*
X113604000Y-123211000D01*
X113555493Y-122972504D01*
X113461390Y-122748054D01*
X113325307Y-122546275D01*
X113205881Y-122427872D01*
X113355307Y-122279725D01*
X113491390Y-122077946D01*
X113585493Y-121853496D01*
X113634000Y-121615000D01*
X113634000Y-121215000D01*
X112526000Y-121215000D01*
X112526000Y-122249638D01*
X112496000Y-122269269D01*
X112272000Y-122269269D01*
X112272000Y-121215000D01*
X111164000Y-121215000D01*
X111164000Y-121615000D01*
X111212507Y-121853496D01*
X111306610Y-122077946D01*
X111442693Y-122279725D01*
X111562119Y-122398128D01*
X111412693Y-122546275D01*
X111276610Y-122748054D01*
X111182507Y-122972504D01*
X111134000Y-123211000D01*
X111057467Y-123211000D01*
X111046130Y-123095899D01*
X110975511Y-122863099D01*
X110860833Y-122648551D01*
X110706502Y-122460498D01*
X110663625Y-122425310D01*
X110736502Y-122365502D01*
X110890833Y-122177449D01*
X111005511Y-121962901D01*
X111076130Y-121730102D01*
X111094000Y-121548665D01*
X111094000Y-120627336D01*
X111087467Y-120561000D01*
X111164000Y-120561000D01*
X111164000Y-120961000D01*
X112272000Y-120961000D01*
X112272000Y-119619269D01*
X112526000Y-119619269D01*
X112526000Y-120961000D01*
X113634000Y-120961000D01*
X113634000Y-120561000D01*
X113585493Y-120322504D01*
X113491390Y-120098054D01*
X113355307Y-119896275D01*
X113182474Y-119724922D01*
X112979533Y-119590579D01*
X112754282Y-119498409D01*
X112716609Y-119494538D01*
X112526000Y-119619269D01*
X112272000Y-119619269D01*
X112081391Y-119494538D01*
X112043718Y-119498409D01*
X111818467Y-119590579D01*
X111615526Y-119724922D01*
X111442693Y-119896275D01*
X111306610Y-120098054D01*
X111212507Y-120322504D01*
X111164000Y-120561000D01*
X111087467Y-120561000D01*
X111076130Y-120445899D01*
X111005511Y-120213099D01*
X110890833Y-119998551D01*
X110736502Y-119810498D01*
X110548449Y-119656167D01*
X110333901Y-119541489D01*
X110101102Y-119470870D01*
X109859000Y-119447025D01*
X109616899Y-119470870D01*
X109384100Y-119541489D01*
X109169552Y-119656167D01*
X108981499Y-119810498D01*
X108827168Y-119998551D01*
X108712489Y-120213099D01*
X108641870Y-120445898D01*
X108624000Y-120627335D01*
X108624000Y-121548664D01*
X108641870Y-121730101D01*
X108712489Y-121962900D01*
X108827167Y-122177448D01*
X108981498Y-122365502D01*
X109024375Y-122400690D01*
X108951499Y-122460498D01*
X108797168Y-122648551D01*
X108682489Y-122863099D01*
X108611870Y-123095898D01*
X108610000Y-123114884D01*
X108610000Y-114079872D01*
X110795000Y-114079872D01*
X110795000Y-114520128D01*
X110880890Y-114951925D01*
X111049369Y-115358669D01*
X111293962Y-115724729D01*
X111605271Y-116036038D01*
X111971331Y-116280631D01*
X112378075Y-116449110D01*
X112809872Y-116535000D01*
X113250128Y-116535000D01*
X113681925Y-116449110D01*
X114088669Y-116280631D01*
X114454729Y-116036038D01*
X114766038Y-115724729D01*
X115010631Y-115358669D01*
X115179110Y-114951925D01*
X115265000Y-114520128D01*
X115265000Y-114079872D01*
X115179110Y-113648075D01*
X115010631Y-113241331D01*
X114766038Y-112875271D01*
X114454729Y-112563962D01*
X114088669Y-112319369D01*
X113681925Y-112150890D01*
X113250128Y-112065000D01*
X112809872Y-112065000D01*
X112378075Y-112150890D01*
X111971331Y-112319369D01*
X111605271Y-112563962D01*
X111293962Y-112875271D01*
X111049369Y-113241331D01*
X110880890Y-113648075D01*
X110795000Y-114079872D01*
X108610000Y-114079872D01*
X108610000Y-108515845D01*
X156005660Y-108515845D01*
X156025643Y-108718740D01*
X156084826Y-108913838D01*
X156180933Y-109093642D01*
X156310271Y-109251241D01*
X156467870Y-109380579D01*
X156647674Y-109476686D01*
X156842772Y-109535869D01*
X156994829Y-109550845D01*
X157296505Y-109550845D01*
X157448562Y-109535869D01*
X157643660Y-109476686D01*
X157823464Y-109380579D01*
X157981063Y-109251241D01*
X158110401Y-109093642D01*
X158206508Y-108913838D01*
X158265691Y-108718740D01*
X158285674Y-108515845D01*
X159074692Y-108515845D01*
X159098537Y-108757947D01*
X159169156Y-108990746D01*
X159283834Y-109205294D01*
X159438165Y-109393347D01*
X159626218Y-109547678D01*
X159840766Y-109662356D01*
X160073565Y-109732975D01*
X160255002Y-109750845D01*
X161176332Y-109750845D01*
X161357769Y-109732975D01*
X161590568Y-109662356D01*
X161805116Y-109547678D01*
X161993169Y-109393347D01*
X162147500Y-109205294D01*
X162262178Y-108990746D01*
X162332797Y-108757947D01*
X162356642Y-108515845D01*
X162332797Y-108273743D01*
X162262178Y-108040944D01*
X162147500Y-107826396D01*
X161993169Y-107638343D01*
X161805116Y-107484012D01*
X161590568Y-107369334D01*
X161357769Y-107298715D01*
X161176332Y-107280845D01*
X160255002Y-107280845D01*
X160073565Y-107298715D01*
X159840766Y-107369334D01*
X159626218Y-107484012D01*
X159438165Y-107638343D01*
X159283834Y-107826396D01*
X159169156Y-108040944D01*
X159098537Y-108273743D01*
X159074692Y-108515845D01*
X158285674Y-108515845D01*
X158265691Y-108312950D01*
X158206508Y-108117852D01*
X158110401Y-107938048D01*
X157981063Y-107780449D01*
X157823464Y-107651111D01*
X157643660Y-107555004D01*
X157448562Y-107495821D01*
X157296505Y-107480845D01*
X156994829Y-107480845D01*
X156842772Y-107495821D01*
X156647674Y-107555004D01*
X156467870Y-107651111D01*
X156310271Y-107780449D01*
X156180933Y-107938048D01*
X156084826Y-108117852D01*
X156025643Y-108312950D01*
X156005660Y-108515845D01*
X108610000Y-108515845D01*
X108610000Y-103919872D01*
X148641000Y-103919872D01*
X148641000Y-104360128D01*
X148726890Y-104791925D01*
X148895369Y-105198669D01*
X149139962Y-105564729D01*
X149451271Y-105876038D01*
X149817331Y-106120631D01*
X150224075Y-106289110D01*
X150655872Y-106375000D01*
X151096128Y-106375000D01*
X151527925Y-106289110D01*
X151934669Y-106120631D01*
X152151356Y-105975845D01*
X155504692Y-105975845D01*
X155528537Y-106217947D01*
X155599156Y-106450746D01*
X155713834Y-106665294D01*
X155868165Y-106853347D01*
X156056218Y-107007678D01*
X156270766Y-107122356D01*
X156503565Y-107192975D01*
X156685002Y-107210845D01*
X157606332Y-107210845D01*
X157787769Y-107192975D01*
X158020568Y-107122356D01*
X158235116Y-107007678D01*
X158423169Y-106853347D01*
X158577500Y-106665294D01*
X158692178Y-106450746D01*
X158762797Y-106217947D01*
X158786642Y-105975845D01*
X159074692Y-105975845D01*
X159098537Y-106217947D01*
X159169156Y-106450746D01*
X159283834Y-106665294D01*
X159438165Y-106853347D01*
X159626218Y-107007678D01*
X159840766Y-107122356D01*
X160073565Y-107192975D01*
X160255002Y-107210845D01*
X161176332Y-107210845D01*
X161357769Y-107192975D01*
X161590568Y-107122356D01*
X161805116Y-107007678D01*
X161993169Y-106853347D01*
X162147500Y-106665294D01*
X162262178Y-106450746D01*
X162332797Y-106217947D01*
X162356642Y-105975845D01*
X162332797Y-105733743D01*
X162262178Y-105500944D01*
X162147500Y-105286396D01*
X161993169Y-105098343D01*
X161805116Y-104944012D01*
X161590568Y-104829334D01*
X161357769Y-104758715D01*
X161176332Y-104740845D01*
X160255002Y-104740845D01*
X160073565Y-104758715D01*
X159840766Y-104829334D01*
X159626218Y-104944012D01*
X159438165Y-105098343D01*
X159283834Y-105286396D01*
X159169156Y-105500944D01*
X159098537Y-105733743D01*
X159074692Y-105975845D01*
X158786642Y-105975845D01*
X158762797Y-105733743D01*
X158692178Y-105500944D01*
X158577500Y-105286396D01*
X158423169Y-105098343D01*
X158235116Y-104944012D01*
X158020568Y-104829334D01*
X157787769Y-104758715D01*
X157606332Y-104740845D01*
X156685002Y-104740845D01*
X156503565Y-104758715D01*
X156270766Y-104829334D01*
X156056218Y-104944012D01*
X155868165Y-105098343D01*
X155713834Y-105286396D01*
X155599156Y-105500944D01*
X155528537Y-105733743D01*
X155504692Y-105975845D01*
X152151356Y-105975845D01*
X152300729Y-105876038D01*
X152612038Y-105564729D01*
X152856631Y-105198669D01*
X153025110Y-104791925D01*
X153111000Y-104360128D01*
X153111000Y-103919872D01*
X153025110Y-103488075D01*
X152856631Y-103081331D01*
X152612038Y-102715271D01*
X152300729Y-102403962D01*
X151934669Y-102159369D01*
X151527925Y-101990890D01*
X151096128Y-101905000D01*
X150655872Y-101905000D01*
X150224075Y-101990890D01*
X149817331Y-102159369D01*
X149451271Y-102403962D01*
X149139962Y-102715271D01*
X148895369Y-103081331D01*
X148726890Y-103488075D01*
X148641000Y-103919872D01*
X108610000Y-103919872D01*
X108610000Y-96299872D01*
X110795000Y-96299872D01*
X110795000Y-96740128D01*
X110880890Y-97171925D01*
X111049369Y-97578669D01*
X111293962Y-97944729D01*
X111605271Y-98256038D01*
X111971331Y-98500631D01*
X112378075Y-98669110D01*
X112809872Y-98755000D01*
X113250128Y-98755000D01*
X113681925Y-98669110D01*
X114088669Y-98500631D01*
X114305356Y-98355845D01*
X155504692Y-98355845D01*
X155528537Y-98597947D01*
X155599156Y-98830746D01*
X155713834Y-99045294D01*
X155868165Y-99233347D01*
X156056218Y-99387678D01*
X156270766Y-99502356D01*
X156503565Y-99572975D01*
X156685002Y-99590845D01*
X157606332Y-99590845D01*
X157787769Y-99572975D01*
X158020568Y-99502356D01*
X158235116Y-99387678D01*
X158423169Y-99233347D01*
X158577500Y-99045294D01*
X158692178Y-98830746D01*
X158762797Y-98597947D01*
X158786642Y-98355845D01*
X159074692Y-98355845D01*
X159098537Y-98597947D01*
X159169156Y-98830746D01*
X159283834Y-99045294D01*
X159438165Y-99233347D01*
X159626218Y-99387678D01*
X159840766Y-99502356D01*
X160073565Y-99572975D01*
X160255002Y-99590845D01*
X161176332Y-99590845D01*
X161357769Y-99572975D01*
X161590568Y-99502356D01*
X161805116Y-99387678D01*
X161993169Y-99233347D01*
X162147500Y-99045294D01*
X162262178Y-98830746D01*
X162332797Y-98597947D01*
X162356642Y-98355845D01*
X162332797Y-98113743D01*
X162262178Y-97880944D01*
X162147500Y-97666396D01*
X161993169Y-97478343D01*
X161805116Y-97324012D01*
X161590568Y-97209334D01*
X161357769Y-97138715D01*
X161176332Y-97120845D01*
X160255002Y-97120845D01*
X160073565Y-97138715D01*
X159840766Y-97209334D01*
X159626218Y-97324012D01*
X159438165Y-97478343D01*
X159283834Y-97666396D01*
X159169156Y-97880944D01*
X159098537Y-98113743D01*
X159074692Y-98355845D01*
X158786642Y-98355845D01*
X158762797Y-98113743D01*
X158692178Y-97880944D01*
X158577500Y-97666396D01*
X158423169Y-97478343D01*
X158235116Y-97324012D01*
X158020568Y-97209334D01*
X157787769Y-97138715D01*
X157606332Y-97120845D01*
X156685002Y-97120845D01*
X156503565Y-97138715D01*
X156270766Y-97209334D01*
X156056218Y-97324012D01*
X155868165Y-97478343D01*
X155713834Y-97666396D01*
X155599156Y-97880944D01*
X155528537Y-98113743D01*
X155504692Y-98355845D01*
X114305356Y-98355845D01*
X114454729Y-98256038D01*
X114766038Y-97944729D01*
X115010631Y-97578669D01*
X115179110Y-97171925D01*
X115265000Y-96740128D01*
X115265000Y-96299872D01*
X115179110Y-95868075D01*
X115157476Y-95815845D01*
X155504692Y-95815845D01*
X155528537Y-96057947D01*
X155599156Y-96290746D01*
X155713834Y-96505294D01*
X155868165Y-96693347D01*
X156056218Y-96847678D01*
X156270766Y-96962356D01*
X156503565Y-97032975D01*
X156685002Y-97050845D01*
X157606332Y-97050845D01*
X157787769Y-97032975D01*
X158020568Y-96962356D01*
X158235116Y-96847678D01*
X158423169Y-96693347D01*
X158577500Y-96505294D01*
X158692178Y-96290746D01*
X158762797Y-96057947D01*
X158786642Y-95815845D01*
X159074692Y-95815845D01*
X159098537Y-96057947D01*
X159169156Y-96290746D01*
X159283834Y-96505294D01*
X159438165Y-96693347D01*
X159626218Y-96847678D01*
X159840766Y-96962356D01*
X160073565Y-97032975D01*
X160255002Y-97050845D01*
X161176332Y-97050845D01*
X161357769Y-97032975D01*
X161590568Y-96962356D01*
X161805116Y-96847678D01*
X161993169Y-96693347D01*
X162147500Y-96505294D01*
X162262178Y-96290746D01*
X162332797Y-96057947D01*
X162356642Y-95815845D01*
X162332797Y-95573743D01*
X162262178Y-95340944D01*
X162147500Y-95126396D01*
X161993169Y-94938343D01*
X161805116Y-94784012D01*
X161590568Y-94669334D01*
X161357769Y-94598715D01*
X161176332Y-94580845D01*
X160255002Y-94580845D01*
X160073565Y-94598715D01*
X159840766Y-94669334D01*
X159626218Y-94784012D01*
X159438165Y-94938343D01*
X159283834Y-95126396D01*
X159169156Y-95340944D01*
X159098537Y-95573743D01*
X159074692Y-95815845D01*
X158786642Y-95815845D01*
X158762797Y-95573743D01*
X158692178Y-95340944D01*
X158577500Y-95126396D01*
X158423169Y-94938343D01*
X158235116Y-94784012D01*
X158020568Y-94669334D01*
X157787769Y-94598715D01*
X157606332Y-94580845D01*
X156685002Y-94580845D01*
X156503565Y-94598715D01*
X156270766Y-94669334D01*
X156056218Y-94784012D01*
X155868165Y-94938343D01*
X155713834Y-95126396D01*
X155599156Y-95340944D01*
X155528537Y-95573743D01*
X155504692Y-95815845D01*
X115157476Y-95815845D01*
X115010631Y-95461331D01*
X114766038Y-95095271D01*
X114454729Y-94783962D01*
X114088669Y-94539369D01*
X113681925Y-94370890D01*
X113250128Y-94285000D01*
X112809872Y-94285000D01*
X112378075Y-94370890D01*
X111971331Y-94539369D01*
X111605271Y-94783962D01*
X111293962Y-95095271D01*
X111049369Y-95461331D01*
X110880890Y-95868075D01*
X110795000Y-96299872D01*
X108610000Y-96299872D01*
X108610000Y-93275845D01*
X155504692Y-93275845D01*
X155528537Y-93517947D01*
X155599156Y-93750746D01*
X155713834Y-93965294D01*
X155868165Y-94153347D01*
X156056218Y-94307678D01*
X156270766Y-94422356D01*
X156503565Y-94492975D01*
X156685002Y-94510845D01*
X157606332Y-94510845D01*
X157787769Y-94492975D01*
X158020568Y-94422356D01*
X158235116Y-94307678D01*
X158423169Y-94153347D01*
X158577500Y-93965294D01*
X158692178Y-93750746D01*
X158762797Y-93517947D01*
X158786642Y-93275845D01*
X159074692Y-93275845D01*
X159098537Y-93517947D01*
X159169156Y-93750746D01*
X159283834Y-93965294D01*
X159438165Y-94153347D01*
X159626218Y-94307678D01*
X159840766Y-94422356D01*
X160073565Y-94492975D01*
X160255002Y-94510845D01*
X161176332Y-94510845D01*
X161357769Y-94492975D01*
X161590568Y-94422356D01*
X161805116Y-94307678D01*
X161993169Y-94153347D01*
X162147500Y-93965294D01*
X162262178Y-93750746D01*
X162332797Y-93517947D01*
X162356642Y-93275845D01*
X162332797Y-93033743D01*
X162262178Y-92800944D01*
X162147500Y-92586396D01*
X161993169Y-92398343D01*
X161805116Y-92244012D01*
X161590568Y-92129334D01*
X161357769Y-92058715D01*
X161197312Y-92042911D01*
X161323900Y-92004511D01*
X161538448Y-91889833D01*
X161726502Y-91735502D01*
X161880833Y-91547449D01*
X161995511Y-91332901D01*
X162066130Y-91100102D01*
X162084000Y-90918665D01*
X162084000Y-89997336D01*
X162066130Y-89815899D01*
X161995511Y-89583099D01*
X161880833Y-89368551D01*
X161726502Y-89180498D01*
X161683625Y-89145310D01*
X161756502Y-89085502D01*
X161910833Y-88897449D01*
X162025511Y-88682901D01*
X162096130Y-88450102D01*
X162114000Y-88268665D01*
X162114000Y-87347336D01*
X162096130Y-87165899D01*
X162025511Y-86933099D01*
X161910833Y-86718551D01*
X161756502Y-86530498D01*
X161568449Y-86376167D01*
X161353901Y-86261489D01*
X161121102Y-86190870D01*
X160879000Y-86167025D01*
X160636899Y-86190870D01*
X160404100Y-86261489D01*
X160189552Y-86376167D01*
X160001499Y-86530498D01*
X159847168Y-86718551D01*
X159732489Y-86933099D01*
X159661870Y-87165898D01*
X159644000Y-87347335D01*
X159644000Y-88268664D01*
X159661870Y-88450101D01*
X159732489Y-88682900D01*
X159847167Y-88897448D01*
X160001498Y-89085502D01*
X160044375Y-89120690D01*
X159971499Y-89180498D01*
X159817168Y-89368551D01*
X159702489Y-89583099D01*
X159631870Y-89815898D01*
X159614000Y-89997335D01*
X159614000Y-90918664D01*
X159631870Y-91100101D01*
X159702489Y-91332900D01*
X159817167Y-91547448D01*
X159971498Y-91735502D01*
X160159551Y-91889833D01*
X160374099Y-92004511D01*
X160493876Y-92040845D01*
X160255002Y-92040845D01*
X160073565Y-92058715D01*
X159840766Y-92129334D01*
X159626218Y-92244012D01*
X159438165Y-92398343D01*
X159283834Y-92586396D01*
X159169156Y-92800944D01*
X159098537Y-93033743D01*
X159074692Y-93275845D01*
X158786642Y-93275845D01*
X158762797Y-93033743D01*
X158692178Y-92800944D01*
X158577500Y-92586396D01*
X158423169Y-92398343D01*
X158235116Y-92244012D01*
X158020568Y-92129334D01*
X157787769Y-92058715D01*
X157606332Y-92040845D01*
X156685002Y-92040845D01*
X156503565Y-92058715D01*
X156270766Y-92129334D01*
X156056218Y-92244012D01*
X155868165Y-92398343D01*
X155713834Y-92586396D01*
X155599156Y-92800944D01*
X155528537Y-93033743D01*
X155504692Y-93275845D01*
X108610000Y-93275845D01*
X108610000Y-89997335D01*
X121514000Y-89997335D01*
X121514000Y-90918664D01*
X121531870Y-91100101D01*
X121602489Y-91332900D01*
X121717167Y-91547448D01*
X121871498Y-91735502D01*
X122059551Y-91889833D01*
X122274099Y-92004511D01*
X122506898Y-92075130D01*
X122749000Y-92098975D01*
X122991101Y-92075130D01*
X123223900Y-92004511D01*
X123438448Y-91889833D01*
X123626502Y-91735502D01*
X123780833Y-91547449D01*
X123895511Y-91332901D01*
X123966130Y-91100102D01*
X123984000Y-90918665D01*
X123984000Y-89997336D01*
X123984000Y-89997335D01*
X124054000Y-89997335D01*
X124054000Y-90918664D01*
X124071870Y-91100101D01*
X124142489Y-91332900D01*
X124257167Y-91547448D01*
X124411498Y-91735502D01*
X124599551Y-91889833D01*
X124814099Y-92004511D01*
X125046898Y-92075130D01*
X125289000Y-92098975D01*
X125531101Y-92075130D01*
X125763900Y-92004511D01*
X125978448Y-91889833D01*
X126166502Y-91735502D01*
X126320833Y-91547449D01*
X126435511Y-91332901D01*
X126506130Y-91100102D01*
X126524000Y-90918665D01*
X126524000Y-89997336D01*
X126524000Y-89997335D01*
X126594000Y-89997335D01*
X126594000Y-90918664D01*
X126611870Y-91100101D01*
X126682489Y-91332900D01*
X126797167Y-91547448D01*
X126951498Y-91735502D01*
X127139551Y-91889833D01*
X127354099Y-92004511D01*
X127586898Y-92075130D01*
X127829000Y-92098975D01*
X128071101Y-92075130D01*
X128303900Y-92004511D01*
X128518448Y-91889833D01*
X128706502Y-91735502D01*
X128860833Y-91547449D01*
X128975511Y-91332901D01*
X129046130Y-91100102D01*
X129064000Y-90918665D01*
X129064000Y-89997336D01*
X129064000Y-89997335D01*
X129134000Y-89997335D01*
X129134000Y-90918664D01*
X129151870Y-91100101D01*
X129222489Y-91332900D01*
X129337167Y-91547448D01*
X129491498Y-91735502D01*
X129679551Y-91889833D01*
X129894099Y-92004511D01*
X130126898Y-92075130D01*
X130369000Y-92098975D01*
X130611101Y-92075130D01*
X130843900Y-92004511D01*
X131058448Y-91889833D01*
X131246502Y-91735502D01*
X131400833Y-91547449D01*
X131515511Y-91332901D01*
X131586130Y-91100102D01*
X131604000Y-90918665D01*
X131604000Y-89997336D01*
X131604000Y-89997335D01*
X131674000Y-89997335D01*
X131674000Y-90918664D01*
X131691870Y-91100101D01*
X131762489Y-91332900D01*
X131877167Y-91547448D01*
X132031498Y-91735502D01*
X132219551Y-91889833D01*
X132434099Y-92004511D01*
X132666898Y-92075130D01*
X132909000Y-92098975D01*
X133151101Y-92075130D01*
X133383900Y-92004511D01*
X133598448Y-91889833D01*
X133786502Y-91735502D01*
X133940833Y-91547449D01*
X134055511Y-91332901D01*
X134126130Y-91100102D01*
X134144000Y-90918665D01*
X134144000Y-89997336D01*
X134144000Y-89997335D01*
X134214000Y-89997335D01*
X134214000Y-90918664D01*
X134231870Y-91100101D01*
X134302489Y-91332900D01*
X134417167Y-91547448D01*
X134571498Y-91735502D01*
X134759551Y-91889833D01*
X134974099Y-92004511D01*
X135206898Y-92075130D01*
X135449000Y-92098975D01*
X135691101Y-92075130D01*
X135923900Y-92004511D01*
X136138448Y-91889833D01*
X136326502Y-91735502D01*
X136480833Y-91547449D01*
X136595511Y-91332901D01*
X136666130Y-91100102D01*
X136684000Y-90918665D01*
X136684000Y-89997336D01*
X136684000Y-89997335D01*
X136754000Y-89997335D01*
X136754000Y-90918664D01*
X136771870Y-91100101D01*
X136842489Y-91332900D01*
X136957167Y-91547448D01*
X137111498Y-91735502D01*
X137299551Y-91889833D01*
X137514099Y-92004511D01*
X137746898Y-92075130D01*
X137989000Y-92098975D01*
X138231101Y-92075130D01*
X138463900Y-92004511D01*
X138678448Y-91889833D01*
X138866502Y-91735502D01*
X139020833Y-91547449D01*
X139135511Y-91332901D01*
X139206130Y-91100102D01*
X139224000Y-90918665D01*
X139224000Y-89997336D01*
X139224000Y-89997335D01*
X139294000Y-89997335D01*
X139294000Y-90918664D01*
X139311870Y-91100101D01*
X139382489Y-91332900D01*
X139497167Y-91547448D01*
X139651498Y-91735502D01*
X139839551Y-91889833D01*
X140054099Y-92004511D01*
X140286898Y-92075130D01*
X140529000Y-92098975D01*
X140771101Y-92075130D01*
X141003900Y-92004511D01*
X141218448Y-91889833D01*
X141406502Y-91735502D01*
X141560833Y-91547449D01*
X141675511Y-91332901D01*
X141746130Y-91100102D01*
X141764000Y-90918665D01*
X141764000Y-89997336D01*
X141764000Y-89997335D01*
X141834000Y-89997335D01*
X141834000Y-90918664D01*
X141851870Y-91100101D01*
X141922489Y-91332900D01*
X142037167Y-91547448D01*
X142191498Y-91735502D01*
X142379551Y-91889833D01*
X142594099Y-92004511D01*
X142826898Y-92075130D01*
X143069000Y-92098975D01*
X143311101Y-92075130D01*
X143543900Y-92004511D01*
X143758448Y-91889833D01*
X143946502Y-91735502D01*
X144100833Y-91547449D01*
X144215511Y-91332901D01*
X144286130Y-91100102D01*
X144304000Y-90918665D01*
X144304000Y-89997336D01*
X144304000Y-89997335D01*
X144374000Y-89997335D01*
X144374000Y-90918664D01*
X144391870Y-91100101D01*
X144462489Y-91332900D01*
X144577167Y-91547448D01*
X144731498Y-91735502D01*
X144919551Y-91889833D01*
X145134099Y-92004511D01*
X145366898Y-92075130D01*
X145609000Y-92098975D01*
X145851101Y-92075130D01*
X146083900Y-92004511D01*
X146298448Y-91889833D01*
X146486502Y-91735502D01*
X146640833Y-91547449D01*
X146755511Y-91332901D01*
X146826130Y-91100102D01*
X146844000Y-90918665D01*
X146844000Y-89997336D01*
X146844000Y-89997335D01*
X146914000Y-89997335D01*
X146914000Y-90918664D01*
X146931870Y-91100101D01*
X147002489Y-91332900D01*
X147117167Y-91547448D01*
X147271498Y-91735502D01*
X147459551Y-91889833D01*
X147674099Y-92004511D01*
X147906898Y-92075130D01*
X148149000Y-92098975D01*
X148391101Y-92075130D01*
X148623900Y-92004511D01*
X148838448Y-91889833D01*
X149026502Y-91735502D01*
X149180833Y-91547449D01*
X149295511Y-91332901D01*
X149366130Y-91100102D01*
X149384000Y-90918665D01*
X149384000Y-89997336D01*
X149384000Y-89997335D01*
X149454000Y-89997335D01*
X149454000Y-90918664D01*
X149471870Y-91100101D01*
X149542489Y-91332900D01*
X149657167Y-91547448D01*
X149811498Y-91735502D01*
X149999551Y-91889833D01*
X150214099Y-92004511D01*
X150446898Y-92075130D01*
X150689000Y-92098975D01*
X150931101Y-92075130D01*
X151163900Y-92004511D01*
X151378448Y-91889833D01*
X151566502Y-91735502D01*
X151720833Y-91547449D01*
X151835511Y-91332901D01*
X151906130Y-91100102D01*
X151924000Y-90918665D01*
X151924000Y-89997336D01*
X151924000Y-89997335D01*
X151994000Y-89997335D01*
X151994000Y-90918664D01*
X152011870Y-91100101D01*
X152082489Y-91332900D01*
X152197167Y-91547448D01*
X152351498Y-91735502D01*
X152539551Y-91889833D01*
X152754099Y-92004511D01*
X152986898Y-92075130D01*
X153229000Y-92098975D01*
X153471101Y-92075130D01*
X153703900Y-92004511D01*
X153918448Y-91889833D01*
X154106502Y-91735502D01*
X154260833Y-91547449D01*
X154375511Y-91332901D01*
X154446130Y-91100102D01*
X154464000Y-90918665D01*
X154464000Y-89997336D01*
X154464000Y-89997335D01*
X154534000Y-89997335D01*
X154534000Y-90918664D01*
X154551870Y-91100101D01*
X154622489Y-91332900D01*
X154737167Y-91547448D01*
X154891498Y-91735502D01*
X155079551Y-91889833D01*
X155294099Y-92004511D01*
X155526898Y-92075130D01*
X155769000Y-92098975D01*
X156011101Y-92075130D01*
X156243900Y-92004511D01*
X156458448Y-91889833D01*
X156646502Y-91735502D01*
X156800833Y-91547449D01*
X156915511Y-91332901D01*
X156986130Y-91100102D01*
X157004000Y-90918665D01*
X157004000Y-89997336D01*
X157004000Y-89997335D01*
X157074000Y-89997335D01*
X157074000Y-90918664D01*
X157091870Y-91100101D01*
X157162489Y-91332900D01*
X157277167Y-91547448D01*
X157431498Y-91735502D01*
X157619551Y-91889833D01*
X157834099Y-92004511D01*
X158066898Y-92075130D01*
X158309000Y-92098975D01*
X158551101Y-92075130D01*
X158783900Y-92004511D01*
X158998448Y-91889833D01*
X159186502Y-91735502D01*
X159340833Y-91547449D01*
X159455511Y-91332901D01*
X159526130Y-91100102D01*
X159544000Y-90918665D01*
X159544000Y-89997336D01*
X159526130Y-89815899D01*
X159455511Y-89583099D01*
X159340833Y-89368551D01*
X159186502Y-89180498D01*
X159143625Y-89145310D01*
X159216502Y-89085502D01*
X159370833Y-88897449D01*
X159485511Y-88682901D01*
X159556130Y-88450102D01*
X159574000Y-88268665D01*
X159574000Y-87347336D01*
X159556130Y-87165899D01*
X159485511Y-86933099D01*
X159370833Y-86718551D01*
X159216502Y-86530498D01*
X159028449Y-86376167D01*
X158813901Y-86261489D01*
X158581102Y-86190870D01*
X158339000Y-86167025D01*
X158096899Y-86190870D01*
X157864100Y-86261489D01*
X157649552Y-86376167D01*
X157461499Y-86530498D01*
X157307168Y-86718551D01*
X157192489Y-86933099D01*
X157121870Y-87165898D01*
X157104000Y-87347335D01*
X157104000Y-88268664D01*
X157121870Y-88450101D01*
X157192489Y-88682900D01*
X157307167Y-88897448D01*
X157461498Y-89085502D01*
X157504375Y-89120690D01*
X157431499Y-89180498D01*
X157277168Y-89368551D01*
X157162489Y-89583099D01*
X157091870Y-89815898D01*
X157074000Y-89997335D01*
X157004000Y-89997335D01*
X156986130Y-89815899D01*
X156915511Y-89583099D01*
X156800833Y-89368551D01*
X156646502Y-89180498D01*
X156603625Y-89145310D01*
X156676502Y-89085502D01*
X156830833Y-88897449D01*
X156945511Y-88682901D01*
X157016130Y-88450102D01*
X157034000Y-88268665D01*
X157034000Y-87347336D01*
X157016130Y-87165899D01*
X156945511Y-86933099D01*
X156830833Y-86718551D01*
X156676502Y-86530498D01*
X156488449Y-86376167D01*
X156273901Y-86261489D01*
X156041102Y-86190870D01*
X155799000Y-86167025D01*
X155556899Y-86190870D01*
X155324100Y-86261489D01*
X155109552Y-86376167D01*
X154921499Y-86530498D01*
X154767168Y-86718551D01*
X154652489Y-86933099D01*
X154581870Y-87165898D01*
X154564000Y-87347335D01*
X154564000Y-88268664D01*
X154581870Y-88450101D01*
X154652489Y-88682900D01*
X154767167Y-88897448D01*
X154921498Y-89085502D01*
X154964375Y-89120690D01*
X154891499Y-89180498D01*
X154737168Y-89368551D01*
X154622489Y-89583099D01*
X154551870Y-89815898D01*
X154534000Y-89997335D01*
X154464000Y-89997335D01*
X154446130Y-89815899D01*
X154375511Y-89583099D01*
X154260833Y-89368551D01*
X154106502Y-89180498D01*
X154063625Y-89145310D01*
X154136502Y-89085502D01*
X154290833Y-88897449D01*
X154405511Y-88682901D01*
X154476130Y-88450102D01*
X154494000Y-88268665D01*
X154494000Y-87347336D01*
X154476130Y-87165899D01*
X154405511Y-86933099D01*
X154290833Y-86718551D01*
X154136502Y-86530498D01*
X153948449Y-86376167D01*
X153733901Y-86261489D01*
X153501102Y-86190870D01*
X153259000Y-86167025D01*
X153016899Y-86190870D01*
X152784100Y-86261489D01*
X152569552Y-86376167D01*
X152381499Y-86530498D01*
X152227168Y-86718551D01*
X152112489Y-86933099D01*
X152041870Y-87165898D01*
X152024000Y-87347335D01*
X152024000Y-88268664D01*
X152041870Y-88450101D01*
X152112489Y-88682900D01*
X152227167Y-88897448D01*
X152381498Y-89085502D01*
X152424375Y-89120690D01*
X152351499Y-89180498D01*
X152197168Y-89368551D01*
X152082489Y-89583099D01*
X152011870Y-89815898D01*
X151994000Y-89997335D01*
X151924000Y-89997335D01*
X151906130Y-89815899D01*
X151835511Y-89583099D01*
X151720833Y-89368551D01*
X151566502Y-89180498D01*
X151523625Y-89145310D01*
X151596502Y-89085502D01*
X151750833Y-88897449D01*
X151865511Y-88682901D01*
X151936130Y-88450102D01*
X151954000Y-88268665D01*
X151954000Y-87347336D01*
X151936130Y-87165899D01*
X151865511Y-86933099D01*
X151750833Y-86718551D01*
X151596502Y-86530498D01*
X151408449Y-86376167D01*
X151193901Y-86261489D01*
X150961102Y-86190870D01*
X150719000Y-86167025D01*
X150476899Y-86190870D01*
X150244100Y-86261489D01*
X150029552Y-86376167D01*
X149841499Y-86530498D01*
X149687168Y-86718551D01*
X149572489Y-86933099D01*
X149501870Y-87165898D01*
X149484000Y-87347335D01*
X149484000Y-88268664D01*
X149501870Y-88450101D01*
X149572489Y-88682900D01*
X149687167Y-88897448D01*
X149841498Y-89085502D01*
X149884375Y-89120690D01*
X149811499Y-89180498D01*
X149657168Y-89368551D01*
X149542489Y-89583099D01*
X149471870Y-89815898D01*
X149454000Y-89997335D01*
X149384000Y-89997335D01*
X149366130Y-89815899D01*
X149295511Y-89583099D01*
X149180833Y-89368551D01*
X149026502Y-89180498D01*
X148983625Y-89145310D01*
X149056502Y-89085502D01*
X149210833Y-88897449D01*
X149325511Y-88682901D01*
X149396130Y-88450102D01*
X149414000Y-88268665D01*
X149414000Y-87347336D01*
X149396130Y-87165899D01*
X149325511Y-86933099D01*
X149210833Y-86718551D01*
X149056502Y-86530498D01*
X148868449Y-86376167D01*
X148653901Y-86261489D01*
X148421102Y-86190870D01*
X148179000Y-86167025D01*
X147936899Y-86190870D01*
X147704100Y-86261489D01*
X147489552Y-86376167D01*
X147301499Y-86530498D01*
X147147168Y-86718551D01*
X147032489Y-86933099D01*
X146961870Y-87165898D01*
X146944000Y-87347335D01*
X146944000Y-88268664D01*
X146961870Y-88450101D01*
X147032489Y-88682900D01*
X147147167Y-88897448D01*
X147301498Y-89085502D01*
X147344375Y-89120690D01*
X147271499Y-89180498D01*
X147117168Y-89368551D01*
X147002489Y-89583099D01*
X146931870Y-89815898D01*
X146914000Y-89997335D01*
X146844000Y-89997335D01*
X146826130Y-89815899D01*
X146755511Y-89583099D01*
X146640833Y-89368551D01*
X146486502Y-89180498D01*
X146443625Y-89145310D01*
X146516502Y-89085502D01*
X146670833Y-88897449D01*
X146785511Y-88682901D01*
X146856130Y-88450102D01*
X146874000Y-88268665D01*
X146874000Y-87347336D01*
X146856130Y-87165899D01*
X146785511Y-86933099D01*
X146670833Y-86718551D01*
X146516502Y-86530498D01*
X146328449Y-86376167D01*
X146113901Y-86261489D01*
X145881102Y-86190870D01*
X145639000Y-86167025D01*
X145396899Y-86190870D01*
X145164100Y-86261489D01*
X144949552Y-86376167D01*
X144761499Y-86530498D01*
X144607168Y-86718551D01*
X144492489Y-86933099D01*
X144421870Y-87165898D01*
X144404000Y-87347335D01*
X144404000Y-88268664D01*
X144421870Y-88450101D01*
X144492489Y-88682900D01*
X144607167Y-88897448D01*
X144761498Y-89085502D01*
X144804375Y-89120690D01*
X144731499Y-89180498D01*
X144577168Y-89368551D01*
X144462489Y-89583099D01*
X144391870Y-89815898D01*
X144374000Y-89997335D01*
X144304000Y-89997335D01*
X144286130Y-89815899D01*
X144215511Y-89583099D01*
X144100833Y-89368551D01*
X143946502Y-89180498D01*
X143903625Y-89145310D01*
X143976502Y-89085502D01*
X144130833Y-88897449D01*
X144245511Y-88682901D01*
X144316130Y-88450102D01*
X144334000Y-88268665D01*
X144334000Y-87347336D01*
X144316130Y-87165899D01*
X144245511Y-86933099D01*
X144130833Y-86718551D01*
X143976502Y-86530498D01*
X143788449Y-86376167D01*
X143573901Y-86261489D01*
X143341102Y-86190870D01*
X143099000Y-86167025D01*
X142856899Y-86190870D01*
X142624100Y-86261489D01*
X142409552Y-86376167D01*
X142221499Y-86530498D01*
X142067168Y-86718551D01*
X141952489Y-86933099D01*
X141881870Y-87165898D01*
X141864000Y-87347335D01*
X141864000Y-88268664D01*
X141881870Y-88450101D01*
X141952489Y-88682900D01*
X142067167Y-88897448D01*
X142221498Y-89085502D01*
X142264375Y-89120690D01*
X142191499Y-89180498D01*
X142037168Y-89368551D01*
X141922489Y-89583099D01*
X141851870Y-89815898D01*
X141834000Y-89997335D01*
X141764000Y-89997335D01*
X141746130Y-89815899D01*
X141675511Y-89583099D01*
X141560833Y-89368551D01*
X141406502Y-89180498D01*
X141363625Y-89145310D01*
X141436502Y-89085502D01*
X141590833Y-88897449D01*
X141705511Y-88682901D01*
X141776130Y-88450102D01*
X141794000Y-88268665D01*
X141794000Y-87347336D01*
X141776130Y-87165899D01*
X141705511Y-86933099D01*
X141590833Y-86718551D01*
X141436502Y-86530498D01*
X141248449Y-86376167D01*
X141033901Y-86261489D01*
X140801102Y-86190870D01*
X140559000Y-86167025D01*
X140316899Y-86190870D01*
X140084100Y-86261489D01*
X139869552Y-86376167D01*
X139681499Y-86530498D01*
X139527168Y-86718551D01*
X139412489Y-86933099D01*
X139341870Y-87165898D01*
X139324000Y-87347335D01*
X139324000Y-88268664D01*
X139341870Y-88450101D01*
X139412489Y-88682900D01*
X139527167Y-88897448D01*
X139681498Y-89085502D01*
X139724375Y-89120690D01*
X139651499Y-89180498D01*
X139497168Y-89368551D01*
X139382489Y-89583099D01*
X139311870Y-89815898D01*
X139294000Y-89997335D01*
X139224000Y-89997335D01*
X139206130Y-89815899D01*
X139135511Y-89583099D01*
X139020833Y-89368551D01*
X138866502Y-89180498D01*
X138823625Y-89145310D01*
X138896502Y-89085502D01*
X139050833Y-88897449D01*
X139165511Y-88682901D01*
X139236130Y-88450102D01*
X139254000Y-88268665D01*
X139254000Y-87347336D01*
X139236130Y-87165899D01*
X139165511Y-86933099D01*
X139050833Y-86718551D01*
X138896502Y-86530498D01*
X138708449Y-86376167D01*
X138493901Y-86261489D01*
X138261102Y-86190870D01*
X138019000Y-86167025D01*
X137776899Y-86190870D01*
X137544100Y-86261489D01*
X137329552Y-86376167D01*
X137141499Y-86530498D01*
X136987168Y-86718551D01*
X136872489Y-86933099D01*
X136801870Y-87165898D01*
X136784000Y-87347335D01*
X136784000Y-88268664D01*
X136801870Y-88450101D01*
X136872489Y-88682900D01*
X136987167Y-88897448D01*
X137141498Y-89085502D01*
X137184375Y-89120690D01*
X137111499Y-89180498D01*
X136957168Y-89368551D01*
X136842489Y-89583099D01*
X136771870Y-89815898D01*
X136754000Y-89997335D01*
X136684000Y-89997335D01*
X136666130Y-89815899D01*
X136595511Y-89583099D01*
X136480833Y-89368551D01*
X136326502Y-89180498D01*
X136283625Y-89145310D01*
X136356502Y-89085502D01*
X136510833Y-88897449D01*
X136625511Y-88682901D01*
X136696130Y-88450102D01*
X136714000Y-88268665D01*
X136714000Y-87347336D01*
X136696130Y-87165899D01*
X136625511Y-86933099D01*
X136510833Y-86718551D01*
X136356502Y-86530498D01*
X136168449Y-86376167D01*
X135953901Y-86261489D01*
X135721102Y-86190870D01*
X135479000Y-86167025D01*
X135236899Y-86190870D01*
X135004100Y-86261489D01*
X134789552Y-86376167D01*
X134601499Y-86530498D01*
X134447168Y-86718551D01*
X134332489Y-86933099D01*
X134261870Y-87165898D01*
X134244000Y-87347335D01*
X134244000Y-88268664D01*
X134261870Y-88450101D01*
X134332489Y-88682900D01*
X134447167Y-88897448D01*
X134601498Y-89085502D01*
X134644375Y-89120690D01*
X134571499Y-89180498D01*
X134417168Y-89368551D01*
X134302489Y-89583099D01*
X134231870Y-89815898D01*
X134214000Y-89997335D01*
X134144000Y-89997335D01*
X134126130Y-89815899D01*
X134055511Y-89583099D01*
X133940833Y-89368551D01*
X133786502Y-89180498D01*
X133743625Y-89145310D01*
X133816502Y-89085502D01*
X133970833Y-88897449D01*
X134085511Y-88682901D01*
X134156130Y-88450102D01*
X134174000Y-88268665D01*
X134174000Y-87347336D01*
X134156130Y-87165899D01*
X134085511Y-86933099D01*
X133970833Y-86718551D01*
X133816502Y-86530498D01*
X133628449Y-86376167D01*
X133413901Y-86261489D01*
X133181102Y-86190870D01*
X132939000Y-86167025D01*
X132696899Y-86190870D01*
X132464100Y-86261489D01*
X132249552Y-86376167D01*
X132061499Y-86530498D01*
X131907168Y-86718551D01*
X131792489Y-86933099D01*
X131721870Y-87165898D01*
X131704000Y-87347335D01*
X131704000Y-88268664D01*
X131721870Y-88450101D01*
X131792489Y-88682900D01*
X131907167Y-88897448D01*
X132061498Y-89085502D01*
X132104375Y-89120690D01*
X132031499Y-89180498D01*
X131877168Y-89368551D01*
X131762489Y-89583099D01*
X131691870Y-89815898D01*
X131674000Y-89997335D01*
X131604000Y-89997335D01*
X131586130Y-89815899D01*
X131515511Y-89583099D01*
X131400833Y-89368551D01*
X131246502Y-89180498D01*
X131203625Y-89145310D01*
X131276502Y-89085502D01*
X131430833Y-88897449D01*
X131545511Y-88682901D01*
X131616130Y-88450102D01*
X131634000Y-88268665D01*
X131634000Y-87347336D01*
X131616130Y-87165899D01*
X131545511Y-86933099D01*
X131430833Y-86718551D01*
X131276502Y-86530498D01*
X131088449Y-86376167D01*
X130873901Y-86261489D01*
X130641102Y-86190870D01*
X130399000Y-86167025D01*
X130156899Y-86190870D01*
X129924100Y-86261489D01*
X129709552Y-86376167D01*
X129521499Y-86530498D01*
X129367168Y-86718551D01*
X129252489Y-86933099D01*
X129181870Y-87165898D01*
X129164000Y-87347335D01*
X129164000Y-88268664D01*
X129181870Y-88450101D01*
X129252489Y-88682900D01*
X129367167Y-88897448D01*
X129521498Y-89085502D01*
X129564375Y-89120690D01*
X129491499Y-89180498D01*
X129337168Y-89368551D01*
X129222489Y-89583099D01*
X129151870Y-89815898D01*
X129134000Y-89997335D01*
X129064000Y-89997335D01*
X129046130Y-89815899D01*
X128975511Y-89583099D01*
X128860833Y-89368551D01*
X128706502Y-89180498D01*
X128663625Y-89145310D01*
X128736502Y-89085502D01*
X128890833Y-88897449D01*
X129005511Y-88682901D01*
X129076130Y-88450102D01*
X129094000Y-88268665D01*
X129094000Y-87347336D01*
X129076130Y-87165899D01*
X129005511Y-86933099D01*
X128890833Y-86718551D01*
X128736502Y-86530498D01*
X128548449Y-86376167D01*
X128333901Y-86261489D01*
X128101102Y-86190870D01*
X127859000Y-86167025D01*
X127616899Y-86190870D01*
X127384100Y-86261489D01*
X127169552Y-86376167D01*
X126981499Y-86530498D01*
X126827168Y-86718551D01*
X126712489Y-86933099D01*
X126641870Y-87165898D01*
X126624000Y-87347335D01*
X126624000Y-88268664D01*
X126641870Y-88450101D01*
X126712489Y-88682900D01*
X126827167Y-88897448D01*
X126981498Y-89085502D01*
X127024375Y-89120690D01*
X126951499Y-89180498D01*
X126797168Y-89368551D01*
X126682489Y-89583099D01*
X126611870Y-89815898D01*
X126594000Y-89997335D01*
X126524000Y-89997335D01*
X126506130Y-89815899D01*
X126435511Y-89583099D01*
X126320833Y-89368551D01*
X126166502Y-89180498D01*
X126123625Y-89145310D01*
X126196502Y-89085502D01*
X126350833Y-88897449D01*
X126465511Y-88682901D01*
X126536130Y-88450102D01*
X126554000Y-88268665D01*
X126554000Y-87347336D01*
X126536130Y-87165899D01*
X126465511Y-86933099D01*
X126350833Y-86718551D01*
X126196502Y-86530498D01*
X126008449Y-86376167D01*
X125793901Y-86261489D01*
X125561102Y-86190870D01*
X125319000Y-86167025D01*
X125076899Y-86190870D01*
X124844100Y-86261489D01*
X124629552Y-86376167D01*
X124441499Y-86530498D01*
X124287168Y-86718551D01*
X124172489Y-86933099D01*
X124101870Y-87165898D01*
X124084000Y-87347335D01*
X124084000Y-88268664D01*
X124101870Y-88450101D01*
X124172489Y-88682900D01*
X124287167Y-88897448D01*
X124441498Y-89085502D01*
X124484375Y-89120690D01*
X124411499Y-89180498D01*
X124257168Y-89368551D01*
X124142489Y-89583099D01*
X124071870Y-89815898D01*
X124054000Y-89997335D01*
X123984000Y-89997335D01*
X123966130Y-89815899D01*
X123895511Y-89583099D01*
X123780833Y-89368551D01*
X123626502Y-89180498D01*
X123583625Y-89145310D01*
X123656502Y-89085502D01*
X123810833Y-88897449D01*
X123925511Y-88682901D01*
X123996130Y-88450102D01*
X124014000Y-88268665D01*
X124014000Y-87347336D01*
X123996130Y-87165899D01*
X123925511Y-86933099D01*
X123810833Y-86718551D01*
X123656502Y-86530498D01*
X123468449Y-86376167D01*
X123253901Y-86261489D01*
X123021102Y-86190870D01*
X122779000Y-86167025D01*
X122536899Y-86190870D01*
X122304100Y-86261489D01*
X122089552Y-86376167D01*
X121901499Y-86530498D01*
X121747168Y-86718551D01*
X121632489Y-86933099D01*
X121561870Y-87165898D01*
X121544000Y-87347335D01*
X121544000Y-88268664D01*
X121561870Y-88450101D01*
X121632489Y-88682900D01*
X121747167Y-88897448D01*
X121901498Y-89085502D01*
X121944375Y-89120690D01*
X121871499Y-89180498D01*
X121717168Y-89368551D01*
X121602489Y-89583099D01*
X121531870Y-89815898D01*
X121514000Y-89997335D01*
X108610000Y-89997335D01*
X108610000Y-85750000D01*
X172060001Y-85750000D01*
X172060001Y-87335364D01*
%TA.AperFunction,Conductor*%
D19*
G36*
X172060001Y-87335364D02*
G01*
X171912588Y-87137731D01*
X171696355Y-86942822D01*
X171446252Y-86793843D01*
X171171891Y-86696519D01*
X170942000Y-86817186D01*
X170942000Y-88011000D01*
X170962000Y-88011000D01*
X170962000Y-88265000D01*
X170942000Y-88265000D01*
X170942000Y-88285000D01*
X170688000Y-88285000D01*
X170688000Y-88265000D01*
X170668000Y-88265000D01*
X170668000Y-88011000D01*
X170688000Y-88011000D01*
X170688000Y-86817186D01*
X170458109Y-86696519D01*
X170183748Y-86793843D01*
X169933645Y-86942822D01*
X169717412Y-87137731D01*
X169546100Y-87367406D01*
X169428475Y-87191368D01*
X169221632Y-86984525D01*
X168978411Y-86822010D01*
X168708158Y-86710068D01*
X168421260Y-86653000D01*
X168128740Y-86653000D01*
X167841842Y-86710068D01*
X167571589Y-86822010D01*
X167328368Y-86984525D01*
X167121525Y-87191368D01*
X166959010Y-87434589D01*
X166847068Y-87704842D01*
X166790000Y-87991740D01*
X166790000Y-88284260D01*
X166847068Y-88571158D01*
X166959010Y-88841411D01*
X167121525Y-89084632D01*
X167328368Y-89291475D01*
X167502760Y-89408000D01*
X167328368Y-89524525D01*
X167121525Y-89731368D01*
X166959010Y-89974589D01*
X166847068Y-90244842D01*
X166790000Y-90531740D01*
X166790000Y-90824260D01*
X166847068Y-91111158D01*
X166959010Y-91381411D01*
X167121525Y-91624632D01*
X167328368Y-91831475D01*
X167502760Y-91948000D01*
X167328368Y-92064525D01*
X167121525Y-92271368D01*
X166959010Y-92514589D01*
X166847068Y-92784842D01*
X166790000Y-93071740D01*
X166790000Y-93364260D01*
X166847068Y-93651158D01*
X166959010Y-93921411D01*
X167121525Y-94164632D01*
X167328368Y-94371475D01*
X167502760Y-94488000D01*
X167328368Y-94604525D01*
X167121525Y-94811368D01*
X166959010Y-95054589D01*
X166847068Y-95324842D01*
X166790000Y-95611740D01*
X166790000Y-95904260D01*
X166847068Y-96191158D01*
X166959010Y-96461411D01*
X167121525Y-96704632D01*
X167328368Y-96911475D01*
X167502760Y-97028000D01*
X167328368Y-97144525D01*
X167121525Y-97351368D01*
X166959010Y-97594589D01*
X166847068Y-97864842D01*
X166790000Y-98151740D01*
X166790000Y-98444260D01*
X166847068Y-98731158D01*
X166959010Y-99001411D01*
X167121525Y-99244632D01*
X167328368Y-99451475D01*
X167502760Y-99568000D01*
X167328368Y-99684525D01*
X167121525Y-99891368D01*
X166959010Y-100134589D01*
X166847068Y-100404842D01*
X166790000Y-100691740D01*
X166790000Y-100984260D01*
X166847068Y-101271158D01*
X166959010Y-101541411D01*
X167121525Y-101784632D01*
X167328368Y-101991475D01*
X167502760Y-102108000D01*
X167328368Y-102224525D01*
X167121525Y-102431368D01*
X166959010Y-102674589D01*
X166847068Y-102944842D01*
X166790000Y-103231740D01*
X166790000Y-103524260D01*
X166847068Y-103811158D01*
X166959010Y-104081411D01*
X167121525Y-104324632D01*
X167328368Y-104531475D01*
X167502760Y-104648000D01*
X167328368Y-104764525D01*
X167121525Y-104971368D01*
X166959010Y-105214589D01*
X166847068Y-105484842D01*
X166790000Y-105771740D01*
X166790000Y-106064260D01*
X166847068Y-106351158D01*
X166959010Y-106621411D01*
X167121525Y-106864632D01*
X167328368Y-107071475D01*
X167502760Y-107188000D01*
X167328368Y-107304525D01*
X167121525Y-107511368D01*
X166959010Y-107754589D01*
X166847068Y-108024842D01*
X166790000Y-108311740D01*
X166790000Y-108604260D01*
X166847068Y-108891158D01*
X166959010Y-109161411D01*
X167121525Y-109404632D01*
X167328368Y-109611475D01*
X167502760Y-109728000D01*
X167328368Y-109844525D01*
X167121525Y-110051368D01*
X166959010Y-110294589D01*
X166847068Y-110564842D01*
X166790000Y-110851740D01*
X166790000Y-111144260D01*
X166847068Y-111431158D01*
X166894471Y-111545600D01*
X165347379Y-111545600D01*
X165221188Y-111507320D01*
X165102191Y-111495600D01*
X161754186Y-111495600D01*
X161776508Y-111453838D01*
X161835691Y-111258740D01*
X161855674Y-111055845D01*
X161835691Y-110852950D01*
X161776508Y-110657852D01*
X161680401Y-110478048D01*
X161551063Y-110320449D01*
X161393464Y-110191111D01*
X161213660Y-110095004D01*
X161018562Y-110035821D01*
X160866505Y-110020845D01*
X160564829Y-110020845D01*
X160412772Y-110035821D01*
X160217674Y-110095004D01*
X160037870Y-110191111D01*
X159880271Y-110320449D01*
X159750933Y-110478048D01*
X159654826Y-110657852D01*
X159595643Y-110852950D01*
X159575660Y-111055845D01*
X159595643Y-111258740D01*
X159654826Y-111453838D01*
X159677148Y-111495600D01*
X158184186Y-111495600D01*
X158206508Y-111453838D01*
X158265691Y-111258740D01*
X158285674Y-111055845D01*
X158265691Y-110852950D01*
X158206508Y-110657852D01*
X158110401Y-110478048D01*
X157981063Y-110320449D01*
X157823464Y-110191111D01*
X157643660Y-110095004D01*
X157448562Y-110035821D01*
X157296505Y-110020845D01*
X156994829Y-110020845D01*
X156842772Y-110035821D01*
X156647674Y-110095004D01*
X156467870Y-110191111D01*
X156310271Y-110320449D01*
X156180933Y-110478048D01*
X156084826Y-110657852D01*
X156025643Y-110852950D01*
X156005660Y-111055845D01*
X156025643Y-111258740D01*
X156084826Y-111453838D01*
X156107148Y-111495600D01*
X144528188Y-111495600D01*
X144488400Y-111491681D01*
X144448612Y-111495600D01*
X144448609Y-111495600D01*
X144329612Y-111507320D01*
X144176927Y-111553637D01*
X144111424Y-111588649D01*
X144036210Y-111628851D01*
X144001493Y-111657343D01*
X143912872Y-111730072D01*
X143887500Y-111760988D01*
X138524383Y-117124105D01*
X138493473Y-117149472D01*
X138468108Y-117180380D01*
X138392251Y-117272811D01*
X138333832Y-117382108D01*
X138317038Y-117413527D01*
X138271696Y-117563000D01*
X138270721Y-117566213D01*
X138255081Y-117725000D01*
X138259001Y-117764798D01*
X138259001Y-119536969D01*
X138041102Y-119470870D01*
X137799000Y-119447025D01*
X137556899Y-119470870D01*
X137324100Y-119541489D01*
X137109552Y-119656167D01*
X136921499Y-119810498D01*
X136767168Y-119998551D01*
X136652489Y-120213099D01*
X136581870Y-120445898D01*
X136564000Y-120627335D01*
X136564000Y-121548664D01*
X136581870Y-121730101D01*
X136652489Y-121962900D01*
X136767167Y-122177448D01*
X136921498Y-122365502D01*
X136964375Y-122400690D01*
X136891499Y-122460498D01*
X136737168Y-122648551D01*
X136622489Y-122863099D01*
X136551870Y-123095898D01*
X136534000Y-123277335D01*
X136534000Y-124198664D01*
X136551870Y-124380101D01*
X136622489Y-124612900D01*
X136737167Y-124827448D01*
X136891498Y-125015502D01*
X137079551Y-125169833D01*
X137250013Y-125260946D01*
X137180774Y-125428102D01*
X137143129Y-125617359D01*
X136305108Y-126455380D01*
X136229251Y-126547811D01*
X136154038Y-126688527D01*
X136107721Y-126841213D01*
X136092081Y-127000000D01*
X136107721Y-127158787D01*
X136146001Y-127284978D01*
X136146001Y-129413897D01*
X136069158Y-129382068D01*
X135782260Y-129325000D01*
X135489740Y-129325000D01*
X135202842Y-129382068D01*
X134932589Y-129494010D01*
X134689368Y-129656525D01*
X134482525Y-129863368D01*
X134366000Y-130037760D01*
X134249475Y-129863368D01*
X134042632Y-129656525D01*
X133799411Y-129494010D01*
X133529158Y-129382068D01*
X133242260Y-129325000D01*
X132949740Y-129325000D01*
X132662842Y-129382068D01*
X132392589Y-129494010D01*
X132149368Y-129656525D01*
X132017513Y-129788380D01*
X131995502Y-129715820D01*
X131936537Y-129605506D01*
X131857185Y-129508815D01*
X131760494Y-129429463D01*
X131650180Y-129370498D01*
X131530482Y-129334188D01*
X131406000Y-129321928D01*
X129706000Y-129321928D01*
X129581518Y-129334188D01*
X129461820Y-129370498D01*
X129351506Y-129429463D01*
X129254815Y-129508815D01*
X129175463Y-129605506D01*
X129116498Y-129715820D01*
X129080188Y-129835518D01*
X129067928Y-129960000D01*
X129067928Y-131660000D01*
X129080188Y-131784482D01*
X129116498Y-131904180D01*
X129175463Y-132014494D01*
X129254815Y-132111185D01*
X129351506Y-132190537D01*
X129461820Y-132249502D01*
X129534380Y-132271513D01*
X129402525Y-132403368D01*
X129240010Y-132646589D01*
X129128068Y-132916842D01*
X129071000Y-133203740D01*
X129071000Y-133496260D01*
X129128068Y-133783158D01*
X129240010Y-134053411D01*
X129402525Y-134296632D01*
X129609368Y-134503475D01*
X129852589Y-134665990D01*
X130122842Y-134777932D01*
X130409740Y-134835000D01*
X130702260Y-134835000D01*
X130989158Y-134777932D01*
X131259411Y-134665990D01*
X131502632Y-134503475D01*
X131709475Y-134296632D01*
X131826000Y-134122240D01*
X131942525Y-134296632D01*
X132149368Y-134503475D01*
X132392589Y-134665990D01*
X132662842Y-134777932D01*
X132949740Y-134835000D01*
X133242260Y-134835000D01*
X133403429Y-134802941D01*
X133830488Y-135230000D01*
X108610000Y-135230000D01*
X108610000Y-132563891D01*
X112477519Y-132563891D01*
X112574843Y-132838252D01*
X112723822Y-133088355D01*
X112918731Y-133304588D01*
X113152080Y-133478641D01*
X113414901Y-133603825D01*
X113562110Y-133648476D01*
X113792000Y-133527155D01*
X113792000Y-132334000D01*
X112598186Y-132334000D01*
X112477519Y-132563891D01*
X108610000Y-132563891D01*
X108610000Y-124361115D01*
X108611870Y-124380101D01*
X108682489Y-124612900D01*
X108797167Y-124827448D01*
X108951498Y-125015502D01*
X109019000Y-125070899D01*
X109019000Y-125664212D01*
X109015081Y-125704000D01*
X109019000Y-125743788D01*
X109019000Y-125743790D01*
X109030720Y-125862787D01*
X109077037Y-126015472D01*
X109095381Y-126049791D01*
X109152251Y-126156189D01*
X109162591Y-126168788D01*
X109253472Y-126279528D01*
X109284388Y-126304900D01*
X113791998Y-130812511D01*
X113791998Y-130886844D01*
X113562110Y-130765524D01*
X113414901Y-130810175D01*
X113152080Y-130935359D01*
X112918731Y-131109412D01*
X112723822Y-131325645D01*
X112574843Y-131575748D01*
X112477519Y-131850109D01*
X112598186Y-132080000D01*
X113792000Y-132080000D01*
X113792000Y-132060000D01*
X114046000Y-132060000D01*
X114046000Y-132080000D01*
X114066000Y-132080000D01*
X114066000Y-132334000D01*
X114046000Y-132334000D01*
X114046000Y-133527155D01*
X114275890Y-133648476D01*
X114423099Y-133603825D01*
X114685920Y-133478641D01*
X114919269Y-133304588D01*
X115114178Y-133088355D01*
X115183805Y-132971466D01*
X115305525Y-133153632D01*
X115512368Y-133360475D01*
X115755589Y-133522990D01*
X116025842Y-133634932D01*
X116312740Y-133692000D01*
X116605260Y-133692000D01*
X116892158Y-133634932D01*
X117162411Y-133522990D01*
X117405632Y-133360475D01*
X117612475Y-133153632D01*
X117734195Y-132971466D01*
X117803822Y-133088355D01*
X117998731Y-133304588D01*
X118232080Y-133478641D01*
X118494901Y-133603825D01*
X118642110Y-133648476D01*
X118872000Y-133527155D01*
X118872000Y-132334000D01*
X118852000Y-132334000D01*
X118852000Y-132080000D01*
X118872000Y-132080000D01*
X118872000Y-130886845D01*
X118642110Y-130765524D01*
X118494901Y-130810175D01*
X118232080Y-130935359D01*
X117998731Y-131109412D01*
X117803822Y-131325645D01*
X117734195Y-131442534D01*
X117612475Y-131260368D01*
X117405632Y-131053525D01*
X117162411Y-130891010D01*
X116892158Y-130779068D01*
X116605260Y-130722000D01*
X116312740Y-130722000D01*
X116045642Y-130775129D01*
X110639000Y-125368488D01*
X110639000Y-125070899D01*
X110706502Y-125015502D01*
X110860833Y-124827449D01*
X110975511Y-124612901D01*
X111046130Y-124380102D01*
X111064000Y-124198665D01*
X111064000Y-123865000D01*
X111134000Y-123865000D01*
X111134000Y-124265000D01*
X111182507Y-124503496D01*
X111276610Y-124727946D01*
X111412693Y-124929725D01*
X111585526Y-125101078D01*
X111788467Y-125235421D01*
X112013718Y-125327591D01*
X112051391Y-125331462D01*
X112242000Y-125206731D01*
X112242000Y-123865000D01*
X112496000Y-123865000D01*
X112496000Y-125206731D01*
X112686609Y-125331462D01*
X112724282Y-125327591D01*
X112949533Y-125235421D01*
X113152474Y-125101078D01*
X113325307Y-124929725D01*
X113461390Y-124727946D01*
X113555493Y-124503496D01*
X113604000Y-124265000D01*
X113604000Y-123865000D01*
X112496000Y-123865000D01*
X112242000Y-123865000D01*
X111134000Y-123865000D01*
X111064000Y-123865000D01*
X111064000Y-123277336D01*
X111057467Y-123211000D01*
X111134000Y-123211000D01*
X111134000Y-123611000D01*
X112242000Y-123611000D01*
X112242000Y-122576362D01*
X112272000Y-122556731D01*
X112272000Y-122269269D01*
X112496000Y-122269269D01*
X112496000Y-123611000D01*
X113604000Y-123611000D01*
X113604000Y-123277335D01*
X113674000Y-123277335D01*
X113674000Y-124198664D01*
X113691870Y-124380101D01*
X113762489Y-124612900D01*
X113877167Y-124827448D01*
X114031498Y-125015502D01*
X114219551Y-125169833D01*
X114434099Y-125284511D01*
X114510034Y-125307546D01*
X120179437Y-130976949D01*
X120158463Y-131002506D01*
X120099498Y-131112820D01*
X120075034Y-131193466D01*
X119999269Y-131109412D01*
X119765920Y-130935359D01*
X119503099Y-130810175D01*
X119355890Y-130765524D01*
X119126000Y-130886845D01*
X119126000Y-132080000D01*
X119146000Y-132080000D01*
X119146000Y-132334000D01*
X119126000Y-132334000D01*
X119126000Y-133527155D01*
X119355890Y-133648476D01*
X119503099Y-133603825D01*
X119765920Y-133478641D01*
X119999269Y-133304588D01*
X120075034Y-133220534D01*
X120099498Y-133301180D01*
X120158463Y-133411494D01*
X120237815Y-133508185D01*
X120334506Y-133587537D01*
X120444820Y-133646502D01*
X120564518Y-133682812D01*
X120689000Y-133695072D01*
X122389000Y-133695072D01*
X122513482Y-133682812D01*
X122633180Y-133646502D01*
X122743494Y-133587537D01*
X122840185Y-133508185D01*
X122919537Y-133411494D01*
X122978502Y-133301180D01*
X123014812Y-133181482D01*
X123027072Y-133057000D01*
X123027072Y-131357000D01*
X123014812Y-131232518D01*
X122978502Y-131112820D01*
X122919537Y-131002506D01*
X122840185Y-130905815D01*
X122743494Y-130826463D01*
X122633180Y-130767498D01*
X122513482Y-130731188D01*
X122389000Y-130718928D01*
X122199432Y-130718928D01*
X122139893Y-130646380D01*
X122114528Y-130615472D01*
X122083618Y-130590105D01*
X116067358Y-124573846D01*
X116126130Y-124380102D01*
X116144000Y-124198665D01*
X116144000Y-123277336D01*
X116144000Y-123277335D01*
X116214000Y-123277335D01*
X116214000Y-124198664D01*
X116231870Y-124380101D01*
X116302489Y-124612900D01*
X116417167Y-124827448D01*
X116571498Y-125015502D01*
X116759551Y-125169833D01*
X116974099Y-125284511D01*
X117206898Y-125355130D01*
X117449000Y-125378975D01*
X117691101Y-125355130D01*
X117923900Y-125284511D01*
X118138448Y-125169833D01*
X118326502Y-125015502D01*
X118480833Y-124827449D01*
X118595511Y-124612901D01*
X118666130Y-124380102D01*
X118684000Y-124198665D01*
X118684000Y-123277336D01*
X118684000Y-123277335D01*
X118754000Y-123277335D01*
X118754000Y-124198664D01*
X118771870Y-124380101D01*
X118842489Y-124612900D01*
X118957167Y-124827448D01*
X119111498Y-125015502D01*
X119299551Y-125169833D01*
X119514099Y-125284511D01*
X119746898Y-125355130D01*
X119989000Y-125378975D01*
X120231101Y-125355130D01*
X120463900Y-125284511D01*
X120678448Y-125169833D01*
X120866502Y-125015502D01*
X121020833Y-124827449D01*
X121135511Y-124612901D01*
X121206130Y-124380102D01*
X121224000Y-124198665D01*
X121224000Y-123277336D01*
X121224000Y-123277335D01*
X121294000Y-123277335D01*
X121294000Y-124198664D01*
X121311870Y-124380101D01*
X121382489Y-124612900D01*
X121497167Y-124827448D01*
X121651498Y-125015502D01*
X121839551Y-125169833D01*
X122054099Y-125284511D01*
X122286898Y-125355130D01*
X122529000Y-125378975D01*
X122771101Y-125355130D01*
X123003900Y-125284511D01*
X123218448Y-125169833D01*
X123406502Y-125015502D01*
X123560833Y-124827449D01*
X123675511Y-124612901D01*
X123746130Y-124380102D01*
X123764000Y-124198665D01*
X123764000Y-123277336D01*
X123764000Y-123277335D01*
X123834000Y-123277335D01*
X123834000Y-124198664D01*
X123851870Y-124380101D01*
X123922489Y-124612900D01*
X124037167Y-124827448D01*
X124191498Y-125015502D01*
X124379551Y-125169833D01*
X124594099Y-125284511D01*
X124826898Y-125355130D01*
X125069000Y-125378975D01*
X125311101Y-125355130D01*
X125543900Y-125284511D01*
X125758448Y-125169833D01*
X125946502Y-125015502D01*
X126100833Y-124827449D01*
X126215511Y-124612901D01*
X126286130Y-124380102D01*
X126304000Y-124198665D01*
X126304000Y-123277336D01*
X126304000Y-123277335D01*
X126374000Y-123277335D01*
X126374000Y-124198664D01*
X126391870Y-124380101D01*
X126462489Y-124612900D01*
X126577167Y-124827448D01*
X126731498Y-125015502D01*
X126919551Y-125169833D01*
X127134099Y-125284511D01*
X127366898Y-125355130D01*
X127609000Y-125378975D01*
X127851101Y-125355130D01*
X128083900Y-125284511D01*
X128298448Y-125169833D01*
X128486502Y-125015502D01*
X128640833Y-124827449D01*
X128755511Y-124612901D01*
X128826130Y-124380102D01*
X128844000Y-124198665D01*
X128844000Y-123277336D01*
X128844000Y-123277335D01*
X128914000Y-123277335D01*
X128914000Y-124198664D01*
X128931870Y-124380101D01*
X129002489Y-124612900D01*
X129117167Y-124827448D01*
X129271498Y-125015502D01*
X129459551Y-125169833D01*
X129674099Y-125284511D01*
X129906898Y-125355130D01*
X130149000Y-125378975D01*
X130391101Y-125355130D01*
X130623900Y-125284511D01*
X130838448Y-125169833D01*
X131026502Y-125015502D01*
X131180833Y-124827449D01*
X131295511Y-124612901D01*
X131366130Y-124380102D01*
X131384000Y-124198665D01*
X131384000Y-123277336D01*
X131384000Y-123277335D01*
X131454000Y-123277335D01*
X131454000Y-124198664D01*
X131471870Y-124380101D01*
X131542489Y-124612900D01*
X131657167Y-124827448D01*
X131811498Y-125015502D01*
X131999551Y-125169833D01*
X132214099Y-125284511D01*
X132446898Y-125355130D01*
X132689000Y-125378975D01*
X132931101Y-125355130D01*
X133163900Y-125284511D01*
X133378448Y-125169833D01*
X133566502Y-125015502D01*
X133720833Y-124827449D01*
X133835511Y-124612901D01*
X133906130Y-124380102D01*
X133924000Y-124198665D01*
X133924000Y-123277336D01*
X133924000Y-123277335D01*
X133994000Y-123277335D01*
X133994000Y-124198664D01*
X134011870Y-124380101D01*
X134082489Y-124612900D01*
X134197167Y-124827448D01*
X134351498Y-125015502D01*
X134539551Y-125169833D01*
X134754099Y-125284511D01*
X134986898Y-125355130D01*
X135229000Y-125378975D01*
X135471101Y-125355130D01*
X135703900Y-125284511D01*
X135918448Y-125169833D01*
X136106502Y-125015502D01*
X136260833Y-124827449D01*
X136375511Y-124612901D01*
X136446130Y-124380102D01*
X136464000Y-124198665D01*
X136464000Y-123277336D01*
X136446130Y-123095899D01*
X136375511Y-122863099D01*
X136260833Y-122648551D01*
X136106502Y-122460498D01*
X136063625Y-122425310D01*
X136136502Y-122365502D01*
X136290833Y-122177449D01*
X136405511Y-121962901D01*
X136476130Y-121730102D01*
X136494000Y-121548665D01*
X136494000Y-120627336D01*
X136476130Y-120445899D01*
X136405511Y-120213099D01*
X136290833Y-119998551D01*
X136136502Y-119810498D01*
X135948449Y-119656167D01*
X135733901Y-119541489D01*
X135501102Y-119470870D01*
X135259000Y-119447025D01*
X135016899Y-119470870D01*
X134784100Y-119541489D01*
X134569552Y-119656167D01*
X134381499Y-119810498D01*
X134227168Y-119998551D01*
X134112489Y-120213099D01*
X134041870Y-120445898D01*
X134024000Y-120627335D01*
X134024000Y-121548664D01*
X134041870Y-121730101D01*
X134112489Y-121962900D01*
X134227167Y-122177448D01*
X134381498Y-122365502D01*
X134424375Y-122400690D01*
X134351499Y-122460498D01*
X134197168Y-122648551D01*
X134082489Y-122863099D01*
X134011870Y-123095898D01*
X133994000Y-123277335D01*
X133924000Y-123277335D01*
X133906130Y-123095899D01*
X133835511Y-122863099D01*
X133720833Y-122648551D01*
X133566502Y-122460498D01*
X133523625Y-122425310D01*
X133596502Y-122365502D01*
X133750833Y-122177449D01*
X133865511Y-121962901D01*
X133936130Y-121730102D01*
X133954000Y-121548665D01*
X133954000Y-120627336D01*
X133936130Y-120445899D01*
X133865511Y-120213099D01*
X133750833Y-119998551D01*
X133596502Y-119810498D01*
X133408449Y-119656167D01*
X133193901Y-119541489D01*
X132961102Y-119470870D01*
X132719000Y-119447025D01*
X132476899Y-119470870D01*
X132244100Y-119541489D01*
X132029552Y-119656167D01*
X131841499Y-119810498D01*
X131687168Y-119998551D01*
X131572489Y-120213099D01*
X131501870Y-120445898D01*
X131484000Y-120627335D01*
X131484000Y-121548664D01*
X131501870Y-121730101D01*
X131572489Y-121962900D01*
X131687167Y-122177448D01*
X131841498Y-122365502D01*
X131884375Y-122400690D01*
X131811499Y-122460498D01*
X131657168Y-122648551D01*
X131542489Y-122863099D01*
X131471870Y-123095898D01*
X131454000Y-123277335D01*
X131384000Y-123277335D01*
X131366130Y-123095899D01*
X131295511Y-122863099D01*
X131180833Y-122648551D01*
X131026502Y-122460498D01*
X130983625Y-122425310D01*
X131056502Y-122365502D01*
X131210833Y-122177449D01*
X131325511Y-121962901D01*
X131396130Y-121730102D01*
X131414000Y-121548665D01*
X131414000Y-120627336D01*
X131396130Y-120445899D01*
X131325511Y-120213099D01*
X131210833Y-119998551D01*
X131056502Y-119810498D01*
X130868449Y-119656167D01*
X130653901Y-119541489D01*
X130421102Y-119470870D01*
X130179000Y-119447025D01*
X129936899Y-119470870D01*
X129704100Y-119541489D01*
X129489552Y-119656167D01*
X129301499Y-119810498D01*
X129147168Y-119998551D01*
X129032489Y-120213099D01*
X128961870Y-120445898D01*
X128944000Y-120627335D01*
X128944000Y-121548664D01*
X128961870Y-121730101D01*
X129032489Y-121962900D01*
X129147167Y-122177448D01*
X129301498Y-122365502D01*
X129344375Y-122400690D01*
X129271499Y-122460498D01*
X129117168Y-122648551D01*
X129002489Y-122863099D01*
X128931870Y-123095898D01*
X128914000Y-123277335D01*
X128844000Y-123277335D01*
X128826130Y-123095899D01*
X128755511Y-122863099D01*
X128640833Y-122648551D01*
X128486502Y-122460498D01*
X128443625Y-122425310D01*
X128516502Y-122365502D01*
X128670833Y-122177449D01*
X128785511Y-121962901D01*
X128856130Y-121730102D01*
X128874000Y-121548665D01*
X128874000Y-120627336D01*
X128856130Y-120445899D01*
X128785511Y-120213099D01*
X128670833Y-119998551D01*
X128516502Y-119810498D01*
X128328449Y-119656167D01*
X128113901Y-119541489D01*
X127881102Y-119470870D01*
X127639000Y-119447025D01*
X127396899Y-119470870D01*
X127164100Y-119541489D01*
X126949552Y-119656167D01*
X126761499Y-119810498D01*
X126607168Y-119998551D01*
X126492489Y-120213099D01*
X126421870Y-120445898D01*
X126404000Y-120627335D01*
X126404000Y-121548664D01*
X126421870Y-121730101D01*
X126492489Y-121962900D01*
X126607167Y-122177448D01*
X126761498Y-122365502D01*
X126804375Y-122400690D01*
X126731499Y-122460498D01*
X126577168Y-122648551D01*
X126462489Y-122863099D01*
X126391870Y-123095898D01*
X126374000Y-123277335D01*
X126304000Y-123277335D01*
X126286130Y-123095899D01*
X126215511Y-122863099D01*
X126100833Y-122648551D01*
X125946502Y-122460498D01*
X125903625Y-122425310D01*
X125976502Y-122365502D01*
X126130833Y-122177449D01*
X126245511Y-121962901D01*
X126316130Y-121730102D01*
X126334000Y-121548665D01*
X126334000Y-120627336D01*
X126316130Y-120445899D01*
X126245511Y-120213099D01*
X126130833Y-119998551D01*
X125976502Y-119810498D01*
X125788449Y-119656167D01*
X125573901Y-119541489D01*
X125341102Y-119470870D01*
X125099000Y-119447025D01*
X124856899Y-119470870D01*
X124624100Y-119541489D01*
X124409552Y-119656167D01*
X124221499Y-119810498D01*
X124067168Y-119998551D01*
X123952489Y-120213099D01*
X123881870Y-120445898D01*
X123864000Y-120627335D01*
X123864000Y-121548664D01*
X123881870Y-121730101D01*
X123952489Y-121962900D01*
X124067167Y-122177448D01*
X124221498Y-122365502D01*
X124264375Y-122400690D01*
X124191499Y-122460498D01*
X124037168Y-122648551D01*
X123922489Y-122863099D01*
X123851870Y-123095898D01*
X123834000Y-123277335D01*
X123764000Y-123277335D01*
X123746130Y-123095899D01*
X123675511Y-122863099D01*
X123560833Y-122648551D01*
X123406502Y-122460498D01*
X123363625Y-122425310D01*
X123436502Y-122365502D01*
X123590833Y-122177449D01*
X123705511Y-121962901D01*
X123776130Y-121730102D01*
X123794000Y-121548665D01*
X123794000Y-120627336D01*
X123776130Y-120445899D01*
X123705511Y-120213099D01*
X123590833Y-119998551D01*
X123436502Y-119810498D01*
X123248449Y-119656167D01*
X123033901Y-119541489D01*
X122801102Y-119470870D01*
X122559000Y-119447025D01*
X122316899Y-119470870D01*
X122084100Y-119541489D01*
X121869552Y-119656167D01*
X121681499Y-119810498D01*
X121527168Y-119998551D01*
X121412489Y-120213099D01*
X121341870Y-120445898D01*
X121324000Y-120627335D01*
X121324000Y-121548664D01*
X121341870Y-121730101D01*
X121412489Y-121962900D01*
X121527167Y-122177448D01*
X121681498Y-122365502D01*
X121724375Y-122400690D01*
X121651499Y-122460498D01*
X121497168Y-122648551D01*
X121382489Y-122863099D01*
X121311870Y-123095898D01*
X121294000Y-123277335D01*
X121224000Y-123277335D01*
X121206130Y-123095899D01*
X121135511Y-122863099D01*
X121020833Y-122648551D01*
X120866502Y-122460498D01*
X120823625Y-122425310D01*
X120896502Y-122365502D01*
X121050833Y-122177449D01*
X121165511Y-121962901D01*
X121236130Y-121730102D01*
X121254000Y-121548665D01*
X121254000Y-120627336D01*
X121236130Y-120445899D01*
X121165511Y-120213099D01*
X121050833Y-119998551D01*
X120896502Y-119810498D01*
X120708449Y-119656167D01*
X120493901Y-119541489D01*
X120261102Y-119470870D01*
X120019000Y-119447025D01*
X119776899Y-119470870D01*
X119544100Y-119541489D01*
X119329552Y-119656167D01*
X119141499Y-119810498D01*
X118987168Y-119998551D01*
X118872489Y-120213099D01*
X118801870Y-120445898D01*
X118784000Y-120627335D01*
X118784000Y-121548664D01*
X118801870Y-121730101D01*
X118872489Y-121962900D01*
X118987167Y-122177448D01*
X119141498Y-122365502D01*
X119184375Y-122400690D01*
X119111499Y-122460498D01*
X118957168Y-122648551D01*
X118842489Y-122863099D01*
X118771870Y-123095898D01*
X118754000Y-123277335D01*
X118684000Y-123277335D01*
X118666130Y-123095899D01*
X118595511Y-122863099D01*
X118480833Y-122648551D01*
X118326502Y-122460498D01*
X118283625Y-122425310D01*
X118356502Y-122365502D01*
X118510833Y-122177449D01*
X118625511Y-121962901D01*
X118696130Y-121730102D01*
X118714000Y-121548665D01*
X118714000Y-120627336D01*
X118696130Y-120445899D01*
X118625511Y-120213099D01*
X118510833Y-119998551D01*
X118356502Y-119810498D01*
X118168449Y-119656167D01*
X117953901Y-119541489D01*
X117721102Y-119470870D01*
X117479000Y-119447025D01*
X117236899Y-119470870D01*
X117004100Y-119541489D01*
X116789552Y-119656167D01*
X116601499Y-119810498D01*
X116447168Y-119998551D01*
X116332489Y-120213099D01*
X116261870Y-120445898D01*
X116244000Y-120627335D01*
X116244000Y-121548664D01*
X116261870Y-121730101D01*
X116332489Y-121962900D01*
X116447167Y-122177448D01*
X116601498Y-122365502D01*
X116644375Y-122400690D01*
X116571499Y-122460498D01*
X116417168Y-122648551D01*
X116302489Y-122863099D01*
X116231870Y-123095898D01*
X116214000Y-123277335D01*
X116144000Y-123277335D01*
X116126130Y-123095899D01*
X116055511Y-122863099D01*
X115940833Y-122648551D01*
X115786502Y-122460498D01*
X115743625Y-122425310D01*
X115816502Y-122365502D01*
X115970833Y-122177449D01*
X116085511Y-121962901D01*
X116156130Y-121730102D01*
X116174000Y-121548665D01*
X116174000Y-120627336D01*
X116156130Y-120445899D01*
X116085511Y-120213099D01*
X115970833Y-119998551D01*
X115816502Y-119810498D01*
X115628449Y-119656167D01*
X115413901Y-119541489D01*
X115181102Y-119470870D01*
X114939000Y-119447025D01*
X114696899Y-119470870D01*
X114464100Y-119541489D01*
X114249552Y-119656167D01*
X114061499Y-119810498D01*
X113907168Y-119998551D01*
X113792489Y-120213099D01*
X113721870Y-120445898D01*
X113704000Y-120627335D01*
X113704000Y-121548664D01*
X113721870Y-121730101D01*
X113792489Y-121962900D01*
X113907167Y-122177448D01*
X114061498Y-122365502D01*
X114099000Y-122396279D01*
X114099000Y-122405101D01*
X114031499Y-122460498D01*
X113877168Y-122648551D01*
X113762489Y-122863099D01*
X113691870Y-123095898D01*
X113674000Y-123277335D01*
X113604000Y-123277335D01*
X113604000Y-123211000D01*
X113555493Y-122972504D01*
X113461390Y-122748054D01*
X113325307Y-122546275D01*
X113205881Y-122427872D01*
X113355307Y-122279725D01*
X113491390Y-122077946D01*
X113585493Y-121853496D01*
X113634000Y-121615000D01*
X113634000Y-121215000D01*
X112526000Y-121215000D01*
X112526000Y-122249638D01*
X112496000Y-122269269D01*
X112272000Y-122269269D01*
X112272000Y-121215000D01*
X111164000Y-121215000D01*
X111164000Y-121615000D01*
X111212507Y-121853496D01*
X111306610Y-122077946D01*
X111442693Y-122279725D01*
X111562119Y-122398128D01*
X111412693Y-122546275D01*
X111276610Y-122748054D01*
X111182507Y-122972504D01*
X111134000Y-123211000D01*
X111057467Y-123211000D01*
X111046130Y-123095899D01*
X110975511Y-122863099D01*
X110860833Y-122648551D01*
X110706502Y-122460498D01*
X110663625Y-122425310D01*
X110736502Y-122365502D01*
X110890833Y-122177449D01*
X111005511Y-121962901D01*
X111076130Y-121730102D01*
X111094000Y-121548665D01*
X111094000Y-120627336D01*
X111087467Y-120561000D01*
X111164000Y-120561000D01*
X111164000Y-120961000D01*
X112272000Y-120961000D01*
X112272000Y-119619269D01*
X112526000Y-119619269D01*
X112526000Y-120961000D01*
X113634000Y-120961000D01*
X113634000Y-120561000D01*
X113585493Y-120322504D01*
X113491390Y-120098054D01*
X113355307Y-119896275D01*
X113182474Y-119724922D01*
X112979533Y-119590579D01*
X112754282Y-119498409D01*
X112716609Y-119494538D01*
X112526000Y-119619269D01*
X112272000Y-119619269D01*
X112081391Y-119494538D01*
X112043718Y-119498409D01*
X111818467Y-119590579D01*
X111615526Y-119724922D01*
X111442693Y-119896275D01*
X111306610Y-120098054D01*
X111212507Y-120322504D01*
X111164000Y-120561000D01*
X111087467Y-120561000D01*
X111076130Y-120445899D01*
X111005511Y-120213099D01*
X110890833Y-119998551D01*
X110736502Y-119810498D01*
X110548449Y-119656167D01*
X110333901Y-119541489D01*
X110101102Y-119470870D01*
X109859000Y-119447025D01*
X109616899Y-119470870D01*
X109384100Y-119541489D01*
X109169552Y-119656167D01*
X108981499Y-119810498D01*
X108827168Y-119998551D01*
X108712489Y-120213099D01*
X108641870Y-120445898D01*
X108624000Y-120627335D01*
X108624000Y-121548664D01*
X108641870Y-121730101D01*
X108712489Y-121962900D01*
X108827167Y-122177448D01*
X108981498Y-122365502D01*
X109024375Y-122400690D01*
X108951499Y-122460498D01*
X108797168Y-122648551D01*
X108682489Y-122863099D01*
X108611870Y-123095898D01*
X108610000Y-123114884D01*
X108610000Y-114079872D01*
X110795000Y-114079872D01*
X110795000Y-114520128D01*
X110880890Y-114951925D01*
X111049369Y-115358669D01*
X111293962Y-115724729D01*
X111605271Y-116036038D01*
X111971331Y-116280631D01*
X112378075Y-116449110D01*
X112809872Y-116535000D01*
X113250128Y-116535000D01*
X113681925Y-116449110D01*
X114088669Y-116280631D01*
X114454729Y-116036038D01*
X114766038Y-115724729D01*
X115010631Y-115358669D01*
X115179110Y-114951925D01*
X115265000Y-114520128D01*
X115265000Y-114079872D01*
X115179110Y-113648075D01*
X115010631Y-113241331D01*
X114766038Y-112875271D01*
X114454729Y-112563962D01*
X114088669Y-112319369D01*
X113681925Y-112150890D01*
X113250128Y-112065000D01*
X112809872Y-112065000D01*
X112378075Y-112150890D01*
X111971331Y-112319369D01*
X111605271Y-112563962D01*
X111293962Y-112875271D01*
X111049369Y-113241331D01*
X110880890Y-113648075D01*
X110795000Y-114079872D01*
X108610000Y-114079872D01*
X108610000Y-108515845D01*
X156005660Y-108515845D01*
X156025643Y-108718740D01*
X156084826Y-108913838D01*
X156180933Y-109093642D01*
X156310271Y-109251241D01*
X156467870Y-109380579D01*
X156647674Y-109476686D01*
X156842772Y-109535869D01*
X156994829Y-109550845D01*
X157296505Y-109550845D01*
X157448562Y-109535869D01*
X157643660Y-109476686D01*
X157823464Y-109380579D01*
X157981063Y-109251241D01*
X158110401Y-109093642D01*
X158206508Y-108913838D01*
X158265691Y-108718740D01*
X158285674Y-108515845D01*
X159074692Y-108515845D01*
X159098537Y-108757947D01*
X159169156Y-108990746D01*
X159283834Y-109205294D01*
X159438165Y-109393347D01*
X159626218Y-109547678D01*
X159840766Y-109662356D01*
X160073565Y-109732975D01*
X160255002Y-109750845D01*
X161176332Y-109750845D01*
X161357769Y-109732975D01*
X161590568Y-109662356D01*
X161805116Y-109547678D01*
X161993169Y-109393347D01*
X162147500Y-109205294D01*
X162262178Y-108990746D01*
X162332797Y-108757947D01*
X162356642Y-108515845D01*
X162332797Y-108273743D01*
X162262178Y-108040944D01*
X162147500Y-107826396D01*
X161993169Y-107638343D01*
X161805116Y-107484012D01*
X161590568Y-107369334D01*
X161357769Y-107298715D01*
X161176332Y-107280845D01*
X160255002Y-107280845D01*
X160073565Y-107298715D01*
X159840766Y-107369334D01*
X159626218Y-107484012D01*
X159438165Y-107638343D01*
X159283834Y-107826396D01*
X159169156Y-108040944D01*
X159098537Y-108273743D01*
X159074692Y-108515845D01*
X158285674Y-108515845D01*
X158265691Y-108312950D01*
X158206508Y-108117852D01*
X158110401Y-107938048D01*
X157981063Y-107780449D01*
X157823464Y-107651111D01*
X157643660Y-107555004D01*
X157448562Y-107495821D01*
X157296505Y-107480845D01*
X156994829Y-107480845D01*
X156842772Y-107495821D01*
X156647674Y-107555004D01*
X156467870Y-107651111D01*
X156310271Y-107780449D01*
X156180933Y-107938048D01*
X156084826Y-108117852D01*
X156025643Y-108312950D01*
X156005660Y-108515845D01*
X108610000Y-108515845D01*
X108610000Y-103919872D01*
X148641000Y-103919872D01*
X148641000Y-104360128D01*
X148726890Y-104791925D01*
X148895369Y-105198669D01*
X149139962Y-105564729D01*
X149451271Y-105876038D01*
X149817331Y-106120631D01*
X150224075Y-106289110D01*
X150655872Y-106375000D01*
X151096128Y-106375000D01*
X151527925Y-106289110D01*
X151934669Y-106120631D01*
X152151356Y-105975845D01*
X155504692Y-105975845D01*
X155528537Y-106217947D01*
X155599156Y-106450746D01*
X155713834Y-106665294D01*
X155868165Y-106853347D01*
X156056218Y-107007678D01*
X156270766Y-107122356D01*
X156503565Y-107192975D01*
X156685002Y-107210845D01*
X157606332Y-107210845D01*
X157787769Y-107192975D01*
X158020568Y-107122356D01*
X158235116Y-107007678D01*
X158423169Y-106853347D01*
X158577500Y-106665294D01*
X158692178Y-106450746D01*
X158762797Y-106217947D01*
X158786642Y-105975845D01*
X159074692Y-105975845D01*
X159098537Y-106217947D01*
X159169156Y-106450746D01*
X159283834Y-106665294D01*
X159438165Y-106853347D01*
X159626218Y-107007678D01*
X159840766Y-107122356D01*
X160073565Y-107192975D01*
X160255002Y-107210845D01*
X161176332Y-107210845D01*
X161357769Y-107192975D01*
X161590568Y-107122356D01*
X161805116Y-107007678D01*
X161993169Y-106853347D01*
X162147500Y-106665294D01*
X162262178Y-106450746D01*
X162332797Y-106217947D01*
X162356642Y-105975845D01*
X162332797Y-105733743D01*
X162262178Y-105500944D01*
X162147500Y-105286396D01*
X161993169Y-105098343D01*
X161805116Y-104944012D01*
X161590568Y-104829334D01*
X161357769Y-104758715D01*
X161176332Y-104740845D01*
X160255002Y-104740845D01*
X160073565Y-104758715D01*
X159840766Y-104829334D01*
X159626218Y-104944012D01*
X159438165Y-105098343D01*
X159283834Y-105286396D01*
X159169156Y-105500944D01*
X159098537Y-105733743D01*
X159074692Y-105975845D01*
X158786642Y-105975845D01*
X158762797Y-105733743D01*
X158692178Y-105500944D01*
X158577500Y-105286396D01*
X158423169Y-105098343D01*
X158235116Y-104944012D01*
X158020568Y-104829334D01*
X157787769Y-104758715D01*
X157606332Y-104740845D01*
X156685002Y-104740845D01*
X156503565Y-104758715D01*
X156270766Y-104829334D01*
X156056218Y-104944012D01*
X155868165Y-105098343D01*
X155713834Y-105286396D01*
X155599156Y-105500944D01*
X155528537Y-105733743D01*
X155504692Y-105975845D01*
X152151356Y-105975845D01*
X152300729Y-105876038D01*
X152612038Y-105564729D01*
X152856631Y-105198669D01*
X153025110Y-104791925D01*
X153111000Y-104360128D01*
X153111000Y-103919872D01*
X153025110Y-103488075D01*
X152856631Y-103081331D01*
X152612038Y-102715271D01*
X152300729Y-102403962D01*
X151934669Y-102159369D01*
X151527925Y-101990890D01*
X151096128Y-101905000D01*
X150655872Y-101905000D01*
X150224075Y-101990890D01*
X149817331Y-102159369D01*
X149451271Y-102403962D01*
X149139962Y-102715271D01*
X148895369Y-103081331D01*
X148726890Y-103488075D01*
X148641000Y-103919872D01*
X108610000Y-103919872D01*
X108610000Y-96299872D01*
X110795000Y-96299872D01*
X110795000Y-96740128D01*
X110880890Y-97171925D01*
X111049369Y-97578669D01*
X111293962Y-97944729D01*
X111605271Y-98256038D01*
X111971331Y-98500631D01*
X112378075Y-98669110D01*
X112809872Y-98755000D01*
X113250128Y-98755000D01*
X113681925Y-98669110D01*
X114088669Y-98500631D01*
X114305356Y-98355845D01*
X155504692Y-98355845D01*
X155528537Y-98597947D01*
X155599156Y-98830746D01*
X155713834Y-99045294D01*
X155868165Y-99233347D01*
X156056218Y-99387678D01*
X156270766Y-99502356D01*
X156503565Y-99572975D01*
X156685002Y-99590845D01*
X157606332Y-99590845D01*
X157787769Y-99572975D01*
X158020568Y-99502356D01*
X158235116Y-99387678D01*
X158423169Y-99233347D01*
X158577500Y-99045294D01*
X158692178Y-98830746D01*
X158762797Y-98597947D01*
X158786642Y-98355845D01*
X159074692Y-98355845D01*
X159098537Y-98597947D01*
X159169156Y-98830746D01*
X159283834Y-99045294D01*
X159438165Y-99233347D01*
X159626218Y-99387678D01*
X159840766Y-99502356D01*
X160073565Y-99572975D01*
X160255002Y-99590845D01*
X161176332Y-99590845D01*
X161357769Y-99572975D01*
X161590568Y-99502356D01*
X161805116Y-99387678D01*
X161993169Y-99233347D01*
X162147500Y-99045294D01*
X162262178Y-98830746D01*
X162332797Y-98597947D01*
X162356642Y-98355845D01*
X162332797Y-98113743D01*
X162262178Y-97880944D01*
X162147500Y-97666396D01*
X161993169Y-97478343D01*
X161805116Y-97324012D01*
X161590568Y-97209334D01*
X161357769Y-97138715D01*
X161176332Y-97120845D01*
X160255002Y-97120845D01*
X160073565Y-97138715D01*
X159840766Y-97209334D01*
X159626218Y-97324012D01*
X159438165Y-97478343D01*
X159283834Y-97666396D01*
X159169156Y-97880944D01*
X159098537Y-98113743D01*
X159074692Y-98355845D01*
X158786642Y-98355845D01*
X158762797Y-98113743D01*
X158692178Y-97880944D01*
X158577500Y-97666396D01*
X158423169Y-97478343D01*
X158235116Y-97324012D01*
X158020568Y-97209334D01*
X157787769Y-97138715D01*
X157606332Y-97120845D01*
X156685002Y-97120845D01*
X156503565Y-97138715D01*
X156270766Y-97209334D01*
X156056218Y-97324012D01*
X155868165Y-97478343D01*
X155713834Y-97666396D01*
X155599156Y-97880944D01*
X155528537Y-98113743D01*
X155504692Y-98355845D01*
X114305356Y-98355845D01*
X114454729Y-98256038D01*
X114766038Y-97944729D01*
X115010631Y-97578669D01*
X115179110Y-97171925D01*
X115265000Y-96740128D01*
X115265000Y-96299872D01*
X115179110Y-95868075D01*
X115157476Y-95815845D01*
X155504692Y-95815845D01*
X155528537Y-96057947D01*
X155599156Y-96290746D01*
X155713834Y-96505294D01*
X155868165Y-96693347D01*
X156056218Y-96847678D01*
X156270766Y-96962356D01*
X156503565Y-97032975D01*
X156685002Y-97050845D01*
X157606332Y-97050845D01*
X157787769Y-97032975D01*
X158020568Y-96962356D01*
X158235116Y-96847678D01*
X158423169Y-96693347D01*
X158577500Y-96505294D01*
X158692178Y-96290746D01*
X158762797Y-96057947D01*
X158786642Y-95815845D01*
X159074692Y-95815845D01*
X159098537Y-96057947D01*
X159169156Y-96290746D01*
X159283834Y-96505294D01*
X159438165Y-96693347D01*
X159626218Y-96847678D01*
X159840766Y-96962356D01*
X160073565Y-97032975D01*
X160255002Y-97050845D01*
X161176332Y-97050845D01*
X161357769Y-97032975D01*
X161590568Y-96962356D01*
X161805116Y-96847678D01*
X161993169Y-96693347D01*
X162147500Y-96505294D01*
X162262178Y-96290746D01*
X162332797Y-96057947D01*
X162356642Y-95815845D01*
X162332797Y-95573743D01*
X162262178Y-95340944D01*
X162147500Y-95126396D01*
X161993169Y-94938343D01*
X161805116Y-94784012D01*
X161590568Y-94669334D01*
X161357769Y-94598715D01*
X161176332Y-94580845D01*
X160255002Y-94580845D01*
X160073565Y-94598715D01*
X159840766Y-94669334D01*
X159626218Y-94784012D01*
X159438165Y-94938343D01*
X159283834Y-95126396D01*
X159169156Y-95340944D01*
X159098537Y-95573743D01*
X159074692Y-95815845D01*
X158786642Y-95815845D01*
X158762797Y-95573743D01*
X158692178Y-95340944D01*
X158577500Y-95126396D01*
X158423169Y-94938343D01*
X158235116Y-94784012D01*
X158020568Y-94669334D01*
X157787769Y-94598715D01*
X157606332Y-94580845D01*
X156685002Y-94580845D01*
X156503565Y-94598715D01*
X156270766Y-94669334D01*
X156056218Y-94784012D01*
X155868165Y-94938343D01*
X155713834Y-95126396D01*
X155599156Y-95340944D01*
X155528537Y-95573743D01*
X155504692Y-95815845D01*
X115157476Y-95815845D01*
X115010631Y-95461331D01*
X114766038Y-95095271D01*
X114454729Y-94783962D01*
X114088669Y-94539369D01*
X113681925Y-94370890D01*
X113250128Y-94285000D01*
X112809872Y-94285000D01*
X112378075Y-94370890D01*
X111971331Y-94539369D01*
X111605271Y-94783962D01*
X111293962Y-95095271D01*
X111049369Y-95461331D01*
X110880890Y-95868075D01*
X110795000Y-96299872D01*
X108610000Y-96299872D01*
X108610000Y-93275845D01*
X155504692Y-93275845D01*
X155528537Y-93517947D01*
X155599156Y-93750746D01*
X155713834Y-93965294D01*
X155868165Y-94153347D01*
X156056218Y-94307678D01*
X156270766Y-94422356D01*
X156503565Y-94492975D01*
X156685002Y-94510845D01*
X157606332Y-94510845D01*
X157787769Y-94492975D01*
X158020568Y-94422356D01*
X158235116Y-94307678D01*
X158423169Y-94153347D01*
X158577500Y-93965294D01*
X158692178Y-93750746D01*
X158762797Y-93517947D01*
X158786642Y-93275845D01*
X159074692Y-93275845D01*
X159098537Y-93517947D01*
X159169156Y-93750746D01*
X159283834Y-93965294D01*
X159438165Y-94153347D01*
X159626218Y-94307678D01*
X159840766Y-94422356D01*
X160073565Y-94492975D01*
X160255002Y-94510845D01*
X161176332Y-94510845D01*
X161357769Y-94492975D01*
X161590568Y-94422356D01*
X161805116Y-94307678D01*
X161993169Y-94153347D01*
X162147500Y-93965294D01*
X162262178Y-93750746D01*
X162332797Y-93517947D01*
X162356642Y-93275845D01*
X162332797Y-93033743D01*
X162262178Y-92800944D01*
X162147500Y-92586396D01*
X161993169Y-92398343D01*
X161805116Y-92244012D01*
X161590568Y-92129334D01*
X161357769Y-92058715D01*
X161197312Y-92042911D01*
X161323900Y-92004511D01*
X161538448Y-91889833D01*
X161726502Y-91735502D01*
X161880833Y-91547449D01*
X161995511Y-91332901D01*
X162066130Y-91100102D01*
X162084000Y-90918665D01*
X162084000Y-89997336D01*
X162066130Y-89815899D01*
X161995511Y-89583099D01*
X161880833Y-89368551D01*
X161726502Y-89180498D01*
X161683625Y-89145310D01*
X161756502Y-89085502D01*
X161910833Y-88897449D01*
X162025511Y-88682901D01*
X162096130Y-88450102D01*
X162114000Y-88268665D01*
X162114000Y-87347336D01*
X162096130Y-87165899D01*
X162025511Y-86933099D01*
X161910833Y-86718551D01*
X161756502Y-86530498D01*
X161568449Y-86376167D01*
X161353901Y-86261489D01*
X161121102Y-86190870D01*
X160879000Y-86167025D01*
X160636899Y-86190870D01*
X160404100Y-86261489D01*
X160189552Y-86376167D01*
X160001499Y-86530498D01*
X159847168Y-86718551D01*
X159732489Y-86933099D01*
X159661870Y-87165898D01*
X159644000Y-87347335D01*
X159644000Y-88268664D01*
X159661870Y-88450101D01*
X159732489Y-88682900D01*
X159847167Y-88897448D01*
X160001498Y-89085502D01*
X160044375Y-89120690D01*
X159971499Y-89180498D01*
X159817168Y-89368551D01*
X159702489Y-89583099D01*
X159631870Y-89815898D01*
X159614000Y-89997335D01*
X159614000Y-90918664D01*
X159631870Y-91100101D01*
X159702489Y-91332900D01*
X159817167Y-91547448D01*
X159971498Y-91735502D01*
X160159551Y-91889833D01*
X160374099Y-92004511D01*
X160493876Y-92040845D01*
X160255002Y-92040845D01*
X160073565Y-92058715D01*
X159840766Y-92129334D01*
X159626218Y-92244012D01*
X159438165Y-92398343D01*
X159283834Y-92586396D01*
X159169156Y-92800944D01*
X159098537Y-93033743D01*
X159074692Y-93275845D01*
X158786642Y-93275845D01*
X158762797Y-93033743D01*
X158692178Y-92800944D01*
X158577500Y-92586396D01*
X158423169Y-92398343D01*
X158235116Y-92244012D01*
X158020568Y-92129334D01*
X157787769Y-92058715D01*
X157606332Y-92040845D01*
X156685002Y-92040845D01*
X156503565Y-92058715D01*
X156270766Y-92129334D01*
X156056218Y-92244012D01*
X155868165Y-92398343D01*
X155713834Y-92586396D01*
X155599156Y-92800944D01*
X155528537Y-93033743D01*
X155504692Y-93275845D01*
X108610000Y-93275845D01*
X108610000Y-89997335D01*
X121514000Y-89997335D01*
X121514000Y-90918664D01*
X121531870Y-91100101D01*
X121602489Y-91332900D01*
X121717167Y-91547448D01*
X121871498Y-91735502D01*
X122059551Y-91889833D01*
X122274099Y-92004511D01*
X122506898Y-92075130D01*
X122749000Y-92098975D01*
X122991101Y-92075130D01*
X123223900Y-92004511D01*
X123438448Y-91889833D01*
X123626502Y-91735502D01*
X123780833Y-91547449D01*
X123895511Y-91332901D01*
X123966130Y-91100102D01*
X123984000Y-90918665D01*
X123984000Y-89997336D01*
X123984000Y-89997335D01*
X124054000Y-89997335D01*
X124054000Y-90918664D01*
X124071870Y-91100101D01*
X124142489Y-91332900D01*
X124257167Y-91547448D01*
X124411498Y-91735502D01*
X124599551Y-91889833D01*
X124814099Y-92004511D01*
X125046898Y-92075130D01*
X125289000Y-92098975D01*
X125531101Y-92075130D01*
X125763900Y-92004511D01*
X125978448Y-91889833D01*
X126166502Y-91735502D01*
X126320833Y-91547449D01*
X126435511Y-91332901D01*
X126506130Y-91100102D01*
X126524000Y-90918665D01*
X126524000Y-89997336D01*
X126524000Y-89997335D01*
X126594000Y-89997335D01*
X126594000Y-90918664D01*
X126611870Y-91100101D01*
X126682489Y-91332900D01*
X126797167Y-91547448D01*
X126951498Y-91735502D01*
X127139551Y-91889833D01*
X127354099Y-92004511D01*
X127586898Y-92075130D01*
X127829000Y-92098975D01*
X128071101Y-92075130D01*
X128303900Y-92004511D01*
X128518448Y-91889833D01*
X128706502Y-91735502D01*
X128860833Y-91547449D01*
X128975511Y-91332901D01*
X129046130Y-91100102D01*
X129064000Y-90918665D01*
X129064000Y-89997336D01*
X129064000Y-89997335D01*
X129134000Y-89997335D01*
X129134000Y-90918664D01*
X129151870Y-91100101D01*
X129222489Y-91332900D01*
X129337167Y-91547448D01*
X129491498Y-91735502D01*
X129679551Y-91889833D01*
X129894099Y-92004511D01*
X130126898Y-92075130D01*
X130369000Y-92098975D01*
X130611101Y-92075130D01*
X130843900Y-92004511D01*
X131058448Y-91889833D01*
X131246502Y-91735502D01*
X131400833Y-91547449D01*
X131515511Y-91332901D01*
X131586130Y-91100102D01*
X131604000Y-90918665D01*
X131604000Y-89997336D01*
X131604000Y-89997335D01*
X131674000Y-89997335D01*
X131674000Y-90918664D01*
X131691870Y-91100101D01*
X131762489Y-91332900D01*
X131877167Y-91547448D01*
X132031498Y-91735502D01*
X132219551Y-91889833D01*
X132434099Y-92004511D01*
X132666898Y-92075130D01*
X132909000Y-92098975D01*
X133151101Y-92075130D01*
X133383900Y-92004511D01*
X133598448Y-91889833D01*
X133786502Y-91735502D01*
X133940833Y-91547449D01*
X134055511Y-91332901D01*
X134126130Y-91100102D01*
X134144000Y-90918665D01*
X134144000Y-89997336D01*
X134144000Y-89997335D01*
X134214000Y-89997335D01*
X134214000Y-90918664D01*
X134231870Y-91100101D01*
X134302489Y-91332900D01*
X134417167Y-91547448D01*
X134571498Y-91735502D01*
X134759551Y-91889833D01*
X134974099Y-92004511D01*
X135206898Y-92075130D01*
X135449000Y-92098975D01*
X135691101Y-92075130D01*
X135923900Y-92004511D01*
X136138448Y-91889833D01*
X136326502Y-91735502D01*
X136480833Y-91547449D01*
X136595511Y-91332901D01*
X136666130Y-91100102D01*
X136684000Y-90918665D01*
X136684000Y-89997336D01*
X136684000Y-89997335D01*
X136754000Y-89997335D01*
X136754000Y-90918664D01*
X136771870Y-91100101D01*
X136842489Y-91332900D01*
X136957167Y-91547448D01*
X137111498Y-91735502D01*
X137299551Y-91889833D01*
X137514099Y-92004511D01*
X137746898Y-92075130D01*
X137989000Y-92098975D01*
X138231101Y-92075130D01*
X138463900Y-92004511D01*
X138678448Y-91889833D01*
X138866502Y-91735502D01*
X139020833Y-91547449D01*
X139135511Y-91332901D01*
X139206130Y-91100102D01*
X139224000Y-90918665D01*
X139224000Y-89997336D01*
X139224000Y-89997335D01*
X139294000Y-89997335D01*
X139294000Y-90918664D01*
X139311870Y-91100101D01*
X139382489Y-91332900D01*
X139497167Y-91547448D01*
X139651498Y-91735502D01*
X139839551Y-91889833D01*
X140054099Y-92004511D01*
X140286898Y-92075130D01*
X140529000Y-92098975D01*
X140771101Y-92075130D01*
X141003900Y-92004511D01*
X141218448Y-91889833D01*
X141406502Y-91735502D01*
X141560833Y-91547449D01*
X141675511Y-91332901D01*
X141746130Y-91100102D01*
X141764000Y-90918665D01*
X141764000Y-89997336D01*
X141764000Y-89997335D01*
X141834000Y-89997335D01*
X141834000Y-90918664D01*
X141851870Y-91100101D01*
X141922489Y-91332900D01*
X142037167Y-91547448D01*
X142191498Y-91735502D01*
X142379551Y-91889833D01*
X142594099Y-92004511D01*
X142826898Y-92075130D01*
X143069000Y-92098975D01*
X143311101Y-92075130D01*
X143543900Y-92004511D01*
X143758448Y-91889833D01*
X143946502Y-91735502D01*
X144100833Y-91547449D01*
X144215511Y-91332901D01*
X144286130Y-91100102D01*
X144304000Y-90918665D01*
X144304000Y-89997336D01*
X144304000Y-89997335D01*
X144374000Y-89997335D01*
X144374000Y-90918664D01*
X144391870Y-91100101D01*
X144462489Y-91332900D01*
X144577167Y-91547448D01*
X144731498Y-91735502D01*
X144919551Y-91889833D01*
X145134099Y-92004511D01*
X145366898Y-92075130D01*
X145609000Y-92098975D01*
X145851101Y-92075130D01*
X146083900Y-92004511D01*
X146298448Y-91889833D01*
X146486502Y-91735502D01*
X146640833Y-91547449D01*
X146755511Y-91332901D01*
X146826130Y-91100102D01*
X146844000Y-90918665D01*
X146844000Y-89997336D01*
X146844000Y-89997335D01*
X146914000Y-89997335D01*
X146914000Y-90918664D01*
X146931870Y-91100101D01*
X147002489Y-91332900D01*
X147117167Y-91547448D01*
X147271498Y-91735502D01*
X147459551Y-91889833D01*
X147674099Y-92004511D01*
X147906898Y-92075130D01*
X148149000Y-92098975D01*
X148391101Y-92075130D01*
X148623900Y-92004511D01*
X148838448Y-91889833D01*
X149026502Y-91735502D01*
X149180833Y-91547449D01*
X149295511Y-91332901D01*
X149366130Y-91100102D01*
X149384000Y-90918665D01*
X149384000Y-89997336D01*
X149384000Y-89997335D01*
X149454000Y-89997335D01*
X149454000Y-90918664D01*
X149471870Y-91100101D01*
X149542489Y-91332900D01*
X149657167Y-91547448D01*
X149811498Y-91735502D01*
X149999551Y-91889833D01*
X150214099Y-92004511D01*
X150446898Y-92075130D01*
X150689000Y-92098975D01*
X150931101Y-92075130D01*
X151163900Y-92004511D01*
X151378448Y-91889833D01*
X151566502Y-91735502D01*
X151720833Y-91547449D01*
X151835511Y-91332901D01*
X151906130Y-91100102D01*
X151924000Y-90918665D01*
X151924000Y-89997336D01*
X151924000Y-89997335D01*
X151994000Y-89997335D01*
X151994000Y-90918664D01*
X152011870Y-91100101D01*
X152082489Y-91332900D01*
X152197167Y-91547448D01*
X152351498Y-91735502D01*
X152539551Y-91889833D01*
X152754099Y-92004511D01*
X152986898Y-92075130D01*
X153229000Y-92098975D01*
X153471101Y-92075130D01*
X153703900Y-92004511D01*
X153918448Y-91889833D01*
X154106502Y-91735502D01*
X154260833Y-91547449D01*
X154375511Y-91332901D01*
X154446130Y-91100102D01*
X154464000Y-90918665D01*
X154464000Y-89997336D01*
X154464000Y-89997335D01*
X154534000Y-89997335D01*
X154534000Y-90918664D01*
X154551870Y-91100101D01*
X154622489Y-91332900D01*
X154737167Y-91547448D01*
X154891498Y-91735502D01*
X155079551Y-91889833D01*
X155294099Y-92004511D01*
X155526898Y-92075130D01*
X155769000Y-92098975D01*
X156011101Y-92075130D01*
X156243900Y-92004511D01*
X156458448Y-91889833D01*
X156646502Y-91735502D01*
X156800833Y-91547449D01*
X156915511Y-91332901D01*
X156986130Y-91100102D01*
X157004000Y-90918665D01*
X157004000Y-89997336D01*
X157004000Y-89997335D01*
X157074000Y-89997335D01*
X157074000Y-90918664D01*
X157091870Y-91100101D01*
X157162489Y-91332900D01*
X157277167Y-91547448D01*
X157431498Y-91735502D01*
X157619551Y-91889833D01*
X157834099Y-92004511D01*
X158066898Y-92075130D01*
X158309000Y-92098975D01*
X158551101Y-92075130D01*
X158783900Y-92004511D01*
X158998448Y-91889833D01*
X159186502Y-91735502D01*
X159340833Y-91547449D01*
X159455511Y-91332901D01*
X159526130Y-91100102D01*
X159544000Y-90918665D01*
X159544000Y-89997336D01*
X159526130Y-89815899D01*
X159455511Y-89583099D01*
X159340833Y-89368551D01*
X159186502Y-89180498D01*
X159143625Y-89145310D01*
X159216502Y-89085502D01*
X159370833Y-88897449D01*
X159485511Y-88682901D01*
X159556130Y-88450102D01*
X159574000Y-88268665D01*
X159574000Y-87347336D01*
X159556130Y-87165899D01*
X159485511Y-86933099D01*
X159370833Y-86718551D01*
X159216502Y-86530498D01*
X159028449Y-86376167D01*
X158813901Y-86261489D01*
X158581102Y-86190870D01*
X158339000Y-86167025D01*
X158096899Y-86190870D01*
X157864100Y-86261489D01*
X157649552Y-86376167D01*
X157461499Y-86530498D01*
X157307168Y-86718551D01*
X157192489Y-86933099D01*
X157121870Y-87165898D01*
X157104000Y-87347335D01*
X157104000Y-88268664D01*
X157121870Y-88450101D01*
X157192489Y-88682900D01*
X157307167Y-88897448D01*
X157461498Y-89085502D01*
X157504375Y-89120690D01*
X157431499Y-89180498D01*
X157277168Y-89368551D01*
X157162489Y-89583099D01*
X157091870Y-89815898D01*
X157074000Y-89997335D01*
X157004000Y-89997335D01*
X156986130Y-89815899D01*
X156915511Y-89583099D01*
X156800833Y-89368551D01*
X156646502Y-89180498D01*
X156603625Y-89145310D01*
X156676502Y-89085502D01*
X156830833Y-88897449D01*
X156945511Y-88682901D01*
X157016130Y-88450102D01*
X157034000Y-88268665D01*
X157034000Y-87347336D01*
X157016130Y-87165899D01*
X156945511Y-86933099D01*
X156830833Y-86718551D01*
X156676502Y-86530498D01*
X156488449Y-86376167D01*
X156273901Y-86261489D01*
X156041102Y-86190870D01*
X155799000Y-86167025D01*
X155556899Y-86190870D01*
X155324100Y-86261489D01*
X155109552Y-86376167D01*
X154921499Y-86530498D01*
X154767168Y-86718551D01*
X154652489Y-86933099D01*
X154581870Y-87165898D01*
X154564000Y-87347335D01*
X154564000Y-88268664D01*
X154581870Y-88450101D01*
X154652489Y-88682900D01*
X154767167Y-88897448D01*
X154921498Y-89085502D01*
X154964375Y-89120690D01*
X154891499Y-89180498D01*
X154737168Y-89368551D01*
X154622489Y-89583099D01*
X154551870Y-89815898D01*
X154534000Y-89997335D01*
X154464000Y-89997335D01*
X154446130Y-89815899D01*
X154375511Y-89583099D01*
X154260833Y-89368551D01*
X154106502Y-89180498D01*
X154063625Y-89145310D01*
X154136502Y-89085502D01*
X154290833Y-88897449D01*
X154405511Y-88682901D01*
X154476130Y-88450102D01*
X154494000Y-88268665D01*
X154494000Y-87347336D01*
X154476130Y-87165899D01*
X154405511Y-86933099D01*
X154290833Y-86718551D01*
X154136502Y-86530498D01*
X153948449Y-86376167D01*
X153733901Y-86261489D01*
X153501102Y-86190870D01*
X153259000Y-86167025D01*
X153016899Y-86190870D01*
X152784100Y-86261489D01*
X152569552Y-86376167D01*
X152381499Y-86530498D01*
X152227168Y-86718551D01*
X152112489Y-86933099D01*
X152041870Y-87165898D01*
X152024000Y-87347335D01*
X152024000Y-88268664D01*
X152041870Y-88450101D01*
X152112489Y-88682900D01*
X152227167Y-88897448D01*
X152381498Y-89085502D01*
X152424375Y-89120690D01*
X152351499Y-89180498D01*
X152197168Y-89368551D01*
X152082489Y-89583099D01*
X152011870Y-89815898D01*
X151994000Y-89997335D01*
X151924000Y-89997335D01*
X151906130Y-89815899D01*
X151835511Y-89583099D01*
X151720833Y-89368551D01*
X151566502Y-89180498D01*
X151523625Y-89145310D01*
X151596502Y-89085502D01*
X151750833Y-88897449D01*
X151865511Y-88682901D01*
X151936130Y-88450102D01*
X151954000Y-88268665D01*
X151954000Y-87347336D01*
X151936130Y-87165899D01*
X151865511Y-86933099D01*
X151750833Y-86718551D01*
X151596502Y-86530498D01*
X151408449Y-86376167D01*
X151193901Y-86261489D01*
X150961102Y-86190870D01*
X150719000Y-86167025D01*
X150476899Y-86190870D01*
X150244100Y-86261489D01*
X150029552Y-86376167D01*
X149841499Y-86530498D01*
X149687168Y-86718551D01*
X149572489Y-86933099D01*
X149501870Y-87165898D01*
X149484000Y-87347335D01*
X149484000Y-88268664D01*
X149501870Y-88450101D01*
X149572489Y-88682900D01*
X149687167Y-88897448D01*
X149841498Y-89085502D01*
X149884375Y-89120690D01*
X149811499Y-89180498D01*
X149657168Y-89368551D01*
X149542489Y-89583099D01*
X149471870Y-89815898D01*
X149454000Y-89997335D01*
X149384000Y-89997335D01*
X149366130Y-89815899D01*
X149295511Y-89583099D01*
X149180833Y-89368551D01*
X149026502Y-89180498D01*
X148983625Y-89145310D01*
X149056502Y-89085502D01*
X149210833Y-88897449D01*
X149325511Y-88682901D01*
X149396130Y-88450102D01*
X149414000Y-88268665D01*
X149414000Y-87347336D01*
X149396130Y-87165899D01*
X149325511Y-86933099D01*
X149210833Y-86718551D01*
X149056502Y-86530498D01*
X148868449Y-86376167D01*
X148653901Y-86261489D01*
X148421102Y-86190870D01*
X148179000Y-86167025D01*
X147936899Y-86190870D01*
X147704100Y-86261489D01*
X147489552Y-86376167D01*
X147301499Y-86530498D01*
X147147168Y-86718551D01*
X147032489Y-86933099D01*
X146961870Y-87165898D01*
X146944000Y-87347335D01*
X146944000Y-88268664D01*
X146961870Y-88450101D01*
X147032489Y-88682900D01*
X147147167Y-88897448D01*
X147301498Y-89085502D01*
X147344375Y-89120690D01*
X147271499Y-89180498D01*
X147117168Y-89368551D01*
X147002489Y-89583099D01*
X146931870Y-89815898D01*
X146914000Y-89997335D01*
X146844000Y-89997335D01*
X146826130Y-89815899D01*
X146755511Y-89583099D01*
X146640833Y-89368551D01*
X146486502Y-89180498D01*
X146443625Y-89145310D01*
X146516502Y-89085502D01*
X146670833Y-88897449D01*
X146785511Y-88682901D01*
X146856130Y-88450102D01*
X146874000Y-88268665D01*
X146874000Y-87347336D01*
X146856130Y-87165899D01*
X146785511Y-86933099D01*
X146670833Y-86718551D01*
X146516502Y-86530498D01*
X146328449Y-86376167D01*
X146113901Y-86261489D01*
X145881102Y-86190870D01*
X145639000Y-86167025D01*
X145396899Y-86190870D01*
X145164100Y-86261489D01*
X144949552Y-86376167D01*
X144761499Y-86530498D01*
X144607168Y-86718551D01*
X144492489Y-86933099D01*
X144421870Y-87165898D01*
X144404000Y-87347335D01*
X144404000Y-88268664D01*
X144421870Y-88450101D01*
X144492489Y-88682900D01*
X144607167Y-88897448D01*
X144761498Y-89085502D01*
X144804375Y-89120690D01*
X144731499Y-89180498D01*
X144577168Y-89368551D01*
X144462489Y-89583099D01*
X144391870Y-89815898D01*
X144374000Y-89997335D01*
X144304000Y-89997335D01*
X144286130Y-89815899D01*
X144215511Y-89583099D01*
X144100833Y-89368551D01*
X143946502Y-89180498D01*
X143903625Y-89145310D01*
X143976502Y-89085502D01*
X144130833Y-88897449D01*
X144245511Y-88682901D01*
X144316130Y-88450102D01*
X144334000Y-88268665D01*
X144334000Y-87347336D01*
X144316130Y-87165899D01*
X144245511Y-86933099D01*
X144130833Y-86718551D01*
X143976502Y-86530498D01*
X143788449Y-86376167D01*
X143573901Y-86261489D01*
X143341102Y-86190870D01*
X143099000Y-86167025D01*
X142856899Y-86190870D01*
X142624100Y-86261489D01*
X142409552Y-86376167D01*
X142221499Y-86530498D01*
X142067168Y-86718551D01*
X141952489Y-86933099D01*
X141881870Y-87165898D01*
X141864000Y-87347335D01*
X141864000Y-88268664D01*
X141881870Y-88450101D01*
X141952489Y-88682900D01*
X142067167Y-88897448D01*
X142221498Y-89085502D01*
X142264375Y-89120690D01*
X142191499Y-89180498D01*
X142037168Y-89368551D01*
X141922489Y-89583099D01*
X141851870Y-89815898D01*
X141834000Y-89997335D01*
X141764000Y-89997335D01*
X141746130Y-89815899D01*
X141675511Y-89583099D01*
X141560833Y-89368551D01*
X141406502Y-89180498D01*
X141363625Y-89145310D01*
X141436502Y-89085502D01*
X141590833Y-88897449D01*
X141705511Y-88682901D01*
X141776130Y-88450102D01*
X141794000Y-88268665D01*
X141794000Y-87347336D01*
X141776130Y-87165899D01*
X141705511Y-86933099D01*
X141590833Y-86718551D01*
X141436502Y-86530498D01*
X141248449Y-86376167D01*
X141033901Y-86261489D01*
X140801102Y-86190870D01*
X140559000Y-86167025D01*
X140316899Y-86190870D01*
X140084100Y-86261489D01*
X139869552Y-86376167D01*
X139681499Y-86530498D01*
X139527168Y-86718551D01*
X139412489Y-86933099D01*
X139341870Y-87165898D01*
X139324000Y-87347335D01*
X139324000Y-88268664D01*
X139341870Y-88450101D01*
X139412489Y-88682900D01*
X139527167Y-88897448D01*
X139681498Y-89085502D01*
X139724375Y-89120690D01*
X139651499Y-89180498D01*
X139497168Y-89368551D01*
X139382489Y-89583099D01*
X139311870Y-89815898D01*
X139294000Y-89997335D01*
X139224000Y-89997335D01*
X139206130Y-89815899D01*
X139135511Y-89583099D01*
X139020833Y-89368551D01*
X138866502Y-89180498D01*
X138823625Y-89145310D01*
X138896502Y-89085502D01*
X139050833Y-88897449D01*
X139165511Y-88682901D01*
X139236130Y-88450102D01*
X139254000Y-88268665D01*
X139254000Y-87347336D01*
X139236130Y-87165899D01*
X139165511Y-86933099D01*
X139050833Y-86718551D01*
X138896502Y-86530498D01*
X138708449Y-86376167D01*
X138493901Y-86261489D01*
X138261102Y-86190870D01*
X138019000Y-86167025D01*
X137776899Y-86190870D01*
X137544100Y-86261489D01*
X137329552Y-86376167D01*
X137141499Y-86530498D01*
X136987168Y-86718551D01*
X136872489Y-86933099D01*
X136801870Y-87165898D01*
X136784000Y-87347335D01*
X136784000Y-88268664D01*
X136801870Y-88450101D01*
X136872489Y-88682900D01*
X136987167Y-88897448D01*
X137141498Y-89085502D01*
X137184375Y-89120690D01*
X137111499Y-89180498D01*
X136957168Y-89368551D01*
X136842489Y-89583099D01*
X136771870Y-89815898D01*
X136754000Y-89997335D01*
X136684000Y-89997335D01*
X136666130Y-89815899D01*
X136595511Y-89583099D01*
X136480833Y-89368551D01*
X136326502Y-89180498D01*
X136283625Y-89145310D01*
X136356502Y-89085502D01*
X136510833Y-88897449D01*
X136625511Y-88682901D01*
X136696130Y-88450102D01*
X136714000Y-88268665D01*
X136714000Y-87347336D01*
X136696130Y-87165899D01*
X136625511Y-86933099D01*
X136510833Y-86718551D01*
X136356502Y-86530498D01*
X136168449Y-86376167D01*
X135953901Y-86261489D01*
X135721102Y-86190870D01*
X135479000Y-86167025D01*
X135236899Y-86190870D01*
X135004100Y-86261489D01*
X134789552Y-86376167D01*
X134601499Y-86530498D01*
X134447168Y-86718551D01*
X134332489Y-86933099D01*
X134261870Y-87165898D01*
X134244000Y-87347335D01*
X134244000Y-88268664D01*
X134261870Y-88450101D01*
X134332489Y-88682900D01*
X134447167Y-88897448D01*
X134601498Y-89085502D01*
X134644375Y-89120690D01*
X134571499Y-89180498D01*
X134417168Y-89368551D01*
X134302489Y-89583099D01*
X134231870Y-89815898D01*
X134214000Y-89997335D01*
X134144000Y-89997335D01*
X134126130Y-89815899D01*
X134055511Y-89583099D01*
X133940833Y-89368551D01*
X133786502Y-89180498D01*
X133743625Y-89145310D01*
X133816502Y-89085502D01*
X133970833Y-88897449D01*
X134085511Y-88682901D01*
X134156130Y-88450102D01*
X134174000Y-88268665D01*
X134174000Y-87347336D01*
X134156130Y-87165899D01*
X134085511Y-86933099D01*
X133970833Y-86718551D01*
X133816502Y-86530498D01*
X133628449Y-86376167D01*
X133413901Y-86261489D01*
X133181102Y-86190870D01*
X132939000Y-86167025D01*
X132696899Y-86190870D01*
X132464100Y-86261489D01*
X132249552Y-86376167D01*
X132061499Y-86530498D01*
X131907168Y-86718551D01*
X131792489Y-86933099D01*
X131721870Y-87165898D01*
X131704000Y-87347335D01*
X131704000Y-88268664D01*
X131721870Y-88450101D01*
X131792489Y-88682900D01*
X131907167Y-88897448D01*
X132061498Y-89085502D01*
X132104375Y-89120690D01*
X132031499Y-89180498D01*
X131877168Y-89368551D01*
X131762489Y-89583099D01*
X131691870Y-89815898D01*
X131674000Y-89997335D01*
X131604000Y-89997335D01*
X131586130Y-89815899D01*
X131515511Y-89583099D01*
X131400833Y-89368551D01*
X131246502Y-89180498D01*
X131203625Y-89145310D01*
X131276502Y-89085502D01*
X131430833Y-88897449D01*
X131545511Y-88682901D01*
X131616130Y-88450102D01*
X131634000Y-88268665D01*
X131634000Y-87347336D01*
X131616130Y-87165899D01*
X131545511Y-86933099D01*
X131430833Y-86718551D01*
X131276502Y-86530498D01*
X131088449Y-86376167D01*
X130873901Y-86261489D01*
X130641102Y-86190870D01*
X130399000Y-86167025D01*
X130156899Y-86190870D01*
X129924100Y-86261489D01*
X129709552Y-86376167D01*
X129521499Y-86530498D01*
X129367168Y-86718551D01*
X129252489Y-86933099D01*
X129181870Y-87165898D01*
X129164000Y-87347335D01*
X129164000Y-88268664D01*
X129181870Y-88450101D01*
X129252489Y-88682900D01*
X129367167Y-88897448D01*
X129521498Y-89085502D01*
X129564375Y-89120690D01*
X129491499Y-89180498D01*
X129337168Y-89368551D01*
X129222489Y-89583099D01*
X129151870Y-89815898D01*
X129134000Y-89997335D01*
X129064000Y-89997335D01*
X129046130Y-89815899D01*
X128975511Y-89583099D01*
X128860833Y-89368551D01*
X128706502Y-89180498D01*
X128663625Y-89145310D01*
X128736502Y-89085502D01*
X128890833Y-88897449D01*
X129005511Y-88682901D01*
X129076130Y-88450102D01*
X129094000Y-88268665D01*
X129094000Y-87347336D01*
X129076130Y-87165899D01*
X129005511Y-86933099D01*
X128890833Y-86718551D01*
X128736502Y-86530498D01*
X128548449Y-86376167D01*
X128333901Y-86261489D01*
X128101102Y-86190870D01*
X127859000Y-86167025D01*
X127616899Y-86190870D01*
X127384100Y-86261489D01*
X127169552Y-86376167D01*
X126981499Y-86530498D01*
X126827168Y-86718551D01*
X126712489Y-86933099D01*
X126641870Y-87165898D01*
X126624000Y-87347335D01*
X126624000Y-88268664D01*
X126641870Y-88450101D01*
X126712489Y-88682900D01*
X126827167Y-88897448D01*
X126981498Y-89085502D01*
X127024375Y-89120690D01*
X126951499Y-89180498D01*
X126797168Y-89368551D01*
X126682489Y-89583099D01*
X126611870Y-89815898D01*
X126594000Y-89997335D01*
X126524000Y-89997335D01*
X126506130Y-89815899D01*
X126435511Y-89583099D01*
X126320833Y-89368551D01*
X126166502Y-89180498D01*
X126123625Y-89145310D01*
X126196502Y-89085502D01*
X126350833Y-88897449D01*
X126465511Y-88682901D01*
X126536130Y-88450102D01*
X126554000Y-88268665D01*
X126554000Y-87347336D01*
X126536130Y-87165899D01*
X126465511Y-86933099D01*
X126350833Y-86718551D01*
X126196502Y-86530498D01*
X126008449Y-86376167D01*
X125793901Y-86261489D01*
X125561102Y-86190870D01*
X125319000Y-86167025D01*
X125076899Y-86190870D01*
X124844100Y-86261489D01*
X124629552Y-86376167D01*
X124441499Y-86530498D01*
X124287168Y-86718551D01*
X124172489Y-86933099D01*
X124101870Y-87165898D01*
X124084000Y-87347335D01*
X124084000Y-88268664D01*
X124101870Y-88450101D01*
X124172489Y-88682900D01*
X124287167Y-88897448D01*
X124441498Y-89085502D01*
X124484375Y-89120690D01*
X124411499Y-89180498D01*
X124257168Y-89368551D01*
X124142489Y-89583099D01*
X124071870Y-89815898D01*
X124054000Y-89997335D01*
X123984000Y-89997335D01*
X123966130Y-89815899D01*
X123895511Y-89583099D01*
X123780833Y-89368551D01*
X123626502Y-89180498D01*
X123583625Y-89145310D01*
X123656502Y-89085502D01*
X123810833Y-88897449D01*
X123925511Y-88682901D01*
X123996130Y-88450102D01*
X124014000Y-88268665D01*
X124014000Y-87347336D01*
X123996130Y-87165899D01*
X123925511Y-86933099D01*
X123810833Y-86718551D01*
X123656502Y-86530498D01*
X123468449Y-86376167D01*
X123253901Y-86261489D01*
X123021102Y-86190870D01*
X122779000Y-86167025D01*
X122536899Y-86190870D01*
X122304100Y-86261489D01*
X122089552Y-86376167D01*
X121901499Y-86530498D01*
X121747168Y-86718551D01*
X121632489Y-86933099D01*
X121561870Y-87165898D01*
X121544000Y-87347335D01*
X121544000Y-88268664D01*
X121561870Y-88450101D01*
X121632489Y-88682900D01*
X121747167Y-88897448D01*
X121901498Y-89085502D01*
X121944375Y-89120690D01*
X121871499Y-89180498D01*
X121717168Y-89368551D01*
X121602489Y-89583099D01*
X121531870Y-89815898D01*
X121514000Y-89997335D01*
X108610000Y-89997335D01*
X108610000Y-85750000D01*
X172060001Y-85750000D01*
X172060001Y-87335364D01*
G37*
%TD.AperFunction*%
D18*
X172060000Y-135230000D02*
X149887513Y-135230000D01*
X150206893Y-134910620D01*
X150282749Y-134818190D01*
X150329386Y-134730937D01*
X150442842Y-134777932D01*
X150729740Y-134835000D01*
X151022260Y-134835000D01*
X151309158Y-134777932D01*
X151579411Y-134665990D01*
X151822632Y-134503475D01*
X152029475Y-134296632D01*
X152146000Y-134122240D01*
X152262525Y-134296632D01*
X152469368Y-134503475D01*
X152712589Y-134665990D01*
X152982842Y-134777932D01*
X153269740Y-134835000D01*
X153562260Y-134835000D01*
X153849158Y-134777932D01*
X154119411Y-134665990D01*
X154362632Y-134503475D01*
X154569475Y-134296632D01*
X154686000Y-134122240D01*
X154802525Y-134296632D01*
X155009368Y-134503475D01*
X155252589Y-134665990D01*
X155522842Y-134777932D01*
X155809740Y-134835000D01*
X156102260Y-134835000D01*
X156389158Y-134777932D01*
X156659411Y-134665990D01*
X156902632Y-134503475D01*
X157109475Y-134296632D01*
X157226000Y-134122240D01*
X157342525Y-134296632D01*
X157549368Y-134503475D01*
X157792589Y-134665990D01*
X158062842Y-134777932D01*
X158349740Y-134835000D01*
X158642260Y-134835000D01*
X158929158Y-134777932D01*
X159199411Y-134665990D01*
X159442632Y-134503475D01*
X159649475Y-134296632D01*
X159766000Y-134122240D01*
X159882525Y-134296632D01*
X160089368Y-134503475D01*
X160332589Y-134665990D01*
X160602842Y-134777932D01*
X160889740Y-134835000D01*
X161182260Y-134835000D01*
X161469158Y-134777932D01*
X161739411Y-134665990D01*
X161982632Y-134503475D01*
X162189475Y-134296632D01*
X162306000Y-134122240D01*
X162422525Y-134296632D01*
X162629368Y-134503475D01*
X162872589Y-134665990D01*
X163142842Y-134777932D01*
X163429740Y-134835000D01*
X163722260Y-134835000D01*
X164009158Y-134777932D01*
X164279411Y-134665990D01*
X164522632Y-134503475D01*
X164729475Y-134296632D01*
X164851195Y-134114466D01*
X164920822Y-134231355D01*
X165115731Y-134447588D01*
X165349080Y-134621641D01*
X165611901Y-134746825D01*
X165759110Y-134791476D01*
X165989000Y-134670155D01*
X165989000Y-133477000D01*
X166243000Y-133477000D01*
X166243000Y-134670155D01*
X166472890Y-134791476D01*
X166620099Y-134746825D01*
X166882920Y-134621641D01*
X167116269Y-134447588D01*
X167311178Y-134231355D01*
X167460157Y-133981252D01*
X167557481Y-133706891D01*
X167436814Y-133477000D01*
X166243000Y-133477000D01*
X165989000Y-133477000D01*
X165969000Y-133477000D01*
X165969000Y-133223000D01*
X165989000Y-133223000D01*
X165989000Y-133203000D01*
X166243000Y-133203000D01*
X166243000Y-133223000D01*
X167436814Y-133223000D01*
X167557481Y-132993109D01*
X167460157Y-132718748D01*
X167311178Y-132468645D01*
X167116269Y-132252412D01*
X166886594Y-132081100D01*
X167062632Y-131963475D01*
X167269475Y-131756632D01*
X167431990Y-131513411D01*
X167543932Y-131243158D01*
X167601000Y-130956260D01*
X167601000Y-130663740D01*
X167543932Y-130376842D01*
X167431990Y-130106589D01*
X167269475Y-129863368D01*
X167062632Y-129656525D01*
X166819411Y-129494010D01*
X166549158Y-129382068D01*
X166262260Y-129325000D01*
X165969740Y-129325000D01*
X165682842Y-129382068D01*
X165412589Y-129494010D01*
X165169368Y-129656525D01*
X164962525Y-129863368D01*
X164846000Y-130037760D01*
X164729475Y-129863368D01*
X164522632Y-129656525D01*
X164279411Y-129494010D01*
X164009158Y-129382068D01*
X163722260Y-129325000D01*
X163429740Y-129325000D01*
X163142842Y-129382068D01*
X162872589Y-129494010D01*
X162629368Y-129656525D01*
X162422525Y-129863368D01*
X162306000Y-130037760D01*
X162189475Y-129863368D01*
X161982632Y-129656525D01*
X161739411Y-129494010D01*
X161469158Y-129382068D01*
X161182260Y-129325000D01*
X160889740Y-129325000D01*
X160602842Y-129382068D01*
X160332589Y-129494010D01*
X160089368Y-129656525D01*
X159882525Y-129863368D01*
X159766000Y-130037760D01*
X159649475Y-129863368D01*
X159442632Y-129656525D01*
X159199411Y-129494010D01*
X158929158Y-129382068D01*
X158642260Y-129325000D01*
X158349740Y-129325000D01*
X158062842Y-129382068D01*
X157792589Y-129494010D01*
X157549368Y-129656525D01*
X157342525Y-129863368D01*
X157226000Y-130037760D01*
X157109475Y-129863368D01*
X156902632Y-129656525D01*
X156659411Y-129494010D01*
X156389158Y-129382068D01*
X156102260Y-129325000D01*
X155809740Y-129325000D01*
X155522842Y-129382068D01*
X155252589Y-129494010D01*
X155009368Y-129656525D01*
X154802525Y-129863368D01*
X154686000Y-130037760D01*
X154569475Y-129863368D01*
X154362632Y-129656525D01*
X154119411Y-129494010D01*
X153849158Y-129382068D01*
X153562260Y-129325000D01*
X153269740Y-129325000D01*
X152982842Y-129382068D01*
X152712589Y-129494010D01*
X152469368Y-129656525D01*
X152262525Y-129863368D01*
X152146000Y-130037760D01*
X152029475Y-129863368D01*
X151822632Y-129656525D01*
X151579411Y-129494010D01*
X151309158Y-129382068D01*
X151022260Y-129325000D01*
X150729740Y-129325000D01*
X150442842Y-129382068D01*
X150366000Y-129413897D01*
X150366000Y-129163512D01*
X150957512Y-128572000D01*
X153757212Y-128572000D01*
X153797000Y-128575919D01*
X153836788Y-128572000D01*
X153836791Y-128572000D01*
X153955788Y-128560280D01*
X154108473Y-128513963D01*
X154249189Y-128438749D01*
X154372528Y-128337528D01*
X154397899Y-128306613D01*
X156093618Y-126610895D01*
X156124528Y-126585528D01*
X156181341Y-126516301D01*
X156225749Y-126462190D01*
X156276092Y-126368004D01*
X156300963Y-126321473D01*
X156328194Y-126231706D01*
X157260105Y-127163618D01*
X157285472Y-127194528D01*
X157408811Y-127295749D01*
X157549526Y-127370963D01*
X157702212Y-127417280D01*
X157861000Y-127432919D01*
X157900791Y-127429000D01*
X167854212Y-127429000D01*
X167894000Y-127432919D01*
X167933788Y-127429000D01*
X167933791Y-127429000D01*
X168052788Y-127417280D01*
X168205473Y-127370963D01*
X168346189Y-127295749D01*
X168469528Y-127194528D01*
X168494900Y-127163612D01*
X170507571Y-125150941D01*
X170668740Y-125183000D01*
X170961260Y-125183000D01*
X171248158Y-125125932D01*
X171518411Y-125013990D01*
X171761632Y-124851475D01*
X171968475Y-124644632D01*
X172060000Y-124507655D01*
X172060000Y-135230000D01*
%TA.AperFunction,Conductor*%
D19*
G36*
X172060000Y-135230000D02*
G01*
X149887513Y-135230000D01*
X150206893Y-134910620D01*
X150282749Y-134818190D01*
X150329386Y-134730937D01*
X150442842Y-134777932D01*
X150729740Y-134835000D01*
X151022260Y-134835000D01*
X151309158Y-134777932D01*
X151579411Y-134665990D01*
X151822632Y-134503475D01*
X152029475Y-134296632D01*
X152146000Y-134122240D01*
X152262525Y-134296632D01*
X152469368Y-134503475D01*
X152712589Y-134665990D01*
X152982842Y-134777932D01*
X153269740Y-134835000D01*
X153562260Y-134835000D01*
X153849158Y-134777932D01*
X154119411Y-134665990D01*
X154362632Y-134503475D01*
X154569475Y-134296632D01*
X154686000Y-134122240D01*
X154802525Y-134296632D01*
X155009368Y-134503475D01*
X155252589Y-134665990D01*
X155522842Y-134777932D01*
X155809740Y-134835000D01*
X156102260Y-134835000D01*
X156389158Y-134777932D01*
X156659411Y-134665990D01*
X156902632Y-134503475D01*
X157109475Y-134296632D01*
X157226000Y-134122240D01*
X157342525Y-134296632D01*
X157549368Y-134503475D01*
X157792589Y-134665990D01*
X158062842Y-134777932D01*
X158349740Y-134835000D01*
X158642260Y-134835000D01*
X158929158Y-134777932D01*
X159199411Y-134665990D01*
X159442632Y-134503475D01*
X159649475Y-134296632D01*
X159766000Y-134122240D01*
X159882525Y-134296632D01*
X160089368Y-134503475D01*
X160332589Y-134665990D01*
X160602842Y-134777932D01*
X160889740Y-134835000D01*
X161182260Y-134835000D01*
X161469158Y-134777932D01*
X161739411Y-134665990D01*
X161982632Y-134503475D01*
X162189475Y-134296632D01*
X162306000Y-134122240D01*
X162422525Y-134296632D01*
X162629368Y-134503475D01*
X162872589Y-134665990D01*
X163142842Y-134777932D01*
X163429740Y-134835000D01*
X163722260Y-134835000D01*
X164009158Y-134777932D01*
X164279411Y-134665990D01*
X164522632Y-134503475D01*
X164729475Y-134296632D01*
X164851195Y-134114466D01*
X164920822Y-134231355D01*
X165115731Y-134447588D01*
X165349080Y-134621641D01*
X165611901Y-134746825D01*
X165759110Y-134791476D01*
X165989000Y-134670155D01*
X165989000Y-133477000D01*
X166243000Y-133477000D01*
X166243000Y-134670155D01*
X166472890Y-134791476D01*
X166620099Y-134746825D01*
X166882920Y-134621641D01*
X167116269Y-134447588D01*
X167311178Y-134231355D01*
X167460157Y-133981252D01*
X167557481Y-133706891D01*
X167436814Y-133477000D01*
X166243000Y-133477000D01*
X165989000Y-133477000D01*
X165969000Y-133477000D01*
X165969000Y-133223000D01*
X165989000Y-133223000D01*
X165989000Y-133203000D01*
X166243000Y-133203000D01*
X166243000Y-133223000D01*
X167436814Y-133223000D01*
X167557481Y-132993109D01*
X167460157Y-132718748D01*
X167311178Y-132468645D01*
X167116269Y-132252412D01*
X166886594Y-132081100D01*
X167062632Y-131963475D01*
X167269475Y-131756632D01*
X167431990Y-131513411D01*
X167543932Y-131243158D01*
X167601000Y-130956260D01*
X167601000Y-130663740D01*
X167543932Y-130376842D01*
X167431990Y-130106589D01*
X167269475Y-129863368D01*
X167062632Y-129656525D01*
X166819411Y-129494010D01*
X166549158Y-129382068D01*
X166262260Y-129325000D01*
X165969740Y-129325000D01*
X165682842Y-129382068D01*
X165412589Y-129494010D01*
X165169368Y-129656525D01*
X164962525Y-129863368D01*
X164846000Y-130037760D01*
X164729475Y-129863368D01*
X164522632Y-129656525D01*
X164279411Y-129494010D01*
X164009158Y-129382068D01*
X163722260Y-129325000D01*
X163429740Y-129325000D01*
X163142842Y-129382068D01*
X162872589Y-129494010D01*
X162629368Y-129656525D01*
X162422525Y-129863368D01*
X162306000Y-130037760D01*
X162189475Y-129863368D01*
X161982632Y-129656525D01*
X161739411Y-129494010D01*
X161469158Y-129382068D01*
X161182260Y-129325000D01*
X160889740Y-129325000D01*
X160602842Y-129382068D01*
X160332589Y-129494010D01*
X160089368Y-129656525D01*
X159882525Y-129863368D01*
X159766000Y-130037760D01*
X159649475Y-129863368D01*
X159442632Y-129656525D01*
X159199411Y-129494010D01*
X158929158Y-129382068D01*
X158642260Y-129325000D01*
X158349740Y-129325000D01*
X158062842Y-129382068D01*
X157792589Y-129494010D01*
X157549368Y-129656525D01*
X157342525Y-129863368D01*
X157226000Y-130037760D01*
X157109475Y-129863368D01*
X156902632Y-129656525D01*
X156659411Y-129494010D01*
X156389158Y-129382068D01*
X156102260Y-129325000D01*
X155809740Y-129325000D01*
X155522842Y-129382068D01*
X155252589Y-129494010D01*
X155009368Y-129656525D01*
X154802525Y-129863368D01*
X154686000Y-130037760D01*
X154569475Y-129863368D01*
X154362632Y-129656525D01*
X154119411Y-129494010D01*
X153849158Y-129382068D01*
X153562260Y-129325000D01*
X153269740Y-129325000D01*
X152982842Y-129382068D01*
X152712589Y-129494010D01*
X152469368Y-129656525D01*
X152262525Y-129863368D01*
X152146000Y-130037760D01*
X152029475Y-129863368D01*
X151822632Y-129656525D01*
X151579411Y-129494010D01*
X151309158Y-129382068D01*
X151022260Y-129325000D01*
X150729740Y-129325000D01*
X150442842Y-129382068D01*
X150366000Y-129413897D01*
X150366000Y-129163512D01*
X150957512Y-128572000D01*
X153757212Y-128572000D01*
X153797000Y-128575919D01*
X153836788Y-128572000D01*
X153836791Y-128572000D01*
X153955788Y-128560280D01*
X154108473Y-128513963D01*
X154249189Y-128438749D01*
X154372528Y-128337528D01*
X154397899Y-128306613D01*
X156093618Y-126610895D01*
X156124528Y-126585528D01*
X156181341Y-126516301D01*
X156225749Y-126462190D01*
X156276092Y-126368004D01*
X156300963Y-126321473D01*
X156328194Y-126231706D01*
X157260105Y-127163618D01*
X157285472Y-127194528D01*
X157408811Y-127295749D01*
X157549526Y-127370963D01*
X157702212Y-127417280D01*
X157861000Y-127432919D01*
X157900791Y-127429000D01*
X167854212Y-127429000D01*
X167894000Y-127432919D01*
X167933788Y-127429000D01*
X167933791Y-127429000D01*
X168052788Y-127417280D01*
X168205473Y-127370963D01*
X168346189Y-127295749D01*
X168469528Y-127194528D01*
X168494900Y-127163612D01*
X170507571Y-125150941D01*
X170668740Y-125183000D01*
X170961260Y-125183000D01*
X171248158Y-125125932D01*
X171518411Y-125013990D01*
X171761632Y-124851475D01*
X171968475Y-124644632D01*
X172060000Y-124507655D01*
X172060000Y-135230000D01*
G37*
%TD.AperFunction*%
%TD*%
M02*
