%TF.GenerationSoftware,KiCad,Pcbnew,(5.1.9)-1*%
%TF.CreationDate,2021-09-28T21:39:50+01:00*%
%TF.ProjectId,Mega2560-pro-mini-radio,4d656761-3235-4363-902d-70726f2d6d69,rev?*%
%TF.SameCoordinates,Original*%
%TF.FileFunction,Copper,L2,Bot*%
%TF.FilePolarity,Positive*%
%FSLAX46Y46*%
G04 Gerber Fmt 4.6, Leading zero omitted, Abs format (unit mm)*
G04 Created by KiCad (PCBNEW (5.1.9)-1) date 2021-09-28 21:39:50*
%MOMM*%
%LPD*%
G01*
G04 APERTURE LIST*
%TA.AperFunction,ComponentPad*%
%ADD10O,1.700000X1.700000*%
%TD*%
%TA.AperFunction,ComponentPad*%
%ADD11R,1.700000X1.700000*%
%TD*%
%TA.AperFunction,ComponentPad*%
%ADD12O,1.200000X2.000000*%
%TD*%
%TA.AperFunction,ComponentPad*%
%ADD13O,2.000000X1.200000*%
%TD*%
%TA.AperFunction,ComponentPad*%
%ADD14O,1.000000X0.800000*%
%TD*%
%TA.AperFunction,ViaPad*%
%ADD15C,0.800000*%
%TD*%
%TA.AperFunction,Conductor*%
%ADD16C,0.350000*%
%TD*%
G04 APERTURE END LIST*
D10*
%TO.P,J1,30*%
%TO.N,GND*%
X170815000Y-88138000D03*
%TO.P,J1,29*%
%TO.N,N/C*%
X168275000Y-88138000D03*
%TO.P,J1,28*%
X170815000Y-90678000D03*
%TO.P,J1,27*%
X168275000Y-90678000D03*
%TO.P,J1,26*%
X170815000Y-93218000D03*
%TO.P,J1,25*%
X168275000Y-93218000D03*
%TO.P,J1,24*%
X170815000Y-95758000D03*
%TO.P,J1,23*%
X168275000Y-95758000D03*
%TO.P,J1,22*%
X170815000Y-98298000D03*
%TO.P,J1,21*%
X168275000Y-98298000D03*
%TO.P,J1,20*%
X170815000Y-100838000D03*
%TO.P,J1,19*%
X168275000Y-100838000D03*
%TO.P,J1,18*%
X170815000Y-103378000D03*
%TO.P,J1,17*%
X168275000Y-103378000D03*
%TO.P,J1,16*%
X170815000Y-105918000D03*
%TO.P,J1,15*%
X168275000Y-105918000D03*
%TO.P,J1,14*%
X170815000Y-108458000D03*
%TO.P,J1,13*%
%TO.N,DOUT*%
X168275000Y-108458000D03*
%TO.P,J1,12*%
%TO.N,SW_COM_ENC_MHZ*%
X170815000Y-110998000D03*
%TO.P,J1,11*%
%TO.N,B_COM_ENC_MHZ*%
X168275000Y-110998000D03*
%TO.P,J1,10*%
%TO.N,A_COM_ENC_MHZ*%
X170815000Y-113538000D03*
%TO.P,J1,9*%
%TO.N,SW_COM_ENC_KHZ*%
X168275000Y-113538000D03*
%TO.P,J1,8*%
%TO.N,B_COM_ENC_KHZ*%
X170815000Y-116078000D03*
%TO.P,J1,7*%
%TO.N,A_COM_ENC_KHZ*%
X168275000Y-116078000D03*
%TO.P,J1,6*%
%TO.N,COM_SWAP*%
X170815000Y-118618000D03*
%TO.P,J1,5*%
%TO.N,N/C*%
X168275000Y-118618000D03*
%TO.P,J1,4*%
%TO.N,CS_MAX*%
X170815000Y-121158000D03*
%TO.P,J1,3*%
%TO.N,CLK*%
X168275000Y-121158000D03*
%TO.P,J1,2*%
%TO.N,DIN*%
X170815000Y-123698000D03*
D11*
%TO.P,J1,1*%
%TO.N,+5V*%
X168275000Y-123698000D03*
%TD*%
D10*
%TO.P,J4,30*%
%TO.N,GND*%
X124460000Y-80010000D03*
%TO.P,J4,29*%
%TO.N,N/C*%
X124460000Y-82550000D03*
%TO.P,J4,28*%
X127000000Y-80010000D03*
%TO.P,J4,27*%
X127000000Y-82550000D03*
%TO.P,J4,26*%
X129540000Y-80010000D03*
%TO.P,J4,25*%
X129540000Y-82550000D03*
%TO.P,J4,24*%
X132080000Y-80010000D03*
%TO.P,J4,23*%
X132080000Y-82550000D03*
%TO.P,J4,22*%
X134620000Y-80010000D03*
%TO.P,J4,21*%
X134620000Y-82550000D03*
%TO.P,J4,20*%
X137160000Y-80010000D03*
%TO.P,J4,19*%
X137160000Y-82550000D03*
%TO.P,J4,18*%
X139700000Y-80010000D03*
%TO.P,J4,17*%
X139700000Y-82550000D03*
%TO.P,J4,16*%
X142240000Y-80010000D03*
%TO.P,J4,15*%
X142240000Y-82550000D03*
%TO.P,J4,14*%
X144780000Y-80010000D03*
%TO.P,J4,13*%
%TO.N,I_led*%
X144780000Y-82550000D03*
%TO.P,J4,12*%
%TO.N,M_led*%
X147320000Y-80010000D03*
%TO.P,J4,11*%
%TO.N,O_led*%
X147320000Y-82550000D03*
%TO.P,J4,10*%
%TO.N,AUX*%
X149860000Y-80010000D03*
%TO.P,J4,9*%
%TO.N,ADF*%
X149860000Y-82550000D03*
%TO.P,J4,8*%
%TO.N,DME*%
X152400000Y-80010000D03*
%TO.P,J4,7*%
%TO.N,MKR*%
X152400000Y-82550000D03*
%TO.P,J4,6*%
%TO.N,NAV2*%
X154940000Y-80010000D03*
%TO.P,J4,5*%
%TO.N,NAV1*%
X154940000Y-82550000D03*
%TO.P,J4,4*%
%TO.N,BOTH*%
X157480000Y-80010000D03*
%TO.P,J4,3*%
%TO.N,COM2*%
X157480000Y-82550000D03*
%TO.P,J4,2*%
%TO.N,COM1*%
X160020000Y-80010000D03*
D11*
%TO.P,J4,1*%
%TO.N,+5V*%
X160020000Y-82550000D03*
%TD*%
D10*
%TO.P,J2,30*%
%TO.N,GND*%
X166116000Y-133350000D03*
%TO.P,J2,29*%
%TO.N,N/C*%
X166116000Y-130810000D03*
%TO.P,J2,28*%
X163576000Y-133350000D03*
%TO.P,J2,27*%
X163576000Y-130810000D03*
%TO.P,J2,26*%
X161036000Y-133350000D03*
%TO.P,J2,25*%
X161036000Y-130810000D03*
%TO.P,J2,24*%
X158496000Y-133350000D03*
%TO.P,J2,23*%
X158496000Y-130810000D03*
%TO.P,J2,22*%
X155956000Y-133350000D03*
%TO.P,J2,21*%
X155956000Y-130810000D03*
%TO.P,J2,20*%
X153416000Y-133350000D03*
%TO.P,J2,19*%
X153416000Y-130810000D03*
%TO.P,J2,18*%
X150876000Y-133350000D03*
%TO.P,J2,17*%
X150876000Y-130810000D03*
%TO.P,J2,16*%
X148336000Y-133350000D03*
%TO.P,J2,15*%
X148336000Y-130810000D03*
%TO.P,J2,14*%
X145796000Y-133350000D03*
%TO.P,J2,13*%
X145796000Y-130810000D03*
%TO.P,J2,12*%
%TO.N,SW_NAV_ENC_MHZ*%
X143256000Y-133350000D03*
%TO.P,J2,11*%
%TO.N,B_NAV_ENC_MHZ*%
X143256000Y-130810000D03*
%TO.P,J2,10*%
%TO.N,A_NAV_ENC_MHZ*%
X140716000Y-133350000D03*
%TO.P,J2,9*%
%TO.N,SW_NAV_ENC_KHZ*%
X140716000Y-130810000D03*
%TO.P,J2,8*%
%TO.N,B_NAV_ENC_KHZ*%
X138176000Y-133350000D03*
%TO.P,J2,7*%
%TO.N,A_NAV_ENC_KHZ*%
X138176000Y-130810000D03*
%TO.P,J2,6*%
%TO.N,NAV_SWAP*%
X135636000Y-133350000D03*
%TO.P,J2,5*%
%TO.N,N/C*%
X135636000Y-130810000D03*
%TO.P,J2,4*%
%TO.N,CS_MAX*%
X133096000Y-133350000D03*
%TO.P,J2,3*%
%TO.N,CLK*%
X133096000Y-130810000D03*
%TO.P,J2,2*%
%TO.N,DOUT*%
X130556000Y-133350000D03*
D11*
%TO.P,J2,1*%
%TO.N,+5V*%
X130556000Y-130810000D03*
%TD*%
D12*
%TO.P,MCU1,40*%
%TO.N,COM1*%
X158089000Y-123738000D03*
%TO.P,MCU1,2*%
%TO.N,VCC*%
X109829000Y-123738000D03*
%TO.P,MCU1,4*%
%TO.N,GND*%
X112369000Y-123738000D03*
%TO.P,MCU1,6*%
%TO.N,+5V*%
X114909000Y-123738000D03*
%TO.P,MCU1,8*%
%TO.N,N/C*%
X117449000Y-123738000D03*
%TO.P,MCU1,10*%
X119989000Y-123738000D03*
%TO.P,MCU1,12*%
X122529000Y-123738000D03*
%TO.P,MCU1,14*%
X125069000Y-123738000D03*
%TO.P,MCU1,16*%
X127609000Y-123738000D03*
%TO.P,MCU1,18*%
X130149000Y-123738000D03*
%TO.P,MCU1,20*%
X132689000Y-123738000D03*
%TO.P,MCU1,22*%
%TO.N,A_COM_ENC_KHZ*%
X135229000Y-123738000D03*
%TO.P,MCU1,24*%
%TO.N,A_COM_ENC_MHZ*%
X137769000Y-123738000D03*
%TO.P,MCU1,26*%
%TO.N,A_NAV_ENC_KHZ*%
X140309000Y-123738000D03*
%TO.P,MCU1,28*%
%TO.N,A_NAV_ENC_MHZ*%
X142849000Y-123738000D03*
%TO.P,MCU1,30*%
%TO.N,COM_SWAP*%
X145389000Y-123738000D03*
%TO.P,MCU1,36*%
%TO.N,SW_NAV_ENC_MHZ*%
X153009000Y-123738000D03*
%TO.P,MCU1,34*%
%TO.N,NAV_SWAP*%
X150469000Y-123738000D03*
%TO.P,MCU1,32*%
%TO.N,SW_COM_ENC_MHZ*%
X147929000Y-123738000D03*
%TO.P,MCU1,42*%
%TO.N,BOTH*%
X160629000Y-123738000D03*
%TO.P,MCU1,38*%
%TO.N,CS_MAX*%
X155549000Y-123738000D03*
%TO.P,MCU1,1*%
%TO.N,VCC*%
X109859000Y-121088000D03*
%TO.P,MCU1,3*%
%TO.N,GND*%
X112399000Y-121088000D03*
%TO.P,MCU1,5*%
%TO.N,+5V*%
X114939000Y-121088000D03*
%TO.P,MCU1,7*%
%TO.N,N/C*%
X117479000Y-121088000D03*
%TO.P,MCU1,9*%
X120019000Y-121088000D03*
%TO.P,MCU1,11*%
X122559000Y-121088000D03*
%TO.P,MCU1,13*%
X125099000Y-121088000D03*
%TO.P,MCU1,15*%
X127639000Y-121088000D03*
%TO.P,MCU1,17*%
X130179000Y-121088000D03*
%TO.P,MCU1,19*%
X132719000Y-121088000D03*
%TO.P,MCU1,21*%
X135259000Y-121088000D03*
%TO.P,MCU1,23*%
%TO.N,B_COM_ENC_KHZ*%
X137799000Y-121088000D03*
%TO.P,MCU1,25*%
%TO.N,B_COM_ENC_MHZ*%
X140339000Y-121088000D03*
%TO.P,MCU1,27*%
%TO.N,B_NAV_ENC_KHZ*%
X142879000Y-121088000D03*
%TO.P,MCU1,29*%
%TO.N,B_NAV_ENC_MHZ*%
X145419000Y-121088000D03*
%TO.P,MCU1,31*%
%TO.N,SW_COM_ENC_KHZ*%
X147959000Y-121088000D03*
%TO.P,MCU1,33*%
%TO.N,N/C*%
X150499000Y-121088000D03*
%TO.P,MCU1,35*%
%TO.N,SW_NAV_ENC_KHZ*%
X153039000Y-121088000D03*
%TO.P,MCU1,37*%
%TO.N,DIN*%
X155579000Y-121088000D03*
%TO.P,MCU1,39*%
%TO.N,CLK*%
X158119000Y-121088000D03*
%TO.P,MCU1,41*%
%TO.N,COM2*%
X160659000Y-121088000D03*
D13*
%TO.P,MCU1,67*%
%TO.N,N/C*%
X160715667Y-95815845D03*
D14*
%TO.P,MCU1,43*%
X157145667Y-111055845D03*
%TO.P,MCU1,45*%
X157145667Y-108515845D03*
D13*
%TO.P,MCU1,47*%
X157145667Y-105975845D03*
D14*
%TO.P,MCU1,44*%
X160715667Y-111055845D03*
D13*
%TO.P,MCU1,46*%
X160715667Y-108515845D03*
%TO.P,MCU1,48*%
X160715667Y-105975845D03*
%TO.P,MCU1,65*%
X160715667Y-93275845D03*
%TO.P,MCU1,69*%
X160715667Y-98355845D03*
%TO.P,MCU1,70*%
X157145667Y-98355845D03*
%TO.P,MCU1,68*%
X157145667Y-95815845D03*
%TO.P,MCU1,66*%
X157145667Y-93275845D03*
D12*
%TO.P,MCU1,62*%
X158309000Y-90458000D03*
%TO.P,MCU1,72*%
X122749000Y-90458000D03*
%TO.P,MCU1,74*%
X125289000Y-90458000D03*
%TO.P,MCU1,76*%
X127829000Y-90458000D03*
%TO.P,MCU1,78*%
X130369000Y-90458000D03*
%TO.P,MCU1,80*%
X132909000Y-90458000D03*
%TO.P,MCU1,82*%
X135449000Y-90458000D03*
%TO.P,MCU1,84*%
X137989000Y-90458000D03*
%TO.P,MCU1,86*%
X140529000Y-90458000D03*
%TO.P,MCU1,50*%
%TO.N,NAV2*%
X143069000Y-90458000D03*
%TO.P,MCU1,52*%
%TO.N,DME*%
X145609000Y-90458000D03*
%TO.P,MCU1,58*%
%TO.N,N/C*%
X153229000Y-90458000D03*
%TO.P,MCU1,56*%
%TO.N,M_led*%
X150689000Y-90458000D03*
%TO.P,MCU1,54*%
%TO.N,AUX*%
X148149000Y-90458000D03*
%TO.P,MCU1,64*%
%TO.N,N/C*%
X160849000Y-90458000D03*
%TO.P,MCU1,60*%
X155769000Y-90458000D03*
%TO.P,MCU1,71*%
X122779000Y-87808000D03*
%TO.P,MCU1,73*%
X125319000Y-87808000D03*
%TO.P,MCU1,75*%
X127859000Y-87808000D03*
%TO.P,MCU1,77*%
X130399000Y-87808000D03*
%TO.P,MCU1,79*%
X132939000Y-87808000D03*
%TO.P,MCU1,81*%
X135479000Y-87808000D03*
%TO.P,MCU1,83*%
X138019000Y-87808000D03*
%TO.P,MCU1,85*%
X140559000Y-87808000D03*
%TO.P,MCU1,49*%
%TO.N,NAV1*%
X143099000Y-87808000D03*
%TO.P,MCU1,51*%
%TO.N,MKR*%
X145639000Y-87808000D03*
%TO.P,MCU1,53*%
%TO.N,ADF*%
X148179000Y-87808000D03*
%TO.P,MCU1,55*%
%TO.N,O_led*%
X150719000Y-87808000D03*
%TO.P,MCU1,57*%
%TO.N,I_led*%
X153259000Y-87808000D03*
%TO.P,MCU1,59*%
%TO.N,N/C*%
X155799000Y-87808000D03*
%TO.P,MCU1,61*%
X158339000Y-87808000D03*
%TO.P,MCU1,63*%
X160879000Y-87808000D03*
%TD*%
D10*
%TO.P,J3,4*%
%TO.N,GND*%
X113919000Y-132207000D03*
%TO.P,J3,3*%
%TO.N,VCC*%
X116459000Y-132207000D03*
%TO.P,J3,2*%
%TO.N,GND*%
X118999000Y-132207000D03*
D11*
%TO.P,J3,1*%
%TO.N,+5V*%
X121539000Y-132207000D03*
%TD*%
D15*
%TO.N,B_COM_ENC_KHZ*%
X153646300Y-117388500D03*
X141270900Y-117675500D03*
%TD*%
D16*
%TO.N,GND*%
X118999000Y-132207000D02*
X118400900Y-132207000D01*
X112399000Y-119712700D02*
X112399000Y-121088000D01*
X121215200Y-110896500D02*
X112399000Y-119712700D01*
X121215200Y-83254800D02*
X121215200Y-110896500D01*
X124460000Y-80010000D02*
X121215200Y-83254800D01*
X121683890Y-135489990D02*
X118400900Y-132207000D01*
X163976010Y-135489990D02*
X121683890Y-135489990D01*
X166116000Y-133350000D02*
X163976010Y-135489990D01*
X113919000Y-132207000D02*
X113919000Y-134239000D01*
X113919000Y-134239000D02*
X114681000Y-135001000D01*
X116205000Y-135001000D02*
X118999000Y-132207000D01*
X114681000Y-135001000D02*
X116205000Y-135001000D01*
%TO.N,B_COM_ENC_KHZ*%
X141270900Y-117675500D02*
X153359300Y-117675500D01*
X153359300Y-117675500D02*
X153646300Y-117388500D01*
%TO.N,COM_SWAP*%
X146689000Y-122438000D02*
X145389000Y-123738000D01*
X146689000Y-119884000D02*
X146689000Y-122438000D01*
X156819000Y-125323000D02*
X156819000Y-120116000D01*
X158496000Y-127000000D02*
X156819000Y-125323000D01*
X156819000Y-120116000D02*
X155829000Y-119126000D01*
X167611233Y-119932600D02*
X160543833Y-127000000D01*
X147447000Y-119126000D02*
X146689000Y-119884000D01*
X155829000Y-119126000D02*
X147447000Y-119126000D01*
X169500400Y-119932600D02*
X167611233Y-119932600D01*
X160543833Y-127000000D02*
X158496000Y-127000000D01*
X170815000Y-118618000D02*
X169500400Y-119932600D01*
%TO.N,CS_MAX*%
X155549000Y-123738000D02*
X155549000Y-125113300D01*
X152146000Y-126238000D02*
X154424300Y-126238000D01*
X154424300Y-126238000D02*
X155549000Y-125113300D01*
X149650999Y-128733001D02*
X152146000Y-126238000D01*
X149650999Y-134194001D02*
X149650999Y-128733001D01*
X148905020Y-134939980D02*
X149650999Y-134194001D01*
X134685980Y-134939980D02*
X148905020Y-134939980D01*
X133096000Y-133350000D02*
X134685980Y-134939980D01*
X155549000Y-125958000D02*
X155549000Y-125113300D01*
X157480000Y-127889000D02*
X155549000Y-125958000D01*
X161842700Y-127889000D02*
X157480000Y-127889000D01*
X167259100Y-122472600D02*
X161842700Y-127889000D01*
X169500400Y-122472600D02*
X167259100Y-122472600D01*
X170815000Y-121158000D02*
X169500400Y-122472600D01*
%TO.N,CLK*%
X133959000Y-120602100D02*
X133959000Y-128721700D01*
X133096000Y-129584700D02*
X133096000Y-130810000D01*
X133959000Y-128721700D02*
X133096000Y-129584700D01*
X136070100Y-118491000D02*
X133959000Y-120602100D01*
X156897300Y-118491000D02*
X136070100Y-118491000D01*
X158119000Y-119712700D02*
X156897300Y-118491000D01*
X158119000Y-121088000D02*
X158119000Y-119712700D01*
%TO.N,+5V*%
X114939000Y-122463300D02*
X114909000Y-122493300D01*
X114909000Y-122493300D02*
X114909000Y-123738000D01*
X114939000Y-121088000D02*
X114939000Y-122463300D01*
X167894000Y-82550000D02*
X160020000Y-82550000D01*
X172052100Y-86708100D02*
X167894000Y-82550000D01*
X172052100Y-125127900D02*
X172052100Y-86708100D01*
X171196000Y-125984000D02*
X172052100Y-125127900D01*
X169926000Y-125984000D02*
X171196000Y-125984000D01*
X168275000Y-124333000D02*
X169926000Y-125984000D01*
X168275000Y-123698000D02*
X168275000Y-124333000D01*
X121539000Y-130981700D02*
X121539000Y-132207000D01*
X114909000Y-124351700D02*
X121539000Y-130981700D01*
X114909000Y-123738000D02*
X114909000Y-124351700D01*
%TO.N,SW_NAV_ENC_MHZ*%
X146302100Y-132080000D02*
X144526000Y-132080000D01*
X147066000Y-131316100D02*
X146302100Y-132080000D01*
X144526000Y-132080000D02*
X143256000Y-133350000D01*
X152741000Y-123738000D02*
X147066000Y-129413000D01*
X153009000Y-123738000D02*
X152741000Y-123738000D01*
X147066000Y-129413000D02*
X147066000Y-131316100D01*
%TO.N,B_NAV_ENC_MHZ*%
X143256000Y-130810000D02*
X143256000Y-129584700D01*
X145419000Y-121088000D02*
X144119000Y-122388000D01*
X144119000Y-122388000D02*
X144119000Y-128721700D01*
X144119000Y-128721700D02*
X143256000Y-129584700D01*
%TO.N,A_NAV_ENC_MHZ*%
X142849000Y-125113300D02*
X142849000Y-123738000D01*
X141986000Y-125976300D02*
X142849000Y-125113300D01*
X141986000Y-132080000D02*
X141986000Y-125976300D01*
X140716000Y-133350000D02*
X141986000Y-132080000D01*
%TO.N,B_NAV_ENC_KHZ*%
X141435600Y-122531400D02*
X142879000Y-121088000D01*
X141435600Y-126285900D02*
X141435600Y-122531400D01*
X139446000Y-128275500D02*
X141435600Y-126285900D01*
X139446000Y-132080000D02*
X139446000Y-128275500D01*
X138176000Y-133350000D02*
X139446000Y-132080000D01*
%TO.N,A_NAV_ENC_KHZ*%
X140309000Y-123738000D02*
X140309000Y-125113300D01*
X140309000Y-125113300D02*
X138176000Y-127246300D01*
X138176000Y-127246300D02*
X138176000Y-130810000D01*
%TO.N,VCC*%
X109859000Y-121088000D02*
X109859000Y-122463300D01*
X109859000Y-122463300D02*
X109829000Y-122493300D01*
X109829000Y-122493300D02*
X109829000Y-123738000D01*
X116459000Y-130981700D02*
X116459000Y-132207000D01*
X109829000Y-124351700D02*
X116459000Y-130981700D01*
X109829000Y-123738000D02*
X109829000Y-124351700D01*
%TO.N,M_led*%
X149479000Y-89248000D02*
X150689000Y-90458000D01*
X149479000Y-87205900D02*
X149479000Y-89248000D01*
X146094600Y-83821500D02*
X149479000Y-87205900D01*
X146094600Y-81235400D02*
X146094600Y-83821500D01*
X147320000Y-80010000D02*
X146094600Y-81235400D01*
%TO.N,O_led*%
X150719000Y-85949000D02*
X147320000Y-82550000D01*
X150719000Y-87808000D02*
X150719000Y-85949000D01*
%TO.N,DME*%
X145609000Y-89728600D02*
X145609000Y-90458000D01*
X144563700Y-88683300D02*
X145609000Y-89728600D01*
X144563700Y-85890000D02*
X144563700Y-88683300D01*
X143465001Y-84791301D02*
X144563700Y-85890000D01*
X143465001Y-78403999D02*
X143465001Y-84791301D01*
X144145000Y-77724000D02*
X143465001Y-78403999D01*
X150114000Y-77724000D02*
X144145000Y-77724000D01*
X152400000Y-80010000D02*
X150114000Y-77724000D01*
%TO.N,NAV1*%
X151989000Y-86726300D02*
X154940000Y-83775300D01*
X151989000Y-92105000D02*
X151989000Y-86726300D01*
X154940000Y-83775300D02*
X154940000Y-82550000D01*
X150876000Y-93218000D02*
X151989000Y-92105000D01*
X145542000Y-93218000D02*
X150876000Y-93218000D01*
X144272000Y-91948000D02*
X145542000Y-93218000D01*
X144272000Y-89170000D02*
X144272000Y-91948000D01*
X143099000Y-87997000D02*
X144272000Y-89170000D01*
X143099000Y-87808000D02*
X143099000Y-87997000D01*
%TO.N,BOTH*%
X158623000Y-92933100D02*
X158623000Y-117031700D01*
X156929600Y-91239700D02*
X158623000Y-92933100D01*
X159219000Y-122328000D02*
X160629000Y-123738000D01*
X158623000Y-117031700D02*
X159219000Y-117627700D01*
X156210000Y-83180200D02*
X156929600Y-83899800D01*
X156210000Y-81280000D02*
X156210000Y-83180200D01*
X157480000Y-80010000D02*
X156210000Y-81280000D01*
X156929600Y-83899800D02*
X156929600Y-91239700D01*
X159219000Y-117627700D02*
X159219000Y-122328000D01*
%TO.N,COM2*%
X160659000Y-114524500D02*
X160659000Y-121088000D01*
X159340400Y-85635700D02*
X159340400Y-113205900D01*
X159340400Y-113205900D02*
X160659000Y-114524500D01*
X157480000Y-83775300D02*
X159340400Y-85635700D01*
X157480000Y-82550000D02*
X157480000Y-83775300D01*
%TO.N,COM1*%
X158877000Y-125730000D02*
X158089000Y-124942000D01*
X161036000Y-125730000D02*
X158877000Y-125730000D01*
X163703000Y-123063000D02*
X161036000Y-125730000D01*
X163703000Y-88760700D02*
X163703000Y-123063000D01*
X158794600Y-83852300D02*
X163703000Y-88760700D01*
X158089000Y-124942000D02*
X158089000Y-123738000D01*
X158794600Y-81235400D02*
X158794600Y-83852300D01*
X160020000Y-80010000D02*
X158794600Y-81235400D01*
%TD*%
M02*
