M48
; DRILL file {KiCad (5.1.9)-1} date 09/19/21 21:25:42
; FORMAT={-:-/ absolute / metric / decimal}
; #@! TF.CreationDate,2021-09-19T21:25:42+01:00
; #@! TF.GenerationSoftware,Kicad,Pcbnew,(5.1.9)-1
; #@! TF.FileFunction,Plated,1,2,PTH
FMAT,2
METRIC
T1C0.400
T2C0.800
T3C1.000
%
G90
G05
T1
X138.176Y-125.73
T2
X109.829Y-123.738
X109.859Y-121.088
X112.369Y-123.738
X112.399Y-121.088
X114.909Y-123.738
X114.939Y-121.088
X117.449Y-123.738
X117.479Y-121.088
X119.989Y-123.738
X120.019Y-121.088
X122.529Y-123.738
X122.559Y-121.088
X122.749Y-90.458
X122.779Y-87.808
X125.069Y-123.738
X125.099Y-121.088
X125.289Y-90.458
X125.319Y-87.808
X127.609Y-123.738
X127.639Y-121.088
X127.829Y-90.458
X127.859Y-87.808
X130.149Y-123.738
X130.179Y-121.088
X130.369Y-90.458
X130.399Y-87.808
X132.689Y-123.738
X132.719Y-121.088
X132.909Y-90.458
X132.939Y-87.808
X135.229Y-123.738
X135.259Y-121.088
X135.449Y-90.458
X135.479Y-87.808
X137.769Y-123.738
X137.799Y-121.088
X137.989Y-90.458
X138.019Y-87.808
X140.309Y-123.738
X140.339Y-121.088
X140.529Y-90.458
X140.559Y-87.808
X142.849Y-123.738
X142.879Y-121.088
X143.069Y-90.458
X143.099Y-87.808
X145.389Y-123.738
X145.419Y-121.088
X145.609Y-90.458
X145.639Y-87.808
X147.929Y-123.738
X147.959Y-121.088
X148.149Y-90.458
X148.179Y-87.808
X150.469Y-123.738
X150.499Y-121.088
X150.689Y-90.458
X150.719Y-87.808
X153.009Y-123.738
X153.039Y-121.088
X153.229Y-90.458
X153.259Y-87.808
X155.549Y-123.738
X155.579Y-121.088
X155.769Y-90.458
X155.799Y-87.808
X157.146Y-93.276
X157.146Y-95.816
X157.146Y-98.356
X157.146Y-105.976
X157.146Y-108.516
X157.146Y-111.056
X158.089Y-123.738
X158.119Y-121.088
X158.309Y-90.458
X158.339Y-87.808
X160.629Y-123.738
X160.659Y-121.088
X160.716Y-93.276
X160.716Y-95.816
X160.716Y-98.356
X160.716Y-105.976
X160.716Y-108.516
X160.716Y-111.056
X160.849Y-90.458
X160.879Y-87.808
T3
X113.919Y-132.207
X116.459Y-132.207
X118.999Y-132.207
X121.539Y-132.207
X130.556Y-130.81
X130.556Y-133.35
X133.096Y-130.81
X133.096Y-133.35
X135.636Y-130.81
X135.636Y-133.35
X138.176Y-130.81
X138.176Y-133.35
X140.716Y-130.81
X140.716Y-133.35
X143.256Y-130.81
X143.256Y-133.35
X145.796Y-130.81
X145.796Y-133.35
X148.336Y-130.81
X148.336Y-133.35
X150.876Y-130.81
X150.876Y-133.35
X153.416Y-130.81
X153.416Y-133.35
X155.956Y-130.81
X155.956Y-133.35
X158.496Y-130.81
X158.496Y-133.35
X161.036Y-130.81
X161.036Y-133.35
X163.576Y-130.81
X163.576Y-133.35
X166.116Y-130.81
X166.116Y-133.35
X168.275Y-88.138
X168.275Y-90.678
X168.275Y-93.218
X168.275Y-95.758
X168.275Y-98.298
X168.275Y-100.838
X168.275Y-103.378
X168.275Y-105.918
X168.275Y-108.458
X168.275Y-110.998
X168.275Y-113.538
X168.275Y-116.078
X168.275Y-118.618
X168.275Y-121.158
X168.275Y-123.698
X170.815Y-88.138
X170.815Y-90.678
X170.815Y-93.218
X170.815Y-95.758
X170.815Y-98.298
X170.815Y-100.838
X170.815Y-103.378
X170.815Y-105.918
X170.815Y-108.458
X170.815Y-110.998
X170.815Y-113.538
X170.815Y-116.078
X170.815Y-118.618
X170.815Y-121.158
X170.815Y-123.698
T0
M30
