%TF.GenerationSoftware,KiCad,Pcbnew,(5.1.9)-1*%
%TF.CreationDate,2021-09-28T22:23:38+01:00*%
%TF.ProjectId,Mega2560-pro-mini-radio,4d656761-3235-4363-902d-70726f2d6d69,rev?*%
%TF.SameCoordinates,Original*%
%TF.FileFunction,Copper,L2,Bot*%
%TF.FilePolarity,Positive*%
%FSLAX46Y46*%
G04 Gerber Fmt 4.6, Leading zero omitted, Abs format (unit mm)*
G04 Created by KiCad (PCBNEW (5.1.9)-1) date 2021-09-28 22:23:38*
%MOMM*%
%LPD*%
G01*
G04 APERTURE LIST*
%TA.AperFunction,ComponentPad*%
%ADD10O,1.700000X1.700000*%
%TD*%
%TA.AperFunction,ComponentPad*%
%ADD11R,1.700000X1.700000*%
%TD*%
%TA.AperFunction,ComponentPad*%
%ADD12O,1.200000X2.000000*%
%TD*%
%TA.AperFunction,ComponentPad*%
%ADD13O,2.000000X1.200000*%
%TD*%
%TA.AperFunction,ComponentPad*%
%ADD14O,1.000000X0.800000*%
%TD*%
%TA.AperFunction,ViaPad*%
%ADD15C,0.800000*%
%TD*%
%TA.AperFunction,Conductor*%
%ADD16C,0.350000*%
%TD*%
%TA.AperFunction,Conductor*%
%ADD17C,0.254000*%
%TD*%
%TA.AperFunction,Conductor*%
%ADD18C,0.100000*%
%TD*%
G04 APERTURE END LIST*
D10*
%TO.P,J1,30*%
%TO.N,GND*%
X170815000Y-88138000D03*
%TO.P,J1,29*%
%TO.N,N/C*%
X168275000Y-88138000D03*
%TO.P,J1,28*%
X170815000Y-90678000D03*
%TO.P,J1,27*%
X168275000Y-90678000D03*
%TO.P,J1,26*%
X170815000Y-93218000D03*
%TO.P,J1,25*%
X168275000Y-93218000D03*
%TO.P,J1,24*%
X170815000Y-95758000D03*
%TO.P,J1,23*%
X168275000Y-95758000D03*
%TO.P,J1,22*%
X170815000Y-98298000D03*
%TO.P,J1,21*%
X168275000Y-98298000D03*
%TO.P,J1,20*%
X170815000Y-100838000D03*
%TO.P,J1,19*%
X168275000Y-100838000D03*
%TO.P,J1,18*%
X170815000Y-103378000D03*
%TO.P,J1,17*%
X168275000Y-103378000D03*
%TO.P,J1,16*%
X170815000Y-105918000D03*
%TO.P,J1,15*%
X168275000Y-105918000D03*
%TO.P,J1,14*%
X170815000Y-108458000D03*
%TO.P,J1,13*%
%TO.N,DOUT*%
X168275000Y-108458000D03*
%TO.P,J1,12*%
%TO.N,SW_COM_ENC_MHZ*%
X170815000Y-110998000D03*
%TO.P,J1,11*%
%TO.N,B_COM_ENC_MHZ*%
X168275000Y-110998000D03*
%TO.P,J1,10*%
%TO.N,A_COM_ENC_MHZ*%
X170815000Y-113538000D03*
%TO.P,J1,9*%
%TO.N,SW_COM_ENC_KHZ*%
X168275000Y-113538000D03*
%TO.P,J1,8*%
%TO.N,B_COM_ENC_KHZ*%
X170815000Y-116078000D03*
%TO.P,J1,7*%
%TO.N,A_COM_ENC_KHZ*%
X168275000Y-116078000D03*
%TO.P,J1,6*%
%TO.N,COM_SWAP*%
X170815000Y-118618000D03*
%TO.P,J1,5*%
%TO.N,N/C*%
X168275000Y-118618000D03*
%TO.P,J1,4*%
%TO.N,CS_MAX*%
X170815000Y-121158000D03*
%TO.P,J1,3*%
%TO.N,CLK*%
X168275000Y-121158000D03*
%TO.P,J1,2*%
%TO.N,DIN*%
X170815000Y-123698000D03*
D11*
%TO.P,J1,1*%
%TO.N,+5V*%
X168275000Y-123698000D03*
%TD*%
D10*
%TO.P,J4,30*%
%TO.N,GND*%
X124460000Y-80010000D03*
%TO.P,J4,29*%
%TO.N,N/C*%
X124460000Y-82550000D03*
%TO.P,J4,28*%
X127000000Y-80010000D03*
%TO.P,J4,27*%
X127000000Y-82550000D03*
%TO.P,J4,26*%
X129540000Y-80010000D03*
%TO.P,J4,25*%
X129540000Y-82550000D03*
%TO.P,J4,24*%
X132080000Y-80010000D03*
%TO.P,J4,23*%
X132080000Y-82550000D03*
%TO.P,J4,22*%
X134620000Y-80010000D03*
%TO.P,J4,21*%
X134620000Y-82550000D03*
%TO.P,J4,20*%
X137160000Y-80010000D03*
%TO.P,J4,19*%
X137160000Y-82550000D03*
%TO.P,J4,18*%
X139700000Y-80010000D03*
%TO.P,J4,17*%
X139700000Y-82550000D03*
%TO.P,J4,16*%
X142240000Y-80010000D03*
%TO.P,J4,15*%
X142240000Y-82550000D03*
%TO.P,J4,14*%
X144780000Y-80010000D03*
%TO.P,J4,13*%
%TO.N,I_led*%
X144780000Y-82550000D03*
%TO.P,J4,12*%
%TO.N,M_led*%
X147320000Y-80010000D03*
%TO.P,J4,11*%
%TO.N,O_led*%
X147320000Y-82550000D03*
%TO.P,J4,10*%
%TO.N,AUX*%
X149860000Y-80010000D03*
%TO.P,J4,9*%
%TO.N,ADF*%
X149860000Y-82550000D03*
%TO.P,J4,8*%
%TO.N,DME*%
X152400000Y-80010000D03*
%TO.P,J4,7*%
%TO.N,MKR*%
X152400000Y-82550000D03*
%TO.P,J4,6*%
%TO.N,NAV2*%
X154940000Y-80010000D03*
%TO.P,J4,5*%
%TO.N,NAV1*%
X154940000Y-82550000D03*
%TO.P,J4,4*%
%TO.N,BOTH*%
X157480000Y-80010000D03*
%TO.P,J4,3*%
%TO.N,COM2*%
X157480000Y-82550000D03*
%TO.P,J4,2*%
%TO.N,COM1*%
X160020000Y-80010000D03*
D11*
%TO.P,J4,1*%
%TO.N,+5V*%
X160020000Y-82550000D03*
%TD*%
D10*
%TO.P,J2,30*%
%TO.N,GND*%
X166116000Y-133350000D03*
%TO.P,J2,29*%
%TO.N,N/C*%
X166116000Y-130810000D03*
%TO.P,J2,28*%
X163576000Y-133350000D03*
%TO.P,J2,27*%
X163576000Y-130810000D03*
%TO.P,J2,26*%
X161036000Y-133350000D03*
%TO.P,J2,25*%
X161036000Y-130810000D03*
%TO.P,J2,24*%
X158496000Y-133350000D03*
%TO.P,J2,23*%
X158496000Y-130810000D03*
%TO.P,J2,22*%
X155956000Y-133350000D03*
%TO.P,J2,21*%
X155956000Y-130810000D03*
%TO.P,J2,20*%
X153416000Y-133350000D03*
%TO.P,J2,19*%
X153416000Y-130810000D03*
%TO.P,J2,18*%
X150876000Y-133350000D03*
%TO.P,J2,17*%
X150876000Y-130810000D03*
%TO.P,J2,16*%
X148336000Y-133350000D03*
%TO.P,J2,15*%
X148336000Y-130810000D03*
%TO.P,J2,14*%
X145796000Y-133350000D03*
%TO.P,J2,13*%
X145796000Y-130810000D03*
%TO.P,J2,12*%
%TO.N,SW_NAV_ENC_MHZ*%
X143256000Y-133350000D03*
%TO.P,J2,11*%
%TO.N,B_NAV_ENC_MHZ*%
X143256000Y-130810000D03*
%TO.P,J2,10*%
%TO.N,A_NAV_ENC_MHZ*%
X140716000Y-133350000D03*
%TO.P,J2,9*%
%TO.N,SW_NAV_ENC_KHZ*%
X140716000Y-130810000D03*
%TO.P,J2,8*%
%TO.N,B_NAV_ENC_KHZ*%
X138176000Y-133350000D03*
%TO.P,J2,7*%
%TO.N,A_NAV_ENC_KHZ*%
X138176000Y-130810000D03*
%TO.P,J2,6*%
%TO.N,NAV_SWAP*%
X135636000Y-133350000D03*
%TO.P,J2,5*%
%TO.N,N/C*%
X135636000Y-130810000D03*
%TO.P,J2,4*%
%TO.N,CS_MAX*%
X133096000Y-133350000D03*
%TO.P,J2,3*%
%TO.N,CLK*%
X133096000Y-130810000D03*
%TO.P,J2,2*%
%TO.N,DOUT*%
X130556000Y-133350000D03*
D11*
%TO.P,J2,1*%
%TO.N,+5V*%
X130556000Y-130810000D03*
%TD*%
D12*
%TO.P,MCU1,40*%
%TO.N,COM1*%
X158089000Y-123738000D03*
%TO.P,MCU1,2*%
%TO.N,VCC*%
X109829000Y-123738000D03*
%TO.P,MCU1,4*%
%TO.N,GND*%
X112369000Y-123738000D03*
%TO.P,MCU1,6*%
%TO.N,+5V*%
X114909000Y-123738000D03*
%TO.P,MCU1,8*%
%TO.N,N/C*%
X117449000Y-123738000D03*
%TO.P,MCU1,10*%
X119989000Y-123738000D03*
%TO.P,MCU1,12*%
X122529000Y-123738000D03*
%TO.P,MCU1,14*%
X125069000Y-123738000D03*
%TO.P,MCU1,16*%
X127609000Y-123738000D03*
%TO.P,MCU1,18*%
X130149000Y-123738000D03*
%TO.P,MCU1,20*%
X132689000Y-123738000D03*
%TO.P,MCU1,22*%
%TO.N,A_COM_ENC_KHZ*%
X135229000Y-123738000D03*
%TO.P,MCU1,24*%
%TO.N,A_COM_ENC_MHZ*%
X137769000Y-123738000D03*
%TO.P,MCU1,26*%
%TO.N,A_NAV_ENC_KHZ*%
X140309000Y-123738000D03*
%TO.P,MCU1,28*%
%TO.N,A_NAV_ENC_MHZ*%
X142849000Y-123738000D03*
%TO.P,MCU1,30*%
%TO.N,COM_SWAP*%
X145389000Y-123738000D03*
%TO.P,MCU1,36*%
%TO.N,SW_NAV_ENC_MHZ*%
X153009000Y-123738000D03*
%TO.P,MCU1,34*%
%TO.N,NAV_SWAP*%
X150469000Y-123738000D03*
%TO.P,MCU1,32*%
%TO.N,SW_COM_ENC_MHZ*%
X147929000Y-123738000D03*
%TO.P,MCU1,42*%
%TO.N,BOTH*%
X160629000Y-123738000D03*
%TO.P,MCU1,38*%
%TO.N,CS_MAX*%
X155549000Y-123738000D03*
%TO.P,MCU1,1*%
%TO.N,VCC*%
X109859000Y-121088000D03*
%TO.P,MCU1,3*%
%TO.N,GND*%
X112399000Y-121088000D03*
%TO.P,MCU1,5*%
%TO.N,+5V*%
X114939000Y-121088000D03*
%TO.P,MCU1,7*%
%TO.N,N/C*%
X117479000Y-121088000D03*
%TO.P,MCU1,9*%
X120019000Y-121088000D03*
%TO.P,MCU1,11*%
X122559000Y-121088000D03*
%TO.P,MCU1,13*%
X125099000Y-121088000D03*
%TO.P,MCU1,15*%
X127639000Y-121088000D03*
%TO.P,MCU1,17*%
X130179000Y-121088000D03*
%TO.P,MCU1,19*%
X132719000Y-121088000D03*
%TO.P,MCU1,21*%
X135259000Y-121088000D03*
%TO.P,MCU1,23*%
%TO.N,B_COM_ENC_KHZ*%
X137799000Y-121088000D03*
%TO.P,MCU1,25*%
%TO.N,B_COM_ENC_MHZ*%
X140339000Y-121088000D03*
%TO.P,MCU1,27*%
%TO.N,B_NAV_ENC_KHZ*%
X142879000Y-121088000D03*
%TO.P,MCU1,29*%
%TO.N,B_NAV_ENC_MHZ*%
X145419000Y-121088000D03*
%TO.P,MCU1,31*%
%TO.N,SW_COM_ENC_KHZ*%
X147959000Y-121088000D03*
%TO.P,MCU1,33*%
%TO.N,N/C*%
X150499000Y-121088000D03*
%TO.P,MCU1,35*%
%TO.N,SW_NAV_ENC_KHZ*%
X153039000Y-121088000D03*
%TO.P,MCU1,37*%
%TO.N,DIN*%
X155579000Y-121088000D03*
%TO.P,MCU1,39*%
%TO.N,CLK*%
X158119000Y-121088000D03*
%TO.P,MCU1,41*%
%TO.N,COM2*%
X160659000Y-121088000D03*
D13*
%TO.P,MCU1,67*%
%TO.N,N/C*%
X160715667Y-95815845D03*
D14*
%TO.P,MCU1,43*%
X157145667Y-111055845D03*
%TO.P,MCU1,45*%
X157145667Y-108515845D03*
D13*
%TO.P,MCU1,47*%
X157145667Y-105975845D03*
D14*
%TO.P,MCU1,44*%
X160715667Y-111055845D03*
D13*
%TO.P,MCU1,46*%
X160715667Y-108515845D03*
%TO.P,MCU1,48*%
X160715667Y-105975845D03*
%TO.P,MCU1,65*%
X160715667Y-93275845D03*
%TO.P,MCU1,69*%
X160715667Y-98355845D03*
%TO.P,MCU1,70*%
X157145667Y-98355845D03*
%TO.P,MCU1,68*%
X157145667Y-95815845D03*
%TO.P,MCU1,66*%
X157145667Y-93275845D03*
D12*
%TO.P,MCU1,62*%
X158309000Y-90458000D03*
%TO.P,MCU1,72*%
X122749000Y-90458000D03*
%TO.P,MCU1,74*%
X125289000Y-90458000D03*
%TO.P,MCU1,76*%
X127829000Y-90458000D03*
%TO.P,MCU1,78*%
X130369000Y-90458000D03*
%TO.P,MCU1,80*%
X132909000Y-90458000D03*
%TO.P,MCU1,82*%
X135449000Y-90458000D03*
%TO.P,MCU1,84*%
X137989000Y-90458000D03*
%TO.P,MCU1,86*%
X140529000Y-90458000D03*
%TO.P,MCU1,50*%
%TO.N,NAV2*%
X143069000Y-90458000D03*
%TO.P,MCU1,52*%
%TO.N,DME*%
X145609000Y-90458000D03*
%TO.P,MCU1,58*%
%TO.N,N/C*%
X153229000Y-90458000D03*
%TO.P,MCU1,56*%
%TO.N,M_led*%
X150689000Y-90458000D03*
%TO.P,MCU1,54*%
%TO.N,AUX*%
X148149000Y-90458000D03*
%TO.P,MCU1,64*%
%TO.N,N/C*%
X160849000Y-90458000D03*
%TO.P,MCU1,60*%
X155769000Y-90458000D03*
%TO.P,MCU1,71*%
X122779000Y-87808000D03*
%TO.P,MCU1,73*%
X125319000Y-87808000D03*
%TO.P,MCU1,75*%
X127859000Y-87808000D03*
%TO.P,MCU1,77*%
X130399000Y-87808000D03*
%TO.P,MCU1,79*%
X132939000Y-87808000D03*
%TO.P,MCU1,81*%
X135479000Y-87808000D03*
%TO.P,MCU1,83*%
X138019000Y-87808000D03*
%TO.P,MCU1,85*%
X140559000Y-87808000D03*
%TO.P,MCU1,49*%
%TO.N,NAV1*%
X143099000Y-87808000D03*
%TO.P,MCU1,51*%
%TO.N,MKR*%
X145639000Y-87808000D03*
%TO.P,MCU1,53*%
%TO.N,ADF*%
X148179000Y-87808000D03*
%TO.P,MCU1,55*%
%TO.N,O_led*%
X150719000Y-87808000D03*
%TO.P,MCU1,57*%
%TO.N,I_led*%
X153259000Y-87808000D03*
%TO.P,MCU1,59*%
%TO.N,N/C*%
X155799000Y-87808000D03*
%TO.P,MCU1,61*%
X158339000Y-87808000D03*
%TO.P,MCU1,63*%
X160879000Y-87808000D03*
%TD*%
D10*
%TO.P,J3,4*%
%TO.N,GND*%
X113919000Y-132207000D03*
%TO.P,J3,3*%
%TO.N,VCC*%
X116459000Y-132207000D03*
%TO.P,J3,2*%
%TO.N,GND*%
X118999000Y-132207000D03*
D11*
%TO.P,J3,1*%
%TO.N,+5V*%
X121539000Y-132207000D03*
%TD*%
D15*
%TO.N,B_COM_ENC_KHZ*%
X153646300Y-117388500D03*
X141270900Y-117675500D03*
%TD*%
D16*
%TO.N,GND*%
X118999000Y-132207000D02*
X118400900Y-132207000D01*
X112399000Y-119712700D02*
X112399000Y-121088000D01*
X121215200Y-110896500D02*
X112399000Y-119712700D01*
X121215200Y-83254800D02*
X121215200Y-110896500D01*
X124460000Y-80010000D02*
X121215200Y-83254800D01*
X121683890Y-135489990D02*
X118400900Y-132207000D01*
X163976010Y-135489990D02*
X121683890Y-135489990D01*
X166116000Y-133350000D02*
X163976010Y-135489990D01*
X113919000Y-132207000D02*
X113919000Y-134239000D01*
X113919000Y-134239000D02*
X114681000Y-135001000D01*
X116205000Y-135001000D02*
X118999000Y-132207000D01*
X114681000Y-135001000D02*
X116205000Y-135001000D01*
%TO.N,B_COM_ENC_KHZ*%
X141270900Y-117675500D02*
X153359300Y-117675500D01*
X153359300Y-117675500D02*
X153646300Y-117388500D01*
%TO.N,COM_SWAP*%
X146689000Y-122438000D02*
X145389000Y-123738000D01*
X146689000Y-119884000D02*
X146689000Y-122438000D01*
X156819000Y-125323000D02*
X156819000Y-120116000D01*
X158496000Y-127000000D02*
X156819000Y-125323000D01*
X156819000Y-120116000D02*
X155829000Y-119126000D01*
X167611233Y-119932600D02*
X160543833Y-127000000D01*
X147447000Y-119126000D02*
X146689000Y-119884000D01*
X155829000Y-119126000D02*
X147447000Y-119126000D01*
X169500400Y-119932600D02*
X167611233Y-119932600D01*
X160543833Y-127000000D02*
X158496000Y-127000000D01*
X170815000Y-118618000D02*
X169500400Y-119932600D01*
%TO.N,CS_MAX*%
X155549000Y-123738000D02*
X155549000Y-125113300D01*
X152146000Y-126238000D02*
X154424300Y-126238000D01*
X154424300Y-126238000D02*
X155549000Y-125113300D01*
X149650999Y-128733001D02*
X152146000Y-126238000D01*
X149650999Y-134194001D02*
X149650999Y-128733001D01*
X148905020Y-134939980D02*
X149650999Y-134194001D01*
X134685980Y-134939980D02*
X148905020Y-134939980D01*
X133096000Y-133350000D02*
X134685980Y-134939980D01*
X155549000Y-125958000D02*
X155549000Y-125113300D01*
X157480000Y-127889000D02*
X155549000Y-125958000D01*
X161842700Y-127889000D02*
X157480000Y-127889000D01*
X167259100Y-122472600D02*
X161842700Y-127889000D01*
X169500400Y-122472600D02*
X167259100Y-122472600D01*
X170815000Y-121158000D02*
X169500400Y-122472600D01*
%TO.N,CLK*%
X133959000Y-120602100D02*
X133959000Y-128721700D01*
X133096000Y-129584700D02*
X133096000Y-130810000D01*
X133959000Y-128721700D02*
X133096000Y-129584700D01*
X136070100Y-118491000D02*
X133959000Y-120602100D01*
X156897300Y-118491000D02*
X136070100Y-118491000D01*
X158119000Y-119712700D02*
X156897300Y-118491000D01*
X158119000Y-121088000D02*
X158119000Y-119712700D01*
%TO.N,+5V*%
X114939000Y-122463300D02*
X114909000Y-122493300D01*
X114909000Y-122493300D02*
X114909000Y-123738000D01*
X114939000Y-121088000D02*
X114939000Y-122463300D01*
X167894000Y-82550000D02*
X160020000Y-82550000D01*
X172052100Y-86708100D02*
X167894000Y-82550000D01*
X172052100Y-125127900D02*
X172052100Y-86708100D01*
X171196000Y-125984000D02*
X172052100Y-125127900D01*
X169926000Y-125984000D02*
X171196000Y-125984000D01*
X168275000Y-124333000D02*
X169926000Y-125984000D01*
X168275000Y-123698000D02*
X168275000Y-124333000D01*
X121539000Y-130981700D02*
X121539000Y-132207000D01*
X114909000Y-124351700D02*
X121539000Y-130981700D01*
X114909000Y-123738000D02*
X114909000Y-124351700D01*
%TO.N,SW_NAV_ENC_MHZ*%
X146302100Y-132080000D02*
X144526000Y-132080000D01*
X147066000Y-131316100D02*
X146302100Y-132080000D01*
X144526000Y-132080000D02*
X143256000Y-133350000D01*
X152741000Y-123738000D02*
X147066000Y-129413000D01*
X153009000Y-123738000D02*
X152741000Y-123738000D01*
X147066000Y-129413000D02*
X147066000Y-131316100D01*
%TO.N,B_NAV_ENC_MHZ*%
X143256000Y-130810000D02*
X143256000Y-129584700D01*
X145419000Y-121088000D02*
X144119000Y-122388000D01*
X144119000Y-122388000D02*
X144119000Y-128721700D01*
X144119000Y-128721700D02*
X143256000Y-129584700D01*
%TO.N,A_NAV_ENC_MHZ*%
X142849000Y-125113300D02*
X142849000Y-123738000D01*
X141986000Y-125976300D02*
X142849000Y-125113300D01*
X141986000Y-132080000D02*
X141986000Y-125976300D01*
X140716000Y-133350000D02*
X141986000Y-132080000D01*
%TO.N,B_NAV_ENC_KHZ*%
X141435600Y-122531400D02*
X142879000Y-121088000D01*
X141435600Y-126285900D02*
X141435600Y-122531400D01*
X139446000Y-128275500D02*
X141435600Y-126285900D01*
X139446000Y-132080000D02*
X139446000Y-128275500D01*
X138176000Y-133350000D02*
X139446000Y-132080000D01*
%TO.N,A_NAV_ENC_KHZ*%
X140309000Y-123738000D02*
X140309000Y-125113300D01*
X140309000Y-125113300D02*
X138176000Y-127246300D01*
X138176000Y-127246300D02*
X138176000Y-130810000D01*
%TO.N,VCC*%
X109859000Y-121088000D02*
X109859000Y-122463300D01*
X109859000Y-122463300D02*
X109829000Y-122493300D01*
X109829000Y-122493300D02*
X109829000Y-123738000D01*
X116459000Y-130981700D02*
X116459000Y-132207000D01*
X109829000Y-124351700D02*
X116459000Y-130981700D01*
X109829000Y-123738000D02*
X109829000Y-124351700D01*
%TO.N,M_led*%
X149479000Y-89248000D02*
X150689000Y-90458000D01*
X149479000Y-87205900D02*
X149479000Y-89248000D01*
X146094600Y-83821500D02*
X149479000Y-87205900D01*
X146094600Y-81235400D02*
X146094600Y-83821500D01*
X147320000Y-80010000D02*
X146094600Y-81235400D01*
%TO.N,O_led*%
X150719000Y-85949000D02*
X147320000Y-82550000D01*
X150719000Y-87808000D02*
X150719000Y-85949000D01*
%TO.N,DME*%
X145609000Y-89728600D02*
X145609000Y-90458000D01*
X144563700Y-88683300D02*
X145609000Y-89728600D01*
X144563700Y-85890000D02*
X144563700Y-88683300D01*
X143465001Y-84791301D02*
X144563700Y-85890000D01*
X143465001Y-78403999D02*
X143465001Y-84791301D01*
X144145000Y-77724000D02*
X143465001Y-78403999D01*
X150114000Y-77724000D02*
X144145000Y-77724000D01*
X152400000Y-80010000D02*
X150114000Y-77724000D01*
%TO.N,NAV1*%
X151989000Y-86726300D02*
X154940000Y-83775300D01*
X151989000Y-92105000D02*
X151989000Y-86726300D01*
X154940000Y-83775300D02*
X154940000Y-82550000D01*
X150876000Y-93218000D02*
X151989000Y-92105000D01*
X145542000Y-93218000D02*
X150876000Y-93218000D01*
X144272000Y-91948000D02*
X145542000Y-93218000D01*
X144272000Y-89170000D02*
X144272000Y-91948000D01*
X143099000Y-87997000D02*
X144272000Y-89170000D01*
X143099000Y-87808000D02*
X143099000Y-87997000D01*
%TO.N,BOTH*%
X158623000Y-92933100D02*
X158623000Y-117031700D01*
X156929600Y-91239700D02*
X158623000Y-92933100D01*
X159219000Y-122328000D02*
X160629000Y-123738000D01*
X158623000Y-117031700D02*
X159219000Y-117627700D01*
X156210000Y-83180200D02*
X156929600Y-83899800D01*
X156210000Y-81280000D02*
X156210000Y-83180200D01*
X157480000Y-80010000D02*
X156210000Y-81280000D01*
X156929600Y-83899800D02*
X156929600Y-91239700D01*
X159219000Y-117627700D02*
X159219000Y-122328000D01*
%TO.N,COM2*%
X160659000Y-114524500D02*
X160659000Y-121088000D01*
X159340400Y-85635700D02*
X159340400Y-113205900D01*
X159340400Y-113205900D02*
X160659000Y-114524500D01*
X157480000Y-83775300D02*
X159340400Y-85635700D01*
X157480000Y-82550000D02*
X157480000Y-83775300D01*
%TO.N,COM1*%
X158877000Y-125730000D02*
X158089000Y-124942000D01*
X161036000Y-125730000D02*
X158877000Y-125730000D01*
X163703000Y-123063000D02*
X161036000Y-125730000D01*
X163703000Y-88760700D02*
X163703000Y-123063000D01*
X158794600Y-83852300D02*
X163703000Y-88760700D01*
X158089000Y-124942000D02*
X158089000Y-123738000D01*
X158794600Y-81235400D02*
X158794600Y-83852300D01*
X160020000Y-80010000D02*
X158794600Y-81235400D01*
%TD*%
D17*
%TO.N,GND*%
X166786928Y-124548000D02*
X166799188Y-124672482D01*
X166835498Y-124792180D01*
X166894463Y-124902494D01*
X166973815Y-124999185D01*
X167070506Y-125078537D01*
X167180820Y-125137502D01*
X167300518Y-125173812D01*
X167425000Y-125186072D01*
X167982560Y-125186072D01*
X169325105Y-126528618D01*
X169350472Y-126559528D01*
X169473811Y-126660749D01*
X169614526Y-126735963D01*
X169767212Y-126782280D01*
X169926000Y-126797919D01*
X169965791Y-126794000D01*
X171156212Y-126794000D01*
X171196000Y-126797919D01*
X171235788Y-126794000D01*
X171235791Y-126794000D01*
X171354788Y-126782280D01*
X171507473Y-126735963D01*
X171648189Y-126660749D01*
X171771528Y-126559528D01*
X171796899Y-126528613D01*
X172060000Y-126265512D01*
X172060000Y-135230000D01*
X149760512Y-135230000D01*
X150195618Y-134794895D01*
X150226527Y-134769529D01*
X150276258Y-134708931D01*
X150442842Y-134777932D01*
X150729740Y-134835000D01*
X151022260Y-134835000D01*
X151309158Y-134777932D01*
X151579411Y-134665990D01*
X151822632Y-134503475D01*
X152029475Y-134296632D01*
X152146000Y-134122240D01*
X152262525Y-134296632D01*
X152469368Y-134503475D01*
X152712589Y-134665990D01*
X152982842Y-134777932D01*
X153269740Y-134835000D01*
X153562260Y-134835000D01*
X153849158Y-134777932D01*
X154119411Y-134665990D01*
X154362632Y-134503475D01*
X154569475Y-134296632D01*
X154686000Y-134122240D01*
X154802525Y-134296632D01*
X155009368Y-134503475D01*
X155252589Y-134665990D01*
X155522842Y-134777932D01*
X155809740Y-134835000D01*
X156102260Y-134835000D01*
X156389158Y-134777932D01*
X156659411Y-134665990D01*
X156902632Y-134503475D01*
X157109475Y-134296632D01*
X157226000Y-134122240D01*
X157342525Y-134296632D01*
X157549368Y-134503475D01*
X157792589Y-134665990D01*
X158062842Y-134777932D01*
X158349740Y-134835000D01*
X158642260Y-134835000D01*
X158929158Y-134777932D01*
X159199411Y-134665990D01*
X159442632Y-134503475D01*
X159649475Y-134296632D01*
X159766000Y-134122240D01*
X159882525Y-134296632D01*
X160089368Y-134503475D01*
X160332589Y-134665990D01*
X160602842Y-134777932D01*
X160889740Y-134835000D01*
X161182260Y-134835000D01*
X161469158Y-134777932D01*
X161739411Y-134665990D01*
X161982632Y-134503475D01*
X162189475Y-134296632D01*
X162306000Y-134122240D01*
X162422525Y-134296632D01*
X162629368Y-134503475D01*
X162872589Y-134665990D01*
X163142842Y-134777932D01*
X163429740Y-134835000D01*
X163722260Y-134835000D01*
X164009158Y-134777932D01*
X164279411Y-134665990D01*
X164522632Y-134503475D01*
X164729475Y-134296632D01*
X164851195Y-134114466D01*
X164920822Y-134231355D01*
X165115731Y-134447588D01*
X165349080Y-134621641D01*
X165611901Y-134746825D01*
X165759110Y-134791476D01*
X165989000Y-134670155D01*
X165989000Y-133477000D01*
X166243000Y-133477000D01*
X166243000Y-134670155D01*
X166472890Y-134791476D01*
X166620099Y-134746825D01*
X166882920Y-134621641D01*
X167116269Y-134447588D01*
X167311178Y-134231355D01*
X167460157Y-133981252D01*
X167557481Y-133706891D01*
X167436814Y-133477000D01*
X166243000Y-133477000D01*
X165989000Y-133477000D01*
X165969000Y-133477000D01*
X165969000Y-133223000D01*
X165989000Y-133223000D01*
X165989000Y-133203000D01*
X166243000Y-133203000D01*
X166243000Y-133223000D01*
X167436814Y-133223000D01*
X167557481Y-132993109D01*
X167460157Y-132718748D01*
X167311178Y-132468645D01*
X167116269Y-132252412D01*
X166886594Y-132081100D01*
X167062632Y-131963475D01*
X167269475Y-131756632D01*
X167431990Y-131513411D01*
X167543932Y-131243158D01*
X167601000Y-130956260D01*
X167601000Y-130663740D01*
X167543932Y-130376842D01*
X167431990Y-130106589D01*
X167269475Y-129863368D01*
X167062632Y-129656525D01*
X166819411Y-129494010D01*
X166549158Y-129382068D01*
X166262260Y-129325000D01*
X165969740Y-129325000D01*
X165682842Y-129382068D01*
X165412589Y-129494010D01*
X165169368Y-129656525D01*
X164962525Y-129863368D01*
X164846000Y-130037760D01*
X164729475Y-129863368D01*
X164522632Y-129656525D01*
X164279411Y-129494010D01*
X164009158Y-129382068D01*
X163722260Y-129325000D01*
X163429740Y-129325000D01*
X163142842Y-129382068D01*
X162872589Y-129494010D01*
X162629368Y-129656525D01*
X162422525Y-129863368D01*
X162306000Y-130037760D01*
X162189475Y-129863368D01*
X161982632Y-129656525D01*
X161739411Y-129494010D01*
X161469158Y-129382068D01*
X161182260Y-129325000D01*
X160889740Y-129325000D01*
X160602842Y-129382068D01*
X160332589Y-129494010D01*
X160089368Y-129656525D01*
X159882525Y-129863368D01*
X159766000Y-130037760D01*
X159649475Y-129863368D01*
X159442632Y-129656525D01*
X159199411Y-129494010D01*
X158929158Y-129382068D01*
X158642260Y-129325000D01*
X158349740Y-129325000D01*
X158062842Y-129382068D01*
X157792589Y-129494010D01*
X157549368Y-129656525D01*
X157342525Y-129863368D01*
X157226000Y-130037760D01*
X157109475Y-129863368D01*
X156902632Y-129656525D01*
X156659411Y-129494010D01*
X156389158Y-129382068D01*
X156102260Y-129325000D01*
X155809740Y-129325000D01*
X155522842Y-129382068D01*
X155252589Y-129494010D01*
X155009368Y-129656525D01*
X154802525Y-129863368D01*
X154686000Y-130037760D01*
X154569475Y-129863368D01*
X154362632Y-129656525D01*
X154119411Y-129494010D01*
X153849158Y-129382068D01*
X153562260Y-129325000D01*
X153269740Y-129325000D01*
X152982842Y-129382068D01*
X152712589Y-129494010D01*
X152469368Y-129656525D01*
X152262525Y-129863368D01*
X152146000Y-130037760D01*
X152029475Y-129863368D01*
X151822632Y-129656525D01*
X151579411Y-129494010D01*
X151309158Y-129382068D01*
X151022260Y-129325000D01*
X150729740Y-129325000D01*
X150460999Y-129378456D01*
X150460999Y-129068513D01*
X152481513Y-127048000D01*
X154384512Y-127048000D01*
X154424300Y-127051919D01*
X154464088Y-127048000D01*
X154464091Y-127048000D01*
X154583088Y-127036280D01*
X154735773Y-126989963D01*
X154876489Y-126914749D01*
X154999828Y-126813528D01*
X155025199Y-126782613D01*
X155126650Y-126681162D01*
X156879105Y-128433618D01*
X156904472Y-128464528D01*
X157027811Y-128565749D01*
X157168527Y-128640963D01*
X157321212Y-128687280D01*
X157440209Y-128699000D01*
X157440211Y-128699000D01*
X157479999Y-128702919D01*
X157519787Y-128699000D01*
X161802912Y-128699000D01*
X161842700Y-128702919D01*
X161882488Y-128699000D01*
X161882491Y-128699000D01*
X162001488Y-128687280D01*
X162154173Y-128640963D01*
X162294889Y-128565749D01*
X162418228Y-128464528D01*
X162443600Y-128433612D01*
X166786928Y-124090285D01*
X166786928Y-124548000D01*
%TA.AperFunction,Conductor*%
D18*
G36*
X166786928Y-124548000D02*
G01*
X166799188Y-124672482D01*
X166835498Y-124792180D01*
X166894463Y-124902494D01*
X166973815Y-124999185D01*
X167070506Y-125078537D01*
X167180820Y-125137502D01*
X167300518Y-125173812D01*
X167425000Y-125186072D01*
X167982560Y-125186072D01*
X169325105Y-126528618D01*
X169350472Y-126559528D01*
X169473811Y-126660749D01*
X169614526Y-126735963D01*
X169767212Y-126782280D01*
X169926000Y-126797919D01*
X169965791Y-126794000D01*
X171156212Y-126794000D01*
X171196000Y-126797919D01*
X171235788Y-126794000D01*
X171235791Y-126794000D01*
X171354788Y-126782280D01*
X171507473Y-126735963D01*
X171648189Y-126660749D01*
X171771528Y-126559528D01*
X171796899Y-126528613D01*
X172060000Y-126265512D01*
X172060000Y-135230000D01*
X149760512Y-135230000D01*
X150195618Y-134794895D01*
X150226527Y-134769529D01*
X150276258Y-134708931D01*
X150442842Y-134777932D01*
X150729740Y-134835000D01*
X151022260Y-134835000D01*
X151309158Y-134777932D01*
X151579411Y-134665990D01*
X151822632Y-134503475D01*
X152029475Y-134296632D01*
X152146000Y-134122240D01*
X152262525Y-134296632D01*
X152469368Y-134503475D01*
X152712589Y-134665990D01*
X152982842Y-134777932D01*
X153269740Y-134835000D01*
X153562260Y-134835000D01*
X153849158Y-134777932D01*
X154119411Y-134665990D01*
X154362632Y-134503475D01*
X154569475Y-134296632D01*
X154686000Y-134122240D01*
X154802525Y-134296632D01*
X155009368Y-134503475D01*
X155252589Y-134665990D01*
X155522842Y-134777932D01*
X155809740Y-134835000D01*
X156102260Y-134835000D01*
X156389158Y-134777932D01*
X156659411Y-134665990D01*
X156902632Y-134503475D01*
X157109475Y-134296632D01*
X157226000Y-134122240D01*
X157342525Y-134296632D01*
X157549368Y-134503475D01*
X157792589Y-134665990D01*
X158062842Y-134777932D01*
X158349740Y-134835000D01*
X158642260Y-134835000D01*
X158929158Y-134777932D01*
X159199411Y-134665990D01*
X159442632Y-134503475D01*
X159649475Y-134296632D01*
X159766000Y-134122240D01*
X159882525Y-134296632D01*
X160089368Y-134503475D01*
X160332589Y-134665990D01*
X160602842Y-134777932D01*
X160889740Y-134835000D01*
X161182260Y-134835000D01*
X161469158Y-134777932D01*
X161739411Y-134665990D01*
X161982632Y-134503475D01*
X162189475Y-134296632D01*
X162306000Y-134122240D01*
X162422525Y-134296632D01*
X162629368Y-134503475D01*
X162872589Y-134665990D01*
X163142842Y-134777932D01*
X163429740Y-134835000D01*
X163722260Y-134835000D01*
X164009158Y-134777932D01*
X164279411Y-134665990D01*
X164522632Y-134503475D01*
X164729475Y-134296632D01*
X164851195Y-134114466D01*
X164920822Y-134231355D01*
X165115731Y-134447588D01*
X165349080Y-134621641D01*
X165611901Y-134746825D01*
X165759110Y-134791476D01*
X165989000Y-134670155D01*
X165989000Y-133477000D01*
X166243000Y-133477000D01*
X166243000Y-134670155D01*
X166472890Y-134791476D01*
X166620099Y-134746825D01*
X166882920Y-134621641D01*
X167116269Y-134447588D01*
X167311178Y-134231355D01*
X167460157Y-133981252D01*
X167557481Y-133706891D01*
X167436814Y-133477000D01*
X166243000Y-133477000D01*
X165989000Y-133477000D01*
X165969000Y-133477000D01*
X165969000Y-133223000D01*
X165989000Y-133223000D01*
X165989000Y-133203000D01*
X166243000Y-133203000D01*
X166243000Y-133223000D01*
X167436814Y-133223000D01*
X167557481Y-132993109D01*
X167460157Y-132718748D01*
X167311178Y-132468645D01*
X167116269Y-132252412D01*
X166886594Y-132081100D01*
X167062632Y-131963475D01*
X167269475Y-131756632D01*
X167431990Y-131513411D01*
X167543932Y-131243158D01*
X167601000Y-130956260D01*
X167601000Y-130663740D01*
X167543932Y-130376842D01*
X167431990Y-130106589D01*
X167269475Y-129863368D01*
X167062632Y-129656525D01*
X166819411Y-129494010D01*
X166549158Y-129382068D01*
X166262260Y-129325000D01*
X165969740Y-129325000D01*
X165682842Y-129382068D01*
X165412589Y-129494010D01*
X165169368Y-129656525D01*
X164962525Y-129863368D01*
X164846000Y-130037760D01*
X164729475Y-129863368D01*
X164522632Y-129656525D01*
X164279411Y-129494010D01*
X164009158Y-129382068D01*
X163722260Y-129325000D01*
X163429740Y-129325000D01*
X163142842Y-129382068D01*
X162872589Y-129494010D01*
X162629368Y-129656525D01*
X162422525Y-129863368D01*
X162306000Y-130037760D01*
X162189475Y-129863368D01*
X161982632Y-129656525D01*
X161739411Y-129494010D01*
X161469158Y-129382068D01*
X161182260Y-129325000D01*
X160889740Y-129325000D01*
X160602842Y-129382068D01*
X160332589Y-129494010D01*
X160089368Y-129656525D01*
X159882525Y-129863368D01*
X159766000Y-130037760D01*
X159649475Y-129863368D01*
X159442632Y-129656525D01*
X159199411Y-129494010D01*
X158929158Y-129382068D01*
X158642260Y-129325000D01*
X158349740Y-129325000D01*
X158062842Y-129382068D01*
X157792589Y-129494010D01*
X157549368Y-129656525D01*
X157342525Y-129863368D01*
X157226000Y-130037760D01*
X157109475Y-129863368D01*
X156902632Y-129656525D01*
X156659411Y-129494010D01*
X156389158Y-129382068D01*
X156102260Y-129325000D01*
X155809740Y-129325000D01*
X155522842Y-129382068D01*
X155252589Y-129494010D01*
X155009368Y-129656525D01*
X154802525Y-129863368D01*
X154686000Y-130037760D01*
X154569475Y-129863368D01*
X154362632Y-129656525D01*
X154119411Y-129494010D01*
X153849158Y-129382068D01*
X153562260Y-129325000D01*
X153269740Y-129325000D01*
X152982842Y-129382068D01*
X152712589Y-129494010D01*
X152469368Y-129656525D01*
X152262525Y-129863368D01*
X152146000Y-130037760D01*
X152029475Y-129863368D01*
X151822632Y-129656525D01*
X151579411Y-129494010D01*
X151309158Y-129382068D01*
X151022260Y-129325000D01*
X150729740Y-129325000D01*
X150460999Y-129378456D01*
X150460999Y-129068513D01*
X152481513Y-127048000D01*
X154384512Y-127048000D01*
X154424300Y-127051919D01*
X154464088Y-127048000D01*
X154464091Y-127048000D01*
X154583088Y-127036280D01*
X154735773Y-126989963D01*
X154876489Y-126914749D01*
X154999828Y-126813528D01*
X155025199Y-126782613D01*
X155126650Y-126681162D01*
X156879105Y-128433618D01*
X156904472Y-128464528D01*
X157027811Y-128565749D01*
X157168527Y-128640963D01*
X157321212Y-128687280D01*
X157440209Y-128699000D01*
X157440211Y-128699000D01*
X157479999Y-128702919D01*
X157519787Y-128699000D01*
X161802912Y-128699000D01*
X161842700Y-128702919D01*
X161882488Y-128699000D01*
X161882491Y-128699000D01*
X162001488Y-128687280D01*
X162154173Y-128640963D01*
X162294889Y-128565749D01*
X162418228Y-128464528D01*
X162443600Y-128433612D01*
X166786928Y-124090285D01*
X166786928Y-124548000D01*
G37*
%TD.AperFunction*%
D17*
X172060001Y-85570488D02*
X168494900Y-82005388D01*
X168469528Y-81974472D01*
X168346189Y-81873251D01*
X168205473Y-81798037D01*
X168052788Y-81751720D01*
X167933791Y-81740000D01*
X167933788Y-81740000D01*
X167894000Y-81736081D01*
X167854212Y-81740000D01*
X161508072Y-81740000D01*
X161508072Y-81700000D01*
X161495812Y-81575518D01*
X161459502Y-81455820D01*
X161400537Y-81345506D01*
X161321185Y-81248815D01*
X161224494Y-81169463D01*
X161114180Y-81110498D01*
X161041620Y-81088487D01*
X161173475Y-80956632D01*
X161335990Y-80713411D01*
X161447932Y-80443158D01*
X161505000Y-80156260D01*
X161505000Y-79863740D01*
X161447932Y-79576842D01*
X161335990Y-79306589D01*
X161173475Y-79063368D01*
X160966632Y-78856525D01*
X160723411Y-78694010D01*
X160453158Y-78582068D01*
X160166260Y-78525000D01*
X159873740Y-78525000D01*
X159586842Y-78582068D01*
X159316589Y-78694010D01*
X159073368Y-78856525D01*
X158866525Y-79063368D01*
X158750000Y-79237760D01*
X158633475Y-79063368D01*
X158426632Y-78856525D01*
X158183411Y-78694010D01*
X157913158Y-78582068D01*
X157626260Y-78525000D01*
X157333740Y-78525000D01*
X157046842Y-78582068D01*
X156776589Y-78694010D01*
X156533368Y-78856525D01*
X156326525Y-79063368D01*
X156210000Y-79237760D01*
X156093475Y-79063368D01*
X155886632Y-78856525D01*
X155643411Y-78694010D01*
X155373158Y-78582068D01*
X155086260Y-78525000D01*
X154793740Y-78525000D01*
X154506842Y-78582068D01*
X154236589Y-78694010D01*
X153993368Y-78856525D01*
X153786525Y-79063368D01*
X153670000Y-79237760D01*
X153553475Y-79063368D01*
X153346632Y-78856525D01*
X153103411Y-78694010D01*
X152833158Y-78582068D01*
X152546260Y-78525000D01*
X152253740Y-78525000D01*
X152092571Y-78557059D01*
X150714899Y-77179387D01*
X150689528Y-77148472D01*
X150566189Y-77047251D01*
X150425473Y-76972037D01*
X150272788Y-76925720D01*
X150153791Y-76914000D01*
X150153788Y-76914000D01*
X150114000Y-76910081D01*
X150074212Y-76914000D01*
X144184788Y-76914000D01*
X144145000Y-76910081D01*
X144105212Y-76914000D01*
X144105209Y-76914000D01*
X143986212Y-76925720D01*
X143833527Y-76972037D01*
X143692811Y-77047251D01*
X143569472Y-77148472D01*
X143544105Y-77179382D01*
X142920388Y-77803100D01*
X142889473Y-77828471D01*
X142819704Y-77913486D01*
X142788252Y-77951810D01*
X142748050Y-78027024D01*
X142713038Y-78092527D01*
X142666721Y-78245212D01*
X142655001Y-78364208D01*
X142651082Y-78403999D01*
X142655001Y-78443787D01*
X142655001Y-78578456D01*
X142386260Y-78525000D01*
X142093740Y-78525000D01*
X141806842Y-78582068D01*
X141536589Y-78694010D01*
X141293368Y-78856525D01*
X141086525Y-79063368D01*
X140970000Y-79237760D01*
X140853475Y-79063368D01*
X140646632Y-78856525D01*
X140403411Y-78694010D01*
X140133158Y-78582068D01*
X139846260Y-78525000D01*
X139553740Y-78525000D01*
X139266842Y-78582068D01*
X138996589Y-78694010D01*
X138753368Y-78856525D01*
X138546525Y-79063368D01*
X138430000Y-79237760D01*
X138313475Y-79063368D01*
X138106632Y-78856525D01*
X137863411Y-78694010D01*
X137593158Y-78582068D01*
X137306260Y-78525000D01*
X137013740Y-78525000D01*
X136726842Y-78582068D01*
X136456589Y-78694010D01*
X136213368Y-78856525D01*
X136006525Y-79063368D01*
X135890000Y-79237760D01*
X135773475Y-79063368D01*
X135566632Y-78856525D01*
X135323411Y-78694010D01*
X135053158Y-78582068D01*
X134766260Y-78525000D01*
X134473740Y-78525000D01*
X134186842Y-78582068D01*
X133916589Y-78694010D01*
X133673368Y-78856525D01*
X133466525Y-79063368D01*
X133350000Y-79237760D01*
X133233475Y-79063368D01*
X133026632Y-78856525D01*
X132783411Y-78694010D01*
X132513158Y-78582068D01*
X132226260Y-78525000D01*
X131933740Y-78525000D01*
X131646842Y-78582068D01*
X131376589Y-78694010D01*
X131133368Y-78856525D01*
X130926525Y-79063368D01*
X130810000Y-79237760D01*
X130693475Y-79063368D01*
X130486632Y-78856525D01*
X130243411Y-78694010D01*
X129973158Y-78582068D01*
X129686260Y-78525000D01*
X129393740Y-78525000D01*
X129106842Y-78582068D01*
X128836589Y-78694010D01*
X128593368Y-78856525D01*
X128386525Y-79063368D01*
X128270000Y-79237760D01*
X128153475Y-79063368D01*
X127946632Y-78856525D01*
X127703411Y-78694010D01*
X127433158Y-78582068D01*
X127146260Y-78525000D01*
X126853740Y-78525000D01*
X126566842Y-78582068D01*
X126296589Y-78694010D01*
X126053368Y-78856525D01*
X125846525Y-79063368D01*
X125724805Y-79245534D01*
X125655178Y-79128645D01*
X125460269Y-78912412D01*
X125226920Y-78738359D01*
X124964099Y-78613175D01*
X124816890Y-78568524D01*
X124587000Y-78689845D01*
X124587000Y-79883000D01*
X124607000Y-79883000D01*
X124607000Y-80137000D01*
X124587000Y-80137000D01*
X124587000Y-80157000D01*
X124333000Y-80157000D01*
X124333000Y-80137000D01*
X123139186Y-80137000D01*
X123018519Y-80366891D01*
X123115843Y-80641252D01*
X123264822Y-80891355D01*
X123459731Y-81107588D01*
X123689406Y-81278900D01*
X123513368Y-81396525D01*
X123306525Y-81603368D01*
X123144010Y-81846589D01*
X123032068Y-82116842D01*
X122975000Y-82403740D01*
X122975000Y-82696260D01*
X123032068Y-82983158D01*
X123144010Y-83253411D01*
X123306525Y-83496632D01*
X123513368Y-83703475D01*
X123756589Y-83865990D01*
X124026842Y-83977932D01*
X124313740Y-84035000D01*
X124606260Y-84035000D01*
X124893158Y-83977932D01*
X125163411Y-83865990D01*
X125406632Y-83703475D01*
X125613475Y-83496632D01*
X125730000Y-83322240D01*
X125846525Y-83496632D01*
X126053368Y-83703475D01*
X126296589Y-83865990D01*
X126566842Y-83977932D01*
X126853740Y-84035000D01*
X127146260Y-84035000D01*
X127433158Y-83977932D01*
X127703411Y-83865990D01*
X127946632Y-83703475D01*
X128153475Y-83496632D01*
X128270000Y-83322240D01*
X128386525Y-83496632D01*
X128593368Y-83703475D01*
X128836589Y-83865990D01*
X129106842Y-83977932D01*
X129393740Y-84035000D01*
X129686260Y-84035000D01*
X129973158Y-83977932D01*
X130243411Y-83865990D01*
X130486632Y-83703475D01*
X130693475Y-83496632D01*
X130810000Y-83322240D01*
X130926525Y-83496632D01*
X131133368Y-83703475D01*
X131376589Y-83865990D01*
X131646842Y-83977932D01*
X131933740Y-84035000D01*
X132226260Y-84035000D01*
X132513158Y-83977932D01*
X132783411Y-83865990D01*
X133026632Y-83703475D01*
X133233475Y-83496632D01*
X133350000Y-83322240D01*
X133466525Y-83496632D01*
X133673368Y-83703475D01*
X133916589Y-83865990D01*
X134186842Y-83977932D01*
X134473740Y-84035000D01*
X134766260Y-84035000D01*
X135053158Y-83977932D01*
X135323411Y-83865990D01*
X135566632Y-83703475D01*
X135773475Y-83496632D01*
X135890000Y-83322240D01*
X136006525Y-83496632D01*
X136213368Y-83703475D01*
X136456589Y-83865990D01*
X136726842Y-83977932D01*
X137013740Y-84035000D01*
X137306260Y-84035000D01*
X137593158Y-83977932D01*
X137863411Y-83865990D01*
X138106632Y-83703475D01*
X138313475Y-83496632D01*
X138430000Y-83322240D01*
X138546525Y-83496632D01*
X138753368Y-83703475D01*
X138996589Y-83865990D01*
X139266842Y-83977932D01*
X139553740Y-84035000D01*
X139846260Y-84035000D01*
X140133158Y-83977932D01*
X140403411Y-83865990D01*
X140646632Y-83703475D01*
X140853475Y-83496632D01*
X140970000Y-83322240D01*
X141086525Y-83496632D01*
X141293368Y-83703475D01*
X141536589Y-83865990D01*
X141806842Y-83977932D01*
X142093740Y-84035000D01*
X142386260Y-84035000D01*
X142655002Y-83981544D01*
X142655002Y-84751503D01*
X142651082Y-84791301D01*
X142655625Y-84837420D01*
X142666722Y-84950089D01*
X142700116Y-85060172D01*
X142713039Y-85102774D01*
X142788252Y-85243490D01*
X142811856Y-85272251D01*
X142889474Y-85366829D01*
X142920384Y-85392196D01*
X143753700Y-86225513D01*
X143753700Y-86357593D01*
X143573901Y-86261489D01*
X143341102Y-86190870D01*
X143099000Y-86167025D01*
X142856899Y-86190870D01*
X142624100Y-86261489D01*
X142409552Y-86376167D01*
X142221499Y-86530498D01*
X142067168Y-86718551D01*
X141952489Y-86933099D01*
X141881870Y-87165898D01*
X141864000Y-87347335D01*
X141864000Y-88268664D01*
X141881870Y-88450101D01*
X141952489Y-88682900D01*
X142067167Y-88897448D01*
X142221498Y-89085502D01*
X142264375Y-89120690D01*
X142191499Y-89180498D01*
X142037168Y-89368551D01*
X141922489Y-89583099D01*
X141851870Y-89815898D01*
X141834000Y-89997335D01*
X141834000Y-90918664D01*
X141851870Y-91100101D01*
X141922489Y-91332900D01*
X142037167Y-91547448D01*
X142191498Y-91735502D01*
X142379551Y-91889833D01*
X142594099Y-92004511D01*
X142826898Y-92075130D01*
X143069000Y-92098975D01*
X143311101Y-92075130D01*
X143465975Y-92028149D01*
X143470603Y-92075130D01*
X143473721Y-92106788D01*
X143482225Y-92134820D01*
X143520038Y-92259473D01*
X143595251Y-92400189D01*
X143649292Y-92466037D01*
X143696473Y-92523528D01*
X143727383Y-92548895D01*
X144941105Y-93762618D01*
X144966472Y-93793528D01*
X145034210Y-93849119D01*
X145089810Y-93894749D01*
X145139692Y-93921411D01*
X145230527Y-93969963D01*
X145383212Y-94016280D01*
X145502209Y-94028000D01*
X145502211Y-94028000D01*
X145541999Y-94031919D01*
X145581787Y-94028000D01*
X150836212Y-94028000D01*
X150876000Y-94031919D01*
X150915788Y-94028000D01*
X150915791Y-94028000D01*
X151034788Y-94016280D01*
X151187473Y-93969963D01*
X151328189Y-93894749D01*
X151451528Y-93793528D01*
X151476899Y-93762613D01*
X152533619Y-92705894D01*
X152564528Y-92680528D01*
X152665749Y-92557189D01*
X152706520Y-92480912D01*
X152740963Y-92416474D01*
X152751743Y-92380937D01*
X152787280Y-92263788D01*
X152799000Y-92144791D01*
X152799000Y-92144788D01*
X152802919Y-92105000D01*
X152799000Y-92065212D01*
X152799000Y-92018132D01*
X152986898Y-92075130D01*
X153229000Y-92098975D01*
X153471101Y-92075130D01*
X153703900Y-92004511D01*
X153918448Y-91889833D01*
X154106502Y-91735502D01*
X154260833Y-91547449D01*
X154375511Y-91332901D01*
X154446130Y-91100102D01*
X154464000Y-90918665D01*
X154464000Y-89997336D01*
X154446130Y-89815899D01*
X154375511Y-89583099D01*
X154260833Y-89368551D01*
X154106502Y-89180498D01*
X154063625Y-89145310D01*
X154136502Y-89085502D01*
X154290833Y-88897449D01*
X154405511Y-88682901D01*
X154476130Y-88450102D01*
X154494000Y-88268665D01*
X154494000Y-87347336D01*
X154476130Y-87165899D01*
X154405511Y-86933099D01*
X154290833Y-86718551D01*
X154136502Y-86530498D01*
X153948449Y-86376167D01*
X153733901Y-86261489D01*
X153630646Y-86230167D01*
X155484619Y-84376194D01*
X155515528Y-84350828D01*
X155578834Y-84273689D01*
X155616749Y-84227490D01*
X155691962Y-84086774D01*
X155691963Y-84086773D01*
X155738280Y-83934088D01*
X155745461Y-83861174D01*
X156119600Y-84235313D01*
X156119600Y-86214682D01*
X156041102Y-86190870D01*
X155799000Y-86167025D01*
X155556899Y-86190870D01*
X155324100Y-86261489D01*
X155109552Y-86376167D01*
X154921499Y-86530498D01*
X154767168Y-86718551D01*
X154652489Y-86933099D01*
X154581870Y-87165898D01*
X154564000Y-87347335D01*
X154564000Y-88268664D01*
X154581870Y-88450101D01*
X154652489Y-88682900D01*
X154767167Y-88897448D01*
X154921498Y-89085502D01*
X154964375Y-89120690D01*
X154891499Y-89180498D01*
X154737168Y-89368551D01*
X154622489Y-89583099D01*
X154551870Y-89815898D01*
X154534000Y-89997335D01*
X154534000Y-90918664D01*
X154551870Y-91100101D01*
X154622489Y-91332900D01*
X154737167Y-91547448D01*
X154891498Y-91735502D01*
X155079551Y-91889833D01*
X155294099Y-92004511D01*
X155526898Y-92075130D01*
X155769000Y-92098975D01*
X156011101Y-92075130D01*
X156243900Y-92004511D01*
X156442660Y-91898272D01*
X156594178Y-92049790D01*
X156503565Y-92058715D01*
X156270766Y-92129334D01*
X156056218Y-92244012D01*
X155868165Y-92398343D01*
X155713834Y-92586396D01*
X155599156Y-92800944D01*
X155528537Y-93033743D01*
X155504692Y-93275845D01*
X155528537Y-93517947D01*
X155599156Y-93750746D01*
X155713834Y-93965294D01*
X155868165Y-94153347D01*
X156056218Y-94307678D01*
X156270766Y-94422356D01*
X156503565Y-94492975D01*
X156685002Y-94510845D01*
X157606332Y-94510845D01*
X157787769Y-94492975D01*
X157813000Y-94485321D01*
X157813000Y-94606369D01*
X157787769Y-94598715D01*
X157606332Y-94580845D01*
X156685002Y-94580845D01*
X156503565Y-94598715D01*
X156270766Y-94669334D01*
X156056218Y-94784012D01*
X155868165Y-94938343D01*
X155713834Y-95126396D01*
X155599156Y-95340944D01*
X155528537Y-95573743D01*
X155504692Y-95815845D01*
X155528537Y-96057947D01*
X155599156Y-96290746D01*
X155713834Y-96505294D01*
X155868165Y-96693347D01*
X156056218Y-96847678D01*
X156270766Y-96962356D01*
X156503565Y-97032975D01*
X156685002Y-97050845D01*
X157606332Y-97050845D01*
X157787769Y-97032975D01*
X157813000Y-97025321D01*
X157813000Y-97146369D01*
X157787769Y-97138715D01*
X157606332Y-97120845D01*
X156685002Y-97120845D01*
X156503565Y-97138715D01*
X156270766Y-97209334D01*
X156056218Y-97324012D01*
X155868165Y-97478343D01*
X155713834Y-97666396D01*
X155599156Y-97880944D01*
X155528537Y-98113743D01*
X155504692Y-98355845D01*
X155528537Y-98597947D01*
X155599156Y-98830746D01*
X155713834Y-99045294D01*
X155868165Y-99233347D01*
X156056218Y-99387678D01*
X156270766Y-99502356D01*
X156503565Y-99572975D01*
X156685002Y-99590845D01*
X157606332Y-99590845D01*
X157787769Y-99572975D01*
X157813000Y-99565321D01*
X157813000Y-104766369D01*
X157787769Y-104758715D01*
X157606332Y-104740845D01*
X156685002Y-104740845D01*
X156503565Y-104758715D01*
X156270766Y-104829334D01*
X156056218Y-104944012D01*
X155868165Y-105098343D01*
X155713834Y-105286396D01*
X155599156Y-105500944D01*
X155528537Y-105733743D01*
X155504692Y-105975845D01*
X155528537Y-106217947D01*
X155599156Y-106450746D01*
X155713834Y-106665294D01*
X155868165Y-106853347D01*
X156056218Y-107007678D01*
X156270766Y-107122356D01*
X156503565Y-107192975D01*
X156685002Y-107210845D01*
X157606332Y-107210845D01*
X157787769Y-107192975D01*
X157813001Y-107185321D01*
X157813001Y-107645518D01*
X157643660Y-107555004D01*
X157448562Y-107495821D01*
X157296505Y-107480845D01*
X156994829Y-107480845D01*
X156842772Y-107495821D01*
X156647674Y-107555004D01*
X156467870Y-107651111D01*
X156310271Y-107780449D01*
X156180933Y-107938048D01*
X156084826Y-108117852D01*
X156025643Y-108312950D01*
X156005660Y-108515845D01*
X156025643Y-108718740D01*
X156084826Y-108913838D01*
X156180933Y-109093642D01*
X156310271Y-109251241D01*
X156467870Y-109380579D01*
X156647674Y-109476686D01*
X156842772Y-109535869D01*
X156994829Y-109550845D01*
X157296505Y-109550845D01*
X157448562Y-109535869D01*
X157643660Y-109476686D01*
X157813001Y-109386172D01*
X157813001Y-110185518D01*
X157643660Y-110095004D01*
X157448562Y-110035821D01*
X157296505Y-110020845D01*
X156994829Y-110020845D01*
X156842772Y-110035821D01*
X156647674Y-110095004D01*
X156467870Y-110191111D01*
X156310271Y-110320449D01*
X156180933Y-110478048D01*
X156084826Y-110657852D01*
X156025643Y-110852950D01*
X156005660Y-111055845D01*
X156025643Y-111258740D01*
X156084826Y-111453838D01*
X156180933Y-111633642D01*
X156310271Y-111791241D01*
X156467870Y-111920579D01*
X156647674Y-112016686D01*
X156842772Y-112075869D01*
X156994829Y-112090845D01*
X157296505Y-112090845D01*
X157448562Y-112075869D01*
X157643660Y-112016686D01*
X157813001Y-111926172D01*
X157813001Y-116991902D01*
X157809081Y-117031700D01*
X157813546Y-117077027D01*
X157824721Y-117190488D01*
X157853865Y-117286561D01*
X157871038Y-117343173D01*
X157946251Y-117483889D01*
X157998283Y-117547289D01*
X158047473Y-117607228D01*
X158078383Y-117632595D01*
X158409000Y-117963213D01*
X158409000Y-118857188D01*
X157498199Y-117946387D01*
X157472828Y-117915472D01*
X157349489Y-117814251D01*
X157208773Y-117739037D01*
X157056088Y-117692720D01*
X156937091Y-117681000D01*
X156937088Y-117681000D01*
X156897300Y-117677081D01*
X156857512Y-117681000D01*
X154643395Y-117681000D01*
X154681300Y-117490439D01*
X154681300Y-117286561D01*
X154641526Y-117086602D01*
X154563505Y-116898244D01*
X154450237Y-116728726D01*
X154306074Y-116584563D01*
X154136556Y-116471295D01*
X153948198Y-116393274D01*
X153748239Y-116353500D01*
X153544361Y-116353500D01*
X153344402Y-116393274D01*
X153156044Y-116471295D01*
X152986526Y-116584563D01*
X152842363Y-116728726D01*
X152750974Y-116865500D01*
X141921600Y-116865500D01*
X141761156Y-116758295D01*
X141572798Y-116680274D01*
X141372839Y-116640500D01*
X141168961Y-116640500D01*
X140969002Y-116680274D01*
X140780644Y-116758295D01*
X140611126Y-116871563D01*
X140466963Y-117015726D01*
X140353695Y-117185244D01*
X140275674Y-117373602D01*
X140235900Y-117573561D01*
X140235900Y-117681000D01*
X136109887Y-117681000D01*
X136070099Y-117677081D01*
X136030311Y-117681000D01*
X136030309Y-117681000D01*
X135911312Y-117692720D01*
X135758627Y-117739037D01*
X135693124Y-117774049D01*
X135617910Y-117814251D01*
X135562310Y-117859881D01*
X135494572Y-117915472D01*
X135469205Y-117946382D01*
X133600373Y-119815215D01*
X133596502Y-119810498D01*
X133408449Y-119656167D01*
X133193901Y-119541489D01*
X132961102Y-119470870D01*
X132719000Y-119447025D01*
X132476899Y-119470870D01*
X132244100Y-119541489D01*
X132029552Y-119656167D01*
X131841499Y-119810498D01*
X131687168Y-119998551D01*
X131572489Y-120213099D01*
X131501870Y-120445898D01*
X131484000Y-120627335D01*
X131484000Y-121548664D01*
X131501870Y-121730101D01*
X131572489Y-121962900D01*
X131687167Y-122177448D01*
X131841498Y-122365502D01*
X131884375Y-122400690D01*
X131811499Y-122460498D01*
X131657168Y-122648551D01*
X131542489Y-122863099D01*
X131471870Y-123095898D01*
X131454000Y-123277335D01*
X131454000Y-124198664D01*
X131471870Y-124380101D01*
X131542489Y-124612900D01*
X131657167Y-124827448D01*
X131811498Y-125015502D01*
X131999551Y-125169833D01*
X132214099Y-125284511D01*
X132446898Y-125355130D01*
X132689000Y-125378975D01*
X132931101Y-125355130D01*
X133149001Y-125289031D01*
X133149001Y-128386186D01*
X132551387Y-128983801D01*
X132520472Y-129009172D01*
X132454616Y-129089419D01*
X132419251Y-129132511D01*
X132397134Y-129173890D01*
X132344037Y-129273228D01*
X132297720Y-129425913D01*
X132286915Y-129535619D01*
X132283858Y-129566662D01*
X132149368Y-129656525D01*
X132017513Y-129788380D01*
X131995502Y-129715820D01*
X131936537Y-129605506D01*
X131857185Y-129508815D01*
X131760494Y-129429463D01*
X131650180Y-129370498D01*
X131530482Y-129334188D01*
X131406000Y-129321928D01*
X129706000Y-129321928D01*
X129581518Y-129334188D01*
X129461820Y-129370498D01*
X129351506Y-129429463D01*
X129254815Y-129508815D01*
X129175463Y-129605506D01*
X129116498Y-129715820D01*
X129080188Y-129835518D01*
X129067928Y-129960000D01*
X129067928Y-131660000D01*
X129080188Y-131784482D01*
X129116498Y-131904180D01*
X129175463Y-132014494D01*
X129254815Y-132111185D01*
X129351506Y-132190537D01*
X129461820Y-132249502D01*
X129534380Y-132271513D01*
X129402525Y-132403368D01*
X129240010Y-132646589D01*
X129128068Y-132916842D01*
X129071000Y-133203740D01*
X129071000Y-133496260D01*
X129128068Y-133783158D01*
X129240010Y-134053411D01*
X129402525Y-134296632D01*
X129609368Y-134503475D01*
X129852589Y-134665990D01*
X130122842Y-134777932D01*
X130409740Y-134835000D01*
X130702260Y-134835000D01*
X130989158Y-134777932D01*
X131259411Y-134665990D01*
X131502632Y-134503475D01*
X131709475Y-134296632D01*
X131826000Y-134122240D01*
X131942525Y-134296632D01*
X132149368Y-134503475D01*
X132392589Y-134665990D01*
X132662842Y-134777932D01*
X132949740Y-134835000D01*
X133242260Y-134835000D01*
X133403429Y-134802941D01*
X133830487Y-135230000D01*
X108610000Y-135230000D01*
X108610000Y-132563891D01*
X112477519Y-132563891D01*
X112574843Y-132838252D01*
X112723822Y-133088355D01*
X112918731Y-133304588D01*
X113152080Y-133478641D01*
X113414901Y-133603825D01*
X113562110Y-133648476D01*
X113792000Y-133527155D01*
X113792000Y-132334000D01*
X112598186Y-132334000D01*
X112477519Y-132563891D01*
X108610000Y-132563891D01*
X108610000Y-131850109D01*
X112477519Y-131850109D01*
X112598186Y-132080000D01*
X113792000Y-132080000D01*
X113792000Y-130886845D01*
X113562110Y-130765524D01*
X113414901Y-130810175D01*
X113152080Y-130935359D01*
X112918731Y-131109412D01*
X112723822Y-131325645D01*
X112574843Y-131575748D01*
X112477519Y-131850109D01*
X108610000Y-131850109D01*
X108610000Y-124361115D01*
X108611870Y-124380101D01*
X108682489Y-124612900D01*
X108797167Y-124827448D01*
X108951498Y-125015502D01*
X109139551Y-125169833D01*
X109354099Y-125284511D01*
X109586898Y-125355130D01*
X109697845Y-125366057D01*
X115448840Y-131117053D01*
X115305525Y-131260368D01*
X115183805Y-131442534D01*
X115114178Y-131325645D01*
X114919269Y-131109412D01*
X114685920Y-130935359D01*
X114423099Y-130810175D01*
X114275890Y-130765524D01*
X114046000Y-130886845D01*
X114046000Y-132080000D01*
X114066000Y-132080000D01*
X114066000Y-132334000D01*
X114046000Y-132334000D01*
X114046000Y-133527155D01*
X114275890Y-133648476D01*
X114423099Y-133603825D01*
X114685920Y-133478641D01*
X114919269Y-133304588D01*
X115114178Y-133088355D01*
X115183805Y-132971466D01*
X115305525Y-133153632D01*
X115512368Y-133360475D01*
X115755589Y-133522990D01*
X116025842Y-133634932D01*
X116312740Y-133692000D01*
X116605260Y-133692000D01*
X116892158Y-133634932D01*
X117162411Y-133522990D01*
X117405632Y-133360475D01*
X117612475Y-133153632D01*
X117734195Y-132971466D01*
X117803822Y-133088355D01*
X117998731Y-133304588D01*
X118232080Y-133478641D01*
X118494901Y-133603825D01*
X118642110Y-133648476D01*
X118872000Y-133527155D01*
X118872000Y-132334000D01*
X118852000Y-132334000D01*
X118852000Y-132080000D01*
X118872000Y-132080000D01*
X118872000Y-130886845D01*
X118642110Y-130765524D01*
X118494901Y-130810175D01*
X118232080Y-130935359D01*
X117998731Y-131109412D01*
X117803822Y-131325645D01*
X117734195Y-131442534D01*
X117612475Y-131260368D01*
X117405632Y-131053525D01*
X117271142Y-130963662D01*
X117265445Y-130905815D01*
X117257280Y-130822912D01*
X117210963Y-130670227D01*
X117175951Y-130604724D01*
X117135749Y-130529510D01*
X117059893Y-130437080D01*
X117034528Y-130406172D01*
X117003619Y-130380806D01*
X111906552Y-125283740D01*
X112013718Y-125327591D01*
X112051391Y-125331462D01*
X112242000Y-125206731D01*
X112242000Y-123865000D01*
X112496000Y-123865000D01*
X112496000Y-125206731D01*
X112686609Y-125331462D01*
X112724282Y-125327591D01*
X112949533Y-125235421D01*
X113152474Y-125101078D01*
X113325307Y-124929725D01*
X113461390Y-124727946D01*
X113555493Y-124503496D01*
X113604000Y-124265000D01*
X113604000Y-123865000D01*
X112496000Y-123865000D01*
X112242000Y-123865000D01*
X111134000Y-123865000D01*
X111134000Y-124265000D01*
X111182507Y-124503496D01*
X111223079Y-124600267D01*
X111036072Y-124413260D01*
X111046130Y-124380102D01*
X111064000Y-124198665D01*
X111064000Y-123277336D01*
X111057467Y-123211000D01*
X111134000Y-123211000D01*
X111134000Y-123611000D01*
X112242000Y-123611000D01*
X112242000Y-122576362D01*
X112272000Y-122556731D01*
X112272000Y-122269269D01*
X112496000Y-122269269D01*
X112496000Y-123611000D01*
X113604000Y-123611000D01*
X113604000Y-123277335D01*
X113674000Y-123277335D01*
X113674000Y-124198664D01*
X113691870Y-124380101D01*
X113762489Y-124612900D01*
X113877167Y-124827448D01*
X114031498Y-125015502D01*
X114219551Y-125169833D01*
X114434099Y-125284511D01*
X114666898Y-125355130D01*
X114777845Y-125366057D01*
X120281638Y-130869851D01*
X120237815Y-130905815D01*
X120158463Y-131002506D01*
X120099498Y-131112820D01*
X120075034Y-131193466D01*
X119999269Y-131109412D01*
X119765920Y-130935359D01*
X119503099Y-130810175D01*
X119355890Y-130765524D01*
X119126000Y-130886845D01*
X119126000Y-132080000D01*
X119146000Y-132080000D01*
X119146000Y-132334000D01*
X119126000Y-132334000D01*
X119126000Y-133527155D01*
X119355890Y-133648476D01*
X119503099Y-133603825D01*
X119765920Y-133478641D01*
X119999269Y-133304588D01*
X120075034Y-133220534D01*
X120099498Y-133301180D01*
X120158463Y-133411494D01*
X120237815Y-133508185D01*
X120334506Y-133587537D01*
X120444820Y-133646502D01*
X120564518Y-133682812D01*
X120689000Y-133695072D01*
X122389000Y-133695072D01*
X122513482Y-133682812D01*
X122633180Y-133646502D01*
X122743494Y-133587537D01*
X122840185Y-133508185D01*
X122919537Y-133411494D01*
X122978502Y-133301180D01*
X123014812Y-133181482D01*
X123027072Y-133057000D01*
X123027072Y-131357000D01*
X123014812Y-131232518D01*
X122978502Y-131112820D01*
X122919537Y-131002506D01*
X122840185Y-130905815D01*
X122743494Y-130826463D01*
X122633180Y-130767498D01*
X122513482Y-130731188D01*
X122389000Y-130718928D01*
X122305736Y-130718928D01*
X122290963Y-130670227D01*
X122255951Y-130604724D01*
X122215749Y-130529510D01*
X122139893Y-130437080D01*
X122114528Y-130406172D01*
X122083619Y-130380806D01*
X116993082Y-125290269D01*
X117206898Y-125355130D01*
X117449000Y-125378975D01*
X117691101Y-125355130D01*
X117923900Y-125284511D01*
X118138448Y-125169833D01*
X118326502Y-125015502D01*
X118480833Y-124827449D01*
X118595511Y-124612901D01*
X118666130Y-124380102D01*
X118684000Y-124198665D01*
X118684000Y-123277336D01*
X118684000Y-123277335D01*
X118754000Y-123277335D01*
X118754000Y-124198664D01*
X118771870Y-124380101D01*
X118842489Y-124612900D01*
X118957167Y-124827448D01*
X119111498Y-125015502D01*
X119299551Y-125169833D01*
X119514099Y-125284511D01*
X119746898Y-125355130D01*
X119989000Y-125378975D01*
X120231101Y-125355130D01*
X120463900Y-125284511D01*
X120678448Y-125169833D01*
X120866502Y-125015502D01*
X121020833Y-124827449D01*
X121135511Y-124612901D01*
X121206130Y-124380102D01*
X121224000Y-124198665D01*
X121224000Y-123277336D01*
X121224000Y-123277335D01*
X121294000Y-123277335D01*
X121294000Y-124198664D01*
X121311870Y-124380101D01*
X121382489Y-124612900D01*
X121497167Y-124827448D01*
X121651498Y-125015502D01*
X121839551Y-125169833D01*
X122054099Y-125284511D01*
X122286898Y-125355130D01*
X122529000Y-125378975D01*
X122771101Y-125355130D01*
X123003900Y-125284511D01*
X123218448Y-125169833D01*
X123406502Y-125015502D01*
X123560833Y-124827449D01*
X123675511Y-124612901D01*
X123746130Y-124380102D01*
X123764000Y-124198665D01*
X123764000Y-123277336D01*
X123764000Y-123277335D01*
X123834000Y-123277335D01*
X123834000Y-124198664D01*
X123851870Y-124380101D01*
X123922489Y-124612900D01*
X124037167Y-124827448D01*
X124191498Y-125015502D01*
X124379551Y-125169833D01*
X124594099Y-125284511D01*
X124826898Y-125355130D01*
X125069000Y-125378975D01*
X125311101Y-125355130D01*
X125543900Y-125284511D01*
X125758448Y-125169833D01*
X125946502Y-125015502D01*
X126100833Y-124827449D01*
X126215511Y-124612901D01*
X126286130Y-124380102D01*
X126304000Y-124198665D01*
X126304000Y-123277336D01*
X126304000Y-123277335D01*
X126374000Y-123277335D01*
X126374000Y-124198664D01*
X126391870Y-124380101D01*
X126462489Y-124612900D01*
X126577167Y-124827448D01*
X126731498Y-125015502D01*
X126919551Y-125169833D01*
X127134099Y-125284511D01*
X127366898Y-125355130D01*
X127609000Y-125378975D01*
X127851101Y-125355130D01*
X128083900Y-125284511D01*
X128298448Y-125169833D01*
X128486502Y-125015502D01*
X128640833Y-124827449D01*
X128755511Y-124612901D01*
X128826130Y-124380102D01*
X128844000Y-124198665D01*
X128844000Y-123277336D01*
X128844000Y-123277335D01*
X128914000Y-123277335D01*
X128914000Y-124198664D01*
X128931870Y-124380101D01*
X129002489Y-124612900D01*
X129117167Y-124827448D01*
X129271498Y-125015502D01*
X129459551Y-125169833D01*
X129674099Y-125284511D01*
X129906898Y-125355130D01*
X130149000Y-125378975D01*
X130391101Y-125355130D01*
X130623900Y-125284511D01*
X130838448Y-125169833D01*
X131026502Y-125015502D01*
X131180833Y-124827449D01*
X131295511Y-124612901D01*
X131366130Y-124380102D01*
X131384000Y-124198665D01*
X131384000Y-123277336D01*
X131366130Y-123095899D01*
X131295511Y-122863099D01*
X131180833Y-122648551D01*
X131026502Y-122460498D01*
X130983625Y-122425310D01*
X131056502Y-122365502D01*
X131210833Y-122177449D01*
X131325511Y-121962901D01*
X131396130Y-121730102D01*
X131414000Y-121548665D01*
X131414000Y-120627336D01*
X131396130Y-120445899D01*
X131325511Y-120213099D01*
X131210833Y-119998551D01*
X131056502Y-119810498D01*
X130868449Y-119656167D01*
X130653901Y-119541489D01*
X130421102Y-119470870D01*
X130179000Y-119447025D01*
X129936899Y-119470870D01*
X129704100Y-119541489D01*
X129489552Y-119656167D01*
X129301499Y-119810498D01*
X129147168Y-119998551D01*
X129032489Y-120213099D01*
X128961870Y-120445898D01*
X128944000Y-120627335D01*
X128944000Y-121548664D01*
X128961870Y-121730101D01*
X129032489Y-121962900D01*
X129147167Y-122177448D01*
X129301498Y-122365502D01*
X129344375Y-122400690D01*
X129271499Y-122460498D01*
X129117168Y-122648551D01*
X129002489Y-122863099D01*
X128931870Y-123095898D01*
X128914000Y-123277335D01*
X128844000Y-123277335D01*
X128826130Y-123095899D01*
X128755511Y-122863099D01*
X128640833Y-122648551D01*
X128486502Y-122460498D01*
X128443625Y-122425310D01*
X128516502Y-122365502D01*
X128670833Y-122177449D01*
X128785511Y-121962901D01*
X128856130Y-121730102D01*
X128874000Y-121548665D01*
X128874000Y-120627336D01*
X128856130Y-120445899D01*
X128785511Y-120213099D01*
X128670833Y-119998551D01*
X128516502Y-119810498D01*
X128328449Y-119656167D01*
X128113901Y-119541489D01*
X127881102Y-119470870D01*
X127639000Y-119447025D01*
X127396899Y-119470870D01*
X127164100Y-119541489D01*
X126949552Y-119656167D01*
X126761499Y-119810498D01*
X126607168Y-119998551D01*
X126492489Y-120213099D01*
X126421870Y-120445898D01*
X126404000Y-120627335D01*
X126404000Y-121548664D01*
X126421870Y-121730101D01*
X126492489Y-121962900D01*
X126607167Y-122177448D01*
X126761498Y-122365502D01*
X126804375Y-122400690D01*
X126731499Y-122460498D01*
X126577168Y-122648551D01*
X126462489Y-122863099D01*
X126391870Y-123095898D01*
X126374000Y-123277335D01*
X126304000Y-123277335D01*
X126286130Y-123095899D01*
X126215511Y-122863099D01*
X126100833Y-122648551D01*
X125946502Y-122460498D01*
X125903625Y-122425310D01*
X125976502Y-122365502D01*
X126130833Y-122177449D01*
X126245511Y-121962901D01*
X126316130Y-121730102D01*
X126334000Y-121548665D01*
X126334000Y-120627336D01*
X126316130Y-120445899D01*
X126245511Y-120213099D01*
X126130833Y-119998551D01*
X125976502Y-119810498D01*
X125788449Y-119656167D01*
X125573901Y-119541489D01*
X125341102Y-119470870D01*
X125099000Y-119447025D01*
X124856899Y-119470870D01*
X124624100Y-119541489D01*
X124409552Y-119656167D01*
X124221499Y-119810498D01*
X124067168Y-119998551D01*
X123952489Y-120213099D01*
X123881870Y-120445898D01*
X123864000Y-120627335D01*
X123864000Y-121548664D01*
X123881870Y-121730101D01*
X123952489Y-121962900D01*
X124067167Y-122177448D01*
X124221498Y-122365502D01*
X124264375Y-122400690D01*
X124191499Y-122460498D01*
X124037168Y-122648551D01*
X123922489Y-122863099D01*
X123851870Y-123095898D01*
X123834000Y-123277335D01*
X123764000Y-123277335D01*
X123746130Y-123095899D01*
X123675511Y-122863099D01*
X123560833Y-122648551D01*
X123406502Y-122460498D01*
X123363625Y-122425310D01*
X123436502Y-122365502D01*
X123590833Y-122177449D01*
X123705511Y-121962901D01*
X123776130Y-121730102D01*
X123794000Y-121548665D01*
X123794000Y-120627336D01*
X123776130Y-120445899D01*
X123705511Y-120213099D01*
X123590833Y-119998551D01*
X123436502Y-119810498D01*
X123248449Y-119656167D01*
X123033901Y-119541489D01*
X122801102Y-119470870D01*
X122559000Y-119447025D01*
X122316899Y-119470870D01*
X122084100Y-119541489D01*
X121869552Y-119656167D01*
X121681499Y-119810498D01*
X121527168Y-119998551D01*
X121412489Y-120213099D01*
X121341870Y-120445898D01*
X121324000Y-120627335D01*
X121324000Y-121548664D01*
X121341870Y-121730101D01*
X121412489Y-121962900D01*
X121527167Y-122177448D01*
X121681498Y-122365502D01*
X121724375Y-122400690D01*
X121651499Y-122460498D01*
X121497168Y-122648551D01*
X121382489Y-122863099D01*
X121311870Y-123095898D01*
X121294000Y-123277335D01*
X121224000Y-123277335D01*
X121206130Y-123095899D01*
X121135511Y-122863099D01*
X121020833Y-122648551D01*
X120866502Y-122460498D01*
X120823625Y-122425310D01*
X120896502Y-122365502D01*
X121050833Y-122177449D01*
X121165511Y-121962901D01*
X121236130Y-121730102D01*
X121254000Y-121548665D01*
X121254000Y-120627336D01*
X121236130Y-120445899D01*
X121165511Y-120213099D01*
X121050833Y-119998551D01*
X120896502Y-119810498D01*
X120708449Y-119656167D01*
X120493901Y-119541489D01*
X120261102Y-119470870D01*
X120019000Y-119447025D01*
X119776899Y-119470870D01*
X119544100Y-119541489D01*
X119329552Y-119656167D01*
X119141499Y-119810498D01*
X118987168Y-119998551D01*
X118872489Y-120213099D01*
X118801870Y-120445898D01*
X118784000Y-120627335D01*
X118784000Y-121548664D01*
X118801870Y-121730101D01*
X118872489Y-121962900D01*
X118987167Y-122177448D01*
X119141498Y-122365502D01*
X119184375Y-122400690D01*
X119111499Y-122460498D01*
X118957168Y-122648551D01*
X118842489Y-122863099D01*
X118771870Y-123095898D01*
X118754000Y-123277335D01*
X118684000Y-123277335D01*
X118666130Y-123095899D01*
X118595511Y-122863099D01*
X118480833Y-122648551D01*
X118326502Y-122460498D01*
X118283625Y-122425310D01*
X118356502Y-122365502D01*
X118510833Y-122177449D01*
X118625511Y-121962901D01*
X118696130Y-121730102D01*
X118714000Y-121548665D01*
X118714000Y-120627336D01*
X118696130Y-120445899D01*
X118625511Y-120213099D01*
X118510833Y-119998551D01*
X118356502Y-119810498D01*
X118168449Y-119656167D01*
X117953901Y-119541489D01*
X117721102Y-119470870D01*
X117479000Y-119447025D01*
X117236899Y-119470870D01*
X117004100Y-119541489D01*
X116789552Y-119656167D01*
X116601499Y-119810498D01*
X116447168Y-119998551D01*
X116332489Y-120213099D01*
X116261870Y-120445898D01*
X116244000Y-120627335D01*
X116244000Y-121548664D01*
X116261870Y-121730101D01*
X116332489Y-121962900D01*
X116447167Y-122177448D01*
X116601498Y-122365502D01*
X116644375Y-122400690D01*
X116571499Y-122460498D01*
X116417168Y-122648551D01*
X116302489Y-122863099D01*
X116231870Y-123095898D01*
X116214000Y-123277335D01*
X116214000Y-124198664D01*
X116231870Y-124380101D01*
X116296731Y-124593919D01*
X116116072Y-124413260D01*
X116126130Y-124380102D01*
X116144000Y-124198665D01*
X116144000Y-123277336D01*
X116126130Y-123095899D01*
X116055511Y-122863099D01*
X115940833Y-122648551D01*
X115786502Y-122460498D01*
X115749665Y-122430267D01*
X115749000Y-122423513D01*
X115749000Y-122420899D01*
X115816502Y-122365502D01*
X115970833Y-122177449D01*
X116085511Y-121962901D01*
X116156130Y-121730102D01*
X116174000Y-121548665D01*
X116174000Y-120627336D01*
X116156130Y-120445899D01*
X116085511Y-120213099D01*
X115970833Y-119998551D01*
X115816502Y-119810498D01*
X115628449Y-119656167D01*
X115413901Y-119541489D01*
X115181102Y-119470870D01*
X114939000Y-119447025D01*
X114696899Y-119470870D01*
X114464100Y-119541489D01*
X114249552Y-119656167D01*
X114061499Y-119810498D01*
X113907168Y-119998551D01*
X113792489Y-120213099D01*
X113721870Y-120445898D01*
X113704000Y-120627335D01*
X113704000Y-121548664D01*
X113721870Y-121730101D01*
X113792489Y-121962900D01*
X113907167Y-122177448D01*
X114061498Y-122365502D01*
X114104216Y-122400559D01*
X114104188Y-122400844D01*
X114031499Y-122460498D01*
X113877168Y-122648551D01*
X113762489Y-122863099D01*
X113691870Y-123095898D01*
X113674000Y-123277335D01*
X113604000Y-123277335D01*
X113604000Y-123211000D01*
X113555493Y-122972504D01*
X113461390Y-122748054D01*
X113325307Y-122546275D01*
X113205881Y-122427872D01*
X113355307Y-122279725D01*
X113491390Y-122077946D01*
X113585493Y-121853496D01*
X113634000Y-121615000D01*
X113634000Y-121215000D01*
X112526000Y-121215000D01*
X112526000Y-122249638D01*
X112496000Y-122269269D01*
X112272000Y-122269269D01*
X112272000Y-121215000D01*
X111164000Y-121215000D01*
X111164000Y-121615000D01*
X111212507Y-121853496D01*
X111306610Y-122077946D01*
X111442693Y-122279725D01*
X111562119Y-122398128D01*
X111412693Y-122546275D01*
X111276610Y-122748054D01*
X111182507Y-122972504D01*
X111134000Y-123211000D01*
X111057467Y-123211000D01*
X111046130Y-123095899D01*
X110975511Y-122863099D01*
X110860833Y-122648551D01*
X110706502Y-122460498D01*
X110669665Y-122430267D01*
X110669000Y-122423513D01*
X110669000Y-122420899D01*
X110736502Y-122365502D01*
X110890833Y-122177449D01*
X111005511Y-121962901D01*
X111076130Y-121730102D01*
X111094000Y-121548665D01*
X111094000Y-120627336D01*
X111087467Y-120561000D01*
X111164000Y-120561000D01*
X111164000Y-120961000D01*
X112272000Y-120961000D01*
X112272000Y-119619269D01*
X112526000Y-119619269D01*
X112526000Y-120961000D01*
X113634000Y-120961000D01*
X113634000Y-120561000D01*
X113585493Y-120322504D01*
X113491390Y-120098054D01*
X113355307Y-119896275D01*
X113182474Y-119724922D01*
X112979533Y-119590579D01*
X112754282Y-119498409D01*
X112716609Y-119494538D01*
X112526000Y-119619269D01*
X112272000Y-119619269D01*
X112081391Y-119494538D01*
X112043718Y-119498409D01*
X111818467Y-119590579D01*
X111615526Y-119724922D01*
X111442693Y-119896275D01*
X111306610Y-120098054D01*
X111212507Y-120322504D01*
X111164000Y-120561000D01*
X111087467Y-120561000D01*
X111076130Y-120445899D01*
X111005511Y-120213099D01*
X110890833Y-119998551D01*
X110736502Y-119810498D01*
X110548449Y-119656167D01*
X110333901Y-119541489D01*
X110101102Y-119470870D01*
X109859000Y-119447025D01*
X109616899Y-119470870D01*
X109384100Y-119541489D01*
X109169552Y-119656167D01*
X108981499Y-119810498D01*
X108827168Y-119998551D01*
X108712489Y-120213099D01*
X108641870Y-120445898D01*
X108624000Y-120627335D01*
X108624000Y-121548664D01*
X108641870Y-121730101D01*
X108712489Y-121962900D01*
X108827167Y-122177448D01*
X108981498Y-122365502D01*
X109024216Y-122400559D01*
X109024188Y-122400844D01*
X108951499Y-122460498D01*
X108797168Y-122648551D01*
X108682489Y-122863099D01*
X108611870Y-123095898D01*
X108610000Y-123114884D01*
X108610000Y-114079872D01*
X110795000Y-114079872D01*
X110795000Y-114520128D01*
X110880890Y-114951925D01*
X111049369Y-115358669D01*
X111293962Y-115724729D01*
X111605271Y-116036038D01*
X111971331Y-116280631D01*
X112378075Y-116449110D01*
X112809872Y-116535000D01*
X113250128Y-116535000D01*
X113681925Y-116449110D01*
X114088669Y-116280631D01*
X114454729Y-116036038D01*
X114766038Y-115724729D01*
X115010631Y-115358669D01*
X115179110Y-114951925D01*
X115265000Y-114520128D01*
X115265000Y-114079872D01*
X115179110Y-113648075D01*
X115010631Y-113241331D01*
X114766038Y-112875271D01*
X114454729Y-112563962D01*
X114088669Y-112319369D01*
X113681925Y-112150890D01*
X113250128Y-112065000D01*
X112809872Y-112065000D01*
X112378075Y-112150890D01*
X111971331Y-112319369D01*
X111605271Y-112563962D01*
X111293962Y-112875271D01*
X111049369Y-113241331D01*
X110880890Y-113648075D01*
X110795000Y-114079872D01*
X108610000Y-114079872D01*
X108610000Y-103919872D01*
X148641000Y-103919872D01*
X148641000Y-104360128D01*
X148726890Y-104791925D01*
X148895369Y-105198669D01*
X149139962Y-105564729D01*
X149451271Y-105876038D01*
X149817331Y-106120631D01*
X150224075Y-106289110D01*
X150655872Y-106375000D01*
X151096128Y-106375000D01*
X151527925Y-106289110D01*
X151934669Y-106120631D01*
X152300729Y-105876038D01*
X152612038Y-105564729D01*
X152856631Y-105198669D01*
X153025110Y-104791925D01*
X153111000Y-104360128D01*
X153111000Y-103919872D01*
X153025110Y-103488075D01*
X152856631Y-103081331D01*
X152612038Y-102715271D01*
X152300729Y-102403962D01*
X151934669Y-102159369D01*
X151527925Y-101990890D01*
X151096128Y-101905000D01*
X150655872Y-101905000D01*
X150224075Y-101990890D01*
X149817331Y-102159369D01*
X149451271Y-102403962D01*
X149139962Y-102715271D01*
X148895369Y-103081331D01*
X148726890Y-103488075D01*
X148641000Y-103919872D01*
X108610000Y-103919872D01*
X108610000Y-96299872D01*
X110795000Y-96299872D01*
X110795000Y-96740128D01*
X110880890Y-97171925D01*
X111049369Y-97578669D01*
X111293962Y-97944729D01*
X111605271Y-98256038D01*
X111971331Y-98500631D01*
X112378075Y-98669110D01*
X112809872Y-98755000D01*
X113250128Y-98755000D01*
X113681925Y-98669110D01*
X114088669Y-98500631D01*
X114454729Y-98256038D01*
X114766038Y-97944729D01*
X115010631Y-97578669D01*
X115179110Y-97171925D01*
X115265000Y-96740128D01*
X115265000Y-96299872D01*
X115179110Y-95868075D01*
X115010631Y-95461331D01*
X114766038Y-95095271D01*
X114454729Y-94783962D01*
X114088669Y-94539369D01*
X113681925Y-94370890D01*
X113250128Y-94285000D01*
X112809872Y-94285000D01*
X112378075Y-94370890D01*
X111971331Y-94539369D01*
X111605271Y-94783962D01*
X111293962Y-95095271D01*
X111049369Y-95461331D01*
X110880890Y-95868075D01*
X110795000Y-96299872D01*
X108610000Y-96299872D01*
X108610000Y-89997335D01*
X121514000Y-89997335D01*
X121514000Y-90918664D01*
X121531870Y-91100101D01*
X121602489Y-91332900D01*
X121717167Y-91547448D01*
X121871498Y-91735502D01*
X122059551Y-91889833D01*
X122274099Y-92004511D01*
X122506898Y-92075130D01*
X122749000Y-92098975D01*
X122991101Y-92075130D01*
X123223900Y-92004511D01*
X123438448Y-91889833D01*
X123626502Y-91735502D01*
X123780833Y-91547449D01*
X123895511Y-91332901D01*
X123966130Y-91100102D01*
X123984000Y-90918665D01*
X123984000Y-89997336D01*
X123984000Y-89997335D01*
X124054000Y-89997335D01*
X124054000Y-90918664D01*
X124071870Y-91100101D01*
X124142489Y-91332900D01*
X124257167Y-91547448D01*
X124411498Y-91735502D01*
X124599551Y-91889833D01*
X124814099Y-92004511D01*
X125046898Y-92075130D01*
X125289000Y-92098975D01*
X125531101Y-92075130D01*
X125763900Y-92004511D01*
X125978448Y-91889833D01*
X126166502Y-91735502D01*
X126320833Y-91547449D01*
X126435511Y-91332901D01*
X126506130Y-91100102D01*
X126524000Y-90918665D01*
X126524000Y-89997336D01*
X126524000Y-89997335D01*
X126594000Y-89997335D01*
X126594000Y-90918664D01*
X126611870Y-91100101D01*
X126682489Y-91332900D01*
X126797167Y-91547448D01*
X126951498Y-91735502D01*
X127139551Y-91889833D01*
X127354099Y-92004511D01*
X127586898Y-92075130D01*
X127829000Y-92098975D01*
X128071101Y-92075130D01*
X128303900Y-92004511D01*
X128518448Y-91889833D01*
X128706502Y-91735502D01*
X128860833Y-91547449D01*
X128975511Y-91332901D01*
X129046130Y-91100102D01*
X129064000Y-90918665D01*
X129064000Y-89997336D01*
X129064000Y-89997335D01*
X129134000Y-89997335D01*
X129134000Y-90918664D01*
X129151870Y-91100101D01*
X129222489Y-91332900D01*
X129337167Y-91547448D01*
X129491498Y-91735502D01*
X129679551Y-91889833D01*
X129894099Y-92004511D01*
X130126898Y-92075130D01*
X130369000Y-92098975D01*
X130611101Y-92075130D01*
X130843900Y-92004511D01*
X131058448Y-91889833D01*
X131246502Y-91735502D01*
X131400833Y-91547449D01*
X131515511Y-91332901D01*
X131586130Y-91100102D01*
X131604000Y-90918665D01*
X131604000Y-89997336D01*
X131604000Y-89997335D01*
X131674000Y-89997335D01*
X131674000Y-90918664D01*
X131691870Y-91100101D01*
X131762489Y-91332900D01*
X131877167Y-91547448D01*
X132031498Y-91735502D01*
X132219551Y-91889833D01*
X132434099Y-92004511D01*
X132666898Y-92075130D01*
X132909000Y-92098975D01*
X133151101Y-92075130D01*
X133383900Y-92004511D01*
X133598448Y-91889833D01*
X133786502Y-91735502D01*
X133940833Y-91547449D01*
X134055511Y-91332901D01*
X134126130Y-91100102D01*
X134144000Y-90918665D01*
X134144000Y-89997336D01*
X134144000Y-89997335D01*
X134214000Y-89997335D01*
X134214000Y-90918664D01*
X134231870Y-91100101D01*
X134302489Y-91332900D01*
X134417167Y-91547448D01*
X134571498Y-91735502D01*
X134759551Y-91889833D01*
X134974099Y-92004511D01*
X135206898Y-92075130D01*
X135449000Y-92098975D01*
X135691101Y-92075130D01*
X135923900Y-92004511D01*
X136138448Y-91889833D01*
X136326502Y-91735502D01*
X136480833Y-91547449D01*
X136595511Y-91332901D01*
X136666130Y-91100102D01*
X136684000Y-90918665D01*
X136684000Y-89997336D01*
X136684000Y-89997335D01*
X136754000Y-89997335D01*
X136754000Y-90918664D01*
X136771870Y-91100101D01*
X136842489Y-91332900D01*
X136957167Y-91547448D01*
X137111498Y-91735502D01*
X137299551Y-91889833D01*
X137514099Y-92004511D01*
X137746898Y-92075130D01*
X137989000Y-92098975D01*
X138231101Y-92075130D01*
X138463900Y-92004511D01*
X138678448Y-91889833D01*
X138866502Y-91735502D01*
X139020833Y-91547449D01*
X139135511Y-91332901D01*
X139206130Y-91100102D01*
X139224000Y-90918665D01*
X139224000Y-89997336D01*
X139224000Y-89997335D01*
X139294000Y-89997335D01*
X139294000Y-90918664D01*
X139311870Y-91100101D01*
X139382489Y-91332900D01*
X139497167Y-91547448D01*
X139651498Y-91735502D01*
X139839551Y-91889833D01*
X140054099Y-92004511D01*
X140286898Y-92075130D01*
X140529000Y-92098975D01*
X140771101Y-92075130D01*
X141003900Y-92004511D01*
X141218448Y-91889833D01*
X141406502Y-91735502D01*
X141560833Y-91547449D01*
X141675511Y-91332901D01*
X141746130Y-91100102D01*
X141764000Y-90918665D01*
X141764000Y-89997336D01*
X141746130Y-89815899D01*
X141675511Y-89583099D01*
X141560833Y-89368551D01*
X141406502Y-89180498D01*
X141363625Y-89145310D01*
X141436502Y-89085502D01*
X141590833Y-88897449D01*
X141705511Y-88682901D01*
X141776130Y-88450102D01*
X141794000Y-88268665D01*
X141794000Y-87347336D01*
X141776130Y-87165899D01*
X141705511Y-86933099D01*
X141590833Y-86718551D01*
X141436502Y-86530498D01*
X141248449Y-86376167D01*
X141033901Y-86261489D01*
X140801102Y-86190870D01*
X140559000Y-86167025D01*
X140316899Y-86190870D01*
X140084100Y-86261489D01*
X139869552Y-86376167D01*
X139681499Y-86530498D01*
X139527168Y-86718551D01*
X139412489Y-86933099D01*
X139341870Y-87165898D01*
X139324000Y-87347335D01*
X139324000Y-88268664D01*
X139341870Y-88450101D01*
X139412489Y-88682900D01*
X139527167Y-88897448D01*
X139681498Y-89085502D01*
X139724375Y-89120690D01*
X139651499Y-89180498D01*
X139497168Y-89368551D01*
X139382489Y-89583099D01*
X139311870Y-89815898D01*
X139294000Y-89997335D01*
X139224000Y-89997335D01*
X139206130Y-89815899D01*
X139135511Y-89583099D01*
X139020833Y-89368551D01*
X138866502Y-89180498D01*
X138823625Y-89145310D01*
X138896502Y-89085502D01*
X139050833Y-88897449D01*
X139165511Y-88682901D01*
X139236130Y-88450102D01*
X139254000Y-88268665D01*
X139254000Y-87347336D01*
X139236130Y-87165899D01*
X139165511Y-86933099D01*
X139050833Y-86718551D01*
X138896502Y-86530498D01*
X138708449Y-86376167D01*
X138493901Y-86261489D01*
X138261102Y-86190870D01*
X138019000Y-86167025D01*
X137776899Y-86190870D01*
X137544100Y-86261489D01*
X137329552Y-86376167D01*
X137141499Y-86530498D01*
X136987168Y-86718551D01*
X136872489Y-86933099D01*
X136801870Y-87165898D01*
X136784000Y-87347335D01*
X136784000Y-88268664D01*
X136801870Y-88450101D01*
X136872489Y-88682900D01*
X136987167Y-88897448D01*
X137141498Y-89085502D01*
X137184375Y-89120690D01*
X137111499Y-89180498D01*
X136957168Y-89368551D01*
X136842489Y-89583099D01*
X136771870Y-89815898D01*
X136754000Y-89997335D01*
X136684000Y-89997335D01*
X136666130Y-89815899D01*
X136595511Y-89583099D01*
X136480833Y-89368551D01*
X136326502Y-89180498D01*
X136283625Y-89145310D01*
X136356502Y-89085502D01*
X136510833Y-88897449D01*
X136625511Y-88682901D01*
X136696130Y-88450102D01*
X136714000Y-88268665D01*
X136714000Y-87347336D01*
X136696130Y-87165899D01*
X136625511Y-86933099D01*
X136510833Y-86718551D01*
X136356502Y-86530498D01*
X136168449Y-86376167D01*
X135953901Y-86261489D01*
X135721102Y-86190870D01*
X135479000Y-86167025D01*
X135236899Y-86190870D01*
X135004100Y-86261489D01*
X134789552Y-86376167D01*
X134601499Y-86530498D01*
X134447168Y-86718551D01*
X134332489Y-86933099D01*
X134261870Y-87165898D01*
X134244000Y-87347335D01*
X134244000Y-88268664D01*
X134261870Y-88450101D01*
X134332489Y-88682900D01*
X134447167Y-88897448D01*
X134601498Y-89085502D01*
X134644375Y-89120690D01*
X134571499Y-89180498D01*
X134417168Y-89368551D01*
X134302489Y-89583099D01*
X134231870Y-89815898D01*
X134214000Y-89997335D01*
X134144000Y-89997335D01*
X134126130Y-89815899D01*
X134055511Y-89583099D01*
X133940833Y-89368551D01*
X133786502Y-89180498D01*
X133743625Y-89145310D01*
X133816502Y-89085502D01*
X133970833Y-88897449D01*
X134085511Y-88682901D01*
X134156130Y-88450102D01*
X134174000Y-88268665D01*
X134174000Y-87347336D01*
X134156130Y-87165899D01*
X134085511Y-86933099D01*
X133970833Y-86718551D01*
X133816502Y-86530498D01*
X133628449Y-86376167D01*
X133413901Y-86261489D01*
X133181102Y-86190870D01*
X132939000Y-86167025D01*
X132696899Y-86190870D01*
X132464100Y-86261489D01*
X132249552Y-86376167D01*
X132061499Y-86530498D01*
X131907168Y-86718551D01*
X131792489Y-86933099D01*
X131721870Y-87165898D01*
X131704000Y-87347335D01*
X131704000Y-88268664D01*
X131721870Y-88450101D01*
X131792489Y-88682900D01*
X131907167Y-88897448D01*
X132061498Y-89085502D01*
X132104375Y-89120690D01*
X132031499Y-89180498D01*
X131877168Y-89368551D01*
X131762489Y-89583099D01*
X131691870Y-89815898D01*
X131674000Y-89997335D01*
X131604000Y-89997335D01*
X131586130Y-89815899D01*
X131515511Y-89583099D01*
X131400833Y-89368551D01*
X131246502Y-89180498D01*
X131203625Y-89145310D01*
X131276502Y-89085502D01*
X131430833Y-88897449D01*
X131545511Y-88682901D01*
X131616130Y-88450102D01*
X131634000Y-88268665D01*
X131634000Y-87347336D01*
X131616130Y-87165899D01*
X131545511Y-86933099D01*
X131430833Y-86718551D01*
X131276502Y-86530498D01*
X131088449Y-86376167D01*
X130873901Y-86261489D01*
X130641102Y-86190870D01*
X130399000Y-86167025D01*
X130156899Y-86190870D01*
X129924100Y-86261489D01*
X129709552Y-86376167D01*
X129521499Y-86530498D01*
X129367168Y-86718551D01*
X129252489Y-86933099D01*
X129181870Y-87165898D01*
X129164000Y-87347335D01*
X129164000Y-88268664D01*
X129181870Y-88450101D01*
X129252489Y-88682900D01*
X129367167Y-88897448D01*
X129521498Y-89085502D01*
X129564375Y-89120690D01*
X129491499Y-89180498D01*
X129337168Y-89368551D01*
X129222489Y-89583099D01*
X129151870Y-89815898D01*
X129134000Y-89997335D01*
X129064000Y-89997335D01*
X129046130Y-89815899D01*
X128975511Y-89583099D01*
X128860833Y-89368551D01*
X128706502Y-89180498D01*
X128663625Y-89145310D01*
X128736502Y-89085502D01*
X128890833Y-88897449D01*
X129005511Y-88682901D01*
X129076130Y-88450102D01*
X129094000Y-88268665D01*
X129094000Y-87347336D01*
X129076130Y-87165899D01*
X129005511Y-86933099D01*
X128890833Y-86718551D01*
X128736502Y-86530498D01*
X128548449Y-86376167D01*
X128333901Y-86261489D01*
X128101102Y-86190870D01*
X127859000Y-86167025D01*
X127616899Y-86190870D01*
X127384100Y-86261489D01*
X127169552Y-86376167D01*
X126981499Y-86530498D01*
X126827168Y-86718551D01*
X126712489Y-86933099D01*
X126641870Y-87165898D01*
X126624000Y-87347335D01*
X126624000Y-88268664D01*
X126641870Y-88450101D01*
X126712489Y-88682900D01*
X126827167Y-88897448D01*
X126981498Y-89085502D01*
X127024375Y-89120690D01*
X126951499Y-89180498D01*
X126797168Y-89368551D01*
X126682489Y-89583099D01*
X126611870Y-89815898D01*
X126594000Y-89997335D01*
X126524000Y-89997335D01*
X126506130Y-89815899D01*
X126435511Y-89583099D01*
X126320833Y-89368551D01*
X126166502Y-89180498D01*
X126123625Y-89145310D01*
X126196502Y-89085502D01*
X126350833Y-88897449D01*
X126465511Y-88682901D01*
X126536130Y-88450102D01*
X126554000Y-88268665D01*
X126554000Y-87347336D01*
X126536130Y-87165899D01*
X126465511Y-86933099D01*
X126350833Y-86718551D01*
X126196502Y-86530498D01*
X126008449Y-86376167D01*
X125793901Y-86261489D01*
X125561102Y-86190870D01*
X125319000Y-86167025D01*
X125076899Y-86190870D01*
X124844100Y-86261489D01*
X124629552Y-86376167D01*
X124441499Y-86530498D01*
X124287168Y-86718551D01*
X124172489Y-86933099D01*
X124101870Y-87165898D01*
X124084000Y-87347335D01*
X124084000Y-88268664D01*
X124101870Y-88450101D01*
X124172489Y-88682900D01*
X124287167Y-88897448D01*
X124441498Y-89085502D01*
X124484375Y-89120690D01*
X124411499Y-89180498D01*
X124257168Y-89368551D01*
X124142489Y-89583099D01*
X124071870Y-89815898D01*
X124054000Y-89997335D01*
X123984000Y-89997335D01*
X123966130Y-89815899D01*
X123895511Y-89583099D01*
X123780833Y-89368551D01*
X123626502Y-89180498D01*
X123583625Y-89145310D01*
X123656502Y-89085502D01*
X123810833Y-88897449D01*
X123925511Y-88682901D01*
X123996130Y-88450102D01*
X124014000Y-88268665D01*
X124014000Y-87347336D01*
X123996130Y-87165899D01*
X123925511Y-86933099D01*
X123810833Y-86718551D01*
X123656502Y-86530498D01*
X123468449Y-86376167D01*
X123253901Y-86261489D01*
X123021102Y-86190870D01*
X122779000Y-86167025D01*
X122536899Y-86190870D01*
X122304100Y-86261489D01*
X122089552Y-86376167D01*
X121901499Y-86530498D01*
X121747168Y-86718551D01*
X121632489Y-86933099D01*
X121561870Y-87165898D01*
X121544000Y-87347335D01*
X121544000Y-88268664D01*
X121561870Y-88450101D01*
X121632489Y-88682900D01*
X121747167Y-88897448D01*
X121901498Y-89085502D01*
X121944375Y-89120690D01*
X121871499Y-89180498D01*
X121717168Y-89368551D01*
X121602489Y-89583099D01*
X121531870Y-89815898D01*
X121514000Y-89997335D01*
X108610000Y-89997335D01*
X108610000Y-79653109D01*
X123018519Y-79653109D01*
X123139186Y-79883000D01*
X124333000Y-79883000D01*
X124333000Y-78689845D01*
X124103110Y-78568524D01*
X123955901Y-78613175D01*
X123693080Y-78738359D01*
X123459731Y-78912412D01*
X123264822Y-79128645D01*
X123115843Y-79378748D01*
X123018519Y-79653109D01*
X108610000Y-79653109D01*
X108610000Y-76860000D01*
X172060001Y-76860000D01*
X172060001Y-85570488D01*
%TA.AperFunction,Conductor*%
D18*
G36*
X172060001Y-85570488D02*
G01*
X168494900Y-82005388D01*
X168469528Y-81974472D01*
X168346189Y-81873251D01*
X168205473Y-81798037D01*
X168052788Y-81751720D01*
X167933791Y-81740000D01*
X167933788Y-81740000D01*
X167894000Y-81736081D01*
X167854212Y-81740000D01*
X161508072Y-81740000D01*
X161508072Y-81700000D01*
X161495812Y-81575518D01*
X161459502Y-81455820D01*
X161400537Y-81345506D01*
X161321185Y-81248815D01*
X161224494Y-81169463D01*
X161114180Y-81110498D01*
X161041620Y-81088487D01*
X161173475Y-80956632D01*
X161335990Y-80713411D01*
X161447932Y-80443158D01*
X161505000Y-80156260D01*
X161505000Y-79863740D01*
X161447932Y-79576842D01*
X161335990Y-79306589D01*
X161173475Y-79063368D01*
X160966632Y-78856525D01*
X160723411Y-78694010D01*
X160453158Y-78582068D01*
X160166260Y-78525000D01*
X159873740Y-78525000D01*
X159586842Y-78582068D01*
X159316589Y-78694010D01*
X159073368Y-78856525D01*
X158866525Y-79063368D01*
X158750000Y-79237760D01*
X158633475Y-79063368D01*
X158426632Y-78856525D01*
X158183411Y-78694010D01*
X157913158Y-78582068D01*
X157626260Y-78525000D01*
X157333740Y-78525000D01*
X157046842Y-78582068D01*
X156776589Y-78694010D01*
X156533368Y-78856525D01*
X156326525Y-79063368D01*
X156210000Y-79237760D01*
X156093475Y-79063368D01*
X155886632Y-78856525D01*
X155643411Y-78694010D01*
X155373158Y-78582068D01*
X155086260Y-78525000D01*
X154793740Y-78525000D01*
X154506842Y-78582068D01*
X154236589Y-78694010D01*
X153993368Y-78856525D01*
X153786525Y-79063368D01*
X153670000Y-79237760D01*
X153553475Y-79063368D01*
X153346632Y-78856525D01*
X153103411Y-78694010D01*
X152833158Y-78582068D01*
X152546260Y-78525000D01*
X152253740Y-78525000D01*
X152092571Y-78557059D01*
X150714899Y-77179387D01*
X150689528Y-77148472D01*
X150566189Y-77047251D01*
X150425473Y-76972037D01*
X150272788Y-76925720D01*
X150153791Y-76914000D01*
X150153788Y-76914000D01*
X150114000Y-76910081D01*
X150074212Y-76914000D01*
X144184788Y-76914000D01*
X144145000Y-76910081D01*
X144105212Y-76914000D01*
X144105209Y-76914000D01*
X143986212Y-76925720D01*
X143833527Y-76972037D01*
X143692811Y-77047251D01*
X143569472Y-77148472D01*
X143544105Y-77179382D01*
X142920388Y-77803100D01*
X142889473Y-77828471D01*
X142819704Y-77913486D01*
X142788252Y-77951810D01*
X142748050Y-78027024D01*
X142713038Y-78092527D01*
X142666721Y-78245212D01*
X142655001Y-78364208D01*
X142651082Y-78403999D01*
X142655001Y-78443787D01*
X142655001Y-78578456D01*
X142386260Y-78525000D01*
X142093740Y-78525000D01*
X141806842Y-78582068D01*
X141536589Y-78694010D01*
X141293368Y-78856525D01*
X141086525Y-79063368D01*
X140970000Y-79237760D01*
X140853475Y-79063368D01*
X140646632Y-78856525D01*
X140403411Y-78694010D01*
X140133158Y-78582068D01*
X139846260Y-78525000D01*
X139553740Y-78525000D01*
X139266842Y-78582068D01*
X138996589Y-78694010D01*
X138753368Y-78856525D01*
X138546525Y-79063368D01*
X138430000Y-79237760D01*
X138313475Y-79063368D01*
X138106632Y-78856525D01*
X137863411Y-78694010D01*
X137593158Y-78582068D01*
X137306260Y-78525000D01*
X137013740Y-78525000D01*
X136726842Y-78582068D01*
X136456589Y-78694010D01*
X136213368Y-78856525D01*
X136006525Y-79063368D01*
X135890000Y-79237760D01*
X135773475Y-79063368D01*
X135566632Y-78856525D01*
X135323411Y-78694010D01*
X135053158Y-78582068D01*
X134766260Y-78525000D01*
X134473740Y-78525000D01*
X134186842Y-78582068D01*
X133916589Y-78694010D01*
X133673368Y-78856525D01*
X133466525Y-79063368D01*
X133350000Y-79237760D01*
X133233475Y-79063368D01*
X133026632Y-78856525D01*
X132783411Y-78694010D01*
X132513158Y-78582068D01*
X132226260Y-78525000D01*
X131933740Y-78525000D01*
X131646842Y-78582068D01*
X131376589Y-78694010D01*
X131133368Y-78856525D01*
X130926525Y-79063368D01*
X130810000Y-79237760D01*
X130693475Y-79063368D01*
X130486632Y-78856525D01*
X130243411Y-78694010D01*
X129973158Y-78582068D01*
X129686260Y-78525000D01*
X129393740Y-78525000D01*
X129106842Y-78582068D01*
X128836589Y-78694010D01*
X128593368Y-78856525D01*
X128386525Y-79063368D01*
X128270000Y-79237760D01*
X128153475Y-79063368D01*
X127946632Y-78856525D01*
X127703411Y-78694010D01*
X127433158Y-78582068D01*
X127146260Y-78525000D01*
X126853740Y-78525000D01*
X126566842Y-78582068D01*
X126296589Y-78694010D01*
X126053368Y-78856525D01*
X125846525Y-79063368D01*
X125724805Y-79245534D01*
X125655178Y-79128645D01*
X125460269Y-78912412D01*
X125226920Y-78738359D01*
X124964099Y-78613175D01*
X124816890Y-78568524D01*
X124587000Y-78689845D01*
X124587000Y-79883000D01*
X124607000Y-79883000D01*
X124607000Y-80137000D01*
X124587000Y-80137000D01*
X124587000Y-80157000D01*
X124333000Y-80157000D01*
X124333000Y-80137000D01*
X123139186Y-80137000D01*
X123018519Y-80366891D01*
X123115843Y-80641252D01*
X123264822Y-80891355D01*
X123459731Y-81107588D01*
X123689406Y-81278900D01*
X123513368Y-81396525D01*
X123306525Y-81603368D01*
X123144010Y-81846589D01*
X123032068Y-82116842D01*
X122975000Y-82403740D01*
X122975000Y-82696260D01*
X123032068Y-82983158D01*
X123144010Y-83253411D01*
X123306525Y-83496632D01*
X123513368Y-83703475D01*
X123756589Y-83865990D01*
X124026842Y-83977932D01*
X124313740Y-84035000D01*
X124606260Y-84035000D01*
X124893158Y-83977932D01*
X125163411Y-83865990D01*
X125406632Y-83703475D01*
X125613475Y-83496632D01*
X125730000Y-83322240D01*
X125846525Y-83496632D01*
X126053368Y-83703475D01*
X126296589Y-83865990D01*
X126566842Y-83977932D01*
X126853740Y-84035000D01*
X127146260Y-84035000D01*
X127433158Y-83977932D01*
X127703411Y-83865990D01*
X127946632Y-83703475D01*
X128153475Y-83496632D01*
X128270000Y-83322240D01*
X128386525Y-83496632D01*
X128593368Y-83703475D01*
X128836589Y-83865990D01*
X129106842Y-83977932D01*
X129393740Y-84035000D01*
X129686260Y-84035000D01*
X129973158Y-83977932D01*
X130243411Y-83865990D01*
X130486632Y-83703475D01*
X130693475Y-83496632D01*
X130810000Y-83322240D01*
X130926525Y-83496632D01*
X131133368Y-83703475D01*
X131376589Y-83865990D01*
X131646842Y-83977932D01*
X131933740Y-84035000D01*
X132226260Y-84035000D01*
X132513158Y-83977932D01*
X132783411Y-83865990D01*
X133026632Y-83703475D01*
X133233475Y-83496632D01*
X133350000Y-83322240D01*
X133466525Y-83496632D01*
X133673368Y-83703475D01*
X133916589Y-83865990D01*
X134186842Y-83977932D01*
X134473740Y-84035000D01*
X134766260Y-84035000D01*
X135053158Y-83977932D01*
X135323411Y-83865990D01*
X135566632Y-83703475D01*
X135773475Y-83496632D01*
X135890000Y-83322240D01*
X136006525Y-83496632D01*
X136213368Y-83703475D01*
X136456589Y-83865990D01*
X136726842Y-83977932D01*
X137013740Y-84035000D01*
X137306260Y-84035000D01*
X137593158Y-83977932D01*
X137863411Y-83865990D01*
X138106632Y-83703475D01*
X138313475Y-83496632D01*
X138430000Y-83322240D01*
X138546525Y-83496632D01*
X138753368Y-83703475D01*
X138996589Y-83865990D01*
X139266842Y-83977932D01*
X139553740Y-84035000D01*
X139846260Y-84035000D01*
X140133158Y-83977932D01*
X140403411Y-83865990D01*
X140646632Y-83703475D01*
X140853475Y-83496632D01*
X140970000Y-83322240D01*
X141086525Y-83496632D01*
X141293368Y-83703475D01*
X141536589Y-83865990D01*
X141806842Y-83977932D01*
X142093740Y-84035000D01*
X142386260Y-84035000D01*
X142655002Y-83981544D01*
X142655002Y-84751503D01*
X142651082Y-84791301D01*
X142655625Y-84837420D01*
X142666722Y-84950089D01*
X142700116Y-85060172D01*
X142713039Y-85102774D01*
X142788252Y-85243490D01*
X142811856Y-85272251D01*
X142889474Y-85366829D01*
X142920384Y-85392196D01*
X143753700Y-86225513D01*
X143753700Y-86357593D01*
X143573901Y-86261489D01*
X143341102Y-86190870D01*
X143099000Y-86167025D01*
X142856899Y-86190870D01*
X142624100Y-86261489D01*
X142409552Y-86376167D01*
X142221499Y-86530498D01*
X142067168Y-86718551D01*
X141952489Y-86933099D01*
X141881870Y-87165898D01*
X141864000Y-87347335D01*
X141864000Y-88268664D01*
X141881870Y-88450101D01*
X141952489Y-88682900D01*
X142067167Y-88897448D01*
X142221498Y-89085502D01*
X142264375Y-89120690D01*
X142191499Y-89180498D01*
X142037168Y-89368551D01*
X141922489Y-89583099D01*
X141851870Y-89815898D01*
X141834000Y-89997335D01*
X141834000Y-90918664D01*
X141851870Y-91100101D01*
X141922489Y-91332900D01*
X142037167Y-91547448D01*
X142191498Y-91735502D01*
X142379551Y-91889833D01*
X142594099Y-92004511D01*
X142826898Y-92075130D01*
X143069000Y-92098975D01*
X143311101Y-92075130D01*
X143465975Y-92028149D01*
X143470603Y-92075130D01*
X143473721Y-92106788D01*
X143482225Y-92134820D01*
X143520038Y-92259473D01*
X143595251Y-92400189D01*
X143649292Y-92466037D01*
X143696473Y-92523528D01*
X143727383Y-92548895D01*
X144941105Y-93762618D01*
X144966472Y-93793528D01*
X145034210Y-93849119D01*
X145089810Y-93894749D01*
X145139692Y-93921411D01*
X145230527Y-93969963D01*
X145383212Y-94016280D01*
X145502209Y-94028000D01*
X145502211Y-94028000D01*
X145541999Y-94031919D01*
X145581787Y-94028000D01*
X150836212Y-94028000D01*
X150876000Y-94031919D01*
X150915788Y-94028000D01*
X150915791Y-94028000D01*
X151034788Y-94016280D01*
X151187473Y-93969963D01*
X151328189Y-93894749D01*
X151451528Y-93793528D01*
X151476899Y-93762613D01*
X152533619Y-92705894D01*
X152564528Y-92680528D01*
X152665749Y-92557189D01*
X152706520Y-92480912D01*
X152740963Y-92416474D01*
X152751743Y-92380937D01*
X152787280Y-92263788D01*
X152799000Y-92144791D01*
X152799000Y-92144788D01*
X152802919Y-92105000D01*
X152799000Y-92065212D01*
X152799000Y-92018132D01*
X152986898Y-92075130D01*
X153229000Y-92098975D01*
X153471101Y-92075130D01*
X153703900Y-92004511D01*
X153918448Y-91889833D01*
X154106502Y-91735502D01*
X154260833Y-91547449D01*
X154375511Y-91332901D01*
X154446130Y-91100102D01*
X154464000Y-90918665D01*
X154464000Y-89997336D01*
X154446130Y-89815899D01*
X154375511Y-89583099D01*
X154260833Y-89368551D01*
X154106502Y-89180498D01*
X154063625Y-89145310D01*
X154136502Y-89085502D01*
X154290833Y-88897449D01*
X154405511Y-88682901D01*
X154476130Y-88450102D01*
X154494000Y-88268665D01*
X154494000Y-87347336D01*
X154476130Y-87165899D01*
X154405511Y-86933099D01*
X154290833Y-86718551D01*
X154136502Y-86530498D01*
X153948449Y-86376167D01*
X153733901Y-86261489D01*
X153630646Y-86230167D01*
X155484619Y-84376194D01*
X155515528Y-84350828D01*
X155578834Y-84273689D01*
X155616749Y-84227490D01*
X155691962Y-84086774D01*
X155691963Y-84086773D01*
X155738280Y-83934088D01*
X155745461Y-83861174D01*
X156119600Y-84235313D01*
X156119600Y-86214682D01*
X156041102Y-86190870D01*
X155799000Y-86167025D01*
X155556899Y-86190870D01*
X155324100Y-86261489D01*
X155109552Y-86376167D01*
X154921499Y-86530498D01*
X154767168Y-86718551D01*
X154652489Y-86933099D01*
X154581870Y-87165898D01*
X154564000Y-87347335D01*
X154564000Y-88268664D01*
X154581870Y-88450101D01*
X154652489Y-88682900D01*
X154767167Y-88897448D01*
X154921498Y-89085502D01*
X154964375Y-89120690D01*
X154891499Y-89180498D01*
X154737168Y-89368551D01*
X154622489Y-89583099D01*
X154551870Y-89815898D01*
X154534000Y-89997335D01*
X154534000Y-90918664D01*
X154551870Y-91100101D01*
X154622489Y-91332900D01*
X154737167Y-91547448D01*
X154891498Y-91735502D01*
X155079551Y-91889833D01*
X155294099Y-92004511D01*
X155526898Y-92075130D01*
X155769000Y-92098975D01*
X156011101Y-92075130D01*
X156243900Y-92004511D01*
X156442660Y-91898272D01*
X156594178Y-92049790D01*
X156503565Y-92058715D01*
X156270766Y-92129334D01*
X156056218Y-92244012D01*
X155868165Y-92398343D01*
X155713834Y-92586396D01*
X155599156Y-92800944D01*
X155528537Y-93033743D01*
X155504692Y-93275845D01*
X155528537Y-93517947D01*
X155599156Y-93750746D01*
X155713834Y-93965294D01*
X155868165Y-94153347D01*
X156056218Y-94307678D01*
X156270766Y-94422356D01*
X156503565Y-94492975D01*
X156685002Y-94510845D01*
X157606332Y-94510845D01*
X157787769Y-94492975D01*
X157813000Y-94485321D01*
X157813000Y-94606369D01*
X157787769Y-94598715D01*
X157606332Y-94580845D01*
X156685002Y-94580845D01*
X156503565Y-94598715D01*
X156270766Y-94669334D01*
X156056218Y-94784012D01*
X155868165Y-94938343D01*
X155713834Y-95126396D01*
X155599156Y-95340944D01*
X155528537Y-95573743D01*
X155504692Y-95815845D01*
X155528537Y-96057947D01*
X155599156Y-96290746D01*
X155713834Y-96505294D01*
X155868165Y-96693347D01*
X156056218Y-96847678D01*
X156270766Y-96962356D01*
X156503565Y-97032975D01*
X156685002Y-97050845D01*
X157606332Y-97050845D01*
X157787769Y-97032975D01*
X157813000Y-97025321D01*
X157813000Y-97146369D01*
X157787769Y-97138715D01*
X157606332Y-97120845D01*
X156685002Y-97120845D01*
X156503565Y-97138715D01*
X156270766Y-97209334D01*
X156056218Y-97324012D01*
X155868165Y-97478343D01*
X155713834Y-97666396D01*
X155599156Y-97880944D01*
X155528537Y-98113743D01*
X155504692Y-98355845D01*
X155528537Y-98597947D01*
X155599156Y-98830746D01*
X155713834Y-99045294D01*
X155868165Y-99233347D01*
X156056218Y-99387678D01*
X156270766Y-99502356D01*
X156503565Y-99572975D01*
X156685002Y-99590845D01*
X157606332Y-99590845D01*
X157787769Y-99572975D01*
X157813000Y-99565321D01*
X157813000Y-104766369D01*
X157787769Y-104758715D01*
X157606332Y-104740845D01*
X156685002Y-104740845D01*
X156503565Y-104758715D01*
X156270766Y-104829334D01*
X156056218Y-104944012D01*
X155868165Y-105098343D01*
X155713834Y-105286396D01*
X155599156Y-105500944D01*
X155528537Y-105733743D01*
X155504692Y-105975845D01*
X155528537Y-106217947D01*
X155599156Y-106450746D01*
X155713834Y-106665294D01*
X155868165Y-106853347D01*
X156056218Y-107007678D01*
X156270766Y-107122356D01*
X156503565Y-107192975D01*
X156685002Y-107210845D01*
X157606332Y-107210845D01*
X157787769Y-107192975D01*
X157813001Y-107185321D01*
X157813001Y-107645518D01*
X157643660Y-107555004D01*
X157448562Y-107495821D01*
X157296505Y-107480845D01*
X156994829Y-107480845D01*
X156842772Y-107495821D01*
X156647674Y-107555004D01*
X156467870Y-107651111D01*
X156310271Y-107780449D01*
X156180933Y-107938048D01*
X156084826Y-108117852D01*
X156025643Y-108312950D01*
X156005660Y-108515845D01*
X156025643Y-108718740D01*
X156084826Y-108913838D01*
X156180933Y-109093642D01*
X156310271Y-109251241D01*
X156467870Y-109380579D01*
X156647674Y-109476686D01*
X156842772Y-109535869D01*
X156994829Y-109550845D01*
X157296505Y-109550845D01*
X157448562Y-109535869D01*
X157643660Y-109476686D01*
X157813001Y-109386172D01*
X157813001Y-110185518D01*
X157643660Y-110095004D01*
X157448562Y-110035821D01*
X157296505Y-110020845D01*
X156994829Y-110020845D01*
X156842772Y-110035821D01*
X156647674Y-110095004D01*
X156467870Y-110191111D01*
X156310271Y-110320449D01*
X156180933Y-110478048D01*
X156084826Y-110657852D01*
X156025643Y-110852950D01*
X156005660Y-111055845D01*
X156025643Y-111258740D01*
X156084826Y-111453838D01*
X156180933Y-111633642D01*
X156310271Y-111791241D01*
X156467870Y-111920579D01*
X156647674Y-112016686D01*
X156842772Y-112075869D01*
X156994829Y-112090845D01*
X157296505Y-112090845D01*
X157448562Y-112075869D01*
X157643660Y-112016686D01*
X157813001Y-111926172D01*
X157813001Y-116991902D01*
X157809081Y-117031700D01*
X157813546Y-117077027D01*
X157824721Y-117190488D01*
X157853865Y-117286561D01*
X157871038Y-117343173D01*
X157946251Y-117483889D01*
X157998283Y-117547289D01*
X158047473Y-117607228D01*
X158078383Y-117632595D01*
X158409000Y-117963213D01*
X158409000Y-118857188D01*
X157498199Y-117946387D01*
X157472828Y-117915472D01*
X157349489Y-117814251D01*
X157208773Y-117739037D01*
X157056088Y-117692720D01*
X156937091Y-117681000D01*
X156937088Y-117681000D01*
X156897300Y-117677081D01*
X156857512Y-117681000D01*
X154643395Y-117681000D01*
X154681300Y-117490439D01*
X154681300Y-117286561D01*
X154641526Y-117086602D01*
X154563505Y-116898244D01*
X154450237Y-116728726D01*
X154306074Y-116584563D01*
X154136556Y-116471295D01*
X153948198Y-116393274D01*
X153748239Y-116353500D01*
X153544361Y-116353500D01*
X153344402Y-116393274D01*
X153156044Y-116471295D01*
X152986526Y-116584563D01*
X152842363Y-116728726D01*
X152750974Y-116865500D01*
X141921600Y-116865500D01*
X141761156Y-116758295D01*
X141572798Y-116680274D01*
X141372839Y-116640500D01*
X141168961Y-116640500D01*
X140969002Y-116680274D01*
X140780644Y-116758295D01*
X140611126Y-116871563D01*
X140466963Y-117015726D01*
X140353695Y-117185244D01*
X140275674Y-117373602D01*
X140235900Y-117573561D01*
X140235900Y-117681000D01*
X136109887Y-117681000D01*
X136070099Y-117677081D01*
X136030311Y-117681000D01*
X136030309Y-117681000D01*
X135911312Y-117692720D01*
X135758627Y-117739037D01*
X135693124Y-117774049D01*
X135617910Y-117814251D01*
X135562310Y-117859881D01*
X135494572Y-117915472D01*
X135469205Y-117946382D01*
X133600373Y-119815215D01*
X133596502Y-119810498D01*
X133408449Y-119656167D01*
X133193901Y-119541489D01*
X132961102Y-119470870D01*
X132719000Y-119447025D01*
X132476899Y-119470870D01*
X132244100Y-119541489D01*
X132029552Y-119656167D01*
X131841499Y-119810498D01*
X131687168Y-119998551D01*
X131572489Y-120213099D01*
X131501870Y-120445898D01*
X131484000Y-120627335D01*
X131484000Y-121548664D01*
X131501870Y-121730101D01*
X131572489Y-121962900D01*
X131687167Y-122177448D01*
X131841498Y-122365502D01*
X131884375Y-122400690D01*
X131811499Y-122460498D01*
X131657168Y-122648551D01*
X131542489Y-122863099D01*
X131471870Y-123095898D01*
X131454000Y-123277335D01*
X131454000Y-124198664D01*
X131471870Y-124380101D01*
X131542489Y-124612900D01*
X131657167Y-124827448D01*
X131811498Y-125015502D01*
X131999551Y-125169833D01*
X132214099Y-125284511D01*
X132446898Y-125355130D01*
X132689000Y-125378975D01*
X132931101Y-125355130D01*
X133149001Y-125289031D01*
X133149001Y-128386186D01*
X132551387Y-128983801D01*
X132520472Y-129009172D01*
X132454616Y-129089419D01*
X132419251Y-129132511D01*
X132397134Y-129173890D01*
X132344037Y-129273228D01*
X132297720Y-129425913D01*
X132286915Y-129535619D01*
X132283858Y-129566662D01*
X132149368Y-129656525D01*
X132017513Y-129788380D01*
X131995502Y-129715820D01*
X131936537Y-129605506D01*
X131857185Y-129508815D01*
X131760494Y-129429463D01*
X131650180Y-129370498D01*
X131530482Y-129334188D01*
X131406000Y-129321928D01*
X129706000Y-129321928D01*
X129581518Y-129334188D01*
X129461820Y-129370498D01*
X129351506Y-129429463D01*
X129254815Y-129508815D01*
X129175463Y-129605506D01*
X129116498Y-129715820D01*
X129080188Y-129835518D01*
X129067928Y-129960000D01*
X129067928Y-131660000D01*
X129080188Y-131784482D01*
X129116498Y-131904180D01*
X129175463Y-132014494D01*
X129254815Y-132111185D01*
X129351506Y-132190537D01*
X129461820Y-132249502D01*
X129534380Y-132271513D01*
X129402525Y-132403368D01*
X129240010Y-132646589D01*
X129128068Y-132916842D01*
X129071000Y-133203740D01*
X129071000Y-133496260D01*
X129128068Y-133783158D01*
X129240010Y-134053411D01*
X129402525Y-134296632D01*
X129609368Y-134503475D01*
X129852589Y-134665990D01*
X130122842Y-134777932D01*
X130409740Y-134835000D01*
X130702260Y-134835000D01*
X130989158Y-134777932D01*
X131259411Y-134665990D01*
X131502632Y-134503475D01*
X131709475Y-134296632D01*
X131826000Y-134122240D01*
X131942525Y-134296632D01*
X132149368Y-134503475D01*
X132392589Y-134665990D01*
X132662842Y-134777932D01*
X132949740Y-134835000D01*
X133242260Y-134835000D01*
X133403429Y-134802941D01*
X133830487Y-135230000D01*
X108610000Y-135230000D01*
X108610000Y-132563891D01*
X112477519Y-132563891D01*
X112574843Y-132838252D01*
X112723822Y-133088355D01*
X112918731Y-133304588D01*
X113152080Y-133478641D01*
X113414901Y-133603825D01*
X113562110Y-133648476D01*
X113792000Y-133527155D01*
X113792000Y-132334000D01*
X112598186Y-132334000D01*
X112477519Y-132563891D01*
X108610000Y-132563891D01*
X108610000Y-131850109D01*
X112477519Y-131850109D01*
X112598186Y-132080000D01*
X113792000Y-132080000D01*
X113792000Y-130886845D01*
X113562110Y-130765524D01*
X113414901Y-130810175D01*
X113152080Y-130935359D01*
X112918731Y-131109412D01*
X112723822Y-131325645D01*
X112574843Y-131575748D01*
X112477519Y-131850109D01*
X108610000Y-131850109D01*
X108610000Y-124361115D01*
X108611870Y-124380101D01*
X108682489Y-124612900D01*
X108797167Y-124827448D01*
X108951498Y-125015502D01*
X109139551Y-125169833D01*
X109354099Y-125284511D01*
X109586898Y-125355130D01*
X109697845Y-125366057D01*
X115448840Y-131117053D01*
X115305525Y-131260368D01*
X115183805Y-131442534D01*
X115114178Y-131325645D01*
X114919269Y-131109412D01*
X114685920Y-130935359D01*
X114423099Y-130810175D01*
X114275890Y-130765524D01*
X114046000Y-130886845D01*
X114046000Y-132080000D01*
X114066000Y-132080000D01*
X114066000Y-132334000D01*
X114046000Y-132334000D01*
X114046000Y-133527155D01*
X114275890Y-133648476D01*
X114423099Y-133603825D01*
X114685920Y-133478641D01*
X114919269Y-133304588D01*
X115114178Y-133088355D01*
X115183805Y-132971466D01*
X115305525Y-133153632D01*
X115512368Y-133360475D01*
X115755589Y-133522990D01*
X116025842Y-133634932D01*
X116312740Y-133692000D01*
X116605260Y-133692000D01*
X116892158Y-133634932D01*
X117162411Y-133522990D01*
X117405632Y-133360475D01*
X117612475Y-133153632D01*
X117734195Y-132971466D01*
X117803822Y-133088355D01*
X117998731Y-133304588D01*
X118232080Y-133478641D01*
X118494901Y-133603825D01*
X118642110Y-133648476D01*
X118872000Y-133527155D01*
X118872000Y-132334000D01*
X118852000Y-132334000D01*
X118852000Y-132080000D01*
X118872000Y-132080000D01*
X118872000Y-130886845D01*
X118642110Y-130765524D01*
X118494901Y-130810175D01*
X118232080Y-130935359D01*
X117998731Y-131109412D01*
X117803822Y-131325645D01*
X117734195Y-131442534D01*
X117612475Y-131260368D01*
X117405632Y-131053525D01*
X117271142Y-130963662D01*
X117265445Y-130905815D01*
X117257280Y-130822912D01*
X117210963Y-130670227D01*
X117175951Y-130604724D01*
X117135749Y-130529510D01*
X117059893Y-130437080D01*
X117034528Y-130406172D01*
X117003619Y-130380806D01*
X111906552Y-125283740D01*
X112013718Y-125327591D01*
X112051391Y-125331462D01*
X112242000Y-125206731D01*
X112242000Y-123865000D01*
X112496000Y-123865000D01*
X112496000Y-125206731D01*
X112686609Y-125331462D01*
X112724282Y-125327591D01*
X112949533Y-125235421D01*
X113152474Y-125101078D01*
X113325307Y-124929725D01*
X113461390Y-124727946D01*
X113555493Y-124503496D01*
X113604000Y-124265000D01*
X113604000Y-123865000D01*
X112496000Y-123865000D01*
X112242000Y-123865000D01*
X111134000Y-123865000D01*
X111134000Y-124265000D01*
X111182507Y-124503496D01*
X111223079Y-124600267D01*
X111036072Y-124413260D01*
X111046130Y-124380102D01*
X111064000Y-124198665D01*
X111064000Y-123277336D01*
X111057467Y-123211000D01*
X111134000Y-123211000D01*
X111134000Y-123611000D01*
X112242000Y-123611000D01*
X112242000Y-122576362D01*
X112272000Y-122556731D01*
X112272000Y-122269269D01*
X112496000Y-122269269D01*
X112496000Y-123611000D01*
X113604000Y-123611000D01*
X113604000Y-123277335D01*
X113674000Y-123277335D01*
X113674000Y-124198664D01*
X113691870Y-124380101D01*
X113762489Y-124612900D01*
X113877167Y-124827448D01*
X114031498Y-125015502D01*
X114219551Y-125169833D01*
X114434099Y-125284511D01*
X114666898Y-125355130D01*
X114777845Y-125366057D01*
X120281638Y-130869851D01*
X120237815Y-130905815D01*
X120158463Y-131002506D01*
X120099498Y-131112820D01*
X120075034Y-131193466D01*
X119999269Y-131109412D01*
X119765920Y-130935359D01*
X119503099Y-130810175D01*
X119355890Y-130765524D01*
X119126000Y-130886845D01*
X119126000Y-132080000D01*
X119146000Y-132080000D01*
X119146000Y-132334000D01*
X119126000Y-132334000D01*
X119126000Y-133527155D01*
X119355890Y-133648476D01*
X119503099Y-133603825D01*
X119765920Y-133478641D01*
X119999269Y-133304588D01*
X120075034Y-133220534D01*
X120099498Y-133301180D01*
X120158463Y-133411494D01*
X120237815Y-133508185D01*
X120334506Y-133587537D01*
X120444820Y-133646502D01*
X120564518Y-133682812D01*
X120689000Y-133695072D01*
X122389000Y-133695072D01*
X122513482Y-133682812D01*
X122633180Y-133646502D01*
X122743494Y-133587537D01*
X122840185Y-133508185D01*
X122919537Y-133411494D01*
X122978502Y-133301180D01*
X123014812Y-133181482D01*
X123027072Y-133057000D01*
X123027072Y-131357000D01*
X123014812Y-131232518D01*
X122978502Y-131112820D01*
X122919537Y-131002506D01*
X122840185Y-130905815D01*
X122743494Y-130826463D01*
X122633180Y-130767498D01*
X122513482Y-130731188D01*
X122389000Y-130718928D01*
X122305736Y-130718928D01*
X122290963Y-130670227D01*
X122255951Y-130604724D01*
X122215749Y-130529510D01*
X122139893Y-130437080D01*
X122114528Y-130406172D01*
X122083619Y-130380806D01*
X116993082Y-125290269D01*
X117206898Y-125355130D01*
X117449000Y-125378975D01*
X117691101Y-125355130D01*
X117923900Y-125284511D01*
X118138448Y-125169833D01*
X118326502Y-125015502D01*
X118480833Y-124827449D01*
X118595511Y-124612901D01*
X118666130Y-124380102D01*
X118684000Y-124198665D01*
X118684000Y-123277336D01*
X118684000Y-123277335D01*
X118754000Y-123277335D01*
X118754000Y-124198664D01*
X118771870Y-124380101D01*
X118842489Y-124612900D01*
X118957167Y-124827448D01*
X119111498Y-125015502D01*
X119299551Y-125169833D01*
X119514099Y-125284511D01*
X119746898Y-125355130D01*
X119989000Y-125378975D01*
X120231101Y-125355130D01*
X120463900Y-125284511D01*
X120678448Y-125169833D01*
X120866502Y-125015502D01*
X121020833Y-124827449D01*
X121135511Y-124612901D01*
X121206130Y-124380102D01*
X121224000Y-124198665D01*
X121224000Y-123277336D01*
X121224000Y-123277335D01*
X121294000Y-123277335D01*
X121294000Y-124198664D01*
X121311870Y-124380101D01*
X121382489Y-124612900D01*
X121497167Y-124827448D01*
X121651498Y-125015502D01*
X121839551Y-125169833D01*
X122054099Y-125284511D01*
X122286898Y-125355130D01*
X122529000Y-125378975D01*
X122771101Y-125355130D01*
X123003900Y-125284511D01*
X123218448Y-125169833D01*
X123406502Y-125015502D01*
X123560833Y-124827449D01*
X123675511Y-124612901D01*
X123746130Y-124380102D01*
X123764000Y-124198665D01*
X123764000Y-123277336D01*
X123764000Y-123277335D01*
X123834000Y-123277335D01*
X123834000Y-124198664D01*
X123851870Y-124380101D01*
X123922489Y-124612900D01*
X124037167Y-124827448D01*
X124191498Y-125015502D01*
X124379551Y-125169833D01*
X124594099Y-125284511D01*
X124826898Y-125355130D01*
X125069000Y-125378975D01*
X125311101Y-125355130D01*
X125543900Y-125284511D01*
X125758448Y-125169833D01*
X125946502Y-125015502D01*
X126100833Y-124827449D01*
X126215511Y-124612901D01*
X126286130Y-124380102D01*
X126304000Y-124198665D01*
X126304000Y-123277336D01*
X126304000Y-123277335D01*
X126374000Y-123277335D01*
X126374000Y-124198664D01*
X126391870Y-124380101D01*
X126462489Y-124612900D01*
X126577167Y-124827448D01*
X126731498Y-125015502D01*
X126919551Y-125169833D01*
X127134099Y-125284511D01*
X127366898Y-125355130D01*
X127609000Y-125378975D01*
X127851101Y-125355130D01*
X128083900Y-125284511D01*
X128298448Y-125169833D01*
X128486502Y-125015502D01*
X128640833Y-124827449D01*
X128755511Y-124612901D01*
X128826130Y-124380102D01*
X128844000Y-124198665D01*
X128844000Y-123277336D01*
X128844000Y-123277335D01*
X128914000Y-123277335D01*
X128914000Y-124198664D01*
X128931870Y-124380101D01*
X129002489Y-124612900D01*
X129117167Y-124827448D01*
X129271498Y-125015502D01*
X129459551Y-125169833D01*
X129674099Y-125284511D01*
X129906898Y-125355130D01*
X130149000Y-125378975D01*
X130391101Y-125355130D01*
X130623900Y-125284511D01*
X130838448Y-125169833D01*
X131026502Y-125015502D01*
X131180833Y-124827449D01*
X131295511Y-124612901D01*
X131366130Y-124380102D01*
X131384000Y-124198665D01*
X131384000Y-123277336D01*
X131366130Y-123095899D01*
X131295511Y-122863099D01*
X131180833Y-122648551D01*
X131026502Y-122460498D01*
X130983625Y-122425310D01*
X131056502Y-122365502D01*
X131210833Y-122177449D01*
X131325511Y-121962901D01*
X131396130Y-121730102D01*
X131414000Y-121548665D01*
X131414000Y-120627336D01*
X131396130Y-120445899D01*
X131325511Y-120213099D01*
X131210833Y-119998551D01*
X131056502Y-119810498D01*
X130868449Y-119656167D01*
X130653901Y-119541489D01*
X130421102Y-119470870D01*
X130179000Y-119447025D01*
X129936899Y-119470870D01*
X129704100Y-119541489D01*
X129489552Y-119656167D01*
X129301499Y-119810498D01*
X129147168Y-119998551D01*
X129032489Y-120213099D01*
X128961870Y-120445898D01*
X128944000Y-120627335D01*
X128944000Y-121548664D01*
X128961870Y-121730101D01*
X129032489Y-121962900D01*
X129147167Y-122177448D01*
X129301498Y-122365502D01*
X129344375Y-122400690D01*
X129271499Y-122460498D01*
X129117168Y-122648551D01*
X129002489Y-122863099D01*
X128931870Y-123095898D01*
X128914000Y-123277335D01*
X128844000Y-123277335D01*
X128826130Y-123095899D01*
X128755511Y-122863099D01*
X128640833Y-122648551D01*
X128486502Y-122460498D01*
X128443625Y-122425310D01*
X128516502Y-122365502D01*
X128670833Y-122177449D01*
X128785511Y-121962901D01*
X128856130Y-121730102D01*
X128874000Y-121548665D01*
X128874000Y-120627336D01*
X128856130Y-120445899D01*
X128785511Y-120213099D01*
X128670833Y-119998551D01*
X128516502Y-119810498D01*
X128328449Y-119656167D01*
X128113901Y-119541489D01*
X127881102Y-119470870D01*
X127639000Y-119447025D01*
X127396899Y-119470870D01*
X127164100Y-119541489D01*
X126949552Y-119656167D01*
X126761499Y-119810498D01*
X126607168Y-119998551D01*
X126492489Y-120213099D01*
X126421870Y-120445898D01*
X126404000Y-120627335D01*
X126404000Y-121548664D01*
X126421870Y-121730101D01*
X126492489Y-121962900D01*
X126607167Y-122177448D01*
X126761498Y-122365502D01*
X126804375Y-122400690D01*
X126731499Y-122460498D01*
X126577168Y-122648551D01*
X126462489Y-122863099D01*
X126391870Y-123095898D01*
X126374000Y-123277335D01*
X126304000Y-123277335D01*
X126286130Y-123095899D01*
X126215511Y-122863099D01*
X126100833Y-122648551D01*
X125946502Y-122460498D01*
X125903625Y-122425310D01*
X125976502Y-122365502D01*
X126130833Y-122177449D01*
X126245511Y-121962901D01*
X126316130Y-121730102D01*
X126334000Y-121548665D01*
X126334000Y-120627336D01*
X126316130Y-120445899D01*
X126245511Y-120213099D01*
X126130833Y-119998551D01*
X125976502Y-119810498D01*
X125788449Y-119656167D01*
X125573901Y-119541489D01*
X125341102Y-119470870D01*
X125099000Y-119447025D01*
X124856899Y-119470870D01*
X124624100Y-119541489D01*
X124409552Y-119656167D01*
X124221499Y-119810498D01*
X124067168Y-119998551D01*
X123952489Y-120213099D01*
X123881870Y-120445898D01*
X123864000Y-120627335D01*
X123864000Y-121548664D01*
X123881870Y-121730101D01*
X123952489Y-121962900D01*
X124067167Y-122177448D01*
X124221498Y-122365502D01*
X124264375Y-122400690D01*
X124191499Y-122460498D01*
X124037168Y-122648551D01*
X123922489Y-122863099D01*
X123851870Y-123095898D01*
X123834000Y-123277335D01*
X123764000Y-123277335D01*
X123746130Y-123095899D01*
X123675511Y-122863099D01*
X123560833Y-122648551D01*
X123406502Y-122460498D01*
X123363625Y-122425310D01*
X123436502Y-122365502D01*
X123590833Y-122177449D01*
X123705511Y-121962901D01*
X123776130Y-121730102D01*
X123794000Y-121548665D01*
X123794000Y-120627336D01*
X123776130Y-120445899D01*
X123705511Y-120213099D01*
X123590833Y-119998551D01*
X123436502Y-119810498D01*
X123248449Y-119656167D01*
X123033901Y-119541489D01*
X122801102Y-119470870D01*
X122559000Y-119447025D01*
X122316899Y-119470870D01*
X122084100Y-119541489D01*
X121869552Y-119656167D01*
X121681499Y-119810498D01*
X121527168Y-119998551D01*
X121412489Y-120213099D01*
X121341870Y-120445898D01*
X121324000Y-120627335D01*
X121324000Y-121548664D01*
X121341870Y-121730101D01*
X121412489Y-121962900D01*
X121527167Y-122177448D01*
X121681498Y-122365502D01*
X121724375Y-122400690D01*
X121651499Y-122460498D01*
X121497168Y-122648551D01*
X121382489Y-122863099D01*
X121311870Y-123095898D01*
X121294000Y-123277335D01*
X121224000Y-123277335D01*
X121206130Y-123095899D01*
X121135511Y-122863099D01*
X121020833Y-122648551D01*
X120866502Y-122460498D01*
X120823625Y-122425310D01*
X120896502Y-122365502D01*
X121050833Y-122177449D01*
X121165511Y-121962901D01*
X121236130Y-121730102D01*
X121254000Y-121548665D01*
X121254000Y-120627336D01*
X121236130Y-120445899D01*
X121165511Y-120213099D01*
X121050833Y-119998551D01*
X120896502Y-119810498D01*
X120708449Y-119656167D01*
X120493901Y-119541489D01*
X120261102Y-119470870D01*
X120019000Y-119447025D01*
X119776899Y-119470870D01*
X119544100Y-119541489D01*
X119329552Y-119656167D01*
X119141499Y-119810498D01*
X118987168Y-119998551D01*
X118872489Y-120213099D01*
X118801870Y-120445898D01*
X118784000Y-120627335D01*
X118784000Y-121548664D01*
X118801870Y-121730101D01*
X118872489Y-121962900D01*
X118987167Y-122177448D01*
X119141498Y-122365502D01*
X119184375Y-122400690D01*
X119111499Y-122460498D01*
X118957168Y-122648551D01*
X118842489Y-122863099D01*
X118771870Y-123095898D01*
X118754000Y-123277335D01*
X118684000Y-123277335D01*
X118666130Y-123095899D01*
X118595511Y-122863099D01*
X118480833Y-122648551D01*
X118326502Y-122460498D01*
X118283625Y-122425310D01*
X118356502Y-122365502D01*
X118510833Y-122177449D01*
X118625511Y-121962901D01*
X118696130Y-121730102D01*
X118714000Y-121548665D01*
X118714000Y-120627336D01*
X118696130Y-120445899D01*
X118625511Y-120213099D01*
X118510833Y-119998551D01*
X118356502Y-119810498D01*
X118168449Y-119656167D01*
X117953901Y-119541489D01*
X117721102Y-119470870D01*
X117479000Y-119447025D01*
X117236899Y-119470870D01*
X117004100Y-119541489D01*
X116789552Y-119656167D01*
X116601499Y-119810498D01*
X116447168Y-119998551D01*
X116332489Y-120213099D01*
X116261870Y-120445898D01*
X116244000Y-120627335D01*
X116244000Y-121548664D01*
X116261870Y-121730101D01*
X116332489Y-121962900D01*
X116447167Y-122177448D01*
X116601498Y-122365502D01*
X116644375Y-122400690D01*
X116571499Y-122460498D01*
X116417168Y-122648551D01*
X116302489Y-122863099D01*
X116231870Y-123095898D01*
X116214000Y-123277335D01*
X116214000Y-124198664D01*
X116231870Y-124380101D01*
X116296731Y-124593919D01*
X116116072Y-124413260D01*
X116126130Y-124380102D01*
X116144000Y-124198665D01*
X116144000Y-123277336D01*
X116126130Y-123095899D01*
X116055511Y-122863099D01*
X115940833Y-122648551D01*
X115786502Y-122460498D01*
X115749665Y-122430267D01*
X115749000Y-122423513D01*
X115749000Y-122420899D01*
X115816502Y-122365502D01*
X115970833Y-122177449D01*
X116085511Y-121962901D01*
X116156130Y-121730102D01*
X116174000Y-121548665D01*
X116174000Y-120627336D01*
X116156130Y-120445899D01*
X116085511Y-120213099D01*
X115970833Y-119998551D01*
X115816502Y-119810498D01*
X115628449Y-119656167D01*
X115413901Y-119541489D01*
X115181102Y-119470870D01*
X114939000Y-119447025D01*
X114696899Y-119470870D01*
X114464100Y-119541489D01*
X114249552Y-119656167D01*
X114061499Y-119810498D01*
X113907168Y-119998551D01*
X113792489Y-120213099D01*
X113721870Y-120445898D01*
X113704000Y-120627335D01*
X113704000Y-121548664D01*
X113721870Y-121730101D01*
X113792489Y-121962900D01*
X113907167Y-122177448D01*
X114061498Y-122365502D01*
X114104216Y-122400559D01*
X114104188Y-122400844D01*
X114031499Y-122460498D01*
X113877168Y-122648551D01*
X113762489Y-122863099D01*
X113691870Y-123095898D01*
X113674000Y-123277335D01*
X113604000Y-123277335D01*
X113604000Y-123211000D01*
X113555493Y-122972504D01*
X113461390Y-122748054D01*
X113325307Y-122546275D01*
X113205881Y-122427872D01*
X113355307Y-122279725D01*
X113491390Y-122077946D01*
X113585493Y-121853496D01*
X113634000Y-121615000D01*
X113634000Y-121215000D01*
X112526000Y-121215000D01*
X112526000Y-122249638D01*
X112496000Y-122269269D01*
X112272000Y-122269269D01*
X112272000Y-121215000D01*
X111164000Y-121215000D01*
X111164000Y-121615000D01*
X111212507Y-121853496D01*
X111306610Y-122077946D01*
X111442693Y-122279725D01*
X111562119Y-122398128D01*
X111412693Y-122546275D01*
X111276610Y-122748054D01*
X111182507Y-122972504D01*
X111134000Y-123211000D01*
X111057467Y-123211000D01*
X111046130Y-123095899D01*
X110975511Y-122863099D01*
X110860833Y-122648551D01*
X110706502Y-122460498D01*
X110669665Y-122430267D01*
X110669000Y-122423513D01*
X110669000Y-122420899D01*
X110736502Y-122365502D01*
X110890833Y-122177449D01*
X111005511Y-121962901D01*
X111076130Y-121730102D01*
X111094000Y-121548665D01*
X111094000Y-120627336D01*
X111087467Y-120561000D01*
X111164000Y-120561000D01*
X111164000Y-120961000D01*
X112272000Y-120961000D01*
X112272000Y-119619269D01*
X112526000Y-119619269D01*
X112526000Y-120961000D01*
X113634000Y-120961000D01*
X113634000Y-120561000D01*
X113585493Y-120322504D01*
X113491390Y-120098054D01*
X113355307Y-119896275D01*
X113182474Y-119724922D01*
X112979533Y-119590579D01*
X112754282Y-119498409D01*
X112716609Y-119494538D01*
X112526000Y-119619269D01*
X112272000Y-119619269D01*
X112081391Y-119494538D01*
X112043718Y-119498409D01*
X111818467Y-119590579D01*
X111615526Y-119724922D01*
X111442693Y-119896275D01*
X111306610Y-120098054D01*
X111212507Y-120322504D01*
X111164000Y-120561000D01*
X111087467Y-120561000D01*
X111076130Y-120445899D01*
X111005511Y-120213099D01*
X110890833Y-119998551D01*
X110736502Y-119810498D01*
X110548449Y-119656167D01*
X110333901Y-119541489D01*
X110101102Y-119470870D01*
X109859000Y-119447025D01*
X109616899Y-119470870D01*
X109384100Y-119541489D01*
X109169552Y-119656167D01*
X108981499Y-119810498D01*
X108827168Y-119998551D01*
X108712489Y-120213099D01*
X108641870Y-120445898D01*
X108624000Y-120627335D01*
X108624000Y-121548664D01*
X108641870Y-121730101D01*
X108712489Y-121962900D01*
X108827167Y-122177448D01*
X108981498Y-122365502D01*
X109024216Y-122400559D01*
X109024188Y-122400844D01*
X108951499Y-122460498D01*
X108797168Y-122648551D01*
X108682489Y-122863099D01*
X108611870Y-123095898D01*
X108610000Y-123114884D01*
X108610000Y-114079872D01*
X110795000Y-114079872D01*
X110795000Y-114520128D01*
X110880890Y-114951925D01*
X111049369Y-115358669D01*
X111293962Y-115724729D01*
X111605271Y-116036038D01*
X111971331Y-116280631D01*
X112378075Y-116449110D01*
X112809872Y-116535000D01*
X113250128Y-116535000D01*
X113681925Y-116449110D01*
X114088669Y-116280631D01*
X114454729Y-116036038D01*
X114766038Y-115724729D01*
X115010631Y-115358669D01*
X115179110Y-114951925D01*
X115265000Y-114520128D01*
X115265000Y-114079872D01*
X115179110Y-113648075D01*
X115010631Y-113241331D01*
X114766038Y-112875271D01*
X114454729Y-112563962D01*
X114088669Y-112319369D01*
X113681925Y-112150890D01*
X113250128Y-112065000D01*
X112809872Y-112065000D01*
X112378075Y-112150890D01*
X111971331Y-112319369D01*
X111605271Y-112563962D01*
X111293962Y-112875271D01*
X111049369Y-113241331D01*
X110880890Y-113648075D01*
X110795000Y-114079872D01*
X108610000Y-114079872D01*
X108610000Y-103919872D01*
X148641000Y-103919872D01*
X148641000Y-104360128D01*
X148726890Y-104791925D01*
X148895369Y-105198669D01*
X149139962Y-105564729D01*
X149451271Y-105876038D01*
X149817331Y-106120631D01*
X150224075Y-106289110D01*
X150655872Y-106375000D01*
X151096128Y-106375000D01*
X151527925Y-106289110D01*
X151934669Y-106120631D01*
X152300729Y-105876038D01*
X152612038Y-105564729D01*
X152856631Y-105198669D01*
X153025110Y-104791925D01*
X153111000Y-104360128D01*
X153111000Y-103919872D01*
X153025110Y-103488075D01*
X152856631Y-103081331D01*
X152612038Y-102715271D01*
X152300729Y-102403962D01*
X151934669Y-102159369D01*
X151527925Y-101990890D01*
X151096128Y-101905000D01*
X150655872Y-101905000D01*
X150224075Y-101990890D01*
X149817331Y-102159369D01*
X149451271Y-102403962D01*
X149139962Y-102715271D01*
X148895369Y-103081331D01*
X148726890Y-103488075D01*
X148641000Y-103919872D01*
X108610000Y-103919872D01*
X108610000Y-96299872D01*
X110795000Y-96299872D01*
X110795000Y-96740128D01*
X110880890Y-97171925D01*
X111049369Y-97578669D01*
X111293962Y-97944729D01*
X111605271Y-98256038D01*
X111971331Y-98500631D01*
X112378075Y-98669110D01*
X112809872Y-98755000D01*
X113250128Y-98755000D01*
X113681925Y-98669110D01*
X114088669Y-98500631D01*
X114454729Y-98256038D01*
X114766038Y-97944729D01*
X115010631Y-97578669D01*
X115179110Y-97171925D01*
X115265000Y-96740128D01*
X115265000Y-96299872D01*
X115179110Y-95868075D01*
X115010631Y-95461331D01*
X114766038Y-95095271D01*
X114454729Y-94783962D01*
X114088669Y-94539369D01*
X113681925Y-94370890D01*
X113250128Y-94285000D01*
X112809872Y-94285000D01*
X112378075Y-94370890D01*
X111971331Y-94539369D01*
X111605271Y-94783962D01*
X111293962Y-95095271D01*
X111049369Y-95461331D01*
X110880890Y-95868075D01*
X110795000Y-96299872D01*
X108610000Y-96299872D01*
X108610000Y-89997335D01*
X121514000Y-89997335D01*
X121514000Y-90918664D01*
X121531870Y-91100101D01*
X121602489Y-91332900D01*
X121717167Y-91547448D01*
X121871498Y-91735502D01*
X122059551Y-91889833D01*
X122274099Y-92004511D01*
X122506898Y-92075130D01*
X122749000Y-92098975D01*
X122991101Y-92075130D01*
X123223900Y-92004511D01*
X123438448Y-91889833D01*
X123626502Y-91735502D01*
X123780833Y-91547449D01*
X123895511Y-91332901D01*
X123966130Y-91100102D01*
X123984000Y-90918665D01*
X123984000Y-89997336D01*
X123984000Y-89997335D01*
X124054000Y-89997335D01*
X124054000Y-90918664D01*
X124071870Y-91100101D01*
X124142489Y-91332900D01*
X124257167Y-91547448D01*
X124411498Y-91735502D01*
X124599551Y-91889833D01*
X124814099Y-92004511D01*
X125046898Y-92075130D01*
X125289000Y-92098975D01*
X125531101Y-92075130D01*
X125763900Y-92004511D01*
X125978448Y-91889833D01*
X126166502Y-91735502D01*
X126320833Y-91547449D01*
X126435511Y-91332901D01*
X126506130Y-91100102D01*
X126524000Y-90918665D01*
X126524000Y-89997336D01*
X126524000Y-89997335D01*
X126594000Y-89997335D01*
X126594000Y-90918664D01*
X126611870Y-91100101D01*
X126682489Y-91332900D01*
X126797167Y-91547448D01*
X126951498Y-91735502D01*
X127139551Y-91889833D01*
X127354099Y-92004511D01*
X127586898Y-92075130D01*
X127829000Y-92098975D01*
X128071101Y-92075130D01*
X128303900Y-92004511D01*
X128518448Y-91889833D01*
X128706502Y-91735502D01*
X128860833Y-91547449D01*
X128975511Y-91332901D01*
X129046130Y-91100102D01*
X129064000Y-90918665D01*
X129064000Y-89997336D01*
X129064000Y-89997335D01*
X129134000Y-89997335D01*
X129134000Y-90918664D01*
X129151870Y-91100101D01*
X129222489Y-91332900D01*
X129337167Y-91547448D01*
X129491498Y-91735502D01*
X129679551Y-91889833D01*
X129894099Y-92004511D01*
X130126898Y-92075130D01*
X130369000Y-92098975D01*
X130611101Y-92075130D01*
X130843900Y-92004511D01*
X131058448Y-91889833D01*
X131246502Y-91735502D01*
X131400833Y-91547449D01*
X131515511Y-91332901D01*
X131586130Y-91100102D01*
X131604000Y-90918665D01*
X131604000Y-89997336D01*
X131604000Y-89997335D01*
X131674000Y-89997335D01*
X131674000Y-90918664D01*
X131691870Y-91100101D01*
X131762489Y-91332900D01*
X131877167Y-91547448D01*
X132031498Y-91735502D01*
X132219551Y-91889833D01*
X132434099Y-92004511D01*
X132666898Y-92075130D01*
X132909000Y-92098975D01*
X133151101Y-92075130D01*
X133383900Y-92004511D01*
X133598448Y-91889833D01*
X133786502Y-91735502D01*
X133940833Y-91547449D01*
X134055511Y-91332901D01*
X134126130Y-91100102D01*
X134144000Y-90918665D01*
X134144000Y-89997336D01*
X134144000Y-89997335D01*
X134214000Y-89997335D01*
X134214000Y-90918664D01*
X134231870Y-91100101D01*
X134302489Y-91332900D01*
X134417167Y-91547448D01*
X134571498Y-91735502D01*
X134759551Y-91889833D01*
X134974099Y-92004511D01*
X135206898Y-92075130D01*
X135449000Y-92098975D01*
X135691101Y-92075130D01*
X135923900Y-92004511D01*
X136138448Y-91889833D01*
X136326502Y-91735502D01*
X136480833Y-91547449D01*
X136595511Y-91332901D01*
X136666130Y-91100102D01*
X136684000Y-90918665D01*
X136684000Y-89997336D01*
X136684000Y-89997335D01*
X136754000Y-89997335D01*
X136754000Y-90918664D01*
X136771870Y-91100101D01*
X136842489Y-91332900D01*
X136957167Y-91547448D01*
X137111498Y-91735502D01*
X137299551Y-91889833D01*
X137514099Y-92004511D01*
X137746898Y-92075130D01*
X137989000Y-92098975D01*
X138231101Y-92075130D01*
X138463900Y-92004511D01*
X138678448Y-91889833D01*
X138866502Y-91735502D01*
X139020833Y-91547449D01*
X139135511Y-91332901D01*
X139206130Y-91100102D01*
X139224000Y-90918665D01*
X139224000Y-89997336D01*
X139224000Y-89997335D01*
X139294000Y-89997335D01*
X139294000Y-90918664D01*
X139311870Y-91100101D01*
X139382489Y-91332900D01*
X139497167Y-91547448D01*
X139651498Y-91735502D01*
X139839551Y-91889833D01*
X140054099Y-92004511D01*
X140286898Y-92075130D01*
X140529000Y-92098975D01*
X140771101Y-92075130D01*
X141003900Y-92004511D01*
X141218448Y-91889833D01*
X141406502Y-91735502D01*
X141560833Y-91547449D01*
X141675511Y-91332901D01*
X141746130Y-91100102D01*
X141764000Y-90918665D01*
X141764000Y-89997336D01*
X141746130Y-89815899D01*
X141675511Y-89583099D01*
X141560833Y-89368551D01*
X141406502Y-89180498D01*
X141363625Y-89145310D01*
X141436502Y-89085502D01*
X141590833Y-88897449D01*
X141705511Y-88682901D01*
X141776130Y-88450102D01*
X141794000Y-88268665D01*
X141794000Y-87347336D01*
X141776130Y-87165899D01*
X141705511Y-86933099D01*
X141590833Y-86718551D01*
X141436502Y-86530498D01*
X141248449Y-86376167D01*
X141033901Y-86261489D01*
X140801102Y-86190870D01*
X140559000Y-86167025D01*
X140316899Y-86190870D01*
X140084100Y-86261489D01*
X139869552Y-86376167D01*
X139681499Y-86530498D01*
X139527168Y-86718551D01*
X139412489Y-86933099D01*
X139341870Y-87165898D01*
X139324000Y-87347335D01*
X139324000Y-88268664D01*
X139341870Y-88450101D01*
X139412489Y-88682900D01*
X139527167Y-88897448D01*
X139681498Y-89085502D01*
X139724375Y-89120690D01*
X139651499Y-89180498D01*
X139497168Y-89368551D01*
X139382489Y-89583099D01*
X139311870Y-89815898D01*
X139294000Y-89997335D01*
X139224000Y-89997335D01*
X139206130Y-89815899D01*
X139135511Y-89583099D01*
X139020833Y-89368551D01*
X138866502Y-89180498D01*
X138823625Y-89145310D01*
X138896502Y-89085502D01*
X139050833Y-88897449D01*
X139165511Y-88682901D01*
X139236130Y-88450102D01*
X139254000Y-88268665D01*
X139254000Y-87347336D01*
X139236130Y-87165899D01*
X139165511Y-86933099D01*
X139050833Y-86718551D01*
X138896502Y-86530498D01*
X138708449Y-86376167D01*
X138493901Y-86261489D01*
X138261102Y-86190870D01*
X138019000Y-86167025D01*
X137776899Y-86190870D01*
X137544100Y-86261489D01*
X137329552Y-86376167D01*
X137141499Y-86530498D01*
X136987168Y-86718551D01*
X136872489Y-86933099D01*
X136801870Y-87165898D01*
X136784000Y-87347335D01*
X136784000Y-88268664D01*
X136801870Y-88450101D01*
X136872489Y-88682900D01*
X136987167Y-88897448D01*
X137141498Y-89085502D01*
X137184375Y-89120690D01*
X137111499Y-89180498D01*
X136957168Y-89368551D01*
X136842489Y-89583099D01*
X136771870Y-89815898D01*
X136754000Y-89997335D01*
X136684000Y-89997335D01*
X136666130Y-89815899D01*
X136595511Y-89583099D01*
X136480833Y-89368551D01*
X136326502Y-89180498D01*
X136283625Y-89145310D01*
X136356502Y-89085502D01*
X136510833Y-88897449D01*
X136625511Y-88682901D01*
X136696130Y-88450102D01*
X136714000Y-88268665D01*
X136714000Y-87347336D01*
X136696130Y-87165899D01*
X136625511Y-86933099D01*
X136510833Y-86718551D01*
X136356502Y-86530498D01*
X136168449Y-86376167D01*
X135953901Y-86261489D01*
X135721102Y-86190870D01*
X135479000Y-86167025D01*
X135236899Y-86190870D01*
X135004100Y-86261489D01*
X134789552Y-86376167D01*
X134601499Y-86530498D01*
X134447168Y-86718551D01*
X134332489Y-86933099D01*
X134261870Y-87165898D01*
X134244000Y-87347335D01*
X134244000Y-88268664D01*
X134261870Y-88450101D01*
X134332489Y-88682900D01*
X134447167Y-88897448D01*
X134601498Y-89085502D01*
X134644375Y-89120690D01*
X134571499Y-89180498D01*
X134417168Y-89368551D01*
X134302489Y-89583099D01*
X134231870Y-89815898D01*
X134214000Y-89997335D01*
X134144000Y-89997335D01*
X134126130Y-89815899D01*
X134055511Y-89583099D01*
X133940833Y-89368551D01*
X133786502Y-89180498D01*
X133743625Y-89145310D01*
X133816502Y-89085502D01*
X133970833Y-88897449D01*
X134085511Y-88682901D01*
X134156130Y-88450102D01*
X134174000Y-88268665D01*
X134174000Y-87347336D01*
X134156130Y-87165899D01*
X134085511Y-86933099D01*
X133970833Y-86718551D01*
X133816502Y-86530498D01*
X133628449Y-86376167D01*
X133413901Y-86261489D01*
X133181102Y-86190870D01*
X132939000Y-86167025D01*
X132696899Y-86190870D01*
X132464100Y-86261489D01*
X132249552Y-86376167D01*
X132061499Y-86530498D01*
X131907168Y-86718551D01*
X131792489Y-86933099D01*
X131721870Y-87165898D01*
X131704000Y-87347335D01*
X131704000Y-88268664D01*
X131721870Y-88450101D01*
X131792489Y-88682900D01*
X131907167Y-88897448D01*
X132061498Y-89085502D01*
X132104375Y-89120690D01*
X132031499Y-89180498D01*
X131877168Y-89368551D01*
X131762489Y-89583099D01*
X131691870Y-89815898D01*
X131674000Y-89997335D01*
X131604000Y-89997335D01*
X131586130Y-89815899D01*
X131515511Y-89583099D01*
X131400833Y-89368551D01*
X131246502Y-89180498D01*
X131203625Y-89145310D01*
X131276502Y-89085502D01*
X131430833Y-88897449D01*
X131545511Y-88682901D01*
X131616130Y-88450102D01*
X131634000Y-88268665D01*
X131634000Y-87347336D01*
X131616130Y-87165899D01*
X131545511Y-86933099D01*
X131430833Y-86718551D01*
X131276502Y-86530498D01*
X131088449Y-86376167D01*
X130873901Y-86261489D01*
X130641102Y-86190870D01*
X130399000Y-86167025D01*
X130156899Y-86190870D01*
X129924100Y-86261489D01*
X129709552Y-86376167D01*
X129521499Y-86530498D01*
X129367168Y-86718551D01*
X129252489Y-86933099D01*
X129181870Y-87165898D01*
X129164000Y-87347335D01*
X129164000Y-88268664D01*
X129181870Y-88450101D01*
X129252489Y-88682900D01*
X129367167Y-88897448D01*
X129521498Y-89085502D01*
X129564375Y-89120690D01*
X129491499Y-89180498D01*
X129337168Y-89368551D01*
X129222489Y-89583099D01*
X129151870Y-89815898D01*
X129134000Y-89997335D01*
X129064000Y-89997335D01*
X129046130Y-89815899D01*
X128975511Y-89583099D01*
X128860833Y-89368551D01*
X128706502Y-89180498D01*
X128663625Y-89145310D01*
X128736502Y-89085502D01*
X128890833Y-88897449D01*
X129005511Y-88682901D01*
X129076130Y-88450102D01*
X129094000Y-88268665D01*
X129094000Y-87347336D01*
X129076130Y-87165899D01*
X129005511Y-86933099D01*
X128890833Y-86718551D01*
X128736502Y-86530498D01*
X128548449Y-86376167D01*
X128333901Y-86261489D01*
X128101102Y-86190870D01*
X127859000Y-86167025D01*
X127616899Y-86190870D01*
X127384100Y-86261489D01*
X127169552Y-86376167D01*
X126981499Y-86530498D01*
X126827168Y-86718551D01*
X126712489Y-86933099D01*
X126641870Y-87165898D01*
X126624000Y-87347335D01*
X126624000Y-88268664D01*
X126641870Y-88450101D01*
X126712489Y-88682900D01*
X126827167Y-88897448D01*
X126981498Y-89085502D01*
X127024375Y-89120690D01*
X126951499Y-89180498D01*
X126797168Y-89368551D01*
X126682489Y-89583099D01*
X126611870Y-89815898D01*
X126594000Y-89997335D01*
X126524000Y-89997335D01*
X126506130Y-89815899D01*
X126435511Y-89583099D01*
X126320833Y-89368551D01*
X126166502Y-89180498D01*
X126123625Y-89145310D01*
X126196502Y-89085502D01*
X126350833Y-88897449D01*
X126465511Y-88682901D01*
X126536130Y-88450102D01*
X126554000Y-88268665D01*
X126554000Y-87347336D01*
X126536130Y-87165899D01*
X126465511Y-86933099D01*
X126350833Y-86718551D01*
X126196502Y-86530498D01*
X126008449Y-86376167D01*
X125793901Y-86261489D01*
X125561102Y-86190870D01*
X125319000Y-86167025D01*
X125076899Y-86190870D01*
X124844100Y-86261489D01*
X124629552Y-86376167D01*
X124441499Y-86530498D01*
X124287168Y-86718551D01*
X124172489Y-86933099D01*
X124101870Y-87165898D01*
X124084000Y-87347335D01*
X124084000Y-88268664D01*
X124101870Y-88450101D01*
X124172489Y-88682900D01*
X124287167Y-88897448D01*
X124441498Y-89085502D01*
X124484375Y-89120690D01*
X124411499Y-89180498D01*
X124257168Y-89368551D01*
X124142489Y-89583099D01*
X124071870Y-89815898D01*
X124054000Y-89997335D01*
X123984000Y-89997335D01*
X123966130Y-89815899D01*
X123895511Y-89583099D01*
X123780833Y-89368551D01*
X123626502Y-89180498D01*
X123583625Y-89145310D01*
X123656502Y-89085502D01*
X123810833Y-88897449D01*
X123925511Y-88682901D01*
X123996130Y-88450102D01*
X124014000Y-88268665D01*
X124014000Y-87347336D01*
X123996130Y-87165899D01*
X123925511Y-86933099D01*
X123810833Y-86718551D01*
X123656502Y-86530498D01*
X123468449Y-86376167D01*
X123253901Y-86261489D01*
X123021102Y-86190870D01*
X122779000Y-86167025D01*
X122536899Y-86190870D01*
X122304100Y-86261489D01*
X122089552Y-86376167D01*
X121901499Y-86530498D01*
X121747168Y-86718551D01*
X121632489Y-86933099D01*
X121561870Y-87165898D01*
X121544000Y-87347335D01*
X121544000Y-88268664D01*
X121561870Y-88450101D01*
X121632489Y-88682900D01*
X121747167Y-88897448D01*
X121901498Y-89085502D01*
X121944375Y-89120690D01*
X121871499Y-89180498D01*
X121717168Y-89368551D01*
X121602489Y-89583099D01*
X121531870Y-89815898D01*
X121514000Y-89997335D01*
X108610000Y-89997335D01*
X108610000Y-79653109D01*
X123018519Y-79653109D01*
X123139186Y-79883000D01*
X124333000Y-79883000D01*
X124333000Y-78689845D01*
X124103110Y-78568524D01*
X123955901Y-78613175D01*
X123693080Y-78738359D01*
X123459731Y-78912412D01*
X123264822Y-79128645D01*
X123115843Y-79378748D01*
X123018519Y-79653109D01*
X108610000Y-79653109D01*
X108610000Y-76860000D01*
X172060001Y-76860000D01*
X172060001Y-85570488D01*
G37*
%TD.AperFunction*%
D17*
X170990314Y-86791827D02*
X170942000Y-86817186D01*
X170942000Y-88011000D01*
X170962000Y-88011000D01*
X170962000Y-88265000D01*
X170942000Y-88265000D01*
X170942000Y-88285000D01*
X170688000Y-88285000D01*
X170688000Y-88265000D01*
X170668000Y-88265000D01*
X170668000Y-88011000D01*
X170688000Y-88011000D01*
X170688000Y-86817186D01*
X170458109Y-86696519D01*
X170183748Y-86793843D01*
X169933645Y-86942822D01*
X169717412Y-87137731D01*
X169546100Y-87367406D01*
X169428475Y-87191368D01*
X169221632Y-86984525D01*
X168978411Y-86822010D01*
X168708158Y-86710068D01*
X168421260Y-86653000D01*
X168128740Y-86653000D01*
X167841842Y-86710068D01*
X167571589Y-86822010D01*
X167328368Y-86984525D01*
X167121525Y-87191368D01*
X166959010Y-87434589D01*
X166847068Y-87704842D01*
X166790000Y-87991740D01*
X166790000Y-88284260D01*
X166847068Y-88571158D01*
X166959010Y-88841411D01*
X167121525Y-89084632D01*
X167328368Y-89291475D01*
X167502760Y-89408000D01*
X167328368Y-89524525D01*
X167121525Y-89731368D01*
X166959010Y-89974589D01*
X166847068Y-90244842D01*
X166790000Y-90531740D01*
X166790000Y-90824260D01*
X166847068Y-91111158D01*
X166959010Y-91381411D01*
X167121525Y-91624632D01*
X167328368Y-91831475D01*
X167502760Y-91948000D01*
X167328368Y-92064525D01*
X167121525Y-92271368D01*
X166959010Y-92514589D01*
X166847068Y-92784842D01*
X166790000Y-93071740D01*
X166790000Y-93364260D01*
X166847068Y-93651158D01*
X166959010Y-93921411D01*
X167121525Y-94164632D01*
X167328368Y-94371475D01*
X167502760Y-94488000D01*
X167328368Y-94604525D01*
X167121525Y-94811368D01*
X166959010Y-95054589D01*
X166847068Y-95324842D01*
X166790000Y-95611740D01*
X166790000Y-95904260D01*
X166847068Y-96191158D01*
X166959010Y-96461411D01*
X167121525Y-96704632D01*
X167328368Y-96911475D01*
X167502760Y-97028000D01*
X167328368Y-97144525D01*
X167121525Y-97351368D01*
X166959010Y-97594589D01*
X166847068Y-97864842D01*
X166790000Y-98151740D01*
X166790000Y-98444260D01*
X166847068Y-98731158D01*
X166959010Y-99001411D01*
X167121525Y-99244632D01*
X167328368Y-99451475D01*
X167502760Y-99568000D01*
X167328368Y-99684525D01*
X167121525Y-99891368D01*
X166959010Y-100134589D01*
X166847068Y-100404842D01*
X166790000Y-100691740D01*
X166790000Y-100984260D01*
X166847068Y-101271158D01*
X166959010Y-101541411D01*
X167121525Y-101784632D01*
X167328368Y-101991475D01*
X167502760Y-102108000D01*
X167328368Y-102224525D01*
X167121525Y-102431368D01*
X166959010Y-102674589D01*
X166847068Y-102944842D01*
X166790000Y-103231740D01*
X166790000Y-103524260D01*
X166847068Y-103811158D01*
X166959010Y-104081411D01*
X167121525Y-104324632D01*
X167328368Y-104531475D01*
X167502760Y-104648000D01*
X167328368Y-104764525D01*
X167121525Y-104971368D01*
X166959010Y-105214589D01*
X166847068Y-105484842D01*
X166790000Y-105771740D01*
X166790000Y-106064260D01*
X166847068Y-106351158D01*
X166959010Y-106621411D01*
X167121525Y-106864632D01*
X167328368Y-107071475D01*
X167502760Y-107188000D01*
X167328368Y-107304525D01*
X167121525Y-107511368D01*
X166959010Y-107754589D01*
X166847068Y-108024842D01*
X166790000Y-108311740D01*
X166790000Y-108604260D01*
X166847068Y-108891158D01*
X166959010Y-109161411D01*
X167121525Y-109404632D01*
X167328368Y-109611475D01*
X167502760Y-109728000D01*
X167328368Y-109844525D01*
X167121525Y-110051368D01*
X166959010Y-110294589D01*
X166847068Y-110564842D01*
X166790000Y-110851740D01*
X166790000Y-111144260D01*
X166847068Y-111431158D01*
X166959010Y-111701411D01*
X167121525Y-111944632D01*
X167328368Y-112151475D01*
X167502760Y-112268000D01*
X167328368Y-112384525D01*
X167121525Y-112591368D01*
X166959010Y-112834589D01*
X166847068Y-113104842D01*
X166790000Y-113391740D01*
X166790000Y-113684260D01*
X166847068Y-113971158D01*
X166959010Y-114241411D01*
X167121525Y-114484632D01*
X167328368Y-114691475D01*
X167502760Y-114808000D01*
X167328368Y-114924525D01*
X167121525Y-115131368D01*
X166959010Y-115374589D01*
X166847068Y-115644842D01*
X166790000Y-115931740D01*
X166790000Y-116224260D01*
X166847068Y-116511158D01*
X166959010Y-116781411D01*
X167121525Y-117024632D01*
X167328368Y-117231475D01*
X167502760Y-117348000D01*
X167328368Y-117464525D01*
X167121525Y-117671368D01*
X166959010Y-117914589D01*
X166847068Y-118184842D01*
X166790000Y-118471740D01*
X166790000Y-118764260D01*
X166847068Y-119051158D01*
X166959010Y-119321411D01*
X167006234Y-119392086D01*
X164513000Y-121885320D01*
X164513000Y-88800488D01*
X164516919Y-88760700D01*
X164512695Y-88717811D01*
X164501280Y-88601912D01*
X164454963Y-88449227D01*
X164379750Y-88308512D01*
X164379749Y-88308510D01*
X164303893Y-88216080D01*
X164278528Y-88185172D01*
X164247619Y-88159806D01*
X160125884Y-84038072D01*
X160870000Y-84038072D01*
X160994482Y-84025812D01*
X161114180Y-83989502D01*
X161224494Y-83930537D01*
X161321185Y-83851185D01*
X161400537Y-83754494D01*
X161459502Y-83644180D01*
X161495812Y-83524482D01*
X161508072Y-83400000D01*
X161508072Y-83360000D01*
X167558488Y-83360000D01*
X170990314Y-86791827D01*
%TA.AperFunction,Conductor*%
D18*
G36*
X170990314Y-86791827D02*
G01*
X170942000Y-86817186D01*
X170942000Y-88011000D01*
X170962000Y-88011000D01*
X170962000Y-88265000D01*
X170942000Y-88265000D01*
X170942000Y-88285000D01*
X170688000Y-88285000D01*
X170688000Y-88265000D01*
X170668000Y-88265000D01*
X170668000Y-88011000D01*
X170688000Y-88011000D01*
X170688000Y-86817186D01*
X170458109Y-86696519D01*
X170183748Y-86793843D01*
X169933645Y-86942822D01*
X169717412Y-87137731D01*
X169546100Y-87367406D01*
X169428475Y-87191368D01*
X169221632Y-86984525D01*
X168978411Y-86822010D01*
X168708158Y-86710068D01*
X168421260Y-86653000D01*
X168128740Y-86653000D01*
X167841842Y-86710068D01*
X167571589Y-86822010D01*
X167328368Y-86984525D01*
X167121525Y-87191368D01*
X166959010Y-87434589D01*
X166847068Y-87704842D01*
X166790000Y-87991740D01*
X166790000Y-88284260D01*
X166847068Y-88571158D01*
X166959010Y-88841411D01*
X167121525Y-89084632D01*
X167328368Y-89291475D01*
X167502760Y-89408000D01*
X167328368Y-89524525D01*
X167121525Y-89731368D01*
X166959010Y-89974589D01*
X166847068Y-90244842D01*
X166790000Y-90531740D01*
X166790000Y-90824260D01*
X166847068Y-91111158D01*
X166959010Y-91381411D01*
X167121525Y-91624632D01*
X167328368Y-91831475D01*
X167502760Y-91948000D01*
X167328368Y-92064525D01*
X167121525Y-92271368D01*
X166959010Y-92514589D01*
X166847068Y-92784842D01*
X166790000Y-93071740D01*
X166790000Y-93364260D01*
X166847068Y-93651158D01*
X166959010Y-93921411D01*
X167121525Y-94164632D01*
X167328368Y-94371475D01*
X167502760Y-94488000D01*
X167328368Y-94604525D01*
X167121525Y-94811368D01*
X166959010Y-95054589D01*
X166847068Y-95324842D01*
X166790000Y-95611740D01*
X166790000Y-95904260D01*
X166847068Y-96191158D01*
X166959010Y-96461411D01*
X167121525Y-96704632D01*
X167328368Y-96911475D01*
X167502760Y-97028000D01*
X167328368Y-97144525D01*
X167121525Y-97351368D01*
X166959010Y-97594589D01*
X166847068Y-97864842D01*
X166790000Y-98151740D01*
X166790000Y-98444260D01*
X166847068Y-98731158D01*
X166959010Y-99001411D01*
X167121525Y-99244632D01*
X167328368Y-99451475D01*
X167502760Y-99568000D01*
X167328368Y-99684525D01*
X167121525Y-99891368D01*
X166959010Y-100134589D01*
X166847068Y-100404842D01*
X166790000Y-100691740D01*
X166790000Y-100984260D01*
X166847068Y-101271158D01*
X166959010Y-101541411D01*
X167121525Y-101784632D01*
X167328368Y-101991475D01*
X167502760Y-102108000D01*
X167328368Y-102224525D01*
X167121525Y-102431368D01*
X166959010Y-102674589D01*
X166847068Y-102944842D01*
X166790000Y-103231740D01*
X166790000Y-103524260D01*
X166847068Y-103811158D01*
X166959010Y-104081411D01*
X167121525Y-104324632D01*
X167328368Y-104531475D01*
X167502760Y-104648000D01*
X167328368Y-104764525D01*
X167121525Y-104971368D01*
X166959010Y-105214589D01*
X166847068Y-105484842D01*
X166790000Y-105771740D01*
X166790000Y-106064260D01*
X166847068Y-106351158D01*
X166959010Y-106621411D01*
X167121525Y-106864632D01*
X167328368Y-107071475D01*
X167502760Y-107188000D01*
X167328368Y-107304525D01*
X167121525Y-107511368D01*
X166959010Y-107754589D01*
X166847068Y-108024842D01*
X166790000Y-108311740D01*
X166790000Y-108604260D01*
X166847068Y-108891158D01*
X166959010Y-109161411D01*
X167121525Y-109404632D01*
X167328368Y-109611475D01*
X167502760Y-109728000D01*
X167328368Y-109844525D01*
X167121525Y-110051368D01*
X166959010Y-110294589D01*
X166847068Y-110564842D01*
X166790000Y-110851740D01*
X166790000Y-111144260D01*
X166847068Y-111431158D01*
X166959010Y-111701411D01*
X167121525Y-111944632D01*
X167328368Y-112151475D01*
X167502760Y-112268000D01*
X167328368Y-112384525D01*
X167121525Y-112591368D01*
X166959010Y-112834589D01*
X166847068Y-113104842D01*
X166790000Y-113391740D01*
X166790000Y-113684260D01*
X166847068Y-113971158D01*
X166959010Y-114241411D01*
X167121525Y-114484632D01*
X167328368Y-114691475D01*
X167502760Y-114808000D01*
X167328368Y-114924525D01*
X167121525Y-115131368D01*
X166959010Y-115374589D01*
X166847068Y-115644842D01*
X166790000Y-115931740D01*
X166790000Y-116224260D01*
X166847068Y-116511158D01*
X166959010Y-116781411D01*
X167121525Y-117024632D01*
X167328368Y-117231475D01*
X167502760Y-117348000D01*
X167328368Y-117464525D01*
X167121525Y-117671368D01*
X166959010Y-117914589D01*
X166847068Y-118184842D01*
X166790000Y-118471740D01*
X166790000Y-118764260D01*
X166847068Y-119051158D01*
X166959010Y-119321411D01*
X167006234Y-119392086D01*
X164513000Y-121885320D01*
X164513000Y-88800488D01*
X164516919Y-88760700D01*
X164512695Y-88717811D01*
X164501280Y-88601912D01*
X164454963Y-88449227D01*
X164379750Y-88308512D01*
X164379749Y-88308510D01*
X164303893Y-88216080D01*
X164278528Y-88185172D01*
X164247619Y-88159806D01*
X160125884Y-84038072D01*
X160870000Y-84038072D01*
X160994482Y-84025812D01*
X161114180Y-83989502D01*
X161224494Y-83930537D01*
X161321185Y-83851185D01*
X161400537Y-83754494D01*
X161459502Y-83644180D01*
X161495812Y-83524482D01*
X161508072Y-83400000D01*
X161508072Y-83360000D01*
X167558488Y-83360000D01*
X170990314Y-86791827D01*
G37*
%TD.AperFunction*%
%TD*%
M02*
