M48
; DRILL file {KiCad (5.1.9)-1} date 09/19/21 21:33:41
; FORMAT={-:-/ absolute / metric / decimal}
; #@! TF.CreationDate,2021-09-19T21:33:41+01:00
; #@! TF.GenerationSoftware,Kicad,Pcbnew,(5.1.9)-1
; #@! TF.FileFunction,Plated,1,2,PTH
FMAT,2
METRIC
T1C0.400
T2C0.700
T3C0.800
T4C1.000
T5C2.000
%
G90
G05
T1
X106.839Y-56.149
T2
X40.745Y-28.488
X40.745Y-31.028
X40.745Y-33.568
X40.745Y-36.108
X40.745Y-38.648
X45.825Y-28.488
X45.825Y-31.028
X45.825Y-33.568
X45.825Y-36.108
X45.825Y-38.648
X50.8Y-58.42
X55.64Y-28.56
X55.64Y-38.72
X58.18Y-28.56
X58.18Y-38.72
X58.42Y-58.42
X60.72Y-28.56
X60.72Y-38.72
X63.26Y-28.56
X63.26Y-38.72
X65.8Y-28.56
X65.8Y-38.72
X68.34Y-28.56
X68.34Y-38.72
X68.58Y-58.42
X76.2Y-58.42
X78.362Y-28.412
X78.362Y-30.952
X78.362Y-33.492
X78.362Y-36.032
X78.362Y-38.572
X83.442Y-28.412
X83.442Y-30.952
X83.442Y-33.492
X83.442Y-36.032
X83.442Y-38.572
X96.587Y-28.45
X96.587Y-30.99
X96.587Y-33.53
X96.587Y-36.07
X96.587Y-38.61
X101.667Y-28.45
X101.667Y-30.99
X101.667Y-33.53
X101.667Y-36.07
X101.667Y-38.61
X110.49Y-54.61
X111.52Y-28.56
X111.52Y-38.72
X114.06Y-28.56
X114.06Y-38.72
X116.6Y-28.56
X116.6Y-38.72
X118.11Y-54.61
X119.14Y-28.56
X119.14Y-38.72
X121.68Y-28.56
X121.68Y-38.72
X124.22Y-28.56
X124.22Y-38.72
X134.306Y-28.45
X134.306Y-30.99
X134.306Y-33.53
X134.306Y-36.07
X134.306Y-38.61
X135.89Y-62.23
X139.386Y-28.45
X139.386Y-30.99
X139.386Y-33.53
X139.386Y-36.07
X139.386Y-38.61
X143.51Y-62.23
X147.32Y-52.07
X147.32Y-59.69
X148.59Y-33.02
X148.59Y-40.64
X162.56Y-62.23
X170.18Y-62.23
X176.53Y-41.91
X176.53Y-49.53
T3
X41.91Y-44.45
X41.91Y-52.07
X44.45Y-44.45
X44.45Y-52.07
X46.99Y-44.45
X46.99Y-52.07
X49.53Y-44.45
X49.53Y-52.07
X52.07Y-44.45
X52.07Y-52.07
X54.61Y-44.45
X54.61Y-52.07
X57.15Y-44.45
X57.15Y-52.07
X59.69Y-44.45
X59.69Y-52.07
X62.23Y-44.45
X62.23Y-52.07
X62.23Y-58.42
X64.73Y-58.42
X64.77Y-44.45
X64.77Y-52.07
X67.31Y-44.45
X67.31Y-52.07
X69.85Y-44.45
X69.85Y-52.07
X81.28Y-58.42
X83.78Y-58.42
X87.202Y-44.873
X87.202Y-50.673
X89.702Y-44.873
X89.702Y-50.673
X92.202Y-44.873
X92.202Y-50.673
X102.87Y-43.18
X102.87Y-50.8
X105.41Y-43.18
X105.41Y-50.8
X105.45Y-54.61
X107.95Y-43.18
X107.95Y-50.8
X107.95Y-54.61
X110.49Y-43.18
X110.49Y-50.8
X113.03Y-43.18
X113.03Y-50.8
X115.57Y-43.18
X115.57Y-50.8
X118.11Y-43.18
X118.11Y-50.8
X120.65Y-43.18
X120.65Y-50.8
X123.19Y-43.18
X123.19Y-50.8
X125.73Y-43.18
X125.73Y-50.8
X128.27Y-43.18
X128.27Y-50.8
X130.81Y-43.18
X130.81Y-50.8
X139.7Y-49.53
X139.74Y-44.45
X140.97Y-55.92
X140.97Y-58.42
X142.2Y-49.53
X142.24Y-44.45
X146.09Y-46.99
X148.59Y-46.99
X148.63Y-27.94
X151.13Y-27.94
X154.94Y-62.23
X157.44Y-62.23
X176.53Y-36.87
X176.53Y-39.37
X176.53Y-52.11
X176.53Y-54.61
T4
X96.52Y-58.42
X96.52Y-60.96
X99.06Y-58.42
X99.06Y-60.96
X101.6Y-58.42
X101.6Y-60.96
X104.14Y-58.42
X104.14Y-60.96
X106.68Y-58.42
X106.68Y-60.96
X109.22Y-58.42
X109.22Y-60.96
X111.76Y-58.42
X111.76Y-60.96
X114.3Y-58.42
X114.3Y-60.96
X116.84Y-58.42
X116.84Y-60.96
X119.38Y-58.42
X119.38Y-60.96
X121.92Y-58.42
X121.92Y-60.96
X124.46Y-58.42
X124.46Y-60.96
X127.0Y-58.42
X127.0Y-60.96
X129.54Y-58.42
X129.54Y-60.96
X132.08Y-58.42
X132.08Y-60.96
X154.9Y-33.02
X154.9Y-35.52
X154.9Y-38.02
X154.9Y-50.8
X154.9Y-53.3
X154.9Y-55.8
X169.4Y-33.02
X169.4Y-38.02
X169.4Y-50.8
X169.4Y-55.8
T5
G00X162.15Y-29.92
M15
G01X162.65Y-29.92
M16
G05
G00X162.15Y-41.12
M15
G01X162.65Y-41.12
M16
G05
G00X162.15Y-47.7
M15
G01X162.65Y-47.7
M16
G05
G00X162.15Y-58.9
M15
G01X162.65Y-58.9
M16
G05
T0
M30
