%TF.GenerationSoftware,KiCad,Pcbnew,(5.1.9)-1*%
%TF.CreationDate,2021-09-19T21:33:38+01:00*%
%TF.ProjectId,Cesna_Radio_Stack,4365736e-615f-4526-9164-696f5f537461,rev?*%
%TF.SameCoordinates,Original*%
%TF.FileFunction,Copper,L1,Top*%
%TF.FilePolarity,Positive*%
%FSLAX46Y46*%
G04 Gerber Fmt 4.6, Leading zero omitted, Abs format (unit mm)*
G04 Created by KiCad (PCBNEW (5.1.9)-1) date 2021-09-19 21:33:38*
%MOMM*%
%LPD*%
G01*
G04 APERTURE LIST*
%TA.AperFunction,ComponentPad*%
%ADD10C,1.900000*%
%TD*%
%TA.AperFunction,ComponentPad*%
%ADD11O,1.700000X1.500000*%
%TD*%
%TA.AperFunction,ComponentPad*%
%ADD12R,1.700000X1.500000*%
%TD*%
%TA.AperFunction,ComponentPad*%
%ADD13R,1.500000X1.500000*%
%TD*%
%TA.AperFunction,ComponentPad*%
%ADD14C,1.500000*%
%TD*%
%TA.AperFunction,ComponentPad*%
%ADD15O,1.600000X2.400000*%
%TD*%
%TA.AperFunction,ComponentPad*%
%ADD16R,1.600000X2.400000*%
%TD*%
%TA.AperFunction,ComponentPad*%
%ADD17R,2.000000X2.000000*%
%TD*%
%TA.AperFunction,ComponentPad*%
%ADD18C,2.000000*%
%TD*%
%TA.AperFunction,ComponentPad*%
%ADD19R,3.000000X2.500000*%
%TD*%
%TA.AperFunction,ComponentPad*%
%ADD20C,1.600000*%
%TD*%
%TA.AperFunction,ComponentPad*%
%ADD21R,1.600000X1.600000*%
%TD*%
%TA.AperFunction,ComponentPad*%
%ADD22O,1.400000X1.400000*%
%TD*%
%TA.AperFunction,ComponentPad*%
%ADD23C,1.400000*%
%TD*%
%TA.AperFunction,ComponentPad*%
%ADD24O,1.700000X1.700000*%
%TD*%
%TA.AperFunction,ComponentPad*%
%ADD25R,1.700000X1.700000*%
%TD*%
%TA.AperFunction,ViaPad*%
%ADD26C,0.900000*%
%TD*%
%TA.AperFunction,Conductor*%
%ADD27C,0.350000*%
%TD*%
%TA.AperFunction,Conductor*%
%ADD28C,0.250000*%
%TD*%
%TA.AperFunction,Conductor*%
%ADD29C,0.254000*%
%TD*%
%TA.AperFunction,Conductor*%
%ADD30C,0.100000*%
%TD*%
G04 APERTURE END LIST*
D10*
%TO.P,SW1,6*%
%TO.N,Net-(SW1-Pad6)*%
X87202000Y-44873000D03*
%TO.P,SW1,5*%
%TO.N,GND*%
X89702000Y-44873000D03*
%TO.P,SW1,4*%
%TO.N,COM_SWAP*%
X92202000Y-44873000D03*
%TO.P,SW1,3*%
%TO.N,Net-(SW1-Pad3)*%
X87202000Y-50673000D03*
%TO.P,SW1,2*%
%TO.N,GND*%
X89702000Y-50673000D03*
%TO.P,SW1,1*%
%TO.N,COM_SWAP*%
X92202000Y-50673000D03*
%TD*%
D11*
%TO.P,U8,10*%
%TO.N,Net-(U5-Pad14)*%
X139386000Y-28450300D03*
%TO.P,U8,9*%
%TO.N,Net-(U5-Pad16)*%
X139386000Y-30990300D03*
%TO.P,U8,8*%
%TO.N,Net-(U5-Pad20)*%
X139386000Y-33530300D03*
%TO.P,U8,7*%
%TO.N,Net-(U5-Pad22)*%
X139386000Y-36070300D03*
%TO.P,U8,6*%
%TO.N,Net-(U5-Pad2)*%
X139386000Y-38610300D03*
%TO.P,U8,5*%
%TO.N,Net-(U5-Pad23)*%
X134306000Y-38610300D03*
%TO.P,U8,4*%
%TO.N,Net-(U5-Pad21)*%
X134306000Y-36070300D03*
%TO.P,U8,3*%
%TO.N,Net-(U5-Pad17)*%
X134306000Y-33530300D03*
%TO.P,U8,2*%
%TO.N,Net-(U5-Pad15)*%
X134306000Y-30990300D03*
D12*
%TO.P,U8,1*%
%TO.N,Net-(U5-Pad2)*%
X134306000Y-28450300D03*
%TD*%
D11*
%TO.P,U6,10*%
%TO.N,Net-(U5-Pad14)*%
X101667000Y-28450300D03*
%TO.P,U6,9*%
%TO.N,Net-(U5-Pad16)*%
X101667000Y-30990300D03*
%TO.P,U6,8*%
%TO.N,Net-(U5-Pad20)*%
X101667000Y-33530300D03*
%TO.P,U6,7*%
%TO.N,Net-(U5-Pad22)*%
X101667000Y-36070300D03*
%TO.P,U6,6*%
%TO.N,Net-(U5-Pad10)*%
X101667000Y-38610300D03*
%TO.P,U6,5*%
%TO.N,Net-(U5-Pad23)*%
X96587000Y-38610300D03*
%TO.P,U6,4*%
%TO.N,Net-(U5-Pad21)*%
X96587000Y-36070300D03*
%TO.P,U6,3*%
%TO.N,Net-(U5-Pad17)*%
X96587000Y-33530300D03*
%TO.P,U6,2*%
%TO.N,Net-(U5-Pad15)*%
X96587000Y-30990300D03*
D12*
%TO.P,U6,1*%
%TO.N,Net-(U5-Pad10)*%
X96587000Y-28450300D03*
%TD*%
D11*
%TO.P,U2,10*%
%TO.N,Net-(U1-Pad14)*%
X45825100Y-28488400D03*
%TO.P,U2,9*%
%TO.N,Net-(U1-Pad16)*%
X45825100Y-31028400D03*
%TO.P,U2,8*%
%TO.N,Net-(U1-Pad20)*%
X45825100Y-33568400D03*
%TO.P,U2,7*%
%TO.N,Net-(U1-Pad22)*%
X45825100Y-36108400D03*
%TO.P,U2,6*%
%TO.N,Net-(U1-Pad10)*%
X45825100Y-38648400D03*
%TO.P,U2,5*%
%TO.N,Net-(U1-Pad23)*%
X40745100Y-38648400D03*
%TO.P,U2,4*%
%TO.N,Net-(U1-Pad21)*%
X40745100Y-36108400D03*
%TO.P,U2,3*%
%TO.N,Net-(U1-Pad17)*%
X40745100Y-33568400D03*
%TO.P,U2,2*%
%TO.N,Net-(U1-Pad15)*%
X40745100Y-31028400D03*
D12*
%TO.P,U2,1*%
%TO.N,Net-(U1-Pad10)*%
X40745100Y-28488400D03*
%TD*%
D11*
%TO.P,U4,10*%
%TO.N,Net-(U1-Pad14)*%
X83442500Y-28412200D03*
%TO.P,U4,9*%
%TO.N,Net-(U1-Pad16)*%
X83442500Y-30952200D03*
%TO.P,U4,8*%
%TO.N,Net-(U1-Pad20)*%
X83442500Y-33492200D03*
%TO.P,U4,7*%
%TO.N,Net-(U1-Pad22)*%
X83442500Y-36032200D03*
%TO.P,U4,6*%
%TO.N,Net-(U1-Pad2)*%
X83442500Y-38572200D03*
%TO.P,U4,5*%
%TO.N,Net-(U1-Pad23)*%
X78362500Y-38572200D03*
%TO.P,U4,4*%
%TO.N,Net-(U1-Pad21)*%
X78362500Y-36032200D03*
%TO.P,U4,3*%
%TO.N,Net-(U1-Pad17)*%
X78362500Y-33492200D03*
%TO.P,U4,2*%
%TO.N,Net-(U1-Pad15)*%
X78362500Y-30952200D03*
D12*
%TO.P,U4,1*%
%TO.N,Net-(U1-Pad2)*%
X78362500Y-28412200D03*
%TD*%
D13*
%TO.P,U7,1*%
%TO.N,Net-(U5-Pad21)*%
X111520000Y-38720000D03*
D14*
%TO.P,U7,2*%
%TO.N,Net-(U5-Pad23)*%
X114060000Y-38720000D03*
%TO.P,U7,3*%
%TO.N,Net-(U5-Pad22)*%
X116600000Y-38720000D03*
%TO.P,U7,4*%
%TO.N,Net-(U5-Pad20)*%
X119140000Y-38720000D03*
%TO.P,U7,5*%
%TO.N,Net-(U5-Pad17)*%
X121680000Y-38720000D03*
%TO.P,U7,6*%
%TO.N,Net-(U5-Pad11)*%
X124220000Y-38720000D03*
%TO.P,U7,7*%
%TO.N,Net-(U5-Pad16)*%
X124220000Y-28560000D03*
%TO.P,U7,8*%
%TO.N,Net-(U5-Pad6)*%
X121680000Y-28560000D03*
%TO.P,U7,9*%
%TO.N,Net-(U5-Pad7)*%
X119140000Y-28560000D03*
%TO.P,U7,10*%
%TO.N,Net-(U5-Pad15)*%
X116600000Y-28560000D03*
%TO.P,U7,11*%
%TO.N,Net-(U5-Pad14)*%
X114060000Y-28560000D03*
%TO.P,U7,12*%
%TO.N,Net-(U5-Pad3)*%
X111520000Y-28560000D03*
%TD*%
D15*
%TO.P,U5,24*%
%TO.N,DOUT_MAX1*%
X102870000Y-50800000D03*
%TO.P,U5,12*%
%TO.N,CS_MAX*%
X130810000Y-43180000D03*
%TO.P,U5,23*%
%TO.N,Net-(U5-Pad23)*%
X105410000Y-50800000D03*
%TO.P,U5,11*%
%TO.N,Net-(U5-Pad11)*%
X128270000Y-43180000D03*
%TO.P,U5,22*%
%TO.N,Net-(U5-Pad22)*%
X107950000Y-50800000D03*
%TO.P,U5,10*%
%TO.N,Net-(U5-Pad10)*%
X125730000Y-43180000D03*
%TO.P,U5,21*%
%TO.N,Net-(U5-Pad21)*%
X110490000Y-50800000D03*
%TO.P,U5,9*%
%TO.N,GND*%
X123190000Y-43180000D03*
%TO.P,U5,20*%
%TO.N,Net-(U5-Pad20)*%
X113030000Y-50800000D03*
%TO.P,U5,8*%
%TO.N,Net-(U5-Pad8)*%
X120650000Y-43180000D03*
%TO.P,U5,19*%
%TO.N,+5V*%
X115570000Y-50800000D03*
%TO.P,U5,7*%
%TO.N,Net-(U5-Pad7)*%
X118110000Y-43180000D03*
%TO.P,U5,18*%
%TO.N,Net-(R7-Pad1)*%
X118110000Y-50800000D03*
%TO.P,U5,6*%
%TO.N,Net-(U5-Pad6)*%
X115570000Y-43180000D03*
%TO.P,U5,17*%
%TO.N,Net-(U5-Pad17)*%
X120650000Y-50800000D03*
%TO.P,U5,5*%
%TO.N,Net-(U5-Pad5)*%
X113030000Y-43180000D03*
%TO.P,U5,16*%
%TO.N,Net-(U5-Pad16)*%
X123190000Y-50800000D03*
%TO.P,U5,4*%
%TO.N,GND*%
X110490000Y-43180000D03*
%TO.P,U5,15*%
%TO.N,Net-(U5-Pad15)*%
X125730000Y-50800000D03*
%TO.P,U5,3*%
%TO.N,Net-(U5-Pad3)*%
X107950000Y-43180000D03*
%TO.P,U5,14*%
%TO.N,Net-(U5-Pad14)*%
X128270000Y-50800000D03*
%TO.P,U5,2*%
%TO.N,Net-(U5-Pad2)*%
X105410000Y-43180000D03*
%TO.P,U5,13*%
%TO.N,CLK*%
X130810000Y-50800000D03*
D16*
%TO.P,U5,1*%
%TO.N,DIN*%
X102870000Y-43180000D03*
%TD*%
D13*
%TO.P,U3,1*%
%TO.N,Net-(U1-Pad21)*%
X55640000Y-38720000D03*
D14*
%TO.P,U3,2*%
%TO.N,Net-(U1-Pad23)*%
X58180000Y-38720000D03*
%TO.P,U3,3*%
%TO.N,Net-(U1-Pad22)*%
X60720000Y-38720000D03*
%TO.P,U3,4*%
%TO.N,Net-(U1-Pad20)*%
X63260000Y-38720000D03*
%TO.P,U3,5*%
%TO.N,Net-(U1-Pad17)*%
X65800000Y-38720000D03*
%TO.P,U3,6*%
%TO.N,Net-(U1-Pad11)*%
X68340000Y-38720000D03*
%TO.P,U3,7*%
%TO.N,Net-(U1-Pad16)*%
X68340000Y-28560000D03*
%TO.P,U3,8*%
%TO.N,Net-(U1-Pad6)*%
X65800000Y-28560000D03*
%TO.P,U3,9*%
%TO.N,Net-(U1-Pad7)*%
X63260000Y-28560000D03*
%TO.P,U3,10*%
%TO.N,Net-(U1-Pad15)*%
X60720000Y-28560000D03*
%TO.P,U3,11*%
%TO.N,Net-(U1-Pad14)*%
X58180000Y-28560000D03*
%TO.P,U3,12*%
%TO.N,Net-(U1-Pad3)*%
X55640000Y-28560000D03*
%TD*%
D17*
%TO.P,SW2,A*%
%TO.N,Net-(C4-Pad2)*%
X154900000Y-33020000D03*
D18*
%TO.P,SW2,C*%
%TO.N,GND*%
X154900000Y-35520000D03*
%TO.P,SW2,B*%
%TO.N,Net-(C5-Pad1)*%
X154900000Y-38020000D03*
D19*
%TO.P,SW2,MP*%
%TO.N,N/C*%
X162400000Y-29920000D03*
X162400000Y-41120000D03*
D18*
%TO.P,SW2,S1*%
%TO.N,GND*%
X169400000Y-33020000D03*
%TO.P,SW2,S2*%
%TO.N,Net-(C6-Pad1)*%
X169400000Y-38020000D03*
%TD*%
D20*
%TO.P,C7,2*%
%TO.N,GND*%
X140970000Y-55920000D03*
D21*
%TO.P,C7,1*%
%TO.N,+5V*%
X140970000Y-58420000D03*
%TD*%
D20*
%TO.P,C2,2*%
%TO.N,GND*%
X105450000Y-54610000D03*
%TO.P,C2,1*%
%TO.N,+5V*%
X107950000Y-54610000D03*
%TD*%
D15*
%TO.P,U1,24*%
%TO.N,DOUT*%
X41910000Y-52070000D03*
%TO.P,U1,12*%
%TO.N,CS_MAX*%
X69850000Y-44450000D03*
%TO.P,U1,23*%
%TO.N,Net-(U1-Pad23)*%
X44450000Y-52070000D03*
%TO.P,U1,11*%
%TO.N,Net-(U1-Pad11)*%
X67310000Y-44450000D03*
%TO.P,U1,22*%
%TO.N,Net-(U1-Pad22)*%
X46990000Y-52070000D03*
%TO.P,U1,10*%
%TO.N,Net-(U1-Pad10)*%
X64770000Y-44450000D03*
%TO.P,U1,21*%
%TO.N,Net-(U1-Pad21)*%
X49530000Y-52070000D03*
%TO.P,U1,9*%
%TO.N,GND*%
X62230000Y-44450000D03*
%TO.P,U1,20*%
%TO.N,Net-(U1-Pad20)*%
X52070000Y-52070000D03*
%TO.P,U1,8*%
%TO.N,Net-(U1-Pad8)*%
X59690000Y-44450000D03*
%TO.P,U1,19*%
%TO.N,+5V*%
X54610000Y-52070000D03*
%TO.P,U1,7*%
%TO.N,Net-(U1-Pad7)*%
X57150000Y-44450000D03*
%TO.P,U1,18*%
%TO.N,Net-(R1-Pad1)*%
X57150000Y-52070000D03*
%TO.P,U1,6*%
%TO.N,Net-(U1-Pad6)*%
X54610000Y-44450000D03*
%TO.P,U1,17*%
%TO.N,Net-(U1-Pad17)*%
X59690000Y-52070000D03*
%TO.P,U1,5*%
%TO.N,Net-(U1-Pad5)*%
X52070000Y-44450000D03*
%TO.P,U1,16*%
%TO.N,Net-(U1-Pad16)*%
X62230000Y-52070000D03*
%TO.P,U1,4*%
%TO.N,GND*%
X49530000Y-44450000D03*
%TO.P,U1,15*%
%TO.N,Net-(U1-Pad15)*%
X64770000Y-52070000D03*
%TO.P,U1,3*%
%TO.N,Net-(U1-Pad3)*%
X46990000Y-44450000D03*
%TO.P,U1,14*%
%TO.N,Net-(U1-Pad14)*%
X67310000Y-52070000D03*
%TO.P,U1,2*%
%TO.N,Net-(U1-Pad2)*%
X44450000Y-44450000D03*
%TO.P,U1,13*%
%TO.N,CLK*%
X69850000Y-52070000D03*
D16*
%TO.P,U1,1*%
%TO.N,DOUT_MAX1*%
X41910000Y-44450000D03*
%TD*%
D17*
%TO.P,SW3,A*%
%TO.N,Net-(C9-Pad2)*%
X154900000Y-50800000D03*
D18*
%TO.P,SW3,C*%
%TO.N,GND*%
X154900000Y-53300000D03*
%TO.P,SW3,B*%
%TO.N,Net-(C10-Pad1)*%
X154900000Y-55800000D03*
D19*
%TO.P,SW3,MP*%
%TO.N,N/C*%
X162400000Y-47700000D03*
X162400000Y-58900000D03*
D18*
%TO.P,SW3,S1*%
%TO.N,GND*%
X169400000Y-50800000D03*
%TO.P,SW3,S2*%
%TO.N,Net-(C11-Pad1)*%
X169400000Y-55800000D03*
%TD*%
D22*
%TO.P,R8,2*%
%TO.N,Net-(C11-Pad1)*%
X170180000Y-62230000D03*
D23*
%TO.P,R8,1*%
%TO.N,SW_COM_ENC_MHZ*%
X162560000Y-62230000D03*
%TD*%
D22*
%TO.P,R7,2*%
%TO.N,+5V*%
X110490000Y-54610000D03*
D23*
%TO.P,R7,1*%
%TO.N,Net-(R7-Pad1)*%
X118110000Y-54610000D03*
%TD*%
D22*
%TO.P,R6,2*%
%TO.N,B_COM_ENC_MHZ*%
X76200000Y-58420000D03*
D23*
%TO.P,R6,1*%
%TO.N,Net-(C10-Pad1)*%
X68580000Y-58420000D03*
%TD*%
D22*
%TO.P,R5,2*%
%TO.N,A_COM_ENC_MHZ*%
X176530000Y-41910000D03*
D23*
%TO.P,R5,1*%
%TO.N,Net-(C9-Pad2)*%
X176530000Y-49530000D03*
%TD*%
D22*
%TO.P,R4,2*%
%TO.N,Net-(C6-Pad1)*%
X135890000Y-62230000D03*
D23*
%TO.P,R4,1*%
%TO.N,SW_COM_ENC_KHZ*%
X143510000Y-62230000D03*
%TD*%
D22*
%TO.P,R3,2*%
%TO.N,B_COM_ENC_KHZ*%
X147320000Y-59690000D03*
D23*
%TO.P,R3,1*%
%TO.N,Net-(C5-Pad1)*%
X147320000Y-52070000D03*
%TD*%
D22*
%TO.P,R2,2*%
%TO.N,A_COM_ENC_KHZ*%
X148590000Y-40640000D03*
D23*
%TO.P,R2,1*%
%TO.N,Net-(C4-Pad2)*%
X148590000Y-33020000D03*
%TD*%
D22*
%TO.P,R1,2*%
%TO.N,+5V*%
X50800000Y-58420000D03*
D23*
%TO.P,R1,1*%
%TO.N,Net-(R1-Pad1)*%
X58420000Y-58420000D03*
%TD*%
D24*
%TO.P,J1,30*%
%TO.N,GND*%
X96520000Y-58420000D03*
%TO.P,J1,29*%
%TO.N,Net-(J1-Pad29)*%
X96520000Y-60960000D03*
%TO.P,J1,28*%
%TO.N,Net-(J1-Pad28)*%
X99060000Y-58420000D03*
%TO.P,J1,27*%
%TO.N,Net-(J1-Pad27)*%
X99060000Y-60960000D03*
%TO.P,J1,26*%
%TO.N,Net-(J1-Pad26)*%
X101600000Y-58420000D03*
%TO.P,J1,25*%
%TO.N,Net-(J1-Pad25)*%
X101600000Y-60960000D03*
%TO.P,J1,24*%
%TO.N,Net-(J1-Pad24)*%
X104140000Y-58420000D03*
%TO.P,J1,23*%
%TO.N,Net-(J1-Pad23)*%
X104140000Y-60960000D03*
%TO.P,J1,22*%
%TO.N,Net-(J1-Pad22)*%
X106680000Y-58420000D03*
%TO.P,J1,21*%
%TO.N,Net-(J1-Pad21)*%
X106680000Y-60960000D03*
%TO.P,J1,20*%
%TO.N,Net-(J1-Pad20)*%
X109220000Y-58420000D03*
%TO.P,J1,19*%
%TO.N,Net-(J1-Pad19)*%
X109220000Y-60960000D03*
%TO.P,J1,18*%
%TO.N,Net-(J1-Pad18)*%
X111760000Y-58420000D03*
%TO.P,J1,17*%
%TO.N,Net-(J1-Pad17)*%
X111760000Y-60960000D03*
%TO.P,J1,16*%
%TO.N,Net-(J1-Pad16)*%
X114300000Y-58420000D03*
%TO.P,J1,15*%
%TO.N,Net-(J1-Pad15)*%
X114300000Y-60960000D03*
%TO.P,J1,14*%
%TO.N,Net-(J1-Pad14)*%
X116840000Y-58420000D03*
%TO.P,J1,13*%
%TO.N,DOUT*%
X116840000Y-60960000D03*
%TO.P,J1,12*%
%TO.N,SW_COM_ENC_MHZ*%
X119380000Y-58420000D03*
%TO.P,J1,11*%
%TO.N,B_COM_ENC_MHZ*%
X119380000Y-60960000D03*
%TO.P,J1,10*%
%TO.N,A_COM_ENC_MHZ*%
X121920000Y-58420000D03*
%TO.P,J1,9*%
%TO.N,SW_COM_ENC_KHZ*%
X121920000Y-60960000D03*
%TO.P,J1,8*%
%TO.N,B_COM_ENC_KHZ*%
X124460000Y-58420000D03*
%TO.P,J1,7*%
%TO.N,A_COM_ENC_KHZ*%
X124460000Y-60960000D03*
%TO.P,J1,6*%
%TO.N,COM_SWAP*%
X127000000Y-58420000D03*
%TO.P,J1,5*%
%TO.N,Net-(J1-Pad5)*%
X127000000Y-60960000D03*
%TO.P,J1,4*%
%TO.N,CS_MAX*%
X129540000Y-58420000D03*
%TO.P,J1,3*%
%TO.N,CLK*%
X129540000Y-60960000D03*
%TO.P,J1,2*%
%TO.N,DIN*%
X132080000Y-58420000D03*
D25*
%TO.P,J1,1*%
%TO.N,+5V*%
X132080000Y-60960000D03*
%TD*%
D20*
%TO.P,C11,2*%
%TO.N,GND*%
X176530000Y-52110000D03*
%TO.P,C11,1*%
%TO.N,Net-(C11-Pad1)*%
X176530000Y-54610000D03*
%TD*%
%TO.P,C10,2*%
%TO.N,GND*%
X62230000Y-58420000D03*
%TO.P,C10,1*%
%TO.N,Net-(C10-Pad1)*%
X64730000Y-58420000D03*
%TD*%
%TO.P,C9,2*%
%TO.N,Net-(C9-Pad2)*%
X176530000Y-36870000D03*
%TO.P,C9,1*%
%TO.N,GND*%
X176530000Y-39370000D03*
%TD*%
%TO.P,C8,2*%
%TO.N,GND*%
X157440000Y-62230000D03*
%TO.P,C8,1*%
%TO.N,+5V*%
X154940000Y-62230000D03*
%TD*%
%TO.P,C6,2*%
%TO.N,GND*%
X142200000Y-49530000D03*
%TO.P,C6,1*%
%TO.N,Net-(C6-Pad1)*%
X139700000Y-49530000D03*
%TD*%
%TO.P,C5,2*%
%TO.N,GND*%
X139740000Y-44450000D03*
%TO.P,C5,1*%
%TO.N,Net-(C5-Pad1)*%
X142240000Y-44450000D03*
%TD*%
%TO.P,C4,2*%
%TO.N,Net-(C4-Pad2)*%
X148630000Y-27940000D03*
%TO.P,C4,1*%
%TO.N,GND*%
X151130000Y-27940000D03*
%TD*%
%TO.P,C3,2*%
%TO.N,GND*%
X83780000Y-58420000D03*
%TO.P,C3,1*%
%TO.N,COM_SWAP*%
X81280000Y-58420000D03*
%TD*%
%TO.P,C1,2*%
%TO.N,GND*%
X146090000Y-46990000D03*
D21*
%TO.P,C1,1*%
%TO.N,+5V*%
X148590000Y-46990000D03*
%TD*%
D26*
%TO.N,DIN*%
X106838876Y-56148866D03*
%TD*%
D27*
%TO.N,GND*%
X157440000Y-55800000D02*
X157440000Y-62230000D01*
X154940000Y-53300000D02*
X157440000Y-55800000D01*
X169440000Y-50800000D02*
X162440000Y-50800000D01*
X162440000Y-50800000D02*
X157440000Y-55800000D01*
X146090000Y-46990000D02*
X144740000Y-46990000D01*
X144740000Y-46990000D02*
X142200000Y-49530000D01*
D28*
X123190000Y-43180000D02*
X123190000Y-41604700D01*
D27*
X154940000Y-35520000D02*
X166940000Y-35520000D01*
X166940000Y-35520000D02*
X169440000Y-33020000D01*
D28*
X49530000Y-43688000D02*
X49530000Y-44450000D01*
X62230000Y-44450000D02*
X62230000Y-43434000D01*
X62230000Y-43434000D02*
X61468000Y-42672000D01*
X61468000Y-42672000D02*
X50546000Y-42672000D01*
X50546000Y-42672000D02*
X49530000Y-43688000D01*
D27*
X153884000Y-53300000D02*
X154940000Y-53300000D01*
X152759400Y-52175400D02*
X153884000Y-53300000D01*
X151275400Y-52175400D02*
X152759400Y-52175400D01*
X146090000Y-46990000D02*
X151275400Y-52175400D01*
X96520000Y-55753000D02*
X96520000Y-58420000D01*
X97663000Y-54610000D02*
X96520000Y-55753000D01*
X105450000Y-54610000D02*
X97663000Y-54610000D01*
D28*
X122987300Y-41402000D02*
X123190000Y-41604700D01*
X110871000Y-41402000D02*
X122987300Y-41402000D01*
X110490000Y-41783000D02*
X110871000Y-41402000D01*
X110490000Y-43180000D02*
X110490000Y-41783000D01*
X123392700Y-41402000D02*
X123190000Y-41604700D01*
X135001000Y-41402000D02*
X123392700Y-41402000D01*
X138049000Y-44450000D02*
X135001000Y-41402000D01*
X139740000Y-44450000D02*
X138049000Y-44450000D01*
D27*
%TO.N,+5V*%
X110490000Y-54610000D02*
X107950000Y-54610000D01*
X140970000Y-58420000D02*
X139794700Y-58420000D01*
X139794700Y-58420000D02*
X137254700Y-60960000D01*
X137254700Y-60960000D02*
X132080000Y-60960000D01*
X67723700Y-62103000D02*
X71533700Y-58293000D01*
X52578000Y-62103000D02*
X67723700Y-62103000D01*
X50800000Y-60325000D02*
X52578000Y-62103000D01*
X50800000Y-58420000D02*
X50800000Y-60325000D01*
X54610000Y-53213000D02*
X54610000Y-52070000D01*
X50800000Y-57023000D02*
X54610000Y-53213000D01*
X50800000Y-58420000D02*
X50800000Y-57023000D01*
D28*
X70310850Y-59515850D02*
X70228700Y-59598000D01*
X90891900Y-54610000D02*
X75216700Y-54610000D01*
X95971900Y-59690000D02*
X90891900Y-54610000D01*
X75216700Y-54610000D02*
X70310850Y-59515850D01*
X100330000Y-59309000D02*
X99949000Y-59690000D01*
X100330000Y-57150000D02*
X100330000Y-59309000D01*
X99949000Y-59690000D02*
X95971900Y-59690000D01*
X101219000Y-56261000D02*
X100330000Y-57150000D01*
X105560000Y-56261000D02*
X101219000Y-56261000D01*
X107211000Y-54610000D02*
X105560000Y-56261000D01*
X107950000Y-54610000D02*
X107211000Y-54610000D01*
%TO.N,CLK*%
X70179700Y-52705000D02*
X69850000Y-52375300D01*
X128905000Y-52705000D02*
X70179700Y-52705000D01*
X130810000Y-50800000D02*
X128905000Y-52705000D01*
%TO.N,DIN*%
X123907900Y-59690000D02*
X123190000Y-58972100D01*
D27*
X122315866Y-56148866D02*
X106838876Y-56148866D01*
X123190000Y-57023000D02*
X122315866Y-56148866D01*
D28*
X132080000Y-58420000D02*
X130810000Y-59690000D01*
X130810000Y-59690000D02*
X123907900Y-59690000D01*
X123190000Y-58972100D02*
X123190000Y-57023000D01*
D27*
%TO.N,CS_MAX*%
X130810000Y-44755300D02*
X130810000Y-43180000D01*
X128575300Y-46990000D02*
X130810000Y-44755300D01*
X70814700Y-46990000D02*
X128575300Y-46990000D01*
X69850000Y-46025300D02*
X70814700Y-46990000D01*
X69850000Y-44450000D02*
X69850000Y-46025300D01*
%TO.N,Net-(U1-Pad23)*%
X40472600Y-38648400D02*
X40745100Y-38648400D01*
X38608000Y-45339000D02*
X38608000Y-40513000D01*
X38608000Y-40513000D02*
X40472600Y-38648400D01*
X44450000Y-51181000D02*
X38608000Y-45339000D01*
X44450000Y-52070000D02*
X44450000Y-51181000D01*
D28*
X78362500Y-40255500D02*
X78362500Y-38572200D01*
X77121800Y-41496200D02*
X78362500Y-40255500D01*
X60956200Y-41496200D02*
X77121800Y-41496200D01*
X58180000Y-38720000D02*
X60956200Y-41496200D01*
D27*
%TO.N,Net-(U1-Pad22)*%
X60720000Y-36971000D02*
X60720000Y-38720000D01*
X59857400Y-36108400D02*
X60720000Y-36971000D01*
X45825100Y-36108400D02*
X59857400Y-36108400D01*
D28*
X60720000Y-39384000D02*
X60720000Y-38720000D01*
X61849000Y-40513000D02*
X60720000Y-39384000D01*
X69850000Y-40513000D02*
X61849000Y-40513000D01*
X75565000Y-34798000D02*
X69850000Y-40513000D01*
X82550000Y-34798000D02*
X75565000Y-34798000D01*
X83442500Y-35690500D02*
X82550000Y-34798000D01*
X83442500Y-36032200D02*
X83442500Y-35690500D01*
D27*
%TO.N,Net-(U1-Pad10)*%
X49298689Y-42121989D02*
X45825100Y-38648400D01*
X63838989Y-42121989D02*
X49298689Y-42121989D01*
X64770000Y-43053000D02*
X63838989Y-42121989D01*
X64770000Y-44450000D02*
X64770000Y-43053000D01*
%TO.N,Net-(U1-Pad21)*%
X40745100Y-36108400D02*
X41974700Y-37338000D01*
D28*
X54258000Y-37338000D02*
X55640000Y-38720000D01*
X41974700Y-37338000D02*
X54258000Y-37338000D01*
X56642000Y-36830000D02*
X55640000Y-37832000D01*
X59450000Y-37225000D02*
X59055000Y-36830000D01*
X55640000Y-37832000D02*
X55640000Y-38720000D01*
X59450000Y-39102300D02*
X59450000Y-37225000D01*
X59055000Y-36830000D02*
X56642000Y-36830000D01*
X61310711Y-40963011D02*
X59450000Y-39102300D01*
X70542989Y-40963011D02*
X61310711Y-40963011D01*
X75473800Y-36032200D02*
X70542989Y-40963011D01*
X78362500Y-36032200D02*
X75473800Y-36032200D01*
D27*
%TO.N,Net-(U1-Pad20)*%
X60619400Y-33568400D02*
X45825100Y-33568400D01*
X63260000Y-36209000D02*
X60619400Y-33568400D01*
X63260000Y-38720000D02*
X63260000Y-36209000D01*
X69722000Y-32258000D02*
X63260000Y-38720000D01*
D28*
X82296000Y-32258000D02*
X69722000Y-32258000D01*
D27*
X83442500Y-33404500D02*
X82296000Y-32258000D01*
X83442500Y-33492200D02*
X83442500Y-33404500D01*
%TO.N,Net-(U1-Pad17)*%
X65800000Y-38720000D02*
X71027800Y-33492200D01*
X71027800Y-33492200D02*
X78362500Y-33492200D01*
D28*
X65800000Y-39419000D02*
X65800000Y-38720000D01*
X65214000Y-40005000D02*
X65800000Y-39419000D01*
X62484000Y-40005000D02*
X65214000Y-40005000D01*
X61990000Y-39511000D02*
X62484000Y-40005000D01*
X61990000Y-36590000D02*
X61990000Y-39511000D01*
X60093700Y-34693700D02*
X61990000Y-36590000D01*
X41870400Y-34693700D02*
X60093700Y-34693700D01*
X40745100Y-33568400D02*
X41870400Y-34693700D01*
D27*
%TO.N,Net-(U1-Pad16)*%
X83442500Y-30952200D02*
X82317200Y-29826900D01*
X46800700Y-32004000D02*
X45825100Y-31028400D01*
X64896000Y-32004000D02*
X46800700Y-32004000D01*
X68340000Y-28560000D02*
X64896000Y-32004000D01*
D28*
X82208300Y-29718000D02*
X69715800Y-29718000D01*
X82317200Y-29826900D02*
X82208300Y-29718000D01*
D27*
X69498000Y-29718000D02*
X68340000Y-28560000D01*
X69977000Y-29718000D02*
X69498000Y-29718000D01*
%TO.N,Net-(U1-Pad15)*%
X59499000Y-29781000D02*
X60720000Y-28560000D01*
X59376900Y-29903100D02*
X59499000Y-29781000D01*
X59054000Y-30226000D02*
X59499000Y-29781000D01*
X48895000Y-25908000D02*
X53213000Y-30226000D01*
X38862000Y-25908000D02*
X48895000Y-25908000D01*
X53213000Y-30226000D02*
X59054000Y-30226000D01*
X38100000Y-26670000D02*
X38862000Y-25908000D01*
X38100000Y-30353000D02*
X38100000Y-26670000D01*
X38775400Y-31028400D02*
X38100000Y-30353000D01*
X40745100Y-31028400D02*
X38775400Y-31028400D01*
%TO.N,Net-(U1-Pad14)*%
X60324000Y-26416000D02*
X58180000Y-28560000D01*
X82042000Y-26416000D02*
X60324000Y-26416000D01*
X83442500Y-27816500D02*
X82042000Y-26416000D01*
X83442500Y-28412200D02*
X83442500Y-27816500D01*
D28*
%TO.N,Net-(U1-Pad2)*%
X66040000Y-46101000D02*
X66040000Y-42545000D01*
D27*
X64643000Y-47498000D02*
X66040000Y-46101000D01*
X45720000Y-47498000D02*
X64643000Y-47498000D01*
X44450000Y-46228000D02*
X45720000Y-47498000D01*
X44450000Y-44450000D02*
X44450000Y-46228000D01*
X83442500Y-40509500D02*
X83442500Y-38572200D01*
X81915000Y-42037000D02*
X83442500Y-40509500D01*
X66548000Y-42037000D02*
X81915000Y-42037000D01*
X66040000Y-42545000D02*
X66548000Y-42037000D01*
%TO.N,DOUT_MAX1*%
X102870000Y-49530000D02*
X102870000Y-50800000D01*
X101727000Y-48387000D02*
X102870000Y-49530000D01*
X43815000Y-48387000D02*
X101727000Y-48387000D01*
X41910000Y-46482000D02*
X43815000Y-48387000D01*
X41910000Y-44450000D02*
X41910000Y-46482000D01*
%TO.N,Net-(C4-Pad2)*%
X148630000Y-32980000D02*
X148590000Y-33020000D01*
X148630000Y-27940000D02*
X148630000Y-32980000D01*
X148630000Y-32980000D02*
X153524700Y-32980000D01*
X153524700Y-32980000D02*
X153564700Y-33020000D01*
X154940000Y-33020000D02*
X153564700Y-33020000D01*
%TO.N,Net-(C6-Pad1)*%
X157790000Y-38020000D02*
X169440000Y-38020000D01*
X152503000Y-43307000D02*
X157790000Y-38020000D01*
X145923000Y-43307000D02*
X152503000Y-43307000D01*
X139700000Y-49530000D02*
X145923000Y-43307000D01*
%TO.N,Net-(C9-Pad2)*%
X176530000Y-49530000D02*
X176424700Y-49424700D01*
X155829000Y-49911000D02*
X154940000Y-50800000D01*
X172720000Y-49530000D02*
X171831000Y-48641000D01*
X166243000Y-49911000D02*
X155829000Y-49911000D01*
X171831000Y-48641000D02*
X167513000Y-48641000D01*
X176319400Y-49530000D02*
X172720000Y-49530000D01*
X167513000Y-48641000D02*
X166243000Y-49911000D01*
X176424700Y-49424700D02*
X176319400Y-49530000D01*
X179578000Y-46271400D02*
X176424700Y-49424700D01*
X179578000Y-39918000D02*
X179578000Y-46271400D01*
X176530000Y-36870000D02*
X179578000Y-39918000D01*
%TO.N,Net-(C10-Pad1)*%
X64730000Y-58420000D02*
X68580000Y-58420000D01*
D28*
X154098000Y-55800000D02*
X154940000Y-55800000D01*
X151511000Y-53213000D02*
X154098000Y-55800000D01*
X73787000Y-53213000D02*
X151511000Y-53213000D01*
X68580000Y-58420000D02*
X73787000Y-53213000D01*
%TO.N,SW_COM_ENC_MHZ*%
X120650000Y-59690000D02*
X120650000Y-62902600D01*
X119380000Y-58420000D02*
X120650000Y-59690000D01*
D27*
X161860001Y-62929999D02*
X162560000Y-62230000D01*
X122051411Y-64304011D02*
X160485989Y-64304011D01*
X120694700Y-62947300D02*
X122051411Y-64304011D01*
X160485989Y-64304011D02*
X161860001Y-62929999D01*
%TO.N,B_COM_ENC_MHZ*%
X76200000Y-58547000D02*
X76200000Y-58420000D01*
X81407000Y-63754000D02*
X76200000Y-58547000D01*
X117221000Y-63754000D02*
X81407000Y-63754000D01*
X119380000Y-61595000D02*
X117221000Y-63754000D01*
X119380000Y-60960000D02*
X119380000Y-61595000D01*
%TO.N,SW_COM_ENC_KHZ*%
X141986000Y-63754000D02*
X143510000Y-62230000D01*
X124460000Y-63754000D02*
X141986000Y-63754000D01*
X121920000Y-61214000D02*
X124460000Y-63754000D01*
X121920000Y-60960000D02*
X121920000Y-61214000D01*
%TO.N,B_COM_ENC_KHZ*%
X147193000Y-59690000D02*
X147320000Y-59690000D01*
X141732000Y-54229000D02*
X147193000Y-59690000D01*
X127000000Y-54229000D02*
X141732000Y-54229000D01*
X124460000Y-56769000D02*
X127000000Y-54229000D01*
X124460000Y-58420000D02*
X124460000Y-56769000D01*
D28*
%TO.N,Net-(U5-Pad23)*%
X115783989Y-40443989D02*
X132472311Y-40443989D01*
X114060000Y-38720000D02*
X115783989Y-40443989D01*
X132472311Y-40443989D02*
X134306000Y-38610300D01*
D27*
X112678000Y-37338000D02*
X114060000Y-38720000D01*
D28*
X97859300Y-37338000D02*
X112678000Y-37338000D01*
D27*
X96587000Y-38610300D02*
X97859300Y-37338000D01*
%TO.N,Net-(U5-Pad22)*%
X101667000Y-36070300D02*
X113950300Y-36070300D01*
X113950300Y-36070300D02*
X116600000Y-38720000D01*
X138684000Y-48006000D02*
X140939900Y-45750100D01*
X109093000Y-48006000D02*
X138684000Y-48006000D01*
X107950000Y-49149000D02*
X109093000Y-48006000D01*
X107950000Y-50800000D02*
X107950000Y-49149000D01*
D28*
X140939900Y-45750100D02*
X140939900Y-42067100D01*
D27*
X141732000Y-38416300D02*
X139386000Y-36070300D01*
X141732000Y-41275000D02*
X141732000Y-38416300D01*
X140939900Y-42067100D02*
X141732000Y-41275000D01*
%TO.N,Net-(U5-Pad10)*%
X104140000Y-41083300D02*
X101667000Y-38610300D01*
D28*
X104140000Y-44831000D02*
X104140000Y-41083300D01*
D27*
X124333000Y-46101000D02*
X105410000Y-46101000D01*
X105410000Y-46101000D02*
X104140000Y-44831000D01*
X125730000Y-44704000D02*
X124333000Y-46101000D01*
X125730000Y-43180000D02*
X125730000Y-44704000D01*
%TO.N,Net-(U5-Pad20)*%
X101667000Y-33530300D02*
X113950300Y-33530300D01*
X113950300Y-33530300D02*
X119140000Y-38720000D01*
D28*
X139386000Y-33530300D02*
X138118300Y-34798000D01*
X130796400Y-34798000D02*
X125600422Y-39993978D01*
X125600422Y-39993978D02*
X120413978Y-39993978D01*
X138118300Y-34798000D02*
X130796400Y-34798000D01*
X120413978Y-39993978D02*
X119140000Y-38720000D01*
D27*
%TO.N,Net-(U5-Pad17)*%
X121680000Y-38720000D02*
X126869700Y-33530300D01*
X126869700Y-33530300D02*
X134306000Y-33530300D01*
X115218000Y-32258000D02*
X121680000Y-38720000D01*
D28*
X97859300Y-32258000D02*
X115218000Y-32258000D01*
D27*
X96587000Y-33530300D02*
X97859300Y-32258000D01*
%TO.N,Net-(U5-Pad16)*%
X101667000Y-30990300D02*
X121789700Y-30990300D01*
X121789700Y-30990300D02*
X124220000Y-28560000D01*
X125378000Y-29718000D02*
X124220000Y-28560000D01*
X139194300Y-30990300D02*
X137922000Y-29718000D01*
D28*
X137922000Y-29718000D02*
X125378000Y-29718000D01*
D27*
X139386000Y-30990300D02*
X139194300Y-30990300D01*
%TO.N,Net-(U5-Pad15)*%
X115061000Y-30099000D02*
X115569000Y-29591000D01*
X110363000Y-30099000D02*
X115061000Y-30099000D01*
X115569000Y-29591000D02*
X116600000Y-28560000D01*
X109982000Y-29718000D02*
X110363000Y-30099000D01*
D28*
X97859300Y-29718000D02*
X109982000Y-29718000D01*
D27*
X96587000Y-30990300D02*
X97859300Y-29718000D01*
%TO.N,Net-(U5-Pad14)*%
X114060000Y-27325000D02*
X114060000Y-28560000D01*
X103574300Y-26543000D02*
X101667000Y-28450300D01*
X113278000Y-26543000D02*
X103574300Y-26543000D01*
X114060000Y-27325000D02*
X113278000Y-26543000D01*
X114842000Y-26543000D02*
X114060000Y-27325000D01*
X137668000Y-26543000D02*
X114842000Y-26543000D01*
X139386000Y-28261000D02*
X137668000Y-26543000D01*
X139386000Y-28450300D02*
X139386000Y-28261000D01*
D28*
%TO.N,Net-(U5-Pad2)*%
X139386000Y-39735600D02*
X139386000Y-38610300D01*
X106120700Y-40894000D02*
X138227600Y-40894000D01*
X105410000Y-41604700D02*
X106120700Y-40894000D01*
X138227600Y-40894000D02*
X139386000Y-39735600D01*
X105410000Y-43180000D02*
X105410000Y-41604700D01*
%TD*%
D29*
%TO.N,GND*%
X180550001Y-64470000D02*
X161465512Y-64470000D01*
X162380136Y-63555377D01*
X162428514Y-63565000D01*
X162691486Y-63565000D01*
X162949405Y-63513696D01*
X163192359Y-63413061D01*
X163411013Y-63266962D01*
X163596962Y-63081013D01*
X163743061Y-62862359D01*
X163843696Y-62619405D01*
X163895000Y-62361486D01*
X163895000Y-62098514D01*
X168845000Y-62098514D01*
X168845000Y-62361486D01*
X168896304Y-62619405D01*
X168996939Y-62862359D01*
X169143038Y-63081013D01*
X169328987Y-63266962D01*
X169547641Y-63413061D01*
X169790595Y-63513696D01*
X170048514Y-63565000D01*
X170311486Y-63565000D01*
X170569405Y-63513696D01*
X170812359Y-63413061D01*
X171031013Y-63266962D01*
X171216962Y-63081013D01*
X171363061Y-62862359D01*
X171463696Y-62619405D01*
X171515000Y-62361486D01*
X171515000Y-62098514D01*
X171463696Y-61840595D01*
X171363061Y-61597641D01*
X171216962Y-61378987D01*
X171031013Y-61193038D01*
X170812359Y-61046939D01*
X170569405Y-60946304D01*
X170311486Y-60895000D01*
X170048514Y-60895000D01*
X169790595Y-60946304D01*
X169547641Y-61046939D01*
X169328987Y-61193038D01*
X169143038Y-61378987D01*
X168996939Y-61597641D01*
X168896304Y-61840595D01*
X168845000Y-62098514D01*
X163895000Y-62098514D01*
X163843696Y-61840595D01*
X163743061Y-61597641D01*
X163596962Y-61378987D01*
X163411013Y-61193038D01*
X163192359Y-61046939D01*
X162949405Y-60946304D01*
X162691486Y-60895000D01*
X162428514Y-60895000D01*
X162170595Y-60946304D01*
X161927641Y-61046939D01*
X161708987Y-61193038D01*
X161523038Y-61378987D01*
X161376939Y-61597641D01*
X161276304Y-61840595D01*
X161225000Y-62098514D01*
X161225000Y-62361486D01*
X161234623Y-62409864D01*
X160150477Y-63494011D01*
X158130364Y-63494011D01*
X158181514Y-63466671D01*
X158253097Y-63222702D01*
X157440000Y-62409605D01*
X156626903Y-63222702D01*
X156698486Y-63466671D01*
X156756266Y-63494011D01*
X155631204Y-63494011D01*
X155854759Y-63344637D01*
X156054637Y-63144759D01*
X156188692Y-62944131D01*
X156203329Y-62971514D01*
X156447298Y-63043097D01*
X157260395Y-62230000D01*
X157619605Y-62230000D01*
X158432702Y-63043097D01*
X158676671Y-62971514D01*
X158797571Y-62716004D01*
X158866300Y-62441816D01*
X158880217Y-62159488D01*
X158838787Y-61879870D01*
X158743603Y-61613708D01*
X158676671Y-61488486D01*
X158432702Y-61416903D01*
X157619605Y-62230000D01*
X157260395Y-62230000D01*
X156447298Y-61416903D01*
X156203329Y-61488486D01*
X156189676Y-61517341D01*
X156054637Y-61315241D01*
X155976694Y-61237298D01*
X156626903Y-61237298D01*
X157440000Y-62050395D01*
X158253097Y-61237298D01*
X158181514Y-60993329D01*
X157926004Y-60872429D01*
X157651816Y-60803700D01*
X157369488Y-60789783D01*
X157089870Y-60831213D01*
X156823708Y-60926397D01*
X156698486Y-60993329D01*
X156626903Y-61237298D01*
X155976694Y-61237298D01*
X155854759Y-61115363D01*
X155619727Y-60958320D01*
X155358574Y-60850147D01*
X155081335Y-60795000D01*
X154798665Y-60795000D01*
X154521426Y-60850147D01*
X154260273Y-60958320D01*
X154025241Y-61115363D01*
X153825363Y-61315241D01*
X153668320Y-61550273D01*
X153560147Y-61811426D01*
X153505000Y-62088665D01*
X153505000Y-62371335D01*
X153560147Y-62648574D01*
X153668320Y-62909727D01*
X153825363Y-63144759D01*
X154025241Y-63344637D01*
X154248796Y-63494011D01*
X143946929Y-63494011D01*
X144142359Y-63413061D01*
X144361013Y-63266962D01*
X144546962Y-63081013D01*
X144693061Y-62862359D01*
X144793696Y-62619405D01*
X144845000Y-62361486D01*
X144845000Y-62098514D01*
X144793696Y-61840595D01*
X144693061Y-61597641D01*
X144546962Y-61378987D01*
X144361013Y-61193038D01*
X144142359Y-61046939D01*
X143899405Y-60946304D01*
X143641486Y-60895000D01*
X143378514Y-60895000D01*
X143120595Y-60946304D01*
X142877641Y-61046939D01*
X142658987Y-61193038D01*
X142473038Y-61378987D01*
X142326939Y-61597641D01*
X142226304Y-61840595D01*
X142175000Y-62098514D01*
X142175000Y-62361486D01*
X142184623Y-62409864D01*
X141650488Y-62944000D01*
X137018511Y-62944000D01*
X137073061Y-62862359D01*
X137173696Y-62619405D01*
X137225000Y-62361486D01*
X137225000Y-62098514D01*
X137173696Y-61840595D01*
X137144455Y-61770000D01*
X137214912Y-61770000D01*
X137254700Y-61773919D01*
X137294488Y-61770000D01*
X137294491Y-61770000D01*
X137413488Y-61758280D01*
X137566173Y-61711963D01*
X137706889Y-61636749D01*
X137830228Y-61535528D01*
X137855600Y-61504613D01*
X139705388Y-59654824D01*
X139718815Y-59671185D01*
X139815506Y-59750537D01*
X139925820Y-59809502D01*
X140045518Y-59845812D01*
X140170000Y-59858072D01*
X141770000Y-59858072D01*
X141894482Y-59845812D01*
X142014180Y-59809502D01*
X142124494Y-59750537D01*
X142221185Y-59671185D01*
X142300537Y-59574494D01*
X142359502Y-59464180D01*
X142395812Y-59344482D01*
X142408072Y-59220000D01*
X142408072Y-57620000D01*
X142395812Y-57495518D01*
X142359502Y-57375820D01*
X142300537Y-57265506D01*
X142221185Y-57168815D01*
X142124494Y-57089463D01*
X142014180Y-57030498D01*
X141894482Y-56994188D01*
X141770000Y-56981928D01*
X141762785Y-56981928D01*
X141783097Y-56912702D01*
X140970000Y-56099605D01*
X140156903Y-56912702D01*
X140177215Y-56981928D01*
X140170000Y-56981928D01*
X140045518Y-56994188D01*
X139925820Y-57030498D01*
X139815506Y-57089463D01*
X139718815Y-57168815D01*
X139639463Y-57265506D01*
X139580498Y-57375820D01*
X139544188Y-57495518D01*
X139531928Y-57620000D01*
X139531928Y-57653264D01*
X139483227Y-57668037D01*
X139342511Y-57743251D01*
X139219172Y-57844472D01*
X139193805Y-57875382D01*
X136919188Y-60150000D01*
X133568072Y-60150000D01*
X133568072Y-60110000D01*
X133555812Y-59985518D01*
X133519502Y-59865820D01*
X133460537Y-59755506D01*
X133381185Y-59658815D01*
X133284494Y-59579463D01*
X133174180Y-59520498D01*
X133101620Y-59498487D01*
X133233475Y-59366632D01*
X133395990Y-59123411D01*
X133507932Y-58853158D01*
X133565000Y-58566260D01*
X133565000Y-58273740D01*
X133507932Y-57986842D01*
X133395990Y-57716589D01*
X133233475Y-57473368D01*
X133026632Y-57266525D01*
X132783411Y-57104010D01*
X132513158Y-56992068D01*
X132226260Y-56935000D01*
X131933740Y-56935000D01*
X131646842Y-56992068D01*
X131376589Y-57104010D01*
X131133368Y-57266525D01*
X130926525Y-57473368D01*
X130810000Y-57647760D01*
X130693475Y-57473368D01*
X130486632Y-57266525D01*
X130243411Y-57104010D01*
X129973158Y-56992068D01*
X129686260Y-56935000D01*
X129393740Y-56935000D01*
X129106842Y-56992068D01*
X128836589Y-57104010D01*
X128593368Y-57266525D01*
X128386525Y-57473368D01*
X128270000Y-57647760D01*
X128153475Y-57473368D01*
X127946632Y-57266525D01*
X127703411Y-57104010D01*
X127433158Y-56992068D01*
X127146260Y-56935000D01*
X126853740Y-56935000D01*
X126566842Y-56992068D01*
X126296589Y-57104010D01*
X126053368Y-57266525D01*
X125846525Y-57473368D01*
X125730000Y-57647760D01*
X125613475Y-57473368D01*
X125406632Y-57266525D01*
X125270000Y-57175230D01*
X125270000Y-57104512D01*
X127335513Y-55039000D01*
X139909393Y-55039000D01*
X139977296Y-55106903D01*
X139733329Y-55178486D01*
X139612429Y-55433996D01*
X139543700Y-55708184D01*
X139529783Y-55990512D01*
X139571213Y-56270130D01*
X139666397Y-56536292D01*
X139733329Y-56661514D01*
X139977298Y-56733097D01*
X140790395Y-55920000D01*
X140776253Y-55905858D01*
X140955858Y-55726253D01*
X140970000Y-55740395D01*
X140984143Y-55726253D01*
X141163748Y-55905858D01*
X141149605Y-55920000D01*
X141962702Y-56733097D01*
X142206671Y-56661514D01*
X142327571Y-56406004D01*
X142396300Y-56131816D01*
X142400669Y-56043181D01*
X145985000Y-59627513D01*
X145985000Y-59821486D01*
X146036304Y-60079405D01*
X146136939Y-60322359D01*
X146283038Y-60541013D01*
X146468987Y-60726962D01*
X146687641Y-60873061D01*
X146930595Y-60973696D01*
X147188514Y-61025000D01*
X147451486Y-61025000D01*
X147709405Y-60973696D01*
X147952359Y-60873061D01*
X148171013Y-60726962D01*
X148356962Y-60541013D01*
X148503061Y-60322359D01*
X148603696Y-60079405D01*
X148655000Y-59821486D01*
X148655000Y-59558514D01*
X148603696Y-59300595D01*
X148503061Y-59057641D01*
X148356962Y-58838987D01*
X148171013Y-58653038D01*
X147952359Y-58506939D01*
X147709405Y-58406304D01*
X147451486Y-58355000D01*
X147188514Y-58355000D01*
X147034207Y-58385694D01*
X146298513Y-57650000D01*
X160261928Y-57650000D01*
X160261928Y-60150000D01*
X160274188Y-60274482D01*
X160310498Y-60394180D01*
X160369463Y-60504494D01*
X160448815Y-60601185D01*
X160545506Y-60680537D01*
X160655820Y-60739502D01*
X160775518Y-60775812D01*
X160900000Y-60788072D01*
X163900000Y-60788072D01*
X164024482Y-60775812D01*
X164142960Y-60739872D01*
X175565000Y-60739872D01*
X175565000Y-61180128D01*
X175650890Y-61611925D01*
X175819369Y-62018669D01*
X176063962Y-62384729D01*
X176375271Y-62696038D01*
X176741331Y-62940631D01*
X177148075Y-63109110D01*
X177579872Y-63195000D01*
X178020128Y-63195000D01*
X178451925Y-63109110D01*
X178858669Y-62940631D01*
X179224729Y-62696038D01*
X179536038Y-62384729D01*
X179780631Y-62018669D01*
X179949110Y-61611925D01*
X180035000Y-61180128D01*
X180035000Y-60739872D01*
X179949110Y-60308075D01*
X179780631Y-59901331D01*
X179536038Y-59535271D01*
X179224729Y-59223962D01*
X178858669Y-58979369D01*
X178451925Y-58810890D01*
X178020128Y-58725000D01*
X177579872Y-58725000D01*
X177148075Y-58810890D01*
X176741331Y-58979369D01*
X176375271Y-59223962D01*
X176063962Y-59535271D01*
X175819369Y-59901331D01*
X175650890Y-60308075D01*
X175565000Y-60739872D01*
X164142960Y-60739872D01*
X164144180Y-60739502D01*
X164254494Y-60680537D01*
X164351185Y-60601185D01*
X164430537Y-60504494D01*
X164489502Y-60394180D01*
X164525812Y-60274482D01*
X164538072Y-60150000D01*
X164538072Y-57650000D01*
X164525812Y-57525518D01*
X164489502Y-57405820D01*
X164430537Y-57295506D01*
X164351185Y-57198815D01*
X164254494Y-57119463D01*
X164144180Y-57060498D01*
X164024482Y-57024188D01*
X163900000Y-57011928D01*
X160900000Y-57011928D01*
X160775518Y-57024188D01*
X160655820Y-57060498D01*
X160545506Y-57119463D01*
X160448815Y-57198815D01*
X160369463Y-57295506D01*
X160310498Y-57405820D01*
X160274188Y-57525518D01*
X160261928Y-57650000D01*
X146298513Y-57650000D01*
X142621512Y-53973000D01*
X151196199Y-53973000D01*
X153285055Y-56061858D01*
X153327832Y-56276912D01*
X153451082Y-56574463D01*
X153630013Y-56842252D01*
X153857748Y-57069987D01*
X154125537Y-57248918D01*
X154423088Y-57372168D01*
X154738967Y-57435000D01*
X155061033Y-57435000D01*
X155376912Y-57372168D01*
X155674463Y-57248918D01*
X155942252Y-57069987D01*
X156169987Y-56842252D01*
X156348918Y-56574463D01*
X156472168Y-56276912D01*
X156535000Y-55961033D01*
X156535000Y-55638967D01*
X167765000Y-55638967D01*
X167765000Y-55961033D01*
X167827832Y-56276912D01*
X167951082Y-56574463D01*
X168130013Y-56842252D01*
X168357748Y-57069987D01*
X168625537Y-57248918D01*
X168923088Y-57372168D01*
X169238967Y-57435000D01*
X169561033Y-57435000D01*
X169876912Y-57372168D01*
X170174463Y-57248918D01*
X170442252Y-57069987D01*
X170669987Y-56842252D01*
X170848918Y-56574463D01*
X170972168Y-56276912D01*
X171035000Y-55961033D01*
X171035000Y-55638967D01*
X170972168Y-55323088D01*
X170848918Y-55025537D01*
X170669987Y-54757748D01*
X170442252Y-54530013D01*
X170350439Y-54468665D01*
X175095000Y-54468665D01*
X175095000Y-54751335D01*
X175150147Y-55028574D01*
X175258320Y-55289727D01*
X175415363Y-55524759D01*
X175615241Y-55724637D01*
X175850273Y-55881680D01*
X176111426Y-55989853D01*
X176388665Y-56045000D01*
X176671335Y-56045000D01*
X176948574Y-55989853D01*
X177209727Y-55881680D01*
X177444759Y-55724637D01*
X177644637Y-55524759D01*
X177801680Y-55289727D01*
X177909853Y-55028574D01*
X177965000Y-54751335D01*
X177965000Y-54468665D01*
X177909853Y-54191426D01*
X177801680Y-53930273D01*
X177644637Y-53695241D01*
X177444759Y-53495363D01*
X177244131Y-53361308D01*
X177271514Y-53346671D01*
X177343097Y-53102702D01*
X176530000Y-52289605D01*
X175716903Y-53102702D01*
X175788486Y-53346671D01*
X175817341Y-53360324D01*
X175615241Y-53495363D01*
X175415363Y-53695241D01*
X175258320Y-53930273D01*
X175150147Y-54191426D01*
X175095000Y-54468665D01*
X170350439Y-54468665D01*
X170174463Y-54351082D01*
X169876912Y-54227832D01*
X169561033Y-54165000D01*
X169238967Y-54165000D01*
X168923088Y-54227832D01*
X168625537Y-54351082D01*
X168357748Y-54530013D01*
X168130013Y-54757748D01*
X167951082Y-55025537D01*
X167827832Y-55323088D01*
X167765000Y-55638967D01*
X156535000Y-55638967D01*
X156472168Y-55323088D01*
X156348918Y-55025537D01*
X156169987Y-54757748D01*
X155942252Y-54530013D01*
X155845065Y-54465075D01*
X155855808Y-54435413D01*
X154900000Y-53479605D01*
X154885858Y-53493748D01*
X154706253Y-53314143D01*
X154720395Y-53300000D01*
X154706253Y-53285858D01*
X154885858Y-53106253D01*
X154900000Y-53120395D01*
X154914143Y-53106253D01*
X155093748Y-53285858D01*
X155079605Y-53300000D01*
X156035413Y-54255808D01*
X156299814Y-54160044D01*
X156440704Y-53870429D01*
X156522384Y-53558892D01*
X156541718Y-53237405D01*
X156497961Y-52918325D01*
X156392795Y-52613912D01*
X156299814Y-52439956D01*
X156150777Y-52385976D01*
X156254494Y-52330537D01*
X156351185Y-52251185D01*
X156430537Y-52154494D01*
X156489502Y-52044180D01*
X156522496Y-51935413D01*
X168444192Y-51935413D01*
X168539956Y-52199814D01*
X168829571Y-52340704D01*
X169141108Y-52422384D01*
X169462595Y-52441718D01*
X169781675Y-52397961D01*
X170086088Y-52292795D01*
X170260044Y-52199814D01*
X170267035Y-52180512D01*
X175089783Y-52180512D01*
X175131213Y-52460130D01*
X175226397Y-52726292D01*
X175293329Y-52851514D01*
X175537298Y-52923097D01*
X176350395Y-52110000D01*
X176709605Y-52110000D01*
X177522702Y-52923097D01*
X177766671Y-52851514D01*
X177887571Y-52596004D01*
X177956300Y-52321816D01*
X177970217Y-52039488D01*
X177928787Y-51759870D01*
X177833603Y-51493708D01*
X177766671Y-51368486D01*
X177522702Y-51296903D01*
X176709605Y-52110000D01*
X176350395Y-52110000D01*
X175537298Y-51296903D01*
X175293329Y-51368486D01*
X175172429Y-51623996D01*
X175103700Y-51898184D01*
X175089783Y-52180512D01*
X170267035Y-52180512D01*
X170355808Y-51935413D01*
X169400000Y-50979605D01*
X168444192Y-51935413D01*
X156522496Y-51935413D01*
X156525812Y-51924482D01*
X156538072Y-51800000D01*
X156538072Y-50862595D01*
X167758282Y-50862595D01*
X167802039Y-51181675D01*
X167907205Y-51486088D01*
X168000186Y-51660044D01*
X168264587Y-51755808D01*
X169220395Y-50800000D01*
X169579605Y-50800000D01*
X170535413Y-51755808D01*
X170799814Y-51660044D01*
X170940704Y-51370429D01*
X171022384Y-51058892D01*
X171041718Y-50737405D01*
X170997961Y-50418325D01*
X170892795Y-50113912D01*
X170799814Y-49939956D01*
X170535413Y-49844192D01*
X169579605Y-50800000D01*
X169220395Y-50800000D01*
X168264587Y-49844192D01*
X168000186Y-49939956D01*
X167859296Y-50229571D01*
X167777616Y-50541108D01*
X167758282Y-50862595D01*
X156538072Y-50862595D01*
X156538072Y-50721000D01*
X166203212Y-50721000D01*
X166243000Y-50724919D01*
X166282788Y-50721000D01*
X166282791Y-50721000D01*
X166401788Y-50709280D01*
X166554473Y-50662963D01*
X166695189Y-50587749D01*
X166818528Y-50486528D01*
X166843899Y-50455613D01*
X167848513Y-49451000D01*
X168521552Y-49451000D01*
X168444192Y-49664587D01*
X169400000Y-50620395D01*
X170355808Y-49664587D01*
X170278448Y-49451000D01*
X171495488Y-49451000D01*
X172119105Y-50074618D01*
X172144472Y-50105528D01*
X172203796Y-50154214D01*
X172267810Y-50206749D01*
X172310508Y-50229571D01*
X172408527Y-50281963D01*
X172561212Y-50328280D01*
X172680209Y-50340000D01*
X172680212Y-50340000D01*
X172720000Y-50343919D01*
X172759788Y-50340000D01*
X175465634Y-50340000D01*
X175493038Y-50381013D01*
X175678987Y-50566962D01*
X175897641Y-50713061D01*
X176026013Y-50766235D01*
X175913708Y-50806397D01*
X175788486Y-50873329D01*
X175716903Y-51117298D01*
X176530000Y-51930395D01*
X177343097Y-51117298D01*
X177271514Y-50873329D01*
X177039956Y-50763762D01*
X177162359Y-50713061D01*
X177381013Y-50566962D01*
X177566962Y-50381013D01*
X177713061Y-50162359D01*
X177813696Y-49919405D01*
X177865000Y-49661486D01*
X177865000Y-49398514D01*
X177820436Y-49174477D01*
X180122618Y-46872295D01*
X180153528Y-46846928D01*
X180254749Y-46723589D01*
X180299007Y-46640788D01*
X180329963Y-46582874D01*
X180343128Y-46539473D01*
X180376280Y-46430188D01*
X180388000Y-46311191D01*
X180388000Y-46311188D01*
X180391919Y-46271400D01*
X180388000Y-46231612D01*
X180388000Y-39957788D01*
X180391919Y-39918000D01*
X180385350Y-39851303D01*
X180376280Y-39759212D01*
X180329963Y-39606527D01*
X180290654Y-39532985D01*
X180254749Y-39465810D01*
X180198072Y-39396749D01*
X180153528Y-39342472D01*
X180122619Y-39317106D01*
X177940420Y-37134907D01*
X177965000Y-37011335D01*
X177965000Y-36728665D01*
X177909853Y-36451426D01*
X177801680Y-36190273D01*
X177644637Y-35955241D01*
X177444759Y-35755363D01*
X177209727Y-35598320D01*
X176948574Y-35490147D01*
X176671335Y-35435000D01*
X176388665Y-35435000D01*
X176111426Y-35490147D01*
X175850273Y-35598320D01*
X175615241Y-35755363D01*
X175415363Y-35955241D01*
X175258320Y-36190273D01*
X175150147Y-36451426D01*
X175095000Y-36728665D01*
X175095000Y-37011335D01*
X175150147Y-37288574D01*
X175258320Y-37549727D01*
X175415363Y-37784759D01*
X175615241Y-37984637D01*
X175815869Y-38118692D01*
X175788486Y-38133329D01*
X175716903Y-38377298D01*
X176530000Y-39190395D01*
X176544143Y-39176253D01*
X176723748Y-39355858D01*
X176709605Y-39370000D01*
X177522702Y-40183097D01*
X177766671Y-40111514D01*
X177887571Y-39856004D01*
X177956300Y-39581816D01*
X177962877Y-39448390D01*
X178768000Y-40253513D01*
X178768001Y-45935886D01*
X176508888Y-48195000D01*
X176398514Y-48195000D01*
X176140595Y-48246304D01*
X175897641Y-48346939D01*
X175678987Y-48493038D01*
X175493038Y-48678987D01*
X175465634Y-48720000D01*
X173055513Y-48720000D01*
X172431899Y-48096387D01*
X172406528Y-48065472D01*
X172283189Y-47964251D01*
X172142473Y-47889037D01*
X171989788Y-47842720D01*
X171870791Y-47831000D01*
X171870788Y-47831000D01*
X171831000Y-47827081D01*
X171791212Y-47831000D01*
X167552787Y-47831000D01*
X167512999Y-47827081D01*
X167473211Y-47831000D01*
X167473209Y-47831000D01*
X167354212Y-47842720D01*
X167201527Y-47889037D01*
X167153923Y-47914482D01*
X167060810Y-47964251D01*
X167038328Y-47982702D01*
X166937472Y-48065472D01*
X166912105Y-48096382D01*
X165907488Y-49101000D01*
X164517768Y-49101000D01*
X164525812Y-49074482D01*
X164538072Y-48950000D01*
X164538072Y-46450000D01*
X164525812Y-46325518D01*
X164489502Y-46205820D01*
X164430537Y-46095506D01*
X164351185Y-45998815D01*
X164254494Y-45919463D01*
X164144180Y-45860498D01*
X164024482Y-45824188D01*
X163900000Y-45811928D01*
X160900000Y-45811928D01*
X160775518Y-45824188D01*
X160655820Y-45860498D01*
X160545506Y-45919463D01*
X160448815Y-45998815D01*
X160369463Y-46095506D01*
X160310498Y-46205820D01*
X160274188Y-46325518D01*
X160261928Y-46450000D01*
X160261928Y-48950000D01*
X160274188Y-49074482D01*
X160282232Y-49101000D01*
X155868788Y-49101000D01*
X155829000Y-49097081D01*
X155789212Y-49101000D01*
X155789209Y-49101000D01*
X155670212Y-49112720D01*
X155517527Y-49159037D01*
X155512118Y-49161928D01*
X153900000Y-49161928D01*
X153775518Y-49174188D01*
X153655820Y-49210498D01*
X153545506Y-49269463D01*
X153448815Y-49348815D01*
X153369463Y-49445506D01*
X153310498Y-49555820D01*
X153274188Y-49675518D01*
X153261928Y-49800000D01*
X153261928Y-51800000D01*
X153274188Y-51924482D01*
X153310498Y-52044180D01*
X153369463Y-52154494D01*
X153448815Y-52251185D01*
X153545506Y-52330537D01*
X153649223Y-52385976D01*
X153500186Y-52439956D01*
X153359296Y-52729571D01*
X153277616Y-53041108D01*
X153258282Y-53362595D01*
X153302039Y-53681675D01*
X153407205Y-53986088D01*
X153462683Y-54089881D01*
X152074804Y-52702003D01*
X152051001Y-52672999D01*
X151935276Y-52578026D01*
X151803247Y-52507454D01*
X151659986Y-52463997D01*
X151548333Y-52453000D01*
X151548322Y-52453000D01*
X151511000Y-52449324D01*
X151473678Y-52453000D01*
X148604970Y-52453000D01*
X148655000Y-52201486D01*
X148655000Y-51938514D01*
X148603696Y-51680595D01*
X148503061Y-51437641D01*
X148356962Y-51218987D01*
X148171013Y-51033038D01*
X147952359Y-50886939D01*
X147709405Y-50786304D01*
X147451486Y-50735000D01*
X147188514Y-50735000D01*
X146930595Y-50786304D01*
X146687641Y-50886939D01*
X146468987Y-51033038D01*
X146283038Y-51218987D01*
X146136939Y-51437641D01*
X146036304Y-51680595D01*
X145985000Y-51938514D01*
X145985000Y-52201486D01*
X146035030Y-52453000D01*
X131509946Y-52453000D01*
X131611100Y-52398932D01*
X131829607Y-52219608D01*
X132008932Y-52001101D01*
X132142182Y-51751808D01*
X132224236Y-51481309D01*
X132245000Y-51270492D01*
X132245000Y-50329509D01*
X132224236Y-50118691D01*
X132142182Y-49848192D01*
X132008932Y-49598899D01*
X131829608Y-49380392D01*
X131611101Y-49201068D01*
X131361808Y-49067818D01*
X131091309Y-48985764D01*
X130810000Y-48958057D01*
X130528692Y-48985764D01*
X130258193Y-49067818D01*
X130008900Y-49201068D01*
X129790393Y-49380392D01*
X129611068Y-49598899D01*
X129540000Y-49731858D01*
X129468932Y-49598899D01*
X129289608Y-49380392D01*
X129071101Y-49201068D01*
X128821808Y-49067818D01*
X128551309Y-48985764D01*
X128270000Y-48958057D01*
X127988692Y-48985764D01*
X127718193Y-49067818D01*
X127468900Y-49201068D01*
X127250393Y-49380392D01*
X127071068Y-49598899D01*
X127000000Y-49731858D01*
X126928932Y-49598899D01*
X126749608Y-49380392D01*
X126531101Y-49201068D01*
X126281808Y-49067818D01*
X126011309Y-48985764D01*
X125730000Y-48958057D01*
X125448692Y-48985764D01*
X125178193Y-49067818D01*
X124928900Y-49201068D01*
X124710393Y-49380392D01*
X124531068Y-49598899D01*
X124460000Y-49731858D01*
X124388932Y-49598899D01*
X124209608Y-49380392D01*
X123991101Y-49201068D01*
X123741808Y-49067818D01*
X123471309Y-48985764D01*
X123190000Y-48958057D01*
X122908692Y-48985764D01*
X122638193Y-49067818D01*
X122388900Y-49201068D01*
X122170393Y-49380392D01*
X121991068Y-49598899D01*
X121920000Y-49731858D01*
X121848932Y-49598899D01*
X121669608Y-49380392D01*
X121451101Y-49201068D01*
X121201808Y-49067818D01*
X120931309Y-48985764D01*
X120650000Y-48958057D01*
X120368692Y-48985764D01*
X120098193Y-49067818D01*
X119848900Y-49201068D01*
X119630393Y-49380392D01*
X119451068Y-49598899D01*
X119380000Y-49731858D01*
X119308932Y-49598899D01*
X119129608Y-49380392D01*
X118911101Y-49201068D01*
X118661808Y-49067818D01*
X118391309Y-48985764D01*
X118110000Y-48958057D01*
X117828692Y-48985764D01*
X117558193Y-49067818D01*
X117308900Y-49201068D01*
X117090393Y-49380392D01*
X116911068Y-49598899D01*
X116840000Y-49731858D01*
X116768932Y-49598899D01*
X116589608Y-49380392D01*
X116371101Y-49201068D01*
X116121808Y-49067818D01*
X115851309Y-48985764D01*
X115570000Y-48958057D01*
X115288692Y-48985764D01*
X115018193Y-49067818D01*
X114768900Y-49201068D01*
X114550393Y-49380392D01*
X114371068Y-49598899D01*
X114300000Y-49731858D01*
X114228932Y-49598899D01*
X114049608Y-49380392D01*
X113831101Y-49201068D01*
X113581808Y-49067818D01*
X113311309Y-48985764D01*
X113030000Y-48958057D01*
X112748692Y-48985764D01*
X112478193Y-49067818D01*
X112228900Y-49201068D01*
X112010393Y-49380392D01*
X111831068Y-49598899D01*
X111760000Y-49731858D01*
X111688932Y-49598899D01*
X111509608Y-49380392D01*
X111291101Y-49201068D01*
X111041808Y-49067818D01*
X110771309Y-48985764D01*
X110490000Y-48958057D01*
X110208692Y-48985764D01*
X109938193Y-49067818D01*
X109688900Y-49201068D01*
X109470393Y-49380392D01*
X109291068Y-49598899D01*
X109220000Y-49731858D01*
X109148932Y-49598899D01*
X108969608Y-49380392D01*
X108911669Y-49332843D01*
X109428513Y-48816000D01*
X138451220Y-48816000D01*
X138428320Y-48850273D01*
X138320147Y-49111426D01*
X138265000Y-49388665D01*
X138265000Y-49671335D01*
X138320147Y-49948574D01*
X138428320Y-50209727D01*
X138585363Y-50444759D01*
X138785241Y-50644637D01*
X139020273Y-50801680D01*
X139281426Y-50909853D01*
X139558665Y-50965000D01*
X139841335Y-50965000D01*
X140118574Y-50909853D01*
X140379727Y-50801680D01*
X140614759Y-50644637D01*
X140736694Y-50522702D01*
X141386903Y-50522702D01*
X141458486Y-50766671D01*
X141713996Y-50887571D01*
X141988184Y-50956300D01*
X142270512Y-50970217D01*
X142550130Y-50928787D01*
X142816292Y-50833603D01*
X142941514Y-50766671D01*
X143013097Y-50522702D01*
X142200000Y-49709605D01*
X141386903Y-50522702D01*
X140736694Y-50522702D01*
X140814637Y-50444759D01*
X140948692Y-50244131D01*
X140963329Y-50271514D01*
X141207298Y-50343097D01*
X142020395Y-49530000D01*
X142379605Y-49530000D01*
X143192702Y-50343097D01*
X143436671Y-50271514D01*
X143557571Y-50016004D01*
X143626300Y-49741816D01*
X143640217Y-49459488D01*
X143598787Y-49179870D01*
X143503603Y-48913708D01*
X143436671Y-48788486D01*
X143192702Y-48716903D01*
X142379605Y-49530000D01*
X142020395Y-49530000D01*
X142006253Y-49515858D01*
X142185858Y-49336253D01*
X142200000Y-49350395D01*
X143013097Y-48537298D01*
X142941514Y-48293329D01*
X142686004Y-48172429D01*
X142411816Y-48103700D01*
X142278389Y-48097123D01*
X142392810Y-47982702D01*
X145276903Y-47982702D01*
X145348486Y-48226671D01*
X145603996Y-48347571D01*
X145878184Y-48416300D01*
X146160512Y-48430217D01*
X146440130Y-48388787D01*
X146706292Y-48293603D01*
X146831514Y-48226671D01*
X146903097Y-47982702D01*
X146090000Y-47169605D01*
X145276903Y-47982702D01*
X142392810Y-47982702D01*
X143315000Y-47060512D01*
X144649783Y-47060512D01*
X144691213Y-47340130D01*
X144786397Y-47606292D01*
X144853329Y-47731514D01*
X145097298Y-47803097D01*
X145910395Y-46990000D01*
X146269605Y-46990000D01*
X147082702Y-47803097D01*
X147151928Y-47782785D01*
X147151928Y-47790000D01*
X147164188Y-47914482D01*
X147200498Y-48034180D01*
X147259463Y-48144494D01*
X147338815Y-48241185D01*
X147435506Y-48320537D01*
X147545820Y-48379502D01*
X147665518Y-48415812D01*
X147790000Y-48428072D01*
X149390000Y-48428072D01*
X149514482Y-48415812D01*
X149634180Y-48379502D01*
X149744494Y-48320537D01*
X149841185Y-48241185D01*
X149920537Y-48144494D01*
X149979502Y-48034180D01*
X150015812Y-47914482D01*
X150028072Y-47790000D01*
X150028072Y-46190000D01*
X150015812Y-46065518D01*
X149979502Y-45945820D01*
X149920537Y-45835506D01*
X149841185Y-45738815D01*
X149744494Y-45659463D01*
X149634180Y-45600498D01*
X149514482Y-45564188D01*
X149390000Y-45551928D01*
X147790000Y-45551928D01*
X147665518Y-45564188D01*
X147545820Y-45600498D01*
X147435506Y-45659463D01*
X147338815Y-45738815D01*
X147259463Y-45835506D01*
X147200498Y-45945820D01*
X147164188Y-46065518D01*
X147151928Y-46190000D01*
X147151928Y-46197215D01*
X147082702Y-46176903D01*
X146269605Y-46990000D01*
X145910395Y-46990000D01*
X145097298Y-46176903D01*
X144853329Y-46248486D01*
X144732429Y-46503996D01*
X144663700Y-46778184D01*
X144649783Y-47060512D01*
X143315000Y-47060512D01*
X144378214Y-45997298D01*
X145276903Y-45997298D01*
X146090000Y-46810395D01*
X146903097Y-45997298D01*
X146831514Y-45753329D01*
X146576004Y-45632429D01*
X146301816Y-45563700D01*
X146019488Y-45549783D01*
X145739870Y-45591213D01*
X145473708Y-45686397D01*
X145348486Y-45753329D01*
X145276903Y-45997298D01*
X144378214Y-45997298D01*
X146258513Y-44117000D01*
X152463212Y-44117000D01*
X152503000Y-44120919D01*
X152542788Y-44117000D01*
X152542791Y-44117000D01*
X152661788Y-44105280D01*
X152814473Y-44058963D01*
X152955189Y-43983749D01*
X153078528Y-43882528D01*
X153103900Y-43851612D01*
X157085512Y-39870000D01*
X160261928Y-39870000D01*
X160261928Y-42370000D01*
X160274188Y-42494482D01*
X160310498Y-42614180D01*
X160369463Y-42724494D01*
X160448815Y-42821185D01*
X160545506Y-42900537D01*
X160655820Y-42959502D01*
X160775518Y-42995812D01*
X160900000Y-43008072D01*
X163900000Y-43008072D01*
X164024482Y-42995812D01*
X164144180Y-42959502D01*
X164254494Y-42900537D01*
X164351185Y-42821185D01*
X164430537Y-42724494D01*
X164489502Y-42614180D01*
X164525812Y-42494482D01*
X164538072Y-42370000D01*
X164538072Y-41778514D01*
X175195000Y-41778514D01*
X175195000Y-42041486D01*
X175246304Y-42299405D01*
X175346939Y-42542359D01*
X175493038Y-42761013D01*
X175678987Y-42946962D01*
X175897641Y-43093061D01*
X176140595Y-43193696D01*
X176398514Y-43245000D01*
X176661486Y-43245000D01*
X176919405Y-43193696D01*
X177162359Y-43093061D01*
X177381013Y-42946962D01*
X177566962Y-42761013D01*
X177713061Y-42542359D01*
X177813696Y-42299405D01*
X177865000Y-42041486D01*
X177865000Y-41778514D01*
X177813696Y-41520595D01*
X177713061Y-41277641D01*
X177566962Y-41058987D01*
X177381013Y-40873038D01*
X177162359Y-40726939D01*
X177085811Y-40695232D01*
X177146292Y-40673603D01*
X177271514Y-40606671D01*
X177343097Y-40362702D01*
X176530000Y-39549605D01*
X175716903Y-40362702D01*
X175788486Y-40606671D01*
X175974968Y-40694909D01*
X175897641Y-40726939D01*
X175678987Y-40873038D01*
X175493038Y-41058987D01*
X175346939Y-41277641D01*
X175246304Y-41520595D01*
X175195000Y-41778514D01*
X164538072Y-41778514D01*
X164538072Y-39870000D01*
X164525812Y-39745518D01*
X164489502Y-39625820D01*
X164430537Y-39515506D01*
X164351185Y-39418815D01*
X164254494Y-39339463D01*
X164144180Y-39280498D01*
X164024482Y-39244188D01*
X163900000Y-39231928D01*
X160900000Y-39231928D01*
X160775518Y-39244188D01*
X160655820Y-39280498D01*
X160545506Y-39339463D01*
X160448815Y-39418815D01*
X160369463Y-39515506D01*
X160310498Y-39625820D01*
X160274188Y-39745518D01*
X160261928Y-39870000D01*
X157085512Y-39870000D01*
X158125513Y-38830000D01*
X167974827Y-38830000D01*
X168130013Y-39062252D01*
X168357748Y-39289987D01*
X168625537Y-39468918D01*
X168923088Y-39592168D01*
X169238967Y-39655000D01*
X169561033Y-39655000D01*
X169876912Y-39592168D01*
X170174463Y-39468918D01*
X170216975Y-39440512D01*
X175089783Y-39440512D01*
X175131213Y-39720130D01*
X175226397Y-39986292D01*
X175293329Y-40111514D01*
X175537298Y-40183097D01*
X176350395Y-39370000D01*
X175537298Y-38556903D01*
X175293329Y-38628486D01*
X175172429Y-38883996D01*
X175103700Y-39158184D01*
X175089783Y-39440512D01*
X170216975Y-39440512D01*
X170442252Y-39289987D01*
X170669987Y-39062252D01*
X170848918Y-38794463D01*
X170972168Y-38496912D01*
X171035000Y-38181033D01*
X171035000Y-37858967D01*
X170972168Y-37543088D01*
X170848918Y-37245537D01*
X170669987Y-36977748D01*
X170442252Y-36750013D01*
X170174463Y-36571082D01*
X169876912Y-36447832D01*
X169561033Y-36385000D01*
X169238967Y-36385000D01*
X168923088Y-36447832D01*
X168625537Y-36571082D01*
X168357748Y-36750013D01*
X168130013Y-36977748D01*
X167974827Y-37210000D01*
X157829787Y-37210000D01*
X157789999Y-37206081D01*
X157750211Y-37210000D01*
X157750209Y-37210000D01*
X157631212Y-37221720D01*
X157478527Y-37268037D01*
X157449710Y-37283440D01*
X157337810Y-37343251D01*
X157300361Y-37373985D01*
X157214472Y-37444472D01*
X157189105Y-37475382D01*
X156535000Y-38129487D01*
X156535000Y-37858967D01*
X156472168Y-37543088D01*
X156348918Y-37245537D01*
X156169987Y-36977748D01*
X155942252Y-36750013D01*
X155845065Y-36685075D01*
X155855808Y-36655413D01*
X154900000Y-35699605D01*
X153944192Y-36655413D01*
X153954935Y-36685075D01*
X153857748Y-36750013D01*
X153630013Y-36977748D01*
X153451082Y-37245537D01*
X153327832Y-37543088D01*
X153265000Y-37858967D01*
X153265000Y-38181033D01*
X153327832Y-38496912D01*
X153451082Y-38794463D01*
X153630013Y-39062252D01*
X153857748Y-39289987D01*
X154125537Y-39468918D01*
X154423088Y-39592168D01*
X154738967Y-39655000D01*
X155009487Y-39655000D01*
X152167488Y-42497000D01*
X145962788Y-42497000D01*
X145923000Y-42493081D01*
X145883212Y-42497000D01*
X145883209Y-42497000D01*
X145764212Y-42508720D01*
X145611527Y-42555037D01*
X145575717Y-42574178D01*
X145470810Y-42630251D01*
X145426508Y-42666609D01*
X145347472Y-42731472D01*
X145322107Y-42762380D01*
X143675000Y-44409487D01*
X143675000Y-44308665D01*
X143619853Y-44031426D01*
X143511680Y-43770273D01*
X143354637Y-43535241D01*
X143154759Y-43335363D01*
X142919727Y-43178320D01*
X142658574Y-43070147D01*
X142381335Y-43015000D01*
X142098665Y-43015000D01*
X141821426Y-43070147D01*
X141699900Y-43120485D01*
X141699900Y-42452612D01*
X142276619Y-41875894D01*
X142307528Y-41850528D01*
X142408749Y-41727189D01*
X142439424Y-41669800D01*
X142483963Y-41586474D01*
X142530280Y-41433788D01*
X142545919Y-41275000D01*
X142542000Y-41235209D01*
X142542000Y-40508514D01*
X147255000Y-40508514D01*
X147255000Y-40771486D01*
X147306304Y-41029405D01*
X147406939Y-41272359D01*
X147553038Y-41491013D01*
X147738987Y-41676962D01*
X147957641Y-41823061D01*
X148200595Y-41923696D01*
X148458514Y-41975000D01*
X148721486Y-41975000D01*
X148979405Y-41923696D01*
X149222359Y-41823061D01*
X149441013Y-41676962D01*
X149626962Y-41491013D01*
X149773061Y-41272359D01*
X149873696Y-41029405D01*
X149925000Y-40771486D01*
X149925000Y-40508514D01*
X149873696Y-40250595D01*
X149773061Y-40007641D01*
X149626962Y-39788987D01*
X149441013Y-39603038D01*
X149222359Y-39456939D01*
X148979405Y-39356304D01*
X148721486Y-39305000D01*
X148458514Y-39305000D01*
X148200595Y-39356304D01*
X147957641Y-39456939D01*
X147738987Y-39603038D01*
X147553038Y-39788987D01*
X147406939Y-40007641D01*
X147306304Y-40250595D01*
X147255000Y-40508514D01*
X142542000Y-40508514D01*
X142542000Y-38456087D01*
X142545919Y-38416299D01*
X142538285Y-38338793D01*
X142530280Y-38257512D01*
X142483963Y-38104827D01*
X142448951Y-38039324D01*
X142408749Y-37964110D01*
X142360036Y-37904754D01*
X142307528Y-37840772D01*
X142276618Y-37815405D01*
X140839802Y-36378590D01*
X140850960Y-36341807D01*
X140877701Y-36070300D01*
X140850960Y-35798793D01*
X140771764Y-35537719D01*
X140643157Y-35297112D01*
X140470081Y-35086219D01*
X140259188Y-34913143D01*
X140048073Y-34800300D01*
X140259188Y-34687457D01*
X140470081Y-34514381D01*
X140643157Y-34303488D01*
X140771764Y-34062881D01*
X140850960Y-33801807D01*
X140877701Y-33530300D01*
X140850960Y-33258793D01*
X140771764Y-32997719D01*
X140643157Y-32757112D01*
X140470081Y-32546219D01*
X140259188Y-32373143D01*
X140048073Y-32260300D01*
X140259188Y-32147457D01*
X140470081Y-31974381D01*
X140643157Y-31763488D01*
X140771764Y-31522881D01*
X140850960Y-31261807D01*
X140877701Y-30990300D01*
X140850960Y-30718793D01*
X140771764Y-30457719D01*
X140643157Y-30217112D01*
X140470081Y-30006219D01*
X140259188Y-29833143D01*
X140048073Y-29720300D01*
X140259188Y-29607457D01*
X140470081Y-29434381D01*
X140643157Y-29223488D01*
X140771764Y-28982881D01*
X140850960Y-28721807D01*
X140877701Y-28450300D01*
X140850960Y-28178793D01*
X140771764Y-27917719D01*
X140708129Y-27798665D01*
X147195000Y-27798665D01*
X147195000Y-28081335D01*
X147250147Y-28358574D01*
X147358320Y-28619727D01*
X147515363Y-28854759D01*
X147715241Y-29054637D01*
X147820000Y-29124635D01*
X147820001Y-31928907D01*
X147738987Y-31983038D01*
X147553038Y-32168987D01*
X147406939Y-32387641D01*
X147306304Y-32630595D01*
X147255000Y-32888514D01*
X147255000Y-33151486D01*
X147306304Y-33409405D01*
X147406939Y-33652359D01*
X147553038Y-33871013D01*
X147738987Y-34056962D01*
X147957641Y-34203061D01*
X148200595Y-34303696D01*
X148458514Y-34355000D01*
X148721486Y-34355000D01*
X148979405Y-34303696D01*
X149222359Y-34203061D01*
X149441013Y-34056962D01*
X149626962Y-33871013D01*
X149681093Y-33790000D01*
X153261928Y-33790000D01*
X153261928Y-34020000D01*
X153274188Y-34144482D01*
X153310498Y-34264180D01*
X153369463Y-34374494D01*
X153448815Y-34471185D01*
X153545506Y-34550537D01*
X153649223Y-34605976D01*
X153500186Y-34659956D01*
X153359296Y-34949571D01*
X153277616Y-35261108D01*
X153258282Y-35582595D01*
X153302039Y-35901675D01*
X153407205Y-36206088D01*
X153500186Y-36380044D01*
X153764587Y-36475808D01*
X154720395Y-35520000D01*
X154706253Y-35505858D01*
X154885858Y-35326253D01*
X154900000Y-35340395D01*
X154914143Y-35326253D01*
X155093748Y-35505858D01*
X155079605Y-35520000D01*
X156035413Y-36475808D01*
X156299814Y-36380044D01*
X156440704Y-36090429D01*
X156522384Y-35778892D01*
X156541718Y-35457405D01*
X156497961Y-35138325D01*
X156392795Y-34833912D01*
X156299814Y-34659956D01*
X156150777Y-34605976D01*
X156254494Y-34550537D01*
X156351185Y-34471185D01*
X156430537Y-34374494D01*
X156489502Y-34264180D01*
X156522496Y-34155413D01*
X168444192Y-34155413D01*
X168539956Y-34419814D01*
X168829571Y-34560704D01*
X169141108Y-34642384D01*
X169462595Y-34661718D01*
X169781675Y-34617961D01*
X170086088Y-34512795D01*
X170260044Y-34419814D01*
X170355808Y-34155413D01*
X169400000Y-33199605D01*
X168444192Y-34155413D01*
X156522496Y-34155413D01*
X156525812Y-34144482D01*
X156538072Y-34020000D01*
X156538072Y-33082595D01*
X167758282Y-33082595D01*
X167802039Y-33401675D01*
X167907205Y-33706088D01*
X168000186Y-33880044D01*
X168264587Y-33975808D01*
X169220395Y-33020000D01*
X169579605Y-33020000D01*
X170535413Y-33975808D01*
X170799814Y-33880044D01*
X170940704Y-33590429D01*
X171022384Y-33278892D01*
X171041718Y-32957405D01*
X170997961Y-32638325D01*
X170892795Y-32333912D01*
X170799814Y-32159956D01*
X170535413Y-32064192D01*
X169579605Y-33020000D01*
X169220395Y-33020000D01*
X168264587Y-32064192D01*
X168000186Y-32159956D01*
X167859296Y-32449571D01*
X167777616Y-32761108D01*
X167758282Y-33082595D01*
X156538072Y-33082595D01*
X156538072Y-32020000D01*
X156525812Y-31895518D01*
X156522497Y-31884587D01*
X168444192Y-31884587D01*
X169400000Y-32840395D01*
X170355808Y-31884587D01*
X170260044Y-31620186D01*
X169970429Y-31479296D01*
X169658892Y-31397616D01*
X169337405Y-31378282D01*
X169018325Y-31422039D01*
X168713912Y-31527205D01*
X168539956Y-31620186D01*
X168444192Y-31884587D01*
X156522497Y-31884587D01*
X156489502Y-31775820D01*
X156430537Y-31665506D01*
X156351185Y-31568815D01*
X156254494Y-31489463D01*
X156144180Y-31430498D01*
X156024482Y-31394188D01*
X155900000Y-31381928D01*
X153900000Y-31381928D01*
X153775518Y-31394188D01*
X153655820Y-31430498D01*
X153545506Y-31489463D01*
X153448815Y-31568815D01*
X153369463Y-31665506D01*
X153310498Y-31775820D01*
X153274188Y-31895518D01*
X153261928Y-32020000D01*
X153261928Y-32170000D01*
X149627639Y-32170000D01*
X149626962Y-32168987D01*
X149441013Y-31983038D01*
X149440000Y-31982361D01*
X149440000Y-29124635D01*
X149544759Y-29054637D01*
X149666694Y-28932702D01*
X150316903Y-28932702D01*
X150388486Y-29176671D01*
X150643996Y-29297571D01*
X150918184Y-29366300D01*
X151200512Y-29380217D01*
X151480130Y-29338787D01*
X151746292Y-29243603D01*
X151871514Y-29176671D01*
X151943097Y-28932702D01*
X151130000Y-28119605D01*
X150316903Y-28932702D01*
X149666694Y-28932702D01*
X149744637Y-28854759D01*
X149878692Y-28654131D01*
X149893329Y-28681514D01*
X150137298Y-28753097D01*
X150950395Y-27940000D01*
X151309605Y-27940000D01*
X152122702Y-28753097D01*
X152366671Y-28681514D01*
X152372119Y-28670000D01*
X160261928Y-28670000D01*
X160261928Y-31170000D01*
X160274188Y-31294482D01*
X160310498Y-31414180D01*
X160369463Y-31524494D01*
X160448815Y-31621185D01*
X160545506Y-31700537D01*
X160655820Y-31759502D01*
X160775518Y-31795812D01*
X160900000Y-31808072D01*
X163900000Y-31808072D01*
X164024482Y-31795812D01*
X164144180Y-31759502D01*
X164254494Y-31700537D01*
X164351185Y-31621185D01*
X164430537Y-31524494D01*
X164489502Y-31414180D01*
X164525812Y-31294482D01*
X164538072Y-31170000D01*
X164538072Y-28670000D01*
X164525812Y-28545518D01*
X164489502Y-28425820D01*
X164430537Y-28315506D01*
X164351185Y-28218815D01*
X164254494Y-28139463D01*
X164144180Y-28080498D01*
X164024482Y-28044188D01*
X163900000Y-28031928D01*
X160900000Y-28031928D01*
X160775518Y-28044188D01*
X160655820Y-28080498D01*
X160545506Y-28139463D01*
X160448815Y-28218815D01*
X160369463Y-28315506D01*
X160310498Y-28425820D01*
X160274188Y-28545518D01*
X160261928Y-28670000D01*
X152372119Y-28670000D01*
X152487571Y-28426004D01*
X152556300Y-28151816D01*
X152570217Y-27869488D01*
X152548049Y-27719872D01*
X175565000Y-27719872D01*
X175565000Y-28160128D01*
X175650890Y-28591925D01*
X175819369Y-28998669D01*
X176063962Y-29364729D01*
X176375271Y-29676038D01*
X176741331Y-29920631D01*
X177148075Y-30089110D01*
X177579872Y-30175000D01*
X178020128Y-30175000D01*
X178451925Y-30089110D01*
X178858669Y-29920631D01*
X179224729Y-29676038D01*
X179536038Y-29364729D01*
X179780631Y-28998669D01*
X179949110Y-28591925D01*
X180035000Y-28160128D01*
X180035000Y-27719872D01*
X179949110Y-27288075D01*
X179780631Y-26881331D01*
X179536038Y-26515271D01*
X179224729Y-26203962D01*
X178858669Y-25959369D01*
X178451925Y-25790890D01*
X178020128Y-25705000D01*
X177579872Y-25705000D01*
X177148075Y-25790890D01*
X176741331Y-25959369D01*
X176375271Y-26203962D01*
X176063962Y-26515271D01*
X175819369Y-26881331D01*
X175650890Y-27288075D01*
X175565000Y-27719872D01*
X152548049Y-27719872D01*
X152528787Y-27589870D01*
X152433603Y-27323708D01*
X152366671Y-27198486D01*
X152122702Y-27126903D01*
X151309605Y-27940000D01*
X150950395Y-27940000D01*
X150137298Y-27126903D01*
X149893329Y-27198486D01*
X149879676Y-27227341D01*
X149744637Y-27025241D01*
X149666694Y-26947298D01*
X150316903Y-26947298D01*
X151130000Y-27760395D01*
X151943097Y-26947298D01*
X151871514Y-26703329D01*
X151616004Y-26582429D01*
X151341816Y-26513700D01*
X151059488Y-26499783D01*
X150779870Y-26541213D01*
X150513708Y-26636397D01*
X150388486Y-26703329D01*
X150316903Y-26947298D01*
X149666694Y-26947298D01*
X149544759Y-26825363D01*
X149309727Y-26668320D01*
X149048574Y-26560147D01*
X148771335Y-26505000D01*
X148488665Y-26505000D01*
X148211426Y-26560147D01*
X147950273Y-26668320D01*
X147715241Y-26825363D01*
X147515363Y-27025241D01*
X147358320Y-27260273D01*
X147250147Y-27521426D01*
X147195000Y-27798665D01*
X140708129Y-27798665D01*
X140643157Y-27677112D01*
X140470081Y-27466219D01*
X140259188Y-27293143D01*
X140018581Y-27164536D01*
X139757507Y-27085340D01*
X139554037Y-27065300D01*
X139335813Y-27065300D01*
X138268899Y-25998387D01*
X138243528Y-25967472D01*
X138120189Y-25866251D01*
X137979473Y-25791037D01*
X137826788Y-25744720D01*
X137707791Y-25733000D01*
X137707788Y-25733000D01*
X137668000Y-25729081D01*
X137628212Y-25733000D01*
X114881787Y-25733000D01*
X114841999Y-25729081D01*
X114802211Y-25733000D01*
X114802209Y-25733000D01*
X114683212Y-25744720D01*
X114530527Y-25791037D01*
X114485495Y-25815107D01*
X114389810Y-25866251D01*
X114338939Y-25908000D01*
X114266472Y-25967472D01*
X114241105Y-25998382D01*
X114060000Y-26179487D01*
X113878899Y-25998387D01*
X113853528Y-25967472D01*
X113730189Y-25866251D01*
X113589473Y-25791037D01*
X113436788Y-25744720D01*
X113317791Y-25733000D01*
X113317788Y-25733000D01*
X113278000Y-25729081D01*
X113238212Y-25733000D01*
X103614091Y-25733000D01*
X103574300Y-25729081D01*
X103415512Y-25744720D01*
X103262826Y-25791037D01*
X103170340Y-25840472D01*
X103122111Y-25866251D01*
X102998772Y-25967472D01*
X102973405Y-25998382D01*
X101900081Y-27071706D01*
X101835037Y-27065300D01*
X101498963Y-27065300D01*
X101295493Y-27085340D01*
X101034419Y-27164536D01*
X100793812Y-27293143D01*
X100582919Y-27466219D01*
X100409843Y-27677112D01*
X100281236Y-27917719D01*
X100202040Y-28178793D01*
X100175299Y-28450300D01*
X100202040Y-28721807D01*
X100273688Y-28958000D01*
X98144275Y-28958000D01*
X98075072Y-28937007D01*
X98075072Y-27700300D01*
X98062812Y-27575818D01*
X98026502Y-27456120D01*
X97967537Y-27345806D01*
X97888185Y-27249115D01*
X97791494Y-27169763D01*
X97681180Y-27110798D01*
X97561482Y-27074488D01*
X97437000Y-27062228D01*
X95737000Y-27062228D01*
X95612518Y-27074488D01*
X95492820Y-27110798D01*
X95382506Y-27169763D01*
X95285815Y-27249115D01*
X95206463Y-27345806D01*
X95147498Y-27456120D01*
X95111188Y-27575818D01*
X95098928Y-27700300D01*
X95098928Y-29200300D01*
X95111188Y-29324782D01*
X95147498Y-29444480D01*
X95206463Y-29554794D01*
X95285815Y-29651485D01*
X95382506Y-29730837D01*
X95492820Y-29789802D01*
X95612518Y-29826112D01*
X95710608Y-29835773D01*
X95502919Y-30006219D01*
X95329843Y-30217112D01*
X95201236Y-30457719D01*
X95122040Y-30718793D01*
X95095299Y-30990300D01*
X95122040Y-31261807D01*
X95201236Y-31522881D01*
X95329843Y-31763488D01*
X95502919Y-31974381D01*
X95713812Y-32147457D01*
X95924927Y-32260300D01*
X95713812Y-32373143D01*
X95502919Y-32546219D01*
X95329843Y-32757112D01*
X95201236Y-32997719D01*
X95122040Y-33258793D01*
X95095299Y-33530300D01*
X95122040Y-33801807D01*
X95201236Y-34062881D01*
X95329843Y-34303488D01*
X95502919Y-34514381D01*
X95713812Y-34687457D01*
X95924927Y-34800300D01*
X95713812Y-34913143D01*
X95502919Y-35086219D01*
X95329843Y-35297112D01*
X95201236Y-35537719D01*
X95122040Y-35798793D01*
X95095299Y-36070300D01*
X95122040Y-36341807D01*
X95201236Y-36602881D01*
X95329843Y-36843488D01*
X95502919Y-37054381D01*
X95713812Y-37227457D01*
X95924927Y-37340300D01*
X95713812Y-37453143D01*
X95502919Y-37626219D01*
X95329843Y-37837112D01*
X95201236Y-38077719D01*
X95122040Y-38338793D01*
X95095299Y-38610300D01*
X95122040Y-38881807D01*
X95201236Y-39142881D01*
X95329843Y-39383488D01*
X95502919Y-39594381D01*
X95713812Y-39767457D01*
X95954419Y-39896064D01*
X96215493Y-39975260D01*
X96418963Y-39995300D01*
X96755037Y-39995300D01*
X96958507Y-39975260D01*
X97219581Y-39896064D01*
X97460188Y-39767457D01*
X97671081Y-39594381D01*
X97844157Y-39383488D01*
X97972764Y-39142881D01*
X98051960Y-38881807D01*
X98078701Y-38610300D01*
X98051960Y-38338793D01*
X98040802Y-38302011D01*
X98244813Y-38098000D01*
X100275084Y-38098000D01*
X100202040Y-38338793D01*
X100175299Y-38610300D01*
X100202040Y-38881807D01*
X100281236Y-39142881D01*
X100409843Y-39383488D01*
X100582919Y-39594381D01*
X100793812Y-39767457D01*
X101034419Y-39896064D01*
X101295493Y-39975260D01*
X101498963Y-39995300D01*
X101835037Y-39995300D01*
X101900081Y-39988894D01*
X103253115Y-41341928D01*
X102070000Y-41341928D01*
X101945518Y-41354188D01*
X101825820Y-41390498D01*
X101715506Y-41449463D01*
X101618815Y-41528815D01*
X101539463Y-41625506D01*
X101480498Y-41735820D01*
X101444188Y-41855518D01*
X101431928Y-41980000D01*
X101431928Y-44380000D01*
X101444188Y-44504482D01*
X101480498Y-44624180D01*
X101539463Y-44734494D01*
X101618815Y-44831185D01*
X101715506Y-44910537D01*
X101825820Y-44969502D01*
X101945518Y-45005812D01*
X102070000Y-45018072D01*
X103350301Y-45018072D01*
X103388038Y-45142473D01*
X103463251Y-45283189D01*
X103539108Y-45375620D01*
X104343487Y-46180000D01*
X93098861Y-46180000D01*
X93212379Y-46104150D01*
X93433150Y-45883379D01*
X93606609Y-45623779D01*
X93726089Y-45335327D01*
X93787000Y-45029109D01*
X93787000Y-44716891D01*
X93726089Y-44410673D01*
X93606609Y-44122221D01*
X93433150Y-43862621D01*
X93212379Y-43641850D01*
X92952779Y-43468391D01*
X92664327Y-43348911D01*
X92358109Y-43288000D01*
X92045891Y-43288000D01*
X91739673Y-43348911D01*
X91451221Y-43468391D01*
X91191621Y-43641850D01*
X90970850Y-43862621D01*
X90890125Y-43983434D01*
X90801752Y-43952853D01*
X89881605Y-44873000D01*
X90801752Y-45793147D01*
X90890125Y-45762566D01*
X90970850Y-45883379D01*
X91191621Y-46104150D01*
X91305139Y-46180000D01*
X90550430Y-46180000D01*
X90622147Y-45972752D01*
X89702000Y-45052605D01*
X88781853Y-45972752D01*
X88853570Y-46180000D01*
X88098861Y-46180000D01*
X88212379Y-46104150D01*
X88433150Y-45883379D01*
X88513875Y-45762566D01*
X88602248Y-45793147D01*
X89522395Y-44873000D01*
X88602248Y-43952853D01*
X88513875Y-43983434D01*
X88433150Y-43862621D01*
X88343777Y-43773248D01*
X88781853Y-43773248D01*
X89702000Y-44693395D01*
X90622147Y-43773248D01*
X90532421Y-43513958D01*
X90251329Y-43378065D01*
X89949127Y-43299621D01*
X89637427Y-43281641D01*
X89328209Y-43324816D01*
X89033356Y-43427487D01*
X88871579Y-43513958D01*
X88781853Y-43773248D01*
X88343777Y-43773248D01*
X88212379Y-43641850D01*
X87952779Y-43468391D01*
X87664327Y-43348911D01*
X87358109Y-43288000D01*
X87045891Y-43288000D01*
X86739673Y-43348911D01*
X86451221Y-43468391D01*
X86191621Y-43641850D01*
X85970850Y-43862621D01*
X85797391Y-44122221D01*
X85677911Y-44410673D01*
X85617000Y-44716891D01*
X85617000Y-45029109D01*
X85677911Y-45335327D01*
X85797391Y-45623779D01*
X85970850Y-45883379D01*
X86191621Y-46104150D01*
X86305139Y-46180000D01*
X71150213Y-46180000D01*
X70853247Y-45883034D01*
X70869607Y-45869608D01*
X71048932Y-45651101D01*
X71182182Y-45401808D01*
X71264236Y-45131309D01*
X71285000Y-44920492D01*
X71285000Y-43979509D01*
X71264236Y-43768691D01*
X71182182Y-43498192D01*
X71048932Y-43248899D01*
X70869608Y-43030392D01*
X70651101Y-42851068D01*
X70643490Y-42847000D01*
X81875212Y-42847000D01*
X81915000Y-42850919D01*
X81954788Y-42847000D01*
X81954791Y-42847000D01*
X82073788Y-42835280D01*
X82226473Y-42788963D01*
X82367189Y-42713749D01*
X82490528Y-42612528D01*
X82515899Y-42581613D01*
X83987119Y-41110394D01*
X84018028Y-41085028D01*
X84099957Y-40985197D01*
X84119249Y-40961690D01*
X84172947Y-40861226D01*
X84194463Y-40820973D01*
X84240780Y-40668288D01*
X84252500Y-40549291D01*
X84252500Y-40549289D01*
X84256419Y-40509501D01*
X84252500Y-40469713D01*
X84252500Y-39763132D01*
X84315688Y-39729357D01*
X84526581Y-39556281D01*
X84699657Y-39345388D01*
X84828264Y-39104781D01*
X84907460Y-38843707D01*
X84934201Y-38572200D01*
X84907460Y-38300693D01*
X84828264Y-38039619D01*
X84699657Y-37799012D01*
X84526581Y-37588119D01*
X84315688Y-37415043D01*
X84104573Y-37302200D01*
X84315688Y-37189357D01*
X84526581Y-37016281D01*
X84699657Y-36805388D01*
X84828264Y-36564781D01*
X84907460Y-36303707D01*
X84934201Y-36032200D01*
X84907460Y-35760693D01*
X84828264Y-35499619D01*
X84699657Y-35259012D01*
X84526581Y-35048119D01*
X84315688Y-34875043D01*
X84104573Y-34762200D01*
X84315688Y-34649357D01*
X84526581Y-34476281D01*
X84699657Y-34265388D01*
X84828264Y-34024781D01*
X84907460Y-33763707D01*
X84934201Y-33492200D01*
X84907460Y-33220693D01*
X84828264Y-32959619D01*
X84742878Y-32799872D01*
X87935000Y-32799872D01*
X87935000Y-33240128D01*
X88020890Y-33671925D01*
X88189369Y-34078669D01*
X88433962Y-34444729D01*
X88745271Y-34756038D01*
X89111331Y-35000631D01*
X89518075Y-35169110D01*
X89949872Y-35255000D01*
X90390128Y-35255000D01*
X90821925Y-35169110D01*
X91228669Y-35000631D01*
X91594729Y-34756038D01*
X91906038Y-34444729D01*
X92150631Y-34078669D01*
X92319110Y-33671925D01*
X92405000Y-33240128D01*
X92405000Y-32799872D01*
X92319110Y-32368075D01*
X92150631Y-31961331D01*
X91906038Y-31595271D01*
X91594729Y-31283962D01*
X91228669Y-31039369D01*
X90821925Y-30870890D01*
X90390128Y-30785000D01*
X89949872Y-30785000D01*
X89518075Y-30870890D01*
X89111331Y-31039369D01*
X88745271Y-31283962D01*
X88433962Y-31595271D01*
X88189369Y-31961331D01*
X88020890Y-32368075D01*
X87935000Y-32799872D01*
X84742878Y-32799872D01*
X84699657Y-32719012D01*
X84526581Y-32508119D01*
X84315688Y-32335043D01*
X84104573Y-32222200D01*
X84315688Y-32109357D01*
X84526581Y-31936281D01*
X84699657Y-31725388D01*
X84828264Y-31484781D01*
X84907460Y-31223707D01*
X84934201Y-30952200D01*
X84907460Y-30680693D01*
X84828264Y-30419619D01*
X84699657Y-30179012D01*
X84526581Y-29968119D01*
X84315688Y-29795043D01*
X84104573Y-29682200D01*
X84315688Y-29569357D01*
X84526581Y-29396281D01*
X84699657Y-29185388D01*
X84828264Y-28944781D01*
X84907460Y-28683707D01*
X84934201Y-28412200D01*
X84907460Y-28140693D01*
X84828264Y-27879619D01*
X84699657Y-27639012D01*
X84526581Y-27428119D01*
X84315688Y-27255043D01*
X84075081Y-27126436D01*
X83820819Y-27049307D01*
X82642899Y-25871387D01*
X82617528Y-25840472D01*
X82494189Y-25739251D01*
X82353473Y-25664037D01*
X82200788Y-25617720D01*
X82081791Y-25606000D01*
X82081788Y-25606000D01*
X82042000Y-25602081D01*
X82002212Y-25606000D01*
X60363788Y-25606000D01*
X60324000Y-25602081D01*
X60284212Y-25606000D01*
X60284209Y-25606000D01*
X60165212Y-25617720D01*
X60012527Y-25664037D01*
X59947024Y-25699049D01*
X59871810Y-25739251D01*
X59808888Y-25790890D01*
X59748472Y-25840472D01*
X59723105Y-25871382D01*
X58402386Y-27192102D01*
X58316411Y-27175000D01*
X58043589Y-27175000D01*
X57776011Y-27228225D01*
X57523957Y-27332629D01*
X57297114Y-27484201D01*
X57104201Y-27677114D01*
X56952629Y-27903957D01*
X56910000Y-28006873D01*
X56867371Y-27903957D01*
X56715799Y-27677114D01*
X56522886Y-27484201D01*
X56296043Y-27332629D01*
X56043989Y-27228225D01*
X55776411Y-27175000D01*
X55503589Y-27175000D01*
X55236011Y-27228225D01*
X54983957Y-27332629D01*
X54757114Y-27484201D01*
X54564201Y-27677114D01*
X54412629Y-27903957D01*
X54308225Y-28156011D01*
X54255000Y-28423589D01*
X54255000Y-28696411D01*
X54308225Y-28963989D01*
X54412629Y-29216043D01*
X54546236Y-29416000D01*
X53548513Y-29416000D01*
X49495900Y-25363388D01*
X49470528Y-25332472D01*
X49347189Y-25231251D01*
X49206473Y-25156037D01*
X49053788Y-25109720D01*
X48934791Y-25098000D01*
X48934788Y-25098000D01*
X48895000Y-25094081D01*
X48855212Y-25098000D01*
X38901788Y-25098000D01*
X38862000Y-25094081D01*
X38822212Y-25098000D01*
X38822209Y-25098000D01*
X38703212Y-25109720D01*
X38550527Y-25156037D01*
X38409811Y-25231251D01*
X38286472Y-25332472D01*
X38261105Y-25363382D01*
X37555383Y-26069105D01*
X37524473Y-26094472D01*
X37499108Y-26125380D01*
X37423251Y-26217811D01*
X37402191Y-26257213D01*
X37348038Y-26358527D01*
X37303606Y-26505000D01*
X37301721Y-26511213D01*
X37286081Y-26670000D01*
X37290001Y-26709798D01*
X37290000Y-30313212D01*
X37286081Y-30353000D01*
X37290000Y-30392788D01*
X37290000Y-30392790D01*
X37301720Y-30511787D01*
X37348037Y-30664472D01*
X37367764Y-30701379D01*
X37423251Y-30805189D01*
X37444854Y-30831512D01*
X37524472Y-30928528D01*
X37555387Y-30953899D01*
X38174505Y-31573018D01*
X38199872Y-31603928D01*
X38230780Y-31629293D01*
X38323210Y-31705149D01*
X38381498Y-31736304D01*
X38463927Y-31780363D01*
X38616612Y-31826680D01*
X38735609Y-31838400D01*
X38735612Y-31838400D01*
X38775400Y-31842319D01*
X38815188Y-31838400D01*
X39518154Y-31838400D01*
X39661019Y-32012481D01*
X39871912Y-32185557D01*
X40083027Y-32298400D01*
X39871912Y-32411243D01*
X39661019Y-32584319D01*
X39487943Y-32795212D01*
X39359336Y-33035819D01*
X39280140Y-33296893D01*
X39253399Y-33568400D01*
X39280140Y-33839907D01*
X39359336Y-34100981D01*
X39487943Y-34341588D01*
X39661019Y-34552481D01*
X39871912Y-34725557D01*
X40083027Y-34838400D01*
X39871912Y-34951243D01*
X39661019Y-35124319D01*
X39487943Y-35335212D01*
X39359336Y-35575819D01*
X39280140Y-35836893D01*
X39253399Y-36108400D01*
X39280140Y-36379907D01*
X39359336Y-36640981D01*
X39487943Y-36881588D01*
X39661019Y-37092481D01*
X39871912Y-37265557D01*
X40083027Y-37378400D01*
X39871912Y-37491243D01*
X39661019Y-37664319D01*
X39487943Y-37875212D01*
X39359336Y-38115819D01*
X39280140Y-38376893D01*
X39253399Y-38648400D01*
X39260006Y-38715481D01*
X38063383Y-39912105D01*
X38032473Y-39937472D01*
X37992408Y-39986292D01*
X37931251Y-40060811D01*
X37881449Y-40153986D01*
X37856038Y-40201527D01*
X37810783Y-40350713D01*
X37809721Y-40354213D01*
X37794081Y-40513000D01*
X37798001Y-40552798D01*
X37798000Y-45299212D01*
X37794081Y-45339000D01*
X37798000Y-45378788D01*
X37798000Y-45378790D01*
X37809720Y-45497787D01*
X37856037Y-45650472D01*
X37866746Y-45670507D01*
X37931251Y-45791189D01*
X37958333Y-45824188D01*
X38032472Y-45914528D01*
X38063388Y-45939900D01*
X42461086Y-50337599D01*
X42191309Y-50255764D01*
X41910000Y-50228057D01*
X41628692Y-50255764D01*
X41358193Y-50337818D01*
X41108900Y-50471068D01*
X40890393Y-50650392D01*
X40711068Y-50868899D01*
X40577818Y-51118192D01*
X40495764Y-51388691D01*
X40475000Y-51599508D01*
X40475000Y-52540491D01*
X40495764Y-52751308D01*
X40577818Y-53021807D01*
X40711068Y-53271100D01*
X40890392Y-53489607D01*
X41108899Y-53668932D01*
X41358192Y-53802182D01*
X41628691Y-53884236D01*
X41910000Y-53911943D01*
X42191308Y-53884236D01*
X42461807Y-53802182D01*
X42711100Y-53668932D01*
X42929607Y-53489608D01*
X43108932Y-53271101D01*
X43180000Y-53138142D01*
X43251068Y-53271100D01*
X43430392Y-53489607D01*
X43648899Y-53668932D01*
X43898192Y-53802182D01*
X44168691Y-53884236D01*
X44450000Y-53911943D01*
X44731308Y-53884236D01*
X45001807Y-53802182D01*
X45251100Y-53668932D01*
X45469607Y-53489608D01*
X45648932Y-53271101D01*
X45720000Y-53138142D01*
X45791068Y-53271100D01*
X45970392Y-53489607D01*
X46188899Y-53668932D01*
X46438192Y-53802182D01*
X46708691Y-53884236D01*
X46990000Y-53911943D01*
X47271308Y-53884236D01*
X47541807Y-53802182D01*
X47791100Y-53668932D01*
X48009607Y-53489608D01*
X48188932Y-53271101D01*
X48260000Y-53138142D01*
X48331068Y-53271100D01*
X48510392Y-53489607D01*
X48728899Y-53668932D01*
X48978192Y-53802182D01*
X49248691Y-53884236D01*
X49530000Y-53911943D01*
X49811308Y-53884236D01*
X50081807Y-53802182D01*
X50331100Y-53668932D01*
X50549607Y-53489608D01*
X50728932Y-53271101D01*
X50800000Y-53138142D01*
X50871068Y-53271100D01*
X51050392Y-53489607D01*
X51268899Y-53668932D01*
X51518192Y-53802182D01*
X51788691Y-53884236D01*
X52070000Y-53911943D01*
X52351308Y-53884236D01*
X52621807Y-53802182D01*
X52871100Y-53668932D01*
X53089607Y-53489608D01*
X53268932Y-53271101D01*
X53340000Y-53138142D01*
X53409438Y-53268050D01*
X50255383Y-56422105D01*
X50224473Y-56447472D01*
X50199108Y-56478380D01*
X50123251Y-56570811D01*
X50062069Y-56685276D01*
X50048038Y-56711527D01*
X50001722Y-56864211D01*
X50001721Y-56864213D01*
X49986081Y-57023000D01*
X49990001Y-57062798D01*
X49990001Y-57355634D01*
X49948987Y-57383038D01*
X49763038Y-57568987D01*
X49616939Y-57787641D01*
X49516304Y-58030595D01*
X49465000Y-58288514D01*
X49465000Y-58551486D01*
X49516304Y-58809405D01*
X49616939Y-59052359D01*
X49763038Y-59271013D01*
X49948987Y-59456962D01*
X49990001Y-59484366D01*
X49990001Y-60285202D01*
X49986081Y-60325000D01*
X49998393Y-60450000D01*
X50001721Y-60483788D01*
X50017939Y-60537251D01*
X50048038Y-60636473D01*
X50123251Y-60777189D01*
X50178852Y-60844939D01*
X50224473Y-60900528D01*
X50255383Y-60925895D01*
X51977105Y-62647618D01*
X52002472Y-62678528D01*
X52125811Y-62779749D01*
X52266526Y-62854963D01*
X52290908Y-62862359D01*
X52419212Y-62901280D01*
X52538209Y-62913000D01*
X52538212Y-62913000D01*
X52578000Y-62916919D01*
X52617788Y-62913000D01*
X67683912Y-62913000D01*
X67723700Y-62916919D01*
X67763488Y-62913000D01*
X67763491Y-62913000D01*
X67882488Y-62901280D01*
X68035173Y-62854963D01*
X68175889Y-62779749D01*
X68299228Y-62678528D01*
X68324600Y-62647612D01*
X72134593Y-58837620D01*
X72210449Y-58745189D01*
X72272614Y-58628888D01*
X75531502Y-55370000D01*
X90577099Y-55370000D01*
X95308022Y-60100924D01*
X95204010Y-60256589D01*
X95092068Y-60526842D01*
X95035000Y-60813740D01*
X95035000Y-61106260D01*
X95092068Y-61393158D01*
X95204010Y-61663411D01*
X95366525Y-61906632D01*
X95573368Y-62113475D01*
X95816589Y-62275990D01*
X96086842Y-62387932D01*
X96373740Y-62445000D01*
X96666260Y-62445000D01*
X96953158Y-62387932D01*
X97223411Y-62275990D01*
X97466632Y-62113475D01*
X97673475Y-61906632D01*
X97790000Y-61732240D01*
X97906525Y-61906632D01*
X98113368Y-62113475D01*
X98356589Y-62275990D01*
X98626842Y-62387932D01*
X98913740Y-62445000D01*
X99206260Y-62445000D01*
X99493158Y-62387932D01*
X99763411Y-62275990D01*
X100006632Y-62113475D01*
X100213475Y-61906632D01*
X100330000Y-61732240D01*
X100446525Y-61906632D01*
X100653368Y-62113475D01*
X100896589Y-62275990D01*
X101166842Y-62387932D01*
X101453740Y-62445000D01*
X101746260Y-62445000D01*
X102033158Y-62387932D01*
X102303411Y-62275990D01*
X102546632Y-62113475D01*
X102753475Y-61906632D01*
X102870000Y-61732240D01*
X102986525Y-61906632D01*
X103193368Y-62113475D01*
X103436589Y-62275990D01*
X103706842Y-62387932D01*
X103993740Y-62445000D01*
X104286260Y-62445000D01*
X104573158Y-62387932D01*
X104843411Y-62275990D01*
X105086632Y-62113475D01*
X105293475Y-61906632D01*
X105410000Y-61732240D01*
X105526525Y-61906632D01*
X105733368Y-62113475D01*
X105976589Y-62275990D01*
X106246842Y-62387932D01*
X106533740Y-62445000D01*
X106826260Y-62445000D01*
X107113158Y-62387932D01*
X107383411Y-62275990D01*
X107626632Y-62113475D01*
X107833475Y-61906632D01*
X107950000Y-61732240D01*
X108066525Y-61906632D01*
X108273368Y-62113475D01*
X108516589Y-62275990D01*
X108786842Y-62387932D01*
X109073740Y-62445000D01*
X109366260Y-62445000D01*
X109653158Y-62387932D01*
X109923411Y-62275990D01*
X110166632Y-62113475D01*
X110373475Y-61906632D01*
X110490000Y-61732240D01*
X110606525Y-61906632D01*
X110813368Y-62113475D01*
X111056589Y-62275990D01*
X111326842Y-62387932D01*
X111613740Y-62445000D01*
X111906260Y-62445000D01*
X112193158Y-62387932D01*
X112463411Y-62275990D01*
X112706632Y-62113475D01*
X112913475Y-61906632D01*
X113030000Y-61732240D01*
X113146525Y-61906632D01*
X113353368Y-62113475D01*
X113596589Y-62275990D01*
X113866842Y-62387932D01*
X114153740Y-62445000D01*
X114446260Y-62445000D01*
X114733158Y-62387932D01*
X115003411Y-62275990D01*
X115246632Y-62113475D01*
X115453475Y-61906632D01*
X115570000Y-61732240D01*
X115686525Y-61906632D01*
X115893368Y-62113475D01*
X116136589Y-62275990D01*
X116406842Y-62387932D01*
X116693740Y-62445000D01*
X116986260Y-62445000D01*
X117273158Y-62387932D01*
X117543411Y-62275990D01*
X117573809Y-62255679D01*
X116885488Y-62944000D01*
X81742513Y-62944000D01*
X77504306Y-58705794D01*
X77535000Y-58551486D01*
X77535000Y-58288514D01*
X77533041Y-58278665D01*
X79845000Y-58278665D01*
X79845000Y-58561335D01*
X79900147Y-58838574D01*
X80008320Y-59099727D01*
X80165363Y-59334759D01*
X80365241Y-59534637D01*
X80600273Y-59691680D01*
X80861426Y-59799853D01*
X81138665Y-59855000D01*
X81421335Y-59855000D01*
X81698574Y-59799853D01*
X81959727Y-59691680D01*
X82194759Y-59534637D01*
X82316694Y-59412702D01*
X82966903Y-59412702D01*
X83038486Y-59656671D01*
X83293996Y-59777571D01*
X83568184Y-59846300D01*
X83850512Y-59860217D01*
X84130130Y-59818787D01*
X84396292Y-59723603D01*
X84521514Y-59656671D01*
X84576322Y-59469872D01*
X87935000Y-59469872D01*
X87935000Y-59910128D01*
X88020890Y-60341925D01*
X88189369Y-60748669D01*
X88433962Y-61114729D01*
X88745271Y-61426038D01*
X89111331Y-61670631D01*
X89518075Y-61839110D01*
X89949872Y-61925000D01*
X90390128Y-61925000D01*
X90821925Y-61839110D01*
X91228669Y-61670631D01*
X91594729Y-61426038D01*
X91906038Y-61114729D01*
X92150631Y-60748669D01*
X92319110Y-60341925D01*
X92405000Y-59910128D01*
X92405000Y-59469872D01*
X92319110Y-59038075D01*
X92150631Y-58631331D01*
X91906038Y-58265271D01*
X91594729Y-57953962D01*
X91228669Y-57709369D01*
X90821925Y-57540890D01*
X90390128Y-57455000D01*
X89949872Y-57455000D01*
X89518075Y-57540890D01*
X89111331Y-57709369D01*
X88745271Y-57953962D01*
X88433962Y-58265271D01*
X88189369Y-58631331D01*
X88020890Y-59038075D01*
X87935000Y-59469872D01*
X84576322Y-59469872D01*
X84593097Y-59412702D01*
X83780000Y-58599605D01*
X82966903Y-59412702D01*
X82316694Y-59412702D01*
X82394637Y-59334759D01*
X82528692Y-59134131D01*
X82543329Y-59161514D01*
X82787298Y-59233097D01*
X83600395Y-58420000D01*
X83959605Y-58420000D01*
X84772702Y-59233097D01*
X85016671Y-59161514D01*
X85137571Y-58906004D01*
X85206300Y-58631816D01*
X85220217Y-58349488D01*
X85178787Y-58069870D01*
X85083603Y-57803708D01*
X85016671Y-57678486D01*
X84772702Y-57606903D01*
X83959605Y-58420000D01*
X83600395Y-58420000D01*
X82787298Y-57606903D01*
X82543329Y-57678486D01*
X82529676Y-57707341D01*
X82394637Y-57505241D01*
X82316694Y-57427298D01*
X82966903Y-57427298D01*
X83780000Y-58240395D01*
X84593097Y-57427298D01*
X84521514Y-57183329D01*
X84266004Y-57062429D01*
X83991816Y-56993700D01*
X83709488Y-56979783D01*
X83429870Y-57021213D01*
X83163708Y-57116397D01*
X83038486Y-57183329D01*
X82966903Y-57427298D01*
X82316694Y-57427298D01*
X82194759Y-57305363D01*
X81959727Y-57148320D01*
X81698574Y-57040147D01*
X81421335Y-56985000D01*
X81138665Y-56985000D01*
X80861426Y-57040147D01*
X80600273Y-57148320D01*
X80365241Y-57305363D01*
X80165363Y-57505241D01*
X80008320Y-57740273D01*
X79900147Y-58001426D01*
X79845000Y-58278665D01*
X77533041Y-58278665D01*
X77483696Y-58030595D01*
X77383061Y-57787641D01*
X77236962Y-57568987D01*
X77051013Y-57383038D01*
X76832359Y-57236939D01*
X76589405Y-57136304D01*
X76331486Y-57085000D01*
X76068514Y-57085000D01*
X75810595Y-57136304D01*
X75567641Y-57236939D01*
X75348987Y-57383038D01*
X75163038Y-57568987D01*
X75016939Y-57787641D01*
X74916304Y-58030595D01*
X74865000Y-58288514D01*
X74865000Y-58551486D01*
X74916304Y-58809405D01*
X75016939Y-59052359D01*
X75163038Y-59271013D01*
X75348987Y-59456962D01*
X75567641Y-59603061D01*
X75810595Y-59703696D01*
X76068514Y-59755000D01*
X76262488Y-59755000D01*
X80806105Y-64298618D01*
X80831472Y-64329528D01*
X80899210Y-64385119D01*
X80954810Y-64430749D01*
X81028245Y-64470000D01*
X29870000Y-64470000D01*
X29870000Y-60739872D01*
X30785000Y-60739872D01*
X30785000Y-61180128D01*
X30870890Y-61611925D01*
X31039369Y-62018669D01*
X31283962Y-62384729D01*
X31595271Y-62696038D01*
X31961331Y-62940631D01*
X32368075Y-63109110D01*
X32799872Y-63195000D01*
X33240128Y-63195000D01*
X33671925Y-63109110D01*
X34078669Y-62940631D01*
X34444729Y-62696038D01*
X34756038Y-62384729D01*
X35000631Y-62018669D01*
X35169110Y-61611925D01*
X35255000Y-61180128D01*
X35255000Y-60739872D01*
X35169110Y-60308075D01*
X35000631Y-59901331D01*
X34756038Y-59535271D01*
X34444729Y-59223962D01*
X34078669Y-58979369D01*
X33671925Y-58810890D01*
X33240128Y-58725000D01*
X32799872Y-58725000D01*
X32368075Y-58810890D01*
X31961331Y-58979369D01*
X31595271Y-59223962D01*
X31283962Y-59535271D01*
X31039369Y-59901331D01*
X30870890Y-60308075D01*
X30785000Y-60739872D01*
X29870000Y-60739872D01*
X29870000Y-27719872D01*
X30785000Y-27719872D01*
X30785000Y-28160128D01*
X30870890Y-28591925D01*
X31039369Y-28998669D01*
X31283962Y-29364729D01*
X31595271Y-29676038D01*
X31961331Y-29920631D01*
X32368075Y-30089110D01*
X32799872Y-30175000D01*
X33240128Y-30175000D01*
X33671925Y-30089110D01*
X34078669Y-29920631D01*
X34444729Y-29676038D01*
X34756038Y-29364729D01*
X35000631Y-28998669D01*
X35169110Y-28591925D01*
X35255000Y-28160128D01*
X35255000Y-27719872D01*
X35169110Y-27288075D01*
X35000631Y-26881331D01*
X34756038Y-26515271D01*
X34444729Y-26203962D01*
X34078669Y-25959369D01*
X33671925Y-25790890D01*
X33240128Y-25705000D01*
X32799872Y-25705000D01*
X32368075Y-25790890D01*
X31961331Y-25959369D01*
X31595271Y-26203962D01*
X31283962Y-26515271D01*
X31039369Y-26881331D01*
X30870890Y-27288075D01*
X30785000Y-27719872D01*
X29870000Y-27719872D01*
X29870000Y-24790000D01*
X180550000Y-24790000D01*
X180550001Y-64470000D01*
%TA.AperFunction,Conductor*%
D30*
G36*
X180550001Y-64470000D02*
G01*
X161465512Y-64470000D01*
X162380136Y-63555377D01*
X162428514Y-63565000D01*
X162691486Y-63565000D01*
X162949405Y-63513696D01*
X163192359Y-63413061D01*
X163411013Y-63266962D01*
X163596962Y-63081013D01*
X163743061Y-62862359D01*
X163843696Y-62619405D01*
X163895000Y-62361486D01*
X163895000Y-62098514D01*
X168845000Y-62098514D01*
X168845000Y-62361486D01*
X168896304Y-62619405D01*
X168996939Y-62862359D01*
X169143038Y-63081013D01*
X169328987Y-63266962D01*
X169547641Y-63413061D01*
X169790595Y-63513696D01*
X170048514Y-63565000D01*
X170311486Y-63565000D01*
X170569405Y-63513696D01*
X170812359Y-63413061D01*
X171031013Y-63266962D01*
X171216962Y-63081013D01*
X171363061Y-62862359D01*
X171463696Y-62619405D01*
X171515000Y-62361486D01*
X171515000Y-62098514D01*
X171463696Y-61840595D01*
X171363061Y-61597641D01*
X171216962Y-61378987D01*
X171031013Y-61193038D01*
X170812359Y-61046939D01*
X170569405Y-60946304D01*
X170311486Y-60895000D01*
X170048514Y-60895000D01*
X169790595Y-60946304D01*
X169547641Y-61046939D01*
X169328987Y-61193038D01*
X169143038Y-61378987D01*
X168996939Y-61597641D01*
X168896304Y-61840595D01*
X168845000Y-62098514D01*
X163895000Y-62098514D01*
X163843696Y-61840595D01*
X163743061Y-61597641D01*
X163596962Y-61378987D01*
X163411013Y-61193038D01*
X163192359Y-61046939D01*
X162949405Y-60946304D01*
X162691486Y-60895000D01*
X162428514Y-60895000D01*
X162170595Y-60946304D01*
X161927641Y-61046939D01*
X161708987Y-61193038D01*
X161523038Y-61378987D01*
X161376939Y-61597641D01*
X161276304Y-61840595D01*
X161225000Y-62098514D01*
X161225000Y-62361486D01*
X161234623Y-62409864D01*
X160150477Y-63494011D01*
X158130364Y-63494011D01*
X158181514Y-63466671D01*
X158253097Y-63222702D01*
X157440000Y-62409605D01*
X156626903Y-63222702D01*
X156698486Y-63466671D01*
X156756266Y-63494011D01*
X155631204Y-63494011D01*
X155854759Y-63344637D01*
X156054637Y-63144759D01*
X156188692Y-62944131D01*
X156203329Y-62971514D01*
X156447298Y-63043097D01*
X157260395Y-62230000D01*
X157619605Y-62230000D01*
X158432702Y-63043097D01*
X158676671Y-62971514D01*
X158797571Y-62716004D01*
X158866300Y-62441816D01*
X158880217Y-62159488D01*
X158838787Y-61879870D01*
X158743603Y-61613708D01*
X158676671Y-61488486D01*
X158432702Y-61416903D01*
X157619605Y-62230000D01*
X157260395Y-62230000D01*
X156447298Y-61416903D01*
X156203329Y-61488486D01*
X156189676Y-61517341D01*
X156054637Y-61315241D01*
X155976694Y-61237298D01*
X156626903Y-61237298D01*
X157440000Y-62050395D01*
X158253097Y-61237298D01*
X158181514Y-60993329D01*
X157926004Y-60872429D01*
X157651816Y-60803700D01*
X157369488Y-60789783D01*
X157089870Y-60831213D01*
X156823708Y-60926397D01*
X156698486Y-60993329D01*
X156626903Y-61237298D01*
X155976694Y-61237298D01*
X155854759Y-61115363D01*
X155619727Y-60958320D01*
X155358574Y-60850147D01*
X155081335Y-60795000D01*
X154798665Y-60795000D01*
X154521426Y-60850147D01*
X154260273Y-60958320D01*
X154025241Y-61115363D01*
X153825363Y-61315241D01*
X153668320Y-61550273D01*
X153560147Y-61811426D01*
X153505000Y-62088665D01*
X153505000Y-62371335D01*
X153560147Y-62648574D01*
X153668320Y-62909727D01*
X153825363Y-63144759D01*
X154025241Y-63344637D01*
X154248796Y-63494011D01*
X143946929Y-63494011D01*
X144142359Y-63413061D01*
X144361013Y-63266962D01*
X144546962Y-63081013D01*
X144693061Y-62862359D01*
X144793696Y-62619405D01*
X144845000Y-62361486D01*
X144845000Y-62098514D01*
X144793696Y-61840595D01*
X144693061Y-61597641D01*
X144546962Y-61378987D01*
X144361013Y-61193038D01*
X144142359Y-61046939D01*
X143899405Y-60946304D01*
X143641486Y-60895000D01*
X143378514Y-60895000D01*
X143120595Y-60946304D01*
X142877641Y-61046939D01*
X142658987Y-61193038D01*
X142473038Y-61378987D01*
X142326939Y-61597641D01*
X142226304Y-61840595D01*
X142175000Y-62098514D01*
X142175000Y-62361486D01*
X142184623Y-62409864D01*
X141650488Y-62944000D01*
X137018511Y-62944000D01*
X137073061Y-62862359D01*
X137173696Y-62619405D01*
X137225000Y-62361486D01*
X137225000Y-62098514D01*
X137173696Y-61840595D01*
X137144455Y-61770000D01*
X137214912Y-61770000D01*
X137254700Y-61773919D01*
X137294488Y-61770000D01*
X137294491Y-61770000D01*
X137413488Y-61758280D01*
X137566173Y-61711963D01*
X137706889Y-61636749D01*
X137830228Y-61535528D01*
X137855600Y-61504613D01*
X139705388Y-59654824D01*
X139718815Y-59671185D01*
X139815506Y-59750537D01*
X139925820Y-59809502D01*
X140045518Y-59845812D01*
X140170000Y-59858072D01*
X141770000Y-59858072D01*
X141894482Y-59845812D01*
X142014180Y-59809502D01*
X142124494Y-59750537D01*
X142221185Y-59671185D01*
X142300537Y-59574494D01*
X142359502Y-59464180D01*
X142395812Y-59344482D01*
X142408072Y-59220000D01*
X142408072Y-57620000D01*
X142395812Y-57495518D01*
X142359502Y-57375820D01*
X142300537Y-57265506D01*
X142221185Y-57168815D01*
X142124494Y-57089463D01*
X142014180Y-57030498D01*
X141894482Y-56994188D01*
X141770000Y-56981928D01*
X141762785Y-56981928D01*
X141783097Y-56912702D01*
X140970000Y-56099605D01*
X140156903Y-56912702D01*
X140177215Y-56981928D01*
X140170000Y-56981928D01*
X140045518Y-56994188D01*
X139925820Y-57030498D01*
X139815506Y-57089463D01*
X139718815Y-57168815D01*
X139639463Y-57265506D01*
X139580498Y-57375820D01*
X139544188Y-57495518D01*
X139531928Y-57620000D01*
X139531928Y-57653264D01*
X139483227Y-57668037D01*
X139342511Y-57743251D01*
X139219172Y-57844472D01*
X139193805Y-57875382D01*
X136919188Y-60150000D01*
X133568072Y-60150000D01*
X133568072Y-60110000D01*
X133555812Y-59985518D01*
X133519502Y-59865820D01*
X133460537Y-59755506D01*
X133381185Y-59658815D01*
X133284494Y-59579463D01*
X133174180Y-59520498D01*
X133101620Y-59498487D01*
X133233475Y-59366632D01*
X133395990Y-59123411D01*
X133507932Y-58853158D01*
X133565000Y-58566260D01*
X133565000Y-58273740D01*
X133507932Y-57986842D01*
X133395990Y-57716589D01*
X133233475Y-57473368D01*
X133026632Y-57266525D01*
X132783411Y-57104010D01*
X132513158Y-56992068D01*
X132226260Y-56935000D01*
X131933740Y-56935000D01*
X131646842Y-56992068D01*
X131376589Y-57104010D01*
X131133368Y-57266525D01*
X130926525Y-57473368D01*
X130810000Y-57647760D01*
X130693475Y-57473368D01*
X130486632Y-57266525D01*
X130243411Y-57104010D01*
X129973158Y-56992068D01*
X129686260Y-56935000D01*
X129393740Y-56935000D01*
X129106842Y-56992068D01*
X128836589Y-57104010D01*
X128593368Y-57266525D01*
X128386525Y-57473368D01*
X128270000Y-57647760D01*
X128153475Y-57473368D01*
X127946632Y-57266525D01*
X127703411Y-57104010D01*
X127433158Y-56992068D01*
X127146260Y-56935000D01*
X126853740Y-56935000D01*
X126566842Y-56992068D01*
X126296589Y-57104010D01*
X126053368Y-57266525D01*
X125846525Y-57473368D01*
X125730000Y-57647760D01*
X125613475Y-57473368D01*
X125406632Y-57266525D01*
X125270000Y-57175230D01*
X125270000Y-57104512D01*
X127335513Y-55039000D01*
X139909393Y-55039000D01*
X139977296Y-55106903D01*
X139733329Y-55178486D01*
X139612429Y-55433996D01*
X139543700Y-55708184D01*
X139529783Y-55990512D01*
X139571213Y-56270130D01*
X139666397Y-56536292D01*
X139733329Y-56661514D01*
X139977298Y-56733097D01*
X140790395Y-55920000D01*
X140776253Y-55905858D01*
X140955858Y-55726253D01*
X140970000Y-55740395D01*
X140984143Y-55726253D01*
X141163748Y-55905858D01*
X141149605Y-55920000D01*
X141962702Y-56733097D01*
X142206671Y-56661514D01*
X142327571Y-56406004D01*
X142396300Y-56131816D01*
X142400669Y-56043181D01*
X145985000Y-59627513D01*
X145985000Y-59821486D01*
X146036304Y-60079405D01*
X146136939Y-60322359D01*
X146283038Y-60541013D01*
X146468987Y-60726962D01*
X146687641Y-60873061D01*
X146930595Y-60973696D01*
X147188514Y-61025000D01*
X147451486Y-61025000D01*
X147709405Y-60973696D01*
X147952359Y-60873061D01*
X148171013Y-60726962D01*
X148356962Y-60541013D01*
X148503061Y-60322359D01*
X148603696Y-60079405D01*
X148655000Y-59821486D01*
X148655000Y-59558514D01*
X148603696Y-59300595D01*
X148503061Y-59057641D01*
X148356962Y-58838987D01*
X148171013Y-58653038D01*
X147952359Y-58506939D01*
X147709405Y-58406304D01*
X147451486Y-58355000D01*
X147188514Y-58355000D01*
X147034207Y-58385694D01*
X146298513Y-57650000D01*
X160261928Y-57650000D01*
X160261928Y-60150000D01*
X160274188Y-60274482D01*
X160310498Y-60394180D01*
X160369463Y-60504494D01*
X160448815Y-60601185D01*
X160545506Y-60680537D01*
X160655820Y-60739502D01*
X160775518Y-60775812D01*
X160900000Y-60788072D01*
X163900000Y-60788072D01*
X164024482Y-60775812D01*
X164142960Y-60739872D01*
X175565000Y-60739872D01*
X175565000Y-61180128D01*
X175650890Y-61611925D01*
X175819369Y-62018669D01*
X176063962Y-62384729D01*
X176375271Y-62696038D01*
X176741331Y-62940631D01*
X177148075Y-63109110D01*
X177579872Y-63195000D01*
X178020128Y-63195000D01*
X178451925Y-63109110D01*
X178858669Y-62940631D01*
X179224729Y-62696038D01*
X179536038Y-62384729D01*
X179780631Y-62018669D01*
X179949110Y-61611925D01*
X180035000Y-61180128D01*
X180035000Y-60739872D01*
X179949110Y-60308075D01*
X179780631Y-59901331D01*
X179536038Y-59535271D01*
X179224729Y-59223962D01*
X178858669Y-58979369D01*
X178451925Y-58810890D01*
X178020128Y-58725000D01*
X177579872Y-58725000D01*
X177148075Y-58810890D01*
X176741331Y-58979369D01*
X176375271Y-59223962D01*
X176063962Y-59535271D01*
X175819369Y-59901331D01*
X175650890Y-60308075D01*
X175565000Y-60739872D01*
X164142960Y-60739872D01*
X164144180Y-60739502D01*
X164254494Y-60680537D01*
X164351185Y-60601185D01*
X164430537Y-60504494D01*
X164489502Y-60394180D01*
X164525812Y-60274482D01*
X164538072Y-60150000D01*
X164538072Y-57650000D01*
X164525812Y-57525518D01*
X164489502Y-57405820D01*
X164430537Y-57295506D01*
X164351185Y-57198815D01*
X164254494Y-57119463D01*
X164144180Y-57060498D01*
X164024482Y-57024188D01*
X163900000Y-57011928D01*
X160900000Y-57011928D01*
X160775518Y-57024188D01*
X160655820Y-57060498D01*
X160545506Y-57119463D01*
X160448815Y-57198815D01*
X160369463Y-57295506D01*
X160310498Y-57405820D01*
X160274188Y-57525518D01*
X160261928Y-57650000D01*
X146298513Y-57650000D01*
X142621512Y-53973000D01*
X151196199Y-53973000D01*
X153285055Y-56061858D01*
X153327832Y-56276912D01*
X153451082Y-56574463D01*
X153630013Y-56842252D01*
X153857748Y-57069987D01*
X154125537Y-57248918D01*
X154423088Y-57372168D01*
X154738967Y-57435000D01*
X155061033Y-57435000D01*
X155376912Y-57372168D01*
X155674463Y-57248918D01*
X155942252Y-57069987D01*
X156169987Y-56842252D01*
X156348918Y-56574463D01*
X156472168Y-56276912D01*
X156535000Y-55961033D01*
X156535000Y-55638967D01*
X167765000Y-55638967D01*
X167765000Y-55961033D01*
X167827832Y-56276912D01*
X167951082Y-56574463D01*
X168130013Y-56842252D01*
X168357748Y-57069987D01*
X168625537Y-57248918D01*
X168923088Y-57372168D01*
X169238967Y-57435000D01*
X169561033Y-57435000D01*
X169876912Y-57372168D01*
X170174463Y-57248918D01*
X170442252Y-57069987D01*
X170669987Y-56842252D01*
X170848918Y-56574463D01*
X170972168Y-56276912D01*
X171035000Y-55961033D01*
X171035000Y-55638967D01*
X170972168Y-55323088D01*
X170848918Y-55025537D01*
X170669987Y-54757748D01*
X170442252Y-54530013D01*
X170350439Y-54468665D01*
X175095000Y-54468665D01*
X175095000Y-54751335D01*
X175150147Y-55028574D01*
X175258320Y-55289727D01*
X175415363Y-55524759D01*
X175615241Y-55724637D01*
X175850273Y-55881680D01*
X176111426Y-55989853D01*
X176388665Y-56045000D01*
X176671335Y-56045000D01*
X176948574Y-55989853D01*
X177209727Y-55881680D01*
X177444759Y-55724637D01*
X177644637Y-55524759D01*
X177801680Y-55289727D01*
X177909853Y-55028574D01*
X177965000Y-54751335D01*
X177965000Y-54468665D01*
X177909853Y-54191426D01*
X177801680Y-53930273D01*
X177644637Y-53695241D01*
X177444759Y-53495363D01*
X177244131Y-53361308D01*
X177271514Y-53346671D01*
X177343097Y-53102702D01*
X176530000Y-52289605D01*
X175716903Y-53102702D01*
X175788486Y-53346671D01*
X175817341Y-53360324D01*
X175615241Y-53495363D01*
X175415363Y-53695241D01*
X175258320Y-53930273D01*
X175150147Y-54191426D01*
X175095000Y-54468665D01*
X170350439Y-54468665D01*
X170174463Y-54351082D01*
X169876912Y-54227832D01*
X169561033Y-54165000D01*
X169238967Y-54165000D01*
X168923088Y-54227832D01*
X168625537Y-54351082D01*
X168357748Y-54530013D01*
X168130013Y-54757748D01*
X167951082Y-55025537D01*
X167827832Y-55323088D01*
X167765000Y-55638967D01*
X156535000Y-55638967D01*
X156472168Y-55323088D01*
X156348918Y-55025537D01*
X156169987Y-54757748D01*
X155942252Y-54530013D01*
X155845065Y-54465075D01*
X155855808Y-54435413D01*
X154900000Y-53479605D01*
X154885858Y-53493748D01*
X154706253Y-53314143D01*
X154720395Y-53300000D01*
X154706253Y-53285858D01*
X154885858Y-53106253D01*
X154900000Y-53120395D01*
X154914143Y-53106253D01*
X155093748Y-53285858D01*
X155079605Y-53300000D01*
X156035413Y-54255808D01*
X156299814Y-54160044D01*
X156440704Y-53870429D01*
X156522384Y-53558892D01*
X156541718Y-53237405D01*
X156497961Y-52918325D01*
X156392795Y-52613912D01*
X156299814Y-52439956D01*
X156150777Y-52385976D01*
X156254494Y-52330537D01*
X156351185Y-52251185D01*
X156430537Y-52154494D01*
X156489502Y-52044180D01*
X156522496Y-51935413D01*
X168444192Y-51935413D01*
X168539956Y-52199814D01*
X168829571Y-52340704D01*
X169141108Y-52422384D01*
X169462595Y-52441718D01*
X169781675Y-52397961D01*
X170086088Y-52292795D01*
X170260044Y-52199814D01*
X170267035Y-52180512D01*
X175089783Y-52180512D01*
X175131213Y-52460130D01*
X175226397Y-52726292D01*
X175293329Y-52851514D01*
X175537298Y-52923097D01*
X176350395Y-52110000D01*
X176709605Y-52110000D01*
X177522702Y-52923097D01*
X177766671Y-52851514D01*
X177887571Y-52596004D01*
X177956300Y-52321816D01*
X177970217Y-52039488D01*
X177928787Y-51759870D01*
X177833603Y-51493708D01*
X177766671Y-51368486D01*
X177522702Y-51296903D01*
X176709605Y-52110000D01*
X176350395Y-52110000D01*
X175537298Y-51296903D01*
X175293329Y-51368486D01*
X175172429Y-51623996D01*
X175103700Y-51898184D01*
X175089783Y-52180512D01*
X170267035Y-52180512D01*
X170355808Y-51935413D01*
X169400000Y-50979605D01*
X168444192Y-51935413D01*
X156522496Y-51935413D01*
X156525812Y-51924482D01*
X156538072Y-51800000D01*
X156538072Y-50862595D01*
X167758282Y-50862595D01*
X167802039Y-51181675D01*
X167907205Y-51486088D01*
X168000186Y-51660044D01*
X168264587Y-51755808D01*
X169220395Y-50800000D01*
X169579605Y-50800000D01*
X170535413Y-51755808D01*
X170799814Y-51660044D01*
X170940704Y-51370429D01*
X171022384Y-51058892D01*
X171041718Y-50737405D01*
X170997961Y-50418325D01*
X170892795Y-50113912D01*
X170799814Y-49939956D01*
X170535413Y-49844192D01*
X169579605Y-50800000D01*
X169220395Y-50800000D01*
X168264587Y-49844192D01*
X168000186Y-49939956D01*
X167859296Y-50229571D01*
X167777616Y-50541108D01*
X167758282Y-50862595D01*
X156538072Y-50862595D01*
X156538072Y-50721000D01*
X166203212Y-50721000D01*
X166243000Y-50724919D01*
X166282788Y-50721000D01*
X166282791Y-50721000D01*
X166401788Y-50709280D01*
X166554473Y-50662963D01*
X166695189Y-50587749D01*
X166818528Y-50486528D01*
X166843899Y-50455613D01*
X167848513Y-49451000D01*
X168521552Y-49451000D01*
X168444192Y-49664587D01*
X169400000Y-50620395D01*
X170355808Y-49664587D01*
X170278448Y-49451000D01*
X171495488Y-49451000D01*
X172119105Y-50074618D01*
X172144472Y-50105528D01*
X172203796Y-50154214D01*
X172267810Y-50206749D01*
X172310508Y-50229571D01*
X172408527Y-50281963D01*
X172561212Y-50328280D01*
X172680209Y-50340000D01*
X172680212Y-50340000D01*
X172720000Y-50343919D01*
X172759788Y-50340000D01*
X175465634Y-50340000D01*
X175493038Y-50381013D01*
X175678987Y-50566962D01*
X175897641Y-50713061D01*
X176026013Y-50766235D01*
X175913708Y-50806397D01*
X175788486Y-50873329D01*
X175716903Y-51117298D01*
X176530000Y-51930395D01*
X177343097Y-51117298D01*
X177271514Y-50873329D01*
X177039956Y-50763762D01*
X177162359Y-50713061D01*
X177381013Y-50566962D01*
X177566962Y-50381013D01*
X177713061Y-50162359D01*
X177813696Y-49919405D01*
X177865000Y-49661486D01*
X177865000Y-49398514D01*
X177820436Y-49174477D01*
X180122618Y-46872295D01*
X180153528Y-46846928D01*
X180254749Y-46723589D01*
X180299007Y-46640788D01*
X180329963Y-46582874D01*
X180343128Y-46539473D01*
X180376280Y-46430188D01*
X180388000Y-46311191D01*
X180388000Y-46311188D01*
X180391919Y-46271400D01*
X180388000Y-46231612D01*
X180388000Y-39957788D01*
X180391919Y-39918000D01*
X180385350Y-39851303D01*
X180376280Y-39759212D01*
X180329963Y-39606527D01*
X180290654Y-39532985D01*
X180254749Y-39465810D01*
X180198072Y-39396749D01*
X180153528Y-39342472D01*
X180122619Y-39317106D01*
X177940420Y-37134907D01*
X177965000Y-37011335D01*
X177965000Y-36728665D01*
X177909853Y-36451426D01*
X177801680Y-36190273D01*
X177644637Y-35955241D01*
X177444759Y-35755363D01*
X177209727Y-35598320D01*
X176948574Y-35490147D01*
X176671335Y-35435000D01*
X176388665Y-35435000D01*
X176111426Y-35490147D01*
X175850273Y-35598320D01*
X175615241Y-35755363D01*
X175415363Y-35955241D01*
X175258320Y-36190273D01*
X175150147Y-36451426D01*
X175095000Y-36728665D01*
X175095000Y-37011335D01*
X175150147Y-37288574D01*
X175258320Y-37549727D01*
X175415363Y-37784759D01*
X175615241Y-37984637D01*
X175815869Y-38118692D01*
X175788486Y-38133329D01*
X175716903Y-38377298D01*
X176530000Y-39190395D01*
X176544143Y-39176253D01*
X176723748Y-39355858D01*
X176709605Y-39370000D01*
X177522702Y-40183097D01*
X177766671Y-40111514D01*
X177887571Y-39856004D01*
X177956300Y-39581816D01*
X177962877Y-39448390D01*
X178768000Y-40253513D01*
X178768001Y-45935886D01*
X176508888Y-48195000D01*
X176398514Y-48195000D01*
X176140595Y-48246304D01*
X175897641Y-48346939D01*
X175678987Y-48493038D01*
X175493038Y-48678987D01*
X175465634Y-48720000D01*
X173055513Y-48720000D01*
X172431899Y-48096387D01*
X172406528Y-48065472D01*
X172283189Y-47964251D01*
X172142473Y-47889037D01*
X171989788Y-47842720D01*
X171870791Y-47831000D01*
X171870788Y-47831000D01*
X171831000Y-47827081D01*
X171791212Y-47831000D01*
X167552787Y-47831000D01*
X167512999Y-47827081D01*
X167473211Y-47831000D01*
X167473209Y-47831000D01*
X167354212Y-47842720D01*
X167201527Y-47889037D01*
X167153923Y-47914482D01*
X167060810Y-47964251D01*
X167038328Y-47982702D01*
X166937472Y-48065472D01*
X166912105Y-48096382D01*
X165907488Y-49101000D01*
X164517768Y-49101000D01*
X164525812Y-49074482D01*
X164538072Y-48950000D01*
X164538072Y-46450000D01*
X164525812Y-46325518D01*
X164489502Y-46205820D01*
X164430537Y-46095506D01*
X164351185Y-45998815D01*
X164254494Y-45919463D01*
X164144180Y-45860498D01*
X164024482Y-45824188D01*
X163900000Y-45811928D01*
X160900000Y-45811928D01*
X160775518Y-45824188D01*
X160655820Y-45860498D01*
X160545506Y-45919463D01*
X160448815Y-45998815D01*
X160369463Y-46095506D01*
X160310498Y-46205820D01*
X160274188Y-46325518D01*
X160261928Y-46450000D01*
X160261928Y-48950000D01*
X160274188Y-49074482D01*
X160282232Y-49101000D01*
X155868788Y-49101000D01*
X155829000Y-49097081D01*
X155789212Y-49101000D01*
X155789209Y-49101000D01*
X155670212Y-49112720D01*
X155517527Y-49159037D01*
X155512118Y-49161928D01*
X153900000Y-49161928D01*
X153775518Y-49174188D01*
X153655820Y-49210498D01*
X153545506Y-49269463D01*
X153448815Y-49348815D01*
X153369463Y-49445506D01*
X153310498Y-49555820D01*
X153274188Y-49675518D01*
X153261928Y-49800000D01*
X153261928Y-51800000D01*
X153274188Y-51924482D01*
X153310498Y-52044180D01*
X153369463Y-52154494D01*
X153448815Y-52251185D01*
X153545506Y-52330537D01*
X153649223Y-52385976D01*
X153500186Y-52439956D01*
X153359296Y-52729571D01*
X153277616Y-53041108D01*
X153258282Y-53362595D01*
X153302039Y-53681675D01*
X153407205Y-53986088D01*
X153462683Y-54089881D01*
X152074804Y-52702003D01*
X152051001Y-52672999D01*
X151935276Y-52578026D01*
X151803247Y-52507454D01*
X151659986Y-52463997D01*
X151548333Y-52453000D01*
X151548322Y-52453000D01*
X151511000Y-52449324D01*
X151473678Y-52453000D01*
X148604970Y-52453000D01*
X148655000Y-52201486D01*
X148655000Y-51938514D01*
X148603696Y-51680595D01*
X148503061Y-51437641D01*
X148356962Y-51218987D01*
X148171013Y-51033038D01*
X147952359Y-50886939D01*
X147709405Y-50786304D01*
X147451486Y-50735000D01*
X147188514Y-50735000D01*
X146930595Y-50786304D01*
X146687641Y-50886939D01*
X146468987Y-51033038D01*
X146283038Y-51218987D01*
X146136939Y-51437641D01*
X146036304Y-51680595D01*
X145985000Y-51938514D01*
X145985000Y-52201486D01*
X146035030Y-52453000D01*
X131509946Y-52453000D01*
X131611100Y-52398932D01*
X131829607Y-52219608D01*
X132008932Y-52001101D01*
X132142182Y-51751808D01*
X132224236Y-51481309D01*
X132245000Y-51270492D01*
X132245000Y-50329509D01*
X132224236Y-50118691D01*
X132142182Y-49848192D01*
X132008932Y-49598899D01*
X131829608Y-49380392D01*
X131611101Y-49201068D01*
X131361808Y-49067818D01*
X131091309Y-48985764D01*
X130810000Y-48958057D01*
X130528692Y-48985764D01*
X130258193Y-49067818D01*
X130008900Y-49201068D01*
X129790393Y-49380392D01*
X129611068Y-49598899D01*
X129540000Y-49731858D01*
X129468932Y-49598899D01*
X129289608Y-49380392D01*
X129071101Y-49201068D01*
X128821808Y-49067818D01*
X128551309Y-48985764D01*
X128270000Y-48958057D01*
X127988692Y-48985764D01*
X127718193Y-49067818D01*
X127468900Y-49201068D01*
X127250393Y-49380392D01*
X127071068Y-49598899D01*
X127000000Y-49731858D01*
X126928932Y-49598899D01*
X126749608Y-49380392D01*
X126531101Y-49201068D01*
X126281808Y-49067818D01*
X126011309Y-48985764D01*
X125730000Y-48958057D01*
X125448692Y-48985764D01*
X125178193Y-49067818D01*
X124928900Y-49201068D01*
X124710393Y-49380392D01*
X124531068Y-49598899D01*
X124460000Y-49731858D01*
X124388932Y-49598899D01*
X124209608Y-49380392D01*
X123991101Y-49201068D01*
X123741808Y-49067818D01*
X123471309Y-48985764D01*
X123190000Y-48958057D01*
X122908692Y-48985764D01*
X122638193Y-49067818D01*
X122388900Y-49201068D01*
X122170393Y-49380392D01*
X121991068Y-49598899D01*
X121920000Y-49731858D01*
X121848932Y-49598899D01*
X121669608Y-49380392D01*
X121451101Y-49201068D01*
X121201808Y-49067818D01*
X120931309Y-48985764D01*
X120650000Y-48958057D01*
X120368692Y-48985764D01*
X120098193Y-49067818D01*
X119848900Y-49201068D01*
X119630393Y-49380392D01*
X119451068Y-49598899D01*
X119380000Y-49731858D01*
X119308932Y-49598899D01*
X119129608Y-49380392D01*
X118911101Y-49201068D01*
X118661808Y-49067818D01*
X118391309Y-48985764D01*
X118110000Y-48958057D01*
X117828692Y-48985764D01*
X117558193Y-49067818D01*
X117308900Y-49201068D01*
X117090393Y-49380392D01*
X116911068Y-49598899D01*
X116840000Y-49731858D01*
X116768932Y-49598899D01*
X116589608Y-49380392D01*
X116371101Y-49201068D01*
X116121808Y-49067818D01*
X115851309Y-48985764D01*
X115570000Y-48958057D01*
X115288692Y-48985764D01*
X115018193Y-49067818D01*
X114768900Y-49201068D01*
X114550393Y-49380392D01*
X114371068Y-49598899D01*
X114300000Y-49731858D01*
X114228932Y-49598899D01*
X114049608Y-49380392D01*
X113831101Y-49201068D01*
X113581808Y-49067818D01*
X113311309Y-48985764D01*
X113030000Y-48958057D01*
X112748692Y-48985764D01*
X112478193Y-49067818D01*
X112228900Y-49201068D01*
X112010393Y-49380392D01*
X111831068Y-49598899D01*
X111760000Y-49731858D01*
X111688932Y-49598899D01*
X111509608Y-49380392D01*
X111291101Y-49201068D01*
X111041808Y-49067818D01*
X110771309Y-48985764D01*
X110490000Y-48958057D01*
X110208692Y-48985764D01*
X109938193Y-49067818D01*
X109688900Y-49201068D01*
X109470393Y-49380392D01*
X109291068Y-49598899D01*
X109220000Y-49731858D01*
X109148932Y-49598899D01*
X108969608Y-49380392D01*
X108911669Y-49332843D01*
X109428513Y-48816000D01*
X138451220Y-48816000D01*
X138428320Y-48850273D01*
X138320147Y-49111426D01*
X138265000Y-49388665D01*
X138265000Y-49671335D01*
X138320147Y-49948574D01*
X138428320Y-50209727D01*
X138585363Y-50444759D01*
X138785241Y-50644637D01*
X139020273Y-50801680D01*
X139281426Y-50909853D01*
X139558665Y-50965000D01*
X139841335Y-50965000D01*
X140118574Y-50909853D01*
X140379727Y-50801680D01*
X140614759Y-50644637D01*
X140736694Y-50522702D01*
X141386903Y-50522702D01*
X141458486Y-50766671D01*
X141713996Y-50887571D01*
X141988184Y-50956300D01*
X142270512Y-50970217D01*
X142550130Y-50928787D01*
X142816292Y-50833603D01*
X142941514Y-50766671D01*
X143013097Y-50522702D01*
X142200000Y-49709605D01*
X141386903Y-50522702D01*
X140736694Y-50522702D01*
X140814637Y-50444759D01*
X140948692Y-50244131D01*
X140963329Y-50271514D01*
X141207298Y-50343097D01*
X142020395Y-49530000D01*
X142379605Y-49530000D01*
X143192702Y-50343097D01*
X143436671Y-50271514D01*
X143557571Y-50016004D01*
X143626300Y-49741816D01*
X143640217Y-49459488D01*
X143598787Y-49179870D01*
X143503603Y-48913708D01*
X143436671Y-48788486D01*
X143192702Y-48716903D01*
X142379605Y-49530000D01*
X142020395Y-49530000D01*
X142006253Y-49515858D01*
X142185858Y-49336253D01*
X142200000Y-49350395D01*
X143013097Y-48537298D01*
X142941514Y-48293329D01*
X142686004Y-48172429D01*
X142411816Y-48103700D01*
X142278389Y-48097123D01*
X142392810Y-47982702D01*
X145276903Y-47982702D01*
X145348486Y-48226671D01*
X145603996Y-48347571D01*
X145878184Y-48416300D01*
X146160512Y-48430217D01*
X146440130Y-48388787D01*
X146706292Y-48293603D01*
X146831514Y-48226671D01*
X146903097Y-47982702D01*
X146090000Y-47169605D01*
X145276903Y-47982702D01*
X142392810Y-47982702D01*
X143315000Y-47060512D01*
X144649783Y-47060512D01*
X144691213Y-47340130D01*
X144786397Y-47606292D01*
X144853329Y-47731514D01*
X145097298Y-47803097D01*
X145910395Y-46990000D01*
X146269605Y-46990000D01*
X147082702Y-47803097D01*
X147151928Y-47782785D01*
X147151928Y-47790000D01*
X147164188Y-47914482D01*
X147200498Y-48034180D01*
X147259463Y-48144494D01*
X147338815Y-48241185D01*
X147435506Y-48320537D01*
X147545820Y-48379502D01*
X147665518Y-48415812D01*
X147790000Y-48428072D01*
X149390000Y-48428072D01*
X149514482Y-48415812D01*
X149634180Y-48379502D01*
X149744494Y-48320537D01*
X149841185Y-48241185D01*
X149920537Y-48144494D01*
X149979502Y-48034180D01*
X150015812Y-47914482D01*
X150028072Y-47790000D01*
X150028072Y-46190000D01*
X150015812Y-46065518D01*
X149979502Y-45945820D01*
X149920537Y-45835506D01*
X149841185Y-45738815D01*
X149744494Y-45659463D01*
X149634180Y-45600498D01*
X149514482Y-45564188D01*
X149390000Y-45551928D01*
X147790000Y-45551928D01*
X147665518Y-45564188D01*
X147545820Y-45600498D01*
X147435506Y-45659463D01*
X147338815Y-45738815D01*
X147259463Y-45835506D01*
X147200498Y-45945820D01*
X147164188Y-46065518D01*
X147151928Y-46190000D01*
X147151928Y-46197215D01*
X147082702Y-46176903D01*
X146269605Y-46990000D01*
X145910395Y-46990000D01*
X145097298Y-46176903D01*
X144853329Y-46248486D01*
X144732429Y-46503996D01*
X144663700Y-46778184D01*
X144649783Y-47060512D01*
X143315000Y-47060512D01*
X144378214Y-45997298D01*
X145276903Y-45997298D01*
X146090000Y-46810395D01*
X146903097Y-45997298D01*
X146831514Y-45753329D01*
X146576004Y-45632429D01*
X146301816Y-45563700D01*
X146019488Y-45549783D01*
X145739870Y-45591213D01*
X145473708Y-45686397D01*
X145348486Y-45753329D01*
X145276903Y-45997298D01*
X144378214Y-45997298D01*
X146258513Y-44117000D01*
X152463212Y-44117000D01*
X152503000Y-44120919D01*
X152542788Y-44117000D01*
X152542791Y-44117000D01*
X152661788Y-44105280D01*
X152814473Y-44058963D01*
X152955189Y-43983749D01*
X153078528Y-43882528D01*
X153103900Y-43851612D01*
X157085512Y-39870000D01*
X160261928Y-39870000D01*
X160261928Y-42370000D01*
X160274188Y-42494482D01*
X160310498Y-42614180D01*
X160369463Y-42724494D01*
X160448815Y-42821185D01*
X160545506Y-42900537D01*
X160655820Y-42959502D01*
X160775518Y-42995812D01*
X160900000Y-43008072D01*
X163900000Y-43008072D01*
X164024482Y-42995812D01*
X164144180Y-42959502D01*
X164254494Y-42900537D01*
X164351185Y-42821185D01*
X164430537Y-42724494D01*
X164489502Y-42614180D01*
X164525812Y-42494482D01*
X164538072Y-42370000D01*
X164538072Y-41778514D01*
X175195000Y-41778514D01*
X175195000Y-42041486D01*
X175246304Y-42299405D01*
X175346939Y-42542359D01*
X175493038Y-42761013D01*
X175678987Y-42946962D01*
X175897641Y-43093061D01*
X176140595Y-43193696D01*
X176398514Y-43245000D01*
X176661486Y-43245000D01*
X176919405Y-43193696D01*
X177162359Y-43093061D01*
X177381013Y-42946962D01*
X177566962Y-42761013D01*
X177713061Y-42542359D01*
X177813696Y-42299405D01*
X177865000Y-42041486D01*
X177865000Y-41778514D01*
X177813696Y-41520595D01*
X177713061Y-41277641D01*
X177566962Y-41058987D01*
X177381013Y-40873038D01*
X177162359Y-40726939D01*
X177085811Y-40695232D01*
X177146292Y-40673603D01*
X177271514Y-40606671D01*
X177343097Y-40362702D01*
X176530000Y-39549605D01*
X175716903Y-40362702D01*
X175788486Y-40606671D01*
X175974968Y-40694909D01*
X175897641Y-40726939D01*
X175678987Y-40873038D01*
X175493038Y-41058987D01*
X175346939Y-41277641D01*
X175246304Y-41520595D01*
X175195000Y-41778514D01*
X164538072Y-41778514D01*
X164538072Y-39870000D01*
X164525812Y-39745518D01*
X164489502Y-39625820D01*
X164430537Y-39515506D01*
X164351185Y-39418815D01*
X164254494Y-39339463D01*
X164144180Y-39280498D01*
X164024482Y-39244188D01*
X163900000Y-39231928D01*
X160900000Y-39231928D01*
X160775518Y-39244188D01*
X160655820Y-39280498D01*
X160545506Y-39339463D01*
X160448815Y-39418815D01*
X160369463Y-39515506D01*
X160310498Y-39625820D01*
X160274188Y-39745518D01*
X160261928Y-39870000D01*
X157085512Y-39870000D01*
X158125513Y-38830000D01*
X167974827Y-38830000D01*
X168130013Y-39062252D01*
X168357748Y-39289987D01*
X168625537Y-39468918D01*
X168923088Y-39592168D01*
X169238967Y-39655000D01*
X169561033Y-39655000D01*
X169876912Y-39592168D01*
X170174463Y-39468918D01*
X170216975Y-39440512D01*
X175089783Y-39440512D01*
X175131213Y-39720130D01*
X175226397Y-39986292D01*
X175293329Y-40111514D01*
X175537298Y-40183097D01*
X176350395Y-39370000D01*
X175537298Y-38556903D01*
X175293329Y-38628486D01*
X175172429Y-38883996D01*
X175103700Y-39158184D01*
X175089783Y-39440512D01*
X170216975Y-39440512D01*
X170442252Y-39289987D01*
X170669987Y-39062252D01*
X170848918Y-38794463D01*
X170972168Y-38496912D01*
X171035000Y-38181033D01*
X171035000Y-37858967D01*
X170972168Y-37543088D01*
X170848918Y-37245537D01*
X170669987Y-36977748D01*
X170442252Y-36750013D01*
X170174463Y-36571082D01*
X169876912Y-36447832D01*
X169561033Y-36385000D01*
X169238967Y-36385000D01*
X168923088Y-36447832D01*
X168625537Y-36571082D01*
X168357748Y-36750013D01*
X168130013Y-36977748D01*
X167974827Y-37210000D01*
X157829787Y-37210000D01*
X157789999Y-37206081D01*
X157750211Y-37210000D01*
X157750209Y-37210000D01*
X157631212Y-37221720D01*
X157478527Y-37268037D01*
X157449710Y-37283440D01*
X157337810Y-37343251D01*
X157300361Y-37373985D01*
X157214472Y-37444472D01*
X157189105Y-37475382D01*
X156535000Y-38129487D01*
X156535000Y-37858967D01*
X156472168Y-37543088D01*
X156348918Y-37245537D01*
X156169987Y-36977748D01*
X155942252Y-36750013D01*
X155845065Y-36685075D01*
X155855808Y-36655413D01*
X154900000Y-35699605D01*
X153944192Y-36655413D01*
X153954935Y-36685075D01*
X153857748Y-36750013D01*
X153630013Y-36977748D01*
X153451082Y-37245537D01*
X153327832Y-37543088D01*
X153265000Y-37858967D01*
X153265000Y-38181033D01*
X153327832Y-38496912D01*
X153451082Y-38794463D01*
X153630013Y-39062252D01*
X153857748Y-39289987D01*
X154125537Y-39468918D01*
X154423088Y-39592168D01*
X154738967Y-39655000D01*
X155009487Y-39655000D01*
X152167488Y-42497000D01*
X145962788Y-42497000D01*
X145923000Y-42493081D01*
X145883212Y-42497000D01*
X145883209Y-42497000D01*
X145764212Y-42508720D01*
X145611527Y-42555037D01*
X145575717Y-42574178D01*
X145470810Y-42630251D01*
X145426508Y-42666609D01*
X145347472Y-42731472D01*
X145322107Y-42762380D01*
X143675000Y-44409487D01*
X143675000Y-44308665D01*
X143619853Y-44031426D01*
X143511680Y-43770273D01*
X143354637Y-43535241D01*
X143154759Y-43335363D01*
X142919727Y-43178320D01*
X142658574Y-43070147D01*
X142381335Y-43015000D01*
X142098665Y-43015000D01*
X141821426Y-43070147D01*
X141699900Y-43120485D01*
X141699900Y-42452612D01*
X142276619Y-41875894D01*
X142307528Y-41850528D01*
X142408749Y-41727189D01*
X142439424Y-41669800D01*
X142483963Y-41586474D01*
X142530280Y-41433788D01*
X142545919Y-41275000D01*
X142542000Y-41235209D01*
X142542000Y-40508514D01*
X147255000Y-40508514D01*
X147255000Y-40771486D01*
X147306304Y-41029405D01*
X147406939Y-41272359D01*
X147553038Y-41491013D01*
X147738987Y-41676962D01*
X147957641Y-41823061D01*
X148200595Y-41923696D01*
X148458514Y-41975000D01*
X148721486Y-41975000D01*
X148979405Y-41923696D01*
X149222359Y-41823061D01*
X149441013Y-41676962D01*
X149626962Y-41491013D01*
X149773061Y-41272359D01*
X149873696Y-41029405D01*
X149925000Y-40771486D01*
X149925000Y-40508514D01*
X149873696Y-40250595D01*
X149773061Y-40007641D01*
X149626962Y-39788987D01*
X149441013Y-39603038D01*
X149222359Y-39456939D01*
X148979405Y-39356304D01*
X148721486Y-39305000D01*
X148458514Y-39305000D01*
X148200595Y-39356304D01*
X147957641Y-39456939D01*
X147738987Y-39603038D01*
X147553038Y-39788987D01*
X147406939Y-40007641D01*
X147306304Y-40250595D01*
X147255000Y-40508514D01*
X142542000Y-40508514D01*
X142542000Y-38456087D01*
X142545919Y-38416299D01*
X142538285Y-38338793D01*
X142530280Y-38257512D01*
X142483963Y-38104827D01*
X142448951Y-38039324D01*
X142408749Y-37964110D01*
X142360036Y-37904754D01*
X142307528Y-37840772D01*
X142276618Y-37815405D01*
X140839802Y-36378590D01*
X140850960Y-36341807D01*
X140877701Y-36070300D01*
X140850960Y-35798793D01*
X140771764Y-35537719D01*
X140643157Y-35297112D01*
X140470081Y-35086219D01*
X140259188Y-34913143D01*
X140048073Y-34800300D01*
X140259188Y-34687457D01*
X140470081Y-34514381D01*
X140643157Y-34303488D01*
X140771764Y-34062881D01*
X140850960Y-33801807D01*
X140877701Y-33530300D01*
X140850960Y-33258793D01*
X140771764Y-32997719D01*
X140643157Y-32757112D01*
X140470081Y-32546219D01*
X140259188Y-32373143D01*
X140048073Y-32260300D01*
X140259188Y-32147457D01*
X140470081Y-31974381D01*
X140643157Y-31763488D01*
X140771764Y-31522881D01*
X140850960Y-31261807D01*
X140877701Y-30990300D01*
X140850960Y-30718793D01*
X140771764Y-30457719D01*
X140643157Y-30217112D01*
X140470081Y-30006219D01*
X140259188Y-29833143D01*
X140048073Y-29720300D01*
X140259188Y-29607457D01*
X140470081Y-29434381D01*
X140643157Y-29223488D01*
X140771764Y-28982881D01*
X140850960Y-28721807D01*
X140877701Y-28450300D01*
X140850960Y-28178793D01*
X140771764Y-27917719D01*
X140708129Y-27798665D01*
X147195000Y-27798665D01*
X147195000Y-28081335D01*
X147250147Y-28358574D01*
X147358320Y-28619727D01*
X147515363Y-28854759D01*
X147715241Y-29054637D01*
X147820000Y-29124635D01*
X147820001Y-31928907D01*
X147738987Y-31983038D01*
X147553038Y-32168987D01*
X147406939Y-32387641D01*
X147306304Y-32630595D01*
X147255000Y-32888514D01*
X147255000Y-33151486D01*
X147306304Y-33409405D01*
X147406939Y-33652359D01*
X147553038Y-33871013D01*
X147738987Y-34056962D01*
X147957641Y-34203061D01*
X148200595Y-34303696D01*
X148458514Y-34355000D01*
X148721486Y-34355000D01*
X148979405Y-34303696D01*
X149222359Y-34203061D01*
X149441013Y-34056962D01*
X149626962Y-33871013D01*
X149681093Y-33790000D01*
X153261928Y-33790000D01*
X153261928Y-34020000D01*
X153274188Y-34144482D01*
X153310498Y-34264180D01*
X153369463Y-34374494D01*
X153448815Y-34471185D01*
X153545506Y-34550537D01*
X153649223Y-34605976D01*
X153500186Y-34659956D01*
X153359296Y-34949571D01*
X153277616Y-35261108D01*
X153258282Y-35582595D01*
X153302039Y-35901675D01*
X153407205Y-36206088D01*
X153500186Y-36380044D01*
X153764587Y-36475808D01*
X154720395Y-35520000D01*
X154706253Y-35505858D01*
X154885858Y-35326253D01*
X154900000Y-35340395D01*
X154914143Y-35326253D01*
X155093748Y-35505858D01*
X155079605Y-35520000D01*
X156035413Y-36475808D01*
X156299814Y-36380044D01*
X156440704Y-36090429D01*
X156522384Y-35778892D01*
X156541718Y-35457405D01*
X156497961Y-35138325D01*
X156392795Y-34833912D01*
X156299814Y-34659956D01*
X156150777Y-34605976D01*
X156254494Y-34550537D01*
X156351185Y-34471185D01*
X156430537Y-34374494D01*
X156489502Y-34264180D01*
X156522496Y-34155413D01*
X168444192Y-34155413D01*
X168539956Y-34419814D01*
X168829571Y-34560704D01*
X169141108Y-34642384D01*
X169462595Y-34661718D01*
X169781675Y-34617961D01*
X170086088Y-34512795D01*
X170260044Y-34419814D01*
X170355808Y-34155413D01*
X169400000Y-33199605D01*
X168444192Y-34155413D01*
X156522496Y-34155413D01*
X156525812Y-34144482D01*
X156538072Y-34020000D01*
X156538072Y-33082595D01*
X167758282Y-33082595D01*
X167802039Y-33401675D01*
X167907205Y-33706088D01*
X168000186Y-33880044D01*
X168264587Y-33975808D01*
X169220395Y-33020000D01*
X169579605Y-33020000D01*
X170535413Y-33975808D01*
X170799814Y-33880044D01*
X170940704Y-33590429D01*
X171022384Y-33278892D01*
X171041718Y-32957405D01*
X170997961Y-32638325D01*
X170892795Y-32333912D01*
X170799814Y-32159956D01*
X170535413Y-32064192D01*
X169579605Y-33020000D01*
X169220395Y-33020000D01*
X168264587Y-32064192D01*
X168000186Y-32159956D01*
X167859296Y-32449571D01*
X167777616Y-32761108D01*
X167758282Y-33082595D01*
X156538072Y-33082595D01*
X156538072Y-32020000D01*
X156525812Y-31895518D01*
X156522497Y-31884587D01*
X168444192Y-31884587D01*
X169400000Y-32840395D01*
X170355808Y-31884587D01*
X170260044Y-31620186D01*
X169970429Y-31479296D01*
X169658892Y-31397616D01*
X169337405Y-31378282D01*
X169018325Y-31422039D01*
X168713912Y-31527205D01*
X168539956Y-31620186D01*
X168444192Y-31884587D01*
X156522497Y-31884587D01*
X156489502Y-31775820D01*
X156430537Y-31665506D01*
X156351185Y-31568815D01*
X156254494Y-31489463D01*
X156144180Y-31430498D01*
X156024482Y-31394188D01*
X155900000Y-31381928D01*
X153900000Y-31381928D01*
X153775518Y-31394188D01*
X153655820Y-31430498D01*
X153545506Y-31489463D01*
X153448815Y-31568815D01*
X153369463Y-31665506D01*
X153310498Y-31775820D01*
X153274188Y-31895518D01*
X153261928Y-32020000D01*
X153261928Y-32170000D01*
X149627639Y-32170000D01*
X149626962Y-32168987D01*
X149441013Y-31983038D01*
X149440000Y-31982361D01*
X149440000Y-29124635D01*
X149544759Y-29054637D01*
X149666694Y-28932702D01*
X150316903Y-28932702D01*
X150388486Y-29176671D01*
X150643996Y-29297571D01*
X150918184Y-29366300D01*
X151200512Y-29380217D01*
X151480130Y-29338787D01*
X151746292Y-29243603D01*
X151871514Y-29176671D01*
X151943097Y-28932702D01*
X151130000Y-28119605D01*
X150316903Y-28932702D01*
X149666694Y-28932702D01*
X149744637Y-28854759D01*
X149878692Y-28654131D01*
X149893329Y-28681514D01*
X150137298Y-28753097D01*
X150950395Y-27940000D01*
X151309605Y-27940000D01*
X152122702Y-28753097D01*
X152366671Y-28681514D01*
X152372119Y-28670000D01*
X160261928Y-28670000D01*
X160261928Y-31170000D01*
X160274188Y-31294482D01*
X160310498Y-31414180D01*
X160369463Y-31524494D01*
X160448815Y-31621185D01*
X160545506Y-31700537D01*
X160655820Y-31759502D01*
X160775518Y-31795812D01*
X160900000Y-31808072D01*
X163900000Y-31808072D01*
X164024482Y-31795812D01*
X164144180Y-31759502D01*
X164254494Y-31700537D01*
X164351185Y-31621185D01*
X164430537Y-31524494D01*
X164489502Y-31414180D01*
X164525812Y-31294482D01*
X164538072Y-31170000D01*
X164538072Y-28670000D01*
X164525812Y-28545518D01*
X164489502Y-28425820D01*
X164430537Y-28315506D01*
X164351185Y-28218815D01*
X164254494Y-28139463D01*
X164144180Y-28080498D01*
X164024482Y-28044188D01*
X163900000Y-28031928D01*
X160900000Y-28031928D01*
X160775518Y-28044188D01*
X160655820Y-28080498D01*
X160545506Y-28139463D01*
X160448815Y-28218815D01*
X160369463Y-28315506D01*
X160310498Y-28425820D01*
X160274188Y-28545518D01*
X160261928Y-28670000D01*
X152372119Y-28670000D01*
X152487571Y-28426004D01*
X152556300Y-28151816D01*
X152570217Y-27869488D01*
X152548049Y-27719872D01*
X175565000Y-27719872D01*
X175565000Y-28160128D01*
X175650890Y-28591925D01*
X175819369Y-28998669D01*
X176063962Y-29364729D01*
X176375271Y-29676038D01*
X176741331Y-29920631D01*
X177148075Y-30089110D01*
X177579872Y-30175000D01*
X178020128Y-30175000D01*
X178451925Y-30089110D01*
X178858669Y-29920631D01*
X179224729Y-29676038D01*
X179536038Y-29364729D01*
X179780631Y-28998669D01*
X179949110Y-28591925D01*
X180035000Y-28160128D01*
X180035000Y-27719872D01*
X179949110Y-27288075D01*
X179780631Y-26881331D01*
X179536038Y-26515271D01*
X179224729Y-26203962D01*
X178858669Y-25959369D01*
X178451925Y-25790890D01*
X178020128Y-25705000D01*
X177579872Y-25705000D01*
X177148075Y-25790890D01*
X176741331Y-25959369D01*
X176375271Y-26203962D01*
X176063962Y-26515271D01*
X175819369Y-26881331D01*
X175650890Y-27288075D01*
X175565000Y-27719872D01*
X152548049Y-27719872D01*
X152528787Y-27589870D01*
X152433603Y-27323708D01*
X152366671Y-27198486D01*
X152122702Y-27126903D01*
X151309605Y-27940000D01*
X150950395Y-27940000D01*
X150137298Y-27126903D01*
X149893329Y-27198486D01*
X149879676Y-27227341D01*
X149744637Y-27025241D01*
X149666694Y-26947298D01*
X150316903Y-26947298D01*
X151130000Y-27760395D01*
X151943097Y-26947298D01*
X151871514Y-26703329D01*
X151616004Y-26582429D01*
X151341816Y-26513700D01*
X151059488Y-26499783D01*
X150779870Y-26541213D01*
X150513708Y-26636397D01*
X150388486Y-26703329D01*
X150316903Y-26947298D01*
X149666694Y-26947298D01*
X149544759Y-26825363D01*
X149309727Y-26668320D01*
X149048574Y-26560147D01*
X148771335Y-26505000D01*
X148488665Y-26505000D01*
X148211426Y-26560147D01*
X147950273Y-26668320D01*
X147715241Y-26825363D01*
X147515363Y-27025241D01*
X147358320Y-27260273D01*
X147250147Y-27521426D01*
X147195000Y-27798665D01*
X140708129Y-27798665D01*
X140643157Y-27677112D01*
X140470081Y-27466219D01*
X140259188Y-27293143D01*
X140018581Y-27164536D01*
X139757507Y-27085340D01*
X139554037Y-27065300D01*
X139335813Y-27065300D01*
X138268899Y-25998387D01*
X138243528Y-25967472D01*
X138120189Y-25866251D01*
X137979473Y-25791037D01*
X137826788Y-25744720D01*
X137707791Y-25733000D01*
X137707788Y-25733000D01*
X137668000Y-25729081D01*
X137628212Y-25733000D01*
X114881787Y-25733000D01*
X114841999Y-25729081D01*
X114802211Y-25733000D01*
X114802209Y-25733000D01*
X114683212Y-25744720D01*
X114530527Y-25791037D01*
X114485495Y-25815107D01*
X114389810Y-25866251D01*
X114338939Y-25908000D01*
X114266472Y-25967472D01*
X114241105Y-25998382D01*
X114060000Y-26179487D01*
X113878899Y-25998387D01*
X113853528Y-25967472D01*
X113730189Y-25866251D01*
X113589473Y-25791037D01*
X113436788Y-25744720D01*
X113317791Y-25733000D01*
X113317788Y-25733000D01*
X113278000Y-25729081D01*
X113238212Y-25733000D01*
X103614091Y-25733000D01*
X103574300Y-25729081D01*
X103415512Y-25744720D01*
X103262826Y-25791037D01*
X103170340Y-25840472D01*
X103122111Y-25866251D01*
X102998772Y-25967472D01*
X102973405Y-25998382D01*
X101900081Y-27071706D01*
X101835037Y-27065300D01*
X101498963Y-27065300D01*
X101295493Y-27085340D01*
X101034419Y-27164536D01*
X100793812Y-27293143D01*
X100582919Y-27466219D01*
X100409843Y-27677112D01*
X100281236Y-27917719D01*
X100202040Y-28178793D01*
X100175299Y-28450300D01*
X100202040Y-28721807D01*
X100273688Y-28958000D01*
X98144275Y-28958000D01*
X98075072Y-28937007D01*
X98075072Y-27700300D01*
X98062812Y-27575818D01*
X98026502Y-27456120D01*
X97967537Y-27345806D01*
X97888185Y-27249115D01*
X97791494Y-27169763D01*
X97681180Y-27110798D01*
X97561482Y-27074488D01*
X97437000Y-27062228D01*
X95737000Y-27062228D01*
X95612518Y-27074488D01*
X95492820Y-27110798D01*
X95382506Y-27169763D01*
X95285815Y-27249115D01*
X95206463Y-27345806D01*
X95147498Y-27456120D01*
X95111188Y-27575818D01*
X95098928Y-27700300D01*
X95098928Y-29200300D01*
X95111188Y-29324782D01*
X95147498Y-29444480D01*
X95206463Y-29554794D01*
X95285815Y-29651485D01*
X95382506Y-29730837D01*
X95492820Y-29789802D01*
X95612518Y-29826112D01*
X95710608Y-29835773D01*
X95502919Y-30006219D01*
X95329843Y-30217112D01*
X95201236Y-30457719D01*
X95122040Y-30718793D01*
X95095299Y-30990300D01*
X95122040Y-31261807D01*
X95201236Y-31522881D01*
X95329843Y-31763488D01*
X95502919Y-31974381D01*
X95713812Y-32147457D01*
X95924927Y-32260300D01*
X95713812Y-32373143D01*
X95502919Y-32546219D01*
X95329843Y-32757112D01*
X95201236Y-32997719D01*
X95122040Y-33258793D01*
X95095299Y-33530300D01*
X95122040Y-33801807D01*
X95201236Y-34062881D01*
X95329843Y-34303488D01*
X95502919Y-34514381D01*
X95713812Y-34687457D01*
X95924927Y-34800300D01*
X95713812Y-34913143D01*
X95502919Y-35086219D01*
X95329843Y-35297112D01*
X95201236Y-35537719D01*
X95122040Y-35798793D01*
X95095299Y-36070300D01*
X95122040Y-36341807D01*
X95201236Y-36602881D01*
X95329843Y-36843488D01*
X95502919Y-37054381D01*
X95713812Y-37227457D01*
X95924927Y-37340300D01*
X95713812Y-37453143D01*
X95502919Y-37626219D01*
X95329843Y-37837112D01*
X95201236Y-38077719D01*
X95122040Y-38338793D01*
X95095299Y-38610300D01*
X95122040Y-38881807D01*
X95201236Y-39142881D01*
X95329843Y-39383488D01*
X95502919Y-39594381D01*
X95713812Y-39767457D01*
X95954419Y-39896064D01*
X96215493Y-39975260D01*
X96418963Y-39995300D01*
X96755037Y-39995300D01*
X96958507Y-39975260D01*
X97219581Y-39896064D01*
X97460188Y-39767457D01*
X97671081Y-39594381D01*
X97844157Y-39383488D01*
X97972764Y-39142881D01*
X98051960Y-38881807D01*
X98078701Y-38610300D01*
X98051960Y-38338793D01*
X98040802Y-38302011D01*
X98244813Y-38098000D01*
X100275084Y-38098000D01*
X100202040Y-38338793D01*
X100175299Y-38610300D01*
X100202040Y-38881807D01*
X100281236Y-39142881D01*
X100409843Y-39383488D01*
X100582919Y-39594381D01*
X100793812Y-39767457D01*
X101034419Y-39896064D01*
X101295493Y-39975260D01*
X101498963Y-39995300D01*
X101835037Y-39995300D01*
X101900081Y-39988894D01*
X103253115Y-41341928D01*
X102070000Y-41341928D01*
X101945518Y-41354188D01*
X101825820Y-41390498D01*
X101715506Y-41449463D01*
X101618815Y-41528815D01*
X101539463Y-41625506D01*
X101480498Y-41735820D01*
X101444188Y-41855518D01*
X101431928Y-41980000D01*
X101431928Y-44380000D01*
X101444188Y-44504482D01*
X101480498Y-44624180D01*
X101539463Y-44734494D01*
X101618815Y-44831185D01*
X101715506Y-44910537D01*
X101825820Y-44969502D01*
X101945518Y-45005812D01*
X102070000Y-45018072D01*
X103350301Y-45018072D01*
X103388038Y-45142473D01*
X103463251Y-45283189D01*
X103539108Y-45375620D01*
X104343487Y-46180000D01*
X93098861Y-46180000D01*
X93212379Y-46104150D01*
X93433150Y-45883379D01*
X93606609Y-45623779D01*
X93726089Y-45335327D01*
X93787000Y-45029109D01*
X93787000Y-44716891D01*
X93726089Y-44410673D01*
X93606609Y-44122221D01*
X93433150Y-43862621D01*
X93212379Y-43641850D01*
X92952779Y-43468391D01*
X92664327Y-43348911D01*
X92358109Y-43288000D01*
X92045891Y-43288000D01*
X91739673Y-43348911D01*
X91451221Y-43468391D01*
X91191621Y-43641850D01*
X90970850Y-43862621D01*
X90890125Y-43983434D01*
X90801752Y-43952853D01*
X89881605Y-44873000D01*
X90801752Y-45793147D01*
X90890125Y-45762566D01*
X90970850Y-45883379D01*
X91191621Y-46104150D01*
X91305139Y-46180000D01*
X90550430Y-46180000D01*
X90622147Y-45972752D01*
X89702000Y-45052605D01*
X88781853Y-45972752D01*
X88853570Y-46180000D01*
X88098861Y-46180000D01*
X88212379Y-46104150D01*
X88433150Y-45883379D01*
X88513875Y-45762566D01*
X88602248Y-45793147D01*
X89522395Y-44873000D01*
X88602248Y-43952853D01*
X88513875Y-43983434D01*
X88433150Y-43862621D01*
X88343777Y-43773248D01*
X88781853Y-43773248D01*
X89702000Y-44693395D01*
X90622147Y-43773248D01*
X90532421Y-43513958D01*
X90251329Y-43378065D01*
X89949127Y-43299621D01*
X89637427Y-43281641D01*
X89328209Y-43324816D01*
X89033356Y-43427487D01*
X88871579Y-43513958D01*
X88781853Y-43773248D01*
X88343777Y-43773248D01*
X88212379Y-43641850D01*
X87952779Y-43468391D01*
X87664327Y-43348911D01*
X87358109Y-43288000D01*
X87045891Y-43288000D01*
X86739673Y-43348911D01*
X86451221Y-43468391D01*
X86191621Y-43641850D01*
X85970850Y-43862621D01*
X85797391Y-44122221D01*
X85677911Y-44410673D01*
X85617000Y-44716891D01*
X85617000Y-45029109D01*
X85677911Y-45335327D01*
X85797391Y-45623779D01*
X85970850Y-45883379D01*
X86191621Y-46104150D01*
X86305139Y-46180000D01*
X71150213Y-46180000D01*
X70853247Y-45883034D01*
X70869607Y-45869608D01*
X71048932Y-45651101D01*
X71182182Y-45401808D01*
X71264236Y-45131309D01*
X71285000Y-44920492D01*
X71285000Y-43979509D01*
X71264236Y-43768691D01*
X71182182Y-43498192D01*
X71048932Y-43248899D01*
X70869608Y-43030392D01*
X70651101Y-42851068D01*
X70643490Y-42847000D01*
X81875212Y-42847000D01*
X81915000Y-42850919D01*
X81954788Y-42847000D01*
X81954791Y-42847000D01*
X82073788Y-42835280D01*
X82226473Y-42788963D01*
X82367189Y-42713749D01*
X82490528Y-42612528D01*
X82515899Y-42581613D01*
X83987119Y-41110394D01*
X84018028Y-41085028D01*
X84099957Y-40985197D01*
X84119249Y-40961690D01*
X84172947Y-40861226D01*
X84194463Y-40820973D01*
X84240780Y-40668288D01*
X84252500Y-40549291D01*
X84252500Y-40549289D01*
X84256419Y-40509501D01*
X84252500Y-40469713D01*
X84252500Y-39763132D01*
X84315688Y-39729357D01*
X84526581Y-39556281D01*
X84699657Y-39345388D01*
X84828264Y-39104781D01*
X84907460Y-38843707D01*
X84934201Y-38572200D01*
X84907460Y-38300693D01*
X84828264Y-38039619D01*
X84699657Y-37799012D01*
X84526581Y-37588119D01*
X84315688Y-37415043D01*
X84104573Y-37302200D01*
X84315688Y-37189357D01*
X84526581Y-37016281D01*
X84699657Y-36805388D01*
X84828264Y-36564781D01*
X84907460Y-36303707D01*
X84934201Y-36032200D01*
X84907460Y-35760693D01*
X84828264Y-35499619D01*
X84699657Y-35259012D01*
X84526581Y-35048119D01*
X84315688Y-34875043D01*
X84104573Y-34762200D01*
X84315688Y-34649357D01*
X84526581Y-34476281D01*
X84699657Y-34265388D01*
X84828264Y-34024781D01*
X84907460Y-33763707D01*
X84934201Y-33492200D01*
X84907460Y-33220693D01*
X84828264Y-32959619D01*
X84742878Y-32799872D01*
X87935000Y-32799872D01*
X87935000Y-33240128D01*
X88020890Y-33671925D01*
X88189369Y-34078669D01*
X88433962Y-34444729D01*
X88745271Y-34756038D01*
X89111331Y-35000631D01*
X89518075Y-35169110D01*
X89949872Y-35255000D01*
X90390128Y-35255000D01*
X90821925Y-35169110D01*
X91228669Y-35000631D01*
X91594729Y-34756038D01*
X91906038Y-34444729D01*
X92150631Y-34078669D01*
X92319110Y-33671925D01*
X92405000Y-33240128D01*
X92405000Y-32799872D01*
X92319110Y-32368075D01*
X92150631Y-31961331D01*
X91906038Y-31595271D01*
X91594729Y-31283962D01*
X91228669Y-31039369D01*
X90821925Y-30870890D01*
X90390128Y-30785000D01*
X89949872Y-30785000D01*
X89518075Y-30870890D01*
X89111331Y-31039369D01*
X88745271Y-31283962D01*
X88433962Y-31595271D01*
X88189369Y-31961331D01*
X88020890Y-32368075D01*
X87935000Y-32799872D01*
X84742878Y-32799872D01*
X84699657Y-32719012D01*
X84526581Y-32508119D01*
X84315688Y-32335043D01*
X84104573Y-32222200D01*
X84315688Y-32109357D01*
X84526581Y-31936281D01*
X84699657Y-31725388D01*
X84828264Y-31484781D01*
X84907460Y-31223707D01*
X84934201Y-30952200D01*
X84907460Y-30680693D01*
X84828264Y-30419619D01*
X84699657Y-30179012D01*
X84526581Y-29968119D01*
X84315688Y-29795043D01*
X84104573Y-29682200D01*
X84315688Y-29569357D01*
X84526581Y-29396281D01*
X84699657Y-29185388D01*
X84828264Y-28944781D01*
X84907460Y-28683707D01*
X84934201Y-28412200D01*
X84907460Y-28140693D01*
X84828264Y-27879619D01*
X84699657Y-27639012D01*
X84526581Y-27428119D01*
X84315688Y-27255043D01*
X84075081Y-27126436D01*
X83820819Y-27049307D01*
X82642899Y-25871387D01*
X82617528Y-25840472D01*
X82494189Y-25739251D01*
X82353473Y-25664037D01*
X82200788Y-25617720D01*
X82081791Y-25606000D01*
X82081788Y-25606000D01*
X82042000Y-25602081D01*
X82002212Y-25606000D01*
X60363788Y-25606000D01*
X60324000Y-25602081D01*
X60284212Y-25606000D01*
X60284209Y-25606000D01*
X60165212Y-25617720D01*
X60012527Y-25664037D01*
X59947024Y-25699049D01*
X59871810Y-25739251D01*
X59808888Y-25790890D01*
X59748472Y-25840472D01*
X59723105Y-25871382D01*
X58402386Y-27192102D01*
X58316411Y-27175000D01*
X58043589Y-27175000D01*
X57776011Y-27228225D01*
X57523957Y-27332629D01*
X57297114Y-27484201D01*
X57104201Y-27677114D01*
X56952629Y-27903957D01*
X56910000Y-28006873D01*
X56867371Y-27903957D01*
X56715799Y-27677114D01*
X56522886Y-27484201D01*
X56296043Y-27332629D01*
X56043989Y-27228225D01*
X55776411Y-27175000D01*
X55503589Y-27175000D01*
X55236011Y-27228225D01*
X54983957Y-27332629D01*
X54757114Y-27484201D01*
X54564201Y-27677114D01*
X54412629Y-27903957D01*
X54308225Y-28156011D01*
X54255000Y-28423589D01*
X54255000Y-28696411D01*
X54308225Y-28963989D01*
X54412629Y-29216043D01*
X54546236Y-29416000D01*
X53548513Y-29416000D01*
X49495900Y-25363388D01*
X49470528Y-25332472D01*
X49347189Y-25231251D01*
X49206473Y-25156037D01*
X49053788Y-25109720D01*
X48934791Y-25098000D01*
X48934788Y-25098000D01*
X48895000Y-25094081D01*
X48855212Y-25098000D01*
X38901788Y-25098000D01*
X38862000Y-25094081D01*
X38822212Y-25098000D01*
X38822209Y-25098000D01*
X38703212Y-25109720D01*
X38550527Y-25156037D01*
X38409811Y-25231251D01*
X38286472Y-25332472D01*
X38261105Y-25363382D01*
X37555383Y-26069105D01*
X37524473Y-26094472D01*
X37499108Y-26125380D01*
X37423251Y-26217811D01*
X37402191Y-26257213D01*
X37348038Y-26358527D01*
X37303606Y-26505000D01*
X37301721Y-26511213D01*
X37286081Y-26670000D01*
X37290001Y-26709798D01*
X37290000Y-30313212D01*
X37286081Y-30353000D01*
X37290000Y-30392788D01*
X37290000Y-30392790D01*
X37301720Y-30511787D01*
X37348037Y-30664472D01*
X37367764Y-30701379D01*
X37423251Y-30805189D01*
X37444854Y-30831512D01*
X37524472Y-30928528D01*
X37555387Y-30953899D01*
X38174505Y-31573018D01*
X38199872Y-31603928D01*
X38230780Y-31629293D01*
X38323210Y-31705149D01*
X38381498Y-31736304D01*
X38463927Y-31780363D01*
X38616612Y-31826680D01*
X38735609Y-31838400D01*
X38735612Y-31838400D01*
X38775400Y-31842319D01*
X38815188Y-31838400D01*
X39518154Y-31838400D01*
X39661019Y-32012481D01*
X39871912Y-32185557D01*
X40083027Y-32298400D01*
X39871912Y-32411243D01*
X39661019Y-32584319D01*
X39487943Y-32795212D01*
X39359336Y-33035819D01*
X39280140Y-33296893D01*
X39253399Y-33568400D01*
X39280140Y-33839907D01*
X39359336Y-34100981D01*
X39487943Y-34341588D01*
X39661019Y-34552481D01*
X39871912Y-34725557D01*
X40083027Y-34838400D01*
X39871912Y-34951243D01*
X39661019Y-35124319D01*
X39487943Y-35335212D01*
X39359336Y-35575819D01*
X39280140Y-35836893D01*
X39253399Y-36108400D01*
X39280140Y-36379907D01*
X39359336Y-36640981D01*
X39487943Y-36881588D01*
X39661019Y-37092481D01*
X39871912Y-37265557D01*
X40083027Y-37378400D01*
X39871912Y-37491243D01*
X39661019Y-37664319D01*
X39487943Y-37875212D01*
X39359336Y-38115819D01*
X39280140Y-38376893D01*
X39253399Y-38648400D01*
X39260006Y-38715481D01*
X38063383Y-39912105D01*
X38032473Y-39937472D01*
X37992408Y-39986292D01*
X37931251Y-40060811D01*
X37881449Y-40153986D01*
X37856038Y-40201527D01*
X37810783Y-40350713D01*
X37809721Y-40354213D01*
X37794081Y-40513000D01*
X37798001Y-40552798D01*
X37798000Y-45299212D01*
X37794081Y-45339000D01*
X37798000Y-45378788D01*
X37798000Y-45378790D01*
X37809720Y-45497787D01*
X37856037Y-45650472D01*
X37866746Y-45670507D01*
X37931251Y-45791189D01*
X37958333Y-45824188D01*
X38032472Y-45914528D01*
X38063388Y-45939900D01*
X42461086Y-50337599D01*
X42191309Y-50255764D01*
X41910000Y-50228057D01*
X41628692Y-50255764D01*
X41358193Y-50337818D01*
X41108900Y-50471068D01*
X40890393Y-50650392D01*
X40711068Y-50868899D01*
X40577818Y-51118192D01*
X40495764Y-51388691D01*
X40475000Y-51599508D01*
X40475000Y-52540491D01*
X40495764Y-52751308D01*
X40577818Y-53021807D01*
X40711068Y-53271100D01*
X40890392Y-53489607D01*
X41108899Y-53668932D01*
X41358192Y-53802182D01*
X41628691Y-53884236D01*
X41910000Y-53911943D01*
X42191308Y-53884236D01*
X42461807Y-53802182D01*
X42711100Y-53668932D01*
X42929607Y-53489608D01*
X43108932Y-53271101D01*
X43180000Y-53138142D01*
X43251068Y-53271100D01*
X43430392Y-53489607D01*
X43648899Y-53668932D01*
X43898192Y-53802182D01*
X44168691Y-53884236D01*
X44450000Y-53911943D01*
X44731308Y-53884236D01*
X45001807Y-53802182D01*
X45251100Y-53668932D01*
X45469607Y-53489608D01*
X45648932Y-53271101D01*
X45720000Y-53138142D01*
X45791068Y-53271100D01*
X45970392Y-53489607D01*
X46188899Y-53668932D01*
X46438192Y-53802182D01*
X46708691Y-53884236D01*
X46990000Y-53911943D01*
X47271308Y-53884236D01*
X47541807Y-53802182D01*
X47791100Y-53668932D01*
X48009607Y-53489608D01*
X48188932Y-53271101D01*
X48260000Y-53138142D01*
X48331068Y-53271100D01*
X48510392Y-53489607D01*
X48728899Y-53668932D01*
X48978192Y-53802182D01*
X49248691Y-53884236D01*
X49530000Y-53911943D01*
X49811308Y-53884236D01*
X50081807Y-53802182D01*
X50331100Y-53668932D01*
X50549607Y-53489608D01*
X50728932Y-53271101D01*
X50800000Y-53138142D01*
X50871068Y-53271100D01*
X51050392Y-53489607D01*
X51268899Y-53668932D01*
X51518192Y-53802182D01*
X51788691Y-53884236D01*
X52070000Y-53911943D01*
X52351308Y-53884236D01*
X52621807Y-53802182D01*
X52871100Y-53668932D01*
X53089607Y-53489608D01*
X53268932Y-53271101D01*
X53340000Y-53138142D01*
X53409438Y-53268050D01*
X50255383Y-56422105D01*
X50224473Y-56447472D01*
X50199108Y-56478380D01*
X50123251Y-56570811D01*
X50062069Y-56685276D01*
X50048038Y-56711527D01*
X50001722Y-56864211D01*
X50001721Y-56864213D01*
X49986081Y-57023000D01*
X49990001Y-57062798D01*
X49990001Y-57355634D01*
X49948987Y-57383038D01*
X49763038Y-57568987D01*
X49616939Y-57787641D01*
X49516304Y-58030595D01*
X49465000Y-58288514D01*
X49465000Y-58551486D01*
X49516304Y-58809405D01*
X49616939Y-59052359D01*
X49763038Y-59271013D01*
X49948987Y-59456962D01*
X49990001Y-59484366D01*
X49990001Y-60285202D01*
X49986081Y-60325000D01*
X49998393Y-60450000D01*
X50001721Y-60483788D01*
X50017939Y-60537251D01*
X50048038Y-60636473D01*
X50123251Y-60777189D01*
X50178852Y-60844939D01*
X50224473Y-60900528D01*
X50255383Y-60925895D01*
X51977105Y-62647618D01*
X52002472Y-62678528D01*
X52125811Y-62779749D01*
X52266526Y-62854963D01*
X52290908Y-62862359D01*
X52419212Y-62901280D01*
X52538209Y-62913000D01*
X52538212Y-62913000D01*
X52578000Y-62916919D01*
X52617788Y-62913000D01*
X67683912Y-62913000D01*
X67723700Y-62916919D01*
X67763488Y-62913000D01*
X67763491Y-62913000D01*
X67882488Y-62901280D01*
X68035173Y-62854963D01*
X68175889Y-62779749D01*
X68299228Y-62678528D01*
X68324600Y-62647612D01*
X72134593Y-58837620D01*
X72210449Y-58745189D01*
X72272614Y-58628888D01*
X75531502Y-55370000D01*
X90577099Y-55370000D01*
X95308022Y-60100924D01*
X95204010Y-60256589D01*
X95092068Y-60526842D01*
X95035000Y-60813740D01*
X95035000Y-61106260D01*
X95092068Y-61393158D01*
X95204010Y-61663411D01*
X95366525Y-61906632D01*
X95573368Y-62113475D01*
X95816589Y-62275990D01*
X96086842Y-62387932D01*
X96373740Y-62445000D01*
X96666260Y-62445000D01*
X96953158Y-62387932D01*
X97223411Y-62275990D01*
X97466632Y-62113475D01*
X97673475Y-61906632D01*
X97790000Y-61732240D01*
X97906525Y-61906632D01*
X98113368Y-62113475D01*
X98356589Y-62275990D01*
X98626842Y-62387932D01*
X98913740Y-62445000D01*
X99206260Y-62445000D01*
X99493158Y-62387932D01*
X99763411Y-62275990D01*
X100006632Y-62113475D01*
X100213475Y-61906632D01*
X100330000Y-61732240D01*
X100446525Y-61906632D01*
X100653368Y-62113475D01*
X100896589Y-62275990D01*
X101166842Y-62387932D01*
X101453740Y-62445000D01*
X101746260Y-62445000D01*
X102033158Y-62387932D01*
X102303411Y-62275990D01*
X102546632Y-62113475D01*
X102753475Y-61906632D01*
X102870000Y-61732240D01*
X102986525Y-61906632D01*
X103193368Y-62113475D01*
X103436589Y-62275990D01*
X103706842Y-62387932D01*
X103993740Y-62445000D01*
X104286260Y-62445000D01*
X104573158Y-62387932D01*
X104843411Y-62275990D01*
X105086632Y-62113475D01*
X105293475Y-61906632D01*
X105410000Y-61732240D01*
X105526525Y-61906632D01*
X105733368Y-62113475D01*
X105976589Y-62275990D01*
X106246842Y-62387932D01*
X106533740Y-62445000D01*
X106826260Y-62445000D01*
X107113158Y-62387932D01*
X107383411Y-62275990D01*
X107626632Y-62113475D01*
X107833475Y-61906632D01*
X107950000Y-61732240D01*
X108066525Y-61906632D01*
X108273368Y-62113475D01*
X108516589Y-62275990D01*
X108786842Y-62387932D01*
X109073740Y-62445000D01*
X109366260Y-62445000D01*
X109653158Y-62387932D01*
X109923411Y-62275990D01*
X110166632Y-62113475D01*
X110373475Y-61906632D01*
X110490000Y-61732240D01*
X110606525Y-61906632D01*
X110813368Y-62113475D01*
X111056589Y-62275990D01*
X111326842Y-62387932D01*
X111613740Y-62445000D01*
X111906260Y-62445000D01*
X112193158Y-62387932D01*
X112463411Y-62275990D01*
X112706632Y-62113475D01*
X112913475Y-61906632D01*
X113030000Y-61732240D01*
X113146525Y-61906632D01*
X113353368Y-62113475D01*
X113596589Y-62275990D01*
X113866842Y-62387932D01*
X114153740Y-62445000D01*
X114446260Y-62445000D01*
X114733158Y-62387932D01*
X115003411Y-62275990D01*
X115246632Y-62113475D01*
X115453475Y-61906632D01*
X115570000Y-61732240D01*
X115686525Y-61906632D01*
X115893368Y-62113475D01*
X116136589Y-62275990D01*
X116406842Y-62387932D01*
X116693740Y-62445000D01*
X116986260Y-62445000D01*
X117273158Y-62387932D01*
X117543411Y-62275990D01*
X117573809Y-62255679D01*
X116885488Y-62944000D01*
X81742513Y-62944000D01*
X77504306Y-58705794D01*
X77535000Y-58551486D01*
X77535000Y-58288514D01*
X77533041Y-58278665D01*
X79845000Y-58278665D01*
X79845000Y-58561335D01*
X79900147Y-58838574D01*
X80008320Y-59099727D01*
X80165363Y-59334759D01*
X80365241Y-59534637D01*
X80600273Y-59691680D01*
X80861426Y-59799853D01*
X81138665Y-59855000D01*
X81421335Y-59855000D01*
X81698574Y-59799853D01*
X81959727Y-59691680D01*
X82194759Y-59534637D01*
X82316694Y-59412702D01*
X82966903Y-59412702D01*
X83038486Y-59656671D01*
X83293996Y-59777571D01*
X83568184Y-59846300D01*
X83850512Y-59860217D01*
X84130130Y-59818787D01*
X84396292Y-59723603D01*
X84521514Y-59656671D01*
X84576322Y-59469872D01*
X87935000Y-59469872D01*
X87935000Y-59910128D01*
X88020890Y-60341925D01*
X88189369Y-60748669D01*
X88433962Y-61114729D01*
X88745271Y-61426038D01*
X89111331Y-61670631D01*
X89518075Y-61839110D01*
X89949872Y-61925000D01*
X90390128Y-61925000D01*
X90821925Y-61839110D01*
X91228669Y-61670631D01*
X91594729Y-61426038D01*
X91906038Y-61114729D01*
X92150631Y-60748669D01*
X92319110Y-60341925D01*
X92405000Y-59910128D01*
X92405000Y-59469872D01*
X92319110Y-59038075D01*
X92150631Y-58631331D01*
X91906038Y-58265271D01*
X91594729Y-57953962D01*
X91228669Y-57709369D01*
X90821925Y-57540890D01*
X90390128Y-57455000D01*
X89949872Y-57455000D01*
X89518075Y-57540890D01*
X89111331Y-57709369D01*
X88745271Y-57953962D01*
X88433962Y-58265271D01*
X88189369Y-58631331D01*
X88020890Y-59038075D01*
X87935000Y-59469872D01*
X84576322Y-59469872D01*
X84593097Y-59412702D01*
X83780000Y-58599605D01*
X82966903Y-59412702D01*
X82316694Y-59412702D01*
X82394637Y-59334759D01*
X82528692Y-59134131D01*
X82543329Y-59161514D01*
X82787298Y-59233097D01*
X83600395Y-58420000D01*
X83959605Y-58420000D01*
X84772702Y-59233097D01*
X85016671Y-59161514D01*
X85137571Y-58906004D01*
X85206300Y-58631816D01*
X85220217Y-58349488D01*
X85178787Y-58069870D01*
X85083603Y-57803708D01*
X85016671Y-57678486D01*
X84772702Y-57606903D01*
X83959605Y-58420000D01*
X83600395Y-58420000D01*
X82787298Y-57606903D01*
X82543329Y-57678486D01*
X82529676Y-57707341D01*
X82394637Y-57505241D01*
X82316694Y-57427298D01*
X82966903Y-57427298D01*
X83780000Y-58240395D01*
X84593097Y-57427298D01*
X84521514Y-57183329D01*
X84266004Y-57062429D01*
X83991816Y-56993700D01*
X83709488Y-56979783D01*
X83429870Y-57021213D01*
X83163708Y-57116397D01*
X83038486Y-57183329D01*
X82966903Y-57427298D01*
X82316694Y-57427298D01*
X82194759Y-57305363D01*
X81959727Y-57148320D01*
X81698574Y-57040147D01*
X81421335Y-56985000D01*
X81138665Y-56985000D01*
X80861426Y-57040147D01*
X80600273Y-57148320D01*
X80365241Y-57305363D01*
X80165363Y-57505241D01*
X80008320Y-57740273D01*
X79900147Y-58001426D01*
X79845000Y-58278665D01*
X77533041Y-58278665D01*
X77483696Y-58030595D01*
X77383061Y-57787641D01*
X77236962Y-57568987D01*
X77051013Y-57383038D01*
X76832359Y-57236939D01*
X76589405Y-57136304D01*
X76331486Y-57085000D01*
X76068514Y-57085000D01*
X75810595Y-57136304D01*
X75567641Y-57236939D01*
X75348987Y-57383038D01*
X75163038Y-57568987D01*
X75016939Y-57787641D01*
X74916304Y-58030595D01*
X74865000Y-58288514D01*
X74865000Y-58551486D01*
X74916304Y-58809405D01*
X75016939Y-59052359D01*
X75163038Y-59271013D01*
X75348987Y-59456962D01*
X75567641Y-59603061D01*
X75810595Y-59703696D01*
X76068514Y-59755000D01*
X76262488Y-59755000D01*
X80806105Y-64298618D01*
X80831472Y-64329528D01*
X80899210Y-64385119D01*
X80954810Y-64430749D01*
X81028245Y-64470000D01*
X29870000Y-64470000D01*
X29870000Y-60739872D01*
X30785000Y-60739872D01*
X30785000Y-61180128D01*
X30870890Y-61611925D01*
X31039369Y-62018669D01*
X31283962Y-62384729D01*
X31595271Y-62696038D01*
X31961331Y-62940631D01*
X32368075Y-63109110D01*
X32799872Y-63195000D01*
X33240128Y-63195000D01*
X33671925Y-63109110D01*
X34078669Y-62940631D01*
X34444729Y-62696038D01*
X34756038Y-62384729D01*
X35000631Y-62018669D01*
X35169110Y-61611925D01*
X35255000Y-61180128D01*
X35255000Y-60739872D01*
X35169110Y-60308075D01*
X35000631Y-59901331D01*
X34756038Y-59535271D01*
X34444729Y-59223962D01*
X34078669Y-58979369D01*
X33671925Y-58810890D01*
X33240128Y-58725000D01*
X32799872Y-58725000D01*
X32368075Y-58810890D01*
X31961331Y-58979369D01*
X31595271Y-59223962D01*
X31283962Y-59535271D01*
X31039369Y-59901331D01*
X30870890Y-60308075D01*
X30785000Y-60739872D01*
X29870000Y-60739872D01*
X29870000Y-27719872D01*
X30785000Y-27719872D01*
X30785000Y-28160128D01*
X30870890Y-28591925D01*
X31039369Y-28998669D01*
X31283962Y-29364729D01*
X31595271Y-29676038D01*
X31961331Y-29920631D01*
X32368075Y-30089110D01*
X32799872Y-30175000D01*
X33240128Y-30175000D01*
X33671925Y-30089110D01*
X34078669Y-29920631D01*
X34444729Y-29676038D01*
X34756038Y-29364729D01*
X35000631Y-28998669D01*
X35169110Y-28591925D01*
X35255000Y-28160128D01*
X35255000Y-27719872D01*
X35169110Y-27288075D01*
X35000631Y-26881331D01*
X34756038Y-26515271D01*
X34444729Y-26203962D01*
X34078669Y-25959369D01*
X33671925Y-25790890D01*
X33240128Y-25705000D01*
X32799872Y-25705000D01*
X32368075Y-25790890D01*
X31961331Y-25959369D01*
X31595271Y-26203962D01*
X31283962Y-26515271D01*
X31039369Y-26881331D01*
X30870890Y-27288075D01*
X30785000Y-27719872D01*
X29870000Y-27719872D01*
X29870000Y-24790000D01*
X180550000Y-24790000D01*
X180550001Y-64470000D01*
G37*
%TD.AperFunction*%
D29*
X68651068Y-53271100D02*
X68830392Y-53489607D01*
X69048899Y-53668932D01*
X69298192Y-53802182D01*
X69568691Y-53884236D01*
X69850000Y-53911943D01*
X70131308Y-53884236D01*
X70401807Y-53802182D01*
X70651100Y-53668932D01*
X70869607Y-53489608D01*
X70889802Y-53465000D01*
X72460198Y-53465000D01*
X68818844Y-57106355D01*
X68711486Y-57085000D01*
X68448514Y-57085000D01*
X68190595Y-57136304D01*
X67947641Y-57236939D01*
X67728987Y-57383038D01*
X67543038Y-57568987D01*
X67515634Y-57610000D01*
X65914635Y-57610000D01*
X65844637Y-57505241D01*
X65644759Y-57305363D01*
X65409727Y-57148320D01*
X65148574Y-57040147D01*
X64871335Y-56985000D01*
X64588665Y-56985000D01*
X64311426Y-57040147D01*
X64050273Y-57148320D01*
X63815241Y-57305363D01*
X63615363Y-57505241D01*
X63481308Y-57705869D01*
X63466671Y-57678486D01*
X63222702Y-57606903D01*
X62409605Y-58420000D01*
X63222702Y-59233097D01*
X63466671Y-59161514D01*
X63480324Y-59132659D01*
X63615363Y-59334759D01*
X63815241Y-59534637D01*
X64050273Y-59691680D01*
X64311426Y-59799853D01*
X64588665Y-59855000D01*
X64871335Y-59855000D01*
X65148574Y-59799853D01*
X65409727Y-59691680D01*
X65644759Y-59534637D01*
X65844637Y-59334759D01*
X65914635Y-59230000D01*
X67515634Y-59230000D01*
X67543038Y-59271013D01*
X67728987Y-59456962D01*
X67947641Y-59603061D01*
X68190595Y-59703696D01*
X68448514Y-59755000D01*
X68711486Y-59755000D01*
X68969405Y-59703696D01*
X68983210Y-59697978D01*
X67388188Y-61293000D01*
X52913513Y-61293000D01*
X51610000Y-59989488D01*
X51610000Y-59484366D01*
X51651013Y-59456962D01*
X51836962Y-59271013D01*
X51983061Y-59052359D01*
X52083696Y-58809405D01*
X52135000Y-58551486D01*
X52135000Y-58288514D01*
X57085000Y-58288514D01*
X57085000Y-58551486D01*
X57136304Y-58809405D01*
X57236939Y-59052359D01*
X57383038Y-59271013D01*
X57568987Y-59456962D01*
X57787641Y-59603061D01*
X58030595Y-59703696D01*
X58288514Y-59755000D01*
X58551486Y-59755000D01*
X58809405Y-59703696D01*
X59052359Y-59603061D01*
X59271013Y-59456962D01*
X59315273Y-59412702D01*
X61416903Y-59412702D01*
X61488486Y-59656671D01*
X61743996Y-59777571D01*
X62018184Y-59846300D01*
X62300512Y-59860217D01*
X62580130Y-59818787D01*
X62846292Y-59723603D01*
X62971514Y-59656671D01*
X63043097Y-59412702D01*
X62230000Y-58599605D01*
X61416903Y-59412702D01*
X59315273Y-59412702D01*
X59456962Y-59271013D01*
X59603061Y-59052359D01*
X59703696Y-58809405D01*
X59755000Y-58551486D01*
X59755000Y-58490512D01*
X60789783Y-58490512D01*
X60831213Y-58770130D01*
X60926397Y-59036292D01*
X60993329Y-59161514D01*
X61237298Y-59233097D01*
X62050395Y-58420000D01*
X61237298Y-57606903D01*
X60993329Y-57678486D01*
X60872429Y-57933996D01*
X60803700Y-58208184D01*
X60789783Y-58490512D01*
X59755000Y-58490512D01*
X59755000Y-58288514D01*
X59703696Y-58030595D01*
X59603061Y-57787641D01*
X59456962Y-57568987D01*
X59315273Y-57427298D01*
X61416903Y-57427298D01*
X62230000Y-58240395D01*
X63043097Y-57427298D01*
X62971514Y-57183329D01*
X62716004Y-57062429D01*
X62441816Y-56993700D01*
X62159488Y-56979783D01*
X61879870Y-57021213D01*
X61613708Y-57116397D01*
X61488486Y-57183329D01*
X61416903Y-57427298D01*
X59315273Y-57427298D01*
X59271013Y-57383038D01*
X59052359Y-57236939D01*
X58809405Y-57136304D01*
X58551486Y-57085000D01*
X58288514Y-57085000D01*
X58030595Y-57136304D01*
X57787641Y-57236939D01*
X57568987Y-57383038D01*
X57383038Y-57568987D01*
X57236939Y-57787641D01*
X57136304Y-58030595D01*
X57085000Y-58288514D01*
X52135000Y-58288514D01*
X52083696Y-58030595D01*
X51983061Y-57787641D01*
X51836962Y-57568987D01*
X51651013Y-57383038D01*
X51611725Y-57356787D01*
X55154619Y-53813894D01*
X55182121Y-53791324D01*
X55411100Y-53668932D01*
X55629607Y-53489608D01*
X55808932Y-53271101D01*
X55880000Y-53138142D01*
X55951068Y-53271100D01*
X56130392Y-53489607D01*
X56348899Y-53668932D01*
X56598192Y-53802182D01*
X56868691Y-53884236D01*
X57150000Y-53911943D01*
X57431308Y-53884236D01*
X57701807Y-53802182D01*
X57951100Y-53668932D01*
X58169607Y-53489608D01*
X58348932Y-53271101D01*
X58420000Y-53138142D01*
X58491068Y-53271100D01*
X58670392Y-53489607D01*
X58888899Y-53668932D01*
X59138192Y-53802182D01*
X59408691Y-53884236D01*
X59690000Y-53911943D01*
X59971308Y-53884236D01*
X60241807Y-53802182D01*
X60491100Y-53668932D01*
X60709607Y-53489608D01*
X60888932Y-53271101D01*
X60960000Y-53138142D01*
X61031068Y-53271100D01*
X61210392Y-53489607D01*
X61428899Y-53668932D01*
X61678192Y-53802182D01*
X61948691Y-53884236D01*
X62230000Y-53911943D01*
X62511308Y-53884236D01*
X62781807Y-53802182D01*
X63031100Y-53668932D01*
X63249607Y-53489608D01*
X63428932Y-53271101D01*
X63500000Y-53138142D01*
X63571068Y-53271100D01*
X63750392Y-53489607D01*
X63968899Y-53668932D01*
X64218192Y-53802182D01*
X64488691Y-53884236D01*
X64770000Y-53911943D01*
X65051308Y-53884236D01*
X65321807Y-53802182D01*
X65571100Y-53668932D01*
X65789607Y-53489608D01*
X65968932Y-53271101D01*
X66040000Y-53138142D01*
X66111068Y-53271100D01*
X66290392Y-53489607D01*
X66508899Y-53668932D01*
X66758192Y-53802182D01*
X67028691Y-53884236D01*
X67310000Y-53911943D01*
X67591308Y-53884236D01*
X67861807Y-53802182D01*
X68111100Y-53668932D01*
X68329607Y-53489608D01*
X68508932Y-53271101D01*
X68580000Y-53138142D01*
X68651068Y-53271100D01*
%TA.AperFunction,Conductor*%
D30*
G36*
X68651068Y-53271100D02*
G01*
X68830392Y-53489607D01*
X69048899Y-53668932D01*
X69298192Y-53802182D01*
X69568691Y-53884236D01*
X69850000Y-53911943D01*
X70131308Y-53884236D01*
X70401807Y-53802182D01*
X70651100Y-53668932D01*
X70869607Y-53489608D01*
X70889802Y-53465000D01*
X72460198Y-53465000D01*
X68818844Y-57106355D01*
X68711486Y-57085000D01*
X68448514Y-57085000D01*
X68190595Y-57136304D01*
X67947641Y-57236939D01*
X67728987Y-57383038D01*
X67543038Y-57568987D01*
X67515634Y-57610000D01*
X65914635Y-57610000D01*
X65844637Y-57505241D01*
X65644759Y-57305363D01*
X65409727Y-57148320D01*
X65148574Y-57040147D01*
X64871335Y-56985000D01*
X64588665Y-56985000D01*
X64311426Y-57040147D01*
X64050273Y-57148320D01*
X63815241Y-57305363D01*
X63615363Y-57505241D01*
X63481308Y-57705869D01*
X63466671Y-57678486D01*
X63222702Y-57606903D01*
X62409605Y-58420000D01*
X63222702Y-59233097D01*
X63466671Y-59161514D01*
X63480324Y-59132659D01*
X63615363Y-59334759D01*
X63815241Y-59534637D01*
X64050273Y-59691680D01*
X64311426Y-59799853D01*
X64588665Y-59855000D01*
X64871335Y-59855000D01*
X65148574Y-59799853D01*
X65409727Y-59691680D01*
X65644759Y-59534637D01*
X65844637Y-59334759D01*
X65914635Y-59230000D01*
X67515634Y-59230000D01*
X67543038Y-59271013D01*
X67728987Y-59456962D01*
X67947641Y-59603061D01*
X68190595Y-59703696D01*
X68448514Y-59755000D01*
X68711486Y-59755000D01*
X68969405Y-59703696D01*
X68983210Y-59697978D01*
X67388188Y-61293000D01*
X52913513Y-61293000D01*
X51610000Y-59989488D01*
X51610000Y-59484366D01*
X51651013Y-59456962D01*
X51836962Y-59271013D01*
X51983061Y-59052359D01*
X52083696Y-58809405D01*
X52135000Y-58551486D01*
X52135000Y-58288514D01*
X57085000Y-58288514D01*
X57085000Y-58551486D01*
X57136304Y-58809405D01*
X57236939Y-59052359D01*
X57383038Y-59271013D01*
X57568987Y-59456962D01*
X57787641Y-59603061D01*
X58030595Y-59703696D01*
X58288514Y-59755000D01*
X58551486Y-59755000D01*
X58809405Y-59703696D01*
X59052359Y-59603061D01*
X59271013Y-59456962D01*
X59315273Y-59412702D01*
X61416903Y-59412702D01*
X61488486Y-59656671D01*
X61743996Y-59777571D01*
X62018184Y-59846300D01*
X62300512Y-59860217D01*
X62580130Y-59818787D01*
X62846292Y-59723603D01*
X62971514Y-59656671D01*
X63043097Y-59412702D01*
X62230000Y-58599605D01*
X61416903Y-59412702D01*
X59315273Y-59412702D01*
X59456962Y-59271013D01*
X59603061Y-59052359D01*
X59703696Y-58809405D01*
X59755000Y-58551486D01*
X59755000Y-58490512D01*
X60789783Y-58490512D01*
X60831213Y-58770130D01*
X60926397Y-59036292D01*
X60993329Y-59161514D01*
X61237298Y-59233097D01*
X62050395Y-58420000D01*
X61237298Y-57606903D01*
X60993329Y-57678486D01*
X60872429Y-57933996D01*
X60803700Y-58208184D01*
X60789783Y-58490512D01*
X59755000Y-58490512D01*
X59755000Y-58288514D01*
X59703696Y-58030595D01*
X59603061Y-57787641D01*
X59456962Y-57568987D01*
X59315273Y-57427298D01*
X61416903Y-57427298D01*
X62230000Y-58240395D01*
X63043097Y-57427298D01*
X62971514Y-57183329D01*
X62716004Y-57062429D01*
X62441816Y-56993700D01*
X62159488Y-56979783D01*
X61879870Y-57021213D01*
X61613708Y-57116397D01*
X61488486Y-57183329D01*
X61416903Y-57427298D01*
X59315273Y-57427298D01*
X59271013Y-57383038D01*
X59052359Y-57236939D01*
X58809405Y-57136304D01*
X58551486Y-57085000D01*
X58288514Y-57085000D01*
X58030595Y-57136304D01*
X57787641Y-57236939D01*
X57568987Y-57383038D01*
X57383038Y-57568987D01*
X57236939Y-57787641D01*
X57136304Y-58030595D01*
X57085000Y-58288514D01*
X52135000Y-58288514D01*
X52083696Y-58030595D01*
X51983061Y-57787641D01*
X51836962Y-57568987D01*
X51651013Y-57383038D01*
X51611725Y-57356787D01*
X55154619Y-53813894D01*
X55182121Y-53791324D01*
X55411100Y-53668932D01*
X55629607Y-53489608D01*
X55808932Y-53271101D01*
X55880000Y-53138142D01*
X55951068Y-53271100D01*
X56130392Y-53489607D01*
X56348899Y-53668932D01*
X56598192Y-53802182D01*
X56868691Y-53884236D01*
X57150000Y-53911943D01*
X57431308Y-53884236D01*
X57701807Y-53802182D01*
X57951100Y-53668932D01*
X58169607Y-53489608D01*
X58348932Y-53271101D01*
X58420000Y-53138142D01*
X58491068Y-53271100D01*
X58670392Y-53489607D01*
X58888899Y-53668932D01*
X59138192Y-53802182D01*
X59408691Y-53884236D01*
X59690000Y-53911943D01*
X59971308Y-53884236D01*
X60241807Y-53802182D01*
X60491100Y-53668932D01*
X60709607Y-53489608D01*
X60888932Y-53271101D01*
X60960000Y-53138142D01*
X61031068Y-53271100D01*
X61210392Y-53489607D01*
X61428899Y-53668932D01*
X61678192Y-53802182D01*
X61948691Y-53884236D01*
X62230000Y-53911943D01*
X62511308Y-53884236D01*
X62781807Y-53802182D01*
X63031100Y-53668932D01*
X63249607Y-53489608D01*
X63428932Y-53271101D01*
X63500000Y-53138142D01*
X63571068Y-53271100D01*
X63750392Y-53489607D01*
X63968899Y-53668932D01*
X64218192Y-53802182D01*
X64488691Y-53884236D01*
X64770000Y-53911943D01*
X65051308Y-53884236D01*
X65321807Y-53802182D01*
X65571100Y-53668932D01*
X65789607Y-53489608D01*
X65968932Y-53271101D01*
X66040000Y-53138142D01*
X66111068Y-53271100D01*
X66290392Y-53489607D01*
X66508899Y-53668932D01*
X66758192Y-53802182D01*
X67028691Y-53884236D01*
X67310000Y-53911943D01*
X67591308Y-53884236D01*
X67861807Y-53802182D01*
X68111100Y-53668932D01*
X68329607Y-53489608D01*
X68508932Y-53271101D01*
X68580000Y-53138142D01*
X68651068Y-53271100D01*
G37*
%TD.AperFunction*%
D29*
X104092429Y-54123996D02*
X104023700Y-54398184D01*
X104009783Y-54680512D01*
X104051213Y-54960130D01*
X104146397Y-55226292D01*
X104213329Y-55351514D01*
X104457296Y-55423097D01*
X104379393Y-55501000D01*
X101256323Y-55501000D01*
X101219000Y-55497324D01*
X101181677Y-55501000D01*
X101181667Y-55501000D01*
X101070014Y-55511997D01*
X100926753Y-55555454D01*
X100794724Y-55626026D01*
X100678999Y-55720999D01*
X100655201Y-55749997D01*
X99819002Y-56586197D01*
X99789999Y-56609999D01*
X99747722Y-56661514D01*
X99695026Y-56725724D01*
X99642069Y-56824799D01*
X99624454Y-56857754D01*
X99580997Y-57001015D01*
X99578401Y-57027376D01*
X99493158Y-56992068D01*
X99206260Y-56935000D01*
X98913740Y-56935000D01*
X98626842Y-56992068D01*
X98356589Y-57104010D01*
X98113368Y-57266525D01*
X97906525Y-57473368D01*
X97784805Y-57655534D01*
X97715178Y-57538645D01*
X97520269Y-57322412D01*
X97286920Y-57148359D01*
X97024099Y-57023175D01*
X96876890Y-56978524D01*
X96647000Y-57099845D01*
X96647000Y-58293000D01*
X96667000Y-58293000D01*
X96667000Y-58547000D01*
X96647000Y-58547000D01*
X96647000Y-58567000D01*
X96393000Y-58567000D01*
X96393000Y-58547000D01*
X96373000Y-58547000D01*
X96373000Y-58293000D01*
X96393000Y-58293000D01*
X96393000Y-57099845D01*
X96163110Y-56978524D01*
X96015901Y-57023175D01*
X95753080Y-57148359D01*
X95519731Y-57322412D01*
X95324822Y-57538645D01*
X95175843Y-57788748D01*
X95167885Y-57811183D01*
X91455704Y-54099003D01*
X91431901Y-54069999D01*
X91316176Y-53975026D01*
X91312386Y-53973000D01*
X104163876Y-53973000D01*
X104092429Y-54123996D01*
%TA.AperFunction,Conductor*%
D30*
G36*
X104092429Y-54123996D02*
G01*
X104023700Y-54398184D01*
X104009783Y-54680512D01*
X104051213Y-54960130D01*
X104146397Y-55226292D01*
X104213329Y-55351514D01*
X104457296Y-55423097D01*
X104379393Y-55501000D01*
X101256323Y-55501000D01*
X101219000Y-55497324D01*
X101181677Y-55501000D01*
X101181667Y-55501000D01*
X101070014Y-55511997D01*
X100926753Y-55555454D01*
X100794724Y-55626026D01*
X100678999Y-55720999D01*
X100655201Y-55749997D01*
X99819002Y-56586197D01*
X99789999Y-56609999D01*
X99747722Y-56661514D01*
X99695026Y-56725724D01*
X99642069Y-56824799D01*
X99624454Y-56857754D01*
X99580997Y-57001015D01*
X99578401Y-57027376D01*
X99493158Y-56992068D01*
X99206260Y-56935000D01*
X98913740Y-56935000D01*
X98626842Y-56992068D01*
X98356589Y-57104010D01*
X98113368Y-57266525D01*
X97906525Y-57473368D01*
X97784805Y-57655534D01*
X97715178Y-57538645D01*
X97520269Y-57322412D01*
X97286920Y-57148359D01*
X97024099Y-57023175D01*
X96876890Y-56978524D01*
X96647000Y-57099845D01*
X96647000Y-58293000D01*
X96667000Y-58293000D01*
X96667000Y-58547000D01*
X96647000Y-58547000D01*
X96647000Y-58567000D01*
X96393000Y-58567000D01*
X96393000Y-58547000D01*
X96373000Y-58547000D01*
X96373000Y-58293000D01*
X96393000Y-58293000D01*
X96393000Y-57099845D01*
X96163110Y-56978524D01*
X96015901Y-57023175D01*
X95753080Y-57148359D01*
X95519731Y-57322412D01*
X95324822Y-57538645D01*
X95175843Y-57788748D01*
X95167885Y-57811183D01*
X91455704Y-54099003D01*
X91431901Y-54069999D01*
X91316176Y-53975026D01*
X91312386Y-53973000D01*
X104163876Y-53973000D01*
X104092429Y-54123996D01*
G37*
%TD.AperFunction*%
D29*
X105643748Y-54595858D02*
X105629605Y-54610000D01*
X105643748Y-54624143D01*
X105464143Y-54803748D01*
X105450000Y-54789605D01*
X105435858Y-54803748D01*
X105256253Y-54624143D01*
X105270395Y-54610000D01*
X105256253Y-54595858D01*
X105435858Y-54416253D01*
X105450000Y-54430395D01*
X105464143Y-54416253D01*
X105643748Y-54595858D01*
%TA.AperFunction,Conductor*%
D30*
G36*
X105643748Y-54595858D02*
G01*
X105629605Y-54610000D01*
X105643748Y-54624143D01*
X105464143Y-54803748D01*
X105450000Y-54789605D01*
X105435858Y-54803748D01*
X105256253Y-54624143D01*
X105270395Y-54610000D01*
X105256253Y-54595858D01*
X105435858Y-54416253D01*
X105450000Y-54430395D01*
X105464143Y-54416253D01*
X105643748Y-54595858D01*
G37*
%TD.AperFunction*%
D29*
X89033356Y-49227487D02*
X88871579Y-49313958D01*
X88781853Y-49573248D01*
X89702000Y-50493395D01*
X90622147Y-49573248D01*
X90532421Y-49313958D01*
X90290496Y-49197000D01*
X91623575Y-49197000D01*
X91451221Y-49268391D01*
X91191621Y-49441850D01*
X90970850Y-49662621D01*
X90890125Y-49783434D01*
X90801752Y-49752853D01*
X89881605Y-50673000D01*
X90801752Y-51593147D01*
X90890125Y-51562566D01*
X90970850Y-51683379D01*
X91191621Y-51904150D01*
X91252757Y-51945000D01*
X90562541Y-51945000D01*
X90622147Y-51772752D01*
X89702000Y-50852605D01*
X88781853Y-51772752D01*
X88841459Y-51945000D01*
X88151243Y-51945000D01*
X88212379Y-51904150D01*
X88433150Y-51683379D01*
X88513875Y-51562566D01*
X88602248Y-51593147D01*
X89522395Y-50673000D01*
X88602248Y-49752853D01*
X88513875Y-49783434D01*
X88433150Y-49662621D01*
X88212379Y-49441850D01*
X87952779Y-49268391D01*
X87780425Y-49197000D01*
X89120909Y-49197000D01*
X89033356Y-49227487D01*
%TA.AperFunction,Conductor*%
D30*
G36*
X89033356Y-49227487D02*
G01*
X88871579Y-49313958D01*
X88781853Y-49573248D01*
X89702000Y-50493395D01*
X90622147Y-49573248D01*
X90532421Y-49313958D01*
X90290496Y-49197000D01*
X91623575Y-49197000D01*
X91451221Y-49268391D01*
X91191621Y-49441850D01*
X90970850Y-49662621D01*
X90890125Y-49783434D01*
X90801752Y-49752853D01*
X89881605Y-50673000D01*
X90801752Y-51593147D01*
X90890125Y-51562566D01*
X90970850Y-51683379D01*
X91191621Y-51904150D01*
X91252757Y-51945000D01*
X90562541Y-51945000D01*
X90622147Y-51772752D01*
X89702000Y-50852605D01*
X88781853Y-51772752D01*
X88841459Y-51945000D01*
X88151243Y-51945000D01*
X88212379Y-51904150D01*
X88433150Y-51683379D01*
X88513875Y-51562566D01*
X88602248Y-51593147D01*
X89522395Y-50673000D01*
X88602248Y-49752853D01*
X88513875Y-49783434D01*
X88433150Y-49662621D01*
X88212379Y-49441850D01*
X87952779Y-49268391D01*
X87780425Y-49197000D01*
X89120909Y-49197000D01*
X89033356Y-49227487D01*
G37*
%TD.AperFunction*%
D29*
X140922001Y-38751814D02*
X140922000Y-40939487D01*
X140339008Y-41522480D01*
X140263151Y-41614911D01*
X140187938Y-41755627D01*
X140141621Y-41908313D01*
X140125981Y-42067100D01*
X140141621Y-42225887D01*
X140179901Y-42352078D01*
X140179901Y-43080873D01*
X139951816Y-43023700D01*
X139669488Y-43009783D01*
X139389870Y-43051213D01*
X139123708Y-43146397D01*
X138998486Y-43213329D01*
X138926903Y-43457298D01*
X139740000Y-44270395D01*
X139754143Y-44256253D01*
X139933748Y-44435858D01*
X139919605Y-44450000D01*
X139933748Y-44464143D01*
X139754143Y-44643748D01*
X139740000Y-44629605D01*
X138926903Y-45442702D01*
X138998486Y-45686671D01*
X139253996Y-45807571D01*
X139528184Y-45876300D01*
X139661610Y-45882877D01*
X138348488Y-47196000D01*
X129514812Y-47196000D01*
X131354619Y-45356194D01*
X131385528Y-45330828D01*
X131441119Y-45263090D01*
X131486749Y-45207490D01*
X131527468Y-45131308D01*
X131561963Y-45066773D01*
X131608280Y-44914088D01*
X131620000Y-44795091D01*
X131620000Y-44795089D01*
X131622514Y-44769565D01*
X131829607Y-44599608D01*
X131894519Y-44520512D01*
X138299783Y-44520512D01*
X138341213Y-44800130D01*
X138436397Y-45066292D01*
X138503329Y-45191514D01*
X138747298Y-45263097D01*
X139560395Y-44450000D01*
X138747298Y-43636903D01*
X138503329Y-43708486D01*
X138382429Y-43963996D01*
X138313700Y-44238184D01*
X138299783Y-44520512D01*
X131894519Y-44520512D01*
X132008932Y-44381101D01*
X132142182Y-44131808D01*
X132224236Y-43861309D01*
X132245000Y-43650492D01*
X132245000Y-42709509D01*
X132224236Y-42498691D01*
X132142182Y-42228192D01*
X132008932Y-41978899D01*
X131829608Y-41760392D01*
X131699969Y-41654000D01*
X138190278Y-41654000D01*
X138227600Y-41657676D01*
X138264922Y-41654000D01*
X138264933Y-41654000D01*
X138376586Y-41643003D01*
X138519847Y-41599546D01*
X138651876Y-41528974D01*
X138767601Y-41434001D01*
X138791404Y-41404997D01*
X139897004Y-40299398D01*
X139926001Y-40275601D01*
X139986792Y-40201527D01*
X140020974Y-40159877D01*
X140091546Y-40027847D01*
X140094013Y-40019713D01*
X140135003Y-39884586D01*
X140140279Y-39831015D01*
X140259188Y-39767457D01*
X140470081Y-39594381D01*
X140643157Y-39383488D01*
X140771764Y-39142881D01*
X140850960Y-38881807D01*
X140868985Y-38698798D01*
X140922001Y-38751814D01*
%TA.AperFunction,Conductor*%
D30*
G36*
X140922001Y-38751814D02*
G01*
X140922000Y-40939487D01*
X140339008Y-41522480D01*
X140263151Y-41614911D01*
X140187938Y-41755627D01*
X140141621Y-41908313D01*
X140125981Y-42067100D01*
X140141621Y-42225887D01*
X140179901Y-42352078D01*
X140179901Y-43080873D01*
X139951816Y-43023700D01*
X139669488Y-43009783D01*
X139389870Y-43051213D01*
X139123708Y-43146397D01*
X138998486Y-43213329D01*
X138926903Y-43457298D01*
X139740000Y-44270395D01*
X139754143Y-44256253D01*
X139933748Y-44435858D01*
X139919605Y-44450000D01*
X139933748Y-44464143D01*
X139754143Y-44643748D01*
X139740000Y-44629605D01*
X138926903Y-45442702D01*
X138998486Y-45686671D01*
X139253996Y-45807571D01*
X139528184Y-45876300D01*
X139661610Y-45882877D01*
X138348488Y-47196000D01*
X129514812Y-47196000D01*
X131354619Y-45356194D01*
X131385528Y-45330828D01*
X131441119Y-45263090D01*
X131486749Y-45207490D01*
X131527468Y-45131308D01*
X131561963Y-45066773D01*
X131608280Y-44914088D01*
X131620000Y-44795091D01*
X131620000Y-44795089D01*
X131622514Y-44769565D01*
X131829607Y-44599608D01*
X131894519Y-44520512D01*
X138299783Y-44520512D01*
X138341213Y-44800130D01*
X138436397Y-45066292D01*
X138503329Y-45191514D01*
X138747298Y-45263097D01*
X139560395Y-44450000D01*
X138747298Y-43636903D01*
X138503329Y-43708486D01*
X138382429Y-43963996D01*
X138313700Y-44238184D01*
X138299783Y-44520512D01*
X131894519Y-44520512D01*
X132008932Y-44381101D01*
X132142182Y-44131808D01*
X132224236Y-43861309D01*
X132245000Y-43650492D01*
X132245000Y-42709509D01*
X132224236Y-42498691D01*
X132142182Y-42228192D01*
X132008932Y-41978899D01*
X131829608Y-41760392D01*
X131699969Y-41654000D01*
X138190278Y-41654000D01*
X138227600Y-41657676D01*
X138264922Y-41654000D01*
X138264933Y-41654000D01*
X138376586Y-41643003D01*
X138519847Y-41599546D01*
X138651876Y-41528974D01*
X138767601Y-41434001D01*
X138791404Y-41404997D01*
X139897004Y-40299398D01*
X139926001Y-40275601D01*
X139986792Y-40201527D01*
X140020974Y-40159877D01*
X140091546Y-40027847D01*
X140094013Y-40019713D01*
X140135003Y-39884586D01*
X140140279Y-39831015D01*
X140259188Y-39767457D01*
X140470081Y-39594381D01*
X140643157Y-39383488D01*
X140771764Y-39142881D01*
X140850960Y-38881807D01*
X140868985Y-38698798D01*
X140922001Y-38751814D01*
G37*
%TD.AperFunction*%
D29*
X49657000Y-44323000D02*
X49677000Y-44323000D01*
X49677000Y-44577000D01*
X49657000Y-44577000D01*
X49657000Y-46119915D01*
X49879039Y-46241904D01*
X49961818Y-46224367D01*
X50221646Y-46113715D01*
X50454895Y-45954500D01*
X50652601Y-45752839D01*
X50802735Y-45523258D01*
X50871068Y-45651100D01*
X51050392Y-45869607D01*
X51268899Y-46048932D01*
X51518192Y-46182182D01*
X51788691Y-46264236D01*
X52070000Y-46291943D01*
X52351308Y-46264236D01*
X52621807Y-46182182D01*
X52871100Y-46048932D01*
X53089607Y-45869608D01*
X53268932Y-45651101D01*
X53340000Y-45518142D01*
X53411068Y-45651100D01*
X53590392Y-45869607D01*
X53808899Y-46048932D01*
X54058192Y-46182182D01*
X54328691Y-46264236D01*
X54610000Y-46291943D01*
X54891308Y-46264236D01*
X55161807Y-46182182D01*
X55411100Y-46048932D01*
X55629607Y-45869608D01*
X55808932Y-45651101D01*
X55880000Y-45518142D01*
X55951068Y-45651100D01*
X56130392Y-45869607D01*
X56348899Y-46048932D01*
X56598192Y-46182182D01*
X56868691Y-46264236D01*
X57150000Y-46291943D01*
X57431308Y-46264236D01*
X57701807Y-46182182D01*
X57951100Y-46048932D01*
X58169607Y-45869608D01*
X58348932Y-45651101D01*
X58420000Y-45518142D01*
X58491068Y-45651100D01*
X58670392Y-45869607D01*
X58888899Y-46048932D01*
X59138192Y-46182182D01*
X59408691Y-46264236D01*
X59690000Y-46291943D01*
X59971308Y-46264236D01*
X60241807Y-46182182D01*
X60491100Y-46048932D01*
X60709607Y-45869608D01*
X60888932Y-45651101D01*
X60957265Y-45523259D01*
X61107399Y-45752839D01*
X61305105Y-45954500D01*
X61538354Y-46113715D01*
X61798182Y-46224367D01*
X61880961Y-46241904D01*
X62103000Y-46119915D01*
X62103000Y-44577000D01*
X62083000Y-44577000D01*
X62083000Y-44323000D01*
X62103000Y-44323000D01*
X62103000Y-44303000D01*
X62357000Y-44303000D01*
X62357000Y-44323000D01*
X62377000Y-44323000D01*
X62377000Y-44577000D01*
X62357000Y-44577000D01*
X62357000Y-46119915D01*
X62579039Y-46241904D01*
X62661818Y-46224367D01*
X62921646Y-46113715D01*
X63154895Y-45954500D01*
X63352601Y-45752839D01*
X63502735Y-45523258D01*
X63571068Y-45651100D01*
X63750392Y-45869607D01*
X63968899Y-46048932D01*
X64218192Y-46182182D01*
X64488691Y-46264236D01*
X64709503Y-46285984D01*
X64307488Y-46688000D01*
X46055513Y-46688000D01*
X45341915Y-45974402D01*
X45469607Y-45869608D01*
X45648932Y-45651101D01*
X45720000Y-45518142D01*
X45791068Y-45651100D01*
X45970392Y-45869607D01*
X46188899Y-46048932D01*
X46438192Y-46182182D01*
X46708691Y-46264236D01*
X46990000Y-46291943D01*
X47271308Y-46264236D01*
X47541807Y-46182182D01*
X47791100Y-46048932D01*
X48009607Y-45869608D01*
X48188932Y-45651101D01*
X48257265Y-45523259D01*
X48407399Y-45752839D01*
X48605105Y-45954500D01*
X48838354Y-46113715D01*
X49098182Y-46224367D01*
X49180961Y-46241904D01*
X49403000Y-46119915D01*
X49403000Y-44577000D01*
X49383000Y-44577000D01*
X49383000Y-44323000D01*
X49403000Y-44323000D01*
X49403000Y-44303000D01*
X49657000Y-44303000D01*
X49657000Y-44323000D01*
%TA.AperFunction,Conductor*%
D30*
G36*
X49657000Y-44323000D02*
G01*
X49677000Y-44323000D01*
X49677000Y-44577000D01*
X49657000Y-44577000D01*
X49657000Y-46119915D01*
X49879039Y-46241904D01*
X49961818Y-46224367D01*
X50221646Y-46113715D01*
X50454895Y-45954500D01*
X50652601Y-45752839D01*
X50802735Y-45523258D01*
X50871068Y-45651100D01*
X51050392Y-45869607D01*
X51268899Y-46048932D01*
X51518192Y-46182182D01*
X51788691Y-46264236D01*
X52070000Y-46291943D01*
X52351308Y-46264236D01*
X52621807Y-46182182D01*
X52871100Y-46048932D01*
X53089607Y-45869608D01*
X53268932Y-45651101D01*
X53340000Y-45518142D01*
X53411068Y-45651100D01*
X53590392Y-45869607D01*
X53808899Y-46048932D01*
X54058192Y-46182182D01*
X54328691Y-46264236D01*
X54610000Y-46291943D01*
X54891308Y-46264236D01*
X55161807Y-46182182D01*
X55411100Y-46048932D01*
X55629607Y-45869608D01*
X55808932Y-45651101D01*
X55880000Y-45518142D01*
X55951068Y-45651100D01*
X56130392Y-45869607D01*
X56348899Y-46048932D01*
X56598192Y-46182182D01*
X56868691Y-46264236D01*
X57150000Y-46291943D01*
X57431308Y-46264236D01*
X57701807Y-46182182D01*
X57951100Y-46048932D01*
X58169607Y-45869608D01*
X58348932Y-45651101D01*
X58420000Y-45518142D01*
X58491068Y-45651100D01*
X58670392Y-45869607D01*
X58888899Y-46048932D01*
X59138192Y-46182182D01*
X59408691Y-46264236D01*
X59690000Y-46291943D01*
X59971308Y-46264236D01*
X60241807Y-46182182D01*
X60491100Y-46048932D01*
X60709607Y-45869608D01*
X60888932Y-45651101D01*
X60957265Y-45523259D01*
X61107399Y-45752839D01*
X61305105Y-45954500D01*
X61538354Y-46113715D01*
X61798182Y-46224367D01*
X61880961Y-46241904D01*
X62103000Y-46119915D01*
X62103000Y-44577000D01*
X62083000Y-44577000D01*
X62083000Y-44323000D01*
X62103000Y-44323000D01*
X62103000Y-44303000D01*
X62357000Y-44303000D01*
X62357000Y-44323000D01*
X62377000Y-44323000D01*
X62377000Y-44577000D01*
X62357000Y-44577000D01*
X62357000Y-46119915D01*
X62579039Y-46241904D01*
X62661818Y-46224367D01*
X62921646Y-46113715D01*
X63154895Y-45954500D01*
X63352601Y-45752839D01*
X63502735Y-45523258D01*
X63571068Y-45651100D01*
X63750392Y-45869607D01*
X63968899Y-46048932D01*
X64218192Y-46182182D01*
X64488691Y-46264236D01*
X64709503Y-46285984D01*
X64307488Y-46688000D01*
X46055513Y-46688000D01*
X45341915Y-45974402D01*
X45469607Y-45869608D01*
X45648932Y-45651101D01*
X45720000Y-45518142D01*
X45791068Y-45651100D01*
X45970392Y-45869607D01*
X46188899Y-46048932D01*
X46438192Y-46182182D01*
X46708691Y-46264236D01*
X46990000Y-46291943D01*
X47271308Y-46264236D01*
X47541807Y-46182182D01*
X47791100Y-46048932D01*
X48009607Y-45869608D01*
X48188932Y-45651101D01*
X48257265Y-45523259D01*
X48407399Y-45752839D01*
X48605105Y-45954500D01*
X48838354Y-46113715D01*
X49098182Y-46224367D01*
X49180961Y-46241904D01*
X49403000Y-46119915D01*
X49403000Y-44577000D01*
X49383000Y-44577000D01*
X49383000Y-44323000D01*
X49403000Y-44323000D01*
X49403000Y-44303000D01*
X49657000Y-44303000D01*
X49657000Y-44323000D01*
G37*
%TD.AperFunction*%
D29*
X110617000Y-43053000D02*
X110637000Y-43053000D01*
X110637000Y-43307000D01*
X110617000Y-43307000D01*
X110617000Y-44849915D01*
X110839039Y-44971904D01*
X110921818Y-44954367D01*
X111181646Y-44843715D01*
X111414895Y-44684500D01*
X111612601Y-44482839D01*
X111762735Y-44253258D01*
X111831068Y-44381100D01*
X112010392Y-44599607D01*
X112228899Y-44778932D01*
X112478192Y-44912182D01*
X112748691Y-44994236D01*
X113030000Y-45021943D01*
X113311308Y-44994236D01*
X113581807Y-44912182D01*
X113831100Y-44778932D01*
X114049607Y-44599608D01*
X114228932Y-44381101D01*
X114300000Y-44248142D01*
X114371068Y-44381100D01*
X114550392Y-44599607D01*
X114768899Y-44778932D01*
X115018192Y-44912182D01*
X115288691Y-44994236D01*
X115570000Y-45021943D01*
X115851308Y-44994236D01*
X116121807Y-44912182D01*
X116371100Y-44778932D01*
X116589607Y-44599608D01*
X116768932Y-44381101D01*
X116840000Y-44248142D01*
X116911068Y-44381100D01*
X117090392Y-44599607D01*
X117308899Y-44778932D01*
X117558192Y-44912182D01*
X117828691Y-44994236D01*
X118110000Y-45021943D01*
X118391308Y-44994236D01*
X118661807Y-44912182D01*
X118911100Y-44778932D01*
X119129607Y-44599608D01*
X119308932Y-44381101D01*
X119380000Y-44248142D01*
X119451068Y-44381100D01*
X119630392Y-44599607D01*
X119848899Y-44778932D01*
X120098192Y-44912182D01*
X120368691Y-44994236D01*
X120650000Y-45021943D01*
X120931308Y-44994236D01*
X121201807Y-44912182D01*
X121451100Y-44778932D01*
X121669607Y-44599608D01*
X121848932Y-44381101D01*
X121917265Y-44253259D01*
X122067399Y-44482839D01*
X122265105Y-44684500D01*
X122498354Y-44843715D01*
X122758182Y-44954367D01*
X122840961Y-44971904D01*
X123063000Y-44849915D01*
X123063000Y-43307000D01*
X123043000Y-43307000D01*
X123043000Y-43053000D01*
X123063000Y-43053000D01*
X123063000Y-43033000D01*
X123317000Y-43033000D01*
X123317000Y-43053000D01*
X123337000Y-43053000D01*
X123337000Y-43307000D01*
X123317000Y-43307000D01*
X123317000Y-44849915D01*
X123539039Y-44971904D01*
X123621818Y-44954367D01*
X123881646Y-44843715D01*
X124114895Y-44684500D01*
X124312601Y-44482839D01*
X124462735Y-44253258D01*
X124531068Y-44381100D01*
X124700696Y-44587792D01*
X123997488Y-45291000D01*
X105745513Y-45291000D01*
X105470497Y-45015984D01*
X105691308Y-44994236D01*
X105961807Y-44912182D01*
X106211100Y-44778932D01*
X106429607Y-44599608D01*
X106608932Y-44381101D01*
X106680000Y-44248142D01*
X106751068Y-44381100D01*
X106930392Y-44599607D01*
X107148899Y-44778932D01*
X107398192Y-44912182D01*
X107668691Y-44994236D01*
X107950000Y-45021943D01*
X108231308Y-44994236D01*
X108501807Y-44912182D01*
X108751100Y-44778932D01*
X108969607Y-44599608D01*
X109148932Y-44381101D01*
X109217265Y-44253259D01*
X109367399Y-44482839D01*
X109565105Y-44684500D01*
X109798354Y-44843715D01*
X110058182Y-44954367D01*
X110140961Y-44971904D01*
X110363000Y-44849915D01*
X110363000Y-43307000D01*
X110343000Y-43307000D01*
X110343000Y-43053000D01*
X110363000Y-43053000D01*
X110363000Y-43033000D01*
X110617000Y-43033000D01*
X110617000Y-43053000D01*
%TA.AperFunction,Conductor*%
D30*
G36*
X110617000Y-43053000D02*
G01*
X110637000Y-43053000D01*
X110637000Y-43307000D01*
X110617000Y-43307000D01*
X110617000Y-44849915D01*
X110839039Y-44971904D01*
X110921818Y-44954367D01*
X111181646Y-44843715D01*
X111414895Y-44684500D01*
X111612601Y-44482839D01*
X111762735Y-44253258D01*
X111831068Y-44381100D01*
X112010392Y-44599607D01*
X112228899Y-44778932D01*
X112478192Y-44912182D01*
X112748691Y-44994236D01*
X113030000Y-45021943D01*
X113311308Y-44994236D01*
X113581807Y-44912182D01*
X113831100Y-44778932D01*
X114049607Y-44599608D01*
X114228932Y-44381101D01*
X114300000Y-44248142D01*
X114371068Y-44381100D01*
X114550392Y-44599607D01*
X114768899Y-44778932D01*
X115018192Y-44912182D01*
X115288691Y-44994236D01*
X115570000Y-45021943D01*
X115851308Y-44994236D01*
X116121807Y-44912182D01*
X116371100Y-44778932D01*
X116589607Y-44599608D01*
X116768932Y-44381101D01*
X116840000Y-44248142D01*
X116911068Y-44381100D01*
X117090392Y-44599607D01*
X117308899Y-44778932D01*
X117558192Y-44912182D01*
X117828691Y-44994236D01*
X118110000Y-45021943D01*
X118391308Y-44994236D01*
X118661807Y-44912182D01*
X118911100Y-44778932D01*
X119129607Y-44599608D01*
X119308932Y-44381101D01*
X119380000Y-44248142D01*
X119451068Y-44381100D01*
X119630392Y-44599607D01*
X119848899Y-44778932D01*
X120098192Y-44912182D01*
X120368691Y-44994236D01*
X120650000Y-45021943D01*
X120931308Y-44994236D01*
X121201807Y-44912182D01*
X121451100Y-44778932D01*
X121669607Y-44599608D01*
X121848932Y-44381101D01*
X121917265Y-44253259D01*
X122067399Y-44482839D01*
X122265105Y-44684500D01*
X122498354Y-44843715D01*
X122758182Y-44954367D01*
X122840961Y-44971904D01*
X123063000Y-44849915D01*
X123063000Y-43307000D01*
X123043000Y-43307000D01*
X123043000Y-43053000D01*
X123063000Y-43053000D01*
X123063000Y-43033000D01*
X123317000Y-43033000D01*
X123317000Y-43053000D01*
X123337000Y-43053000D01*
X123337000Y-43307000D01*
X123317000Y-43307000D01*
X123317000Y-44849915D01*
X123539039Y-44971904D01*
X123621818Y-44954367D01*
X123881646Y-44843715D01*
X124114895Y-44684500D01*
X124312601Y-44482839D01*
X124462735Y-44253258D01*
X124531068Y-44381100D01*
X124700696Y-44587792D01*
X123997488Y-45291000D01*
X105745513Y-45291000D01*
X105470497Y-45015984D01*
X105691308Y-44994236D01*
X105961807Y-44912182D01*
X106211100Y-44778932D01*
X106429607Y-44599608D01*
X106608932Y-44381101D01*
X106680000Y-44248142D01*
X106751068Y-44381100D01*
X106930392Y-44599607D01*
X107148899Y-44778932D01*
X107398192Y-44912182D01*
X107668691Y-44994236D01*
X107950000Y-45021943D01*
X108231308Y-44994236D01*
X108501807Y-44912182D01*
X108751100Y-44778932D01*
X108969607Y-44599608D01*
X109148932Y-44381101D01*
X109217265Y-44253259D01*
X109367399Y-44482839D01*
X109565105Y-44684500D01*
X109798354Y-44843715D01*
X110058182Y-44954367D01*
X110140961Y-44971904D01*
X110363000Y-44849915D01*
X110363000Y-43307000D01*
X110343000Y-43307000D01*
X110343000Y-43053000D01*
X110363000Y-43053000D01*
X110363000Y-43033000D01*
X110617000Y-43033000D01*
X110617000Y-43053000D01*
G37*
%TD.AperFunction*%
%TD*%
M02*
