%TF.GenerationSoftware,KiCad,Pcbnew,(5.1.9)-1*%
%TF.CreationDate,2021-09-19T21:33:38+01:00*%
%TF.ProjectId,Cesna_Radio_Stack,4365736e-615f-4526-9164-696f5f537461,rev?*%
%TF.SameCoordinates,Original*%
%TF.FileFunction,Soldermask,Bot*%
%TF.FilePolarity,Negative*%
%FSLAX46Y46*%
G04 Gerber Fmt 4.6, Leading zero omitted, Abs format (unit mm)*
G04 Created by KiCad (PCBNEW (5.1.9)-1) date 2021-09-19 21:33:38*
%MOMM*%
%LPD*%
G01*
G04 APERTURE LIST*
%ADD10C,1.900000*%
%ADD11O,1.700000X1.500000*%
%ADD12R,1.700000X1.500000*%
%ADD13C,3.200000*%
%ADD14R,1.500000X1.500000*%
%ADD15C,1.500000*%
%ADD16O,1.600000X2.400000*%
%ADD17R,1.600000X2.400000*%
%ADD18R,2.000000X2.000000*%
%ADD19C,2.000000*%
%ADD20R,3.000000X2.500000*%
%ADD21C,1.600000*%
%ADD22R,1.600000X1.600000*%
%ADD23O,1.400000X1.400000*%
%ADD24C,1.400000*%
%ADD25O,1.700000X1.700000*%
%ADD26R,1.700000X1.700000*%
G04 APERTURE END LIST*
D10*
%TO.C,SW1*%
X87202000Y-44873000D03*
X89702000Y-44873000D03*
X92202000Y-44873000D03*
X87202000Y-50673000D03*
X89702000Y-50673000D03*
X92202000Y-50673000D03*
%TD*%
D11*
%TO.C,U8*%
X139386000Y-28450300D03*
X139386000Y-30990300D03*
X139386000Y-33530300D03*
X139386000Y-36070300D03*
X139386000Y-38610300D03*
X134306000Y-38610300D03*
X134306000Y-36070300D03*
X134306000Y-33530300D03*
X134306000Y-30990300D03*
D12*
X134306000Y-28450300D03*
%TD*%
D11*
%TO.C,U6*%
X101667000Y-28450300D03*
X101667000Y-30990300D03*
X101667000Y-33530300D03*
X101667000Y-36070300D03*
X101667000Y-38610300D03*
X96587000Y-38610300D03*
X96587000Y-36070300D03*
X96587000Y-33530300D03*
X96587000Y-30990300D03*
D12*
X96587000Y-28450300D03*
%TD*%
D11*
%TO.C,U2*%
X45825100Y-28488400D03*
X45825100Y-31028400D03*
X45825100Y-33568400D03*
X45825100Y-36108400D03*
X45825100Y-38648400D03*
X40745100Y-38648400D03*
X40745100Y-36108400D03*
X40745100Y-33568400D03*
X40745100Y-31028400D03*
D12*
X40745100Y-28488400D03*
%TD*%
D11*
%TO.C,U4*%
X83442500Y-28412200D03*
X83442500Y-30952200D03*
X83442500Y-33492200D03*
X83442500Y-36032200D03*
X83442500Y-38572200D03*
X78362500Y-38572200D03*
X78362500Y-36032200D03*
X78362500Y-33492200D03*
X78362500Y-30952200D03*
D12*
X78362500Y-28412200D03*
%TD*%
D13*
%TO.C,H4*%
X90170000Y-59690000D03*
%TD*%
%TO.C,H3*%
X90170000Y-33020000D03*
%TD*%
%TO.C,H1*%
X33020000Y-27940000D03*
%TD*%
%TO.C,H2*%
X33020000Y-60960000D03*
%TD*%
%TO.C,H6*%
X177800000Y-60960000D03*
%TD*%
%TO.C,H5*%
X177800000Y-27940000D03*
%TD*%
D14*
%TO.C,U7*%
X111520000Y-38720000D03*
D15*
X114060000Y-38720000D03*
X116600000Y-38720000D03*
X119140000Y-38720000D03*
X121680000Y-38720000D03*
X124220000Y-38720000D03*
X124220000Y-28560000D03*
X121680000Y-28560000D03*
X119140000Y-28560000D03*
X116600000Y-28560000D03*
X114060000Y-28560000D03*
X111520000Y-28560000D03*
%TD*%
D16*
%TO.C,U5*%
X102870000Y-50800000D03*
X130810000Y-43180000D03*
X105410000Y-50800000D03*
X128270000Y-43180000D03*
X107950000Y-50800000D03*
X125730000Y-43180000D03*
X110490000Y-50800000D03*
X123190000Y-43180000D03*
X113030000Y-50800000D03*
X120650000Y-43180000D03*
X115570000Y-50800000D03*
X118110000Y-43180000D03*
X118110000Y-50800000D03*
X115570000Y-43180000D03*
X120650000Y-50800000D03*
X113030000Y-43180000D03*
X123190000Y-50800000D03*
X110490000Y-43180000D03*
X125730000Y-50800000D03*
X107950000Y-43180000D03*
X128270000Y-50800000D03*
X105410000Y-43180000D03*
X130810000Y-50800000D03*
D17*
X102870000Y-43180000D03*
%TD*%
D14*
%TO.C,U3*%
X55640000Y-38720000D03*
D15*
X58180000Y-38720000D03*
X60720000Y-38720000D03*
X63260000Y-38720000D03*
X65800000Y-38720000D03*
X68340000Y-38720000D03*
X68340000Y-28560000D03*
X65800000Y-28560000D03*
X63260000Y-28560000D03*
X60720000Y-28560000D03*
X58180000Y-28560000D03*
X55640000Y-28560000D03*
%TD*%
D18*
%TO.C,SW2*%
X154900000Y-33020000D03*
D19*
X154900000Y-35520000D03*
X154900000Y-38020000D03*
D20*
X162400000Y-29920000D03*
X162400000Y-41120000D03*
D19*
X169400000Y-33020000D03*
X169400000Y-38020000D03*
%TD*%
D21*
%TO.C,C7*%
X140970000Y-55920000D03*
D22*
X140970000Y-58420000D03*
%TD*%
D21*
%TO.C,C2*%
X105450000Y-54610000D03*
X107950000Y-54610000D03*
%TD*%
D16*
%TO.C,U1*%
X41910000Y-52070000D03*
X69850000Y-44450000D03*
X44450000Y-52070000D03*
X67310000Y-44450000D03*
X46990000Y-52070000D03*
X64770000Y-44450000D03*
X49530000Y-52070000D03*
X62230000Y-44450000D03*
X52070000Y-52070000D03*
X59690000Y-44450000D03*
X54610000Y-52070000D03*
X57150000Y-44450000D03*
X57150000Y-52070000D03*
X54610000Y-44450000D03*
X59690000Y-52070000D03*
X52070000Y-44450000D03*
X62230000Y-52070000D03*
X49530000Y-44450000D03*
X64770000Y-52070000D03*
X46990000Y-44450000D03*
X67310000Y-52070000D03*
X44450000Y-44450000D03*
X69850000Y-52070000D03*
D17*
X41910000Y-44450000D03*
%TD*%
D18*
%TO.C,SW3*%
X154900000Y-50800000D03*
D19*
X154900000Y-53300000D03*
X154900000Y-55800000D03*
D20*
X162400000Y-47700000D03*
X162400000Y-58900000D03*
D19*
X169400000Y-50800000D03*
X169400000Y-55800000D03*
%TD*%
D23*
%TO.C,R8*%
X170180000Y-62230000D03*
D24*
X162560000Y-62230000D03*
%TD*%
D23*
%TO.C,R7*%
X110490000Y-54610000D03*
D24*
X118110000Y-54610000D03*
%TD*%
D23*
%TO.C,R6*%
X76200000Y-58420000D03*
D24*
X68580000Y-58420000D03*
%TD*%
D23*
%TO.C,R5*%
X176530000Y-41910000D03*
D24*
X176530000Y-49530000D03*
%TD*%
D23*
%TO.C,R4*%
X135890000Y-62230000D03*
D24*
X143510000Y-62230000D03*
%TD*%
D23*
%TO.C,R3*%
X147320000Y-59690000D03*
D24*
X147320000Y-52070000D03*
%TD*%
D23*
%TO.C,R2*%
X148590000Y-40640000D03*
D24*
X148590000Y-33020000D03*
%TD*%
D23*
%TO.C,R1*%
X50800000Y-58420000D03*
D24*
X58420000Y-58420000D03*
%TD*%
D25*
%TO.C,J1*%
X96520000Y-58420000D03*
X96520000Y-60960000D03*
X99060000Y-58420000D03*
X99060000Y-60960000D03*
X101600000Y-58420000D03*
X101600000Y-60960000D03*
X104140000Y-58420000D03*
X104140000Y-60960000D03*
X106680000Y-58420000D03*
X106680000Y-60960000D03*
X109220000Y-58420000D03*
X109220000Y-60960000D03*
X111760000Y-58420000D03*
X111760000Y-60960000D03*
X114300000Y-58420000D03*
X114300000Y-60960000D03*
X116840000Y-58420000D03*
X116840000Y-60960000D03*
X119380000Y-58420000D03*
X119380000Y-60960000D03*
X121920000Y-58420000D03*
X121920000Y-60960000D03*
X124460000Y-58420000D03*
X124460000Y-60960000D03*
X127000000Y-58420000D03*
X127000000Y-60960000D03*
X129540000Y-58420000D03*
X129540000Y-60960000D03*
X132080000Y-58420000D03*
D26*
X132080000Y-60960000D03*
%TD*%
D21*
%TO.C,C11*%
X176530000Y-52110000D03*
X176530000Y-54610000D03*
%TD*%
%TO.C,C10*%
X62230000Y-58420000D03*
X64730000Y-58420000D03*
%TD*%
%TO.C,C9*%
X176530000Y-36870000D03*
X176530000Y-39370000D03*
%TD*%
%TO.C,C8*%
X157440000Y-62230000D03*
X154940000Y-62230000D03*
%TD*%
%TO.C,C6*%
X142200000Y-49530000D03*
X139700000Y-49530000D03*
%TD*%
%TO.C,C5*%
X139740000Y-44450000D03*
X142240000Y-44450000D03*
%TD*%
%TO.C,C4*%
X148630000Y-27940000D03*
X151130000Y-27940000D03*
%TD*%
%TO.C,C3*%
X83780000Y-58420000D03*
X81280000Y-58420000D03*
%TD*%
%TO.C,C1*%
X146090000Y-46990000D03*
D22*
X148590000Y-46990000D03*
%TD*%
M02*
